<svg version="1.1" xmlns="http://www.w3.org/2000/svg" viewBox="0 0 932 365" width="1864" height="730">
  <!-- svg-source:excalidraw -->
  
  <defs>
    <style>
      @font-face {
        font-family: "Virgil";
        src: url("https://excalidraw.com/Virgil.woff2");
      }
      @font-face {
        font-family: "Cascadia";
        src: url("https://excalidraw.com/Cascadia.woff2");
      }
    </style>
  </defs>
  <rect x="0" y="0" width="932" height="365" fill="#ffffff"></rect><g stroke-linecap="round" transform="translate(41 133.5) rotate(0 85.5 30)"><path d="M0 0 C0 0, 0 0, 0 0 M0 0 C0 0, 0 0, 0 0 M0.25 5.74 C1.73 5.55, 1.73 2.99, 5.51 1.05 M0.02 6.26 C1.16 4.46, 3.02 2.62, 4.94 0.71 M0.03 11.02 C4.43 10.05, 6.67 7.26, 10.91 -0.7 M-0.33 11.48 C2.56 9.34, 5.77 5.86, 10.83 -0.76 M0.5 19.58 C6.11 12.77, 12.88 6.46, 14.24 1.39 M0.13 18.22 C4.02 12.31, 9.89 7.35, 14.84 -0.14 M0.63 24.98 C6.18 20.16, 10.38 14.47, 21.85 0.52 M0.55 24.7 C7.02 17.26, 12.69 9.46, 21.57 0.46 M-0.24 29.41 C8.62 17.42, 18.12 8.22, 27.73 1.87 M0.87 30.72 C7.06 21.75, 15.12 14.01, 26.11 1.09 M-1.94 35.71 C10.64 24.88, 21.44 14.3, 30.32 -0.56 M-0.03 36.38 C7.12 27.68, 14.15 18.73, 31.44 0.89 M1.54 42.37 C12.51 27.09, 25.46 11.81, 38.26 -1.11 M0.07 41.7 C8.57 31.01, 19.01 21.18, 37.74 -0.57 M-0.91 50.82 C13.27 33.83, 27.49 17.39, 42.65 0.53 M-0.78 48.38 C8.42 36.96, 20.13 25.26, 42.17 0.21 M2.07 53.1 C8.98 42.54, 22.71 29.92, 46.82 -1.66 M0.44 54.02 C14.1 38.15, 27.89 23.75, 48.06 0.13 M-1.29 62.19 C19.79 37.69, 37.66 13.9, 54.57 -1.07 M1.6 60.93 C14.98 43.23, 29.97 27.69, 52.71 -0.96 M4.35 60.69 C19.59 43.15, 35.47 24.13, 59.91 0.6 M5.15 61.27 C22.42 40.22, 40.91 20.89, 58.62 1.18 M10.61 61.65 C25.28 42.51, 39.4 27.93, 63.33 0.27 M10.86 60.46 C25.07 45.78, 37.12 31.47, 63.24 0.75 M15.61 60.77 C33.82 39.87, 53.26 18.57, 69.52 0.54 M15.41 59.81 C36.71 36.62, 55.13 14.14, 68.24 -0.67 M22.93 61.38 C34.79 44.23, 47.16 31.42, 75.66 0.67 M20.98 60.05 C35.84 42.27, 50.74 26.69, 75.22 -0.54 M27.36 61.51 C44.81 40.84, 63.1 19.87, 81.14 -0.44 M26.41 60.81 C43.7 41.17, 60.77 20.48, 78.99 0.08 M31.17 60.79 C47.97 39.46, 64.54 21.1, 83.81 -1.22 M33.03 60.18 C54.01 35.76, 74.74 13.03, 85.33 0.05 M37.84 59.55 C54.63 42.77, 66.28 25.09, 89.75 1.54 M37.84 60.14 C55.18 40.21, 71.99 20.59, 90.19 -0.34 M44.32 61.75 C65.6 37.13, 84.31 10.52, 97.52 -0.28 M43.31 60.11 C59.74 41.05, 75.39 21.57, 95.5 0.13 M46.78 62.02 C58.48 48.79, 69.27 34.2, 99.87 0.86 M48.63 60.42 C59.17 46.07, 72.14 32.75, 100.4 -0.91 M52.21 61.39 C70.34 41.23, 89.43 20.59, 108.03 -0.87 M52.75 60.58 C63.29 47.45, 74.11 35.04, 106.95 0.08 M59.43 58.55 C72.34 46.38, 81.91 32, 109.47 -1.6 M58.98 61.01 C75.93 39.79, 93.74 19.3, 111.43 0.09 M64.15 61.1 C78.83 45.5, 93.01 27.32, 115.44 -0.1 M63.48 60.83 C78.81 42.44, 95.64 24.43, 115.44 -0.23 M70.53 61.28 C86.92 41.41, 104.81 22.2, 122.05 1.54 M70.34 60.05 C83.36 45.49, 94.91 31.41, 122.36 -0.82 M72.97 59.01 C93.38 42.06, 111.21 20.16, 127.28 1.14 M74.89 61.12 C92.62 39.83, 112.11 19.85, 125.98 -0.43 M80.33 60.83 C95.13 43.27, 110.36 24.63, 130.6 0.17 M79.39 60.4 C90.1 48.06, 101.89 36.27, 133.51 -0.41 M85.68 58.99 C102.32 41.66, 122.89 20.78, 138.66 -1.24 M84.31 59.68 C101.68 40.1, 120.2 20.09, 136.86 0.84 M90.56 58.35 C113.3 35.45, 129.94 13.53, 141.61 -1.33 M90.07 59.68 C110.33 38.18, 127.94 16.39, 142.42 -0.68 M94.75 59.44 C108.96 46.18, 120.69 34.17, 146.81 -1.63 M96.3 61.52 C112.34 39.43, 130.05 18.94, 148.27 0.97 M100.47 61.46 C112.59 45.13, 126.29 31.58, 155.08 -0.07 M101.58 60.26 C119.15 41.64, 135.7 21.12, 153.94 -0.88 M106.18 61.24 C118.36 47.68, 132.04 31.92, 158.47 0.12 M106.69 60.38 C123.68 41.97, 137.98 23.71, 159.65 0.06 M110.8 60.29 C128.53 38.52, 151.11 16.63, 164.5 1.32 M112.36 59.27 C130.42 37.82, 151.94 14.63, 164.11 0.48 M115.47 59.77 C126.48 45.84, 138.33 33.85, 169.89 -1.37 M116.53 60.76 C130.01 43.6, 145.47 28.94, 169.69 1 M123.8 59.49 C133.66 49.07, 144.21 35.21, 174.88 1 M122.09 60.58 C137.15 42.91, 152.52 26.26, 172.29 1.92 M127.61 60.91 C137.42 49.38, 148.59 35.11, 172.24 6.58 M128.14 59.9 C142.82 43.57, 157.05 28.33, 173.78 6.96 M135.19 58.17 C140.39 49.28, 149.06 41.95, 172.17 12.89 M133.73 60.8 C144.71 46.36, 157.18 33.48, 172.48 13.97 M137.08 61.05 C153.41 44.85, 165.7 29.5, 174.75 21.35 M139.1 59.8 C146.77 51.98, 153.57 43.25, 173.07 20.03 M142.24 61.98 C150.88 53.78, 156.71 47.09, 174.89 28.06 M143.46 59.31 C152.93 49.53, 161.3 40.45, 173.03 26.58 M147.88 59.07 C157.55 48.78, 169.3 38.18, 171.39 31.03 M148.21 61.2 C154.13 53.99, 161.01 47.4, 173.25 33.3 M155.67 59.05 C160.59 53.75, 162.71 49.72, 174.52 37.9 M154.72 60.24 C159.15 54.3, 165.71 47.63, 173.01 38.23 M157.51 60.34 C162.63 55.72, 169.55 49.56, 171.76 45.01 M159.54 59.61 C164.68 55.11, 168.17 49.97, 173.35 45.39 M164.28 60.02 C167.93 58.01, 171.09 53.83, 172.03 49.83 M164.56 60.28 C168.42 57.14, 170.42 53.35, 172.44 50.96 M169.81 60.5 C171.34 59.57, 171.92 57.78, 172.93 57.08 M170.17 60.62 C170.97 59.66, 171.68 58.51, 173.61 56.71" stroke="#e6498055" stroke-width="0.5" fill="none"></path><path d="M-1.29 -1.62 C55.88 1.92, 113.21 3.52, 172.35 -0.68 M-0.51 -0.97 C59.85 -1.87, 121.19 -1.64, 171.94 -0.59 M169.41 1.75 C173.08 19.43, 173.54 37.05, 171.88 61.45 M170.12 -0.24 C171.34 14.67, 170.88 28.6, 170.06 59.19 M171.79 60.6 C120.32 60.69, 67.06 61.94, -0.78 58.92 M171.97 59.12 C133.12 59.69, 94.57 58.83, -0.87 59.52 M0.45 60.93 C0.48 38.16, -1.7 14.56, -0.43 -1.36 M-0.04 60.53 C-0.22 46.03, 0.28 31.35, 0.01 -0.9" stroke="#a61e4d" stroke-width="1" fill="none"></path></g><g transform="translate(92.5 158.5) rotate(0 34 10)"><text x="34" y="14" font-family="Virgil, Segoe UI Emoji" font-size="16px" fill="#a61e4d" text-anchor="middle" style="white-space: pre;" direction="ltr">LOADER</text></g><g stroke-opacity="0.2" fill-opacity="0.2" transform="translate(772 330) rotate(0 64.5 12.5)"><text x="64.5" y="18" font-family="Virgil, Segoe UI Emoji" font-size="20px" fill="#e67700" text-anchor="middle" style="white-space: pre;" direction="ltr">@hemashushu</text></g><g stroke-linecap="round" transform="translate(278.5 133.5) rotate(0 81 30)"><path d="M0 0 C0 0, 0 0, 0 0 M0 0 C0 0, 0 0, 0 0 M0.52 7 C1.21 3.81, 2.73 2.36, 4.85 0.37 M-0.54 6.14 C1.32 4.8, 3.01 2.48, 4.77 0.37 M1.02 10.81 C3.25 9.48, 6.17 6.87, 11.34 0.41 M0.13 12.65 C2.47 9.37, 5.53 6.39, 10.37 -0.25 M-1.7 17.95 C7 11.51, 11.1 6.2, 15.56 -1.23 M0.46 19.35 C2.82 14.83, 6.08 9.68, 14.81 -0.06 M-0.39 25.98 C6.19 17.09, 16.36 5.97, 21.87 -2.02 M-0.4 24.8 C6.01 15.44, 13.39 8.34, 22.19 0.42 M0.87 28.5 C10.82 19, 22.13 8.78, 24.68 2 M-0.6 30.57 C5.97 23.11, 13.8 14.52, 25.35 0.48 M-0.02 38.62 C8.76 27.22, 17.2 17.66, 31.29 -2.1 M-1.23 37.1 C11 22.75, 22.13 10.59, 32.3 0.87 M1.81 43.23 C11.53 28, 23.49 17.39, 37.5 0.4 M0.84 43.48 C11.5 29.74, 23.19 15.6, 37.09 0.11 M0.83 47.6 C14.84 29.93, 32.48 12.05, 43.53 -1.89 M-0.83 48.1 C16.26 29.46, 32.78 10.53, 42.17 -0.21 M0.49 54.36 C14.9 37.16, 28.42 23.78, 49.49 1.85 M-0.5 54.64 C11.03 42.37, 23.28 29.45, 47.33 0.95 M1.24 59.15 C11.53 46.77, 25.93 30.13, 51.29 -1.02 M1.29 59.74 C21.4 36.85, 41.57 12.58, 54.1 -0.6 M6.49 58.6 C21.49 42.14, 41.75 20.48, 60.1 1.72 M6.12 60.03 C23.25 40.82, 41.77 18.45, 58.64 0.07 M9.48 60.49 C25.98 47.28, 36.1 29, 62.26 1.43 M12.05 60.33 C25.68 41.51, 41.08 24.54, 64.16 0.38 M15.13 59.23 C34.27 37.81, 56 14.55, 70.75 0.94 M15.95 60.15 C31.51 43.6, 47.61 25.4, 67.84 0.54 M20.74 58.21 C42.09 38.99, 59.25 16.58, 73.09 0.88 M21.63 60.07 C39.16 40.27, 56.3 21.16, 75.19 -1.07 M25.42 60.1 C38.15 48.04, 46.74 38.08, 78.82 -0.04 M27.77 61.06 C47.85 37.48, 68.12 14.64, 79.02 0.41 M32.03 59.16 C44.49 42.52, 60.44 29, 83.4 1.3 M33.32 60.83 C50.88 39.48, 69.71 17.96, 85.8 -0.29 M36.61 59.56 C51.29 44.52, 64.43 27.91, 91.67 0.76 M37.38 61.22 C52.08 43.91, 66.38 26.4, 90.56 -0.28 M42.34 59.68 C62.44 35.52, 83.15 11.48, 93.78 1.2 M42.65 60.47 C59.18 43.43, 73.75 25.01, 95.33 -1.12 M48.92 58.46 C62.83 41.42, 78.9 24.99, 100.62 0.86 M47.32 60.61 C62.31 44.83, 77.35 28.79, 100.05 -0.51 M53.94 60.42 C64.67 45.26, 78.99 29.46, 107.77 -0.4 M53.79 60.55 C69.65 42.1, 84.22 24.32, 106.94 -0.93 M57.53 62.23 C76.47 39.24, 92.66 19.95, 110.95 -0.71 M57.91 59.67 C68.87 49.18, 79.99 36.7, 111.41 0.72 M65.08 61.29 C81.24 40.54, 100.54 18.67, 117.26 -1.19 M63.12 60.4 C85.43 36.02, 105.86 12.02, 115.85 1.16 M70.57 58.79 C82.72 46.62, 94.98 32.99, 119.93 -1.35 M70.23 60.34 C89.51 36.51, 109.72 13.01, 121.78 -0.61 M75.98 60 C85.16 45.41, 96.81 31.75, 127.04 -0.57 M74.33 60.57 C86.73 47.2, 98.07 35.06, 127.05 0.25 M79.19 60.61 C90.68 48.68, 99.8 36.08, 130.78 -0.98 M79.15 61.03 C93.64 44.76, 106.42 30.94, 132.59 -0.5 M85.48 59.03 C96.52 45.98, 113.01 32.23, 136.92 -1.17 M86.03 60.85 C102.07 40.06, 118.43 22.04, 138.31 1.19 M91.45 58.69 C105.45 46.64, 117 30.76, 142.71 0.07 M90.27 59.66 C105.96 41.97, 123.81 22.98, 142.52 -0.02 M96.42 60.4 C109.75 47, 122.39 32.72, 146.33 2.16 M96.09 60 C107.3 47.79, 117.01 34.97, 147.82 0.54 M102.42 60.57 C120.52 40.25, 137.98 16.54, 152.87 -1.05 M100.98 60.6 C112.8 48.64, 122.01 36.03, 154.52 -0.21 M105.58 59.64 C128.14 36.63, 147.81 13.51, 159.68 1.1 M106.65 60.77 C123.15 40.92, 141.36 21.54, 158.54 0.36 M112.12 60.3 C126.28 47.82, 138.61 33.35, 165.09 1.87 M111.42 59.73 C122.54 46.99, 132.48 36.33, 163.5 0.36 M117.73 59.84 C134.6 39.41, 151.05 20.38, 162.43 6.68 M117.13 60.92 C131.05 44.66, 143.44 29.01, 163.3 6.01 M123.55 60.47 C132.91 46.89, 141.59 37.38, 162.6 12.13 M123.52 59.4 C137.68 43.15, 153.63 23.72, 164.08 12.66 M127.58 61.61 C137.97 49.56, 145.33 39.69, 163.57 20.88 M127.18 60.16 C136.08 50.7, 145.25 40.38, 162.24 20.73 M132.66 58.21 C140.65 49.94, 148.48 41.39, 161.66 24.93 M133.94 59.46 C138.76 53.83, 146.35 44.77, 163.18 25.01 M137.85 61.08 C146.21 53.04, 152.87 42.27, 164.3 32.19 M137.75 61.2 C146.9 51.42, 153.79 42.23, 162.52 32.27 M142.39 59.17 C148.11 55.51, 150.68 48.95, 163.3 35.55 M143.13 60.24 C149.7 53.03, 156.58 45.28, 162.82 38.3 M149.18 59.92 C152.03 55.23, 156.36 50.42, 164.26 43.18 M148.04 60.74 C154.4 54.8, 158.09 50.69, 163.5 43.36 M153.29 59.73 C156.73 56, 157.98 53.15, 163.58 51.13 M154.36 59.72 C156.32 57.68, 158.18 55.58, 163.4 50.84 M159.09 60.11 C160.02 58.97, 160.97 58.33, 163.18 56 M159.18 60.44 C160.67 59.26, 161.25 57.83, 163.28 56.09" stroke="#fd7e1455" stroke-width="0.5" fill="none"></path><path d="M-1.34 0.47 C39.88 -2.07, 81.11 -0.01, 161.26 0.29 M0.91 -0.34 C49.83 -0.43, 98.74 1.3, 162.33 -0.19 M162.18 -1.13 C163.89 23.52, 161.23 43.61, 163.42 60.12 M162.34 -0.63 C162.13 15.88, 160.91 30.55, 161.75 59.29 M163.99 61.61 C118.45 57.48, 75.53 60.09, 0.54 58.18 M162.83 59.7 C115.03 60, 67.09 59.93, -0.5 59.91 M0.03 58.83 C-0.73 40.58, 2.24 24.27, -0.01 -0.32 M-0.63 60.88 C0.2 47.99, 0.59 35.07, 0.16 0.31" stroke="#d9480f" stroke-width="1" fill="none"></path></g><g transform="translate(325.5 153.5) rotate(0 34 10)"><text x="34" y="14" font-family="Virgil, Segoe UI Emoji" font-size="16px" fill="#d9480f" text-anchor="middle" style="white-space: pre;" direction="ltr">OpenSBI</text></g><g stroke-linecap="round" transform="translate(727 130.5) rotate(0 91 30)"><path d="M0 0 C0 0, 0 0, 0 0 M0 0 C0 0, 0 0, 0 0 M-0.59 7.14 C0.44 4.91, 2.33 2.62, 4.39 0.72 M-0.4 6.69 C1.8 4.48, 3.25 2.02, 5.12 0.57 M-0.64 10.78 C4.72 9.58, 6.68 4.1, 10.73 -1.62 M0.56 11.51 C3.9 7.53, 6.17 4.31, 10.18 0.75 M1.5 17.9 C4.14 10.31, 10.52 5.68, 14.01 1.79 M-0.01 18.93 C4.16 13.57, 8.77 8.11, 16.14 0.68 M-0.08 22.28 C6.9 14.74, 15.71 5.53, 22.19 0.52 M1.17 24.19 C6.3 16.84, 10.98 11.52, 20.84 0.25 M0.26 29.63 C6.81 23.04, 10.94 18.5, 24.86 0.48 M0.21 29.63 C10.91 17.49, 20.01 7.27, 26.72 0.33 M1.1 35.73 C13.18 20.92, 24.52 9.24, 31.83 -0.82 M-0.77 36.67 C10.13 24.27, 23 12.12, 31.19 -0.84 M2.13 43.03 C9.53 33.39, 15.49 21.91, 36.16 0.01 M0.86 43.09 C11.73 27.26, 23.79 14.09, 36.65 0.77 M-1.53 47.63 C16.04 28.59, 32.05 11.2, 41.77 0.9 M-0.41 49.44 C7.92 37.53, 17.82 28.85, 42.06 0.11 M-0.4 52.66 C10.44 41.56, 21.49 28.13, 46.51 1.05 M0.72 54.93 C17.85 34.28, 36.96 13.83, 47.03 1.22 M1.05 58.27 C16.68 44.47, 30.23 27.16, 53.66 1.58 M1.13 60.88 C14.01 44.07, 27.27 28, 53.43 0.34 M5.94 60.01 C18.15 48.6, 28.12 34.74, 59.07 0.24 M4.82 61.52 C24.91 37.62, 44.76 15.67, 57.45 0.13 M11.54 61.35 C30.82 38.72, 50.96 15.53, 62.67 0.08 M10.45 60.08 C29.6 38.22, 47.78 16.48, 63.23 -1.2 M14.69 59.57 C25.53 48.97, 37.71 37.32, 67.54 0.17 M16.9 61.02 C31.13 43.51, 44.56 27.88, 68.95 0.25 M20.16 58.41 C35.61 42.68, 52.07 24.55, 75.49 0.24 M22.56 60.28 C35.24 45.76, 46.81 31.3, 74.39 -0.76 M25.67 60.84 C47.79 37.5, 67.04 14.24, 78.13 -0.58 M26.46 60.4 C45.72 39.31, 65.59 15.67, 79.08 -0.44 M31.5 59.66 C45.84 42.08, 60.78 28.16, 84.37 0.88 M32.83 60.68 C49.18 41.31, 64.9 22.39, 85.82 -0.83 M37.51 62.25 C54.99 38.2, 76.63 16.78, 91.58 -1.46 M38.23 60.36 C51.17 44.46, 64.92 29.77, 90.86 0.35 M44.7 61.25 C55.71 47.49, 65.66 34.42, 97.06 -2.25 M44.1 60.73 C59.36 42.81, 73.41 25.12, 95.42 -1.14 M48.32 59.21 C64.36 42.03, 81.91 23.08, 101.18 2.02 M47.9 60.34 C64.31 42.07, 81.19 23.19, 99.82 0.12 M54.74 60.07 C62.86 49.51, 77.5 34.21, 106.86 1.62 M53.02 59.89 C69.82 41.62, 84.88 23.84, 107.07 0.35 M57.79 62.08 C75.33 44.37, 87.58 25.81, 110.73 0.35 M59.17 59.59 C78.47 37.01, 98.59 15.81, 110.95 0.7 M65.13 60.73 C77.41 42.74, 91.42 28.26, 117.95 0.94 M63.74 61.64 C76.4 46.8, 89.01 33.48, 116.97 1.19 M69.12 62.19 C80.62 46.94, 91.91 36.11, 120.59 -0.03 M68.73 60.08 C83.75 44.23, 97.37 28.5, 121.72 -0.88 M73.93 62.04 C87.3 46.65, 102.92 32.31, 125.98 0.88 M74.87 60.99 C93.6 37.33, 114.25 15.28, 127.28 0.46 M79.04 61.86 C98.56 39.71, 114.82 19.36, 133.62 1.31 M79.22 59.58 C94.49 44.07, 109.47 28.26, 133.11 0.73 M86.38 60.04 C104.73 36.13, 127.07 11.11, 136.2 1.86 M85.21 60.45 C103.77 39.53, 121.25 18.9, 137.18 0.23 M91.82 60.36 C104.04 46.17, 117.59 30.83, 141.22 0.74 M90.29 60.62 C106.35 43.94, 120.5 26.22, 142.56 0.11 M96.27 58.75 C111.94 42.52, 123.3 29.07, 148.02 -1.52 M96.01 59.8 C116.17 38.42, 137.16 14.15, 148.49 -0.4 M101.24 59.93 C117.45 39.91, 134.55 21.64, 153.34 0.61 M101.58 59.47 C112.22 45.88, 123.77 32.99, 153.01 0.12 M107.9 60.15 C119.1 46.85, 127.89 37.06, 160.4 -1.66 M106.02 61.08 C121 43.96, 135.72 27.83, 158.02 0.46 M112.64 59.79 C129.76 39.88, 151.4 16.6, 164.45 -0.75 M111.7 61.19 C123.48 45.87, 136.85 32.02, 163.88 -1.1 M118.12 62.17 C131.24 43.27, 147.15 26.32, 169.82 0 M116.47 59.62 C128.63 46.37, 139.73 32.79, 168.54 0.42 M120.87 62.12 C139.56 39.55, 161.49 17.06, 175.53 0.96 M123.25 60.6 C138.99 40.42, 156.82 20.17, 174.07 -1.18 M126.31 60.74 C144.88 39.14, 163.29 18.42, 180.29 -1.03 M128.08 60.98 C145.4 38.62, 164.58 16.53, 179.82 -0.12 M132.33 62.06 C144.58 45.02, 161.09 29.71, 182.15 0.24 M133.8 59.29 C146.58 44.85, 160.01 30.74, 183 1.8 M136.36 59.74 C151.51 42.33, 167.52 24.99, 182.8 9.3 M138.05 60.01 C149.77 48.88, 158.72 35.62, 185.06 8.56 M142.93 61.74 C155.95 44.95, 170.09 31.88, 185.82 14.88 M142.93 60.61 C155.71 46.64, 168.17 33.86, 182.98 13.33 M150.72 61.02 C161.9 45.33, 177.73 29.03, 185.05 19.43 M149.06 59.81 C159.74 48.19, 171.86 34.36, 183.63 20.37 M156.13 60.24 C160.91 50.7, 170.46 44.24, 183.65 25.27 M155.19 60.67 C162.78 50.34, 171.78 41.44, 183.89 26.76 M160.34 62.41 C168.56 49.68, 175.85 38.17, 184.93 32.02 M160.28 60.77 C167.48 51.01, 175.08 42.84, 183.52 32.22 M164.9 59.62 C171.38 55.06, 175.47 47.83, 182.76 39.57 M165.11 59.36 C171.9 53, 177.11 46.4, 184.58 37.55 M170.74 59.69 C176.03 55.54, 179.58 49.62, 181.89 44.97 M170.36 59.53 C174.68 54.74, 177.72 50.97, 183.77 44.07 M173.7 59.99 C178.53 57.41, 182.08 52.06, 183.25 49.99 M175.41 60.29 C177.57 58.24, 179.27 55.13, 184.34 50.36 M180.52 60.44 C182.03 58.53, 183.56 57.77, 183.73 56.79 M180.65 60.27 C181.78 58.98, 182.64 58.06, 183.85 56.42" stroke="#228be655" stroke-width="0.5" fill="none"></path><path d="M-1.08 0.74 C49.99 -1.16, 102.8 1.09, 182.78 -1.73 M-0.18 0.26 C45.5 -0.01, 90.14 1.13, 182.37 0.68 M180.63 1.42 C182.15 22.21, 181.18 42.46, 182.07 61.25 M182.34 -0.78 C181.05 15.79, 182.72 31.66, 182.23 60.05 M181.81 58.1 C129.06 60.42, 72.61 59.18, -1.68 58.36 M182.2 59.38 C141.71 61.76, 101.46 61.41, 0.84 59.2 M1.47 59.73 C-0.75 41.61, -1.17 18.64, -0.59 -0.26 M-0.99 60.75 C0.14 35.43, -0.09 13.02, 0.79 0.9" stroke="#1864ab" stroke-width="1" fill="none"></path></g><g transform="translate(794 150.5) rotate(0 24 10)"><text x="24" y="14" font-family="Virgil, Segoe UI Emoji" font-size="16px" fill="#1864ab" text-anchor="middle" style="white-space: pre;" direction="ltr">Kernel</text></g><g transform="translate(528 15) rotate(0 49.5 18)"><text x="49.5" y="25" font-family="Virgil, Segoe UI Emoji" font-size="28px" fill="#1864ab" text-anchor="middle" style="white-space: pre;" direction="ltr">S-Mode</text></g><g transform="translate(300 11.5) rotate(0 51.5 18)"><text x="51.5" y="25" font-family="Virgil, Segoe UI Emoji" font-size="28px" fill="#d9480f" text-anchor="middle" style="white-space: pre;" direction="ltr">M-Mode</text></g><g transform="translate(86 10) rotate(0 51.5 18)"><text x="51.5" y="25" font-family="Virgil, Segoe UI Emoji" font-size="28px" fill="#a61e4d" text-anchor="middle" style="white-space: pre;" direction="ltr">M-Mode</text></g><g stroke-linecap="round" transform="translate(499 133.5) rotate(0 81 30)"><path d="M0 0 C0 0, 0 0, 0 0 M0 0 C0 0, 0 0, 0 0 M-0.32 6.58 C2.23 4.2, 4.35 2.5, 5.32 0.68 M-0.36 6.36 C1.74 4.05, 3.86 1.58, 5.11 0.47 M-1.02 11.19 C5.47 7.26, 8.16 2.74, 10.83 -0.31 M-0.52 12.79 C2.24 9.3, 5.35 6.26, 10.77 -0.43 M0.21 20.04 C1.8 14.78, 7.9 10.33, 15.34 2.22 M-0.1 17.73 C5.41 11.93, 12.93 4.26, 16.33 0.33 M0.83 23.24 C6.51 16.94, 12.36 12.54, 19.37 -1.3 M-0.15 23.84 C7.02 15.9, 14.51 7.52, 21.15 0.59 M-0.89 31.01 C5.48 20.83, 16.42 11.91, 27.85 2.22 M0.4 29.75 C9.75 19.42, 17.94 8.57, 25.26 0.11 M-1.53 36.49 C5.51 31.09, 14.83 20.93, 31.95 0.09 M0.37 36.83 C9.3 26.93, 18.6 15.37, 32.01 -0.59 M1.45 42.41 C9.63 29.81, 22.84 18.56, 38.16 -1.6 M-0.44 41.86 C11.65 29.67, 22.44 17.6, 37.2 0.79 M-1.9 50.09 C13.3 34.08, 29.5 14.49, 41.91 0.77 M-0.88 48.42 C10.36 37.73, 20.66 26.05, 41.64 0.49 M-1.1 54.83 C15.55 39.61, 25.38 25.83, 48.58 0.98 M-0.55 53.77 C18.53 32.21, 37.67 12.71, 48.27 -0.1 M0.43 61.88 C16.74 37.58, 36.08 16.34, 55.09 1.69 M0.02 59.33 C15.18 44.77, 28.01 27.62, 52.76 -0.36 M4.94 58.82 C18.53 44.55, 31.54 30.9, 58.97 -0.87 M5.86 60.46 C25.13 36.71, 45.17 15.07, 58.58 0.78 M12.86 62.1 C30.77 37.17, 53.47 12.53, 63.89 1.77 M12.18 59.53 C30.36 38.2, 48.68 15.82, 63.6 -1.06 M14.31 60.91 C27.99 48.71, 39.43 36.07, 68.73 -0.99 M16.82 61.19 C36.36 37.52, 55.89 15.03, 69.2 -0.5 M23.33 59.85 C40.67 36.99, 61.7 15.57, 73.19 -0.12 M22.64 59.59 C35.53 44.13, 47.98 29.35, 74.85 -0.27 M25.04 61.66 C47.1 36, 68.93 12.82, 78.78 1.73 M27.59 60.52 C41.69 43.3, 56.22 25.29, 79.2 -0.07 M31.13 59.87 C42.55 49.17, 53.87 35.83, 86.43 0.89 M32.29 60.56 C52.61 37.21, 71.2 14.75, 84.69 -0.39 M38.96 61.53 C52.77 41.91, 69.15 23.34, 89.55 1.39 M38.16 61.26 C57.96 37.78, 77.46 15.75, 90.63 0.66 M43.09 59.86 C53.6 48.89, 65.46 34.63, 95.58 1.61 M42.99 60.24 C58.72 41.49, 76.09 21.22, 95.8 -0.53 M46.39 60.98 C65.75 40.08, 83.14 18.71, 99.05 -0.97 M49.03 59.45 C63.7 42.19, 81 21.95, 101.53 0.1 M54.9 61.27 C66.24 44.55, 83.9 24.56, 107.15 0.84 M53.93 60.96 C72.42 38.74, 92.12 16.04, 106.32 0.44 M60.21 58.41 C71.26 46.11, 81.93 33.29, 112.78 0.69 M58.15 59.44 C75.66 42.37, 90.61 23.75, 110.92 -0.62 M63.77 60.24 C82.99 39.16, 102.27 17.82, 115.5 2.08 M63.27 61.55 C84.71 36.85, 104.5 14.77, 116.25 -0.32 M69.83 60.23 C82.59 41.74, 97.69 26.48, 121.79 -0.65 M69.97 60.81 C89.3 37.43, 110.15 14.24, 121.8 -0.59 M74.47 62.14 C94.63 39.36, 112.59 18.97, 127.5 0.57 M75.15 60.85 C88.01 42.8, 103.82 27.28, 127.01 0.36 M79.18 58.77 C98.8 37.73, 114.34 19.95, 132.66 0.98 M80.44 59.43 C96.29 42.46, 111.84 24.52, 132.17 -0.12 M83.94 60.56 C102.01 40.89, 122.97 18.59, 136.6 1.74 M85.38 59.73 C103.43 38.79, 124.65 16.55, 136.55 1.16 M88.74 58.36 C99.48 47.18, 110.01 36.85, 141.49 -1.49 M89.96 60.41 C103.71 45.68, 116.22 30.52, 143.99 0.24 M94.67 60.06 C112.38 44.73, 127.18 26.46, 147.41 0.26 M95.74 60.83 C107.55 46.5, 121.82 29.92, 148.97 0.29 M101.49 61.29 C114.55 48.72, 123.5 34.72, 151.92 1.85 M100.44 61.15 C118.16 42.05, 133.97 22.9, 154.22 0.68 M104.67 62.15 C117.96 47.2, 130.73 31.7, 157.09 -1.22 M107.02 61.54 C120.09 43.49, 134.55 29.23, 158.83 1.21 M112.97 61.82 C126.24 41.98, 142.31 27.8, 163.81 1.36 M112.27 60.3 C123.74 45.4, 137.84 31.58, 162.5 0.7 M117.49 59.33 C129.81 45.04, 145.6 24.11, 163.43 8.67 M115.95 61.03 C127.43 47.71, 140.24 33.56, 164.3 6.46 M121.24 60.18 C132.01 50.92, 142.7 37.31, 161.99 11.94 M123.32 60.79 C134.74 45.98, 148.51 31.39, 162.88 14.1 M128.2 61.07 C135.88 50.22, 143.56 40.95, 163.29 21.77 M128.29 61.23 C136.58 51.74, 144.71 41.12, 162.58 20.28 M132.89 60.56 C142.51 50.95, 148.16 43.01, 161.88 23.84 M133.95 60.79 C144.13 47.45, 156.25 32.02, 162.44 24.81 M137.42 59.8 C146.88 51.26, 152.59 41.89, 161.33 33.82 M137.74 59.83 C145.22 52.3, 151.82 42.47, 163.59 31.13 M145.05 61.14 C150 54.96, 153.85 46.06, 165.23 38.82 M144 60.77 C149.51 52.64, 156.78 45.41, 164.1 38.11 M149.27 60.91 C155.59 53.89, 159.79 46.09, 164.18 44.08 M149.03 61.29 C152.29 54.7, 156.54 50.19, 163.19 44.31 M155.05 60.05 C156.12 56.88, 159.13 56.27, 162.81 50.35 M154.02 60.31 C156.53 56.92, 159.62 54.19, 162.4 49.96 M160.05 60.54 C160.01 58.95, 161.04 58.32, 162.87 56.25 M159.28 60.26 C160.94 58.47, 162.75 56.71, 163.39 56.12" stroke="#40c05755" stroke-width="0.5" fill="none"></path><path d="M0.81 -0.45 C61.46 1.09, 119.85 -1.7, 161.96 -0.03 M0.1 -0.56 C61.4 0.5, 121.67 -0.63, 161.94 0.86 M163.75 -1.13 C161.7 12.33, 161.54 24.49, 160.52 59.3 M162.63 0.44 C161.51 17.45, 162.7 35.35, 161.57 59.83 M162.03 60.58 C121.29 60.47, 81.05 62.18, -1.84 60.31 M161.42 59.35 C115.5 59.95, 68.2 59.22, -0.27 60.49 M1.02 58.45 C-1.24 38.32, 1.83 17.05, -0.32 0.37 M-0.5 60.94 C0.95 36.09, -0.43 13.53, 0.65 -0.35" stroke="#2b8a3e" stroke-width="1" fill="none"></path></g><g transform="translate(535.5 153.5) rotate(0 44.5 10)"><text x="44.5" y="14" font-family="Virgil, Segoe UI Emoji" font-size="16px" fill="#2b8a3e" text-anchor="middle" style="white-space: pre;" direction="ltr">Bootloader</text></g><g transform="translate(756.5 14.5) rotate(0 49.5 18)"><text x="49.5" y="25" font-family="Virgil, Segoe UI Emoji" font-size="28px" fill="#1864ab" text-anchor="middle" style="white-space: pre;" direction="ltr">S-Mode</text></g><g stroke-linecap="round" transform="translate(10 65) rotate(0 114.5 101.5)"><path d="M7.32 19.61 C7.32 19.61, 7.32 19.61, 7.32 19.61 M7.32 19.61 C7.32 19.61, 7.32 19.61, 7.32 19.61 M3.12 30.54 C10.28 24.41, 15.84 16.88, 18.87 12.43 M3.12 30.54 C9.08 24.35, 14.18 17.2, 18.87 12.43 M4.17 35.43 C12.58 28.21, 18.2 20.17, 30.42 5.24 M4.17 35.43 C10.56 29.65, 14.67 23.49, 30.42 5.24 M3.26 42.58 C12.87 33.31, 21.1 21.59, 36.71 4.09 M3.26 42.58 C14.22 30.19, 24.74 19.42, 36.71 4.09 M1.03 51.24 C10.9 42.47, 16.77 32.35, 43.01 2.94 M1.03 51.24 C13.94 37.15, 28.11 21.37, 43.01 2.94 M0.76 57.64 C15.92 40.4, 30.06 23.83, 50.62 0.28 M0.76 57.64 C20.86 36.07, 38.99 13.57, 50.62 0.28 M1.16 63.28 C14.65 47.27, 29.44 30.65, 56.27 -0.11 M1.16 63.28 C17.72 43.93, 34.99 24.95, 56.27 -0.11 M0.9 69.68 C20.63 49.3, 38.89 24.71, 61.25 0.25 M0.9 69.68 C13.04 55.3, 25.69 41.45, 61.25 0.25 M0.64 76.08 C26.91 46.38, 49.42 20.58, 66.9 -0.15 M0.64 76.08 C19.84 52.72, 41.1 28.58, 66.9 -0.15 M1.03 81.72 C22.68 58.25, 40.71 36.93, 71.88 0.21 M1.03 81.72 C19.48 60.71, 37.87 41.45, 71.88 0.21 M0.77 88.12 C25.95 61.68, 46.37 34.61, 77.53 -0.18 M0.77 88.12 C18.02 70.38, 32.02 52.63, 77.53 -0.18 M1.16 93.76 C15.15 73.28, 32.01 55.21, 82.52 0.18 M1.16 93.76 C18.22 73.07, 36.28 52.39, 82.52 0.18 M0.9 100.16 C20.17 76.78, 38.93 56.46, 88.16 -0.22 M0.9 100.16 C30.8 66.69, 58.81 34.59, 88.16 -0.22 M0.64 106.56 C34.1 66.11, 68.81 26.94, 93.15 0.14 M0.64 106.56 C28.8 73.88, 59.1 38.86, 93.15 0.14 M1.04 112.2 C38.59 69.09, 75.05 28.97, 98.13 0.5 M1.04 112.2 C37.05 70.29, 73.48 29.66, 98.13 0.5 M0.77 118.6 C38.97 79.42, 74.44 36.65, 103.78 0.11 M0.77 118.6 C32.93 79.74, 66.03 40.22, 103.78 0.11 M1.17 124.24 C42.32 75.97, 80.64 29.56, 108.76 0.47 M1.17 124.24 C29.81 91.75, 57.54 57.46, 108.76 0.47 M0.91 130.64 C45.09 80.52, 86.13 29.96, 114.41 0.08 M0.91 130.64 C38.78 85.62, 79.88 39.59, 114.41 0.08 M1.3 136.28 C37.71 95.99, 73.09 52.81, 119.39 0.44 M1.3 136.28 C34.05 95.63, 68.94 57.32, 119.39 0.44 M1.04 142.68 C42.34 95.14, 86.82 41.21, 125.04 0.04 M1.04 142.68 C37.3 100.58, 72.12 59.42, 125.04 0.04 M0.78 149.08 C27.06 119.36, 53.17 85.39, 130.02 0.4 M0.78 149.08 C51.08 92.22, 102.27 34.9, 130.02 0.4 M1.17 154.72 C38.9 113.68, 76.36 72.75, 135.67 0.01 M1.17 154.72 C50.77 98.89, 98.54 42.97, 135.67 0.01 M2.22 159.61 C35.98 122.97, 68.01 84.07, 140.65 0.37 M2.22 159.61 C38.67 118.32, 72.87 77.93, 140.65 0.37 M2.62 165.25 C56.03 103.82, 107.59 40.95, 146.3 -0.03 M2.62 165.25 C53.66 107.63, 103.59 50.87, 146.3 -0.03 M3.67 170.14 C44.95 119.75, 90.25 73.27, 151.28 0.33 M3.67 170.14 C35.36 131.49, 69.02 91.49, 151.28 0.33 M4.06 175.78 C37.21 138.67, 67.07 102.99, 156.93 -0.06 M4.06 175.78 C59.91 111.02, 117.29 47.42, 156.93 -0.06 M6.43 179.16 C56.9 118.99, 111.2 57.34, 161.91 0.3 M6.43 179.16 C37.08 143.32, 69.05 108.38, 161.91 0.3 M8.13 183.3 C62.5 117.33, 121.35 54.56, 167.56 -0.1 M8.13 183.3 C58.81 124.41, 109.05 65.29, 167.56 -0.1 M9.84 187.43 C66.81 124.03, 122.69 57.67, 172.54 0.26 M9.84 187.43 C61.83 126.25, 113.69 66.42, 172.54 0.26 M12.86 190.05 C63.4 131.44, 116.4 70.91, 177.53 0.62 M12.86 190.05 C49.89 149.9, 84.92 108.46, 177.53 0.62 M15.88 192.68 C69.5 128.6, 125.54 67.69, 183.17 0.23 M15.88 192.68 C63.7 137.12, 110.61 83.05, 183.17 0.23 M18.9 195.3 C54.7 154.01, 88.29 114.14, 186.85 2.1 M18.9 195.3 C63.71 141.71, 107.95 90.13, 186.85 2.1 M21.92 197.93 C73.69 141.12, 120.89 83.74, 191.18 3.21 M21.92 197.93 C63.28 151.76, 103.24 106.18, 191.18 3.21 M25.59 199.8 C73.28 144.9, 124.65 86.73, 195.51 4.33 M25.59 199.8 C89.76 125.39, 155.6 50.02, 195.51 4.33 M29.92 200.91 C82.71 142.58, 133.01 83.15, 199.84 5.44 M29.92 200.91 C78.33 144.53, 126.92 88.48, 199.84 5.44 M34.91 201.27 C76.28 155.19, 115.76 108.24, 205.48 5.05 M34.91 201.27 C81.87 145.8, 129.73 90.83, 205.48 5.05 M39.24 202.39 C73.48 163.08, 110.42 121.66, 208.5 7.67 M39.24 202.39 C102.04 131.35, 163.85 58.17, 208.5 7.67 M44.23 202.75 C84.29 158.75, 121.78 114.29, 212.18 9.54 M44.23 202.75 C105.83 131.52, 168.08 60.41, 212.18 9.54 M48.56 203.86 C104.48 139.55, 162.29 74.06, 215.2 12.17 M48.56 203.86 C81.49 164.24, 114.92 125.95, 215.2 12.17 M52.89 204.98 C99.59 149.63, 151.54 91.68, 218.22 14.79 M52.89 204.98 C96.18 154.07, 140.96 102.6, 218.22 14.79 M58.53 204.58 C120.26 137.83, 180.4 66.49, 221.23 17.41 M58.53 204.58 C114.41 140.21, 168.99 77.36, 221.23 17.41 M63.52 204.94 C124.65 136.48, 185.4 66.16, 222.94 21.55 M63.52 204.94 C110.79 151, 158.32 95.06, 222.94 21.55 M69.16 204.55 C113.99 156.24, 154.81 104.05, 225.3 24.93 M69.16 204.55 C113.09 154.35, 156.25 105.34, 225.3 24.93 M74.15 204.91 C110.11 164.67, 146.13 122.64, 227.01 29.06 M74.15 204.91 C129.49 138.04, 186.58 72.42, 227.01 29.06 M79.79 204.51 C109.12 169.7, 140.56 136.57, 227.4 34.7 M79.79 204.51 C133.69 142.45, 190.43 77.89, 227.4 34.7 M84.78 204.87 C134.51 143.73, 187.96 83.54, 228.46 39.59 M84.78 204.87 C128.65 152.65, 175.08 101.93, 228.46 39.59 M90.42 204.48 C139.34 148.57, 187.63 93.08, 228.85 45.23 M90.42 204.48 C137.83 147.73, 186.45 91.73, 228.85 45.23 M95.41 204.84 C130.99 163.87, 168.13 122.21, 229.24 50.88 M95.41 204.84 C141.93 150.82, 189.26 97.5, 229.24 50.88 M100.4 205.2 C141.56 158.18, 182.82 111.51, 228.98 57.28 M100.4 205.2 C144.32 152.6, 190.39 100.22, 228.98 57.28 M106.04 204.8 C152.11 147.16, 201.93 92.35, 229.38 62.92 M106.04 204.8 C153.95 147.53, 203.23 91.79, 229.38 62.92 M111.03 205.16 C152.34 158.34, 193.46 111.61, 229.12 69.32 M111.03 205.16 C148.35 162.85, 184.33 120.25, 229.12 69.32 M116.67 204.77 C159.85 154.42, 207.61 100.92, 228.85 75.71 M116.67 204.77 C160.29 154.42, 203.93 104.6, 228.85 75.71 M121.66 205.13 C152.06 168.12, 184.97 134.15, 229.25 81.36 M121.66 205.13 C160.58 159.31, 201.07 111.68, 229.25 81.36 M127.3 204.74 C155.07 175.75, 177.47 146.02, 228.99 87.76 M127.3 204.74 C161.53 166.45, 196.02 126.23, 228.99 87.76 M132.29 205.1 C155.38 177.84, 181.41 145.83, 229.38 93.4 M132.29 205.1 C157.73 175.96, 183.33 147.28, 229.38 93.4 M137.93 204.7 C169.58 167.09, 204.18 128.28, 229.12 99.8 M137.93 204.7 C165.55 174.13, 190.12 144.1, 229.12 99.8 M142.92 205.06 C169.56 175.2, 195.47 143.72, 228.86 106.19 M142.92 205.06 C172.63 170.59, 200.56 136.77, 228.86 106.19 M148.56 204.67 C170.68 177.96, 195.37 151.6, 229.25 111.84 M148.56 204.67 C178.83 169.58, 207.14 136.39, 229.25 111.84 M153.55 205.03 C169.14 187.58, 186.56 169.28, 228.99 118.23 M153.55 205.03 C178.62 176.23, 203.18 146.28, 228.99 118.23 M159.19 204.63 C185.35 175.8, 206.93 149.56, 229.39 123.88 M159.19 204.63 C181.18 181.74, 200.45 158.07, 229.39 123.88 M164.18 204.99 C184.35 183.15, 203.87 163.56, 229.13 130.28 M164.18 204.99 C176.89 188.97, 191.64 174.69, 229.13 130.28 M169.82 204.6 C181.63 188.76, 195.41 173.14, 228.86 136.67 M169.82 204.6 C188.11 183.94, 208.54 160.85, 228.86 136.67 M174.81 204.96 C194.33 185.08, 210.27 164.22, 229.26 142.32 M174.81 204.96 C190.24 187.61, 205.08 169.36, 229.26 142.32 M180.45 204.56 C191.6 192.99, 201.16 178.9, 229 148.71 M180.45 204.56 C193.99 188.94, 206.58 172.42, 229 148.71 M186.09 204.17 C202.19 186.29, 215.39 169.5, 229.39 154.36 M186.09 204.17 C199.55 187.71, 215.38 171.48, 229.39 154.36 M192.39 203.02 C205.39 185.4, 221.71 168.57, 230.44 159.25 M192.39 203.02 C202.72 189.4, 213.58 177.34, 230.44 159.25 M200.66 199.61 C209.9 188.79, 221.13 176.96, 228.21 167.91 M200.66 199.61 C207.43 190.63, 216.47 181.62, 228.21 167.91 M210.24 194.68 C217.21 190.46, 218.94 181.41, 226.64 175.81 M210.24 194.68 C215.13 189.28, 219.58 183.56, 226.64 175.81" stroke="#e6498055" stroke-width="0.5" fill="none"></path><path d="M50.75 0 M50.75 0 C97.55 0.08, 144.12 -0.65, 178.25 0 M50.75 0 C89.98 1.31, 131.09 1.26, 178.25 0 M178.25 0 C210.7 -1.84, 228.59 17.03, 229 50.75 M178.25 0 C211.02 -1.23, 229.64 18.42, 229 50.75 M229 50.75 C228.83 79.06, 229.63 108.52, 229 152.25 M229 50.75 C227.49 78.55, 227.87 108.36, 229 152.25 M229 152.25 C228.31 185.22, 213.5 201.61, 178.25 203 M229 152.25 C228.41 187.45, 211.88 202, 178.25 203 M178.25 203 C148.51 201.93, 119.53 202.29, 50.75 203 M178.25 203 C130.52 202.22, 84.11 201.88, 50.75 203 M50.75 203 C15.56 204.93, -0.53 185.2, 0 152.25 M50.75 203 C16.41 204.44, 0.69 184.48, 0 152.25 M0 152.25 C0.66 110.83, -0.66 72.35, 0 50.75 M0 152.25 C-1.24 123.7, -0.07 95.75, 0 50.75 M0 50.75 C0.95 16.33, 16.36 0.29, 50.75 0 M0 50.75 C-1.67 15.04, 19.1 0.47, 50.75 0" stroke="#a61e4d" stroke-width="1" fill="none"></path></g><g transform="translate(84.5 243) rotate(0 40 10)"><text x="40" y="14" font-family="Virgil, Segoe UI Emoji" font-size="16px" fill="#a61e4d" text-anchor="middle" style="white-space: pre;" direction="ltr">board rom</text></g><g stroke-linecap="round" transform="translate(247.5 65.66666666666663) rotate(0 110 99.5)"><path d="M7.05 19.38 C7.05 19.38, 7.05 19.38, 7.05 19.38 M7.05 19.38 C7.05 19.38, 7.05 19.38, 7.05 19.38 M2.85 30.3 C6.84 23.98, 11.97 21.86, 18.59 12.19 M2.85 30.3 C8.44 25.15, 11.78 19.52, 18.59 12.19 M3.9 35.19 C11 30.01, 12.95 24.47, 30.14 5 M3.9 35.19 C8.06 28.24, 13.59 22.55, 30.14 5 M3.64 41.59 C9.4 32.33, 16.63 24.19, 36.44 3.85 M3.64 41.59 C10.83 32.7, 17.77 25.36, 36.44 3.85 M0.75 51 C16.01 34.38, 27.73 21.12, 42.08 3.46 M0.75 51 C15.66 32.93, 31.16 15.49, 42.08 3.46 M1.15 56.65 C14.92 40.6, 32.87 19.61, 50.35 0.04 M1.15 56.65 C20.17 34.81, 38.65 14.46, 50.35 0.04 M0.89 63.05 C22.24 38.18, 42.93 16.93, 55.34 0.4 M0.89 63.05 C21.03 42.29, 39.8 19.71, 55.34 0.4 M1.28 68.69 C18.92 46.64, 37.75 22.09, 60.98 0.01 M1.28 68.69 C24.09 41.99, 45.47 16.23, 60.98 0.01 M1.02 75.09 C19.29 56.77, 35.25 33.62, 65.97 0.37 M1.02 75.09 C26.16 46.43, 49.81 17.55, 65.97 0.37 M1.41 80.73 C23.62 53.68, 50.81 24.89, 71.61 -0.02 M1.41 80.73 C23.03 56.72, 44.07 31.27, 71.61 -0.02 M1.15 87.13 C21.23 60.27, 44.66 36.98, 76.6 0.34 M1.15 87.13 C26.49 57.99, 53.47 25.58, 76.6 0.34 M0.89 93.52 C25.6 65.42, 45.82 39.95, 81.59 0.7 M0.89 93.52 C17.31 74.78, 33.74 53.91, 81.59 0.7 M1.28 99.17 C34.73 61.45, 70.03 23.99, 87.23 0.3 M1.28 99.17 C25.44 72.99, 49.31 46.75, 87.23 0.3 M1.02 105.57 C35.21 68.94, 66.58 30.7, 92.22 0.66 M1.02 105.57 C23.25 81.44, 44.42 55.92, 92.22 0.66 M1.42 111.21 C28.21 81.52, 50.41 53.61, 97.86 0.27 M1.42 111.21 C37.07 69.83, 71.85 27.76, 97.86 0.27 M1.16 117.61 C37.86 76.61, 72.98 37.77, 102.85 0.63 M1.16 117.61 C29.77 82.99, 60.65 50.74, 102.85 0.63 M0.9 124 C22.5 97.06, 47.11 65.76, 108.49 0.23 M0.9 124 C24.25 97.99, 45.44 72.83, 108.49 0.23 M1.29 129.65 C41.32 80.92, 85.83 35.41, 113.48 0.59 M1.29 129.65 C37.73 86.36, 76.68 42.04, 113.48 0.59 M1.03 136.05 C24.13 107.89, 49.37 83.24, 119.12 0.2 M1.03 136.05 C41.48 87.08, 84.67 40.37, 119.12 0.2 M1.42 141.69 C40.58 97.12, 78.26 50.58, 124.11 0.56 M1.42 141.69 C44.26 93.54, 86.37 43.83, 124.11 0.56 M1.16 148.09 C42.08 99.47, 82.16 52.92, 129.75 0.16 M1.16 148.09 C40.72 102.23, 81.79 55.26, 129.75 0.16 M0.24 155.24 C30.52 122.97, 58.32 88.48, 134.74 0.52 M0.24 155.24 C43.38 104.05, 88.07 54.59, 134.74 0.52 M1.29 160.13 C41.34 113.25, 79.29 69.36, 140.38 0.13 M1.29 160.13 C30.81 126.38, 59 93.28, 140.38 0.13 M2.35 165.02 C40.66 118.67, 77.35 74.99, 145.37 0.49 M2.35 165.02 C45.73 116.91, 86.12 68.77, 145.37 0.49 M2.74 170.66 C39.63 129.72, 73.98 91.04, 151.01 0.09 M2.74 170.66 C44.58 122.47, 88.81 72.08, 151.01 0.09 M5.76 173.28 C62.63 108.06, 121.28 41.38, 156 0.45 M5.76 173.28 C52.06 121.29, 96.86 68.91, 156 0.45 M7.47 177.42 C51.01 126.91, 95.27 75.67, 160.98 0.81 M7.47 177.42 C44.6 135.54, 80.3 93.66, 160.98 0.81 M9.83 180.8 C53.08 129.65, 96.84 79.5, 166.63 0.42 M9.83 180.8 C42.04 143.86, 75.76 105.64, 166.63 0.42 M11.53 184.93 C71.64 118.14, 128.9 47.99, 171.61 0.78 M11.53 184.93 C49.73 142.49, 85.93 100.17, 171.61 0.78 M14.55 187.55 C73.76 118.24, 133.65 50.39, 176.6 1.14 M14.55 187.55 C69.57 124.97, 124.93 61.79, 176.6 1.14 M17.57 190.18 C49.99 150.79, 82.31 113.95, 181.59 1.5 M17.57 190.18 C64.63 135.24, 114.74 78.51, 181.59 1.5 M20.59 192.8 C63.53 141.85, 108.24 90.5, 185.92 2.61 M20.59 192.8 C82.66 124.33, 143.76 52.96, 185.92 2.61 M24.27 194.67 C81.18 128.86, 136.75 64.84, 190.25 3.73 M24.27 194.67 C88.13 123.41, 151.05 50.81, 190.25 3.73 M28.6 195.79 C77.71 140.23, 127.13 80.92, 194.58 4.84 M28.6 195.79 C75.59 143.54, 120.47 89.37, 194.58 4.84 M32.93 196.9 C79.61 143.51, 125.58 91.84, 198.25 6.71 M32.93 196.9 C72.49 152.38, 111.59 107.11, 198.25 6.71 M37.92 197.26 C97.09 125.51, 158.42 55.08, 201.93 8.58 M37.92 197.26 C71.39 159.23, 105.17 121.82, 201.93 8.58 M42.25 198.38 C101.3 130.3, 165.09 58.3, 205.6 10.45 M42.25 198.38 C99.84 129.01, 159.95 60.47, 205.6 10.45 M47.23 198.74 C96.37 139.66, 149.4 83.75, 208.62 13.08 M47.23 198.74 C103.31 132.85, 159.8 67.9, 208.62 13.08 M50.91 200.61 C105.51 135.21, 161.82 70.29, 210.99 16.46 M50.91 200.61 C93.93 150.68, 137.93 100.56, 210.99 16.46 M56.55 200.21 C110.65 137.18, 166.64 74.87, 213.35 19.83 M56.55 200.21 C106.5 143.01, 156.2 86.18, 213.35 19.83 M61.54 200.57 C113.85 137.3, 168.86 75.05, 215.06 23.97 M61.54 200.57 C120.44 129.47, 181.78 59.97, 215.06 23.97 M67.18 200.18 C125.71 130.48, 186.04 62.71, 217.42 27.35 M67.18 200.18 C120.31 139.97, 173.08 79.5, 217.42 27.35 M72.17 200.54 C119.2 148.27, 163.79 94.9, 219.78 30.73 M72.17 200.54 C130.4 133.75, 190.33 65.43, 219.78 30.73 M77.81 200.14 C133.01 136.03, 189.03 72.25, 220.83 35.61 M77.81 200.14 C118.92 151.73, 161.9 103.98, 220.83 35.61 M82.8 200.5 C132.73 141.77, 185.14 79.62, 221.88 40.5 M82.8 200.5 C118.99 160.43, 152.74 119.85, 221.88 40.5 M88.44 200.11 C133.23 149.99, 178.79 96.61, 222.28 46.15 M88.44 200.11 C121.84 161.01, 156.73 119.96, 222.28 46.15 M93.43 200.47 C127.5 161.57, 161.59 123.87, 222.67 51.79 M93.43 200.47 C140.09 146.34, 188.67 90.96, 222.67 51.79 M99.07 200.07 C136.8 158.36, 169.04 117.73, 222.41 58.19 M99.07 200.07 C136.74 156.05, 174.65 111.6, 222.41 58.19 M104.06 200.43 C145.46 152.84, 182.84 106.46, 222.15 64.58 M104.06 200.43 C136.85 161.03, 171.56 122.12, 222.15 64.58 M109.7 200.04 C152.42 150.55, 191.45 104.41, 222.54 70.23 M109.7 200.04 C133.17 172.41, 157.8 144.94, 222.54 70.23 M114.69 200.4 C150.77 159.86, 185.39 116.65, 222.28 76.63 M114.69 200.4 C153.31 156.64, 189.29 114.53, 222.28 76.63 M120.33 200 C152.77 166.85, 180.01 132.51, 222.68 82.27 M120.33 200 C151.27 165.74, 181.19 132.76, 222.68 82.27 M125.32 200.36 C143.86 176.29, 166.57 155.54, 222.42 88.67 M125.32 200.36 C146.36 174.4, 168.79 148.71, 222.42 88.67 M130.96 199.97 C158.91 168.51, 191.09 132.33, 222.15 95.06 M130.96 199.97 C162.35 165.53, 192.11 130.03, 222.15 95.06 M135.95 200.33 C160.32 173.03, 183.72 143.76, 222.55 100.71 M135.95 200.33 C155.84 178.16, 175.24 154.3, 222.55 100.71 M141.59 199.93 C164.07 174.03, 184.72 146.19, 222.29 107.11 M141.59 199.93 C169.42 167.71, 196.24 136.05, 222.29 107.11 M146.58 200.29 C170.07 171.35, 198.26 142.88, 222.68 112.75 M146.58 200.29 C174.53 165.7, 204.65 132.04, 222.68 112.75 M152.22 199.9 C171.2 174.67, 191.2 152.52, 222.42 119.15 M152.22 199.9 C175.79 171.89, 200.67 143.82, 222.42 119.15 M157.21 200.26 C173.49 179.15, 194.35 157.92, 222.16 125.54 M157.21 200.26 C178.92 177.29, 198.33 151.44, 222.16 125.54 M162.85 199.87 C180.75 179.27, 197.93 158.31, 222.55 131.19 M162.85 199.87 C184.91 175.27, 206.74 150.29, 222.55 131.19 M167.84 200.23 C183.52 182.53, 203.29 162.92, 222.29 137.58 M167.84 200.23 C181.05 185.4, 193.04 171.67, 222.29 137.58 M173.48 199.83 C193.07 179.79, 208.83 159.9, 222.69 143.23 M173.48 199.83 C187.13 183.51, 201.1 167.61, 222.69 143.23 M178.47 200.19 C195.21 181.56, 208.43 166.72, 222.43 149.63 M178.47 200.19 C190.99 186.29, 204.11 170.2, 222.43 149.63 M184.77 199.04 C196.81 184.83, 207.14 172.76, 221.51 156.78 M184.77 199.04 C200.5 182.26, 213.67 165.53, 221.51 156.78 M192.38 196.38 C203.9 184.46, 213.06 174.35, 219.28 165.44 M192.38 196.38 C198.36 190.37, 204.61 182.22, 219.28 165.44 M201.96 191.46 C206.49 186.6, 208.7 183.2, 215.74 175.61 M201.96 191.46 C205.42 187.93, 208.38 183.78, 215.74 175.61" stroke="#fd7e1455" stroke-width="0.5" fill="none"></path><path d="M49.75 0 M49.75 0 C84.79 0.81, 119.39 0.39, 170.25 0 M49.75 0 C94.75 0.14, 139.24 -1.59, 170.25 0 M170.25 0 C201.49 1.21, 220.04 16.86, 220 49.75 M170.25 0 C201.53 0.9, 218.75 16.43, 220 49.75 M220 49.75 C219.7 87.77, 219.54 127.69, 220 149.25 M220 49.75 C218.96 85.1, 219.52 121.98, 220 149.25 M220 149.25 C220.01 182.91, 201.7 197.56, 170.25 199 M220 149.25 C222.05 182.29, 204.62 199.1, 170.25 199 M170.25 199 C131.77 198.18, 98.31 198.94, 49.75 199 M170.25 199 C141.86 199.48, 115.43 199.38, 49.75 199 M49.75 199 C18.14 197.23, -0.04 182.9, 0 149.25 M49.75 199 C16.31 200.83, -1.62 182.56, 0 149.25 M0 149.25 C-0.33 116.29, 2.03 82.53, 0 49.75 M0 149.25 C0.11 113.78, -0.94 79.81, 0 49.75 M0 49.75 C0.39 16.36, 15.67 -0.56, 49.75 0 M0 49.75 C-0.61 15.93, 15.09 -0.1, 49.75 0" stroke="#d9480f" stroke-width="1" fill="none"></path></g><g transform="translate(337 239.66666666666663) rotate(0 20.5 10)"><text x="20.5" y="14" font-family="Virgil, Segoe UI Emoji" font-size="16px" fill="#d9480f" text-anchor="middle" style="white-space: pre;" direction="ltr">flash</text></g><g stroke-linecap="round" transform="translate(473 65.33333333333331) rotate(0 110 98.5)"><path d="M12.45 12.15 C12.45 12.15, 12.45 12.15, 12.45 12.15 M12.45 12.15 C12.45 12.15, 12.45 12.15, 12.45 12.15 M9.57 21.57 C13.9 16.77, 19.85 12.62, 20.72 8.74 M9.57 21.57 C12.81 18.24, 16.26 15.3, 20.72 8.74 M4.06 34 C13.92 25.35, 21.42 14.56, 28.99 5.32 M4.06 34 C10.36 27.6, 15.85 20.12, 28.99 5.32 M3.14 41.16 C13.39 30.39, 19.23 21.3, 35.29 4.17 M3.14 41.16 C15.41 27.65, 26.31 13.06, 35.29 4.17 M0.91 49.82 C15.8 33.49, 29.43 19.37, 40.93 3.78 M0.91 49.82 C11.71 35.71, 24.93 23.78, 40.93 3.78 M0.65 56.21 C9.31 45.12, 20.48 29.28, 49.2 0.37 M0.65 56.21 C11.47 44.15, 20.53 32.93, 49.2 0.37 M1.04 61.86 C19.46 37.56, 42.62 16.61, 54.84 -0.03 M1.04 61.86 C18.16 40.98, 37.4 19.34, 54.84 -0.03 M0.78 68.26 C12.27 53.39, 25.6 42.46, 59.83 0.33 M0.78 68.26 C20.57 43.62, 43.03 20.75, 59.83 0.33 M0.52 74.65 C21.39 51.67, 40.67 26.31, 65.47 -0.06 M0.52 74.65 C23.5 49.59, 45.84 22.62, 65.47 -0.06 M0.92 80.3 C22.96 53.92, 44.03 29.25, 70.46 0.3 M0.92 80.3 C22.15 55.59, 44.89 29.7, 70.46 0.3 M0.65 86.69 C17.65 69.05, 32.53 49.14, 76.1 -0.1 M0.65 86.69 C24.71 57.59, 50.22 30.44, 76.1 -0.1 M1.05 92.34 C24.36 64.74, 45.24 40.44, 81.09 0.26 M1.05 92.34 C18.23 72.49, 34.05 53.53, 81.09 0.26 M0.79 98.74 C23.94 70.21, 45.09 44.19, 86.73 -0.13 M0.79 98.74 C27.42 69.82, 51.2 40.55, 86.73 -0.13 M1.18 104.38 C24.34 78.95, 44.7 56.5, 91.72 0.23 M1.18 104.38 C26.38 75.37, 53.9 44.28, 91.72 0.23 M0.92 110.78 C37.46 69.46, 75.52 26.61, 97.36 -0.17 M0.92 110.78 C31.01 77.66, 59.5 43.9, 97.36 -0.17 M0.66 117.17 C29.35 84.03, 59 49.53, 102.35 0.19 M0.66 117.17 C25.49 89.57, 49.01 61.55, 102.35 0.19 M1.05 122.82 C30.34 88, 59.78 54.35, 107.33 0.55 M1.05 122.82 C22.53 98.19, 45.72 72.19, 107.33 0.55 M0.79 129.21 C43.5 82.89, 82.51 32.84, 112.98 0.16 M0.79 129.21 C27.79 99.65, 52.88 69.96, 112.98 0.16 M1.19 134.86 C43.55 84.51, 86.54 36.32, 117.97 0.52 M1.19 134.86 C40.69 89.78, 81.05 43.98, 117.97 0.52 M0.93 141.26 C25.01 111.42, 48.64 84.64, 123.61 0.12 M0.93 141.26 C35.63 100.34, 73.81 57.54, 123.61 0.12 M0.66 147.65 C33.35 108.32, 67.87 68.7, 128.6 0.48 M0.66 147.65 C49.04 95.16, 96.32 39.44, 128.6 0.48 M0.4 154.05 C46.35 100.79, 91.08 49.22, 134.24 0.09 M0.4 154.05 C51.95 96.65, 102.77 37.95, 134.24 0.09 M1.45 158.94 C42.15 113.17, 83.12 63.35, 139.23 0.45 M1.45 158.94 C40.62 115.77, 77.55 70.53, 139.23 0.45 M2.5 163.83 C42.85 117.69, 82.56 73.31, 144.87 0.06 M2.5 163.83 C36.51 125.65, 70.15 86.63, 144.87 0.06 M3.55 168.72 C56.18 104.63, 110.91 41.8, 149.86 0.42 M3.55 168.72 C33.36 134.73, 63.63 101.43, 149.86 0.42 M5.92 172.1 C59.76 110, 118.47 43.9, 155.5 0.02 M5.92 172.1 C58.51 108.54, 113.61 45.79, 155.5 0.02 M8.28 175.47 C54.54 119.69, 104.74 67.18, 160.49 0.38 M8.28 175.47 C61.19 113.35, 114.46 52.11, 160.49 0.38 M9.99 179.61 C63.21 115.82, 118.15 52.48, 166.13 -0.01 M9.99 179.61 C51.93 130.93, 94.86 82.05, 166.13 -0.01 M11.69 183.74 C66.72 119.65, 123.61 56.29, 171.12 0.35 M11.69 183.74 C62.48 125.59, 112.99 67.81, 171.12 0.35 M14.71 186.37 C70.07 119.64, 128.14 53.85, 176.76 -0.05 M14.71 186.37 C76.98 111.36, 141.69 37.94, 176.76 -0.05 M17.73 188.99 C80.88 113.9, 145.84 40.76, 179.78 2.58 M17.73 188.99 C75.05 124, 132 58.72, 179.78 2.58 M20.75 191.61 C72.62 133.57, 122.17 74.58, 184.11 3.69 M20.75 191.61 C85.28 117.66, 151.38 42.2, 184.11 3.69 M24.42 193.48 C87.79 120.09, 151.73 47.16, 188.44 4.81 M24.42 193.48 C71.71 137.99, 120.92 82.97, 188.44 4.81 M28.76 194.6 C88.11 124.96, 149.84 52.22, 192.77 5.92 M28.76 194.6 C71.21 147.27, 111.38 99.44, 192.77 5.92 M33.09 195.71 C88.37 133.62, 144.23 68.48, 197.76 6.28 M33.09 195.71 C74.45 147.4, 117.22 97.36, 197.76 6.28 M38.07 196.07 C81 146.93, 124.05 98.64, 201.43 8.15 M38.07 196.07 C97.65 127.23, 158.93 57.14, 201.43 8.15 M43.06 196.43 C91.76 142.19, 135.62 88.82, 205.11 10.02 M43.06 196.43 C92.62 138.42, 142.62 80.21, 205.11 10.02 M47.39 197.55 C103 133.21, 155.59 69.91, 208.13 12.64 M47.39 197.55 C92.37 143.94, 139.22 90.89, 208.13 12.64 M51.72 198.66 C110.95 130.09, 166.95 64.65, 210.49 16.02 M51.72 198.66 C84.87 159.56, 119.12 120.88, 210.49 16.02 M56.71 199.02 C108.64 139.28, 159.75 77.66, 212.85 19.4 M56.71 199.02 C112.19 135.78, 165.29 74.11, 212.85 19.4 M62.35 198.63 C109.55 148.58, 152.08 97.11, 214.56 23.54 M62.35 198.63 C107.88 147.77, 152.12 98.09, 214.56 23.54 M67.34 198.99 C97.11 162.33, 130.3 128.74, 216.92 26.91 M67.34 198.99 C100.37 159.06, 134.86 119.49, 216.92 26.91 M72.98 198.59 C118.85 146.58, 168.45 90.24, 219.28 30.29 M72.98 198.59 C122.97 142.79, 171.69 85.66, 219.28 30.29 M77.97 198.95 C118.53 153.11, 157.76 105.93, 220.33 35.18 M77.97 198.95 C110.76 161.92, 143.36 123.08, 220.33 35.18 M83.61 198.56 C122.06 154.14, 158.62 108.48, 221.39 40.07 M83.61 198.56 C130.59 143.87, 177.06 89.71, 221.39 40.07 M88.6 198.92 C131.1 148.15, 178.15 97.56, 222.44 44.96 M88.6 198.92 C138.45 138.4, 190.68 79.2, 222.44 44.96 M94.24 198.53 C129.65 153.67, 166.46 112.19, 222.17 51.36 M94.24 198.53 C137.19 147.4, 181.79 96.64, 222.17 51.36 M99.23 198.89 C131.6 159.23, 168.81 119.2, 221.91 57.75 M99.23 198.89 C139.49 154.7, 177.76 107.15, 221.91 57.75 M104.87 198.49 C140.2 156.9, 175.16 115.49, 222.31 63.4 M104.87 198.49 C147.73 150.47, 190.25 101.69, 222.31 63.4 M109.86 198.85 C143.19 160.71, 180.93 120.41, 222.05 69.8 M109.86 198.85 C137.02 168.8, 162.34 139.73, 222.05 69.8 M114.85 199.21 C155.87 154.94, 192.96 110.51, 222.44 75.44 M114.85 199.21 C145.41 164.14, 176.17 128.93, 222.44 75.44 M120.49 198.82 C157.36 157.55, 190.48 119.81, 222.18 81.84 M120.49 198.82 C150.1 165.99, 180.03 130.56, 222.18 81.84 M125.48 199.18 C156.2 163.57, 184.75 130.55, 221.92 88.23 M125.48 199.18 C165.21 155.55, 202.07 111.57, 221.92 88.23 M131.12 198.78 C165.72 160.5, 198.17 123.59, 222.31 93.88 M131.12 198.78 C151.9 176.25, 172.54 151.54, 222.31 93.88 M136.11 199.14 C159.41 171.89, 181.07 146.11, 222.05 100.27 M136.11 199.14 C156.64 176.06, 176 153.05, 222.05 100.27 M141.75 198.75 C165.36 171.97, 188.19 144.09, 222.45 105.92 M141.75 198.75 C172.28 164.85, 202.05 128.8, 222.45 105.92 M146.74 199.11 C161.84 179.8, 177.69 162.7, 222.18 112.32 M146.74 199.11 C167.69 172.39, 189.91 146.84, 222.18 112.32 M152.38 198.71 C176.22 171.74, 196.84 146.66, 221.92 118.71 M152.38 198.71 C178.81 166.42, 207.85 135.7, 221.92 118.71 M157.37 199.07 C179.71 173.16, 201.42 145.3, 222.32 124.36 M157.37 199.07 C182.48 170.49, 206.8 143.1, 222.32 124.36 M163.01 198.68 C183.8 171.59, 209.17 144.81, 222.06 130.75 M163.01 198.68 C186.33 172.44, 208.21 146.72, 222.06 130.75 M168 199.04 C188.36 176.09, 208.26 153.52, 222.45 136.4 M168 199.04 C182.79 182.32, 196.25 165.91, 222.45 136.4 M173.64 198.64 C187 183.72, 199.57 169.21, 222.19 142.8 M173.64 198.64 C191.66 179.77, 206.63 161.69, 222.19 142.8 M178.63 199 C194.37 180.52, 211.05 159.68, 221.93 149.19 M178.63 199 C195.32 181.93, 209.66 162.65, 221.93 149.19 M184.93 197.85 C196.1 185.25, 208.63 172.23, 221.67 155.59 M184.93 197.85 C196.51 184.05, 207.34 171.38, 221.67 155.59 M193.19 194.44 C203.52 181.34, 212.51 170.53, 220.09 163.5 M193.19 194.44 C201.53 186.16, 207.87 177.84, 220.09 163.5 M204.74 187.25 C206.62 181.92, 210.58 179, 215.89 174.42 M204.74 187.25 C207.95 183.72, 209.56 180.75, 215.89 174.42" stroke="#82c91e55" stroke-width="0.5" fill="none"></path><path d="M49.25 0 M49.25 0 C94.82 2.37, 138.99 0.06, 170.75 0 M49.25 0 C88.5 1.67, 125.71 1.09, 170.75 0 M170.75 0 C204.8 -1.1, 218.62 16.68, 220 49.25 M170.75 0 C201.57 0.96, 219.67 17.23, 220 49.25 M220 49.25 C218.67 87.99, 219.26 126.75, 220 147.75 M220 49.25 C219.89 82.91, 221.36 115.37, 220 147.75 M220 147.75 C219.15 181.58, 203.34 198.86, 170.75 197 M220 147.75 C221.89 182.7, 203.7 198.62, 170.75 197 M170.75 197 C140.69 197.87, 107.78 198.6, 49.25 197 M170.75 197 C123.4 195.97, 76.96 196.55, 49.25 197 M49.25 197 C16.95 197.45, -1.68 181.89, 0 147.75 M49.25 197 C15.71 194.96, -0.91 178.99, 0 147.75 M0 147.75 C1.82 111.49, 1.18 76.32, 0 49.25 M0 147.75 C0.33 113.46, 0.4 77, 0 49.25 M0 49.25 C-0.66 15.25, 15.58 -1.42, 49.25 0 M0 49.25 C-2.19 14.78, 14.33 1.98, 49.25 0" stroke="#5c940d" stroke-width="1" fill="none"></path></g><g transform="translate(528 237.33333333333331) rotate(0 55 10)"><text x="55" y="14" font-family="Virgil, Segoe UI Emoji" font-size="16px" fill="#5c940d" text-anchor="middle" style="white-space: pre;" direction="ltr">flash/hdd/ssd</text></g><g stroke-linecap="round" transform="translate(702 65) rotate(0 110 97.5)"><path d="M6.77 19.14 C6.77 19.14, 6.77 19.14, 6.77 19.14 M6.77 19.14 C6.77 19.14, 6.77 19.14, 6.77 19.14 M2.58 30.06 C7.49 23.55, 8.74 21.79, 18.32 11.95 M2.58 30.06 C6.85 26.63, 10.33 21.96, 18.32 11.95 M4.28 34.2 C16.01 24.39, 24.45 12.19, 29.87 4.76 M4.28 34.2 C13.16 23, 23.64 12.07, 29.87 4.76 M3.36 41.35 C16.09 26.89, 26.56 15.05, 35.51 4.37 M3.36 41.35 C14.3 28.43, 26.81 14.58, 35.51 4.37 M1.13 50.01 C15.57 33.66, 24.93 18.91, 41.81 3.22 M1.13 50.01 C11.16 37.29, 23 25.47, 41.81 3.22 M1.53 55.65 C17.25 40.45, 29.85 23.34, 49.42 0.56 M1.53 55.65 C15.74 38.99, 30.56 21.12, 49.42 0.56 M1.27 62.05 C14.52 44.48, 29.25 29.8, 54.41 0.92 M1.27 62.05 C21.59 37.62, 43.45 12.71, 54.41 0.92 M1.01 68.45 C21.19 42.98, 41.18 19.54, 60.05 0.53 M1.01 68.45 C14.68 53.22, 28.73 36.96, 60.05 0.53 M1.4 74.09 C16.75 57.68, 31.21 43.71, 65.04 0.89 M1.4 74.09 C18.73 54.9, 34.9 34.77, 65.04 0.89 M1.14 80.49 C24.22 53.86, 47.08 25.76, 70.68 0.49 M1.14 80.49 C28.74 48.66, 55.18 16.76, 70.68 0.49 M1.53 86.13 C29.34 53.29, 57.11 22.63, 75.67 0.85 M1.53 86.13 C23.91 60.48, 45.74 34.37, 75.67 0.85 M1.27 92.53 C23.43 68.4, 46.28 43.49, 81.31 0.46 M1.27 92.53 C18.42 70.38, 36.64 48.9, 81.31 0.46 M1.67 98.18 C30.59 64.07, 63.46 28.9, 86.3 0.82 M1.67 98.18 C19.73 77.91, 38.82 55.92, 86.3 0.82 M1.41 104.57 C30.1 71.98, 54.77 43.27, 91.94 0.42 M1.41 104.57 C28.91 73.09, 57.76 40.64, 91.94 0.42 M1.14 110.97 C25.68 84.07, 45.12 62.42, 96.93 0.78 M1.14 110.97 C24.45 84.26, 49.04 57.07, 96.93 0.78 M1.54 116.61 C23.41 90.3, 43.8 65.43, 102.57 0.39 M1.54 116.61 C41.45 70.65, 82.52 23.72, 102.57 0.39 M1.28 123.01 C27.21 92.38, 52.42 64.87, 107.56 0.75 M1.28 123.01 C31.72 86.45, 62.25 51.76, 107.56 0.75 M1.67 128.65 C31.88 89.02, 65.9 50.99, 113.2 0.35 M1.67 128.65 C40.6 84.58, 77.97 39.6, 113.2 0.35 M1.41 135.05 C37.45 93.19, 77.37 51.13, 118.19 0.71 M1.41 135.05 C47.8 81.9, 93.24 28.05, 118.19 0.71 M1.15 141.45 C36.45 103.31, 71.3 65.78, 123.83 0.32 M1.15 141.45 C30.51 108.74, 58.18 77.82, 123.83 0.32 M1.54 147.09 C46.86 95.87, 92.3 46.13, 128.82 0.68 M1.54 147.09 C37.41 109.25, 71.33 69.49, 128.82 0.68 M1.28 153.49 C53.94 93.79, 106.17 32.67, 133.81 1.04 M1.28 153.49 C54 92.94, 106.4 32.97, 133.81 1.04 M2.33 158.38 C46.01 109.45, 90.08 57.4, 139.45 0.65 M2.33 158.38 C53.41 100.97, 103.29 42.66, 139.45 0.65 M3.38 163.27 C50.46 109.83, 97.01 58.21, 144.44 1.01 M3.38 163.27 C35.59 127.46, 68.86 91.77, 144.44 1.01 M4.43 168.16 C56.15 110.42, 109.67 51.71, 150.08 0.61 M4.43 168.16 C60.7 104.32, 116.36 39.87, 150.08 0.61 M6.14 172.29 C44.71 128.43, 85.16 82.1, 155.07 0.97 M6.14 172.29 C61.86 106.23, 119.63 39.95, 155.07 0.97 M7.85 176.42 C52.68 125.99, 94.91 77.3, 160.71 0.58 M7.85 176.42 C67.12 108.97, 125.08 43.27, 160.71 0.58 M10.21 179.8 C44.18 143.73, 78.49 104.47, 165.7 0.94 M10.21 179.8 C63.03 118.45, 115.37 58.75, 165.7 0.94 M13.23 182.43 C54.59 131.79, 100.39 80.22, 171.34 0.54 M13.23 182.43 C56.07 132.69, 98.05 84.42, 171.34 0.54 M16.25 185.05 C68.55 123.33, 119.94 66, 176.33 0.9 M16.25 185.05 C56.86 138.82, 97.97 91.84, 176.33 0.9 M19.27 187.68 C55.11 147.27, 91.64 103.78, 180 2.77 M19.27 187.68 C65.9 132.39, 115.05 77.87, 180 2.77 M21.63 191.05 C77.65 125.46, 135.13 61.17, 184.33 3.89 M21.63 191.05 C70.8 132.53, 122.4 74.46, 184.33 3.89 M25.96 192.17 C82.66 128.64, 138.34 63.57, 188.66 5 M25.96 192.17 C88.36 119.71, 151.5 46.97, 188.66 5 M29.64 194.04 C92.62 123.23, 153.96 52.17, 192.99 6.12 M29.64 194.04 C91.98 120, 155.8 46.8, 192.99 6.12 M34.62 194.4 C89.52 130.1, 147.74 62.32, 198.64 5.72 M34.62 194.4 C65.91 156.38, 99.63 117.03, 198.64 5.72 M38.95 195.51 C92.06 136.79, 141.68 74.52, 201.66 8.35 M38.95 195.51 C97.65 131.08, 153.73 65.21, 201.66 8.35 M43.94 195.87 C96.64 135.34, 150.63 75.12, 205.33 10.22 M43.94 195.87 C85.28 148.71, 124.79 103.34, 205.33 10.22 M49.58 195.48 C81.16 157.32, 115.75 115.92, 208.35 12.84 M49.58 195.48 C109.65 125.41, 170.05 56.45, 208.35 12.84 M54.57 195.84 C89.27 153.56, 126.61 110.94, 211.37 15.46 M54.57 195.84 C115.15 124.43, 177.42 55.38, 211.37 15.46 M60.21 195.44 C105.44 142.09, 152.46 90.12, 213.08 19.6 M60.21 195.44 C100.53 151.25, 139.22 107.23, 213.08 19.6 M65.2 195.8 C125.36 128, 183.75 61.6, 214.78 23.73 M65.2 195.8 C117.74 136.38, 171.12 76.51, 214.78 23.73 M70.84 195.41 C127.59 131.13, 180.91 69.02, 217.15 27.11 M70.84 195.41 C109.39 152.93, 146.3 110.96, 217.15 27.11 M75.83 195.77 C104.31 157.62, 137.49 123.35, 220.16 29.73 M75.83 195.77 C132.45 129.95, 190.63 63.56, 220.16 29.73 M81.47 195.38 C115.1 156.97, 146.21 121.6, 220.56 35.38 M81.47 195.38 C119.04 153.55, 153.71 110.57, 220.56 35.38 M86.46 195.74 C123.21 153.33, 163.11 109.12, 221.61 40.27 M86.46 195.74 C118.33 157.8, 151.76 118.88, 221.61 40.27 M92.1 195.34 C117.96 165.22, 146.96 134.3, 222.66 45.15 M92.1 195.34 C124.34 158.24, 158.06 118.61, 222.66 45.15 M97.09 195.7 C126.37 160.08, 155.71 127.18, 222.4 51.55 M97.09 195.7 C143.27 142.48, 191.15 88.38, 222.4 51.55 M102.73 195.31 C128.38 163.13, 158.38 132.11, 222.79 57.19 M102.73 195.31 C129.74 164.13, 156 131.66, 222.79 57.19 M107.72 195.67 C141.88 155.05, 175.08 118.46, 222.53 63.59 M107.72 195.67 C141.27 156.51, 175.28 115.91, 222.53 63.59 M113.36 195.27 C156.17 144.91, 199 95.41, 222.27 69.99 M113.36 195.27 C141.88 161.72, 172.36 128.16, 222.27 69.99 M118.35 195.63 C157.11 148.79, 192.89 107.23, 222.66 75.63 M118.35 195.63 C150.1 159.69, 181.15 124.86, 222.66 75.63 M123.99 195.24 C161.95 150.59, 201.34 109.19, 222.4 82.03 M123.99 195.24 C147.62 167.26, 173.63 138.75, 222.4 82.03 M128.98 195.6 C162.17 161.11, 191.91 126.24, 222.8 87.67 M128.98 195.6 C157.07 161.88, 187.4 129.3, 222.8 87.67 M134.62 195.2 C153.84 173.96, 177.04 150.37, 222.54 94.07 M134.62 195.2 C168.99 156.88, 202.77 118.07, 222.54 94.07 M139.61 195.56 C164.32 166.05, 191.08 139.3, 222.28 100.47 M139.61 195.56 C171.75 158.81, 202.84 120.87, 222.28 100.47 M145.25 195.17 C172.71 161.85, 201.65 129, 222.67 106.11 M145.25 195.17 C163.11 174.61, 182.14 152.44, 222.67 106.11 M150.24 195.53 C164.85 178.16, 184.46 156.88, 222.41 112.51 M150.24 195.53 C170.26 171.67, 191.57 148.17, 222.41 112.51 M155.88 195.13 C179.56 164.89, 204.54 136.84, 222.8 118.15 M155.88 195.13 C177.56 170.93, 198.59 146.95, 222.8 118.15 M160.87 195.49 C178 175.13, 197.75 154.93, 222.54 124.55 M160.87 195.49 C176.46 177.07, 192.66 159.24, 222.54 124.55 M166.51 195.1 C177.43 182.06, 190.05 166.77, 222.28 130.95 M166.51 195.1 C184.27 174.89, 201.86 154.67, 222.28 130.95 M171.5 195.46 C182.05 180.76, 198.07 166.65, 222.67 136.59 M171.5 195.46 C184.51 179.24, 198.58 163.08, 222.67 136.59 M177.14 195.07 C187.03 183.13, 198.87 169.41, 222.41 142.99 M177.14 195.07 C187.94 183.3, 198.33 172.42, 222.41 142.99 M183.44 193.92 C196.5 177.55, 209.43 163.87, 222.81 148.63 M183.44 193.92 C199.06 177.93, 213.27 159.94, 222.81 148.63 M189.74 192.77 C202.9 181.11, 212.83 167.48, 222.55 155.03 M189.74 192.77 C198.44 182.86, 206.03 173.53, 222.55 155.03 M194.07 193.88 C203.63 182.47, 215.3 171.64, 220.97 162.94 M194.07 193.88 C203.45 183.69, 210.7 173.49, 220.97 162.94" stroke="#228be655" stroke-width="0.5" fill="none"></path><path d="M48.75 0 M48.75 0 C77.87 1.8, 104.63 1.16, 171.25 0 M48.75 0 C84.25 0.19, 121.67 0.26, 171.25 0 M171.25 0 C203.05 -0.66, 218.83 15.41, 220 48.75 M171.25 0 C202.12 -2.19, 218.36 14.16, 220 48.75 M220 48.75 C217.9 86.47, 218.53 125.24, 220 146.25 M220 48.75 C220.77 75.52, 220.72 102.71, 220 146.25 M220 146.25 C218.12 177.01, 202.49 195.84, 171.25 195 M220 146.25 C220.92 179.86, 202.25 194.65, 171.25 195 M171.25 195 C126.19 194.59, 81.71 195.58, 48.75 195 M171.25 195 C131.48 194.57, 90.79 194.34, 48.75 195 M48.75 195 C18.16 196, 0.55 180.6, 0 146.25 M48.75 195 C17.26 195.11, -2.03 176.76, 0 146.25 M0 146.25 C-0.3 114.31, -0.14 86.31, 0 48.75 M0 146.25 C-0.05 120.62, -0.23 94.92, 0 48.75 M0 48.75 C-0.95 14.89, 17.3 0.98, 48.75 0 M0 48.75 C-2.05 14.89, 15.59 0.66, 48.75 0" stroke="#1864ab" stroke-width="1" fill="none"></path></g><g transform="translate(747.5 235) rotate(0 64.5 10)"><text x="64.5" y="14" font-family="Virgil, Segoe UI Emoji" font-size="16px" fill="#1864ab" text-anchor="middle" style="white-space: pre;" direction="ltr">hdd/ssd/network</text></g><g stroke-linecap="round"><g transform="translate(221 163) rotate(0 25.699169995722514 0.8460417978550652)"><path d="M-0.32 0.35 C4.31 0.25, 18.76 -0.75, 27.43 -0.64 C36.11 -0.53, 47.63 0.63, 51.72 1 M1.71 -0.51 C6.23 -0.44, 18.3 0.22, 26.58 0.69 C34.86 1.16, 47.64 2.54, 51.41 2.31" stroke="#495057" stroke-width="1" fill="none"></path></g><g transform="translate(221 163) rotate(0 25.699169995722514 0.8460417978550652)"><path d="M40.53 6.21 C42.84 5.9, 46.26 5.16, 51.97 1.87 M40.36 6.36 C44.39 4.44, 48.56 3.34, 51.38 2.6" stroke="#495057" stroke-width="1" fill="none"></path></g><g transform="translate(221 163) rotate(0 25.699169995722514 0.8460417978550652)"><path d="M40.77 -1.87 C43.01 0.01, 46.37 1.45, 51.97 1.87 M40.59 -1.72 C44.49 -0.69, 48.58 1.15, 51.38 2.6" stroke="#495057" stroke-width="1" fill="none"></path></g></g><g transform="translate(42.5 207.5) rotate(0 29.5 10)"><text x="29.5" y="14" font-family="Virgil, Segoe UI Emoji" font-size="16px" fill="#495057" text-anchor="middle" style="white-space: pre;" direction="ltr">0x1000</text></g><g stroke-linecap="round"><g transform="translate(203.6776916360002 272.4223854851843) rotate(0 37.323947382090466 7.595900034640863)"><path d="M-0.73 -0.51 C5.88 2.08, 26.3 15.82, 38.98 15.94 C51.67 16.06, 69.27 3.04, 75.38 0.21 M1.09 -1.82 C7.66 0.86, 26.06 16.96, 38.38 17.01 C50.71 17.06, 69.3 1.3, 75.04 -1.53" stroke="#087f5b" stroke-width="1" fill="none"></path></g><g transform="translate(203.6776916360002 272.4223854851843) rotate(0 37.323947382090466 7.595900034640863)"><path d="M62.03 15.68 C64.29 12.08, 70.63 8.62, 74.86 -2.9 M62.62 14.89 C67.04 9.92, 70.67 5.3, 74.93 -1.09" stroke="#087f5b" stroke-width="1" fill="none"></path></g><g transform="translate(203.6776916360002 272.4223854851843) rotate(0 37.323947382090466 7.595900034640863)"><path d="M54.53 4.09 C58.65 3.36, 66.81 2.72, 74.86 -2.9 M55.11 3.3 C61.81 1.93, 67.77 0.92, 74.93 -1.09" stroke="#087f5b" stroke-width="1" fill="none"></path></g></g><g transform="translate(119.75 303) rotate(0 131 20)"><text x="131" y="14" font-family="Virgil, Segoe UI Emoji" font-size="16px" fill="#087f5b" text-anchor="middle" style="white-space: pre;" direction="ltr">register 'a2' = *fw_dynamic_info</text><text x="131" y="34" font-family="Virgil, Segoe UI Emoji" font-size="16px" fill="#087f5b" text-anchor="middle" style="white-space: pre;" direction="ltr">next_addr = 0x8020_0000</text></g><g stroke-linecap="round"><g transform="translate(449.5 166.00000000000006) rotate(0 20.438450665511198 -0.755951809056711)"><path d="M0.1 0.15 C3.05 -0.2, 9.63 -1.08, 16.65 -1.37 C23.66 -1.67, 38.12 -1.73, 42.18 -1.6 M-1.3 -0.81 C2.09 -1.12, 11.64 -0.46, 18.78 -0.43 C25.92 -0.39, 37.85 -0.79, 41.51 -0.6" stroke="#495057" stroke-width="1" fill="none"></path></g><g transform="translate(449.5 166.00000000000006) rotate(0 20.438450665511198 -0.755951809056711)"><path d="M30.24 2.35 C31.34 2.78, 34.29 0.75, 41.89 0.48 M30.09 3.49 C32.94 2.72, 35.81 1.05, 40.97 -1.16" stroke="#495057" stroke-width="1" fill="none"></path></g><g transform="translate(449.5 166.00000000000006) rotate(0 20.438450665511198 -0.755951809056711)"><path d="M30.3 -5.95 C31.44 -3.76, 34.37 -4.04, 41.89 0.48 M30.14 -4.81 C33.04 -3.31, 35.9 -2.71, 40.97 -1.16" stroke="#495057" stroke-width="1" fill="none"></path></g></g><g transform="translate(275.5 207.00000000000006) rotate(0 62.5 10)"><text x="62.5" y="14" font-family="Virgil, Segoe UI Emoji" font-size="16px" fill="#495057" text-anchor="middle" style="white-space: pre;" direction="ltr">0x8000_0000</text></g><g stroke-linecap="round"><g transform="translate(670.1655130047102 161.5) rotate(0 22.879335932296954 1.0995989681780145)"><path d="M0.33 0.25 C2.66 0.45, 5.77 0.32, 13.5 0.6 C21.23 0.87, 40.9 1.72, 46.71 1.88 M-0.95 -0.67 C1.77 -0.22, 7.87 1.46, 15.64 2.05 C23.4 2.64, 40.03 2.86, 45.62 2.87" stroke="#495057" stroke-width="1" fill="none"></path></g><g transform="translate(670.1655130047102 161.5) rotate(0 22.879335932296954 1.0995989681780145)"><path d="M30.49 6.84 C34.02 6.01, 37.43 6.83, 44.3 3.86 M29.7 8.95 C35.3 6.73, 39.21 4.89, 45.18 2.75" stroke="#495057" stroke-width="1" fill="none"></path></g><g transform="translate(670.1655130047102 161.5) rotate(0 22.879335932296954 1.0995989681780145)"><path d="M30.6 -4.37 C34.04 -2.27, 37.42 1.49, 44.3 3.86 M29.8 -2.26 C35.27 -1.3, 39.15 0.04, 45.18 2.75" stroke="#495057" stroke-width="1" fill="none"></path></g></g><g transform="translate(495 205.49999999999994) rotate(0 62.5 10)"><text x="62.5" y="14" font-family="Virgil, Segoe UI Emoji" font-size="16px" fill="#495057" text-anchor="middle" style="white-space: pre;" direction="ltr">0x8020_0000</text></g><g stroke-linecap="round"><g transform="translate(666.25 274.625) rotate(0 33.55394756242629 7.235334509651381)"><path d="M-0.18 -0.16 C5.57 2.65, 24.61 16.31, 35.72 15.85 C46.83 15.38, 61.34 -0.02, 66.49 -2.96 M-1.74 -1.28 C3.79 1.82, 23.25 17.58, 35.02 17.43 C46.78 17.29, 63.63 0.85, 68.85 -2.15" stroke="#087f5b" stroke-width="1" fill="none"></path></g><g transform="translate(666.25 274.625) rotate(0 33.55394756242629 7.235334509651381)"><path d="M58.53 13.97 C63.07 5.55, 65.47 -0.48, 69.17 -1.75 M59.63 13.87 C61.23 10.81, 63.73 6.7, 67.97 -2.79" stroke="#087f5b" stroke-width="1" fill="none"></path></g><g transform="translate(666.25 274.625) rotate(0 33.55394756242629 7.235334509651381)"><path d="M50.99 3.89 C58.46 -0.49, 63.88 -2.49, 69.17 -1.75 M52.08 3.79 C55.19 2.86, 59.26 0.85, 67.97 -2.79" stroke="#087f5b" stroke-width="1" fill="none"></path></g></g><g transform="translate(609.5 301.5) rotate(0 92 10)"><text x="92" y="14" font-family="Virgil, Segoe UI Emoji" font-size="16px" fill="#087f5b" text-anchor="middle" style="white-space: pre;" direction="ltr">load kernel into memory</text></g></svg>