<svg version="1.1" xmlns="http://www.w3.org/2000/svg" viewBox="0 0 917.5753968253971 574.0912698412696" width="1835.1507936507942" height="1148.1825396825393">
  <!-- svg-source:excalidraw -->
  
  <defs>
    <style>
      @font-face {
        font-family: "Virgil";
        src: url("https://excalidraw.com/Virgil.woff2");
      }
      @font-face {
        font-family: "Cascadia";
        src: url("https://excalidraw.com/Cascadia.woff2");
      }
    </style>
  </defs>
  <rect x="0" y="0" width="917.5753968253971" height="574.0912698412696" fill="#ffffff"></rect><g stroke-linecap="round" transform="translate(560 198.6428571428571) rotate(0 159 90.5)"><path d="M6.47 17.55 C6.47 17.55, 6.47 17.55, 6.47 17.55 M6.47 17.55 C6.47 17.55, 6.47 17.55, 6.47 17.55 M2.93 27.72 C9.9 22.41, 15.87 14.63, 19.99 8.1 M2.93 27.72 C8.03 21.16, 13.67 15.82, 19.99 8.1 M1.36 35.63 C13.21 23.57, 22.34 11.77, 27.6 5.44 M1.36 35.63 C7 28.18, 12.75 22.33, 27.6 5.44 M1.75 41.27 C17.48 23.73, 29.89 10.35, 35.87 2.03 M1.75 41.27 C12.48 30.12, 21.54 18.34, 35.87 2.03 M1.49 47.67 C16.72 30.02, 29.11 13.8, 41.51 1.63 M1.49 47.67 C16 29.84, 32.35 13.44, 41.51 1.63 M1.88 53.31 C11.15 42.84, 22.4 31.64, 47.15 1.24 M1.88 53.31 C14.11 38.23, 28.15 21.19, 47.15 1.24 M1.62 59.71 C16.25 46.69, 26.95 29.46, 52.14 1.6 M1.62 59.71 C12.51 47.99, 22.47 36.95, 52.14 1.6 M1.36 66.11 C22.15 44.86, 40.67 22.29, 57.78 1.2 M1.36 66.11 C19.75 43.87, 38.74 22.63, 57.78 1.2 M1.76 71.75 C23.17 48.66, 42.03 23.25, 62.77 1.56 M1.76 71.75 C21.98 49.46, 40.96 25.86, 62.77 1.56 M1.49 78.15 C26.57 46.99, 52.87 20.41, 68.41 1.17 M1.49 78.15 C22.59 54.46, 42.79 31.17, 68.41 1.17 M1.89 83.79 C18.25 62.38, 34.28 44.34, 73.4 1.53 M1.89 83.79 C25.68 56.23, 50.17 28.7, 73.4 1.53 M1.63 90.19 C31.39 56.09, 61.56 19.66, 79.04 1.13 M1.63 90.19 C23.69 64.89, 44.55 40.99, 79.04 1.13 M1.37 96.59 C24.08 71.98, 43.51 46.9, 84.03 1.5 M1.37 96.59 C22.53 73.17, 44.42 47.88, 84.03 1.5 M1.76 102.23 C20.92 79.38, 44.31 54.19, 89.67 1.1 M1.76 102.23 C36.15 65.03, 68.41 25.49, 89.67 1.1 M1.5 108.63 C29.29 79.04, 56.87 45.59, 94.66 1.46 M1.5 108.63 C31.28 71.94, 62.59 36.97, 94.66 1.46 M1.24 115.03 C28.12 83.59, 51.87 55.39, 99.65 1.82 M1.24 115.03 C28.89 81.4, 57.54 48.07, 99.65 1.82 M1.63 120.67 C41.47 75.49, 80.32 32, 105.29 1.43 M1.63 120.67 C41.84 74.87, 83.51 27.94, 105.29 1.43 M1.37 127.07 C26.42 100.51, 46.18 72.02, 110.28 1.79 M1.37 127.07 C41.11 82.2, 81.31 34.44, 110.28 1.79 M1.77 132.71 C28.88 102.11, 57.68 65.83, 115.92 1.39 M1.77 132.71 C33.32 96.06, 64.21 60.38, 115.92 1.39 M1.5 139.11 C40.28 96.68, 77 52.46, 120.91 1.75 M1.5 139.11 C35.19 98.06, 70.24 56.85, 120.91 1.75 M1.24 145.51 C29.01 113.02, 57.44 83.96, 126.55 1.36 M1.24 145.51 C32.81 112.27, 63.54 76.05, 126.55 1.36 M3.61 148.89 C53.67 92.08, 104.81 33.07, 131.54 1.72 M3.61 148.89 C34.71 112.69, 65.18 77.64, 131.54 1.72 M5.31 153.02 C47.88 102.98, 90.7 53.5, 137.18 1.32 M5.31 153.02 C54.63 98.35, 103.69 41.25, 137.18 1.32 M6.36 157.91 C55.99 102.08, 106.2 43.06, 142.17 1.68 M6.36 157.91 C49.32 105.82, 93.61 55.27, 142.17 1.68 M6.76 163.55 C59.69 104.52, 110.08 46.72, 147.81 1.29 M6.76 163.55 C52.06 109.21, 98.96 58.01, 147.81 1.29 M9.78 166.17 C55.22 110.71, 105.28 53.87, 152.8 1.65 M9.78 166.17 C60.34 109.39, 108.31 53.02, 152.8 1.65 M12.14 169.55 C51.29 126.6, 85.13 86.94, 158.44 1.25 M12.14 169.55 C68.65 103.4, 125.25 37.33, 158.44 1.25 M15.16 172.18 C56.39 122.53, 97.64 75.4, 163.43 1.61 M15.16 172.18 C73.85 102.83, 133.58 33.98, 163.43 1.61 M18.18 174.8 C55.81 131.88, 94.32 87.79, 169.07 1.22 M18.18 174.8 C58.09 128.92, 98.99 82.12, 169.07 1.22 M21.85 176.67 C55.34 138.28, 88.14 101.35, 174.06 1.58 M21.85 176.67 C71.76 119.61, 120.46 61.86, 174.06 1.58 M26.18 177.79 C81.72 113.81, 139.08 51.57, 179.7 1.18 M26.18 177.79 C65.6 132.4, 104.46 88.73, 179.7 1.18 M30.51 178.9 C88.36 108.94, 147.04 41.64, 184.69 1.54 M30.51 178.9 C71.88 131.67, 112.31 84.23, 184.69 1.54 M34.19 180.77 C86.21 119.48, 138.09 61.61, 190.33 1.15 M34.19 180.77 C75.79 134.4, 116.82 87.89, 190.33 1.15 M37.86 182.64 C78.84 133.28, 124.44 82.04, 195.32 1.51 M37.86 182.64 C77.67 138.11, 115.67 93.16, 195.32 1.51 M42.85 183 C84.02 134.57, 126.62 90.05, 200.96 1.12 M42.85 183 C76.85 142.92, 111.92 102.46, 200.96 1.12 M47.84 183.36 C83.79 145.39, 119.28 102.65, 205.95 1.48 M47.84 183.36 C85.55 142.94, 121.56 101.61, 205.95 1.48 M53.48 182.97 C109.58 118.01, 167.43 54.27, 210.93 1.84 M53.48 182.97 C94.75 138.59, 133.47 91.23, 210.93 1.84 M58.47 183.33 C121.04 110.44, 184.78 37.76, 216.58 1.44 M58.47 183.33 C101.81 135.62, 143.56 85.85, 216.58 1.44 M64.11 182.93 C95.52 146.26, 130.69 108.66, 221.56 1.8 M64.11 182.93 C113.33 127.97, 163.38 71.26, 221.56 1.8 M69.1 183.29 C103.58 146.42, 136.83 105.17, 227.21 1.41 M69.1 183.29 C124.59 121.88, 178.21 61.13, 227.21 1.41 M74.08 183.65 C122.06 129.37, 169.68 76.95, 232.19 1.77 M74.08 183.65 C126.7 122.48, 180.5 61, 232.19 1.77 M79.73 183.26 C132.45 123.44, 183.61 61.01, 237.84 1.37 M79.73 183.26 C130.73 123.16, 182.11 64.3, 237.84 1.37 M84.71 183.62 C130.22 129.77, 177.76 76.33, 242.82 1.73 M84.71 183.62 C130.82 131.72, 177.29 78.54, 242.82 1.73 M90.36 183.22 C127.34 141.81, 167.04 97.5, 248.47 1.34 M90.36 183.22 C122.92 145.65, 155.83 107.88, 248.47 1.34 M95.34 183.58 C156.62 115.26, 214.69 45.73, 253.45 1.7 M95.34 183.58 C150.61 121.84, 204.72 58.88, 253.45 1.7 M100.99 183.19 C143.13 134.45, 185.47 88.25, 259.1 1.3 M100.99 183.19 C148.06 129.3, 193.87 76.04, 259.1 1.3 M105.97 183.55 C147.68 131.07, 192.2 80.21, 264.09 1.66 M105.97 183.55 C150.3 132.73, 193.64 82.85, 264.09 1.66 M111.62 183.15 C171.71 112.49, 235.74 38.76, 269.73 1.27 M111.62 183.15 C173.27 112.2, 234.26 41.19, 269.73 1.27 M116.6 183.51 C159.48 133.24, 202.21 85.62, 274.72 1.63 M116.6 183.51 C160.68 132.74, 203.66 82.8, 274.72 1.63 M122.25 183.12 C160.26 141.99, 198.03 99.98, 279.7 1.99 M122.25 183.12 C156.18 144.65, 188.53 107.05, 279.7 1.99 M127.23 183.48 C182.98 116.38, 241.93 52.2, 284.69 2.35 M127.23 183.48 C181.46 120.49, 233.81 58.74, 284.69 2.35 M132.88 183.08 C170.99 140.21, 212.23 92.73, 289.02 3.46 M132.88 183.08 C192.19 114.2, 252.07 46.95, 289.02 3.46 M137.87 183.44 C185.84 127.26, 232.72 74.34, 293.35 4.58 M137.87 183.44 C179.23 135.28, 220.84 86.71, 293.35 4.58 M143.51 183.05 C194.93 123.42, 246.46 64.13, 297.03 6.45 M143.51 183.05 C178.95 142.03, 217.05 98.84, 297.03 6.45 M148.5 183.41 C209.4 113.1, 269.83 43.85, 301.36 7.56 M148.5 183.41 C190.93 130.42, 235.75 79.79, 301.36 7.56 M154.14 183.02 C188.59 143.45, 219.44 105.18, 304.38 10.19 M154.14 183.02 C190.04 141.32, 226.36 100.06, 304.38 10.19 M159.13 183.38 C197.75 137.48, 237.18 91.73, 307.39 12.81 M159.13 183.38 C193.76 146.34, 226.04 107.74, 307.39 12.81 M164.77 182.98 C210.08 134.43, 253.8 82.41, 309.76 16.19 M164.77 182.98 C213.3 128.8, 261.6 73.79, 309.76 16.19 M169.76 183.34 C210.31 137.61, 252.81 90.18, 312.78 18.81 M169.76 183.34 C211.26 133.23, 255.63 84.28, 312.78 18.81 M175.4 182.95 C228.53 121.79, 282.94 63.49, 314.48 22.95 M175.4 182.95 C227.71 122.84, 279.4 62.67, 314.48 22.95 M180.39 183.31 C229.69 125.05, 280.61 66.92, 315.53 27.84 M180.39 183.31 C230.36 125.85, 280.75 68.83, 315.53 27.84 M185.37 183.67 C228.88 135.21, 269.7 87.68, 317.24 31.97 M185.37 183.67 C231.14 131.17, 276.76 78.15, 317.24 31.97 M191.02 183.27 C241.32 128.6, 288.17 73.51, 318.95 36.1 M191.02 183.27 C228.76 141.44, 264.81 99.62, 318.95 36.1 M196 183.63 C224.58 150.71, 248.43 120.23, 318.69 42.5 M196 183.63 C236.59 136.41, 277.91 90.78, 318.69 42.5 M201.65 183.24 C236.53 140.32, 274.4 101, 319.08 48.14 M201.65 183.24 C237.52 141.99, 273.78 101.32, 319.08 48.14 M206.63 183.6 C231.84 150.86, 258.09 121.51, 318.82 54.54 M206.63 183.6 C241.43 142.76, 279.85 100.09, 318.82 54.54 M212.28 183.2 C239.74 148.39, 271.89 113.13, 319.21 60.19 M212.28 183.2 C243.97 144.52, 277.12 106.07, 319.21 60.19 M217.26 183.56 C251.48 145.09, 285.27 106.37, 318.95 66.58 M217.26 183.56 C240.47 155.58, 263.08 129.87, 318.95 66.58 M222.91 183.17 C259.14 140.82, 298.26 98.17, 319.35 72.23 M222.91 183.17 C258.28 141.91, 294.42 98.79, 319.35 72.23 M227.89 183.53 C257.73 147.86, 289.94 112.87, 319.09 78.62 M227.89 183.53 C249.6 158.05, 272.13 132.13, 319.09 78.62 M233.54 183.13 C252.16 159.48, 271.6 137.33, 319.48 84.27 M233.54 183.13 C266.5 144.3, 300.35 105.45, 319.48 84.27 M238.52 183.49 C263.55 154.54, 287.65 127.08, 319.22 90.67 M238.52 183.49 C263.72 155.69, 287.18 127.36, 319.22 90.67 M244.17 183.1 C273.27 150.91, 304.13 114.41, 319.61 96.31 M244.17 183.1 C265.05 160.83, 284.21 137.97, 319.61 96.31 M249.15 183.46 C272.02 155.07, 298.32 127.38, 319.35 102.71 M249.15 183.46 C265.44 164.81, 282.09 145.33, 319.35 102.71 M254.8 183.07 C275.94 157.78, 300.82 129.4, 319.75 108.35 M254.8 183.07 C274.11 160.58, 294.84 137.8, 319.75 108.35 M259.78 183.43 C274.52 166.19, 286.38 150.63, 319.48 114.75 M259.78 183.43 C282.52 156.61, 304.4 132.58, 319.48 114.75 M265.43 183.03 C282.8 162.3, 302.92 137.56, 319.22 121.14 M265.43 183.03 C277.4 169.72, 290.29 156.62, 319.22 121.14 M270.41 183.39 C284.67 166.91, 298.71 149.32, 319.62 126.79 M270.41 183.39 C288.96 162.9, 306.65 142.69, 319.62 126.79 M275.4 183.75 C293.81 163.47, 310.52 144.47, 319.36 133.19 M275.4 183.75 C290.38 166.65, 306.53 148.32, 319.36 133.19 M281.7 182.6 C295.91 163.89, 310.29 149.1, 320.41 138.07 M281.7 182.6 C296.38 164.54, 310.47 147.67, 320.41 138.07 M288 181.45 C300.62 170.02, 309.67 155.75, 318.18 146.74 M288 181.45 C294.72 172.75, 300.8 164.89, 318.18 146.74 M294.3 180.3 C303.4 171.09, 309.22 162.64, 314.64 156.91 M294.3 180.3 C300.01 172.95, 305.04 166.74, 314.64 156.91" stroke="#fd7e1455" stroke-width="0.5" fill="none"></path><path d="M45.25 0 M45.25 0 C119.55 -2.1, 196.48 0.51, 272.75 0 M45.25 0 C92 0.54, 139.43 0.24, 272.75 0 M272.75 0 C304.51 0.12, 317.06 16.07, 318 45.25 M272.75 0 C300.87 -0.43, 316.51 13.75, 318 45.25 M318 45.25 C318.28 68.22, 319.51 94.08, 318 135.75 M318 45.25 C317.26 74.32, 318.41 101.85, 318 135.75 M318 135.75 C317.05 166.96, 302.88 181.24, 272.75 181 M318 135.75 C319.54 165.51, 303.38 182.1, 272.75 181 M272.75 181 C209.79 183.66, 144.83 183.32, 45.25 181 M272.75 181 C189.93 180.09, 105.42 179.82, 45.25 181 M45.25 181 C13.12 181.01, 1.39 164.09, 0 135.75 M45.25 181 C12.81 180.78, -2.21 166.02, 0 135.75 M0 135.75 C-1.66 114.46, -1.35 90.66, 0 45.25 M0 135.75 C0.01 100.86, -0.36 68.52, 0 45.25 M0 45.25 C-0.42 16.04, 15.31 -0.14, 45.25 0 M0 45.25 C-2.18 14.08, 14.69 -2.2, 45.25 0" stroke="#d9480f" stroke-width="1" fill="none"></path></g><g transform="translate(690 354.6428571428571) rotate(0 29 10)"><text x="29" y="14" font-family="Virgil, Segoe UI Emoji" font-size="16px" fill="#d9480f" text-anchor="middle" style="white-space: pre;" direction="ltr">Remote</text></g><g stroke-opacity="0.2" fill-opacity="0.2" transform="translate(723.5753968253971 10.59126984126965) rotate(0 64.5 12.5)"><text x="64.5" y="18" font-family="Virgil, Segoe UI Emoji" font-size="20px" fill="#e67700" text-anchor="middle" style="white-space: pre;" direction="ltr">@hemashushu</text></g><g stroke-linecap="round" transform="translate(187.57539682539704 481.09126984126965) rotate(0 89.5 25)"><path d="M-1.48 -0.64 L179.42 1.98 L179.33 48.82 L-1.54 49.29" stroke="none" stroke-width="0" fill="#228be622"></path><path d="M-0.79 -0.71 C55.24 0.31, 107.36 -0.43, 177.2 1.99 M-0.46 -0.68 C52.56 -0.66, 104.6 -2.04, 179.45 -0.7 M180.2 1.02 C178.8 16.34, 176.85 28.81, 180.71 51.35 M179.15 0.65 C178.53 15.83, 179.52 31.77, 179.58 50.64 M179.44 50.43 C110.44 48.97, 39.22 47.65, 0.91 50.21 M179.2 50.81 C124.32 48.55, 70.4 49.04, -0.08 50.44 M0.89 49.95 C-0.32 37.42, 1.43 28.8, -0.3 0.12 M-0.69 50.36 C-1.06 34.08, -0.42 18.92, -0.93 -0.48" stroke="#1864ab" stroke-width="1" fill="none"></path></g><g transform="translate(232.07539682539704 496.09126984126965) rotate(0 45 10)"><text x="45" y="14" font-family="Virgil, Segoe UI Emoji" font-size="16px" fill="#1864ab" text-anchor="middle" style="white-space: pre;" direction="ltr">GDB Client</text></g><g stroke-linecap="round" transform="translate(545.5753968253971 479.59126984126965) rotate(0 73.5 21.5)"><path d="M1.07 -1.51 L146.43 0.34 L148.83 44.28 L1.85 43.74" stroke="none" stroke-width="0" fill="#228be622"></path><path d="M0.19 1.33 C34.73 0.2, 67.91 -0.31, 146.08 0.49 M-0.81 0.53 C50.6 -1.02, 99.9 -1.07, 147.18 0.33 M146.73 -1.26 C147.05 15.72, 147.46 33.77, 147.77 43.52 M146.63 -0.65 C146.5 11.16, 147.73 21.38, 147.27 42.63 M146.21 44.99 C98.88 46, 51.84 43.07, -1.61 43.31 M147.36 43.08 C105.05 42.75, 61.67 42.51, -0.87 43.32 M-0.06 42.23 C-0.52 35.54, 0.2 23.01, 1.14 0.96 M-0.93 43.35 C-0.22 32.89, -0.14 20.85, -0.53 0.1" stroke="#1864ab" stroke-width="1" fill="none"></path></g><g transform="translate(571.0753968253971 491.09126984126965) rotate(0 48 10)"><text x="48" y="14" font-family="Virgil, Segoe UI Emoji" font-size="16px" fill="#1864ab" text-anchor="middle" style="white-space: pre;" direction="ltr">GDB Server</text></g><g stroke-linecap="round"><g transform="translate(370.3280601733157 507.5824208645256) rotate(0 81.56352341954965 0.2431537185912589)"><path d="M-0.74 0.96 C26.54 1.31, 136.59 1.1, 163.86 0.89 M1.08 0.42 C28.21 0.56, 136.35 -0.75, 163.15 -0.65" stroke="#495057" stroke-width="1" fill="none"></path></g><g transform="translate(370.3280601733157 507.5824208645256) rotate(0 81.56352341954965 0.2431537185912589)"><path d="M136.61 10.49 C145.92 5.77, 152.91 1.6, 164.25 0.8 M135.88 10.08 C146.4 5.01, 156.73 2.73, 163.11 -0.69" stroke="#495057" stroke-width="1" fill="none"></path></g><g transform="translate(370.3280601733157 507.5824208645256) rotate(0 81.56352341954965 0.2431537185912589)"><path d="M136.5 -10.03 C145.65 -8.22, 152.67 -5.85, 164.25 0.8 M135.78 -10.44 C146.19 -7.67, 156.55 -2.11, 163.11 -0.69" stroke="#495057" stroke-width="1" fill="none"></path></g></g><g transform="translate(387.32539682539704 478.84126984126965) rotate(0 56.5 10)"><text x="56.5" y="14" font-family="Virgil, Segoe UI Emoji" font-size="16px" fill="#495057" text-anchor="middle" style="white-space: pre;" direction="ltr">localhost:1234</text></g><g stroke-linecap="round" transform="translate(521.5753968253971 439.09126984126965) rotate(0 193 62.5)"><path d="M7.66 7.99 C7.66 7.99, 7.66 7.99, 7.66 7.99 M7.66 7.99 C7.66 7.99, 7.66 7.99, 7.66 7.99 M3.46 18.91 C8.55 14.31, 11.65 6.84, 17.9 2.31 M3.46 18.91 C8.13 13.19, 12.54 9.45, 17.9 2.31 M2.55 26.06 C8.48 20.37, 12.11 15.14, 24.2 1.16 M2.55 26.06 C8.53 18.86, 14.24 13.98, 24.2 1.16 M2.94 31.71 C10.98 23.75, 20.52 14.8, 29.84 0.76 M2.94 31.71 C8.79 24.03, 14.84 18.53, 29.84 0.76 M2.68 38.1 C9.68 26.73, 19.9 16.65, 34.17 1.88 M2.68 38.1 C12.87 26.56, 23.4 14.22, 34.17 1.88 M2.42 44.5 C9.88 33.97, 19.3 23.94, 39.16 2.24 M2.42 44.5 C15.1 30.78, 27.51 15.03, 39.16 2.24 M2.81 50.15 C12.98 35.81, 26.14 25.5, 44.14 2.6 M2.81 50.15 C15.94 34.06, 30.84 18.14, 44.14 2.6 M2.55 56.54 C19.64 38.51, 34.49 20.75, 49.79 2.2 M2.55 56.54 C19.03 38.25, 33.68 20.62, 49.79 2.2 M2.95 62.19 C16.42 47.7, 31.52 29.15, 54.77 2.56 M2.95 62.19 C21.28 39.64, 40.94 17.67, 54.77 2.56 M2.68 68.58 C15.93 52.22, 31.02 31.64, 60.42 2.17 M2.68 68.58 C24.93 42.85, 48.72 18.42, 60.42 2.17 M2.42 74.98 C25.57 50.41, 46.6 24.64, 65.4 2.53 M2.42 74.98 C19.43 54.64, 38.25 34.06, 65.4 2.53 M2.82 80.63 C22.85 60.07, 41.36 37.66, 71.05 2.14 M2.82 80.63 C30.02 49.99, 56.05 19.19, 71.05 2.14 M2.56 87.02 C23.15 63.56, 43.43 38.89, 76.04 2.5 M2.56 87.02 C28.45 57.03, 55.74 26.71, 76.04 2.5 M2.95 92.67 C29.04 62.41, 52.28 35.89, 81.68 2.1 M2.95 92.67 C32.85 60.57, 61.62 27.31, 81.68 2.1 M0.72 101.33 C33.01 67.1, 62.76 29.98, 86.67 2.46 M0.72 101.33 C22.46 75.98, 44.7 49.5, 86.67 2.46 M2.43 105.46 C32.94 66.93, 67.24 31.76, 92.31 2.07 M2.43 105.46 C21.41 83.66, 40.13 63.24, 92.31 2.07 M3.48 110.35 C33.19 77.33, 57.55 46.1, 97.3 2.43 M3.48 110.35 C31.15 76.72, 60.77 43.29, 97.3 2.43 M5.84 113.73 C25.67 90.79, 45.66 67.68, 102.94 2.03 M5.84 113.73 C41.07 74.06, 74.38 35.5, 102.94 2.03 M8.2 117.11 C35.71 85.97, 59.17 59.47, 107.93 2.39 M8.2 117.11 C45.7 69.76, 85.33 26.03, 107.93 2.39 M11.22 119.73 C41.79 82.35, 76.19 45.89, 113.57 2 M11.22 119.73 C45.23 81.51, 77.8 44.79, 113.57 2 M14.24 122.36 C33.76 98.89, 55.85 72.1, 118.56 2.36 M14.24 122.36 C38.5 94.2, 62.27 66.46, 118.56 2.36 M18.57 123.47 C54.84 81.01, 95.81 37.25, 124.2 1.96 M18.57 123.47 C56.95 78.25, 95 33.07, 124.2 1.96 M22.9 124.59 C44.94 98.46, 67.81 68.89, 129.19 2.32 M22.9 124.59 C59.36 82.94, 96.31 39.37, 129.19 2.32 M27.89 124.95 C58.34 91.22, 88.58 55.42, 134.83 1.93 M27.89 124.95 C53.57 94, 80.69 63.35, 134.83 1.93 M32.22 126.06 C70.06 85.13, 107.31 40.79, 139.82 2.29 M32.22 126.06 C60.31 93.98, 88.22 60.03, 139.82 2.29 M37.86 125.67 C68.53 93.61, 97.94 61.46, 145.46 1.89 M37.86 125.67 C59.3 101.01, 81.63 73.86, 145.46 1.89 M42.85 126.03 C77.46 84.03, 115.08 46.81, 150.45 2.25 M42.85 126.03 C79.93 84.24, 116.57 42.64, 150.45 2.25 M48.5 125.63 C82.13 86.46, 116.62 48.03, 155.43 2.61 M48.5 125.63 C72.31 96.18, 98.35 66.35, 155.43 2.61 M53.48 125.99 C82.41 92.32, 113.99 57.24, 161.08 2.22 M53.48 125.99 C84.02 90.2, 117.73 51.87, 161.08 2.22 M59.13 125.6 C88.87 89.26, 115.82 57.86, 166.06 2.58 M59.13 125.6 C101 77.18, 144.69 28.45, 166.06 2.58 M64.11 125.96 C92.12 93.91, 118.14 62.8, 171.71 2.19 M64.11 125.96 C98.37 87.11, 134.6 46.01, 171.71 2.19 M69.76 125.56 C94.19 95.48, 121.54 64.92, 176.69 2.55 M69.76 125.56 C101.92 88.17, 132.56 52.32, 176.69 2.55 M74.74 125.92 C100.74 98.08, 128.17 68.96, 182.34 2.15 M74.74 125.92 C115.47 79.24, 155.3 32.95, 182.34 2.15 M79.73 126.28 C120.23 81.21, 159.18 38.31, 187.32 2.51 M79.73 126.28 C102.42 100.07, 125.87 74.24, 187.32 2.51 M85.37 125.89 C123.42 81.28, 162.88 32.91, 192.97 2.12 M85.37 125.89 C110.95 97.17, 135.56 67.51, 192.97 2.12 M90.36 126.25 C113.06 101.05, 135.49 73.39, 197.95 2.48 M90.36 126.25 C128.74 79.43, 168.39 34.68, 197.95 2.48 M96 125.85 C128.14 87.47, 162.47 50.23, 203.6 2.08 M96 125.85 C127.11 91.46, 158.35 56.03, 203.6 2.08 M100.99 126.21 C142.73 78.7, 183.6 31.3, 208.58 2.44 M100.99 126.21 C131.2 91.74, 161.13 56.91, 208.58 2.44 M106.63 125.82 C135.9 91.76, 164.3 58.74, 214.23 2.05 M106.63 125.82 C141.39 84.23, 177.25 42.54, 214.23 2.05 M111.62 126.18 C149.13 81.35, 187.54 38.33, 219.21 2.41 M111.62 126.18 C151.89 79.44, 191.6 31.86, 219.21 2.41 M117.26 125.79 C141.08 99.77, 161.23 76.88, 224.86 2.01 M117.26 125.79 C159.36 79.19, 199.47 33.75, 224.86 2.01 M122.25 126.15 C146.16 98.94, 168.36 74.27, 229.84 2.37 M122.25 126.15 C162.47 78.39, 203.5 30.32, 229.84 2.37 M127.89 125.75 C151.1 100.51, 172.28 75.05, 235.49 1.98 M127.89 125.75 C151.82 96.27, 175.95 67.16, 235.49 1.98 M132.88 126.11 C166.18 88.81, 197.39 50.46, 240.47 2.34 M132.88 126.11 C171.26 82.69, 209.5 38.05, 240.47 2.34 M138.52 125.72 C173.22 86.29, 203.92 48.31, 246.12 1.94 M138.52 125.72 C174.16 85.37, 208.78 45.82, 246.12 1.94 M143.51 126.08 C184.39 74.95, 230.66 28.2, 251.1 2.3 M143.51 126.08 C171.23 94.48, 198.19 63.05, 251.1 2.3 M149.15 125.68 C177.65 88.18, 211.67 52.59, 256.75 1.91 M149.15 125.68 C181.45 88.67, 213.69 51.94, 256.75 1.91 M154.14 126.04 C186.99 87.63, 221.53 47.99, 261.73 2.27 M154.14 126.04 C189.11 85.07, 224.19 43.22, 261.73 2.27 M159.78 125.65 C186.86 95.81, 213.78 62.42, 266.72 2.63 M159.78 125.65 C200.68 78.77, 242.61 30, 266.72 2.63 M164.77 126.01 C198.64 86.19, 235.26 46.89, 272.36 2.23 M164.77 126.01 C205.61 81.18, 244.31 35.59, 272.36 2.23 M170.41 125.61 C198.37 93.54, 223.68 63.8, 277.35 2.59 M170.41 125.61 C198.77 93, 225.72 62.34, 277.35 2.59 M175.4 125.97 C206.42 87.62, 242.85 50.07, 282.99 2.2 M175.4 125.97 C202.23 95, 228.92 66.09, 282.99 2.2 M181.04 125.58 C214.91 90.46, 247.08 49.45, 287.98 2.56 M181.04 125.58 C218.85 81.14, 256.39 37.83, 287.98 2.56 M186.03 125.94 C213.77 95.44, 238.04 70.22, 293.62 2.17 M186.03 125.94 C223.13 82.95, 260.85 38.88, 293.62 2.17 M191.02 126.3 C224.67 83.5, 259.22 44.75, 298.61 2.53 M191.02 126.3 C231.81 81.24, 270.64 35.37, 298.61 2.53 M196.66 125.9 C223.71 90.72, 254.04 61.78, 304.25 2.13 M196.66 125.9 C240 75.48, 283.17 26.59, 304.25 2.13 M201.65 126.26 C245.87 77.39, 289.8 28.26, 309.24 2.49 M201.65 126.26 C240.37 80.65, 280.39 36.63, 309.24 2.49 M207.29 125.87 C228.59 100.75, 252.69 71.93, 314.88 2.1 M207.29 125.87 C248.83 76.19, 289.53 29.75, 314.88 2.1 M212.28 126.23 C250.92 82.42, 285.46 41.46, 319.87 2.46 M212.28 126.23 C239.05 96.61, 264.58 66.87, 319.87 2.46 M217.92 125.83 C255.72 80.99, 296.25 35.42, 325.51 2.06 M217.92 125.83 C245.15 94.73, 270.35 65.14, 325.51 2.06 M222.91 126.19 C257.12 87.02, 288.14 48.09, 330.5 2.42 M222.91 126.19 C258.05 88.09, 290.69 49.71, 330.5 2.42 M228.55 125.8 C251.86 101.09, 274.7 73.22, 336.14 2.03 M228.55 125.8 C251.23 99.17, 273.11 74.64, 336.14 2.03 M233.54 126.16 C278.22 77.36, 319.88 26.92, 341.13 2.39 M233.54 126.16 C261.2 92.57, 289.25 61.34, 341.13 2.39 M239.18 125.77 C269.23 88.6, 301.43 53.39, 346.77 1.99 M239.18 125.77 C260.99 101.14, 282.65 76.69, 346.77 1.99 M244.17 126.13 C271.83 92.36, 299.13 60.39, 351.76 2.35 M244.17 126.13 C268.43 97.46, 291.96 68.25, 351.76 2.35 M249.81 125.73 C272.4 99.85, 297.01 73.53, 357.4 1.96 M249.81 125.73 C280.46 89.1, 312.67 54.03, 357.4 1.96 M254.8 126.09 C282.87 92.62, 313.19 63.1, 361.74 3.07 M254.8 126.09 C290.68 84.62, 325.29 43.46, 361.74 3.07 M260.44 125.7 C297.07 80.53, 337.03 35.1, 366.72 3.43 M260.44 125.7 C283.57 101.43, 306.26 74.58, 366.72 3.43 M265.43 126.06 C299.85 85.36, 333.53 47.09, 371.05 4.55 M265.43 126.06 C300.23 86.47, 334.29 47.59, 371.05 4.55 M271.07 125.66 C296.6 97.63, 322.53 68.46, 374.73 6.42 M271.07 125.66 C297.49 95.7, 323.66 65.31, 374.73 6.42 M276.06 126.02 C310.34 88.18, 342.17 48.31, 378.4 8.29 M276.06 126.02 C309.18 86.87, 342.35 47.65, 378.4 8.29 M281.7 125.63 C316.95 89.15, 351.16 50.48, 380.77 11.67 M281.7 125.63 C321.15 82.03, 359.61 37.77, 380.77 11.67 M286.69 125.99 C309.34 98.32, 334.53 69.95, 383.13 15.05 M286.69 125.99 C318.25 89.53, 348.41 54.6, 383.13 15.05 M292.33 125.59 C312.08 103.42, 332.11 79.57, 385.49 18.42 M292.33 125.59 C319.66 94.71, 346.86 62.06, 385.49 18.42 M297.32 125.95 C319.22 101.58, 341.2 77.94, 385.89 24.07 M297.32 125.95 C319.75 100.47, 342.3 74.07, 385.89 24.07 M302.31 126.31 C320.67 102.21, 340.05 82.41, 385.62 30.47 M302.31 126.31 C332.83 89.43, 363.97 54.21, 385.62 30.47 M307.95 125.92 C335.84 92.03, 366.34 55.81, 386.02 36.11 M307.95 125.92 C331.66 98.45, 356.09 69.16, 386.02 36.11 M312.94 126.28 C331.33 107.07, 348.16 84.89, 385.76 42.51 M312.94 126.28 C336.39 98.47, 361.66 70.08, 385.76 42.51 M318.58 125.88 C339.32 101.19, 362.11 78.02, 386.15 48.15 M318.58 125.88 C337.47 103.56, 357.61 81.03, 386.15 48.15 M323.57 126.24 C344.49 105.57, 364.43 80.78, 385.89 54.55 M323.57 126.24 C347.74 98.89, 372.17 72.02, 385.89 54.55 M329.21 125.85 C350.39 99, 372.68 77.37, 386.29 60.19 M329.21 125.85 C350.27 103.16, 370.84 78.81, 386.29 60.19 M334.2 126.21 C349.66 107.27, 368.62 84.87, 386.02 66.59 M334.2 126.21 C348.11 112.04, 359.96 97.52, 386.02 66.59 M339.84 125.82 C355.55 111.9, 368.01 94.11, 386.42 72.23 M339.84 125.82 C355.92 106.38, 371.16 88.7, 386.42 72.23 M344.83 126.18 C355.14 112.94, 366.75 98.85, 386.16 78.63 M344.83 126.18 C359.64 108.51, 374.29 91.22, 386.16 78.63 M350.47 125.78 C363.17 114.48, 373.6 102.12, 385.9 85.03 M350.47 125.78 C359.17 115.28, 367.5 106.86, 385.9 85.03 M355.46 126.14 C366.66 114.22, 377.78 102.3, 386.29 90.67 M355.46 126.14 C363.77 116.93, 371.05 107.33, 386.29 90.67 M361.75 124.99 C372.74 112.07, 379.94 102.68, 387.34 95.56 M361.75 124.99 C368.16 116.56, 376.64 108.79, 387.34 95.56 M368.71 123.09 C372.67 117.11, 381.27 109.8, 386.42 102.71 M368.71 123.09 C372.03 117.75, 376.32 114.87, 386.42 102.71" stroke="#fd7e1455" stroke-width="0.5" fill="none"></path><path d="M31.25 0 M31.25 0 C119.16 0.95, 210.26 0.24, 354.75 0 M31.25 0 C129.15 1.35, 227.9 1.37, 354.75 0 M354.75 0 C375.85 -1.22, 384.39 11.8, 386 31.25 M354.75 0 C377.1 0.2, 386.54 12.18, 386 31.25 M386 31.25 C385.27 55.55, 383.77 78.13, 386 93.75 M386 31.25 C386.15 55.53, 386.08 81.34, 386 93.75 M386 93.75 C385.43 115.4, 374.65 123.02, 354.75 125 M386 93.75 C384.32 113.11, 373.97 125.5, 354.75 125 M354.75 125 C248.16 125.72, 142.42 126.02, 31.25 125 M354.75 125 C242.97 122.59, 130.19 122.76, 31.25 125 M31.25 125 C10.24 125.81, 1.06 115.14, 0 93.75 M31.25 125 C10.94 123.45, -0.67 112.72, 0 93.75 M0 93.75 C0.17 79.46, 1.01 67.41, 0 31.25 M0 93.75 C0.87 75.77, 0.82 58.48, 0 31.25 M0 31.25 C-0.83 8.55, 10.11 -0.29, 31.25 0 M0 31.25 C1.24 9.16, 11.34 -0.69, 31.25 0" stroke="#d9480f" stroke-width="1" fill="none"></path></g><g transform="translate(690.5753968253971 539.0912698412696) rotate(0 24 10)"><text x="24" y="14" font-family="Virgil, Segoe UI Emoji" font-size="16px" fill="#d9480f" text-anchor="middle" style="white-space: pre;" direction="ltr">QEMU</text></g><g stroke-linecap="round" transform="translate(614.5753968253971 225.59126984126965) rotate(0 101.5 56.5)"><path d="M6.86 7.29 C6.86 7.29, 6.86 7.29, 6.86 7.29 M6.86 7.29 C6.86 7.29, 6.86 7.29, 6.86 7.29 M3.32 17.46 C9.83 13.56, 12.55 8.61, 16.44 2.37 M3.32 17.46 C6.63 15.03, 8.12 12.27, 16.44 2.37 M3.06 23.86 C11.13 17.76, 17.79 9.57, 22.74 1.22 M3.06 23.86 C9.26 17.51, 14.15 11.21, 22.74 1.22 M2.8 30.26 C7.65 23.26, 16.16 18.01, 29.04 0.07 M2.8 30.26 C9.09 21.14, 16.29 14.27, 29.04 0.07 M3.19 35.9 C14.32 23.45, 29.32 7.76, 34.03 0.43 M3.19 35.9 C13.04 24.16, 25.18 12.57, 34.03 0.43 M2.93 42.3 C15.87 27.52, 28.17 14.65, 39.02 0.79 M2.93 42.3 C15.29 28.06, 27.18 13.99, 39.02 0.79 M3.33 47.94 C13.93 38.28, 20.13 28.13, 44.66 0.4 M3.33 47.94 C14.04 35.24, 23.55 23.27, 44.66 0.4 M3.07 54.34 C17 40.63, 31.24 24.74, 49.65 0.76 M3.07 54.34 C16.2 38.27, 30.99 22.06, 49.65 0.76 M2.8 60.74 C19.64 41.07, 38.63 22.41, 55.29 0.36 M2.8 60.74 C19.94 42.45, 36.13 23.04, 55.29 0.36 M3.2 66.38 C17.76 46.21, 36.5 28.82, 60.28 0.72 M3.2 66.38 C22.79 43.5, 40.83 21.65, 60.28 0.72 M2.94 72.78 C25 50.57, 45.18 27.26, 65.92 0.33 M2.94 72.78 C28.41 44.77, 52.93 15.8, 65.92 0.33 M3.33 78.42 C19.32 63.26, 33.22 45.29, 70.91 0.69 M3.33 78.42 C28.18 48.84, 53.87 19.07, 70.91 0.69 M3.07 84.82 C18.52 68.64, 30.96 49.15, 76.55 0.29 M3.07 84.82 C30.7 53.87, 56.6 21.71, 76.55 0.29 M1.5 92.73 C18.79 74.54, 34.58 54.21, 81.54 0.65 M1.5 92.73 C19.85 69.52, 40.16 47.81, 81.54 0.65 M3.2 96.86 C24.85 68.96, 48.49 45.04, 87.18 0.26 M3.2 96.86 C33.2 63.01, 62.67 28.87, 87.18 0.26 M4.25 101.75 C22.18 83.1, 37.65 62.63, 92.17 0.62 M4.25 101.75 C25.25 77.81, 46.16 54.62, 92.17 0.62 M6.62 105.13 C40.68 66.91, 76.74 23.93, 97.81 0.22 M6.62 105.13 C30.46 78.42, 53.04 54.3, 97.81 0.22 M9.64 107.75 C28.7 84.11, 46.67 63.1, 102.8 0.58 M9.64 107.75 C29.09 83.71, 49.88 60.63, 102.8 0.58 M12.65 110.38 C44.9 77.13, 72.52 40.01, 108.44 0.19 M12.65 110.38 C48.45 69.77, 83.07 30.66, 108.44 0.19 M16.99 111.49 C42.84 85.66, 64.67 55.13, 113.43 0.55 M16.99 111.49 C47.69 75.42, 79.07 41.25, 113.43 0.55 M20.66 113.36 C44.54 87.06, 61.84 62.54, 119.07 0.15 M20.66 113.36 C42.92 86.93, 65.35 60.32, 119.07 0.15 M24.34 115.23 C46.36 90.67, 66.73 68.49, 124.06 0.51 M24.34 115.23 C44.21 91.73, 64.64 67.2, 124.06 0.51 M29.98 114.84 C65.98 73.58, 100.37 33.44, 129.7 0.12 M29.98 114.84 C68.81 70.13, 106.81 26.45, 129.7 0.12 M35.62 114.44 C57.13 89.33, 76.05 68.96, 134.69 0.48 M35.62 114.44 C58 88.25, 81.83 61.75, 134.69 0.48 M40.61 114.8 C74.06 74.94, 110.56 37.6, 140.33 0.09 M40.61 114.8 C77.5 73.35, 114.83 30.53, 140.33 0.09 M46.25 114.41 C67.35 92.69, 86.53 68.82, 145.32 0.45 M46.25 114.41 C73.38 82.04, 102.14 51.22, 145.32 0.45 M51.24 114.77 C86.76 77.36, 119.77 35.97, 150.96 0.05 M51.24 114.77 C84.69 75.47, 118.66 36.31, 150.96 0.05 M56.88 114.37 C78.82 87.87, 98.5 67.18, 155.95 0.41 M56.88 114.37 C89.77 76.2, 120.64 40.1, 155.95 0.41 M61.87 114.73 C86.29 88.2, 107.29 62.94, 160.93 0.77 M61.87 114.73 C87.29 85.24, 114.27 54.79, 160.93 0.77 M67.51 114.34 C93.18 85.38, 118.31 55.72, 166.58 0.38 M67.51 114.34 C92.6 83.8, 120.54 54, 166.58 0.38 M72.5 114.7 C98.5 83.69, 128.47 52.14, 171.56 0.74 M72.5 114.7 C101.8 81.84, 131.59 49.83, 171.56 0.74 M78.14 114.3 C98.25 89.47, 120.57 68.2, 176.55 1.1 M78.14 114.3 C108.94 79.85, 140.16 46.48, 176.55 1.1 M83.13 114.66 C103.42 87.88, 128.37 64.5, 180.88 2.21 M83.13 114.66 C104.44 89.1, 125.63 62.59, 180.88 2.21 M88.77 114.27 C107.89 90.24, 131.86 66.68, 185.87 2.57 M88.77 114.27 C123.33 73.44, 157.59 35.12, 185.87 2.57 M93.76 114.63 C115.55 89.61, 134.96 68.11, 189.54 4.44 M93.76 114.63 C118.18 86.48, 142.27 57.47, 189.54 4.44 M98.75 114.99 C119.8 90.15, 144.83 65.74, 193.87 5.56 M98.75 114.99 C121.12 88.84, 142.44 63.29, 193.87 5.56 M104.39 114.59 C132.55 83.91, 158.61 51.03, 196.89 8.18 M104.39 114.59 C140.21 75.18, 174.82 34.44, 196.89 8.18 M109.38 114.95 C130.58 90.83, 156.29 61.36, 199.26 11.56 M109.38 114.95 C132.73 87.58, 156.66 59.07, 199.26 11.56 M115.02 114.56 C137.5 88.25, 160.66 65.89, 200.96 15.69 M115.02 114.56 C131.97 94.21, 150.56 74.84, 200.96 15.69 M120.01 114.92 C149.39 83.35, 173.68 52.27, 202.67 19.83 M120.01 114.92 C144.73 86.1, 170.73 58.05, 202.67 19.83 M125.65 114.52 C145.75 90.47, 166.05 67.33, 205.03 23.21 M125.65 114.52 C151.8 83.31, 180.6 51.99, 205.03 23.21 M130.64 114.89 C156.42 82.76, 183.97 54.75, 204.77 29.6 M130.64 114.89 C151.5 89.74, 171.71 66.22, 204.77 29.6 M136.28 114.49 C161.16 86.77, 183.9 56.28, 204.51 36 M136.28 114.49 C152.02 96.48, 170.11 77.18, 204.51 36 M141.27 114.85 C156.59 97.57, 171.25 81.13, 204.9 41.64 M141.27 114.85 C158.89 95.79, 175.86 76.45, 204.9 41.64 M146.91 114.46 C169.06 88.95, 190.75 61.68, 204.64 48.04 M146.91 114.46 C165.49 91.05, 185.35 69.89, 204.64 48.04 M151.9 114.82 C170.29 94.47, 188.98 71.89, 205.04 53.68 M151.9 114.82 C163.46 101.31, 176.83 87.65, 205.04 53.68 M157.54 114.42 C172.57 96.56, 187.61 79.65, 204.78 60.08 M157.54 114.42 C168.93 101.21, 180.15 87.4, 204.78 60.08 M162.53 114.78 C173.08 102.4, 187.34 87.46, 205.17 65.73 M162.53 114.78 C173.52 102.31, 184.49 90.43, 205.17 65.73 M168.17 114.39 C178.34 102.53, 183.97 93.72, 204.91 72.12 M168.17 114.39 C178.11 102.76, 187.79 92.55, 204.91 72.12 M173.16 114.75 C183.34 102.92, 194.46 92.16, 205.3 77.77 M173.16 114.75 C182.42 103.33, 192.55 94, 205.3 77.77 M177.49 115.86 C186.55 105, 196.24 91.27, 203.73 85.67 M177.49 115.86 C183.53 107.61, 190.24 101.49, 203.73 85.67 M183.79 114.71 C188.34 105.99, 194.57 98.38, 203.47 92.07 M183.79 114.71 C189.87 108.03, 194.19 101.92, 203.47 92.07" stroke="#82c91e55" stroke-width="0.5" fill="none"></path><path d="M28.25 0 M28.25 0 C79.75 0.01, 131.09 -2.33, 174.75 0 M28.25 0 C64.43 -1.26, 103.24 -1.24, 174.75 0 M174.75 0 C192.12 -0.63, 201.31 10.34, 203 28.25 M174.75 0 C194.24 0.76, 204.7 11.7, 203 28.25 M203 28.25 C201.27 45.59, 201.88 62.3, 203 84.75 M203 28.25 C203.43 43.12, 204.02 58.57, 203 84.75 M203 84.75 C202.18 101.97, 191.58 114.9, 174.75 113 M203 84.75 C205.22 101.93, 195.83 114.66, 174.75 113 M174.75 113 C145.72 112.63, 116.27 115.4, 28.25 113 M174.75 113 C135.24 112.94, 98.36 112.13, 28.25 113 M28.25 113 C7.75 111.71, -1.84 101.59, 0 84.75 M28.25 113 C11.13 113.56, 1.71 102.97, 0 84.75 M0 84.75 C-1.13 71.03, -1.37 59.75, 0 28.25 M0 84.75 C0.05 63.55, -0.39 44.64, 0 28.25 M0 28.25 C1.68 10.42, 8.97 -0.24, 28.25 0 M0 28.25 C0.25 9.02, 7.57 1.01, 28.25 0" stroke="#5c940d" stroke-width="1" fill="none"></path></g><g transform="translate(668.0753968253971 313.59126984126965) rotate(0 48 10)"><text x="48" y="14" font-family="Virgil, Segoe UI Emoji" font-size="16px" fill="#5c940d" text-anchor="middle" style="white-space: pre;" direction="ltr">GDB Server</text></g><g stroke-linecap="round" transform="translate(186.92857142857173 44.499999999999886) rotate(0 74 25)"><path d="M-0.41 1.68 L148.38 -1.48 L146.87 50.97 L0.47 49.23" stroke="none" stroke-width="0" fill="#228be622"></path><path d="M1.72 -0.82 C55.28 -0.44, 113.23 -1.53, 146.96 0.99 M-0.85 -0.83 C36.9 0.61, 73.75 1.69, 148.22 -0.35 M149.17 1.54 C148.36 17.12, 149.18 36.01, 146.2 50.09 M147.68 -0.63 C147.47 15.17, 148.36 28.97, 147.47 49.33 M149.23 49.05 C92.95 49.21, 35.98 51.77, 0.78 48.66 M148 50.19 C95.3 50.14, 44.45 51.34, 0.8 49.76 M1.64 51.57 C1.18 36.95, -1.27 21.22, -0.39 -1.81 M0.29 49.74 C0.53 36.17, -0.82 22.99, 0.78 -0.29" stroke="#1864ab" stroke-width="1" fill="none"></path></g><g transform="translate(201.92857142857173 59.499999999999886) rotate(0 59 10)"><text x="59" y="14" font-family="Virgil, Segoe UI Emoji" font-size="16px" fill="#1864ab" text-anchor="middle" style="white-space: pre;" direction="ltr">GDB interface</text></g><g stroke-linecap="round" transform="translate(146.42857142857173 10) rotate(0 194 69.5)"><path d="M8.59 8.8 C8.59 8.8, 8.59 8.8, 8.59 8.8 M8.59 8.8 C8.59 8.8, 8.59 8.8, 8.59 8.8 M7.68 15.95 C12.77 12.34, 14.06 8.7, 19.49 2.36 M7.68 15.95 C12.19 11.66, 15.27 7.69, 19.49 2.36 M2.17 28.38 C11.38 19.61, 22.65 6.54, 25.78 1.21 M2.17 28.38 C7.93 21.95, 13.09 14.67, 25.78 1.21 M2.56 34.03 C14.76 20.3, 25.47 6.89, 31.43 0.82 M2.56 34.03 C10.57 24.28, 20.78 14.01, 31.43 0.82 M2.3 40.42 C11.69 28.75, 24.32 18.8, 36.41 1.18 M2.3 40.42 C12.51 30.62, 21.97 19.42, 36.41 1.18 M2.04 46.82 C16 29, 29.94 14.58, 41.4 1.54 M2.04 46.82 C17.28 29.87, 30.79 13.46, 41.4 1.54 M2.43 52.47 C21.14 33.53, 34.85 12.61, 47.04 1.14 M2.43 52.47 C18.23 35.29, 33.92 15.96, 47.04 1.14 M2.17 58.86 C15.84 42.88, 30.76 25.22, 52.03 1.5 M2.17 58.86 C15.35 44.13, 27.89 28.73, 52.03 1.5 M2.57 64.51 C14.35 50.19, 29.22 35.83, 57.67 1.11 M2.57 64.51 C23.55 40.4, 43.07 16.78, 57.67 1.11 M2.3 70.9 C21.27 51.36, 38.92 29.1, 62.66 1.47 M2.3 70.9 C22.06 47.53, 43.13 25.26, 62.66 1.47 M2.04 77.3 C27.7 50.5, 49.48 19.98, 68.3 1.08 M2.04 77.3 C17.92 60.83, 32.63 41.82, 68.3 1.08 M2.44 82.94 C18.67 64.51, 36.85 42.61, 73.29 1.44 M2.44 82.94 C16.83 66.41, 30.41 49.47, 73.29 1.44 M2.18 89.34 C17.33 72.08, 33.26 52.04, 78.93 1.04 M2.18 89.34 C25.22 62.87, 50.23 35.08, 78.93 1.04 M2.57 94.99 C22.85 70.09, 42.01 47.33, 83.92 1.4 M2.57 94.99 C27.33 66.62, 52.86 36.47, 83.92 1.4 M2.31 101.38 C29.39 68.76, 59.16 37.25, 89.56 1.01 M2.31 101.38 C34.32 66.73, 65.75 29.23, 89.56 1.01 M2.05 107.78 C24.02 83.91, 44.25 61.9, 94.55 1.37 M2.05 107.78 C35.3 71.33, 68.09 31.89, 94.55 1.37 M2.44 113.42 C32.1 78.64, 57.03 45.65, 100.2 0.97 M2.44 113.42 C26.34 84.61, 53.12 54.73, 100.2 0.97 M2.18 119.82 C30.82 88.09, 59.22 57.21, 105.18 1.33 M2.18 119.82 C28.22 87.54, 57.29 55.66, 105.18 1.33 M4.54 123.2 C37.53 85.16, 69.86 45.44, 110.17 1.69 M4.54 123.2 C31.17 92.65, 57.5 60.79, 110.17 1.69 M6.91 126.58 C46.99 83.8, 82.11 41.45, 115.81 1.3 M6.91 126.58 C29.73 98.18, 54.99 70.97, 115.81 1.3 M8.61 130.71 C33.38 102.47, 59.94 71.86, 120.8 1.66 M8.61 130.71 C43.24 92.03, 76.97 52.36, 120.8 1.66 M12.29 132.58 C53.08 84.1, 95.67 35.83, 126.44 1.26 M12.29 132.58 C37.09 103.29, 63.41 73.55, 126.44 1.26 M15.96 134.45 C39.88 101.83, 68.29 74.14, 131.43 1.62 M15.96 134.45 C51.07 94.61, 87.32 52.84, 131.43 1.62 M18.98 137.08 C55.41 93, 93.28 51.84, 137.07 1.23 M18.98 137.08 C58.72 92.31, 96.22 47.81, 137.07 1.23 M22.66 138.95 C67.99 86.5, 114.22 34.96, 142.06 1.59 M22.66 138.95 C60.66 94.86, 99.85 49.71, 142.06 1.59 M26.99 140.06 C66.88 95.47, 106.16 50.83, 147.7 1.19 M26.99 140.06 C56.32 108.56, 84.34 76.53, 147.7 1.19 M31.97 140.42 C63.45 101.74, 96.67 63.39, 152.69 1.55 M31.97 140.42 C71.24 95.17, 111.31 47.42, 152.69 1.55 M36.96 140.78 C84.48 85.44, 129.65 34.4, 158.33 1.16 M36.96 140.78 C70.8 101.66, 104.44 64.9, 158.33 1.16 M41.95 141.14 C89.87 84.9, 136.28 32.14, 163.32 1.52 M41.95 141.14 C77.3 102.32, 111.1 62.3, 163.32 1.52 M47.59 140.75 C79.27 106.07, 108.18 69.83, 168.96 1.13 M47.59 140.75 C73.99 109.9, 101.02 77.78, 168.96 1.13 M52.58 141.11 C95.27 89.51, 140.61 35.85, 173.95 1.49 M52.58 141.11 C79.98 109.6, 106.72 79.24, 173.95 1.49 M58.22 140.71 C98.38 92.04, 138.03 49.05, 179.59 1.09 M58.22 140.71 C92.33 100.13, 129.2 60.63, 179.59 1.09 M63.21 141.07 C100.61 94.61, 137.93 53.57, 184.58 1.45 M63.21 141.07 C108.79 90.47, 152.36 38.37, 184.58 1.45 M68.85 140.68 C96.28 110.92, 120.65 81.48, 190.22 1.06 M68.85 140.68 C110.92 91.07, 151.99 44.14, 190.22 1.06 M73.84 141.04 C106.56 104.54, 135.05 68.51, 195.21 1.42 M73.84 141.04 C107.45 101.59, 141.16 62.35, 195.21 1.42 M79.48 140.64 C118.11 96.85, 156.4 56.12, 200.85 1.02 M79.48 140.64 C113.15 102.59, 146.63 65.45, 200.85 1.02 M84.47 141 C122.54 94.44, 162.78 49.41, 205.84 1.38 M84.47 141 C112.89 104.4, 144.39 70.23, 205.84 1.38 M90.11 140.61 C118.3 110.08, 144.97 76.46, 211.48 0.99 M90.11 140.61 C118.17 109.97, 144.31 78.53, 211.48 0.99 M95.1 140.97 C139.71 86.12, 184.43 34.26, 216.47 1.35 M95.1 140.97 C131.93 97.48, 168.7 55.39, 216.47 1.35 M100.74 140.57 C125.92 111.19, 152.5 83.43, 221.46 1.71 M100.74 140.57 C144 91.47, 188.79 41.95, 221.46 1.71 M105.73 140.93 C147.57 93.02, 188.89 43.41, 227.1 1.31 M105.73 140.93 C133.72 110.11, 160.59 79.11, 227.1 1.31 M111.37 140.54 C142.96 101.86, 177.31 67.19, 232.09 1.67 M111.37 140.54 C148.48 96.91, 187.5 54.05, 232.09 1.67 M116.36 140.9 C156.33 96.12, 193.08 51.48, 237.73 1.28 M116.36 140.9 C152.32 97.4, 190.13 54.06, 237.73 1.28 M122 140.51 C154 103.95, 186.86 67.09, 242.72 1.64 M122 140.51 C162.1 92.71, 204.46 46.3, 242.72 1.64 M126.99 140.87 C162.23 103.98, 190.91 67.32, 248.36 1.24 M126.99 140.87 C156.77 109.04, 185.27 76.53, 248.36 1.24 M131.98 141.23 C160.62 105.54, 189.2 73.21, 253.35 1.6 M131.98 141.23 C171.88 93.09, 214.19 46.41, 253.35 1.6 M137.62 140.83 C170.27 103.96, 200.34 69.29, 258.99 1.21 M137.62 140.83 C183.36 87.08, 230.15 34.76, 258.99 1.21 M142.61 141.19 C175.45 104.92, 206.15 67.11, 263.98 1.57 M142.61 141.19 C172.76 105.46, 204.32 71.54, 263.98 1.57 M148.25 140.8 C183.46 99.71, 220.34 54.74, 269.62 1.18 M148.25 140.8 C182.61 100.45, 217.82 58.85, 269.62 1.18 M153.24 141.16 C177.41 109.15, 205.12 79.08, 274.61 1.54 M153.24 141.16 C183.73 104.24, 215.42 66.41, 274.61 1.54 M158.88 140.76 C193.65 100.06, 229.73 60.81, 280.25 1.14 M158.88 140.76 C188.71 107.17, 217.9 75.61, 280.25 1.14 M163.87 141.12 C206.42 89.68, 250.1 36.92, 285.24 1.5 M163.87 141.12 C210.67 87.18, 258.38 32.6, 285.24 1.5 M169.51 140.73 C197.03 106.18, 226.93 71.73, 290.88 1.11 M169.51 140.73 C199.34 106.39, 227.03 72.17, 290.88 1.11 M174.5 141.09 C198.87 111.22, 223.56 82.02, 295.87 1.47 M174.5 141.09 C209.97 98.43, 245.99 57.3, 295.87 1.47 M180.14 140.69 C211.3 102.93, 247.15 62.14, 301.51 1.07 M180.14 140.69 C211.53 103.31, 244.94 67.01, 301.51 1.07 M185.13 141.05 C212.53 107.55, 245.86 73.95, 306.5 1.43 M185.13 141.05 C219.55 100.3, 253.32 61.35, 306.5 1.43 M190.77 140.66 C216.73 108.95, 242.9 79.03, 312.14 1.04 M190.77 140.66 C239.55 86.42, 286.73 31.26, 312.14 1.04 M195.76 141.02 C243.1 85.06, 289.62 29.32, 317.13 1.4 M195.76 141.02 C232.69 97.95, 268.17 55.67, 317.13 1.4 M201.4 140.62 C225.39 112.19, 254.04 81.53, 322.77 1 M201.4 140.62 C234.04 101.97, 267.1 62.96, 322.77 1 M206.39 140.98 C252.81 90.06, 296.83 37.29, 327.76 1.36 M206.39 140.98 C248.53 93.99, 288.15 47.93, 327.76 1.36 M212.03 140.59 C246.19 101.74, 284.26 56.54, 333.4 0.97 M212.03 140.59 C246.94 99.86, 282.9 59.38, 333.4 0.97 M217.02 140.95 C253.61 102.53, 286.9 65.54, 338.39 1.33 M217.02 140.95 C240.28 112, 266.58 84.04, 338.39 1.33 M222.66 140.55 C250.83 106.27, 282.62 73.32, 343.37 1.69 M222.66 140.55 C266.73 89.6, 310.58 38.81, 343.37 1.69 M227.65 140.92 C263.04 99.17, 295.98 59.14, 349.02 1.29 M227.65 140.92 C272.99 87.65, 319.4 35.56, 349.02 1.29 M233.29 140.52 C268.95 95.93, 308.58 52.73, 354.66 0.9 M233.29 140.52 C276.22 92.09, 317.64 43.15, 354.66 0.9 M238.28 140.88 C279.7 96.11, 319.91 47.49, 358.99 2.01 M238.28 140.88 C281.67 91.55, 324.79 42.15, 358.99 2.01 M243.92 140.49 C281.11 98.58, 317.61 57.42, 363.98 2.37 M243.92 140.49 C274.86 107.52, 304.53 72.94, 363.98 2.37 M248.91 140.85 C293.01 88.15, 340.86 34.89, 368.97 2.73 M248.91 140.85 C284.59 100.91, 319.54 61.08, 368.97 2.73 M253.89 141.21 C284.18 103.97, 314.58 68.99, 372.64 4.6 M253.89 141.21 C276.88 112.91, 302.28 84.97, 372.64 4.6 M259.54 140.81 C303.65 91.32, 346.32 36.8, 376.32 6.47 M259.54 140.81 C304.61 90.63, 347.35 40.42, 376.32 6.47 M264.52 141.17 C288.87 113.99, 316.02 85.12, 379.33 9.1 M264.52 141.17 C299.99 100.59, 335.16 60.94, 379.33 9.1 M270.17 140.78 C306.12 98.69, 342.71 56.18, 382.35 11.72 M270.17 140.78 C296.14 110.27, 321.98 80.06, 382.35 11.72 M275.15 141.14 C301.86 108.63, 329.75 76.34, 384.72 15.1 M275.15 141.14 C316.61 95.05, 355.35 50.01, 384.72 15.1 M280.8 140.74 C321.81 93.6, 359.79 46.4, 386.42 19.23 M280.8 140.74 C315.53 100.49, 350.43 61.26, 386.42 19.23 M285.78 141.1 C324.26 95.4, 367.15 49.47, 387.47 24.12 M285.78 141.1 C323.71 97.55, 359.8 55.26, 387.47 24.12 M291.43 140.71 C326.29 100.91, 364.49 61.87, 389.18 28.26 M291.43 140.71 C327.32 99.54, 364.28 55.49, 389.18 28.26 M296.41 141.07 C332.38 100.46, 365.29 59.63, 389.58 33.9 M296.41 141.07 C332.43 98.37, 368.54 57.53, 389.58 33.9 M302.06 140.67 C323.56 116.83, 346.74 90.04, 389.31 40.3 M302.06 140.67 C330.23 107.45, 359.68 75.16, 389.31 40.3 M307.04 141.03 C326.46 120.11, 342.24 101.73, 389.71 45.94 M307.04 141.03 C331.14 112.92, 355.47 84.1, 389.71 45.94 M312.69 140.64 C335.82 116.41, 358.47 90.73, 389.45 52.34 M312.69 140.64 C341.27 107.48, 370.58 75.07, 389.45 52.34 M317.67 141 C334.87 122.32, 352.91 102.25, 389.19 58.74 M317.67 141 C338.46 118.33, 357.8 96.09, 389.19 58.74 M323.32 140.6 C340.75 119.77, 357.3 100.02, 389.58 64.38 M323.32 140.6 C346 114.55, 369.78 88.28, 389.58 64.38 M328.3 140.96 C349.43 116.1, 368.66 90.47, 389.32 70.78 M328.3 140.96 C343.03 124.83, 357.78 108.31, 389.32 70.78 M333.95 140.57 C348.17 126.45, 358.08 109.44, 389.71 76.42 M333.95 140.57 C350.49 122.24, 368.07 101.9, 389.71 76.42 M338.94 140.93 C352.65 127.31, 366.88 108.95, 389.45 82.82 M338.94 140.93 C351.6 126.53, 364.43 111.32, 389.45 82.82 M344.58 140.54 C354.07 127.46, 366.94 117, 389.85 88.46 M344.58 140.54 C361.03 120.18, 378.29 101.5, 389.85 88.46 M349.57 140.9 C360.22 129.93, 370.64 115.29, 389.58 94.86 M349.57 140.9 C364.49 124.55, 378.33 107.49, 389.58 94.86 M355.21 140.5 C364.18 128.22, 376.35 114.76, 389.98 100.5 M355.21 140.5 C366.57 128.47, 377.71 115.91, 389.98 100.5 M360.85 140.11 C371.74 127.3, 381.02 117.4, 390.37 106.14 M360.85 140.11 C367.95 130.56, 376.97 121.91, 390.37 106.14 M368.46 137.45 C374.54 129.52, 383.31 121.1, 389.46 113.3 M368.46 137.45 C374.72 129, 381.28 121.72, 389.46 113.3" stroke="#82c91e55" stroke-width="0.5" fill="none"></path><path d="M34.75 0 M34.75 0 C153.59 -0.33, 270.4 -0.67, 353.25 0 M34.75 0 C126.26 -1.05, 217.79 -0.52, 353.25 0 M353.25 0 C377.05 1.42, 387.17 9.82, 388 34.75 M353.25 0 C377.72 0.19, 387.76 13.82, 388 34.75 M388 34.75 C387.46 55.94, 388.17 76.2, 388 104.25 M388 34.75 C388.06 52.31, 388.08 68.68, 388 104.25 M388 104.25 C389.65 128.64, 374.77 137.75, 353.25 139 M388 104.25 C388.86 127.44, 374.95 141, 353.25 139 M353.25 139 C234.37 139.92, 115.17 139.12, 34.75 139 M353.25 139 C235.51 138.6, 117.47 138.21, 34.75 139 M34.75 139 C13.34 137.8, -0.46 126.57, 0 104.25 M34.75 139 C13.11 139.06, 0.32 126.83, 0 104.25 M0 104.25 C-0.92 81.39, -0.53 58.35, 0 34.75 M0 104.25 C-0.5 85.5, 1.16 65.18, 0 34.75 M0 34.75 C0.64 11.97, 10.86 -1.1, 34.75 0 M0 34.75 C1.34 9.32, 13.1 0.53, 34.75 0" stroke="#5c940d" stroke-width="1" fill="none"></path></g><g transform="translate(316.42857142857173 119) rotate(0 24 12.5)"><text x="24" y="18" font-family="Virgil, Segoe UI Emoji" font-size="20px" fill="#5c940d" text-anchor="middle" style="white-space: pre;" direction="ltr">GDB</text></g><g stroke-linecap="round" transform="translate(361.49999999999994 44.142857142857224) rotate(0 67 25)"><path d="M0.1 -1.21 L133.15 -1.61 L133.76 51.26 L-0.87 51.2" stroke="none" stroke-width="0" fill="#228be622"></path><path d="M-1.82 -1.25 C41.04 -0.12, 84.57 -0.8, 134.43 1.06 M0.78 -0.52 C43.44 -0.81, 85.69 -0.28, 134.37 0.24 M134.77 0.04 C133.37 15.88, 132.08 29.93, 133.09 50.35 M133.67 -0.69 C134.88 12.47, 134.62 25.25, 133.67 50.63 M135.19 48.09 C82.71 51.2, 28.82 49, 1.71 48.2 M134.87 50.14 C94.61 48.61, 56.84 48.71, -0.31 50.56 M1.89 51.91 C0.64 31.94, 0.4 15, -1.41 0.57 M0.51 50.13 C0.85 35.09, -0.11 21.81, -0.42 0.28" stroke="#1864ab" stroke-width="1" fill="none"></path></g><g transform="translate(386.49999999999994 59.142857142857224) rotate(0 42 10)"><text x="42" y="14" font-family="Virgil, Segoe UI Emoji" font-size="16px" fill="#1864ab" text-anchor="middle" style="white-space: pre;" direction="ltr">Application</text></g><g stroke-linecap="round" transform="translate(731.5 478.1428571428571) rotate(0 73.5 21.5)"><path d="M1.32 -0.25 L147.55 -1.67 L148.79 44.05 L-0.62 44.96" stroke="none" stroke-width="0" fill="#228be622"></path><path d="M1.01 1.16 C31.43 1.21, 67.17 -1.12, 146.58 -0.84 M0.64 -0.48 C35.49 -1.76, 73.3 -1.7, 147.51 -0.9 M146.39 -1.8 C146.98 10.81, 145.65 22.48, 148.81 44.15 M147.86 -0.26 C147.28 9.09, 147 19.18, 146.12 43.57 M147.1 43 C99.29 42.66, 51.44 43.82, -1.27 41.36 M146.05 42.81 C105.9 42.42, 64.85 41.71, -0.2 43.31 M0.13 43.93 C0.34 34.98, 1.56 25.43, 1.96 -0.7 M0.39 42.94 C0.61 32.29, 0.26 21.13, -0.62 -0.03" stroke="#1864ab" stroke-width="1" fill="none"></path></g><g transform="translate(763 489.6428571428571) rotate(0 42 10)"><text x="42" y="14" font-family="Virgil, Segoe UI Emoji" font-size="16px" fill="#1864ab" text-anchor="middle" style="white-space: pre;" direction="ltr">Application</text></g><g stroke-linecap="round" transform="translate(148.49999999999994 211.1428571428571) rotate(0 131 82.5)"><path d="M10.32 10.3 C10.32 10.3, 10.32 10.3, 10.32 10.3 M10.32 10.3 C10.32 10.3, 10.32 10.3, 10.32 10.3 M8.75 18.21 C10.32 15.56, 14.74 11, 21.22 3.87 M8.75 18.21 C12.78 14.5, 15.29 10.61, 21.22 3.87 M1.93 32.15 C10.34 23.86, 18.81 14.07, 25.55 4.98 M1.93 32.15 C9.75 21.99, 18.74 12.36, 25.55 4.98 M1.67 38.55 C7.31 29.31, 18.02 21.18, 31.85 3.83 M1.67 38.55 C11.95 27.72, 21.93 15.16, 31.85 3.83 M1.41 44.95 C13.28 35.07, 19.95 21.57, 38.14 2.68 M1.41 44.95 C9.5 34.39, 19.92 24.58, 38.14 2.68 M1.8 50.59 C15.53 34.31, 34.15 15.11, 43.79 2.29 M1.8 50.59 C15.99 34.09, 28.47 18.56, 43.79 2.29 M1.54 56.99 C16.12 38.19, 35.36 19.98, 49.43 1.89 M1.54 56.99 C18.71 36.05, 36.83 15.34, 49.43 1.89 M1.93 62.63 C23.28 37.85, 45.1 13.83, 54.42 2.25 M1.93 62.63 C15.41 46.22, 28.43 31.4, 54.42 2.25 M1.67 69.03 C16.65 52.87, 31.85 36.18, 59.4 2.61 M1.67 69.03 C13.36 54.39, 26.31 39.14, 59.4 2.61 M1.41 75.43 C19.76 55.5, 35 37.49, 65.05 2.22 M1.41 75.43 C20.8 52.78, 39.9 30.16, 65.05 2.22 M1.8 81.07 C26.86 48.31, 53.49 18.56, 70.03 2.58 M1.8 81.07 C18.19 64.6, 32.59 47.46, 70.03 2.58 M1.54 87.47 C21.66 66.54, 38.71 43.52, 75.68 2.19 M1.54 87.47 C19.66 66.73, 36.64 46.18, 75.68 2.19 M1.94 93.11 C30.55 63.03, 57.22 30.53, 80.67 2.55 M1.94 93.11 C21.89 69.02, 42.36 45.74, 80.67 2.55 M1.68 99.51 C32.75 65.77, 62.38 30.14, 86.31 2.15 M1.68 99.51 C23.99 73.13, 46.13 47.78, 86.31 2.15 M1.42 105.91 C21.25 85.06, 39.3 59.9, 91.3 2.51 M1.42 105.91 C38.2 66.21, 71.15 24.84, 91.3 2.51 M1.81 111.55 C32.83 76.14, 65.7 37.86, 96.94 2.12 M1.81 111.55 C39.9 67.94, 76.91 24.67, 96.94 2.12 M1.55 117.95 C28.33 86.21, 55.76 54.38, 101.93 2.48 M1.55 117.95 C34.23 79.88, 68.24 42.69, 101.93 2.48 M1.94 123.59 C32.13 92.94, 62.39 56.13, 107.57 2.08 M1.94 123.59 C25.1 95.63, 49.19 67.24, 107.57 2.08 M1.68 129.99 C27.95 98.7, 58.58 64.34, 112.56 2.44 M1.68 129.99 C37.83 87.59, 76.59 43.24, 112.56 2.44 M2.73 134.88 C28.92 104.77, 53 77.35, 118.2 2.05 M2.73 134.88 C27.45 107.65, 52.05 80.41, 118.2 2.05 M3.78 139.76 C43.53 93.33, 82.56 44.87, 123.19 2.41 M3.78 139.76 C47.38 90.69, 92.86 38.93, 123.19 2.41 M5.49 143.9 C46.77 97.22, 88.08 47.44, 128.83 2.01 M5.49 143.9 C49.24 91.88, 95.72 39.61, 128.83 2.01 M5.88 149.54 C49.53 97.34, 96.93 45.93, 133.82 2.37 M5.88 149.54 C42.82 109.94, 76.22 68.46, 133.82 2.37 M8.9 152.17 C55.61 100.21, 100.15 49.21, 139.46 1.98 M8.9 152.17 C54.11 99.57, 98.48 48.62, 139.46 1.98 M11.92 154.79 C57.05 99.42, 102.43 44.62, 144.45 2.34 M11.92 154.79 C43.89 118.39, 76.58 80.53, 144.45 2.34 M14.94 157.41 C54.71 111.07, 94.65 63.77, 150.09 1.94 M14.94 157.41 C67.97 97.31, 120.29 38.05, 150.09 1.94 M17.3 160.79 C47.91 122.61, 82.45 85.61, 155.08 2.3 M17.3 160.79 C64.95 103.78, 113.75 47.97, 155.08 2.3 M21.63 161.91 C75.47 102.66, 129.67 39.39, 160.72 1.91 M21.63 161.91 C72.69 102.57, 122.76 43.51, 160.72 1.91 M25.97 163.02 C73.63 108.02, 123.73 52.03, 165.71 2.27 M25.97 163.02 C81.82 99.29, 136.99 35.8, 165.71 2.27 M29.64 164.89 C78.94 106.8, 127.96 50.23, 171.35 1.87 M29.64 164.89 C80.53 106.26, 130.94 47.69, 171.35 1.87 M33.97 166.01 C70.11 122.24, 107.95 79.03, 176.34 2.23 M33.97 166.01 C73.26 120.58, 111.29 76.14, 176.34 2.23 M38.96 166.37 C78.22 122.67, 115.8 79.48, 181.32 2.6 M38.96 166.37 C72.4 125.15, 107.8 84.96, 181.32 2.6 M43.95 166.73 C74.11 130.86, 106.05 95.66, 186.97 2.2 M43.95 166.73 C101.53 102.08, 158.37 35.99, 186.97 2.2 M48.93 167.09 C97.04 110.67, 146.64 55.24, 191.95 2.56 M48.93 167.09 C93.4 116.33, 138.79 66.4, 191.95 2.56 M53.92 167.45 C90.64 126.17, 128.12 82.86, 197.6 2.17 M53.92 167.45 C97.12 118.84, 137.15 71.05, 197.6 2.17 M59.56 167.05 C107.52 107.3, 161.1 49.4, 202.58 2.53 M59.56 167.05 C96.31 123.73, 132.92 83.3, 202.58 2.53 M64.55 167.41 C107.04 116.25, 148.12 69.83, 208.23 2.13 M64.55 167.41 C118.7 104.59, 173.27 41.21, 208.23 2.13 M70.19 167.02 C125.78 101.93, 180.6 39.11, 213.21 2.49 M70.19 167.02 C126.37 101.71, 181.58 37.83, 213.21 2.49 M75.18 167.38 C114.86 124.52, 152 78.55, 218.86 2.1 M75.18 167.38 C105.06 131.58, 135.64 97.43, 218.86 2.1 M80.82 166.98 C122.36 119.51, 162.84 71.28, 223.84 2.46 M80.82 166.98 C113.98 128.89, 148.97 89.3, 223.84 2.46 M85.81 167.34 C137.94 107.25, 193.71 43.85, 228.17 3.57 M85.81 167.34 C118.29 129.25, 150.96 92.08, 228.17 3.57 M91.45 166.95 C125.24 126.81, 159.19 91.11, 233.16 3.93 M91.45 166.95 C138.13 114.29, 185.72 60.98, 233.16 3.93 M96.44 167.31 C127.45 131.87, 160.25 93.49, 239.46 2.78 M96.44 167.31 C153.32 105.35, 208.29 41.98, 239.46 2.78 M102.08 166.91 C152.45 109.59, 201.37 52.79, 243.14 4.65 M102.08 166.91 C156.61 102.41, 211.7 37.95, 243.14 4.65 M107.07 167.27 C145.39 122.46, 189.44 75.15, 246.81 6.52 M107.07 167.27 C156.57 108.86, 206.86 51.33, 246.81 6.52 M112.71 166.88 C150.63 123.1, 191.99 79.16, 249.83 9.15 M112.71 166.88 C166.21 105.43, 218.37 44.97, 249.83 9.15 M117.7 167.24 C157.09 121.91, 193.61 79.11, 252.19 12.52 M117.7 167.24 C162.64 116.1, 205.28 65.65, 252.19 12.52 M123.34 166.85 C156.11 129.4, 189.38 94.05, 255.21 15.15 M123.34 166.85 C155.4 127.6, 190.93 87.35, 255.21 15.15 M128.33 167.21 C175.26 117.43, 217.22 62.62, 258.23 17.77 M128.33 167.21 C176.39 113.57, 224.79 59.35, 258.23 17.77 M133.97 166.81 C182.43 110.79, 229.72 56.52, 259.94 21.91 M133.97 166.81 C181.16 110.91, 229.44 55.6, 259.94 21.91 M138.96 167.17 C170.22 132.68, 201.7 93.68, 260.99 26.8 M138.96 167.17 C173.24 128.66, 206.78 89.25, 260.99 26.8 M144.6 166.78 C191.2 114.36, 232.56 64, 262.04 31.68 M144.6 166.78 C181.84 122.33, 220.65 77.27, 262.04 31.68 M149.59 167.14 C180.5 135.57, 207.87 99.84, 261.78 38.08 M149.59 167.14 C191.82 118.67, 232.4 71.01, 261.78 38.08 M155.23 166.74 C181.71 134.73, 205.38 104.73, 262.17 43.72 M155.23 166.74 C185.14 132.27, 215.11 96.98, 262.17 43.72 M160.22 167.1 C183.75 142.57, 204.64 115.12, 261.91 50.12 M160.22 167.1 C184.04 136.12, 210.86 107.25, 261.91 50.12 M165.86 166.71 C199.68 128.03, 233.09 88.26, 261.65 56.52 M165.86 166.71 C187.73 139.45, 210.19 113.54, 261.65 56.52 M170.85 167.07 C195.9 140.27, 216.18 114.63, 262.04 62.16 M170.85 167.07 C195.3 140.05, 216.23 115.6, 262.04 62.16 M175.84 167.43 C192.68 146.3, 211.44 124.35, 261.78 68.56 M175.84 167.43 C192.78 148.93, 209.68 128.04, 261.78 68.56 M181.48 167.03 C204.8 142.86, 226.97 115.33, 262.18 74.2 M181.48 167.03 C214.64 129.53, 246.02 93.57, 262.18 74.2 M186.47 167.39 C204.51 143.4, 224.79 122.66, 261.91 80.6 M186.47 167.39 C215.4 134.3, 244.99 100.2, 261.91 80.6 M192.11 167 C215.33 140.22, 237.46 114.2, 262.31 86.24 M192.11 167 C209.42 147.2, 225.2 128.48, 262.31 86.24 M197.1 167.36 C216.62 146.52, 232.54 125.9, 262.05 92.64 M197.1 167.36 C210.52 151.87, 224.7 136.09, 262.05 92.64 M202.74 166.96 C226.11 138.9, 250.62 111.69, 262.44 98.29 M202.74 166.96 C215.82 151.28, 228.06 137.67, 262.44 98.29 M207.73 167.32 C220.44 155.56, 230.44 140.64, 262.18 104.68 M207.73 167.32 C223.68 148.3, 240.95 129.65, 262.18 104.68 M213.37 166.93 C232.55 143.59, 251.08 122.89, 262.57 110.33 M213.37 166.93 C228.07 149.79, 244.83 132.89, 262.57 110.33 M218.36 167.29 C233.43 150.09, 248.39 134.31, 262.31 116.72 M218.36 167.29 C232.05 150.44, 246.44 134.62, 262.31 116.72 M223.34 167.65 C239.47 151.09, 253.8 131.82, 262.71 122.37 M223.34 167.65 C237.56 151.23, 252.21 133.28, 262.71 122.37 M229.64 166.5 C237.71 160.15, 241.83 148.85, 264.41 126.5 M229.64 166.5 C239.91 153.82, 251.14 142.89, 264.41 126.5 M235.94 165.35 C247.88 154.4, 257.18 141.11, 262.84 134.41 M235.94 165.35 C245.67 152.19, 256.92 141, 262.84 134.41 M246.18 159.67 C250.48 155.14, 253.6 152.74, 259.3 144.58 M246.18 159.67 C250.42 155.97, 254.36 150.82, 259.3 144.58" stroke="#be4bdb55" stroke-width="0.5" fill="none"></path><path d="M41.25 0 M41.25 0 C100.88 2.05, 159.43 2.46, 220.75 0 M41.25 0 C89.1 -0.01, 138.47 0.21, 220.75 0 M220.75 0 C247.3 0.47, 260.71 14.34, 262 41.25 M220.75 0 C246.59 -1.3, 264.16 11.62, 262 41.25 M262 41.25 C264.05 62.86, 262.7 80.38, 262 123.75 M262 41.25 C261.36 67.46, 262.58 94.7, 262 123.75 M262 123.75 C260.58 149.57, 247.61 164.63, 220.75 165 M262 123.75 C260.26 152.08, 249.05 166.68, 220.75 165 M220.75 165 C168.96 166.45, 119.12 166.4, 41.25 165 M220.75 165 C170.35 165.53, 120.89 165.23, 41.25 165 M41.25 165 C13.11 164.41, -1.43 149.7, 0 123.75 M41.25 165 C12.52 163.94, 2.29 152.15, 0 123.75 M0 123.75 C-1.44 96.35, 1.12 72.07, 0 41.25 M0 123.75 C0.14 92.94, 0.39 63.73, 0 41.25 M0 41.25 C0.04 13.89, 13.43 -0.31, 41.25 0 M0 41.25 C1.22 13.38, 15.94 2.1, 41.25 0" stroke="#862e9c" stroke-width="1" fill="none"></path></g><g transform="translate(257.99999999999994 351.1428571428571) rotate(0 21.5 10)"><text x="21.5" y="14" font-family="Virgil, Segoe UI Emoji" font-size="16px" fill="#862e9c" text-anchor="middle" style="white-space: pre;" direction="ltr">Local</text></g><g stroke-linecap="round" transform="translate(192.49999999999994 270.6428571428571) rotate(0 89.5 25)"><path d="M-1.01 -1.22 L178.06 -1.12 L180.04 51.53 L1.93 49.47" stroke="none" stroke-width="0" fill="#228be622"></path><path d="M1.05 -0.3 C42.75 -2.22, 83.54 -2.44, 180.11 0.26 M-0.54 0.39 C45.01 -1.51, 88.24 -0.69, 179.34 -0.36 M180.46 -0.1 C179.31 12.9, 177.5 22.41, 177.37 51.32 M179.4 0.75 C179.54 13.82, 179.67 26.77, 178.3 50.66 M180.42 51.97 C133.99 49.29, 94.15 46.72, 0.62 50.48 M179.29 50.84 C124.45 51.99, 72.22 51.54, 0.53 50.57 M1.45 49.77 C-0.3 36.67, -1.39 27.14, -0.07 -1.75 M0.41 50.39 C0.11 39.68, 0.66 29.75, -0.92 0.76" stroke="#1864ab" stroke-width="1" fill="none"></path></g><g transform="translate(236.99999999999994 285.6428571428571) rotate(0 45 10)"><text x="45" y="14" font-family="Virgil, Segoe UI Emoji" font-size="16px" fill="#1864ab" text-anchor="middle" style="white-space: pre;" direction="ltr">GDB Client</text></g><g stroke-linecap="round"><g transform="translate(375.61655797559564 296.93923349039426) rotate(0 114.32293123380981 -0.11971294382664155)"><path d="M-0.44 0.17 C37.77 0.2, 190.71 0.94, 229.08 0.84 M1.54 -0.79 C39.55 -1.17, 189.9 -1.16, 227.83 -0.93" stroke="#495057" stroke-width="1" fill="none"></path></g><g transform="translate(375.61655797559564 296.93923349039426) rotate(0 114.32293123380981 -0.11971294382664155)"><path d="M199.9 8.31 C208.72 6.72, 214.63 4.62, 229.45 -2.01 M198.79 10.02 C209.48 5.46, 217.91 2.97, 228.39 -0.2" stroke="#495057" stroke-width="1" fill="none"></path></g><g transform="translate(375.61655797559564 296.93923349039426) rotate(0 114.32293123380981 -0.11971294382664155)"><path d="M199.95 -12.21 C208.87 -7.95, 214.77 -4.2, 229.45 -2.01 M198.84 -10.5 C209.61 -8.1, 218.02 -3.64, 228.39 -0.2" stroke="#495057" stroke-width="1" fill="none"></path></g></g><g transform="translate(431.24999999999994 266.8928571428571) rotate(0 46 10)"><text x="46" y="14" font-family="Virgil, Segoe UI Emoji" font-size="16px" fill="#495057" text-anchor="middle" style="white-space: pre;" direction="ltr">x.x.x.x:1234</text></g><g stroke-linecap="round" transform="translate(650 250.14285714285722) rotate(0 67 25)"><path d="M-1.49 0.21 L135.14 1.08 L132.41 50.15 L-1.67 49.6" stroke="none" stroke-width="0" fill="#228be622"></path><path d="M1.72 -1.08 C46.24 0.38, 88.33 0.19, 132.56 0.63 M-0.17 0.41 C39.44 0.46, 79.51 1.21, 134.04 -0.32 M133.98 1.53 C132.31 13.18, 134.88 28.09, 133.5 50.67 M134.15 0.23 C133.35 14.63, 132.86 29.13, 133.73 50.98 M134.71 51.87 C102.97 51.14, 73.62 51.44, 1.51 50 M133.28 50.89 C98.61 49.51, 64.17 49.06, 0.73 49.87 M-0.67 51.39 C-1.84 28.83, -1.84 10.28, 0.55 1.73 M0.82 50.58 C0.18 37.76, 1.03 23.58, -0.1 0.68" stroke="#1864ab" stroke-width="1" fill="none"></path></g><g transform="translate(675 265.1428571428572) rotate(0 42 10)"><text x="42" y="14" font-family="Virgil, Segoe UI Emoji" font-size="16px" fill="#1864ab" text-anchor="middle" style="white-space: pre;" direction="ltr">Application</text></g><g stroke-linecap="round" transform="translate(10 34.642857142857224) rotate(0 33.25 32.5)"><path d="M59.43 14.06 C63.75 18.82, 66.69 27.4, 67.06 33.39 C67.44 39.38, 65.53 44.81, 61.68 50.01 C57.83 55.2, 50.68 62.69, 43.97 64.59 C37.27 66.49, 27.85 63.44, 21.47 61.41 C15.09 59.39, 9.13 57.4, 5.69 52.44 C2.24 47.49, 0.94 38.46, 0.79 31.7 C0.64 24.95, 0.88 17.18, 4.77 11.92 C8.67 6.66, 17.87 1.91, 24.17 0.14 C30.48 -1.64, 36.26 -2.14, 42.61 1.26 C48.96 4.67, 58.71 16.41, 62.27 20.57 C65.83 24.73, 64.52 25.93, 63.97 26.23 M25.02 -0.57 C31.07 -2.06, 41.43 0.67, 47.71 3.48 C53.99 6.29, 59.12 10.87, 62.71 16.28 C66.29 21.69, 70.38 29.63, 69.23 35.93 C68.08 42.24, 60.61 49.37, 55.8 54.11 C51 58.85, 46.57 62.68, 40.39 64.38 C34.21 66.07, 25.24 66.63, 18.72 64.26 C12.2 61.89, 4.09 56.13, 1.26 50.15 C-1.56 44.18, 0.53 34.64, 1.76 28.41 C2.99 22.18, 4.94 17.01, 8.63 12.76 C12.33 8.52, 20.39 4.45, 23.92 2.94 C27.45 1.42, 29.58 3.08, 29.84 3.67" stroke="none" stroke-width="0" fill="#be4bdb55"></path><path d="M34.18 -1.03 C40.09 -1.22, 47.16 4.62, 52.15 8.45 C57.13 12.28, 62.29 16.44, 64.07 21.95 C65.85 27.45, 64.83 34.92, 62.82 41.47 C60.81 48.02, 56.88 57.33, 52.02 61.25 C47.16 65.17, 40.02 65.43, 33.66 64.99 C27.3 64.55, 19.52 62.54, 13.84 58.63 C8.15 54.71, 1.28 47.98, -0.44 41.51 C-2.17 35.04, 1.1 25.64, 3.5 19.79 C5.9 13.94, 5.93 8.76, 13.96 6.41 C21.99 4.06, 43.58 3.52, 51.7 5.69 C59.83 7.86, 62.8 18.83, 62.71 19.44 M15.26 3.33 C20.28 -0.27, 30.97 -0.83, 37.27 -0.21 C43.58 0.4, 48.52 2.8, 53.09 7.03 C57.66 11.25, 62.98 18.75, 64.69 25.13 C66.41 31.52, 65.35 39.87, 63.39 45.33 C61.43 50.79, 58.68 54.36, 52.94 57.89 C47.2 61.42, 36.03 66.17, 28.95 66.53 C21.87 66.89, 15.52 64.06, 10.47 60.06 C5.42 56.06, 0.14 49.27, -1.34 42.52 C-2.82 35.78, -1.67 25.43, 1.57 19.57 C4.82 13.72, 15.68 9.88, 18.14 7.38 C20.6 4.88, 16.45 4.06, 16.33 4.58" stroke="#862e9c" stroke-width="1" fill="none"></path></g><g transform="translate(37.25 44.142857142857224) rotate(0 6 23)"><text x="6" y="32" font-family="Virgil, Segoe UI Emoji" font-size="36px" fill="#862e9c" text-anchor="middle" style="white-space: pre;" direction="ltr">1</text></g><g stroke-linecap="round" transform="translate(15.25 256.6428571428572) rotate(0 33.25 32.5)"><path d="M60.07 12.1 C63.78 16.79, 65.59 27.99, 65.82 34.31 C66.05 40.62, 65.5 44.88, 61.47 50.01 C57.43 55.13, 48.1 62.72, 41.63 65.06 C35.16 67.39, 28.29 66.48, 22.63 64.01 C16.96 61.54, 11.52 55.53, 7.64 50.24 C3.76 44.96, -0.24 38.59, -0.65 32.32 C-1.07 26.05, 1.07 17.51, 5.16 12.62 C9.25 7.72, 17.69 5.03, 23.88 2.95 C30.06 0.87, 35.3 -3.25, 42.27 0.14 C49.25 3.53, 61.88 17.98, 65.71 23.31 C69.54 28.65, 65.83 32.49, 65.26 32.17 M53.53 8.71 C57.89 12.21, 64.33 19.96, 66.28 26.04 C68.24 32.11, 68.67 38.94, 65.27 45.16 C61.88 51.38, 52.17 60.52, 45.92 63.34 C39.67 66.17, 34.09 63.2, 27.76 62.12 C21.44 61.05, 12.94 61.1, 7.96 56.87 C2.98 52.64, -1.8 43.41, -2.13 36.73 C-2.46 30.05, 2.95 22.09, 5.95 16.78 C8.95 11.46, 10.45 7.96, 15.88 4.86 C21.32 1.76, 31.59 -2.78, 38.57 -1.84 C45.56 -0.9, 54.79 8.19, 57.78 10.49 C60.77 12.79, 57.35 11.92, 56.51 11.97" stroke="none" stroke-width="0" fill="#be4bdb55"></path><path d="M51.02 6.29 C56.8 9.48, 63.1 14.83, 65.21 20.41 C67.33 26, 65.38 33.78, 63.69 39.8 C61.99 45.82, 60.07 52.4, 55.07 56.54 C50.07 60.68, 40.61 63.91, 33.68 64.64 C26.76 65.37, 18.96 64.3, 13.5 60.91 C8.05 57.53, 3.26 50.21, 0.96 44.31 C-1.35 38.42, -2.21 31.74, -0.33 25.54 C1.54 19.34, 6.89 11.57, 12.23 7.13 C17.56 2.69, 23.76 -2.32, 31.69 -1.11 C39.62 0.1, 54.19 9.94, 59.8 14.4 C65.41 18.87, 65.7 25.11, 65.35 25.68 M29.96 0.23 C36.26 -0.47, 43.78 2.97, 48.86 6.37 C53.94 9.77, 57.36 15.28, 60.45 20.64 C63.54 26, 68.2 32.2, 67.4 38.54 C66.59 44.87, 61.15 53.91, 55.64 58.67 C50.13 63.42, 40.29 66.32, 34.35 67.08 C28.4 67.84, 25.51 66.31, 19.98 63.26 C14.45 60.21, 4.61 54.95, 1.15 48.78 C-2.31 42.6, -2.23 32.94, -0.76 26.2 C0.7 19.46, 4.73 12.24, 9.92 8.33 C15.11 4.42, 26.65 4.23, 30.38 2.74 C34.1 1.26, 32.55 -1.1, 32.25 -0.59" stroke="#862e9c" stroke-width="1" fill="none"></path></g><g transform="translate(34.5 266.1428571428572) rotate(0 14 23)"><text x="14" y="32" font-family="Virgil, Segoe UI Emoji" font-size="36px" fill="#862e9c" text-anchor="middle" style="white-space: pre;" direction="ltr">2</text></g><g stroke-linecap="round" transform="translate(20.75 476.1428571428572) rotate(0 33.5 30.5)"><path d="M37.7 -1.66 C44.43 -1.25, 52.33 5.55, 57.12 9.59 C61.92 13.64, 65.27 16.88, 66.46 22.6 C67.65 28.32, 66.73 38.5, 64.26 43.91 C61.78 49.32, 57.07 52.1, 51.61 55.05 C46.14 58, 38.36 61.83, 31.47 61.61 C24.58 61.38, 15.09 57.82, 10.29 53.7 C5.49 49.59, 3.67 42.94, 2.67 36.92 C1.66 30.91, 1.72 23.29, 4.24 17.62 C6.75 11.94, 10.4 5.3, 17.74 2.89 C25.07 0.47, 41.59 2.28, 48.24 3.12 C54.89 3.95, 58.04 7.69, 57.64 7.9 M27.49 0.55 C33.19 -1.22, 39.43 -2.15, 44.76 0.4 C50.09 2.95, 56.05 10.46, 59.48 15.86 C62.9 21.26, 64.92 26.62, 65.3 32.78 C65.69 38.93, 65.89 48.35, 61.79 52.8 C57.69 57.26, 47.92 58.91, 40.7 59.5 C33.47 60.1, 24.04 58, 18.45 56.36 C12.85 54.72, 9.69 54.09, 7.13 49.68 C4.56 45.26, 3.24 36.29, 3.06 29.85 C2.87 23.42, 1.84 16.37, 6 11.07 C10.15 5.78, 25.07 -0.16, 27.98 -1.92 C30.89 -3.69, 23.44 -0.73, 23.47 0.48" stroke="none" stroke-width="0" fill="#be4bdb55"></path><path d="M14.04 4.96 C18.45 1.09, 23.97 1.53, 30.25 1.66 C36.54 1.78, 45.75 2.89, 51.74 5.71 C57.73 8.52, 63.99 13.07, 66.22 18.55 C68.45 24.02, 67.3 32.72, 65.12 38.57 C62.93 44.42, 57.98 49.7, 53.09 53.67 C48.2 57.63, 42.33 62.23, 35.76 62.35 C29.18 62.48, 19.11 57.77, 13.66 54.44 C8.21 51.1, 5.23 47.63, 3.06 42.35 C0.9 37.06, -4.03 30.09, 0.66 22.75 C5.35 15.42, 22.87 1.14, 31.2 -1.66 C39.52 -4.45, 50.49 5.5, 50.61 5.99 M31.22 -1.31 C36.8 -1.97, 41.23 3.16, 46.5 5.84 C51.77 8.52, 59.89 9.58, 62.84 14.78 C65.8 19.97, 65.72 30.94, 64.24 37.01 C62.76 43.07, 57.9 47.47, 53.95 51.17 C49.99 54.88, 46.86 58.04, 40.5 59.24 C34.14 60.44, 21.89 61.32, 15.81 58.37 C9.72 55.41, 6.29 46.84, 3.99 41.51 C1.69 36.17, 0.82 31.47, 2 26.35 C3.17 21.23, 6.75 15.25, 11.06 10.79 C15.36 6.33, 24.82 1.62, 27.85 -0.39 C30.89 -2.41, 29.27 -1.59, 29.27 -1.31" stroke="#862e9c" stroke-width="1" fill="none"></path></g><g transform="translate(40.75 483.6428571428572) rotate(0 13.5 23)"><text x="13.5" y="32" font-family="Virgil, Segoe UI Emoji" font-size="36px" fill="#862e9c" text-anchor="middle" style="white-space: pre;" direction="ltr">3</text></g></svg>