<svg version="1.1" xmlns="http://www.w3.org/2000/svg" viewBox="0 0 1155.5 295" width="2311" height="590">
  <!-- svg-source:excalidraw -->
  
  <defs>
    <style>
      @font-face {
        font-family: "Virgil";
        src: url("https://excalidraw.com/Virgil.woff2");
      }
      @font-face {
        font-family: "Cascadia";
        src: url("https://excalidraw.com/Cascadia.woff2");
      }
    </style>
  </defs>
  <rect x="0" y="0" width="1155.5" height="295" fill="#ffffff"></rect><g stroke-opacity="0.2" fill-opacity="0.2" transform="translate(751 254) rotate(0 64.5 12.5)"><text x="64.5" y="18" font-family="Virgil, Segoe UI Emoji" font-size="20px" fill="#e67700" text-anchor="middle" style="white-space: pre;" direction="ltr">@hemashushu</text></g><g stroke-linecap="round" transform="translate(35 167) rotate(0 89.5 25)"><path d="M-1.48 -0.64 L179.42 1.98 L179.33 48.82 L-1.54 49.29" stroke="none" stroke-width="0" fill="#228be622"></path><path d="M-0.79 -0.71 C55.24 0.31, 107.36 -0.43, 177.2 1.99 M-0.46 -0.68 C52.56 -0.66, 104.6 -2.04, 179.45 -0.7 M180.2 1.02 C178.8 16.34, 176.85 28.81, 180.71 51.35 M179.15 0.65 C178.53 15.83, 179.52 31.77, 179.58 50.64 M179.44 50.43 C110.44 48.97, 39.22 47.65, 0.91 50.21 M179.2 50.81 C124.32 48.55, 70.4 49.04, -0.08 50.44 M0.89 49.95 C-0.32 37.42, 1.43 28.8, -0.3 0.12 M-0.69 50.36 C-1.06 34.08, -0.42 18.92, -0.93 -0.48" stroke="#1864ab" stroke-width="1" fill="none"></path></g><g transform="translate(79.5 182) rotate(0 45 10)"><text x="45" y="14" font-family="Virgil, Segoe UI Emoji" font-size="16px" fill="#1864ab" text-anchor="middle" style="white-space: pre;" direction="ltr">GDB Client</text></g><g stroke-linecap="round" transform="translate(393 165.5) rotate(0 73.5 15.5)"><path d="M1.07 -1.51 L146.43 0.34 L148.83 32.28 L1.85 31.74" stroke="none" stroke-width="0" fill="#228be622"></path><path d="M0.19 1.33 C34.73 0.2, 67.91 -0.31, 146.08 0.49 M-0.81 0.53 C50.6 -1.02, 99.9 -1.07, 147.18 0.33 M146.73 -1.26 C147.09 11.17, 147.5 24.66, 147.77 31.52 M146.63 -0.65 C146.55 8.27, 147.78 15.61, 147.27 30.63 M146.21 32.99 C98.88 34, 51.84 31.07, -1.61 31.31 M147.36 31.08 C105.05 30.75, 61.67 30.51, -0.87 31.32 M-0.06 30.23 C-0.4 26.06, 0.31 16.05, 1.14 0.96 M-0.93 31.35 C-0.27 23.95, -0.19 14.97, -0.53 0.1" stroke="#1864ab" stroke-width="1" fill="none"></path></g><g transform="translate(418.5 171) rotate(0 48 10)"><text x="48" y="14" font-family="Virgil, Segoe UI Emoji" font-size="16px" fill="#1864ab" text-anchor="middle" style="white-space: pre;" direction="ltr">GDB Server</text></g><g stroke-linecap="round" transform="translate(392 91.5) rotate(0 73.5 18)"><path d="M1.07 -0.33 L148.75 1.43 L147.61 34.65 L-1.21 34.88" stroke="none" stroke-width="0" fill="#228be622"></path><path d="M-1.74 -1.1 C36.98 -2.85, 70.77 -1.03, 147.23 1.79 M0.04 -0.89 C55.01 0.2, 111.32 0, 146.08 -0.32 M147.98 0.81 C148.25 11.2, 146.82 20.54, 148.85 37.88 M147.09 -0.12 C146.86 9.88, 147.71 20.66, 146.27 35.57 M148.32 36.14 C92.14 33.85, 38.4 34.89, -0.55 37.67 M146.57 35.35 C95.71 36.63, 44.17 36.28, 0.24 35.78 M-0.79 34.31 C0.54 26.03, 1.46 17.88, -1.47 -0.77 M0.55 36.96 C-0.94 27.1, 0.12 18.83, 0.83 0.43" stroke="#1864ab" stroke-width="1" fill="none"></path></g><g transform="translate(410.5 99.5) rotate(0 55 10)"><text x="55" y="14" font-family="Virgil, Segoe UI Emoji" font-size="16px" fill="#1864ab" text-anchor="middle" style="white-space: pre;" direction="ltr">Telnet Server</text></g><g stroke-linecap="round" transform="translate(34.5 82) rotate(0 89.5 25)"><path d="M0.14 -1.79 L177.58 0.66 L180.57 51.82 L-0.12 49.44" stroke="none" stroke-width="0" fill="#228be622"></path><path d="M-0.65 -0.23 C69.38 -0.14, 137.05 2.46, 180.01 0.81 M0.94 -0.19 C50.13 -2.18, 99.91 -1.77, 178.77 -0.22 M178.13 1.52 C177.25 17.83, 180.54 36.44, 179.4 48.09 M179.83 0.5 C178.43 20.22, 178.35 39.03, 179.13 50.07 M178.57 48.7 C124.78 51.64, 70.2 48.74, 0.5 48.5 M178.62 49.37 C113.08 48.19, 46.7 49.65, -0.75 49.65 M0.86 51.07 C-0.29 35.24, 1.46 17.58, -1.35 -1.21 M0.82 49.64 C-0.29 36.92, -0.08 26.07, 0.59 0.17" stroke="#1864ab" stroke-width="1" fill="none"></path></g><g transform="translate(72 97) rotate(0 52 10)"><text x="52" y="14" font-family="Virgil, Segoe UI Emoji" font-size="16px" fill="#1864ab" text-anchor="middle" style="white-space: pre;" direction="ltr">Telnet Client</text></g><g stroke-linecap="round"><g transform="translate(229.43451705473456 111.06557146621117) rotate(0 76.4420239309083 0.5881058894260605)"><path d="M-0.47 -0.57 C24.92 -0.15, 127.55 1.35, 153.36 1.71 M1.48 1.74 C26.64 1.88, 127.04 0.27, 152.49 -0.11" stroke="#495057" stroke-width="1" fill="none"></path></g><g transform="translate(229.43451705473456 111.06557146621117) rotate(0 76.4420239309083 0.5881058894260605)"><path d="M123.5 10.83 C136.26 8.48, 146.79 0.89, 151.31 -0.47 M124.19 9.72 C132.54 8.02, 140.45 4.97, 152.4 -0.54" stroke="#495057" stroke-width="1" fill="none"></path></g><g transform="translate(229.43451705473456 111.06557146621117) rotate(0 76.4420239309083 0.5881058894260605)"><path d="M123.19 -9.69 C135.93 -4.16, 146.57 -3.86, 151.31 -0.47 M123.88 -10.8 C132.45 -6.85, 140.45 -4.23, 152.4 -0.54" stroke="#495057" stroke-width="1" fill="none"></path></g></g><g transform="translate(232.5 81.5) rotate(0 58.5 10)"><text x="58.5" y="14" font-family="Virgil, Segoe UI Emoji" font-size="16px" fill="#495057" text-anchor="middle" style="white-space: pre;" direction="ltr">localhost:4444</text></g><g stroke-linecap="round"><g transform="translate(224.9408055000721 190.71461888472595) rotate(0 79.61945234347291 -0.9431836923571382)"><path d="M-0.74 0.96 C25.89 0.94, 133.35 -0.73, 159.98 -1.3 M1.08 0.42 C27.56 0.19, 133.11 -2.57, 159.26 -2.84" stroke="#495057" stroke-width="1" fill="none"></path></g><g transform="translate(224.9408055000721 190.71461888472595) rotate(0 79.61945234347291 -0.9431836923571382)"><path d="M132.87 8.69 C142.14 3.84, 149.08 -0.45, 160.36 -1.39 M132.14 8.28 C142.61 3.06, 152.88 0.63, 159.22 -2.88" stroke="#495057" stroke-width="1" fill="none"></path></g><g transform="translate(224.9408055000721 190.71461888472595) rotate(0 79.61945234347291 -0.9431836923571382)"><path d="M132.47 -11.82 C141.67 -10.14, 148.74 -7.9, 160.36 -1.39 M131.75 -12.24 C142.21 -9.62, 152.63 -4.21, 159.22 -2.88" stroke="#495057" stroke-width="1" fill="none"></path></g></g><g transform="translate(231.25 164.75) rotate(0 60 10)"><text x="60" y="14" font-family="Virgil, Segoe UI Emoji" font-size="16px" fill="#495057" text-anchor="middle" style="white-space: pre;" direction="ltr">localhost:3333</text></g><g stroke-linecap="round" transform="translate(358.5 49) rotate(0 106.5 96)"><path d="M6.57 18.96 C6.57 18.96, 6.57 18.96, 6.57 18.96 M6.57 18.96 C6.57 18.96, 6.57 18.96, 6.57 18.96 M2.37 29.89 C7.88 24.8, 11.4 16.84, 18.12 11.77 M2.37 29.89 C7.42 23.72, 12.22 19.54, 18.12 11.77 M4.08 34.02 C10.68 27.54, 14.98 21.54, 29.01 5.34 M4.08 34.02 C10.94 25.84, 17.52 19.97, 29.01 5.34 M3.16 41.17 C12.76 31.41, 23.91 20.61, 35.31 4.19 M3.16 41.17 C10.13 32.13, 17.35 25.29, 35.31 4.19 M1.59 49.08 C11.02 34.92, 23.6 22.14, 41.61 3.04 M1.59 49.08 C14.43 34.35, 27.72 18.83, 41.61 3.04 M1.32 55.48 C11.37 42.05, 23.37 29.05, 48.56 1.14 M1.32 55.48 C17.59 37.64, 33.6 17.77, 48.56 1.14 M1.72 61.12 C14.94 43.45, 31.08 29.7, 54.2 0.74 M1.72 61.12 C18.53 40.74, 37.22 20.46, 54.2 0.74 M1.46 67.52 C22.17 45.37, 40.69 23.39, 59.19 1.1 M1.46 67.52 C21.56 45.14, 39.72 23.46, 59.19 1.1 M1.2 73.92 C18.01 55.73, 36.41 33.39, 64.83 0.71 M1.2 73.92 C23.79 46.29, 47.83 19.27, 64.83 0.71 M1.59 79.56 C17.53 59.94, 35.4 36.16, 69.82 1.07 M1.59 79.56 C27.99 49.22, 55.85 20.11, 69.82 1.07 M1.33 85.96 C28.41 56.77, 53.39 26.44, 75.46 0.67 M1.33 85.96 C21.46 62.05, 43.44 37.83, 75.46 0.67 M1.72 91.6 C24.66 67.69, 46.1 41.9, 80.45 1.03 M1.72 91.6 C33.08 56.2, 63.25 20.63, 80.45 1.03 M1.46 98 C25.11 71.03, 48.47 42.81, 86.09 0.64 M1.46 98 C31.34 63.47, 62.57 28.62, 86.09 0.64 M1.86 103.64 C31.35 69.51, 57.97 39.08, 91.08 1 M1.86 103.64 C35.66 67.2, 68.24 29.56, 91.08 1 M1.6 110.04 C37.25 72.01, 70.38 31.01, 96.72 0.61 M1.6 110.04 C25.69 81.97, 50.35 52.71, 96.72 0.61 M1.33 116.44 C35.55 73.6, 73.65 34.05, 101.71 0.97 M1.33 116.44 C22.56 92.17, 43.43 69.27, 101.71 0.97 M1.73 122.08 C35.02 85.08, 62.83 49.88, 107.35 0.57 M1.73 122.08 C32.94 84.17, 66.23 46.53, 107.35 0.57 M1.47 128.48 C24.12 102.17, 46.97 75.76, 112.34 0.93 M1.47 128.48 C41.63 83.28, 79.72 39.22, 112.34 0.93 M1.86 134.12 C33.59 98.15, 61.24 66.82, 117.98 0.54 M1.86 134.12 C45.69 79.14, 91.82 27.94, 117.98 0.54 M1.6 140.52 C38.15 96.25, 78.46 52.99, 122.97 0.9 M1.6 140.52 C41.79 95.21, 80.45 51.47, 122.97 0.9 M1.34 146.92 C25.35 118.07, 51.99 86.03, 127.96 1.26 M1.34 146.92 C30.59 112.67, 59.6 78.92, 127.96 1.26 M2.39 151.8 C47.98 98.54, 97.89 44.17, 133.6 0.86 M2.39 151.8 C50.09 95.75, 97.7 39.71, 133.6 0.86 M3.44 156.69 C31.87 122.92, 61.29 86.17, 138.59 1.22 M3.44 156.69 C49.85 103.47, 96.84 48.48, 138.59 1.22 M4.49 161.58 C44.55 116.7, 84.37 69.99, 144.23 0.83 M4.49 161.58 C38.19 121.19, 73.27 81.32, 144.23 0.83 M4.89 167.22 C55.25 111.81, 104.89 53.41, 149.22 1.19 M4.89 167.22 C42.72 123.9, 80.56 78.75, 149.22 1.19 M7.25 170.6 C48.5 126.15, 88.66 81.41, 154.86 0.79 M7.25 170.6 C36.96 136.35, 67.75 99.69, 154.86 0.79 M8.95 174.74 C57.88 116.97, 108.96 63.37, 159.85 1.15 M8.95 174.74 C60.65 116.13, 111.71 57.86, 159.85 1.15 M11.32 178.11 C59.66 122.21, 108.83 66.69, 165.49 0.76 M11.32 178.11 C45.98 135.71, 82.93 93.31, 165.49 0.76 M14.34 180.74 C57.13 130.99, 101.96 80.46, 171.13 0.36 M14.34 180.74 C59.57 127.92, 107.87 72.73, 171.13 0.36 M17.36 183.36 C60.85 130.98, 102.3 82.97, 175.47 1.48 M17.36 183.36 C79.73 111.47, 143.58 39.29, 175.47 1.48 M19.72 186.74 C60.62 139.66, 100.03 93.34, 179.8 2.59 M19.72 186.74 C71.08 128.26, 124.16 67.67, 179.8 2.59 M24.05 187.86 C61.57 142.2, 101.93 96.52, 184.13 3.71 M24.05 187.86 C71.72 132.65, 117.88 79.05, 184.13 3.71 M27.72 189.73 C66.68 147.18, 106.49 103.39, 188.46 4.82 M27.72 189.73 C88.52 120.33, 148.52 50.93, 188.46 4.82 M32.71 190.09 C92.43 123.44, 150.43 58.31, 192.13 6.69 M32.71 190.09 C66.56 151.43, 100.87 112.91, 192.13 6.69 M37.04 191.2 C94.09 124.69, 152.31 55.24, 195.81 8.56 M37.04 191.2 C74.63 148.42, 111.39 105.02, 195.81 8.56 M42.03 191.56 C75.16 154.22, 107.79 115.16, 199.48 10.43 M42.03 191.56 C98.67 123.39, 156.74 57.29, 199.48 10.43 M46.36 192.68 C93.17 137.37, 142.12 82.94, 202.5 13.06 M46.36 192.68 C91.5 142.23, 136.64 90.73, 202.5 13.06 M50.69 193.79 C110.14 126.16, 168.82 58.33, 204.86 16.43 M50.69 193.79 C94.09 144.56, 137.17 94.67, 204.86 16.43 M55.68 194.15 C96.29 147.02, 136.54 100.43, 207.23 19.81 M55.68 194.15 C105.08 135.68, 155.47 77.35, 207.23 19.81 M61.32 193.76 C113.33 132.85, 165.74 73.58, 208.93 23.95 M61.32 193.76 C116.61 129.56, 171.39 64.91, 208.93 23.95 M66.31 194.12 C97.72 159.47, 125.62 127.62, 210.64 28.08 M66.31 194.12 C122.16 131.66, 176.01 70.32, 210.64 28.08 M71.95 193.72 C102.85 158.63, 131.95 125.92, 211.69 32.97 M71.95 193.72 C124.46 131.49, 177.93 69.2, 211.69 32.97 M76.94 194.08 C106.15 162.11, 133.32 129.89, 212.74 37.86 M76.94 194.08 C107.26 157, 137.97 120.47, 212.74 37.86 M82.58 193.69 C122.78 148.08, 161.22 101.67, 213.79 42.75 M82.58 193.69 C129.38 140.4, 176.19 85.97, 213.79 42.75 M87.57 194.05 C128.03 148.01, 164.45 103.46, 213.53 49.14 M87.57 194.05 C129.3 146.92, 169.94 100.44, 213.53 49.14 M92.56 194.41 C138.92 136.98, 190.65 83.95, 213.93 54.79 M92.56 194.41 C123.85 158.69, 154.31 123.23, 213.93 54.79 M98.2 194.01 C128.9 153.84, 165.18 115.65, 213.66 61.18 M98.2 194.01 C132.83 154.32, 167.43 114.87, 213.66 61.18 M103.19 194.37 C136.88 155, 172.25 114.4, 213.4 67.58 M103.19 194.37 C139 152.39, 174.95 109.54, 213.4 67.58 M108.83 193.98 C135.38 164.7, 161.81 131.87, 213.8 73.23 M108.83 193.98 C148.97 147.97, 190.13 100.09, 213.8 73.23 M113.82 194.34 C145.06 157.4, 179.13 121.03, 213.54 79.62 M113.82 194.34 C151.72 152.84, 187.54 110.56, 213.54 79.62 M119.46 193.94 C144.29 165.51, 166.36 139.5, 213.93 85.27 M119.46 193.94 C144.61 165.05, 168.37 138.06, 213.93 85.27 M124.45 194.3 C149.83 162.48, 180.46 131.61, 213.67 91.66 M124.45 194.3 C146.68 168.61, 168.92 144.81, 213.67 91.66 M130.09 193.91 C156.49 166.97, 181.44 134.28, 213.41 98.06 M130.09 193.91 C159.67 159.32, 188.78 125.7, 213.41 98.06 M135.08 194.27 C155.9 171.42, 173.42 153.97, 213.8 103.7 M135.08 194.27 C162.15 162.95, 189.73 130.55, 213.8 103.7 M140.72 193.88 C163.12 164.3, 186.32 138.61, 213.54 110.1 M140.72 193.88 C168.43 163.67, 194.54 132.43, 213.54 110.1 M145.71 194.24 C162.74 171.2, 182.81 154.06, 213.94 115.75 M145.71 194.24 C173.07 162.09, 200.65 131.16, 213.94 115.75 M151.35 193.84 C177.29 165.51, 203.18 137.11, 213.67 122.14 M151.35 193.84 C173.8 167.2, 197.28 142.19, 213.67 122.14 M156.34 194.2 C167.16 181.4, 180.31 165.17, 213.41 128.54 M156.34 194.2 C178.65 167.51, 199.72 143.66, 213.41 128.54 M161.98 193.81 C181.29 171.9, 196.91 152.69, 213.81 134.18 M161.98 193.81 C174.88 179.49, 186.7 165.53, 213.81 134.18 M166.97 194.17 C182.23 175.43, 200.44 155.53, 213.55 140.58 M166.97 194.17 C179.14 180.21, 189.17 168.07, 213.55 140.58 M172.61 193.77 C185.92 178.4, 196.61 162.85, 213.94 146.23 M172.61 193.77 C186.7 179.39, 198.89 164.53, 213.94 146.23 M178.91 192.62 C187.5 185.01, 195.24 174.51, 214.99 151.11 M178.91 192.62 C186.24 183.37, 193.31 175.87, 214.99 151.11 M186.52 189.96 C198.52 177.83, 207.64 164.82, 212.76 159.78 M186.52 189.96 C193.22 181.19, 199.86 174.59, 212.76 159.78 M198.07 182.78 C200.26 179.05, 203.83 176.52, 209.22 169.95 M198.07 182.78 C200.6 180.22, 202.68 178.22, 209.22 169.95" stroke="#fd7e1455" stroke-width="0.5" fill="none"></path><path d="M48 0 M48 0 C79.14 -1.87, 108.87 -1.91, 165 0 M48 0 C75.25 -0.43, 100.93 -1.3, 165 0 M165 0 C195.13 -1.33, 211.78 15.54, 213 48 M165 0 C195.88 2.2, 211.03 15.68, 213 48 M213 48 C211.82 75.62, 212.53 98.92, 213 144 M213 48 C211.98 68.62, 213.26 88.11, 213 144 M213 144 C213.55 175.23, 197.93 190.52, 165 192 M213 144 C211.42 174.23, 198.53 193.3, 165 192 M165 192 C139.04 189.47, 112.71 191.99, 48 192 M165 192 C141.77 193.37, 117.48 193.48, 48 192 M48 192 C17.82 192.15, 0.25 175.07, 0 144 M48 192 C18.26 192.41, -1.9 176.95, 0 144 M0 144 C-1.11 111.79, 0.29 82.87, 0 48 M0 144 C-0.09 113.63, -1.03 83.61, 0 48 M0 48 C-0.93 15.88, 14.45 0.01, 48 0 M0 48 C0.55 15.57, 15.54 1.06, 48 0" stroke="#d9480f" stroke-width="1" fill="none"></path></g><g transform="translate(429 216) rotate(0 36 10)"><text x="36" y="14" font-family="Virgil, Segoe UI Emoji" font-size="16px" fill="#d9480f" text-anchor="middle" style="white-space: pre;" direction="ltr">OpenOCD</text></g><g stroke-linecap="round" transform="translate(688.5 109) rotate(0 67 25)"><path d="M12.42 1.14 L125.49 -1.18 L131.16 6.15 L132.91 8 L134.12 43.67 L129.43 46.58 L123.36 50.39 L8.06 47.51 L1.7 48.35 L-0.86 41.45 L0.83 10.85 L1.68 2.59 L10.95 1.32" stroke="none" stroke-width="0" fill="#228be622"></path><path d="M12.5 0 M12.5 0 C40.08 -0.62, 67.14 -0.54, 121.5 0 M12.5 0 C50.46 0.93, 88.98 1.14, 121.5 0 M121.5 0 C129.72 0.62, 134.62 4.67, 134 12.5 M121.5 0 C131.05 -1.06, 132.27 2.97, 134 12.5 M134 12.5 C134.65 23.2, 132.4 32.43, 134 37.5 M134 12.5 C133.57 19.82, 133.94 27.91, 134 37.5 M134 37.5 C135.81 47.61, 127.98 51.38, 121.5 50 M134 37.5 C135.95 44.94, 130.6 51.66, 121.5 50 M121.5 50 C83.52 49.45, 48.05 48.38, 12.5 50 M121.5 50 C86.37 49.48, 50.62 49.18, 12.5 50 M12.5 50 C5.1 50.24, -0.71 44.59, 0 37.5 M12.5 50 C5.89 48.55, -2.22 46.33, 0 37.5 M0 37.5 C0.44 29.88, 0.53 25.42, 0 12.5 M0 37.5 C-0.22 28.22, 0.42 19.95, 0 12.5 M0 12.5 C-0.42 6.14, 4.75 -0.69, 12.5 0 M0 12.5 C0.39 6.33, 3.09 -1.51, 12.5 0" stroke="#1864ab" stroke-width="1" fill="none"></path></g><g transform="translate(709 124) rotate(0 46.5 10)"><text x="46.5" y="14" font-family="Virgil, Segoe UI Emoji" font-size="16px" fill="#1864ab" text-anchor="middle" style="white-space: pre;" direction="ltr">CMSIS-DAP</text></g><g stroke-linecap="round"><g transform="translate(580.982902750036 133.48176113996794) rotate(0 44.45692725820152 0.04672255639309242)"><path d="M-0.62 -1.03 C13.81 -0.94, 72.51 -0.6, 87.24 -0.42 M1.25 1.04 C16.01 1.36, 75.27 0.69, 89.54 0.72" stroke="#495057" stroke-width="1" fill="none"></path></g><g transform="translate(580.982902750036 133.48176113996794) rotate(0 44.45692725820152 0.04672255639309242)"><path d="M59.68 9.8 C70.12 7.17, 80.82 4.93, 87.74 2.67 M60.68 10.81 C69.7 8.19, 79 4.64, 90.03 0.26" stroke="#495057" stroke-width="1" fill="none"></path></g><g transform="translate(580.982902750036 133.48176113996794) rotate(0 44.45692725820152 0.04672255639309242)"><path d="M59.57 -10.72 C69.88 -6.13, 80.62 -1.15, 87.74 2.67 M60.57 -9.71 C69.7 -5.89, 79.03 -3.01, 90.03 0.26" stroke="#495057" stroke-width="1" fill="none"></path></g></g><g transform="translate(602.792097249964 104.76769055763702) rotate(0 17.5 10)"><text x="17.5" y="14" font-family="Virgil, Segoe UI Emoji" font-size="16px" fill="#495057" text-anchor="middle" style="white-space: pre;" direction="ltr">USB</text></g><g stroke-linecap="round" transform="translate(972 106) rotate(0 67 25)"><path d="M14.17 -0.79 L128.28 0.54 L131.6 6.68 L134.74 9.51 L133.05 44.37 L129.99 49.94 L119.84 50.2 L5.31 49.01 L4.06 45.4 L-0.69 41.61 L0.71 8.51 L1.29 4.12 L13.26 -1.83" stroke="none" stroke-width="0" fill="#228be622"></path><path d="M12.5 0 M12.5 0 C39.07 -1.96, 68.76 -0.03, 121.5 0 M12.5 0 C39.68 -0.2, 66.64 0.27, 121.5 0 M121.5 0 C130.47 -1.57, 135.05 3.56, 134 12.5 M121.5 0 C127.54 -0.84, 135.59 2.04, 134 12.5 M134 12.5 C132.71 23.29, 134.58 31.33, 134 37.5 M134 12.5 C133.76 21.05, 133.22 31.29, 134 37.5 M134 37.5 C134.23 46.75, 128.49 48.29, 121.5 50 M134 37.5 C133.81 45.98, 127.74 48.15, 121.5 50 M121.5 50 C98.04 50.31, 73.41 47.36, 12.5 50 M121.5 50 C96.71 49.69, 74.33 50.62, 12.5 50 M12.5 50 C4.26 49.59, -1.99 44.9, 0 37.5 M12.5 50 C4.04 50.4, 0.11 48, 0 37.5 M0 37.5 C-0.21 27.2, -0.11 19.26, 0 12.5 M0 37.5 C-0.38 30.67, 0.53 24.08, 0 12.5 M0 12.5 C-0.6 2.92, 5.3 0.12, 12.5 0 M0 12.5 C0.2 5.64, 2.11 2.12, 12.5 0" stroke="#1864ab" stroke-width="1" fill="none"></path></g><g transform="translate(1021 121) rotate(0 18 10)"><text x="18" y="14" font-family="Virgil, Segoe UI Emoji" font-size="16px" fill="#1864ab" text-anchor="middle" style="white-space: pre;" direction="ltr">MCU</text></g><g stroke-linecap="round"><g transform="translate(826.9194593742011 131.99311234469883) rotate(0 65.70799283228484 -0.14577303932520635)"><path d="M0.92 -1 C22.36 -1.11, 107.6 -1.31, 129.22 -1.38 M-0.05 1.08 C21.7 1.18, 109.78 0.06, 131.47 -0.21" stroke="#495057" stroke-width="1" fill="none"></path></g><g transform="translate(826.9194593742011 131.99311234469883) rotate(0 65.70799283228484 -0.14577303932520635)"><path d="M101.74 8.93 C112.13 7.31, 121.84 0.95, 130.65 0.62 M103 10.55 C109.27 7.33, 117.41 5.9, 131.5 -1" stroke="#495057" stroke-width="1" fill="none"></path></g><g transform="translate(826.9194593742011 131.99311234469883) rotate(0 65.70799283228484 -0.14577303932520635)"><path d="M101.48 -11.59 C111.84 -6.02, 121.64 -5.19, 130.65 0.62 M102.75 -9.97 C108.98 -8.42, 117.18 -5.08, 131.5 -1" stroke="#495057" stroke-width="1" fill="none"></path></g></g><g transform="translate(838.792097249964 103.01769055763702) rotate(0 45 10)"><text x="45" y="14" font-family="Virgil, Segoe UI Emoji" font-size="16px" fill="#495057" text-anchor="middle" style="white-space: pre;" direction="ltr">JTAG/SWD</text></g><g stroke-linecap="round" transform="translate(942.5 37.5) rotate(0 101.5 98.5)"><path d="M12.45 12.15 C12.45 12.15, 12.45 12.15, 12.45 12.15 M12.45 12.15 C12.45 12.15, 12.45 12.15, 12.45 12.15 M9.57 21.57 C15.1 18.25, 17.41 14.04, 20.72 8.74 M9.57 21.57 C12.38 19.5, 13.65 17.16, 20.72 8.74 M4.06 34 C13.97 25.75, 22.52 15.39, 28.99 5.32 M4.06 34 C11.78 25.95, 18.2 17.9, 28.99 5.32 M3.14 41.16 C9.4 32.63, 19.27 25.82, 35.29 4.17 M3.14 41.16 C11.03 30.15, 19.85 21.43, 35.29 4.17 M0.91 49.82 C15.73 33.18, 34.38 13.29, 40.93 3.78 M0.91 49.82 C13.91 34.45, 29.16 19.27, 40.93 3.78 M0.65 56.21 C17.98 36.43, 34.57 18.62, 49.2 0.37 M0.65 56.21 C17.34 37.05, 33.45 18.13, 49.2 0.37 M1.04 61.86 C14.51 49.1, 23.47 35.76, 54.84 -0.03 M1.04 61.86 C14.85 45.5, 27.58 29.82, 54.84 -0.03 M0.78 68.26 C18.33 50.44, 36.12 30.46, 59.83 0.33 M0.78 68.26 C17.46 47.92, 35.91 27.49, 59.83 0.33 M0.52 74.65 C21.5 50.43, 44.49 27.16, 65.47 -0.06 M0.52 74.65 C21.72 51.82, 41.85 27.88, 65.47 -0.06 M0.92 80.3 C18.9 55.95, 41.19 34.47, 70.46 0.3 M0.92 80.3 C24.68 52.63, 46.96 25.92, 70.46 0.3 M0.65 86.69 C26.7 60.03, 50.74 32.3, 75.44 0.66 M0.65 86.69 C30.81 53.31, 59.95 19.03, 75.44 0.66 M1.05 92.34 C19.73 74.03, 36.38 52.89, 81.09 0.26 M1.05 92.34 C30.52 57.18, 60.97 21.95, 81.09 0.26 M0.79 98.74 C18.59 79.83, 33.47 57.53, 86.07 0.62 M0.79 98.74 C32.77 62.67, 63.05 25.47, 86.07 0.62 M1.18 104.38 C20.73 83.62, 38.71 60.78, 91.72 0.23 M1.18 104.38 C21.99 78.25, 44.8 53.65, 91.72 0.23 M0.92 110.78 C25.76 79.2, 52.62 51.58, 96.7 0.59 M0.92 110.78 C35.23 72.22, 68.86 33.28, 96.7 0.59 M0.66 117.17 C21.23 95.39, 39.48 71.72, 102.35 0.19 M0.66 117.17 C25.05 89.51, 49.25 62.53, 102.35 0.19 M1.05 122.82 C40.9 78.02, 82.66 28.48, 107.33 0.55 M1.05 122.82 C28.71 91.84, 55 63.45, 107.33 0.55 M0.79 129.21 C23.46 101.23, 45.12 75.98, 112.32 0.91 M0.79 129.21 C24.23 100.56, 49.02 72.88, 112.32 0.91 M1.19 134.86 C40.19 94.05, 74.41 49.34, 117.97 0.52 M1.19 134.86 C44.69 85.42, 86.92 37.54, 117.97 0.52 M0.93 141.26 C33.14 108.08, 61.15 70.44, 122.95 0.88 M0.93 141.26 C39.91 95.8, 79.5 52.19, 122.95 0.88 M0.66 147.65 C31.14 113.84, 54.76 82.04, 128.6 0.48 M0.66 147.65 C29.77 113.35, 59.04 78.88, 128.6 0.48 M0.4 154.05 C29.21 121.99, 56.39 91.86, 133.58 0.85 M0.4 154.05 C27.19 122.58, 54.44 90.31, 133.58 0.85 M1.45 158.94 C50.7 102.7, 98.57 47.12, 139.23 0.45 M1.45 158.94 C55.03 97.27, 107.79 36.62, 139.23 0.45 M2.5 163.83 C32.45 128.92, 60.3 98.11, 144.21 0.81 M2.5 163.83 C34.67 126.22, 68.27 88.36, 144.21 0.81 M3.55 168.72 C52.79 111.22, 104.65 55.57, 149.2 1.17 M3.55 168.72 C57.57 107.72, 111.9 45.34, 149.2 1.17 M5.92 172.1 C37.34 138.25, 66.97 102.61, 154.84 0.78 M5.92 172.1 C47.21 123.57, 89.66 76.69, 154.84 0.78 M8.28 175.47 C61.12 117.62, 111.78 56.45, 159.83 1.14 M8.28 175.47 C59.18 115.57, 110.76 56.18, 159.83 1.14 M9.99 179.61 C43.69 139.71, 75.15 105.14, 165.47 0.74 M9.99 179.61 C61.23 120.16, 110.72 62.74, 165.47 0.74 M11.69 183.74 C50 141.33, 85.45 99.63, 169.8 1.86 M11.69 183.74 C52.64 136.46, 94.44 88.86, 169.8 1.86 M14.71 186.37 C55.53 139.95, 95.51 93.34, 174.13 2.97 M14.71 186.37 C55.88 137.2, 99.78 88.63, 174.13 2.97 M17.73 188.99 C61.24 138.15, 107.72 87.1, 178.47 4.09 M17.73 188.99 C65.34 135.78, 112.91 82.93, 178.47 4.09 M20.75 191.61 C54.35 152.24, 89.52 115.41, 181.48 6.71 M20.75 191.61 C71.02 135.5, 121.23 79.83, 181.48 6.71 M24.42 193.48 C59.05 150.41, 97.93 110.08, 185.16 8.58 M24.42 193.48 C59.68 151.15, 95.38 108.32, 185.16 8.58 M28.76 194.6 C61.77 154.99, 98.98 115.51, 188.83 10.45 M28.76 194.6 C85.75 127.99, 142.38 63.76, 188.83 10.45 M33.09 195.71 C68.72 155.38, 101.84 117.97, 191.85 13.07 M33.09 195.71 C73.6 148.75, 113.9 101.31, 191.85 13.07 M38.07 196.07 C73.62 154.8, 112.31 113.96, 194.22 16.45 M38.07 196.07 C74.23 153.48, 109.73 111.78, 194.22 16.45 M42.4 197.19 C88.84 145.78, 133.03 92.5, 196.58 19.83 M42.4 197.19 C101.33 130.94, 159.29 63.48, 196.58 19.83 M46.08 199.06 C83.48 156.69, 124.73 109.32, 198.29 23.97 M46.08 199.06 C86.21 152.37, 126.72 104.93, 198.29 23.97 M51.07 199.42 C89.4 154.98, 128.69 113.44, 199.99 28.1 M51.07 199.42 C81.08 164.15, 112.24 130.04, 199.99 28.1 M56.71 199.02 C106.59 143.83, 151.94 88.94, 201.04 32.99 M56.71 199.02 C100.44 148.84, 144.79 99.43, 201.04 32.99 M61.7 199.38 C97.28 157.99, 133.05 117.03, 202.09 37.88 M61.7 199.38 C108.94 143.73, 158.88 87.87, 202.09 37.88 M67.34 198.99 C115.15 141.69, 164.2 88.53, 203.14 42.76 M67.34 198.99 C105.53 153.44, 143.2 109.87, 203.14 42.76 M72.33 199.35 C120.93 144.4, 167.12 87.39, 205.51 46.14 M72.33 199.35 C103.69 163.12, 137.62 125.44, 205.51 46.14 M77.97 198.95 C108.49 164.08, 138.12 130.42, 205.9 51.79 M77.97 198.95 C112.61 160.2, 146.92 120.91, 205.9 51.79 M82.96 199.31 C131.17 144.51, 178.33 87.93, 205.64 58.18 M82.96 199.31 C122.57 150.49, 164.01 104.52, 205.64 58.18 M88.6 198.92 C129.8 152.8, 170.6 104.79, 206.03 63.83 M88.6 198.92 C114.63 168.87, 142.88 138.09, 206.03 63.83 M93.59 199.28 C129.28 157.65, 164.88 117.08, 205.77 70.22 M93.59 199.28 C120.77 166.78, 148.52 133.96, 205.77 70.22 M99.23 198.89 C128.02 165.39, 160.83 129.11, 205.51 76.62 M99.23 198.89 C126.32 168.16, 152.83 138.41, 205.51 76.62 M104.22 199.25 C129.32 169.5, 150.11 143.24, 205.91 82.27 M104.22 199.25 C132.29 167.88, 159.48 137.52, 205.91 82.27 M109.86 198.85 C140.1 163.17, 171.75 128.8, 205.64 88.66 M109.86 198.85 C138.14 166.37, 167 135.5, 205.64 88.66 M114.85 199.21 C148.38 159.97, 183.1 117.45, 206.04 94.31 M114.85 199.21 C136.42 172.57, 158.98 148.21, 206.04 94.31 M120.49 198.82 C145.83 165.26, 173.38 133.12, 205.78 100.7 M120.49 198.82 C145.37 170.94, 167.89 143.89, 205.78 100.7 M125.48 199.18 C153.06 166.88, 180.83 131.87, 205.52 107.1 M125.48 199.18 C145.51 175.02, 167.5 151.73, 205.52 107.1 M131.12 198.78 C149.3 180.44, 166.02 161.82, 205.91 112.74 M131.12 198.78 C161.39 164.24, 190.75 130.2, 205.91 112.74 M136.11 199.14 C153.09 177.32, 173.64 157.23, 205.65 119.14 M136.11 199.14 C161.99 170.11, 190.5 137.9, 205.65 119.14 M141.09 199.5 C168.23 172.2, 193.18 139, 206.04 124.79 M141.09 199.5 C164.02 171.26, 188.37 144.58, 206.04 124.79 M146.74 199.11 C168.12 171.75, 190.02 149.06, 205.78 131.18 M146.74 199.11 C164.62 176.42, 183.72 154.41, 205.78 131.18 M151.72 199.47 C166.81 183.4, 178.7 168.54, 205.52 137.58 M151.72 199.47 C165.08 185.56, 176.17 170.97, 205.52 137.58 M157.37 199.07 C173.43 180.2, 189.26 163.77, 205.92 143.22 M157.37 199.07 C176.31 178.59, 194.54 157.03, 205.92 143.22 M162.35 199.43 C173.48 187.06, 180.1 176.31, 205.65 149.62 M162.35 199.43 C174.89 184.79, 186.92 170.42, 205.65 149.62 M168.65 198.28 C184.22 182.72, 196.78 162.84, 205.39 156.02 M168.65 198.28 C178.58 186.27, 188.47 174.45, 205.39 156.02 M176.92 194.87 C182.18 186.95, 190.78 182.51, 203.82 163.93 M176.92 194.87 C182.57 188.75, 188.37 181.86, 203.82 163.93" stroke="#82c91e55" stroke-width="0.5" fill="none"></path><path d="M49.25 0 M49.25 0 C80.98 0.41, 115.49 0.27, 153.75 0 M49.25 0 C82.16 0.71, 115.96 1.29, 153.75 0 M153.75 0 C187.96 0.15, 203.19 17.22, 203 49.25 M153.75 0 C184.75 -0.81, 203.71 16.97, 203 49.25 M203 49.25 C202.37 82.8, 204.31 114.58, 203 147.75 M203 49.25 C202.16 69.89, 202.6 91.5, 203 147.75 M203 147.75 C201.91 179, 188.24 198.5, 153.75 197 M203 147.75 C201.73 182.37, 185.2 197.37, 153.75 197 M153.75 197 C118.86 195.69, 82.93 197.39, 49.25 197 M153.75 197 C113.53 197.59, 72.11 197.72, 49.25 197 M49.25 197 C14.97 196.67, 1.67 179.99, 0 147.75 M49.25 197 C14.58 194.74, -0.18 181.51, 0 147.75 M0 147.75 C-1.59 124.48, -1.92 101.58, 0 49.25 M0 147.75 C0.3 126.34, 0.24 103.52, 0 49.25 M0 49.25 C-0.85 15.47, 17.34 0.74, 49.25 0 M0 49.25 C0.66 15.19, 15.85 1.14, 49.25 0" stroke="#5c940d" stroke-width="1" fill="none"></path></g><g transform="translate(990 204.5) rotate(0 54 12.5)"><text x="54" y="18" font-family="Virgil, Segoe UI Emoji" font-size="20px" fill="#5c940d" text-anchor="middle" style="white-space: pre;" direction="ltr">Dev Board</text></g><g stroke-linecap="round" transform="translate(10 10) rotate(0 291 137.5)"><path d="M69.56 0.2 L510.54 0.89 L526.54 -0.52 L545.88 5.97 L566.95 18.41 L570.18 27.47 L584.63 52.14 L583.54 203.24 L583.09 226.06 L576.17 239.27 L569.64 252.88 L554.11 266.07 L543.79 267.75 L522.04 276.78 L65.75 272.02 L56.34 276.15 L31.05 264.54 L22.38 265.01 L16.02 257.09 L7.51 241.65 L-1.6 223.61 L0.49 53.46 L8.6 25.17 L23.05 16.36 L43.71 3.66 L65.64 1.71" stroke="none" stroke-width="0" fill="#e6498011"></path><path d="M68.75 0 M68.75 0 C199.37 -3.89, 329.61 -0.95, 513.25 0 M68.75 0 C230.99 2.66, 391.7 2.54, 513.25 0 M513.25 0 C557.13 -1.98, 585.83 26.57, 582 68.75 M513.25 0 C563.33 1.42, 577.58 24.38, 582 68.75 M582 68.75 C582.58 123.45, 578.7 175.12, 582 206.25 M582 68.75 C581.32 115.75, 578.33 160.31, 582 206.25 M582 206.25 C580.88 252.44, 561.12 272.35, 513.25 275 M582 206.25 C577.69 253.41, 561.85 271.32, 513.25 275 M513.25 275 C404.33 277.12, 298.36 275.63, 68.75 275 M513.25 275 C351.55 273.56, 189.93 273.6, 68.75 275 M68.75 275 C24.38 271.97, -3.85 253.71, 0 206.25 M68.75 275 C25.97 272.46, -1.18 250.11, 0 206.25 M0 206.25 C-1.8 152.57, 0.91 101.39, 0 68.75 M0 206.25 C0.08 170.92, 3.07 135.37, 0 68.75 M0 68.75 C3.58 21.35, 23.78 -0.02, 68.75 0 M0 68.75 C0.89 19.87, 24.26 -4.21, 68.75 0" stroke="#a61e4d" stroke-width="1" fill="none"></path></g><g transform="translate(278 255) rotate(0 23 12.5)"><text x="23" y="18" font-family="Virgil, Segoe UI Emoji" font-size="20px" fill="#a61e4d" text-anchor="middle" style="white-space: pre;" direction="ltr">Host</text></g></svg>