<svg version="1.1" xmlns="http://www.w3.org/2000/svg" viewBox="0 0 613 421" width="1226" height="842">
  <!-- svg-source:excalidraw -->
  
  <defs>
    <style>
      @font-face {
        font-family: "Virgil";
        src: url("https://excalidraw.com/Virgil.woff2");
      }
      @font-face {
        font-family: "Cascadia";
        src: url("https://excalidraw.com/Cascadia.woff2");
      }
    </style>
  </defs>
  <rect x="0" y="0" width="613" height="421" fill="#ffffff"></rect><g stroke-linecap="round" transform="translate(172 346.5) rotate(0 120 30)"><path d="M0 0 C0 0, 0 0, 0 0 M0 0 C0 0, 0 0, 0 0 M0.25 5.74 C1.73 5.55, 1.73 2.99, 5.51 1.05 M0.02 6.26 C1.16 4.46, 3.02 2.62, 4.94 0.71 M0.03 11.02 C4.43 10.05, 6.67 7.26, 10.91 -0.7 M-0.33 11.48 C2.56 9.34, 5.77 5.86, 10.83 -0.76 M0.5 19.58 C6.11 12.77, 12.88 6.46, 14.24 1.39 M0.13 18.22 C4.02 12.31, 9.89 7.35, 14.84 -0.14 M0.63 24.98 C6.18 20.16, 10.38 14.47, 21.85 0.52 M0.55 24.7 C7.02 17.26, 12.69 9.46, 21.57 0.46 M-0.24 29.41 C8.62 17.42, 18.12 8.22, 27.73 1.87 M0.87 30.72 C7.06 21.75, 15.12 14.01, 26.11 1.09 M-1.94 35.71 C10.64 24.88, 21.44 14.3, 30.32 -0.56 M-0.03 36.38 C7.12 27.68, 14.15 18.73, 31.44 0.89 M1.54 42.37 C12.51 27.09, 25.46 11.81, 38.26 -1.11 M0.07 41.7 C8.57 31.01, 19.01 21.18, 37.74 -0.57 M-0.91 50.82 C13.27 33.83, 27.49 17.39, 42.65 0.53 M-0.78 48.38 C8.42 36.96, 20.13 25.26, 42.17 0.21 M2.07 53.1 C8.98 42.54, 22.71 29.92, 46.82 -1.66 M0.44 54.02 C14.1 38.15, 27.89 23.75, 48.06 0.13 M-1.29 62.19 C19.79 37.69, 37.66 13.9, 54.57 -1.07 M1.6 60.93 C14.98 43.23, 29.97 27.69, 52.71 -0.96 M4.35 60.69 C19.59 43.15, 35.47 24.13, 59.91 0.6 M5.15 61.27 C22.42 40.22, 40.91 20.89, 58.62 1.18 M10.61 61.65 C25.28 42.51, 39.4 27.93, 63.33 0.27 M10.86 60.46 C25.07 45.78, 37.12 31.47, 63.24 0.75 M15.61 60.77 C33.82 39.87, 53.26 18.57, 69.52 0.54 M15.41 59.81 C36.71 36.62, 55.13 14.14, 68.24 -0.67 M22.93 61.38 C34.79 44.23, 47.16 31.42, 75.66 0.67 M20.98 60.05 C35.84 42.27, 50.74 26.69, 75.22 -0.54 M27.36 61.51 C44.81 40.84, 63.1 19.87, 81.14 -0.44 M26.41 60.81 C43.7 41.17, 60.77 20.48, 78.99 0.08 M31.17 60.79 C47.97 39.46, 64.54 21.1, 83.81 -1.22 M33.03 60.18 C54.01 35.76, 74.74 13.03, 85.33 0.05 M37.84 59.55 C54.63 42.77, 66.28 25.09, 89.75 1.54 M37.84 60.14 C55.18 40.21, 71.99 20.59, 90.19 -0.34 M44.32 61.75 C65.6 37.13, 84.31 10.52, 97.52 -0.28 M43.31 60.11 C59.74 41.05, 75.39 21.57, 95.5 0.13 M46.78 62.02 C58.48 48.79, 69.27 34.2, 99.87 0.86 M48.63 60.42 C59.17 46.07, 72.14 32.75, 100.4 -0.91 M52.21 61.39 C70.34 41.23, 89.43 20.59, 108.03 -0.87 M52.75 60.58 C63.29 47.45, 74.11 35.04, 106.95 0.08 M59.43 58.55 C72.34 46.38, 81.91 32, 109.47 -1.6 M58.98 61.01 C75.93 39.79, 93.74 19.3, 111.43 0.09 M64.15 61.1 C78.83 45.5, 93.01 27.32, 115.44 -0.1 M63.48 60.83 C78.81 42.44, 95.64 24.43, 115.44 -0.23 M70.53 61.28 C86.92 41.41, 104.81 22.2, 122.05 1.54 M70.34 60.05 C83.36 45.49, 94.91 31.41, 122.36 -0.82 M72.97 59.01 C93.38 42.06, 111.21 20.16, 127.28 1.14 M74.89 61.12 C92.62 39.83, 112.11 19.85, 125.98 -0.43 M80.33 60.83 C95.13 43.27, 110.36 24.63, 130.6 0.17 M79.39 60.4 C90.1 48.06, 101.89 36.27, 133.51 -0.41 M85.68 58.99 C102.32 41.66, 122.89 20.78, 138.66 -1.24 M84.31 59.68 C101.68 40.1, 120.2 20.09, 136.86 0.84 M90.56 58.35 C113.3 35.45, 129.94 13.53, 141.61 -1.33 M90.07 59.68 C110.33 38.18, 127.94 16.39, 142.42 -0.68 M94.75 59.44 C108.96 46.18, 120.69 34.17, 146.81 -1.63 M96.3 61.52 C112.34 39.43, 130.05 18.94, 148.27 0.97 M100.47 61.46 C112.59 45.13, 126.29 31.58, 155.08 -0.07 M101.58 60.26 C119.15 41.64, 135.7 21.12, 153.94 -0.88 M106.18 61.24 C118.36 47.68, 132.04 31.92, 158.47 0.12 M106.69 60.38 C123.68 41.97, 137.98 23.71, 159.65 0.06 M110.8 60.29 C128.53 38.52, 151.11 16.63, 164.5 1.32 M112.36 59.27 C130.42 37.82, 151.94 14.63, 164.11 0.48 M115.47 59.77 C126.48 45.84, 138.33 33.85, 169.89 -1.37 M116.53 60.76 C130.01 43.6, 145.47 28.94, 169.69 1 M123.8 59.49 C134.11 48.56, 145.12 34.19, 176.85 -1.26 M122.09 60.58 C137.73 42.26, 153.67 24.96, 174.26 -0.34 M127.61 60.91 C139 47.58, 151.77 31.46, 178.81 -0.96 M128.14 59.9 C144.9 41.21, 161.18 23.61, 180.34 -0.59 M135.19 58.17 C143.11 46.23, 154.36 35.93, 184.64 -1.45 M133.73 60.8 C148.49 42.1, 164.6 25.02, 184.95 -0.37 M137.08 61.05 C160.31 37.15, 179.3 14.09, 192.46 0.97 M139.1 59.8 C150.94 47.53, 161.75 34.2, 190.78 -0.35 M142.24 61.98 C155.81 48.13, 166.48 35.86, 197.85 1.65 M143.46 59.31 C159.97 41.56, 175.28 24.5, 196 0.17 M147.88 59.07 C168.19 36.41, 190.84 13.26, 199.6 -1.42 M148.21 61.2 C161.36 46.05, 175.38 31.24, 201.46 0.84 M155.67 59.05 C169.31 43.09, 180.49 28.65, 207.98 -0.59 M154.72 60.24 C169.07 42.64, 185.78 24.29, 206.47 -0.26 M157.51 60.34 C176.57 39.31, 197.51 17.03, 210.47 0.48 M159.54 59.61 C177.22 41.26, 193.06 21.9, 212.06 0.87 M163.74 60.01 C183.06 41.46, 201.8 18.99, 216.02 -2.27 M164.2 60.44 C184.33 39.24, 201.8 16.65, 216.69 -0.38 M168.95 60.76 C187.67 42.42, 202.78 20.51, 220.8 1.81 M170.41 61.26 C182.34 47.57, 193.96 32.83, 223.53 0.34 M175.52 62.74 C191.91 41.31, 207.53 23.64, 228.46 0.98 M175.19 60.29 C185.2 48.78, 197 36.88, 228.22 -0.22 M182.69 58.71 C192.43 45.48, 202.92 34.61, 231.84 0.2 M181.39 61.16 C192.35 45.06, 206 31.64, 234.07 0.63 M187.57 61.38 C204.81 38.9, 225.08 14.81, 236.63 0.8 M186.2 60.67 C199.72 45.71, 212.5 29.1, 237.21 -0.27 M192.74 59.07 C206.06 42.35, 222.88 25.39, 240.37 2.05 M192.29 61.04 C207.7 40.64, 224.23 23.13, 241.13 2.13 M195.99 58.8 C210.26 45.8, 219.98 33.4, 240.79 8.61 M197.01 61.44 C214.71 38.95, 232.88 19.72, 242.49 7.01 M202.58 61.22 C209.45 49.49, 217.82 42.34, 240.06 13.54 M202.18 59.41 C213.65 47.22, 224.88 32.89, 242.87 15.24 M207 59.65 C218.08 49.89, 224.47 38.67, 241.88 18.03 M207.31 60.47 C221.76 43.89, 234.15 29.45, 243.35 19.6 M213.2 59.05 C219.43 51.62, 226.57 45.53, 241.18 25.99 M213.37 59.52 C218.98 51.65, 227.14 44.06, 241.73 25.8 M216.35 59.05 C223.57 52.99, 232.14 42.49, 243.69 31.67 M218.03 60.39 C223.64 53.35, 231.33 45.88, 241.62 32.71 M223.1 60.93 C230.58 52.17, 237.22 45.27, 242.99 39.03 M223.43 59.35 C229.72 51.47, 236.67 44, 242.92 38.15 M229.29 58.64 C232.88 54.85, 238.22 47.99, 241.52 44.91 M227.38 60.57 C234.06 54.58, 238.29 48.85, 242.43 44.6 M232.83 61.21 C235.47 56.72, 237.86 55.92, 242.28 50.66 M233.42 59.84 C236.09 57.63, 239.14 54.99, 242.71 49.77 M239.28 61.06 C240.53 59.25, 241.89 57.82, 242.15 57.06 M238.84 60.7 C239.66 59.47, 240.22 58.83, 242.16 56.71" stroke="#fa525255" stroke-width="0.5" fill="none"></path><path d="M-1.08 -1.35 C79.19 2.14, 159.6 3.47, 241.12 -0.56 M-0.42 -0.81 C84.19 -2.08, 169.63 -1.89, 240.78 -0.49 M238.41 1.75 C242.08 19.43, 242.54 37.05, 240.88 61.45 M239.12 -0.24 C240.34 14.67, 239.88 28.6, 239.06 59.19 M240.66 60.5 C168.62 60.89, 95.1 61.93, -0.65 59.1 M240.81 59.27 C186.84 59.3, 133.12 58.59, -0.73 59.6 M0.45 60.93 C0.48 38.16, -1.7 14.56, -0.43 -1.36 M-0.04 60.53 C-0.22 46.03, 0.28 31.35, 0.01 -0.9" stroke="#c92a2a" stroke-width="1" fill="none"></path></g><g transform="translate(211 356.5) rotate(0 81 20)"><text x="81" y="14" font-family="Virgil, Segoe UI Emoji" font-size="16px" fill="#c92a2a" text-anchor="middle" style="white-space: pre;" direction="ltr">Supervisor Execution</text><text x="81" y="34" font-family="Virgil, Segoe UI Emoji" font-size="16px" fill="#c92a2a" text-anchor="middle" style="white-space: pre;" direction="ltr">Environment, SEE</text></g><g stroke-opacity="0.2" fill-opacity="0.2" transform="translate(474 386) rotate(0 64.5 12.5)"><text x="64.5" y="18" font-family="Virgil, Segoe UI Emoji" font-size="20px" fill="#e67700" text-anchor="middle" style="white-space: pre;" direction="ltr">@hemashushu</text></g><g stroke-linecap="round" transform="translate(171.5 177) rotate(0 120 30)"><path d="M0 0 C0 0, 0 0, 0 0 M0 0 C0 0, 0 0, 0 0 M0.52 7 C1.21 3.81, 2.73 2.36, 4.85 0.37 M-0.54 6.14 C1.32 4.8, 3.01 2.48, 4.77 0.37 M1.02 10.81 C3.25 9.48, 6.17 6.87, 11.34 0.41 M0.13 12.65 C2.47 9.37, 5.53 6.39, 10.37 -0.25 M-1.7 17.95 C7 11.51, 11.1 6.2, 15.56 -1.23 M0.46 19.35 C2.82 14.83, 6.08 9.68, 14.81 -0.06 M-0.39 25.98 C6.19 17.09, 16.36 5.97, 21.87 -2.02 M-0.4 24.8 C6.01 15.44, 13.39 8.34, 22.19 0.42 M0.87 28.5 C10.82 19, 22.13 8.78, 24.68 2 M-0.6 30.57 C5.97 23.11, 13.8 14.52, 25.35 0.48 M-0.02 38.62 C8.76 27.22, 17.2 17.66, 31.29 -2.1 M-1.23 37.1 C11 22.75, 22.13 10.59, 32.3 0.87 M1.81 43.23 C11.53 28, 23.49 17.39, 37.5 0.4 M0.84 43.48 C11.5 29.74, 23.19 15.6, 37.09 0.11 M0.83 47.6 C14.84 29.93, 32.48 12.05, 43.53 -1.89 M-0.83 48.1 C16.26 29.46, 32.78 10.53, 42.17 -0.21 M0.49 54.36 C14.9 37.16, 28.42 23.78, 49.49 1.85 M-0.5 54.64 C11.03 42.37, 23.28 29.45, 47.33 0.95 M1.24 59.15 C11.53 46.77, 25.93 30.13, 51.29 -1.02 M1.29 59.74 C21.4 36.85, 41.57 12.58, 54.1 -0.6 M6.49 58.6 C21.49 42.14, 41.75 20.48, 60.1 1.72 M6.12 60.03 C23.25 40.82, 41.77 18.45, 58.64 0.07 M9.48 60.49 C25.98 47.28, 36.1 29, 62.26 1.43 M12.05 60.33 C25.68 41.51, 41.08 24.54, 64.16 0.38 M15.13 59.23 C34.27 37.81, 56 14.55, 70.75 0.94 M15.95 60.15 C31.51 43.6, 47.61 25.4, 67.84 0.54 M20.74 58.21 C42.09 38.99, 59.25 16.58, 73.09 0.88 M21.63 60.07 C39.16 40.27, 56.3 21.16, 75.19 -1.07 M25.42 60.1 C38.15 48.04, 46.74 38.08, 78.82 -0.04 M27.77 61.06 C47.85 37.48, 68.12 14.64, 79.02 0.41 M32.03 59.16 C44.49 42.52, 60.44 29, 83.4 1.3 M33.32 60.83 C50.88 39.48, 69.71 17.96, 85.8 -0.29 M36.61 59.56 C51.29 44.52, 64.43 27.91, 91.67 0.76 M37.38 61.22 C52.08 43.91, 66.38 26.4, 90.56 -0.28 M42.34 59.68 C62.44 35.52, 83.15 11.48, 93.78 1.2 M42.65 60.47 C59.18 43.43, 73.75 25.01, 95.33 -1.12 M48.92 58.46 C62.83 41.42, 78.9 24.99, 100.62 0.86 M47.32 60.61 C62.31 44.83, 77.35 28.79, 100.05 -0.51 M53.94 60.42 C64.67 45.26, 78.99 29.46, 107.77 -0.4 M53.79 60.55 C69.65 42.1, 84.22 24.32, 106.94 -0.93 M57.53 62.23 C76.47 39.24, 92.66 19.95, 110.95 -0.71 M57.91 59.67 C68.87 49.18, 79.99 36.7, 111.41 0.72 M65.08 61.29 C81.24 40.54, 100.54 18.67, 117.26 -1.19 M63.12 60.4 C85.43 36.02, 105.86 12.02, 115.85 1.16 M70.57 58.79 C82.72 46.62, 94.98 32.99, 119.93 -1.35 M70.23 60.34 C89.51 36.51, 109.72 13.01, 121.78 -0.61 M75.98 60 C85.16 45.41, 96.81 31.75, 127.04 -0.57 M74.33 60.57 C86.73 47.2, 98.07 35.06, 127.05 0.25 M79.19 60.61 C90.68 48.68, 99.8 36.08, 130.78 -0.98 M79.15 61.03 C93.64 44.76, 106.42 30.94, 132.59 -0.5 M85.48 59.03 C96.52 45.98, 113.01 32.23, 136.92 -1.17 M86.03 60.85 C102.07 40.06, 118.43 22.04, 138.31 1.19 M91.45 58.69 C105.45 46.64, 117 30.76, 142.71 0.07 M90.27 59.66 C105.96 41.97, 123.81 22.98, 142.52 -0.02 M96.42 60.4 C109.75 47, 122.39 32.72, 146.33 2.16 M96.09 60 C107.3 47.79, 117.01 34.97, 147.82 0.54 M102.42 60.57 C120.52 40.25, 137.98 16.54, 152.87 -1.05 M100.98 60.6 C112.8 48.64, 122.01 36.03, 154.52 -0.21 M105.58 59.64 C128.14 36.63, 147.81 13.51, 159.68 1.1 M106.65 60.77 C123.15 40.92, 141.36 21.54, 158.54 0.36 M112.12 60.3 C126.61 47.46, 139.27 32.62, 166.4 0.36 M111.42 59.73 C122.81 46.68, 133.02 35.7, 164.82 -1.15 M117.73 59.84 C136.8 36.88, 155.46 15.3, 168.33 -0.11 M117.13 60.92 C132.77 42.64, 146.93 24.96, 169.2 -0.79 M123.55 60.47 C135.88 43.5, 147.46 30.65, 174.41 -1.45 M123.52 59.4 C142.18 38.04, 162.67 13.39, 175.89 -0.93 M127.58 61.61 C142.05 44.93, 153.56 30.3, 180.62 1.26 M127.18 60.16 C140.4 45.77, 153.88 30.49, 179.29 1.11 M132.66 58.21 C146.85 42.91, 160.93 27.16, 183.96 -0.73 M133.94 59.46 C143.21 48.53, 155.46 34.11, 185.48 -0.65 M137.85 61.08 C155.22 42.65, 170.79 21.62, 191.86 0.5 M137.75 61.2 C155.46 41.51, 171.01 22.35, 190.07 0.57 M142.39 59.17 C154.78 47.62, 163.94 33.49, 196.1 -2.18 M143.13 60.24 C160.04 40.63, 177.47 20.73, 195.62 0.57 M149.18 59.92 C164.41 41.59, 180.92 22.78, 202.31 -0.59 M148.04 60.74 C166.49 40.96, 181.89 23.37, 201.56 -0.41 M152.65 59.54 C168.89 40.7, 182.06 23.39, 207.84 1.02 M154.3 59.53 C165.82 46.89, 176.9 34.2, 207.57 0.59 M158.22 59.34 C169.47 45.76, 180.98 33.99, 211.23 0.34 M158.51 60.44 C173.74 44.57, 185.7 28.25, 211.54 0.64 M166.29 60.04 C184.53 41.78, 199.19 18.72, 218.15 1.24 M164.43 59.63 C181.42 41.47, 196.92 24.34, 216.9 -0.75 M171.58 62.07 C187.15 38.59, 209.65 19.19, 222.83 0.16 M169.91 59.97 C185.52 43.5, 200.38 26.98, 222.58 -0.3 M174.5 60.66 C186.71 50.1, 195.39 34.23, 229.98 -1.64 M174.61 61.08 C190.47 42.98, 205.7 25.04, 228.4 -0.6 M179.81 62.37 C201.86 37.4, 220.32 14.86, 232.28 0.28 M180.22 59.98 C196.08 43.38, 210.7 24.64, 232.98 -0.78 M185.39 59.69 C198.44 46.78, 208.83 34.36, 239.59 -1.44 M185.64 60.64 C205.37 35.55, 227.73 12.01, 238.5 0.6 M191.47 60.04 C206.28 43.44, 222.75 22.43, 241.77 2.9 M191.72 61.09 C207.13 42.28, 222.94 24.09, 241.88 1.39 M198.1 60.18 C215.39 39.36, 233.94 17.58, 242.62 8.83 M197.16 60.79 C210.59 44.38, 223.22 28.81, 242.3 8.69 M203.06 58.41 C209.94 50.15, 220.23 38.3, 243.86 16.03 M201.93 60.92 C217.28 43.1, 231.58 26.02, 241.56 14.18 M207.35 60.98 C213.63 50.5, 223.61 42.26, 243.88 21.38 M207.19 59.77 C216.54 51.15, 223.76 41.27, 242.36 19.2 M213.06 58.33 C223.83 46.77, 234.58 32.4, 243.16 24.85 M212.66 61.07 C223.06 47.5, 235.51 35.23, 242.15 25.67 M216.86 59.45 C224.97 52.37, 230.17 45.57, 241.49 34.46 M218.55 61.31 C225.27 53.78, 230.8 44.92, 241.86 33.12 M223.92 60.19 C228.45 52.13, 237.98 43.59, 242.73 36.91 M222.96 60.11 C227.87 56.49, 231.06 51.14, 243.06 38.27 M229.32 61.52 C234.45 55.29, 239.38 47.57, 241.53 46.11 M227.79 61.59 C232.36 56, 235 52.63, 242.23 45.7 M232.68 61.31 C237.49 55.41, 239.45 53.36, 242.53 50.3 M234.06 60.48 C236.2 56.95, 239.09 54.16, 242.41 50.03 M239.24 60.32 C239.51 59.6, 239.99 59.01, 242.63 56.63 M238.71 60.49 C239.54 59.78, 240.32 58.94, 242.16 56.95" stroke="#fab00555" stroke-width="0.5" fill="none"></path><path d="M-1.11 0.39 C58.99 -2.01, 119.1 -0.29, 239.38 0.24 M0.76 -0.28 C73.81 -0.18, 146.86 1.27, 240.28 -0.16 M240.18 -1.13 C241.89 23.52, 239.23 43.61, 241.42 60.12 M240.34 -0.63 C240.13 15.88, 238.91 30.55, 239.75 59.29 M241.66 61.34 C175.09 57.55, 110.71 59.72, 0.45 58.49 M240.7 59.75 C169.91 60.16, 99.01 60.1, -0.42 59.93 M0.03 58.83 C-0.73 40.58, 2.24 24.27, -0.01 -0.32 M-0.63 60.88 C0.2 47.99, 0.59 35.07, 0.16 0.31" stroke="#ffaa33" stroke-width="1" fill="none"></path></g><g transform="translate(220 197) rotate(0 71.5 10)"><text x="71.5" y="14" font-family="Virgil, Segoe UI Emoji" font-size="16px" fill="#ffaa33" text-anchor="middle" style="white-space: pre;" direction="ltr">Bootloader/Kernel</text></g><g stroke-linecap="round" transform="translate(170 10) rotate(0 120 30)"><path d="M0 0 C0 0, 0 0, 0 0 M0 0 C0 0, 0 0, 0 0 M-0.59 7.14 C0.44 4.91, 2.33 2.62, 4.39 0.72 M-0.4 6.69 C1.8 4.48, 3.25 2.02, 5.12 0.57 M-0.64 10.78 C4.72 9.58, 6.68 4.1, 10.73 -1.62 M0.56 11.51 C3.9 7.53, 6.17 4.31, 10.18 0.75 M1.5 17.9 C4.14 10.31, 10.52 5.68, 14.01 1.79 M-0.01 18.93 C4.16 13.57, 8.77 8.11, 16.14 0.68 M-0.08 22.28 C6.9 14.74, 15.71 5.53, 22.19 0.52 M1.17 24.19 C6.3 16.84, 10.98 11.52, 20.84 0.25 M0.26 29.63 C6.81 23.04, 10.94 18.5, 24.86 0.48 M0.21 29.63 C10.91 17.49, 20.01 7.27, 26.72 0.33 M1.1 35.73 C13.18 20.92, 24.52 9.24, 31.83 -0.82 M-0.77 36.67 C10.13 24.27, 23 12.12, 31.19 -0.84 M2.13 43.03 C9.53 33.39, 15.49 21.91, 36.16 0.01 M0.86 43.09 C11.73 27.26, 23.79 14.09, 36.65 0.77 M-1.53 47.63 C16.04 28.59, 32.05 11.2, 41.77 0.9 M-0.41 49.44 C7.92 37.53, 17.82 28.85, 42.06 0.11 M-0.4 52.66 C10.44 41.56, 21.49 28.13, 46.51 1.05 M0.72 54.93 C17.85 34.28, 36.96 13.83, 47.03 1.22 M1.05 58.27 C16.68 44.47, 30.23 27.16, 53.66 1.58 M1.13 60.88 C14.01 44.07, 27.27 28, 53.43 0.34 M5.94 60.01 C18.15 48.6, 28.12 34.74, 59.07 0.24 M4.82 61.52 C24.91 37.62, 44.76 15.67, 57.45 0.13 M11.54 61.35 C30.82 38.72, 50.96 15.53, 62.67 0.08 M10.45 60.08 C29.6 38.22, 47.78 16.48, 63.23 -1.2 M14.69 59.57 C25.53 48.97, 37.71 37.32, 67.54 0.17 M16.9 61.02 C31.13 43.51, 44.56 27.88, 68.95 0.25 M20.16 58.41 C35.61 42.68, 52.07 24.55, 75.49 0.24 M22.56 60.28 C35.24 45.76, 46.81 31.3, 74.39 -0.76 M25.67 60.84 C47.79 37.5, 67.04 14.24, 78.13 -0.58 M26.46 60.4 C45.72 39.31, 65.59 15.67, 79.08 -0.44 M31.5 59.66 C45.84 42.08, 60.78 28.16, 84.37 0.88 M32.83 60.68 C49.18 41.31, 64.9 22.39, 85.82 -0.83 M37.51 62.25 C54.99 38.2, 76.63 16.78, 91.58 -1.46 M38.23 60.36 C51.17 44.46, 64.92 29.77, 90.86 0.35 M44.7 61.25 C55.71 47.49, 65.66 34.42, 97.06 -2.25 M44.1 60.73 C59.36 42.81, 73.41 25.12, 95.42 -1.14 M48.32 59.21 C64.36 42.03, 81.91 23.08, 101.18 2.02 M47.9 60.34 C64.31 42.07, 81.19 23.19, 99.82 0.12 M54.74 60.07 C62.86 49.51, 77.5 34.21, 106.86 1.62 M53.02 59.89 C69.82 41.62, 84.88 23.84, 107.07 0.35 M57.79 62.08 C75.33 44.37, 87.58 25.81, 110.73 0.35 M59.17 59.59 C78.47 37.01, 98.59 15.81, 110.95 0.7 M65.13 60.73 C77.41 42.74, 91.42 28.26, 117.95 0.94 M63.74 61.64 C76.4 46.8, 89.01 33.48, 116.97 1.19 M69.12 62.19 C80.62 46.94, 91.91 36.11, 120.59 -0.03 M68.73 60.08 C83.75 44.23, 97.37 28.5, 121.72 -0.88 M73.93 62.04 C87.3 46.65, 102.92 32.31, 125.98 0.88 M74.87 60.99 C93.6 37.33, 114.25 15.28, 127.28 0.46 M79.04 61.86 C98.56 39.71, 114.82 19.36, 133.62 1.31 M79.22 59.58 C94.49 44.07, 109.47 28.26, 133.11 0.73 M86.38 60.04 C104.73 36.13, 127.07 11.11, 136.2 1.86 M85.21 60.45 C103.77 39.53, 121.25 18.9, 137.18 0.23 M91.82 60.36 C104.04 46.17, 117.59 30.83, 141.22 0.74 M90.29 60.62 C106.35 43.94, 120.5 26.22, 142.56 0.11 M96.27 58.75 C111.94 42.52, 123.3 29.07, 148.02 -1.52 M96.01 59.8 C116.17 38.42, 137.16 14.15, 148.49 -0.4 M101.24 59.93 C117.45 39.91, 134.55 21.64, 153.34 0.61 M101.58 59.47 C112.22 45.88, 123.77 32.99, 153.01 0.12 M107.9 60.15 C119.1 46.85, 127.89 37.06, 160.4 -1.66 M106.02 61.08 C121 43.96, 135.72 27.83, 158.02 0.46 M112.64 59.79 C129.76 39.88, 151.4 16.6, 164.45 -0.75 M111.7 61.19 C123.48 45.87, 136.85 32.02, 163.88 -1.1 M118.12 62.17 C131.24 43.27, 147.15 26.32, 169.82 0 M116.47 59.62 C128.63 46.37, 139.73 32.79, 168.54 0.42 M120.87 62.12 C139.56 39.55, 161.49 17.06, 175.53 0.96 M123.25 60.6 C138.99 40.42, 156.82 20.17, 174.07 -1.18 M126.31 60.74 C144.88 39.14, 163.29 18.42, 180.29 -1.03 M128.08 60.98 C145.4 38.62, 164.58 16.53, 179.82 -0.12 M132.33 62.06 C145.1 44.43, 162.12 28.52, 184.12 -2.02 M133.8 59.29 C147.08 44.26, 161.02 29.56, 184.97 -0.46 M136.36 59.74 C153.6 39.85, 171.77 20.04, 189.36 1.75 M138.05 60.01 C151.32 47.1, 161.78 32.1, 191.62 1.02 M142.93 61.74 C159.83 40.5, 177.87 22.95, 198.28 0.54 M142.93 60.61 C159.5 42.45, 175.7 25.37, 195.44 -1.01 M150.72 61.02 C168.64 37.73, 191.09 13.82, 202.11 -0.19 M149.06 59.81 C165.21 41.8, 182.75 21.72, 200.69 0.75 M156.13 60.24 C166.69 44.02, 182.07 30.86, 206.61 -1.14 M155.19 60.67 C169.37 43.17, 184.75 26.93, 206.85 0.34 M160.34 62.41 C179.29 37.4, 197.01 13.89, 213.14 -0.43 M160.28 60.77 C176.73 40.22, 193.66 21.32, 211.73 -0.23 M164.9 59.62 C181.12 43.64, 195.08 25.05, 216.22 1.08 M165.11 59.36 C182.3 41.07, 197.59 22.87, 218.04 -0.94 M170.74 59.69 C188.12 41.37, 203.97 21.3, 220.59 0.44 M170.36 59.53 C186.06 41.5, 200.83 24.22, 222.47 -0.46 M173.11 59.65 C195.32 37.6, 216.11 11.87, 226.78 -0.66 M175.56 60.08 C188.9 45.65, 201.56 29.45, 228.33 -0.13 M179.93 60.63 C200.37 36.29, 221.23 16.29, 232.14 0.78 M180.44 59.98 C196.95 41.01, 212.08 23.9, 232.59 -0.71 M184.12 60.83 C204.68 40.76, 221.55 17.55, 239.8 0.5 M185.35 61.73 C201.58 42.07, 218.16 24.17, 237.87 0.49 M192.48 58.95 C206.91 45.46, 221.07 29.62, 241.01 2.2 M191.15 60.29 C206.51 42.8, 220.62 25.12, 242.81 1.27 M194.83 58.87 C210.99 43.75, 226.92 28.76, 240.77 8.68 M196.32 60.25 C214.34 40.8, 231.76 20.56, 242.72 7.22 M201.49 60.35 C211.85 49.75, 224.93 33.97, 241.38 14.54 M201.58 59.92 C213.51 46, 227.54 29.52, 241.21 14.79 M208.38 59.7 C218.54 48.76, 227.43 35.37, 240.89 21.64 M206.95 60.57 C218.64 48.13, 228.35 36.13, 241.61 20.3 M214.57 60.49 C223.31 46.4, 235.98 34.06, 242.04 27.28 M212.34 60.55 C222.16 50.1, 231.48 38.79, 241.98 26.56 M219.38 62.22 C224.47 53.25, 228.77 45.14, 241.23 31.62 M216.68 60.42 C223.42 52.49, 230.12 47.08, 241.08 31.75 M223.88 59.01 C229.69 50.1, 238.15 45.15, 240.79 38.65 M222.48 61.16 C227.94 55.32, 231.32 50.28, 242.74 38.87 M228.01 60.31 C234.97 54.87, 237.4 49.52, 243.41 43.1 M228.96 61.27 C233.44 56.28, 237.07 51.18, 241.21 44.1 M232.73 61.06 C236.93 57.44, 238.96 53.13, 242.76 51.35 M234.33 60.7 C237.69 56.12, 240.27 53.68, 242.22 50.63 M238.64 60.62 C239.98 58.69, 241.01 57.99, 242.51 57.28 M238.7 60.76 C239.89 59.49, 241.25 58.18, 242.24 56.95" stroke="#228be655" stroke-width="0.5" fill="none"></path><path d="M-0.9 0.61 C66.6 -0.94, 135.54 0.94, 240.65 -1.45 M-0.15 0.22 C59.73 0.19, 118.74 1.14, 240.31 0.57 M238.63 1.42 C240.15 22.21, 239.18 42.46, 240.07 61.25 M240.34 -0.78 C239.05 15.79, 240.72 31.66, 240.23 60.05 M239.84 58.41 C169.63 59.98, 96.32 58.95, -1.4 58.63 M240.17 59.48 C187.03 61.68, 134.09 61.39, 0.7 59.33 M1.47 59.73 C-0.75 41.61, -1.17 18.64, -0.59 -0.26 M-0.99 60.75 C0.14 35.43, -0.09 13.02, 0.79 0.9" stroke="#1864ab" stroke-width="1" fill="none"></path></g><g transform="translate(248 30) rotate(0 42 10)"><text x="42" y="14" font-family="Virgil, Segoe UI Emoji" font-size="16px" fill="#1864ab" text-anchor="middle" style="white-space: pre;" direction="ltr">Application</text></g><g stroke-linecap="round"><g transform="translate(100 113.5) rotate(0 212.9687162216008 -12.397800703047281)"><path d="M0.7 -0.18 C32.36 0.14, 134.53 2.1, 189.15 1.39 C243.76 0.69, 288.87 -0.11, 328.39 -4.41 C367.9 -8.7, 409.7 -20.88, 426.23 -24.37 M-0.39 -1.32 C31.74 -1.29, 136.78 0.13, 191.54 -0.26 C246.3 -0.65, 289.01 0.68, 328.14 -3.67 C367.28 -8.01, 409.92 -22.8, 426.33 -26.34" stroke="#5c940d" stroke-width="1" fill="none"></path></g></g><g stroke-linecap="round"><g transform="translate(100.5 122.5) rotate(0 209.48604016122408 11.412822599458906)"><path d="M-0.5 -0.79 C30.7 -0.89, 132.16 -1.28, 186.72 -0.83 C241.28 -0.38, 288.1 -2.23, 326.87 1.89 C365.63 6.01, 403.73 19.96, 419.32 23.9 M1.44 1.41 C32.61 1.46, 132.22 0.52, 186.28 0.27 C240.35 0.02, 286.97 -4.15, 325.84 -0.09 C364.7 3.98, 403.88 20.88, 419.47 24.68" stroke="#5c940d" stroke-width="1" fill="none"></path></g></g><g stroke-linecap="round"><g transform="translate(103.25000000000011 292) rotate(0 213.53190236542372 -12.898457687991908)"><path d="M-0.36 -0.06 C31.15 0.1, 135.55 1.31, 190.15 0.73 C244.76 0.14, 287.8 0.65, 327.27 -3.57 C366.73 -7.79, 410.48 -21.02, 426.94 -24.6 M1.66 -1.14 C32.94 -1.34, 135.29 -1.07, 189.42 -1.28 C243.55 -1.49, 286.77 1.85, 326.43 -2.39 C366.1 -6.62, 410.5 -23.01, 427.42 -26.68" stroke="#e67700" stroke-width="1" fill="none"></path></g></g><g stroke-linecap="round"><g transform="translate(103.75000000000011 301) rotate(0 209.78533254729575 11.519391986539574)"><path d="M-0.06 0.4 C30.98 0.44, 131.45 -0.33, 185.98 -0.12 C240.5 0.08, 288.04 -2.39, 327.11 1.64 C366.18 5.66, 404.93 20.35, 420.4 24.03 M-1.55 -0.43 C29.37 -0.17, 130.52 1.36, 185.15 1.35 C239.77 1.34, 286.88 -4.4, 326.21 -0.47 C365.54 3.45, 405.71 20.87, 421.12 24.88" stroke="#e67700" stroke-width="1" fill="none"></path></g></g><g transform="translate(496 107) rotate(0 20.5 12.5)"><text x="20.5" y="18" font-family="Virgil, Segoe UI Emoji" font-size="20px" fill="#5c940d" text-anchor="middle" style="white-space: pre;" direction="ltr">ABI</text></g><g transform="translate(496 286) rotate(0 20 12.5)"><text x="20" y="18" font-family="Virgil, Segoe UI Emoji" font-size="20px" fill="#e67700" text-anchor="middle" style="white-space: pre;" direction="ltr">SBI</text></g><g stroke-linecap="round"><g transform="translate(268 84) rotate(0 -0.20311963669951183 40.76201687566936)"><path d="M0.99 -0.11 C0.88 13.4, -1.27 68.13, -1.4 81.63" stroke="#1864ab" stroke-width="1.5" fill="none" stroke-dasharray="8 9"></path></g><g transform="translate(268 84) rotate(0 -0.20311963669951183 40.76201687566936)"><path d="M-11.09 51.68 C-9.12 61.13, -8.07 67.67, 0.16 80.84" stroke="#1864ab" stroke-width="1.5" fill="none"></path></g><g transform="translate(268 84) rotate(0 -0.20311963669951183 40.76201687566936)"><path d="M9.42 52.22 C6.49 61.71, 2.62 68.12, 0.16 80.84" stroke="#1864ab" stroke-width="1.5" fill="none"></path></g></g><g transform="translate(212.5 84.5) rotate(0 23.5 12.5)"><text x="23.5" y="18" font-family="Virgil, Segoe UI Emoji" font-size="20px" fill="#1864ab" text-anchor="middle" style="white-space: pre;" direction="ltr">ecall</text></g><g stroke-linecap="round"><g transform="translate(260.75 256.5) rotate(0 -0.06635124191785735 40.85521836169062)"><path d="M0.03 -1.05 C0.06 12.8, -0.04 68.73, -0.17 82.76" stroke="#ffaa33" stroke-width="1.5" fill="none" stroke-dasharray="8 9"></path></g><g transform="translate(260.75 256.5) rotate(0 -0.06635124191785735 40.85521836169062)"><path d="M-12.03 55.06 C-6.36 61.78, -3.05 70.38, 0.8 81.96" stroke="#ffaa33" stroke-width="1.5" fill="none"></path></g><g transform="translate(260.75 256.5) rotate(0 -0.06635124191785735 40.85521836169062)"><path d="M8.49 55.16 C8.59 61.86, 6.33 70.43, 0.8 81.96" stroke="#ffaa33" stroke-width="1.5" fill="none"></path></g></g><g transform="translate(205.25 257) rotate(0 23.5 12.5)"><text x="23.5" y="18" font-family="Virgil, Segoe UI Emoji" font-size="20px" fill="#ffaa33" text-anchor="middle" style="white-space: pre;" direction="ltr">ecall</text></g><g stroke-linecap="round"><g transform="translate(290 335.5) rotate(0 -0.3265085946768522 -42.0963736463338)"><path d="M-1.01 0.87 C-0.76 -13.25, 0.14 -70.79, 0.36 -85.06" stroke="#c92a2a" stroke-width="1.5" fill="none" stroke-dasharray="8 9"></path></g><g transform="translate(290 335.5) rotate(0 -0.3265085946768522 -42.0963736463338)"><path d="M11.63 -56.11 C6.51 -61.97, 5.02 -67.65, -0.3 -84.05" stroke="#c92a2a" stroke-width="1.5" fill="none"></path></g><g transform="translate(290 335.5) rotate(0 -0.3265085946768522 -42.0963736463338)"><path d="M-8.89 -56.43 C-9.86 -62.05, -7.2 -67.67, -0.3 -84.05" stroke="#c92a2a" stroke-width="1.5" fill="none"></path></g></g><g transform="translate(298 311.5) rotate(0 23 12.5)"><text x="23" y="18" font-family="Virgil, Segoe UI Emoji" font-size="20px" fill="#c92a2a" text-anchor="middle" style="white-space: pre;" direction="ltr">mret</text></g><g stroke-linecap="round"><g transform="translate(293.30501623506757 157.8120272265342) rotate(0 0.35910997799061306 -39.21399253427819)"><path d="M-0.09 -0.37 C0.05 -13.25, 0.67 -65.05, 0.81 -78.05" stroke="#ffaa33" stroke-width="1.5" fill="none" stroke-dasharray="8 9"></path></g><g transform="translate(293.30501623506757 157.8120272265342) rotate(0 0.35910997799061306 -39.21399253427819)"><path d="M10.12 -51.29 C9.24 -59.83, 5.75 -67.99, -0.21 -78.17" stroke="#ffaa33" stroke-width="1.5" fill="none"></path></g><g transform="translate(293.30501623506757 157.8120272265342) rotate(0 0.35910997799061306 -39.21399253427819)"><path d="M-10.4 -51.52 C-5.16 -59.98, -2.53 -68.07, -0.21 -78.17" stroke="#ffaa33" stroke-width="1.5" fill="none"></path></g></g><g transform="translate(303.5 139) rotate(0 22 12.5)"><text x="22" y="18" font-family="Virgil, Segoe UI Emoji" font-size="20px" fill="#ffaa33" text-anchor="middle" style="white-space: pre;" direction="ltr">sret</text></g><g transform="translate(10 16) rotate(0 51 18)"><text x="51" y="25" font-family="Virgil, Segoe UI Emoji" font-size="28px" fill="#1864ab" text-anchor="middle" style="white-space: pre;" direction="ltr">U-Mode</text></g><g transform="translate(12.5 187.5) rotate(0 49.5 18)"><text x="49.5" y="25" font-family="Virgil, Segoe UI Emoji" font-size="28px" fill="#ffaa33" text-anchor="middle" style="white-space: pre;" direction="ltr">S-Mode</text></g><g transform="translate(17 360.5) rotate(0 51.5 18)"><text x="51.5" y="25" font-family="Virgil, Segoe UI Emoji" font-size="28px" fill="#c92a2a" text-anchor="middle" style="white-space: pre;" direction="ltr">M-Mode</text></g></svg>