<svg version="1.1" xmlns="http://www.w3.org/2000/svg" viewBox="0 0 679 502" width="1358" height="1004">
  <!-- svg-source:excalidraw -->
  
  <defs>
    <style>
      @font-face {
        font-family: "Virgil";
        src: url("https://excalidraw.com/Virgil.woff2");
      }
      @font-face {
        font-family: "Cascadia";
        src: url("https://excalidraw.com/Cascadia.woff2");
      }
    </style>
  </defs>
  <rect x="0" y="0" width="679" height="502" fill="#ffffff"></rect><g stroke-linecap="round" transform="translate(328.5 56) rotate(0 94.5 95.25)"><path d="M6.36 18.78 C6.36 18.78, 6.36 18.78, 6.36 18.78 M6.36 18.78 C6.36 18.78, 6.36 18.78, 6.36 18.78 M2.16 29.71 C5.76 24.57, 10.27 19.68, 17.91 11.59 M2.16 29.71 C6.96 24.27, 11.75 20.2, 17.91 11.59 M4.53 33.09 C14.78 22.49, 23.77 8.8, 31.43 2.14 M4.53 33.09 C15.7 20.31, 24.43 9.72, 31.43 2.14 M3.61 40.24 C14.64 29.21, 20.73 17.21, 37.07 1.75 M3.61 40.24 C14.49 27.17, 25.94 14.28, 37.07 1.75 M1.38 48.9 C14.78 33.78, 30.6 13.94, 43.37 0.6 M1.38 48.9 C16.94 30.14, 34.19 11.33, 43.37 0.6 M1.78 54.54 C15.7 35.88, 30.43 18.96, 48.36 0.96 M1.78 54.54 C14.08 40.74, 25.71 25.83, 48.36 0.96 M1.51 60.94 C16.63 43.93, 28.47 27.42, 53.34 1.32 M1.51 60.94 C14.9 44.51, 29.82 29.62, 53.34 1.32 M1.91 66.58 C15.34 52.85, 28.2 37.49, 58.99 0.92 M1.91 66.58 C14.56 50.54, 27.95 36.82, 58.99 0.92 M1.65 72.98 C16.78 56.38, 28.14 43.12, 63.97 1.28 M1.65 72.98 C20.41 51.56, 40.83 29.05, 63.97 1.28 M1.39 79.38 C26.98 51.35, 51.7 21.58, 69.62 0.89 M1.39 79.38 C19.97 58.55, 37.79 36.79, 69.62 0.89 M1.78 85.02 C22.19 63.03, 38.97 42.73, 74.6 1.25 M1.78 85.02 C30.68 52.33, 57.74 19.21, 74.6 1.25 M1.52 91.42 C20.65 67.55, 41.81 46.52, 80.25 0.86 M1.52 91.42 C32.91 55.48, 64.37 20.73, 80.25 0.86 M1.91 97.06 C23.69 74.28, 43.14 47.97, 85.23 1.22 M1.91 97.06 C31.15 64.61, 59.6 31.85, 85.23 1.22 M1.65 103.46 C21.04 82.03, 38.72 63.57, 90.22 1.58 M1.65 103.46 C30.31 73.89, 57.71 41.37, 90.22 1.58 M1.39 109.86 C26.93 78.43, 56.69 44.72, 95.86 1.18 M1.39 109.86 C37 70.24, 71.96 31.24, 95.86 1.18 M1.78 115.5 C23.76 88.35, 50.89 58.03, 100.85 1.54 M1.78 115.5 C25.41 87.18, 49.24 60.61, 100.85 1.54 M1.52 121.9 C27.24 88.08, 56.93 58.74, 106.49 1.15 M1.52 121.9 C24.07 94.39, 46.89 67.46, 106.49 1.15 M1.92 127.54 C24.43 102.18, 47.25 75.84, 111.48 1.51 M1.92 127.54 C35.06 89.28, 66.43 51.2, 111.48 1.51 M1.66 133.94 C36.62 94.85, 67.43 57.54, 117.12 1.11 M1.66 133.94 C34.02 100.02, 62.83 64.61, 117.12 1.11 M2.05 139.58 C28.97 108.13, 58.13 76.36, 122.11 1.47 M2.05 139.58 C47.88 87.33, 93.08 35.97, 122.11 1.47 M1.79 145.98 C31.11 115.33, 59.16 82.12, 127.1 1.83 M1.79 145.98 C46.14 92.77, 91.18 41.06, 127.1 1.83 M2.84 150.87 C34.47 110.96, 70.55 72.45, 132.74 1.44 M2.84 150.87 C33.52 117.72, 61.09 85.36, 132.74 1.44 M3.89 155.76 C35.79 121.78, 67.24 85.51, 137.73 1.8 M3.89 155.76 C35.09 121.62, 64.47 87.33, 137.73 1.8 M4.29 161.4 C49.85 107.29, 100.94 52.78, 143.37 1.4 M4.29 161.4 C52.75 108.22, 98.66 53.51, 143.37 1.4 M5.34 166.29 C32.16 133.62, 62.86 100.27, 148.36 1.76 M5.34 166.29 C39.02 124.4, 74.63 84.57, 148.36 1.76 M7.7 169.67 C60.25 109.27, 113.44 51.66, 154 1.37 M7.7 169.67 C54.11 116.63, 100.95 62.54, 154 1.37 M9.41 173.8 C53.88 126.63, 93.65 79.35, 157.68 3.24 M9.41 173.8 C48.64 129.13, 86.67 84.11, 157.68 3.24 M11.11 177.94 C48.81 133.46, 89.94 88.82, 162.01 4.35 M11.11 177.94 C58.97 124.59, 106.62 69.85, 162.01 4.35 M14.13 180.56 C73.67 112.48, 131.94 44.51, 166.34 5.47 M14.13 180.56 C48.67 140.11, 82.67 100.45, 166.34 5.47 M17.15 183.19 C51.96 139.91, 89.35 98.81, 170.67 6.58 M17.15 183.19 C68.31 124.99, 118.65 65.39, 170.67 6.58 M20.83 185.05 C63.26 135.32, 107.66 88.12, 173.69 9.21 M20.83 185.05 C65.88 133.33, 111.38 81.7, 173.69 9.21 M23.84 187.68 C80.44 122.26, 136.09 60.68, 176.71 11.83 M23.84 187.68 C77.88 123.9, 133.59 59.4, 176.71 11.83 M28.17 188.79 C72.26 136.41, 119.5 82.36, 179.72 14.46 M28.17 188.79 C81.26 129.93, 133.27 68.33, 179.72 14.46 M33.16 189.15 C86.18 128.65, 136.04 69.9, 182.74 17.08 M33.16 189.15 C73.4 146.04, 111.26 101.94, 182.74 17.08 M37.49 190.27 C70.94 152.93, 104.72 113.55, 184.45 21.21 M37.49 190.27 C79.39 143.18, 119.2 95.93, 184.45 21.21 M42.48 190.63 C100.2 126.75, 156.36 64.68, 186.81 24.59 M42.48 190.63 C75.68 153.87, 108.98 115.07, 186.81 24.59 M47.47 190.99 C76.38 157.94, 106.71 122.79, 188.52 28.73 M47.47 190.99 C91.87 139.23, 135.21 89.09, 188.52 28.73 M53.11 190.59 C91.95 146.55, 131.65 101.31, 189.57 33.61 M53.11 190.59 C103.79 130.53, 153.38 72.22, 189.57 33.61 M58.1 190.95 C88.37 154.73, 118.78 121.13, 190.62 38.5 M58.1 190.95 C95.48 150.4, 131.29 108.39, 190.62 38.5 M63.74 190.56 C110.23 138.91, 155.39 83.28, 191.67 43.39 M63.74 190.56 C106.95 141.51, 149.28 91.68, 191.67 43.39 M68.73 190.92 C100.14 152.35, 133.98 112.6, 191.41 49.79 M68.73 190.92 C105.37 146.54, 144.15 103.93, 191.41 49.79 M73.71 191.28 C113.2 147.28, 152.79 98.21, 191.15 56.19 M73.71 191.28 C101.25 160.53, 129.65 127.16, 191.15 56.19 M79.36 190.89 C115.46 147.12, 153.75 104.31, 191.54 61.83 M79.36 190.89 C122.03 140.97, 166.87 91.02, 191.54 61.83 M84.34 191.25 C110.03 158.29, 138.44 127.52, 191.28 68.23 M84.34 191.25 C123.47 147.16, 161.74 102, 191.28 68.23 M89.99 190.85 C131.42 145.9, 168.56 99.62, 191.68 73.87 M89.99 190.85 C110.45 168.43, 131.02 144.08, 191.68 73.87 M94.97 191.21 C126.02 154.22, 162.04 114.54, 191.41 80.27 M94.97 191.21 C122.68 159.74, 149.25 128.82, 191.41 80.27 M100.62 190.82 C127.63 163.27, 152.23 130.48, 191.15 86.67 M100.62 190.82 C122.46 168.03, 144.02 141.88, 191.15 86.67 M105.6 191.18 C139.28 154.36, 170.73 118.91, 191.55 92.31 M105.6 191.18 C129.86 162.75, 153.96 135.47, 191.55 92.31 M111.25 190.78 C142.29 153.46, 174.73 119.06, 191.29 98.71 M111.25 190.78 C136.61 160.47, 161.85 132.33, 191.29 98.71 M116.23 191.14 C136.52 169.97, 155.45 145.01, 191.68 104.35 M116.23 191.14 C145.74 157.99, 176.3 124.05, 191.68 104.35 M121.88 190.75 C146.67 158.64, 175.31 129.55, 191.42 110.75 M121.88 190.75 C141.17 168.12, 160.25 147.66, 191.42 110.75 M126.86 191.11 C147.23 168.75, 168.57 143.84, 191.16 117.15 M126.86 191.11 C147.7 166.52, 169.97 141.54, 191.16 117.15 M132.51 190.71 C145.2 175.32, 159.54 157.9, 191.55 122.79 M132.51 190.71 C147.74 173.52, 163.62 155.08, 191.55 122.79 M137.49 191.07 C158.09 170.38, 176.78 145.96, 191.29 129.19 M137.49 191.07 C156.27 169.83, 175.63 146.03, 191.29 129.19 M143.14 190.68 C153.89 175.97, 165.88 164.86, 191.69 134.83 M143.14 190.68 C155.78 176.97, 168.43 161.6, 191.69 134.83 M148.12 191.04 C158.63 181.28, 167.55 166.67, 191.42 141.23 M148.12 191.04 C158.24 178.15, 168.81 166.15, 191.42 141.23 M154.42 189.89 C167.98 176.84, 179.52 158.69, 189.19 149.89 M154.42 189.89 C166.04 175.74, 178.59 162.41, 189.19 149.89 M160.72 188.74 C169.79 181.11, 176.52 169.56, 187.62 157.8 M160.72 188.74 C167.05 181.73, 174.1 172.66, 187.62 157.8 M165.05 189.85 C173.64 181.9, 181.55 171.62, 185.39 166.46 M165.05 189.85 C168.96 185.27, 173.94 180.29, 185.39 166.46" stroke="#be4bdb" stroke-width="0.5" fill="none"></path><path d="M47.25 0 M47.25 0 C86.15 0.72, 121.89 -1.52, 141.75 0 M47.25 0 C83.82 -0.25, 121.18 -0.5, 141.75 0 M141.75 0 C171.8 -1.69, 187.19 15.29, 189 47.25 M141.75 0 C173.88 -0.64, 187.38 15.8, 189 47.25 M189 47.25 C190.22 72.43, 189.39 94.89, 189 143.25 M189 47.25 C187.91 84.32, 188.61 121.31, 189 143.25 M189 143.25 C190.16 175.74, 172.6 189.32, 141.75 190.5 M189 143.25 C190.64 174.4, 172.29 189.71, 141.75 190.5 M141.75 190.5 C112.78 189.48, 78.58 188.92, 47.25 190.5 M141.75 190.5 C121.43 189.73, 100.48 190.52, 47.25 190.5 M47.25 190.5 C14.94 189.87, 1.38 174.91, 0 143.25 M47.25 190.5 C13.81 189.16, -1.44 176.58, 0 143.25 M0 143.25 C0.05 113.67, 1.24 84.46, 0 47.25 M0 143.25 C1.05 108.1, 0.41 72.41, 0 47.25 M0 47.25 C-1.98 17.28, 14.22 1.54, 47.25 0 M0 47.25 C0.31 15.41, 17.28 -0.58, 47.25 0" stroke="#862e9c" stroke-width="1" fill="none"></path></g><g transform="translate(387 10) rotate(0 27.5 18)"><text x="0" y="25" font-family="Virgil, Segoe UI Emoji" font-size="28px" fill="#862e9c" text-anchor="start" style="white-space: pre;" direction="ltr">.got</text></g><g stroke-linecap="round" transform="translate(329.25 267.5) rotate(0 94.5 85.5)"><path d="M10.72 10.65 C10.72 10.65, 10.72 10.65, 10.72 10.65 M10.72 10.65 C10.72 10.65, 10.72 10.65, 10.72 10.65 M3.9 24.59 C8.89 20.73, 11.16 15.37, 21.61 4.21 M3.9 24.59 C10.25 16.46, 18.53 8.72, 21.61 4.21 M1.67 33.25 C7.96 27.33, 11.15 20.03, 26.6 4.57 M1.67 33.25 C8.98 24.03, 17.81 15.69, 26.6 4.57 M1.41 39.65 C14.14 26.66, 25.94 11.33, 32.24 4.18 M1.41 39.65 C12.12 28.76, 21.55 16.99, 32.24 4.18 M1.8 45.29 C11.09 34.97, 19.69 27.69, 38.54 3.03 M1.8 45.29 C16.5 28.58, 30.02 11.84, 38.54 3.03 M1.54 51.69 C14.65 37.66, 24.41 24.82, 44.84 1.88 M1.54 51.69 C12.84 38.95, 23.38 25.81, 44.84 1.88 M1.28 58.09 C19.21 36.72, 41.16 12.7, 49.83 2.24 M1.28 58.09 C15.93 42.6, 28.71 24.89, 49.83 2.24 M1.68 63.73 C14.15 48.28, 30.58 29.68, 55.47 1.85 M1.68 63.73 C19.39 43.74, 36.9 22.13, 55.47 1.85 M1.41 70.13 C22.6 42.61, 46.45 19.95, 60.46 2.21 M1.41 70.13 C14.35 56.23, 27.25 41.2, 60.46 2.21 M1.81 75.77 C20.06 53.96, 35.5 35.37, 66.1 1.81 M1.81 75.77 C21.24 54.08, 38.86 34.82, 66.1 1.81 M1.55 82.17 C16.29 67.66, 32.05 48.8, 71.09 2.17 M1.55 82.17 C21.1 58.61, 41.1 35.65, 71.09 2.17 M1.29 88.57 C29.4 57.44, 59.12 21.77, 76.73 1.78 M1.29 88.57 C25.23 62.52, 48.05 36.15, 76.73 1.78 M1.68 94.21 C30.81 60.34, 60.51 23.77, 81.72 2.14 M1.68 94.21 C22.05 70.84, 43.89 47.3, 81.72 2.14 M1.42 100.61 C19.87 78, 36.32 60.89, 87.36 1.74 M1.42 100.61 C34.23 63.33, 66.7 26.55, 87.36 1.74 M1.81 106.25 C34.24 72.97, 63.1 37.17, 92.35 2.1 M1.81 106.25 C37.71 67.04, 71.49 27.22, 92.35 2.1 M1.55 112.65 C37.24 73.65, 67.94 33.43, 97.34 2.46 M1.55 112.65 C33.38 77.03, 62.88 41.25, 97.34 2.46 M1.29 119.05 C39.29 76.81, 76.36 30.04, 102.98 2.07 M1.29 119.05 C37.13 77.65, 72.17 38.17, 102.98 2.07 M1.69 124.69 C38.24 84.2, 76.25 41.06, 107.97 2.43 M1.69 124.69 C38.51 82.26, 73.48 40.49, 107.97 2.43 M1.42 131.09 C44.83 83.99, 86.69 38.24, 113.61 2.03 M1.42 131.09 C40.83 89.16, 76.62 45.38, 113.61 2.03 M1.82 136.73 C35.62 95.56, 71.03 56.38, 118.6 2.39 M1.82 136.73 C35.54 96.51, 71.73 55.87, 118.6 2.39 M3.53 140.87 C28.96 107.87, 58.2 76.12, 124.24 2 M3.53 140.87 C45.41 90.57, 91.03 39.32, 124.24 2 M5.23 145 C39.29 108.25, 69.19 73.76, 129.23 2.36 M5.23 145 C35.22 112.58, 64.36 79.32, 129.23 2.36 M6.28 149.89 C37.2 115.72, 64 79.66, 134.21 2.72 M6.28 149.89 C53.14 96.5, 100.97 41.84, 134.21 2.72 M6.68 155.53 C41.43 116.24, 79.39 74.6, 139.86 2.33 M6.68 155.53 C37.68 118.01, 71.46 79.61, 139.86 2.33 M9.7 158.16 C52.09 110.64, 97.04 59.52, 144.84 2.69 M9.7 158.16 C49.53 112.73, 89.25 67.8, 144.84 2.69 M12.06 161.53 C51.62 116.95, 90.91 71.62, 150.49 2.29 M12.06 161.53 C68.21 97.58, 123.68 34.12, 150.49 2.29 M15.73 163.4 C71.95 100.71, 123.26 39.87, 156.79 1.14 M15.73 163.4 C43.73 129.23, 73.99 96.51, 156.79 1.14 M18.75 166.03 C53.74 122.64, 92.64 80.96, 161.12 2.26 M18.75 166.03 C53.01 128.61, 85.9 90.55, 161.12 2.26 M22.43 167.9 C76.15 107.99, 125.68 49.14, 165.45 3.37 M22.43 167.9 C79.72 103.93, 133.54 41.47, 165.45 3.37 M26.1 169.77 C61.39 126.39, 100.19 82.98, 169.12 5.24 M26.1 169.77 C61.43 128.69, 98.7 87.76, 169.12 5.24 M30.43 170.88 C84.79 107.82, 138.74 43.6, 172.8 7.11 M30.43 170.88 C62.82 135.03, 96.09 97.23, 172.8 7.11 M34.76 172 C85.73 114.55, 136.56 55.13, 175.82 9.73 M34.76 172 C67.02 137.13, 98.24 101.48, 175.82 9.73 M39.75 172.36 C66.76 139.33, 95 104.64, 179.49 11.6 M39.75 172.36 C90.37 115.79, 140.24 58.52, 179.49 11.6 M45.39 171.96 C96.28 114.52, 145.61 59.79, 181.86 14.98 M45.39 171.96 C83.69 129.76, 122.27 85.51, 181.86 14.98 M50.38 172.32 C94.86 117.5, 144.3 67.59, 183.56 19.12 M50.38 172.32 C88.01 127.17, 128.54 82.41, 183.56 19.12 M56.03 171.93 C84.31 137.24, 115.14 105.73, 185.92 22.5 M56.03 171.93 C86.96 135.64, 118.49 100.31, 185.92 22.5 M61.01 172.29 C113.99 115.31, 160.83 56.88, 188.29 25.87 M61.01 172.29 C86.57 142.73, 113.45 113.29, 188.29 25.87 M66.66 171.89 C101.48 131.57, 132.52 96.54, 189.34 30.76 M66.66 171.89 C97.26 136.94, 129.03 100.21, 189.34 30.76 M71.64 172.25 C107.26 131.92, 142.49 92.56, 189.73 36.41 M71.64 172.25 C113.08 123.18, 154.43 77.42, 189.73 36.41 M76.63 172.61 C121.06 121.8, 164.88 70.44, 189.47 42.8 M76.63 172.61 C119.14 123.63, 162.45 74.19, 189.47 42.8 M82.27 172.22 C104.21 143.74, 129.39 118.5, 189.21 49.2 M82.27 172.22 C103.81 146.75, 124.43 121.25, 189.21 49.2 M87.26 172.58 C108.98 146.27, 130.51 124.96, 188.95 55.6 M87.26 172.58 C109.06 147.89, 131.15 120.41, 188.95 55.6 M92.9 172.18 C128.36 133.37, 160.23 93.22, 189.34 61.24 M92.9 172.18 C130.51 131.43, 166.97 88.19, 189.34 61.24 M97.89 172.54 C128.3 136.66, 158.78 100.62, 189.08 67.64 M97.89 172.54 C119.44 147.44, 141.33 122.2, 189.08 67.64 M103.53 172.15 C129.15 141.03, 154.25 114.37, 188.82 74.04 M103.53 172.15 C128.45 142.05, 154.41 112.43, 188.82 74.04 M108.52 172.51 C132.17 140.48, 158.86 113.43, 189.21 79.68 M108.52 172.51 C132.11 144.41, 154.15 118.59, 189.21 79.68 M113.51 172.87 C132.1 150.2, 147.11 133.6, 188.95 86.08 M113.51 172.87 C135.06 147.38, 157.4 121.78, 188.95 86.08 M119.15 172.48 C137.68 151.21, 159.34 128.45, 188.69 92.48 M119.15 172.48 C138.31 151.97, 155.21 130.89, 188.69 92.48 M124.14 172.84 C147.01 146.88, 171.15 117.43, 189.09 98.12 M124.14 172.84 C144.92 149.39, 165.04 125.94, 189.09 98.12 M129.78 172.44 C146.73 153.55, 163.94 133.28, 188.82 104.52 M129.78 172.44 C144.73 155.78, 159.44 138.83, 188.82 104.52 M134.77 172.8 C151.35 155.85, 167.35 136.73, 188.56 110.92 M134.77 172.8 C147.73 158.29, 161.14 143.6, 188.56 110.92 M140.41 172.41 C156.7 153.44, 174.68 134.23, 188.96 116.56 M140.41 172.41 C157.97 151.63, 176.69 129.35, 188.96 116.56 M146.71 171.26 C156.67 156.78, 170.11 143.01, 188.7 122.96 M146.71 171.26 C161.69 155.22, 177 137.81, 188.7 122.96 M153.01 170.11 C163.98 158.88, 171.79 146.6, 188.44 129.35 M153.01 170.11 C166.25 154.97, 178.79 140.19, 188.44 129.35 M158.65 169.71 C166.94 158.18, 176.92 148.69, 188.83 135 M158.65 169.71 C166.69 160.1, 173.16 152, 188.83 135 M164.95 168.56 C175.69 156.24, 183.77 146.18, 189.88 139.89 M164.95 168.56 C174.28 158.1, 183.4 146.36, 189.88 139.89 M175.84 162.13 C177.35 158.56, 180.84 156.33, 187.65 148.55 M175.84 162.13 C179.77 157.48, 185.63 151.18, 187.65 148.55" stroke="#82c91e" stroke-width="0.5" fill="none"></path><path d="M42.75 0 M42.75 0 C65.87 1.23, 86.63 0.65, 146.25 0 M42.75 0 C82.28 0, 123.54 0.66, 146.25 0 M146.25 0 C174.65 1.08, 190.53 13.94, 189 42.75 M146.25 0 C176.7 -2.03, 191.08 13.18, 189 42.75 M189 42.75 C188.54 63.91, 189.72 87, 189 128.25 M189 42.75 C189.31 70.51, 188.83 100.78, 189 128.25 M189 128.25 C190.61 158.66, 174.38 171.65, 146.25 171 M189 128.25 C188.42 158.82, 175.81 173.2, 146.25 171 M146.25 171 C124.96 170.32, 100.51 170.24, 42.75 171 M146.25 171 C105.97 169.94, 64.32 170.3, 42.75 171 M42.75 171 C12.46 170.76, -1.89 156.44, 0 128.25 M42.75 171 C13.51 171.56, -2.13 158.69, 0 128.25 M0 128.25 C-0.15 92.99, -0.6 62.42, 0 42.75 M0 128.25 C0.28 95.02, 0.84 62.8, 0 42.75 M0 42.75 C1.09 13.21, 14.94 -0.46, 42.75 0 M0 42.75 C-0.72 12.36, 11.96 0.86, 42.75 0" stroke="#5c940d" stroke-width="1" fill="none"></path></g><g stroke-linecap="round" transform="translate(343.25 355.5) rotate(0 80 15)"><path d="M6.96 1.05 L156.29 -1.04 L159.49 4.55 L157.63 27.48 L156.7 26.91 L150.51 28.21 L5.96 29.79 L1.97 26.05 L-0.93 7.41 L1.88 2.36 L8.81 -1.73" stroke="none" stroke-width="0" fill="#ffffff"></path><path d="M7.5 0 M7.5 0 C58.24 -0.26, 110.08 2.51, 152.5 0 M7.5 0 C50.33 1.06, 92.85 0.02, 152.5 0 M152.5 0 C156.46 0.12, 160.65 1.26, 160 7.5 M152.5 0 C156.99 -1.39, 162.26 2.1, 160 7.5 M160 7.5 C160.33 13.99, 160.08 18.88, 160 22.5 M160 7.5 C160.42 13.13, 159.82 18.11, 160 22.5 M160 22.5 C158.59 29.4, 156.24 31.26, 152.5 30 M160 22.5 C159.01 29.16, 159.28 32.14, 152.5 30 M152.5 30 C109.05 29.07, 65.16 29.83, 7.5 30 M152.5 30 C106.91 30.66, 62.06 30.57, 7.5 30 M7.5 30 C2.57 28.16, 0.35 26.86, 0 22.5 M7.5 30 C1.5 28.53, 2.15 25.73, 0 22.5 M0 22.5 C1.04 16.46, 0.02 13.43, 0 7.5 M0 22.5 C-0.6 18.39, -0.35 16.01, 0 7.5 M0 7.5 C-1.04 0.98, 3.5 0.38, 7.5 0 M0 7.5 C-1 3.2, 3.25 1.18, 7.5 0" stroke="#5c940d" stroke-width="1" fill="none"></path></g><g transform="translate(402.75 360.5) rotate(0 20.5 10)"><text x="20.5" y="14" font-family="Virgil, Segoe UI Emoji" font-size="16px" fill="#5c940d" text-anchor="middle" style="white-space: pre;" direction="ltr">0x0b</text></g><g transform="translate(530.25 360.5) rotate(0 45.5 12.5)"><text x="0" y="18" font-family="Virgil, Segoe UI Emoji" font-size="20px" fill="#000000" text-anchor="start" style="white-space: pre;" direction="ltr">0x75000</text></g><g transform="translate(385.25 456) rotate(0 39.5 18)"><text x="0" y="25" font-family="Virgil, Segoe UI Emoji" font-size="28px" fill="#5c940d" text-anchor="start" style="white-space: pre;" direction="ltr">.data</text></g><g stroke-opacity="0.3" fill-opacity="0.3" transform="translate(540 456.5) rotate(0 64.5 12.5)"><text x="0" y="18" font-family="Virgil, Segoe UI Emoji" font-size="20px" fill="#d9480f" text-anchor="start" style="white-space: pre;" direction="ltr">@hemashushu</text></g><g stroke-linecap="round" transform="translate(14 79.5) rotate(0 84 32.5)"><path d="M16.96 -1.43 L157.46 1.6 L164.24 6.82 L167.94 12.33 L168.14 56.59 L159.78 63.58 L150.01 64.78 L9.63 62.29 L1.1 58.91 L-0.08 52.72 L1.41 13.36 L0.72 7.86 L5.31 0.98 L16.12 -1.36" stroke="none" stroke-width="0" fill="#ffffff"></path><path d="M16.25 0 M16.25 0 C50.65 -0.61, 87.26 -0.09, 151.75 0 M16.25 0 C49.13 0.37, 83.31 0.61, 151.75 0 M151.75 0 C160.89 -1.66, 168.5 5.13, 168 16.25 M151.75 0 C162.12 -1.64, 169.68 5.89, 168 16.25 M168 16.25 C169.15 29.26, 168.19 38.35, 168 48.75 M168 16.25 C168.2 25.5, 168.19 34.78, 168 48.75 M168 48.75 C166.3 59.14, 162.86 64.74, 151.75 65 M168 48.75 C166.81 61.31, 162.34 64.77, 151.75 65 M151.75 65 C112.04 66.84, 72.22 66.64, 16.25 65 M151.75 65 C109.79 65.11, 66.73 64.89, 16.25 65 M16.25 65 C5.06 63.84, 0.73 60.75, 0 48.75 M16.25 65 C7.09 63.16, -0.47 58.65, 0 48.75 M0 48.75 C-0.42 35.17, 1.47 24.08, 0 16.25 M0 48.75 C0.01 36.92, -1.14 26.56, 0 16.25 M0 16.25 C-0.42 5.7, 5.32 -1.91, 16.25 0 M0 16.25 C0.94 7.09, 4.57 -1.31, 16.25 0" stroke="#1864ab" stroke-width="1" fill="none"></path></g><g transform="translate(32 102) rotate(0 66 10)"><text x="66" y="14" font-family="Virgil, Segoe UI Emoji" font-size="16px" fill="#1864ab" text-anchor="middle" style="white-space: pre;" direction="ltr">int i = e_number</text></g><g transform="translate(230 143) rotate(0 41 12.5)"><text x="0" y="18" font-family="Virgil, Segoe UI Emoji" font-size="20px" fill="#000000" text-anchor="start" style="white-space: pre;" direction="ltr">0x77148</text></g><g stroke-linecap="round" transform="translate(338.25 134) rotate(0 85.24999999999994 19)"><path d="M11.14 0.24 L164.78 0.94 L168.45 4.47 L169.15 34 L168.64 35.84 L161.79 36.75 L7.18 38.41 L-1.01 34.13 L1.94 9.82 L0.69 3.14 L8.94 0.34" stroke="none" stroke-width="0" fill="#ffffff"></path><path d="M9.5 0 M9.5 0 C63.02 0.44, 117.19 2.24, 161 0 M9.5 0 C53.93 -0.57, 98.81 -0.45, 161 0 M161 0 C169.13 -0.07, 169.68 2.86, 170.5 9.5 M161 0 C167 1.26, 172.19 5.43, 170.5 9.5 M170.5 9.5 C171.47 14.15, 171.19 23.87, 170.5 28.5 M170.5 9.5 C170.47 14.11, 170.74 19.73, 170.5 28.5 M170.5 28.5 C171.07 35.25, 166.78 38.18, 161 38 M170.5 28.5 C168.89 35.94, 167.88 39.98, 161 38 M161 38 C126.55 36.46, 95.37 38.67, 9.5 38 M161 38 C122.07 37.66, 80.37 35.81, 9.5 38 M9.5 38 C1.51 37.09, -0.42 36.29, 0 28.5 M9.5 38 C2.1 36.3, -0.19 36.17, 0 28.5 M0 28.5 C0.62 25.75, -0.56 19.73, 0 9.5 M0 28.5 C0.68 23.29, 0.44 17.54, 0 9.5 M0 9.5 C-0.77 1.7, 4.7 -0.04, 9.5 0 M0 9.5 C1.19 4.31, 2.54 1.43, 9.5 0" stroke="#5f3dc4" stroke-width="1" fill="none"></path></g><g transform="translate(350.1200980392159 145) rotate(0 37 10)"><text x="0" y="14" font-family="Virgil, Segoe UI Emoji" font-size="16px" fill="#5f3dc4" text-anchor="start" style="white-space: pre;" direction="ltr">0x75000</text></g><g stroke-linecap="round" transform="translate(340.25 86.5) rotate(0 83.99999999999994 19)"><path d="M9.77 0.41 L161.59 1.36 L166.62 5.81 L167.13 33.79 L164.83 36.2 L159.4 36.42 L6.23 39.16 L1.11 31.4 L-1.27 9.74 L2.82 3.79 L10.48 -0.58" stroke="none" stroke-width="0" fill="#ffffff"></path><path d="M9.5 0 M9.5 0 C43.88 -1.55, 75.48 -0.41, 158.5 0 M9.5 0 C64.89 0.66, 121.12 0.84, 158.5 0 M158.5 0 C163.84 -1.24, 168.78 4.16, 168 9.5 M158.5 0 C163.47 0.06, 167.04 5.19, 168 9.5 M168 9.5 C169.37 13.69, 168.63 19.04, 168 28.5 M168 9.5 C168.12 16.12, 168.82 21.16, 168 28.5 M168 28.5 C168.34 33.38, 166.43 39.49, 158.5 38 M168 28.5 C169.09 36.13, 165.48 38.69, 158.5 38 M158.5 38 C103.88 40.08, 46.57 39.77, 9.5 38 M158.5 38 C127.73 39.61, 96.77 38.73, 9.5 38 M9.5 38 C5.12 37.07, -1.88 33.92, 0 28.5 M9.5 38 C1.36 39.49, -1.68 33.4, 0 28.5 M0 28.5 C-0.73 20.87, 1.02 13.81, 0 9.5 M0 28.5 C-0.2 23.99, 0.72 19.33, 0 9.5 M0 9.5 C-0.08 3.09, 3.52 1.44, 9.5 0 M0 9.5 C-1.97 2.14, 3.47 0.64, 9.5 0" stroke="#5f3dc4" stroke-width="1" fill="none"></path></g><g transform="translate(349.6200980392159 97.5) rotate(0 14 10)"><text x="0" y="14" font-family="Virgil, Segoe UI Emoji" font-size="16px" fill="#5f3dc4" text-anchor="start" style="white-space: pre;" direction="ltr">......</text></g><g stroke-linecap="round" transform="translate(339.75 181.5) rotate(0 84.24999999999994 18.5)"><path d="M9.77 -1.26 L162.02 0.81 L168.37 6.62 L168.9 31.21 L164.55 33.63 L160.99 38.89 L4.95 37.41 L1.46 33.22 L1.9 7.7 L2.45 1.31 L11.18 -0.64" stroke="none" stroke-width="0" fill="#ffffff"></path><path d="M9.25 0 M9.25 0 C47.76 -1.77, 84.33 -1.42, 159.25 0 M9.25 0 C68.3 -0.4, 125.55 -0.79, 159.25 0 M159.25 0 C166 0.42, 168.96 1.4, 168.5 9.25 M159.25 0 C165.59 1.27, 170.38 1.79, 168.5 9.25 M168.5 9.25 C169.74 15.99, 169.41 21.5, 168.5 27.75 M168.5 9.25 C168.9 16.23, 169.42 21.97, 168.5 27.75 M168.5 27.75 C169.87 32.09, 165.88 38.16, 159.25 37 M168.5 27.75 C169.29 35.64, 166.56 36.68, 159.25 37 M159.25 37 C98.71 34.03, 41.28 34.13, 9.25 37 M159.25 37 C123.93 38.02, 87.49 38.95, 9.25 37 M9.25 37 C2.05 35.91, -0.96 33.64, 0 27.75 M9.25 37 C2.38 37.39, 1.52 34.31, 0 27.75 M0 27.75 C1.34 20.69, -0.82 17.05, 0 9.25 M0 27.75 C-0.45 20.94, -0.67 15.6, 0 9.25 M0 9.25 C0.4 1.94, 2.09 -1.6, 9.25 0 M0 9.25 C2.27 4.28, 1.21 -2.22, 9.25 0" stroke="#5f3dc4" stroke-width="1" fill="none"></path></g><g transform="translate(351.6200980392159 192.5) rotate(0 14 10)"><text x="0" y="14" font-family="Virgil, Segoe UI Emoji" font-size="16px" fill="#5f3dc4" text-anchor="start" style="white-space: pre;" direction="ltr">......</text></g><g stroke-linecap="round" transform="translate(10 339.5) rotate(0 84 29.5)"><path d="M13.57 1.32 L158.02 1.93 L167.65 5.36 L167.48 10.46 L165.12 49.69 L164.23 58.1 L153.93 59.28 L7.77 59 L4.03 54.74 L-1.51 49.16 L1.78 10.89 L3.96 2.71 L6.91 0.04 L14 -0.93" stroke="none" stroke-width="0" fill="#ffffff"></path><path d="M14.75 0 M14.75 0 C54.44 -1.76, 95.25 -2.4, 153.25 0 M14.75 0 C44.45 -1.63, 73.44 -0.15, 153.25 0 M153.25 0 C164.09 -1.78, 166.5 5.05, 168 14.75 M153.25 0 C163.45 1.97, 169.44 4.29, 168 14.75 M168 14.75 C167.95 23.95, 166.66 30.11, 168 44.25 M168 14.75 C168.2 25.92, 167.76 34.78, 168 44.25 M168 44.25 C167 55.1, 161.4 59.16, 153.25 59 M168 44.25 C166.71 53.6, 164.19 60.97, 153.25 59 M153.25 59 C111.44 58.35, 71.18 57.29, 14.75 59 M153.25 59 C121.8 58.07, 88.6 57.76, 14.75 59 M14.75 59 C4.41 60.68, 1.61 54.95, 0 44.25 M14.75 59 C6.3 60.6, 1.67 54.41, 0 44.25 M0 44.25 C-1.98 34.75, 1.01 25.6, 0 14.75 M0 44.25 C0.46 33.24, 0.66 21.42, 0 14.75 M0 14.75 C-0.76 5.39, 6.31 -1.87, 14.75 0 M0 14.75 C-0.31 6.73, 6.83 -1.13, 14.75 0" stroke="#5c940d" stroke-width="1" fill="none"></path></g><g transform="translate(44 356.5) rotate(0 50 12.5)"><text x="50" y="18" font-family="Virgil, Segoe UI Emoji" font-size="20px" fill="#5c940d" text-anchor="middle" style="white-space: pre;" direction="ltr">i == 0x0b</text></g><g stroke-linecap="round"><g transform="translate(194.17602760598652 106.5669999910927) rotate(0 31.551794798892786 11.645737141727523)"><path d="M-0.51 0.58 C6.09 1.17, 29.27 -1.15, 39.95 2.67 C50.64 6.48, 59.62 20.2, 63.61 23.46 M1.42 -0.17 C7.85 0.64, 28.81 0.21, 39.07 3.8 C49.34 7.4, 58.76 18.2, 63 21.39" stroke="#1864ab" stroke-width="1" fill="none"></path></g><g transform="translate(194.17602760598652 106.5669999910927) rotate(0 31.551794798892786 11.645737141727523)"><path d="M49.54 15.93 C52.44 18.04, 58.73 20.28, 62.11 21.99 M49.43 16.19 C52.56 17.32, 55.45 17.62, 62.6 20.81" stroke="#1864ab" stroke-width="1" fill="none"></path></g><g transform="translate(194.17602760598652 106.5669999910927) rotate(0 31.551794798892786 11.645737141727523)"><path d="M56.48 8.13 C57.05 12.76, 61.07 17.55, 62.11 21.99 M56.37 8.38 C57.78 11.44, 59.02 13.6, 62.6 20.81" stroke="#1864ab" stroke-width="1" fill="none"></path></g></g><g stroke-linecap="round"><g transform="translate(340.5 371) rotate(0 -81.98316040411592 -0.1566186068378954)"><path d="M1.3 1.5 C-25.95 1.99, -137.56 2.28, -165.26 1.73 M-1.45 -0.16 C-27.71 -0.36, -134.03 -2.43, -160.36 -2.34" stroke="#5c940d" stroke-width="1" fill="none"></path></g><g transform="translate(340.5 371) rotate(0 -81.98316040411592 -0.1566186068378954)"><path d="M-129.94 -16.27 C-136.34 -13.17, -147.99 -3.79, -158.12 -0.46 M-133.04 -10.37 C-138.41 -9.42, -144.88 -9.86, -160.52 -3.34" stroke="#5c940d" stroke-width="1" fill="none"></path></g><g transform="translate(340.5 371) rotate(0 -81.98316040411592 -0.1566186068378954)"><path d="M-130.13 4.25 C-136.31 2.52, -147.92 7.08, -158.12 -0.46 M-133.24 10.15 C-138.71 6.98, -145.14 2.42, -160.52 -3.34" stroke="#5c940d" stroke-width="1" fill="none"></path></g></g><g stroke-linecap="round"><g transform="translate(509.5 152.5) rotate(0 40.344993466393134 100.62088386416434)"><path d="M-0.6 1.58 C7.29 4.16, 36.49 4.25, 50.05 16.86 C63.6 29.46, 78 54.31, 80.72 77.2 C83.43 100.09, 76.19 133.5, 66.32 154.17 C56.45 174.85, 28.63 192.81, 21.49 201.27 M4.27 -0.03 C11.68 2.86, 36.32 6.86, 48.62 20.15 C60.92 33.45, 74.84 56.98, 78.08 79.74 C81.32 102.5, 76.76 136.51, 68.06 156.72 C59.35 176.93, 32.67 193.22, 25.84 200.98" stroke="#862e9c" stroke-width="1" fill="none"></path></g><g transform="translate(509.5 152.5) rotate(0 40.344993466393134 100.62088386416434)"><path d="M42.57 176.85 C33.97 182.85, 27.62 198.46, 25.68 198.83 M40.12 174.71 C39.03 182.37, 32.96 185.67, 27.26 201.55" stroke="#862e9c" stroke-width="1" fill="none"></path></g><g transform="translate(509.5 152.5) rotate(0 40.344993466393134 100.62088386416434)"><path d="M56.08 192.3 C41.98 192.13, 30.29 201.63, 25.68 198.83 M53.63 190.16 C49.51 194.55, 40.45 194.45, 27.26 201.55" stroke="#862e9c" stroke-width="1" fill="none"></path></g></g><g transform="translate(209.25 80.5) rotate(0 17.5 10)"><text x="17.5" y="14" font-family="Virgil, Segoe UI Emoji" font-size="16px" fill="#1864ab" text-anchor="middle" style="white-space: pre;" direction="ltr">load</text></g><g transform="translate(601.75 238) rotate(0 17.5 10)"><text x="17.5" y="14" font-family="Virgil, Segoe UI Emoji" font-size="16px" fill="#862e9c" text-anchor="middle" style="white-space: pre;" direction="ltr">load</text></g></svg>