<svg version="1.1" xmlns="http://www.w3.org/2000/svg" viewBox="0 0 593.8309468806399 394.5" width="1187.6618937612798" height="789">
  <!-- svg-source:excalidraw -->
  
  <defs>
    <style>
      @font-face {
        font-family: "Virgil";
        src: url("https://excalidraw.com/Virgil.woff2");
      }
      @font-face {
        font-family: "Cascadia";
        src: url("https://excalidraw.com/Cascadia.woff2");
      }
    </style>
  </defs>
  <rect x="0" y="0" width="593.8309468806399" height="394.5" fill="#ffffff"></rect><g stroke-linecap="round" transform="translate(14.662698412698575 188.25) rotate(0 81.24999999999999 27.5)"><path d="M10.8 1.17 L157.23 4.11 L156.83 5.54 L159.33 10.41 L162.41 43.89 L156.42 55.76 L149.13 58.34 L8.41 57.29 L0.65 50.15 L-0.87 42.95 L-1.69 7.01 L3.33 1.58 L13.86 0.86" stroke="none" stroke-width="0" fill="#ffffff"></path><path d="M13.75 0 M13.75 0 C51.7 -1.46, 91.16 4.12, 148.75 0 M13.75 0 C57.19 -0.66, 101.14 0.25, 148.75 0 M148.75 0 C154.06 1.44, 160.18 4.27, 162.5 13.75 M148.75 0 C161.32 1.39, 165.8 0.38, 162.5 13.75 M162.5 13.75 C159.06 21.96, 162.22 23.65, 162.5 41.25 M162.5 13.75 C161.84 24.02, 164.44 31.05, 162.5 41.25 M162.5 41.25 C160.72 52.38, 157.45 54.1, 148.75 55 M162.5 41.25 C161.82 45.94, 159.67 51.86, 148.75 55 M148.75 55 C107.23 54.49, 60.67 52.84, 13.75 55 M148.75 55 C110.06 56.63, 69.17 56.6, 13.75 55 M13.75 55 C5.91 55.24, 1.74 48.15, 0 41.25 M13.75 55 C2.06 59.23, -2.88 46.75, 0 41.25 M0 41.25 C-1.35 34.34, -3 25.74, 0 13.75 M0 41.25 C-0.18 31.09, -0.89 18.7, 0 13.75 M0 13.75 C0.24 6.66, 1.1 0.73, 13.75 0 M0 13.75 C-1.96 6.75, 6.14 -0.86, 13.75 0" stroke="#d9480f" stroke-width="1" fill="none"></path></g><g stroke-opacity="0.3" fill-opacity="0.3" transform="translate(18.5 346.94444444444446) rotate(0 64.5 12.5)"><text x="0" y="18" font-family="Virgil, Segoe UI Emoji" font-size="20px" fill="#d9480f" text-anchor="start" style="white-space: pre;" direction="ltr">@hemashushu</text></g><g stroke-linecap="round"><g transform="translate(96.63211937816803 253.49604832494867) rotate(0 51.36064546160762 24.458506375373815)"><path d="M-1.06 -2.57 C-1.25 1.83, -2.32 16.13, 1.53 24.75 C5.38 33.37, 5.07 44.81, 22.03 49.15 C38.99 53.48, 89.78 50.39, 103.28 50.76 M3.56 2.21 C2.85 5.86, -3 13.04, -0.17 20.14 C2.65 27.25, 3.14 40.59, 20.51 44.84 C37.88 49.09, 90.87 45.64, 104.06 45.66" stroke="#d9480f" stroke-width="1" fill="none"></path></g><g transform="translate(96.63211937816803 253.49604832494867) rotate(0 51.36064546160762 24.458506375373815)"><path d="M72.52 58.19 C88.38 53.35, 101.52 48.74, 106.53 45.85 M77.62 56.59 C85.62 50.43, 96.28 48.03, 103.8 47.27" stroke="#d9480f" stroke-width="1" fill="none"></path></g><g transform="translate(96.63211937816803 253.49604832494867) rotate(0 51.36064546160762 24.458506375373815)"><path d="M71.91 37.68 C87.77 40.93, 101.15 44.42, 106.53 45.85 M77.01 36.08 C85.04 37.79, 95.94 43.27, 103.8 47.27" stroke="#d9480f" stroke-width="1" fill="none"></path></g></g><g stroke-linecap="round" transform="translate(337.03769841269855 60) rotate(0 94.5 64.75)"><path d="M7.96 8.25 C7.96 8.25, 7.96 8.25, 7.96 8.25 M7.96 8.25 C7.96 8.25, 7.96 8.25, 7.96 8.25 M3.76 19.17 C6.35 13.24, 13.72 8.05, 18.2 2.57 M3.76 19.17 C7.57 13.67, 12.08 9.72, 18.2 2.57 M2.85 26.32 C9.47 19.35, 14.25 10.32, 24.5 1.42 M2.85 26.32 C7.29 20.71, 12.49 15.39, 24.5 1.42 M2.58 32.72 C11.94 19.54, 25.83 6.76, 30.8 0.27 M2.58 32.72 C14.12 20.27, 24.17 8.95, 30.8 0.27 M2.32 39.12 C13.43 29.53, 24.07 17.37, 34.47 2.14 M2.32 39.12 C14.33 27.18, 24.47 13.28, 34.47 2.14 M2.72 44.76 C11.27 35.99, 20.44 25.15, 40.11 1.74 M2.72 44.76 C12.66 34.31, 19.54 24.91, 40.11 1.74 M2.46 51.16 C14.33 37.96, 25.61 21.54, 45.1 2.1 M2.46 51.16 C12.84 37.41, 25.31 23.62, 45.1 2.1 M2.85 56.8 C14.26 42.05, 28.98 27.83, 50.74 1.71 M2.85 56.8 C12.34 45.06, 22.82 33.23, 50.74 1.71 M2.59 63.2 C22.72 40.86, 44.58 15.84, 55.73 2.07 M2.59 63.2 C18.89 44.15, 36.25 23.75, 55.73 2.07 M2.33 69.6 C18.97 48.89, 36.69 28.85, 61.37 1.68 M2.33 69.6 C24.57 44.78, 45.38 20.6, 61.37 1.68 M2.72 75.24 C23.89 52.75, 43.44 28.85, 66.36 2.04 M2.72 75.24 C29.12 44.91, 52.73 16.25, 66.36 2.04 M2.46 81.64 C20.17 61.66, 34.74 42.78, 72 1.64 M2.46 81.64 C26.35 55.59, 47.49 28.53, 72 1.64 M2.86 87.28 C30.17 59.28, 52.51 27.11, 76.99 2 M2.86 87.28 C27.31 58.19, 52.7 30.66, 76.99 2 M2.59 93.68 C35.07 59.18, 67.04 19.64, 82.63 1.61 M2.59 93.68 C22.56 71.26, 41.09 48.25, 82.63 1.61 M2.33 100.08 C28.06 73.68, 49.9 43.17, 87.62 1.97 M2.33 100.08 C27.71 69.72, 55.09 37.86, 87.62 1.97 M2.07 106.48 C36.15 67.1, 74.43 25.61, 92.61 2.33 M2.07 106.48 C22.07 83.63, 43.58 59.37, 92.61 2.33 M3.78 110.61 C28.47 80.53, 55.4 47.74, 98.25 1.93 M3.78 110.61 C26.94 83.03, 51.39 55, 98.25 1.93 M5.48 114.74 C29.79 86.48, 51.97 58.87, 103.24 2.29 M5.48 114.74 C36.53 79.2, 66.73 44.9, 103.24 2.29 M7.19 118.88 C39.11 82.68, 67.81 46.36, 108.88 1.9 M7.19 118.88 C32.19 91.88, 56.65 62.49, 108.88 1.9 M9.55 122.26 C38.88 84.27, 72.06 48.53, 113.87 2.26 M9.55 122.26 C41.2 87.56, 71.26 51.35, 113.87 2.26 M12.57 124.88 C36.05 100.33, 59.17 70.08, 119.51 1.86 M12.57 124.88 C41.73 92.7, 70.86 58.24, 119.51 1.86 M16.25 126.75 C43.92 92.07, 73.19 57.42, 124.5 2.22 M16.25 126.75 C51.56 88.45, 85.32 47.43, 124.5 2.22 M19.92 128.62 C47.99 93.64, 79.82 58.57, 130.14 1.83 M19.92 128.62 C54.01 89.19, 89.66 48.89, 130.14 1.83 M24.25 129.73 C50.81 98.31, 78.62 68.49, 135.13 2.19 M24.25 129.73 C53.3 97.93, 80.28 64.96, 135.13 2.19 M29.24 130.09 C58.68 94.91, 88.14 61.71, 140.77 1.79 M29.24 130.09 C55.66 97.89, 83.81 66.04, 140.77 1.79 M34.23 130.45 C61.41 99.19, 87.19 69.56, 145.76 2.15 M34.23 130.45 C68.21 89.63, 104.64 48.72, 145.76 2.15 M39.22 130.82 C77.14 88.61, 114.64 40.88, 151.4 1.76 M39.22 130.82 C78.56 87.35, 118.1 42.71, 151.4 1.76 M44.2 131.18 C70.29 100.67, 94.46 70.73, 157.7 0.61 M44.2 131.18 C75.39 94.61, 108.93 55.6, 157.7 0.61 M49.85 130.78 C74.3 102.1, 101.92 73.64, 162.03 1.73 M49.85 130.78 C92.03 81.88, 133.58 34.56, 162.03 1.73 M54.83 131.14 C94.16 82.94, 133.8 38.36, 167.02 2.09 M54.83 131.14 C86.07 97.67, 113.66 64.97, 167.02 2.09 M60.48 130.75 C100.77 82.58, 145 35.89, 172.01 2.45 M60.48 130.75 C88.57 96.5, 118.5 63.51, 172.01 2.45 M65.46 131.11 C104.6 87.19, 140.84 47.69, 175.02 5.07 M65.46 131.11 C98.14 93.93, 129.71 55.5, 175.02 5.07 M71.11 130.71 C95.24 103.84, 121.66 73.12, 178.7 6.94 M71.11 130.71 C103.19 95.61, 135.31 57.52, 178.7 6.94 M76.09 131.07 C117.47 84.04, 157.74 35.79, 182.37 8.81 M76.09 131.07 C117.9 82.54, 159.15 36.2, 182.37 8.81 M81.74 130.68 C114.85 89.78, 153.11 48.52, 184.08 12.94 M81.74 130.68 C112.21 96.67, 142.16 60.67, 184.08 12.94 M86.72 131.04 C122.95 90.59, 159.16 47.52, 186.44 16.32 M86.72 131.04 C115.78 99.58, 142.79 66.45, 186.44 16.32 M92.37 130.64 C121.09 101.58, 147.86 68.61, 188.81 19.7 M92.37 130.64 C113.41 106.15, 133.48 82.72, 188.81 19.7 M97.35 131 C133.92 90.32, 166 52.67, 189.2 25.34 M97.35 131 C122.78 103.45, 145.18 75.95, 189.2 25.34 M103 130.61 C131.35 100.26, 156.37 70.03, 190.25 30.23 M103 130.61 C135.19 94.77, 167.22 58.09, 190.25 30.23 M107.98 130.97 C138.29 93.67, 172.62 61.36, 191.96 34.37 M107.98 130.97 C139.06 97.2, 167.86 61.73, 191.96 34.37 M113.63 130.57 C134.88 105, 158.46 80.37, 191.7 40.76 M113.63 130.57 C143.49 94.94, 174.1 60.83, 191.7 40.76 M118.61 130.93 C135.23 111.03, 150.55 94.05, 191.44 47.16 M118.61 130.93 C143.12 104.74, 166.73 76.97, 191.44 47.16 M124.26 130.54 C140.9 113.38, 152.82 96.55, 191.83 52.8 M124.26 130.54 C143.5 109.08, 163.31 86.5, 191.83 52.8 M129.24 130.9 C151.56 106.49, 177.62 75.91, 191.57 59.2 M129.24 130.9 C146.86 110.61, 164.28 89.28, 191.57 59.2 M134.89 130.5 C151.68 113.4, 164.62 95.04, 191.31 65.6 M134.89 130.5 C156.56 105.25, 179.13 78.16, 191.31 65.6 M139.87 130.86 C148 119.51, 159.53 104.57, 191.7 71.24 M139.87 130.86 C156.06 111.6, 171.65 93.2, 191.7 71.24 M145.52 130.47 C163.22 111.52, 178.74 91.49, 191.44 77.64 M145.52 130.47 C162.9 110.03, 182.33 88.54, 191.44 77.64 M150.5 130.83 C159.61 119.51, 169.86 107.07, 191.18 84.04 M150.5 130.83 C158.34 120.98, 166.81 110.61, 191.18 84.04 M156.8 129.68 C169.78 116.26, 179.58 102.17, 191.57 89.68 M156.8 129.68 C167.18 116.39, 178.92 104.13, 191.57 89.68 M163.1 128.53 C168.38 121.84, 176.25 112.55, 191.31 96.08 M163.1 128.53 C171.08 117.83, 180.31 108.75, 191.31 96.08 M168.74 128.14 C175.46 121.96, 178.42 114.78, 189.08 104.74 M168.74 128.14 C175.92 121.22, 180.9 112.95, 189.08 104.74 M173.08 129.25 C177.08 126.11, 179.31 123.23, 188.16 111.89 M173.08 129.25 C178.27 124.01, 182.2 118.77, 188.16 111.89" stroke="#be4bdb" stroke-width="0.5" fill="none"></path><path d="M32.38 0 M32.38 0 C74.4 -2.18, 113.29 -0.09, 156.63 0 M32.38 0 C71.23 0.84, 110.74 0.84, 156.63 0 M156.63 0 C179.55 -1.91, 188.12 10.84, 189 32.38 M156.63 0 C176.4 -0.1, 188.56 8.99, 189 32.38 M189 32.38 C190.88 46.54, 190.55 58.66, 189 97.13 M189 32.38 C189.54 46.95, 188.13 61.08, 189 97.13 M189 97.13 C187.26 119.69, 179.23 131.43, 156.63 129.5 M189 97.13 C190.94 118.26, 178.22 130.37, 156.63 129.5 M156.63 129.5 C129.64 130.29, 103.64 127.93, 32.38 129.5 M156.63 129.5 C113.06 129.03, 70.18 128.47, 32.38 129.5 M32.38 129.5 C10.81 131.47, -0.92 120.2, 0 97.13 M32.38 129.5 C11.44 128.99, -0.73 120.02, 0 97.13 M0 97.13 C0.61 78.05, -1.88 59.6, 0 32.38 M0 97.13 C0.41 83.27, 0.48 69.64, 0 32.38 M0 32.38 C1.22 9.04, 10.42 -1.42, 32.38 0 M0 32.38 C-1.91 11.97, 9.84 1.17, 32.38 0" stroke="#862e9c" stroke-width="1" fill="none"></path></g><g transform="translate(397.53769841269855 10) rotate(0 27.5 18)"><text x="0" y="25" font-family="Virgil, Segoe UI Emoji" font-size="28px" fill="#862e9c" text-anchor="start" style="white-space: pre;" direction="ltr">.got</text></g><g stroke-linecap="round" transform="translate(339.28769841269855 254.5) rotate(0 94.5 42.75)"><path d="M5.03 5.7 C5.03 5.7, 5.03 5.7, 5.03 5.7 M5.03 5.7 C5.03 5.7, 5.03 5.7, 5.03 5.7 M0.84 16.63 C6.58 10.8, 10.57 3.77, 13.3 2.29 M0.84 16.63 C3.77 13.32, 7.66 9.34, 13.3 2.29 M0.57 23.02 C4.9 15.21, 10.51 9.35, 19.6 1.14 M0.57 23.02 C6.53 16.39, 12.4 9.67, 19.6 1.14 M0.97 28.67 C11.35 17.75, 19.98 7.53, 23.93 2.25 M0.97 28.67 C9.43 19.75, 17.95 8.91, 23.93 2.25 M0.71 35.07 C11.06 25.89, 18.67 14.91, 29.57 1.86 M0.71 35.07 C6.35 27.42, 12.42 19.26, 29.57 1.86 M0.45 41.46 C10.05 30.51, 17.35 20.22, 34.56 2.22 M0.45 41.46 C12.38 27.01, 26.58 9.92, 34.56 2.22 M0.84 47.11 C13.61 29.23, 29.31 15.58, 39.55 2.58 M0.84 47.11 C12.55 33.43, 23.3 22.14, 39.55 2.58 M0.58 53.5 C11 43.03, 18.78 32.32, 45.19 2.18 M0.58 53.5 C16.76 35.08, 33.35 16.48, 45.19 2.18 M0.97 59.15 C17.51 40.79, 34.28 22.1, 50.18 2.54 M0.97 59.15 C13.32 44.42, 25.92 30.25, 50.18 2.54 M0.71 65.54 C19.42 43.34, 42.66 18.35, 55.82 2.15 M0.71 65.54 C13.23 50.91, 27.58 34.81, 55.82 2.15 M1.76 70.43 C19.91 49.48, 41.76 24.63, 60.81 2.51 M1.76 70.43 C23.91 43.42, 47.89 17.66, 60.81 2.51 M3.47 74.57 C25.18 48.66, 50.86 18.91, 66.45 2.11 M3.47 74.57 C25.48 46.94, 49.89 21.29, 66.45 2.11 M5.18 78.7 C20.02 57.49, 39.24 38.92, 71.44 2.47 M5.18 78.7 C30.77 50.82, 56.15 20.84, 71.44 2.47 M7.54 82.08 C28.16 56.98, 46.96 33.33, 77.08 2.08 M7.54 82.08 C34.45 49.63, 62.86 16.92, 77.08 2.08 M10.56 84.7 C38.03 49.63, 67.21 19.74, 82.07 2.44 M10.56 84.7 C37.4 53.56, 64.4 24.51, 82.07 2.44 M14.89 85.82 C39.26 60.77, 58.18 32.98, 87.71 2.05 M14.89 85.82 C40.87 56.45, 64.45 29.78, 87.71 2.05 M19.22 86.93 C45.25 55.34, 72.61 25.91, 92.7 2.41 M19.22 86.93 C40.94 62.07, 62.75 36.47, 92.7 2.41 M23.55 88.05 C49.95 55.82, 77.8 25.1, 98.34 2.01 M23.55 88.05 C48.64 59.61, 73.3 31.14, 98.34 2.01 M29.19 87.65 C52.63 58.23, 77.13 29.35, 103.33 2.37 M29.19 87.65 C46.82 66.27, 65.07 46.79, 103.33 2.37 M34.18 88.01 C63.9 54.71, 90.2 23.72, 108.97 1.98 M34.18 88.01 C54.56 63.17, 75.85 38.1, 108.97 1.98 M39.82 87.62 C57.24 64.86, 75.27 44.91, 113.96 2.34 M39.82 87.62 C55.24 68.98, 71.59 51.57, 113.96 2.34 M44.81 87.98 C73 54.02, 104.47 20.43, 119.6 1.94 M44.81 87.98 C60.95 67.53, 77.34 49.13, 119.6 1.94 M50.45 87.58 C79.01 55.4, 106.71 22.74, 124.59 2.3 M50.45 87.58 C79.16 55.33, 105.7 23.15, 124.59 2.3 M55.44 87.94 C73.31 68.21, 91.09 46.33, 130.23 1.91 M55.44 87.94 C79.57 58.58, 104.53 30.57, 130.23 1.91 M61.08 87.55 C89.95 55.45, 115.23 25.64, 135.22 2.27 M61.08 87.55 C77.24 69.23, 93.71 50.88, 135.22 2.27 M66.07 87.91 C88.15 62.84, 109.37 39.78, 140.86 1.87 M66.07 87.91 C92.24 58.86, 118.16 28.64, 140.86 1.87 M71.71 87.52 C88.95 63.66, 109.88 43.05, 145.85 2.23 M71.71 87.52 C88.05 69.51, 101.78 52.5, 145.85 2.23 M76.7 87.88 C95.31 64.01, 116.78 43.28, 150.84 2.59 M76.7 87.88 C100.82 59.91, 122.47 33.25, 150.84 2.59 M82.34 87.48 C109.81 58.75, 137.09 26.09, 156.48 2.2 M82.34 87.48 C106.29 60.23, 130.36 33.91, 156.48 2.2 M87.33 87.84 C105.97 66, 127.33 40.23, 161.47 2.56 M87.33 87.84 C104.96 66.7, 125.97 43.82, 161.47 2.56 M92.97 87.45 C109.15 71.54, 123.78 53.67, 168.42 0.65 M92.97 87.45 C115.98 62.25, 138.64 35.21, 168.42 0.65 M97.96 87.81 C123.01 61.23, 147.16 32.35, 172.75 1.77 M97.96 87.81 C122.47 57.86, 147.49 27.7, 172.75 1.77 M103.6 87.41 C124.53 62.71, 143.47 42.39, 177.08 2.88 M103.6 87.41 C119.41 68.39, 135.86 51.12, 177.08 2.88 M108.59 87.77 C125.06 67.53, 147.02 44.72, 181.41 4 M108.59 87.77 C126.54 67.91, 146.46 46.19, 181.41 4 M114.23 87.38 C142.02 57.3, 167.29 27.19, 184.43 6.62 M114.23 87.38 C134.7 62.58, 155.48 39.16, 184.43 6.62 M119.22 87.74 C146.54 55.81, 171.08 27.64, 187.45 9.25 M119.22 87.74 C134.49 68.58, 151.93 48.01, 187.45 9.25 M124.86 87.34 C145.15 63.95, 161.19 41.65, 188.5 14.14 M124.86 87.34 C143.35 65.44, 163.59 43.56, 188.5 14.14 M129.85 87.7 C143.41 71.34, 157.4 54.41, 190.21 18.27 M129.85 87.7 C146.37 67.4, 165.5 44.97, 190.21 18.27 M135.49 87.31 C156 63.72, 180.21 35.41, 190.6 23.91 M135.49 87.31 C154.76 65.68, 173.78 43.2, 190.6 23.91 M140.48 87.67 C157.07 73.55, 170.54 53.58, 190.34 30.31 M140.48 87.67 C157.49 66.48, 174.73 47.17, 190.34 30.31 M145.47 88.03 C161.39 71.59, 179.15 51.22, 190.74 35.95 M145.47 88.03 C157.77 74.11, 169.79 60.61, 190.74 35.95 M151.11 87.63 C164 73.56, 179.06 55.02, 190.48 42.35 M151.11 87.63 C162.14 75.09, 171.25 62.7, 190.48 42.35 M156.1 87.99 C161.33 79.73, 170.32 72.98, 190.87 47.99 M156.1 87.99 C166.81 76.79, 176.94 64.9, 190.87 47.99 M161.74 87.6 C169.77 78.75, 173.77 74.92, 190.61 54.39 M161.74 87.6 C168.92 78.38, 177.53 68.74, 190.61 54.39 M168.04 86.45 C175.47 76.64, 187.91 65.78, 191 60.04 M168.04 86.45 C175.31 76.97, 182.74 69.39, 191 60.04 M175 84.55 C180.76 75.47, 188.63 70.68, 191.4 65.68 M175 84.55 C179.58 78.79, 186.64 72.57, 191.4 65.68" stroke="#82c91e" stroke-width="0.5" fill="none"></path><path d="M21.38 0 M21.38 0 C59.59 -1.1, 98.56 1.08, 167.63 0 M21.38 0 C64.61 -0.67, 106.74 -0.29, 167.63 0 M167.63 0 C180.1 -1.05, 189.35 5.86, 189 21.38 M167.63 0 C181.82 -2.13, 190.26 8.37, 189 21.38 M189 21.38 C187.81 33.8, 190.78 44.69, 189 64.13 M189 21.38 C189.44 36.83, 189.75 52.83, 189 64.13 M189 64.13 C188.17 77.8, 182.46 85.78, 167.63 85.5 M189 64.13 C187.56 78.73, 181.77 83.92, 167.63 85.5 M167.63 85.5 C116.42 83.82, 66.68 83.56, 21.38 85.5 M167.63 85.5 C133.25 85.35, 99.04 86.11, 21.38 85.5 M21.38 85.5 C7.39 83.81, -0.41 78.77, 0 64.13 M21.38 85.5 C8.67 87.71, 1.91 80.11, 0 64.13 M0 64.13 C-1.59 53.35, 0.82 44.61, 0 21.38 M0 64.13 C-0.65 50.37, 0.45 38.31, 0 21.38 M0 21.38 C0.24 6.43, 7.68 0.68, 21.38 0 M0 21.38 C0.71 8.59, 5.05 -0.67, 21.38 0" stroke="#5c940d" stroke-width="1" fill="none"></path></g><g stroke-linecap="round" transform="translate(354.28769841269855 284) rotate(0 80 15)"><path d="M5.7 1.83 L157.41 0.9 L158.49 2.67 L159.26 26.72 L160.02 26.49 L150.61 30.4 L6.15 31.21 L-1.4 25.28 L0.87 7.13 L1.9 -0.1 L6.89 -1.42" stroke="none" stroke-width="0" fill="#ffffff"></path><path d="M7.5 0 M7.5 0 C43.18 0.04, 79 -0.53, 152.5 0 M7.5 0 C53.9 0.67, 101.95 0.57, 152.5 0 M152.5 0 C156.8 0.85, 159.24 4.11, 160 7.5 M152.5 0 C155.69 1.74, 158.13 1.78, 160 7.5 M160 7.5 C158.9 14.24, 160.94 18.79, 160 22.5 M160 7.5 C160.06 12.12, 160.59 17.43, 160 22.5 M160 22.5 C161.98 28.44, 158.53 29.81, 152.5 30 M160 22.5 C158.16 29.06, 159.33 28.9, 152.5 30 M152.5 30 C109.93 28.33, 69.5 29.09, 7.5 30 M152.5 30 C112.87 30.79, 71.52 28.8, 7.5 30 M7.5 30 C4.31 29.76, -1.71 28.96, 0 22.5 M7.5 30 C1.54 31.43, -2.12 26.31, 0 22.5 M0 22.5 C-1.21 17.69, 0.15 12.89, 0 7.5 M0 22.5 C-0.6 18.37, 0 14.59, 0 7.5 M0 7.5 C-1.79 3.91, 3.61 -0.41, 7.5 0 M0 7.5 C0.26 2.97, 2.22 2.14, 7.5 0" stroke="#d9480f" stroke-width="1" fill="none"></path></g><g transform="translate(413.78769841269855 289) rotate(0 20.5 10)"><text x="20.5" y="14" font-family="Virgil, Segoe UI Emoji" font-size="16px" fill="#d9480f" text-anchor="middle" style="white-space: pre;" direction="ltr">0x0c</text></g><g transform="translate(238.28769841269855 289.5) rotate(0 45.5 12.5)"><text x="0" y="18" font-family="Virgil, Segoe UI Emoji" font-size="20px" fill="#000000" text-anchor="start" style="white-space: pre;" direction="ltr">0x75000</text></g><g transform="translate(386.78769841269855 348.5) rotate(0 39.5 18)"><text x="0" y="25" font-family="Virgil, Segoe UI Emoji" font-size="28px" fill="#5c940d" text-anchor="start" style="white-space: pre;" direction="ltr">.data</text></g><g transform="translate(237.03769841269855 119) rotate(0 41 12.5)"><text x="0" y="18" font-family="Virgil, Segoe UI Emoji" font-size="20px" fill="#000000" text-anchor="start" style="white-space: pre;" direction="ltr">0x77148</text></g><g stroke-linecap="round" transform="translate(345.28769841269855 110) rotate(0 85.24999999999994 14.5)"><path d="M5.7 -0.28 L167.36 2.35 L168.41 2.18 L170.45 26.85 L170.37 25.32 L162.75 29.87 L3.71 28.58 L-1.52 24.31 L-1.42 6.17 L0.71 2.84 L7.26 0.79" stroke="none" stroke-width="0" fill="#ffffff"></path><path d="M7.25 0 M7.25 0 C53.77 -1.43, 101.55 -0.56, 163.25 0 M7.25 0 C52.7 0.16, 98.1 -0.24, 163.25 0 M163.25 0 C169.6 -1.63, 169.88 3.95, 170.5 7.25 M163.25 0 C166.86 1.77, 168.93 4.08, 170.5 7.25 M170.5 7.25 C171.82 12.69, 170.35 17.88, 170.5 21.75 M170.5 7.25 C170.97 12.84, 170.56 17.11, 170.5 21.75 M170.5 21.75 C171.86 28.17, 167.12 28.78, 163.25 29 M170.5 21.75 C168.77 24.36, 167.29 28.69, 163.25 29 M163.25 29 C109.24 28.39, 59.54 30.68, 7.25 29 M163.25 29 C114.87 29.56, 67.45 29.99, 7.25 29 M7.25 29 C3.66 27.16, -1.04 26.01, 0 21.75 M7.25 29 C4.62 28.76, -1.63 25.45, 0 21.75 M0 21.75 C1.03 15.96, -0.84 12.44, 0 7.25 M0 21.75 C0.45 17.63, -0.21 12.78, 0 7.25 M0 7.25 C0.41 2.17, 4.27 -0.93, 7.25 0 M0 7.25 C0.72 1.23, 4.53 -0.05, 7.25 0" stroke="#5f3dc4" stroke-width="1" fill="none"></path></g><g transform="translate(356.65779645191446 116.5) rotate(0 37 10)"><text x="0" y="14" font-family="Virgil, Segoe UI Emoji" font-size="16px" fill="#5f3dc4" text-anchor="start" style="white-space: pre;" direction="ltr">0x75000</text></g><g stroke-linecap="round" transform="translate(347.28769841269855 74) rotate(0 83.99999999999994 13.25)"><path d="M7.56 1.89 L159.74 -1.89 L164.68 2.35 L169.26 1.85 L167.5 20.75 L165.98 24.87 L159.4 25.89 L5.21 25.42 L0.55 25.87 L0.01 20.66 L0.57 3.94 L2.18 0.15 L5.6 -1.75" stroke="none" stroke-width="0" fill="#ffffff"></path><path d="M6.63 0 M6.63 0 C51.19 1.12, 96.39 1.87, 161.37 0 M6.63 0 C40.53 2.03, 74.52 2.03, 161.37 0 M161.37 0 C164.43 1.44, 169.36 2.19, 168 6.63 M161.37 0 C166 2.09, 168.16 1.98, 168 6.63 M168 6.63 C169.39 11.18, 168.76 14.36, 168 19.88 M168 6.63 C167.77 9.46, 167.59 11.81, 168 19.88 M168 19.88 C167.31 24.02, 166.56 27, 161.37 26.5 M168 19.88 C167.53 22.85, 165.46 28.58, 161.37 26.5 M161.37 26.5 C101.29 24.72, 35.88 26.42, 6.63 26.5 M161.37 26.5 C120.9 24.79, 82.42 24.97, 6.63 26.5 M6.63 26.5 C0.79 25.51, 0.39 22.33, 0 19.88 M6.63 26.5 C1.6 27.91, -1.84 22.73, 0 19.88 M0 19.88 C-1.2 16.87, 0.72 11.73, 0 6.63 M0 19.88 C0.59 15.44, 0.18 11.28, 0 6.63 M0 6.63 C1.84 2.16, 3.05 0.43, 6.63 0 M0 6.63 C1.03 1.06, 1.03 0.79, 6.63 0" stroke="#5f3dc4" stroke-width="1" fill="none"></path></g><g transform="translate(356.65779645191446 73.5) rotate(0 14 10)"><text x="0" y="14" font-family="Virgil, Segoe UI Emoji" font-size="16px" fill="#5f3dc4" text-anchor="start" style="white-space: pre;" direction="ltr">......</text></g><g stroke-linecap="round" transform="translate(345.78769841269855 150.5) rotate(0 84.24999999999994 13.25)"><path d="M4.99 -1.89 L162.28 1.93 L166.45 -1.46 L167.59 4.6 L168.13 19.9 L164.87 24.23 L160.46 25.42 L5.52 27.53 L1.67 25.63 L0.16 20.09 L0.94 2.22 L0.63 -0.1 L6.48 -0.23" stroke="none" stroke-width="0" fill="#ffffff"></path><path d="M6.63 0 M6.63 0 C49.75 0.94, 92.83 0.85, 161.87 0 M6.63 0 C40.04 -0.42, 73.83 -0.47, 161.87 0 M161.87 0 C167.65 -0.02, 168.69 4.02, 168.5 6.63 M161.87 0 C166.45 -0.23, 168.43 3.59, 168.5 6.63 M168.5 6.63 C169.31 11.63, 167.57 17.79, 168.5 19.88 M168.5 6.63 C167.94 11.01, 168.21 16.59, 168.5 19.88 M168.5 19.88 C169.26 24.79, 165.88 25.25, 161.87 26.5 M168.5 19.88 C168.17 26.37, 168.59 26.72, 161.87 26.5 M161.87 26.5 C129.02 27.77, 98.75 27.56, 6.63 26.5 M161.87 26.5 C130.55 25.95, 96.59 25.56, 6.63 26.5 M6.63 26.5 C2.6 24.54, -0.52 25.52, 0 19.88 M6.63 26.5 C0.37 24.93, -0.06 24.57, 0 19.88 M0 19.88 C0.86 15.09, 0.27 11.12, 0 6.63 M0 19.88 C0.08 15.72, 0.49 12.23, 0 6.63 M0 6.63 C0.84 2.64, 3.1 -1, 6.63 0 M0 6.63 C-1.18 3, 1.64 -0.92, 6.63 0" stroke="#5f3dc4" stroke-width="1" fill="none"></path></g><g transform="translate(357.65779645191446 151) rotate(0 14 10)"><text x="0" y="14" font-family="Virgil, Segoe UI Emoji" font-size="16px" fill="#5f3dc4" text-anchor="start" style="white-space: pre;" direction="ltr">......</text></g><g stroke-linecap="round"><g transform="translate(518.4960317460318 125.87533682487663) rotate(0 -132.04345577480035 47.28432050097342)"><path d="M2.35 -2.62 C7.32 -2.27, 19.9 -2.85, 30.39 4.82 C40.88 12.49, 66.71 30.44, 65.28 43.42 C63.85 56.39, 41.76 74.17, 21.81 82.67 C1.86 91.16, 4.1 91.96, -54.44 94.38 C-112.98 96.8, -283.85 96.78, -329.42 97.19 M0.18 2.13 C4.66 2.83, 17.27 -6.93, 27.78 0.47 C38.28 7.87, 64.34 32.49, 63.19 46.55 C62.04 60.6, 39.82 76.82, 20.89 84.81 C1.97 92.8, 7.62 92.7, -50.35 94.49 C-108.32 96.27, -280.93 95.55, -326.93 95.52" stroke="#862e9c" stroke-width="1" fill="none"></path></g><g transform="translate(518.4960317460318 125.87533682487663) rotate(0 -132.04345577480035 47.28432050097342)"><path d="M-302.46 84.31 C-305.8 88.31, -316.52 88.37, -328.15 92.68 M-298.71 86.1 C-305.61 88.32, -312.19 89.11, -327.95 93.76" stroke="#862e9c" stroke-width="1" fill="none"></path></g><g transform="translate(518.4960317460318 125.87533682487663) rotate(0 -132.04345577480035 47.28432050097342)"><path d="M-302.5 104.83 C-306.23 102.27, -316.93 95.75, -328.15 92.68 M-298.75 106.62 C-305.41 103.79, -311.98 99.54, -327.95 93.76" stroke="#862e9c" stroke-width="1" fill="none"></path></g></g><g stroke-linecap="round" transform="translate(10 46.75) rotate(0 84 32.5)"><path d="M16.32 0.93 L157.06 2.16 L167.58 5.73 L166.84 11.73 L165.1 54.07 L163.23 63.66 L152.56 66.46 L7.22 64.69 L3.1 58.96 L0.15 52.89 L0.11 13.48 L3.48 7 L4.91 3.36 L15.29 1.66" stroke="none" stroke-width="0" fill="#ffffff"></path><path d="M16.25 0 M16.25 0 C58.06 -1.17, 103.31 -2, 151.75 0 M16.25 0 C66.44 1.05, 114.6 1.32, 151.75 0 M151.75 0 C163.97 1.61, 169.51 4.72, 168 16.25 M151.75 0 C160.59 -0.94, 167.97 5.41, 168 16.25 M168 16.25 C169.27 22.18, 166.62 32.24, 168 48.75 M168 16.25 C167.6 22.5, 167.95 30.24, 168 48.75 M168 48.75 C168.64 57.64, 163.98 65.14, 151.75 65 M168 48.75 C165.85 61.8, 163.31 66.51, 151.75 65 M151.75 65 C117.53 66.65, 85.88 67.47, 16.25 65 M151.75 65 C104.25 65.84, 56.99 65.19, 16.25 65 M16.25 65 C7.32 66.97, 1.04 58.08, 0 48.75 M16.25 65 C6.55 66.85, 1.45 59.71, 0 48.75 M0 48.75 C1.01 40.42, 0.69 34.52, 0 16.25 M0 48.75 C-0.56 35.32, -1.23 22.8, 0 16.25 M0 16.25 C-0.27 3.98, 6.58 1.01, 16.25 0 M0 16.25 C0.56 4.94, 4.49 1.98, 16.25 0" stroke="#1864ab" stroke-width="1" fill="none"></path></g><g transform="translate(29 66.75) rotate(0 65 12.5)"><text x="65" y="18" font-family="Virgil, Segoe UI Emoji" font-size="20px" fill="#1864ab" text-anchor="middle" style="white-space: pre;" direction="ltr">e_number=++</text></g><g transform="translate(28.662698412698546 191.75) rotate(0 67.5 20)"><text x="0" y="14" font-family="Virgil, Segoe UI Emoji" font-size="16px" fill="#d9480f" text-anchor="start" style="white-space: pre;" direction="ltr">value = 0x0c</text><text x="0" y="34" font-family="Virgil, Segoe UI Emoji" font-size="16px" fill="#d9480f" text-anchor="start" style="white-space: pre;" direction="ltr">addr = 0x75000</text></g><g stroke-linecap="round"><g transform="translate(190.01823599109628 74.24918909675785) rotate(0 45.2050130317258 18.788431471880244)"><path d="M-0.7 -0.65 C9.45 -0.04, 44.54 -2.11, 59.84 4.37 C75.15 10.86, 85.79 32.89, 91.11 38.23 M1.14 1.62 C11.27 1.81, 44.33 -3.26, 59.18 2.53 C74.04 8.32, 84.73 30.6, 90.24 36.36" stroke="#1864ab" stroke-width="1" fill="none"></path></g><g transform="translate(190.01823599109628 74.24918909675785) rotate(0 45.2050130317258 18.788431471880244)"><path d="M69.97 24.28 C76.09 25.92, 80.75 29.79, 88.72 34.96 M70.29 22.47 C76.02 26.9, 80.76 30.52, 89.45 36.47" stroke="#1864ab" stroke-width="1" fill="none"></path></g><g transform="translate(190.01823599109628 74.24918909675785) rotate(0 45.2050130317258 18.788431471880244)"><path d="M82.81 14.99 C86.27 18.52, 88.2 24.36, 88.72 34.96 M83.12 13.18 C85.66 19.9, 87.28 25.78, 89.45 36.47" stroke="#1864ab" stroke-width="1" fill="none"></path></g></g><g stroke-linecap="round"><g transform="translate(95.59776437021804 119.91222418779023) rotate(0 -0.176476614709145 31.315589662976663)"><path d="M0.63 -1.12 C0.74 3.55, 0.34 18.33, 0.16 28.94 C-0.01 39.54, -0.29 57.07, -0.42 62.51 M-0.5 0.91 C-0.41 5.67, -0.2 19.88, -0.29 30.35 C-0.37 40.82, -0.99 58.45, -1 63.75" stroke="#1864ab" stroke-width="1" fill="none"></path></g><g transform="translate(95.59776437021804 119.91222418779023) rotate(0 -0.176476614709145 31.315589662976663)"><path d="M-7.99 49.22 C-5.24 52.43, -3.75 56.15, -2.52 62.39 M-6.07 48.08 C-4.92 50.98, -3.2 55.71, -1.08 64.32" stroke="#1864ab" stroke-width="1" fill="none"></path></g><g transform="translate(95.59776437021804 119.91222418779023) rotate(0 -0.176476614709145 31.315589662976663)"><path d="M3.47 49.44 C3.27 52.66, 1.84 56.32, -2.52 62.39 M5.39 48.3 C3.77 51.14, 2.73 55.82, -1.08 64.32" stroke="#1864ab" stroke-width="1" fill="none"></path></g></g><g transform="translate(251.66269841269855 193.75) rotate(0 36 10)"><text x="0" y="14" font-family="Virgil, Segoe UI Emoji" font-size="16px" fill="#862e9c" text-anchor="start" style="white-space: pre;" direction="ltr">got addr</text></g><g transform="translate(37.14384920634927 276) rotate(0 22 10)"><text x="22" y="14" font-family="Virgil, Segoe UI Emoji" font-size="16px" fill="#d9480f" text-anchor="middle" style="white-space: pre;" direction="ltr">store</text></g><g transform="translate(196.14384920634927 46.5) rotate(0 39.5 10)"><text x="0" y="14" font-family="Virgil, Segoe UI Emoji" font-size="16px" fill="#1864ab" text-anchor="start" style="white-space: pre;" direction="ltr">load addr</text></g><g transform="translate(104.14384920634927 139.5) rotate(0 38.5 10)"><text x="0" y="14" font-family="Virgil, Segoe UI Emoji" font-size="16px" fill="#1864ab" text-anchor="start" style="white-space: pre;" direction="ltr">new value</text></g></svg>