<svg version="1.1" xmlns="http://www.w3.org/2000/svg" viewBox="0 0 803 351.5" width="1606" height="703">
  <!-- svg-source:excalidraw -->
  
  <defs>
    <style>
      @font-face {
        font-family: "Virgil";
        src: url("https://excalidraw.com/Virgil.woff2");
      }
      @font-face {
        font-family: "Cascadia";
        src: url("https://excalidraw.com/Cascadia.woff2");
      }
    </style>
  </defs>
  <rect x="0" y="0" width="803" height="351.5" fill="#ffffff"></rect><g stroke-linecap="round" transform="translate(10.5 47) rotate(0 77 15)"><path d="M0 0 C0 0, 0 0, 0 0 M0 0 C0 0, 0 0, 0 0 M-0.51 6.67 C1.86 5.63, 3.04 2.8, 5.35 0.39 M-0.53 6.08 C1.63 4.02, 3.83 1.32, 4.96 0.52 M-1.33 12 C4.13 8.88, 6.13 2.8, 9.59 1.11 M-0.4 11.7 C2.31 8.75, 5.89 5.89, 10.39 0.71 M-1.25 20.07 C7.08 11.18, 9.2 5.96, 14.07 2.25 M0.35 17.96 C4.12 12.62, 9.65 8.39, 16.54 1.03 M0.46 25.25 C6.59 18.1, 14.09 7.84, 23.02 0.53 M0.56 23.89 C6.31 17.8, 11.49 11.15, 20.7 0.88 M-0.52 32.35 C5.84 25.3, 14.26 16.64, 28.12 -0.37 M0.78 29.97 C7.03 22.66, 11.76 17.07, 25.27 -0.03 M7.35 31.95 C12.7 20.04, 20.5 11.63, 32.59 1.78 M5.45 30.58 C11.88 20.89, 20.07 13.75, 32.75 0.16 M11.18 31.59 C20.45 20.56, 28.32 12.84, 38.68 1.07 M11.34 30.49 C19.92 18.19, 30.63 7.83, 35.96 0.14 M15.6 30.57 C25.85 17.5, 39.11 5.27, 41.92 0.4 M16.01 29.26 C21.69 24.69, 27.8 17.23, 42.74 -0.08 M21.25 31.09 C30.88 19.32, 42.35 6.03, 46.89 0.56 M20.8 29.78 C30.32 20.58, 39.52 9.25, 48.24 -0.65 M27.08 31.15 C38.84 18.2, 46.22 5.62, 53.41 1.13 M27.61 30.78 C37.49 18.66, 48.09 5.99, 53.66 0.6 M30.06 29.61 C36.39 24.94, 43.8 16.48, 56.38 1.59 M31.14 31.3 C40.03 21.62, 48.81 11.88, 58.48 0.68 M39.44 31.18 C46.68 22.21, 53.89 11.52, 63.94 -1.79 M37.62 29.21 C44.7 21.34, 51.57 13.56, 63.26 -0.1 M44.51 31.39 C51.17 20.17, 62.02 9.51, 69.28 1.15 M43.11 29.73 C52.21 19.35, 64.24 6.81, 67.81 0.43 M48.81 29.64 C57.06 21.19, 64.83 11.11, 72.88 -0.62 M48.17 29.87 C57.55 20.3, 67.22 8.61, 74.02 0.75 M53.96 30.17 C58.58 23.58, 66.02 16.15, 78.23 1.74 M52.2 31.01 C62.71 19.04, 73.04 6.62, 80.08 0.18 M57.82 31.04 C67.93 19.32, 76.73 8.83, 86.12 -2.12 M58.13 29.32 C68.48 18.36, 79.22 7.45, 85.21 -0.65 M62.31 29.18 C71.09 20.63, 76.83 11.92, 90.37 -0.66 M64.67 30.34 C69.61 23.6, 75.96 15.8, 89.93 0.75 M67.6 29.36 C76.66 19.47, 87.41 11.58, 96.05 0.46 M69.11 29.38 C78.15 19.57, 86.56 9.77, 94.82 -0.85 M75.93 29.18 C81.5 25.37, 86.11 16.83, 99.31 -0.54 M73.51 30.15 C80.22 23.1, 85.5 18.16, 100.73 0.19 M81.79 28.1 C90.59 19.9, 99.9 9.37, 105.54 -0.64 M79.48 29.12 C90.45 19.09, 98.69 8.67, 105.58 -1.18 M83.72 28.41 C95.01 20.43, 106.31 9.07, 113.19 1.08 M84.46 30.14 C92.98 21.3, 102.06 11.54, 110.59 -0.17 M89.86 29 C98.58 20.86, 106.2 11.97, 115.33 1.08 M89.73 29.6 C97.89 22.09, 106.49 13.49, 116.35 1.07 M97.04 30.6 C102.11 22.04, 112.21 10.33, 122.66 0.69 M96.02 29.25 C102.44 23.24, 108.93 15.29, 122.38 0.22 M101.76 29.04 C109.41 19.75, 117.45 10.06, 126.6 -0.66 M101.01 30.89 C110.03 20.57, 118.41 10.65, 126.67 -0.43 M105.8 29 C114.95 21.44, 117.91 12.97, 132.84 0.29 M105.43 29.67 C112.62 22.05, 120.7 13.07, 131.74 -0.8 M111.96 28.98 C119.52 22.9, 125.19 14.95, 137.09 -0.35 M111.31 30.55 C121.57 19.59, 130.83 7.89, 136.9 -0.46 M118.36 30.35 C124.49 21.92, 133.07 9.12, 143.35 -0.63 M116.7 30.84 C125.48 19.56, 136.63 7.52, 143.02 -0.18 M122.1 30.31 C128.53 22.39, 138.08 13.48, 147.67 0.25 M121.99 30.66 C129.2 23.61, 134.14 16.63, 148.77 0.65 M125.61 30.9 C136.52 21.88, 141.64 11.87, 152.35 -1.08 M126.57 29.45 C138.33 18.38, 147.36 6.31, 153.35 0.4 M132.31 32.01 C137.25 24.39, 142.25 18.88, 155.77 3.14 M133.17 30.52 C139.91 21.9, 148.2 13.94, 156.81 2.11 M136.94 28.38 C143.04 24.57, 147.02 21.13, 156.58 10.49 M138.54 29.45 C146.35 21.7, 151.68 13.42, 156.73 9.57 M141.23 30.58 C147.14 26.35, 153.32 18.06, 156.7 13.11 M143.73 30.7 C146.35 25.84, 150.09 22.25, 157.71 13.66 M148.46 30.02 C151.68 28.06, 153.08 23.81, 156.54 20.39 M148.84 30.02 C151.8 27.48, 154.13 24.43, 156.9 20.43" stroke="#fab00555" stroke-width="0.5" fill="none"></path><path d="M0.11 -1.31 C34.28 -0.55, 68.89 0.41, 153.54 -1.25 M0.31 0.75 C35.88 1.35, 71.77 1.07, 153.42 -0.55 M152.65 1.17 C153.08 6.74, 152.08 14.48, 155.47 30.6 M154.23 0 C153.5 11.04, 153.47 24.46, 153.49 29.77 M152.51 31.45 C123.47 28.97, 89.62 28.57, 1.23 30 M153.34 30.49 C121.37 27.82, 90.78 27.82, 0.07 30.24 M0.1 30.77 C-0.73 21.91, -1.81 10.7, 1.13 -1.2 M-0.42 30.85 C-0.2 18.43, -0.29 5.46, -0.09 -0.56" stroke="#d9480f" stroke-width="1" fill="none"></path></g><g transform="translate(36.5 52) rotate(0 51 10)"><text x="51" y="14" font-family="Virgil, Segoe UI Emoji" font-size="16px" fill="#d9480f" text-anchor="middle" style="white-space: pre;" direction="ltr">auipc ra,0x0</text></g><g stroke-linecap="round" transform="translate(12 82) rotate(0 77 15)"><path d="M0 0 C0 0, 0 0, 0 0 M0 0 C0 0, 0 0, 0 0 M-0.04 6.85 C2.09 4.31, 3.61 3.09, 5.71 0.69 M0.02 6.41 C1.45 3.76, 3.77 1.88, 4.62 0.31 M-0.41 12.46 C3.51 6.87, 9.92 1.91, 10.15 0.4 M-0.08 11.4 C2.32 10.23, 5.08 6.72, 10.81 0.01 M-0.14 19.12 C5.21 12.09, 12.48 3.62, 15 0.66 M-0.59 17.81 C5.38 12.73, 10.93 5.6, 16.35 -0.55 M0.44 25.22 C10.16 14.6, 15.53 4.35, 21.52 1.23 M0.97 24.84 C8.84 15.03, 17.41 4.69, 21.77 0.7 M-1.83 29.72 C4.5 25.04, 11.91 16.59, 24.49 1.69 M-0.75 31.4 C8.14 21.72, 16.92 11.98, 26.59 0.78 M7.55 31.28 C14.79 22.31, 22 11.63, 32.05 -1.69 M5.73 29.31 C12.81 21.44, 19.68 13.66, 31.37 0 M12.62 31.49 C19.28 20.27, 30.13 9.61, 37.39 1.25 M11.22 29.83 C20.32 19.46, 32.35 6.91, 35.92 0.53 M16.92 29.74 C25.17 21.29, 32.94 11.21, 40.99 -0.52 M16.28 29.97 C25.66 20.4, 35.33 8.71, 42.13 0.86 M22.07 30.27 C26.69 23.69, 34.13 16.25, 46.34 1.84 M20.31 31.11 C30.82 19.14, 41.15 6.72, 48.19 0.29 M25.93 31.14 C36.04 19.43, 44.84 8.93, 54.23 -2.01 M26.24 29.43 C36.59 18.47, 47.33 7.55, 53.32 -0.54 M30.42 29.29 C39.2 20.73, 44.94 12.02, 58.47 -0.56 M32.78 30.44 C37.72 23.71, 44.07 15.91, 58.04 0.85 M35.71 29.46 C44.77 19.57, 55.52 11.68, 64.16 0.57 M37.22 29.49 C46.26 19.67, 54.67 9.88, 62.93 -0.75 M44.04 29.29 C49.61 25.47, 54.21 16.93, 67.42 -0.44 M41.62 30.25 C48.33 23.2, 53.61 18.27, 68.84 0.29 M49.9 28.2 C58.7 20, 68.01 9.47, 73.65 -0.53 M47.59 29.22 C58.56 19.19, 66.8 8.77, 73.69 -1.08 M51.83 28.51 C63.12 20.53, 74.42 9.17, 81.3 1.18 M52.57 30.24 C61.09 21.41, 70.17 11.64, 78.7 -0.07 M58.63 28.35 C67.34 20.21, 74.96 11.32, 84.09 0.43 M58.49 28.95 C66.66 21.44, 75.26 12.84, 85.11 0.42 M65.15 30.7 C70.22 22.14, 80.32 10.44, 90.77 0.79 M64.13 29.35 C70.55 23.34, 77.04 15.39, 90.49 0.33 M70.53 28.39 C78.17 19.1, 86.22 9.4, 95.37 -1.31 M69.78 30.24 C78.8 19.92, 87.18 10, 95.44 -1.08 M73.91 29.1 C83.06 21.54, 86.02 13.07, 100.95 0.39 M73.54 29.77 C80.72 22.15, 88.81 13.17, 99.85 -0.7 M80.73 28.33 C88.29 22.25, 93.96 14.3, 105.85 -1 M80.07 29.9 C90.34 18.94, 99.59 7.24, 105.66 -1.11 M86.47 30.45 C92.6 22.02, 101.18 9.23, 111.46 -0.53 M84.81 30.94 C93.59 19.67, 104.74 7.62, 111.13 -0.07 M90.21 30.41 C96.64 22.49, 106.19 13.59, 115.78 0.35 M90.1 30.76 C97.31 23.72, 102.25 16.73, 116.88 0.75 M93.72 31 C104.63 21.98, 109.75 11.97, 120.46 -0.98 M94.68 29.56 C106.44 18.48, 115.47 6.41, 121.46 0.51 M100.42 32.12 C105.79 24, 111.24 17.98, 125.85 0.97 M101.28 30.62 C108.65 21.31, 117.55 12.64, 126.89 -0.05 M105.04 28.48 C113.07 22.38, 119.03 16.66, 132.56 1.53 M106.65 29.56 C117.58 18.25, 125.95 6.48, 132.71 0.62 M109.34 30.69 C119.47 21.7, 129.83 8.61, 137.27 -1.13 M111.84 30.81 C117.5 22.34, 124.43 15.08, 138.29 -0.58 M116.33 30.14 C125.72 22.19, 132.18 10.35, 142.91 -1 M116.95 30.13 C125.9 21.48, 133.7 11.9, 143.51 -0.93 M122.08 32.12 C129.21 23.93, 136.7 11.91, 146.45 0.78 M121.39 31.13 C128.4 22.27, 136.95 13.16, 149.07 0.62 M125.95 28.72 C135.99 20, 145.42 13.57, 153.13 0.92 M126.59 29.72 C137.3 19.15, 147.85 7.41, 153.22 -0.07 M134.3 31.91 C143.41 21.41, 152.38 9.19, 158.28 1.22 M132.31 30.67 C140.75 21.56, 148.24 11.98, 156.02 2.49 M138.79 30.47 C143.19 22.09, 149.79 16.86, 155.49 7.33 M137.32 30.03 C144.19 23.61, 148.17 17.85, 156.09 9.58 M144.12 31.04 C147.97 23.63, 150.96 19.52, 155.6 13.46 M143.71 29.72 C146.91 26.66, 150.09 23.28, 156.06 14.53 M149.68 30.67 C149.67 27.65, 152.23 25.91, 157.39 20.79 M149.3 29.99 C150.24 28.18, 152.54 26.34, 156.43 20.7" stroke="#fab00555" stroke-width="0.5" fill="none"></path><path d="M-1.83 -0.05 C53.07 1.49, 103.51 -0.97, 152.71 1.43 M-0.66 -0.42 C39.8 1.19, 81.3 1.58, 153.71 0.93 M152.88 1.63 C155.63 8.87, 152.44 19.87, 152.45 31.92 M154.48 -0.47 C153.95 7.8, 155.04 17.14, 154.93 30.71 M154.2 31.17 C105.52 32.73, 57.98 30.06, 1.76 30.6 M154.3 29.8 C109.89 31.37, 65.14 31.62, -0.56 30.95 M-0.53 31.87 C-0.32 24.9, 1.95 16.28, 1.87 -0.66 M0.77 29.49 C0.89 22.36, -0.52 16.82, -0.98 -0.32" stroke="#d9480f" stroke-width="1" fill="none"></path></g><g transform="translate(61.5 87) rotate(0 27.5 10)"><text x="27.5" y="14" font-family="Virgil, Segoe UI Emoji" font-size="16px" fill="#d9480f" text-anchor="middle" style="white-space: pre;" direction="ltr">jalr ra</text></g><g stroke-linecap="round" transform="translate(10 120.5) rotate(0 77 15)"><path d="M0 0 C0 0, 0 0, 0 0 M0 0 C0 0, 0 0, 0 0 M0.5 6.88 C1.82 5.15, 3.11 2.71, 5.05 -0.27 M-0.23 6.09 C1.23 4.5, 2.65 2.92, 4.78 0.4 M1.72 12.88 C3.38 8.11, 8.41 3.78, 11.04 0.76 M0.6 11.55 C3.64 8.04, 9.1 2.79, 9.86 0.19 M0.52 18.13 C5.74 13.09, 10.5 6.47, 14.09 -0.06 M-0.12 18.36 C5.37 13.04, 11.25 5.71, 15.23 1.32 M1.07 23.94 C4.36 18.92, 10.46 13.02, 20.1 1.55 M-0.69 24.78 C7.82 15.16, 16.13 5.06, 21.95 -0.01 M-0.97 31.6 C9.14 19.89, 17.93 9.4, 27.33 -1.55 M-0.67 29.89 C9.69 18.93, 20.43 8.01, 26.42 -0.08 M4.17 29 C12.95 20.44, 18.7 11.73, 32.23 -0.85 M6.53 30.15 C11.47 23.42, 17.82 15.62, 31.8 0.56 M8.81 29.93 C17.87 20.04, 28.62 12.15, 37.26 1.03 M10.31 29.95 C19.36 20.14, 27.77 10.34, 36.02 -0.29 M17.8 29 C23.36 25.18, 27.97 16.64, 41.17 -0.73 M15.37 29.96 C22.08 22.91, 27.36 17.98, 42.59 0 M23 28.66 C31.8 20.47, 41.11 9.93, 46.75 -0.07 M20.69 29.69 C31.65 19.66, 39.89 9.23, 46.79 -0.62 M25.58 28.22 C36.87 20.24, 48.18 8.88, 55.06 0.89 M26.32 29.95 C34.85 21.11, 43.92 11.35, 52.45 -0.36 M31.73 28.81 C40.44 20.67, 48.06 11.79, 57.19 0.89 M31.59 29.42 C39.75 21.9, 48.35 13.31, 58.21 0.88 M38.91 30.41 C43.98 21.85, 54.07 10.14, 64.52 0.5 M37.88 29.06 C44.3 23.05, 50.8 15.1, 64.24 0.04 M43.62 28.86 C51.27 19.56, 59.32 9.87, 68.46 -0.85 M42.87 30.7 C51.9 20.38, 60.28 10.46, 68.53 -0.61 M47.66 28.81 C56.81 21.25, 59.77 12.78, 74.7 0.1 M47.3 29.48 C54.48 21.86, 62.56 12.88, 73.6 -0.99 M53.83 28.8 C61.38 22.71, 67.06 14.76, 78.95 -0.54 M53.17 30.37 C63.43 19.41, 72.69 7.7, 78.76 -0.65 M60.22 30.16 C66.35 21.73, 74.93 8.94, 85.22 -0.82 M58.57 30.65 C67.34 19.37, 78.49 7.33, 84.88 -0.37 M63.97 30.12 C70.4 22.2, 79.94 13.3, 89.53 0.06 M63.85 30.47 C71.07 23.43, 76 16.44, 90.63 0.46 M67.47 30.71 C78.38 21.69, 83.5 11.68, 94.21 -1.27 M68.44 29.27 C80.19 18.19, 89.22 6.12, 95.21 0.22 M74.18 31.82 C79.54 23.71, 84.99 17.69, 99.6 0.68 M75.03 30.33 C82.4 21.02, 91.3 12.35, 100.64 -0.35 M78.8 28.19 C86.82 22.09, 92.78 16.37, 106.32 1.24 M80.4 29.27 C91.34 17.96, 99.7 6.19, 106.47 0.33 M83.09 30.4 C93.22 21.4, 103.58 8.32, 111.03 -1.42 M85.59 30.52 C91.26 22.04, 98.18 14.79, 112.04 -0.87 M89.42 30.61 C98.81 22.65, 105.27 10.81, 116.01 -0.54 M90.05 30.6 C98.99 21.94, 106.8 12.36, 116.61 -0.47 M95.84 31.83 C102.97 23.64, 110.45 11.62, 120.2 0.49 M95.14 30.84 C102.15 21.98, 110.7 12.87, 122.83 0.33 M99.05 29.19 C109.09 20.46, 118.51 14.04, 126.23 1.38 M99.69 30.19 C110.4 19.62, 120.94 7.87, 126.32 0.4 M108.05 31.62 C117.95 20.23, 127.71 7.11, 134 -1.34 M106.06 30.37 C115.12 20.56, 123.23 10.27, 131.74 -0.06 M111.89 30.93 C118.53 19.88, 127.43 12.01, 136.46 -1.26 M110.42 30.49 C119.43 21.61, 125.48 13.47, 137.06 0.99 M117.87 30.75 C125.85 18.6, 132.93 9.78, 141.81 -1.17 M117.47 29.43 C123.34 23.15, 129.31 16.54, 142.28 -0.1 M123.34 31.58 C126.54 22.63, 134.17 15.86, 149.32 0.02 M122.72 30.44 C127.16 23.87, 134 17.34, 147.71 -0.13 M125.92 31.72 C138.77 17.21, 145.83 9.3, 155.52 0.23 M127.23 29.58 C137.5 18.27, 147.78 6.56, 154.69 -0.6 M131.28 32.37 C139.54 25.48, 145.43 17.98, 156 1.5 M131.85 30.23 C140.96 21.8, 148.48 12.19, 155.92 3.12 M139.34 30.52 C144.19 25.67, 149.54 16.86, 157.63 8.68 M137.98 29.63 C142.85 24.53, 148.68 16.45, 156.1 7.95 M144.08 32.05 C148.68 26.8, 152.39 20.71, 157.55 14.2 M143.8 31.31 C148 25.51, 151.81 19.68, 157.49 15.36 M148.19 29.19 C150.49 25.96, 154.44 25.06, 157.65 20.6 M148.97 29.79 C150.12 28.39, 152.04 26.06, 157.18 21.09" stroke="#fab00555" stroke-width="0.5" fill="none"></path><path d="M0.55 1.14 C49.64 -0.37, 97.1 1.26, 155.8 0.81 M0.71 0.04 C56.96 -1, 115.53 -0.05, 153.08 -0.12 M153.32 0.52 C152.62 11.6, 155.4 23.4, 153.4 30.54 M153.73 -0.8 C154.03 6.93, 154.81 11.69, 154.22 30.05 M153.99 30.68 C91.36 29.46, 30.77 28.23, -0.62 30.33 M153.53 29.37 C100.55 29.28, 46.96 28.46, 0.74 29.13 M0.17 31.13 C1.86 18.37, -0.84 5.86, 0.26 1.3 M0.7 30.76 C0.45 18.58, 0.91 5.97, 0.51 0.77" stroke="#d9480f" stroke-width="1" fill="none"></path></g><g transform="translate(74 125.5) rotate(0 13 10)"><text x="13" y="14" font-family="Virgil, Segoe UI Emoji" font-size="16px" fill="#d9480f" text-anchor="middle" style="white-space: pre;" direction="ltr">nop</text></g><g stroke-linecap="round" transform="translate(10.5 158.5) rotate(0 77 15)"><path d="M0 0 C0 0, 0 0, 0 0 M0 0 C0 0, 0 0, 0 0 M-0.61 6.49 C1.26 5.57, 2.74 2.89, 4.78 0.31 M-0.25 6.12 C1.04 4.31, 2.91 2.76, 4.71 0.1 M-0.57 12.74 C3.46 7.19, 7.21 4.65, 10.7 -1.25 M-0.26 11.48 C3.33 9.29, 5.16 6.9, 11 0.33 M-0.61 18.93 C3.33 14.3, 8.74 5.33, 14.02 2.07 M0.66 19.41 C5.64 11.98, 10.48 5.09, 14.69 0.08 M0.87 22.5 C7.95 16.9, 14.94 7.91, 22.58 -0.19 M0.72 24.66 C7.08 17.38, 13.09 8.69, 21.9 -0.29 M1.53 31.09 C7.51 22.7, 15.65 9.53, 27.81 -0.96 M-0.07 31.25 C7.67 23.63, 14.85 15.49, 26.3 -0.71 M4.89 30.79 C15.38 20.29, 20.81 10.87, 32.61 0.81 M5.58 30.23 C11.37 23.75, 17.92 16.01, 31.88 -0.81 M10.24 31.42 C19.15 24.13, 25.46 15.29, 37.09 -1.2 M9.67 31.15 C19.92 19.02, 29.76 8.93, 36.34 -0.28 M16.56 31.41 C26.24 19.45, 36.51 8.46, 42.82 -1.65 M16.4 29.42 C24.2 20.24, 32.11 11.17, 42.84 0.6 M23.04 30.88 C32.01 19.79, 40.12 6.43, 46.6 -0.53 M22.19 29.92 C28.63 20.22, 37.93 11.81, 47.24 0.48 M25.36 30.55 C36.54 18.76, 43.66 7.81, 52.69 -0.19 M27.38 30.41 C34.43 21.67, 42.47 11.61, 53.85 0.42 M33.41 30.85 C40.22 20.89, 46 11.12, 58.59 1.69 M31.55 31.08 C37.74 22.21, 44.46 15.47, 58.68 -0.57 M35.55 30.82 C49.67 16.03, 58.03 5.74, 63.23 -0.93 M37.22 30.04 C45.98 20.98, 52.45 12.52, 63.22 -0.08 M44.35 31.21 C48.36 23.9, 57.66 14.99, 68.79 0.58 M43.09 30.85 C51.07 19.84, 60.26 8.86, 69.63 -0.78 M48.86 29.37 C52.25 22.61, 58.13 18.99, 72.91 0.51 M47.84 29.96 C53.02 23.95, 58.43 17.69, 74.53 -0.92 M52.34 30.35 C59.68 24.82, 65.13 15.46, 78.45 1.79 M53.35 30.25 C61.1 22.33, 69.15 13.15, 80.26 -0.81 M60.54 29.82 C66.63 18.54, 78.49 9.02, 85.74 -0.99 M58.44 30.52 C66.38 21.11, 72.68 13.39, 84.59 0.65 M63.39 29.15 C70.56 22.05, 78.88 12.6, 90.32 1.44 M64.15 31 C70.06 22.1, 77.17 14.37, 90.01 -0.51 M71.32 30.32 C77.41 22.1, 82.39 14.03, 95.2 -0.03 M69.47 30.85 C78.63 18.35, 86.7 9.03, 95.47 0.13 M72.97 30.99 C84.72 18.94, 94.7 9.69, 100.62 -1.83 M74.57 29.62 C81.79 23.98, 86.68 16.72, 101.59 0.97 M79.45 31.48 C86.75 24.28, 92.26 15, 108.29 -0.74 M80.61 30.82 C85.77 23.43, 92.1 15.69, 106.47 -0.23 M86.09 29.76 C91.3 21.86, 94.64 17.31, 111.12 1.11 M84.92 29.35 C94.36 19.51, 102.23 8.87, 110.92 -0.75 M92.02 29.2 C100.99 16.84, 110.18 7.96, 116.84 0.01 M90.15 29.8 C97.71 20.53, 106.13 10.47, 115.52 1.3 M97.23 29.83 C104.98 21.44, 109.25 12.46, 121.04 1.9 M94.77 30.18 C103.99 20.17, 114.01 9.23, 121.21 0.72 M99.58 31.61 C111.08 20.78, 119.66 6.55, 128.16 1.61 M101.6 29.66 C110.16 19.99, 120.86 8.53, 127.75 0.98 M106.39 30.1 C116.57 18.87, 127.55 7.03, 131.13 -1.34 M106.93 30.85 C114.99 21.18, 121.5 11.64, 132.88 0.48 M112.22 31.58 C117.62 23.73, 122.39 17.17, 137.09 0.19 M111.73 31.28 C120.39 19.73, 129.05 10.3, 137.55 0.05 M115.06 31.94 C124.25 18.8, 133.2 8.62, 143.64 0.03 M117.46 30.88 C125.31 20.56, 133.81 10.49, 143.64 0.42 M122.17 31.76 C128.66 20.94, 140.01 12.07, 148.61 1.64 M121.25 29.52 C130.14 22.69, 137.99 12.97, 147.25 -0.24 M126.24 31.24 C137.21 18.22, 149.37 7.35, 154.3 1.14 M127.69 30.49 C134.26 22.7, 138.84 16.33, 154.43 -0.85 M131.19 29.27 C138.77 20.5, 150.37 13.41, 155.25 0.59 M132.09 30 C140.88 20.89, 149.85 9.39, 156.45 2.37 M136.41 30.38 C143.64 25.75, 147.5 17.98, 156.48 8.68 M138.19 30.69 C142.11 24.57, 147.91 18.35, 157.56 9.1 M142.5 31.75 C145.5 26.11, 150.42 21.63, 158.44 15.48 M143.44 31.11 C148.78 23.98, 153.1 18.08, 157.4 14.16 M148.07 30.14 C152.48 27.77, 153.75 25.1, 157.59 20.83 M148.79 29.53 C149.88 28.59, 151.65 26.2, 156.11 20.59" stroke="#fab00555" stroke-width="0.5" fill="none"></path><path d="M-0.32 1.86 C40.47 0.54, 81.23 -0.45, 154.1 0.91 M0.64 0.76 C51.95 -0.9, 103.49 -1.71, 153.53 -0.66 M154.63 -1.71 C155.11 8.72, 152.98 21.61, 154.95 29.57 M153.73 0.17 C154.89 9.35, 154.56 19.02, 154.96 29.3 M152.15 31.98 C108.61 29.87, 58.5 29.61, -0.27 29.64 M154.66 29.89 C114.8 28.93, 73.25 29.57, 0.6 29.1 M-0.68 31.96 C-0.26 24.11, -0.77 19.52, -0.91 0.04 M-0.62 30.54 C-0.37 20.21, -0.7 9.89, 0.84 0.15" stroke="#d9480f" stroke-width="1" fill="none"></path></g><g transform="translate(74 163.5) rotate(0 13.5 10)"><text x="13.5" y="14" font-family="Virgil, Segoe UI Emoji" font-size="16px" fill="#d9480f" text-anchor="middle" style="white-space: pre;" direction="ltr">j 8</text></g><g stroke-linecap="round" transform="translate(10 196) rotate(0 77 15)"><path d="M0 0 C0 0, 0 0, 0 0 M0 0 C0 0, 0 0, 0 0 M-0.89 6.34 C1.7 3.78, 4.02 1.85, 5.27 0.35 M-0.64 6.32 C1.15 5.25, 2.53 3.67, 5.26 0.4 M0.48 10.5 C3.57 9.24, 4.09 7.08, 11.2 -0.9 M-0.6 12.15 C3.18 9.18, 5.35 6.43, 10.82 0.08 M-1.61 18.69 C2.14 14.32, 5.48 9.92, 14.62 0.96 M0.23 19.33 C5.86 12.19, 11.83 4.63, 14.85 -0.13 M-0.87 25.93 C4.77 15.92, 9.49 11.75, 21.6 -0.61 M-0.2 23.31 C7.25 16.56, 13.34 7.74, 20.52 -0.3 M-1.51 31.43 C8.62 20.72, 16.88 11.89, 25.59 1.68 M0.06 31.24 C9.69 19.94, 18.58 8.13, 25.48 0.51 M5.9 29.4 C17.06 18.02, 23.84 7.44, 31.35 0.99 M6.39 29.09 C11.68 24.21, 16.24 16.42, 31.8 -0.38 M10.48 29.8 C17.71 24.22, 23.94 14.01, 36.85 -0.86 M10.83 31.36 C19.37 20.44, 27.96 12.16, 37.25 0.27 M17.11 31.17 C25.59 18.94, 33.11 9.44, 41.56 1.58 M15.67 30.4 C21.7 23.33, 26.7 17.39, 43.05 -0.89 M22.85 29.75 C30.42 19.13, 40.05 9.01, 48.14 0.46 M21.36 30 C27.58 23.55, 34.43 16.22, 47.11 -0.25 M25.26 30.4 C36.85 18.32, 48.82 7.04, 54.74 1.55 M26.33 30.88 C32.1 22.77, 37.42 17.56, 53.82 0.18 M32.09 29.66 C40.16 23.5, 44.13 14.4, 56.7 -0.71 M32.21 30.18 C41.76 18.41, 52.51 7.27, 57.25 0.33 M37.58 30.72 C48.79 17.9, 56.1 7.58, 62.87 -0.24 M37.57 30.93 C44.26 23.64, 49.99 15.81, 62.94 -0.44 M44.19 30.42 C52.56 21.15, 57.13 9.64, 69.28 -0.26 M43.2 29.62 C51.79 20.58, 60.15 10.61, 69.11 0.14 M46.83 30.26 C52.54 25.85, 60.53 17.04, 75.45 1.62 M47.83 29.64 C59.41 18.31, 69.81 5.97, 74.47 0.75 M54.64 31.41 C62.69 22, 68.98 14.62, 78.11 0.46 M53.4 30.83 C61.36 21.29, 68.8 10.79, 79.39 0.03 M59.23 29.67 C66.28 20.12, 76.52 7.33, 83.47 -1.01 M58.79 30.91 C63.69 23.53, 69.37 16.16, 85.72 0.01 M64.44 30.51 C69.59 20.34, 78.08 11.76, 88.94 -1.42 M63.12 31.05 C73.94 19.13, 84.42 5.52, 90.01 -0.35 M70.54 28.06 C79.7 16.83, 91.05 6.95, 95.42 -1.73 M69.41 29.34 C79.52 18.68, 89.7 6.65, 95.27 0.32 M76.07 32.11 C82.04 18.88, 94.63 10.21, 101.02 1.73 M73.93 30.28 C83.74 19.57, 93.19 9.23, 100.18 -0.66 M82 31.08 C87.7 24.47, 92.79 14.96, 105.3 0.33 M79.87 30.3 C90.06 19.23, 99.05 7.76, 106.92 -0.57 M85.54 31.09 C94.24 22.3, 99.03 13.35, 111.07 0.05 M84.64 29.27 C93.09 21.32, 98.6 13.22, 110.34 0.25 M91.7 31.62 C99.55 21.53, 106.61 12.57, 115.94 1.31 M90.95 30.69 C99.8 18.97, 108.67 9.75, 117.1 0.6 M94.33 28.82 C103.49 20.19, 116.52 9.66, 121.35 -1.84 M95.33 29.5 C102.53 22.38, 108.34 15.88, 122.18 0.23 M101.17 30.78 C111.29 21.44, 118.4 8.31, 125.64 1.58 M100.67 29.85 C105.98 22.92, 112.06 17.93, 127.42 -0.45 M105.43 29.21 C110.61 22.63, 118.2 16.45, 131.6 -0.8 M105.31 29.24 C114.02 21.64, 122.23 12.23, 132.63 -0.1 M111.53 30.48 C120.31 20.17, 126.71 13.46, 136.24 2.29 M110.3 30.16 C120.57 20.48, 127.93 11.67, 136.8 1.05 M115.34 30.62 C127.2 20.03, 134.19 7.46, 143.05 0.8 M117.14 29.47 C123.89 23.25, 131.2 14.32, 143.89 0.65 M121.99 30.32 C128.29 19.93, 138.88 11.77, 147.73 -1.68 M121.04 29.99 C127.46 23.8, 133.85 14.93, 148.06 -0.17 M126.05 29.94 C133.89 20.37, 143.45 14.46, 154.46 -0.9 M126.64 29.93 C136.38 20.67, 145.28 11.22, 153.41 0.59 M133.32 28.46 C141.15 21.05, 146.7 14.03, 155.65 1.31 M133.32 30.46 C139.58 22.88, 145.62 15.8, 157.29 1.66 M137.06 30.55 C144.89 22.66, 151.98 15.49, 158.19 9.78 M138.89 29.14 C143.02 23.43, 148.92 16.62, 155.99 9.65 M143.75 29.52 C148.4 25.41, 154.57 19.46, 156.41 14.69 M142.85 29.45 C149.01 24.11, 154.94 17.68, 157.25 14.32 M149.14 30.2 C152.34 26.5, 155.04 23.65, 157.02 20.34 M148.44 30.19 C150.72 26.96, 153.17 24.72, 156.78 21.22" stroke="#fab00555" stroke-width="0.5" fill="none"></path><path d="M-1.09 0.08 C43.92 -0.25, 88.8 1.48, 153.26 -1.38 M0.06 -0.44 C36.52 -1.51, 71.78 -1.46, 154.66 0.05 M153.48 -0.99 C152.38 8.5, 153.69 13.84, 154.77 30.93 M153.51 -0.24 C154.35 9.43, 155.02 19.86, 153.46 29.2 M152.94 31.57 C96.31 31.56, 34.79 29.82, -0.59 28.14 M153.91 30.3 C110.8 28.75, 69.71 28.67, 0.14 30.66 M-1.75 30.91 C1.09 21.81, 1.6 11.62, -0.29 1.29 M-0.72 30.76 C0.24 21.09, 0.82 12.58, -0.84 0.78" stroke="#d9480f" stroke-width="1" fill="none"></path></g><g transform="translate(31 201) rotate(0 56 10)"><text x="56" y="14" font-family="Virgil, Segoe UI Emoji" font-size="16px" fill="#d9480f" text-anchor="middle" style="white-space: pre;" direction="ltr">lui s1,0x10000</text></g><g stroke-linecap="round" transform="translate(10.5 235) rotate(0 77 15)"><path d="M0 0 C0 0, 0 0, 0 0 M0 0 C0 0, 0 0, 0 0 M-0.87 5.83 C0.61 5.39, 1.62 3.83, 4.23 0.26 M-0.49 6.56 C1.54 4.23, 3.79 1.55, 4.72 0.61 M0.62 13.28 C3.4 7.67, 5.92 5.9, 10.64 -1.04 M0.02 12.75 C2.4 10.06, 5.36 6.06, 11.2 0.24 M-1.92 18.11 C3.86 15.4, 8.04 8.96, 14.84 -1.63 M0.3 17.55 C4.68 12.02, 9.24 8.05, 15.24 0.87 M0.33 23.85 C8.78 14.43, 14.51 9.56, 20.38 -0.68 M-0.26 23.64 C6.39 16.18, 12.85 8.74, 20.6 -0.05 M1.84 29.78 C8.34 19.59, 15.16 12.4, 27.16 0.45 M0.16 29.61 C9.19 18.92, 19.89 7.54, 26.74 -0.24 M6.64 29.5 C17.32 19.59, 25.11 5.93, 30.6 -1.72 M6.6 30.76 C11.37 23.74, 18.75 17.1, 31.38 -1.08 M10.49 32.32 C16.53 22.31, 26.67 13.78, 35.29 2 M10.82 30.89 C21.01 18.25, 30.28 7.71, 36 0.01 M16.9 28.17 C23.01 20.31, 32.96 11.64, 43.31 0.46 M16.78 29.66 C24.22 19.78, 32.83 10.09, 43.49 -1.01 M21.54 28.66 C27.87 22.91, 37.25 12.15, 47.96 1.16 M20.62 30.19 C29.27 20.03, 37.93 11.46, 47.47 0.75 M28.61 30.04 C30.99 23, 38.03 17.91, 54 1.24 M26.45 30.5 C37.1 19.15, 45.14 9.27, 53.99 0.63 M32.48 32.21 C38.97 20.43, 48.96 13.51, 59.41 -1.46 M31.6 31.04 C42.52 19.22, 52.55 8.13, 58.83 -0.15 M38.01 29.73 C45.88 21.46, 49.28 13.54, 63.66 -1.48 M38.32 30.15 C47.36 17.3, 58.53 6.35, 63.2 -0.91 M42.29 30.84 C47.93 22.96, 56.68 13.13, 69.4 1.3 M43.09 29.65 C51.45 20.22, 59.45 10.28, 69.03 -0.07 M46.86 28.39 C54.34 19.97, 62.53 14.15, 74.78 0.66 M48.33 30.24 C58.36 18.01, 68.58 7.12, 74.69 0.38 M51.47 30.93 C64.47 19.95, 74.13 7.84, 79.16 -0.95 M53.65 31.05 C60.25 23.25, 64.66 16, 80.26 0.36 M58.38 29.64 C67.57 22.26, 73.42 14.99, 83.36 -1.44 M59.66 29.13 C67.08 19.34, 76.47 9.42, 85.27 -0.77 M62.02 29.37 C73.86 22.39, 78.18 10.37, 91.43 -0.06 M63.11 30.96 C69.97 22.17, 77.01 14.77, 89.96 -0.74 M69.32 31.61 C73.31 23.95, 80.12 17.53, 94.88 1.59 M68.75 29.94 C77.95 19.65, 86.78 11.09, 95.01 -0.85 M73.41 29.54 C80.47 22.54, 86.52 18.89, 102.46 -1.41 M74.52 29.9 C79.18 23.33, 86.35 16.36, 100.82 -0.49 M81.92 30.95 C88.48 21.57, 98.55 10.28, 104.35 1.64 M79.31 30.55 C87.6 20.67, 95.04 11.13, 107.23 0.38 M86.66 29.32 C89.15 23.74, 95.39 16.88, 109.98 0.14 M84.21 31.09 C91.16 23.86, 96.46 17.02, 110.79 0.72 M91.27 31.53 C97.52 23.46, 102.41 17.96, 115.59 1.85 M89.61 30.34 C99.45 19.59, 107.49 9.75, 115.84 0.67 M96.24 29.1 C107.46 19.67, 113.76 8.42, 121.25 0.22 M95.73 30.54 C102.17 23.63, 108.79 15.49, 121.05 -0.74 M99.92 29.48 C108.98 18.48, 121.8 9.9, 127.91 1.59 M101.16 31.15 C109.86 20.32, 118.09 11.61, 125.96 0.25 M106.15 31.75 C112.99 22.58, 120.15 14.55, 133 0.96 M105.91 31 C114.53 20.36, 122.85 10.14, 132.05 0.26 M109.97 29.69 C117.3 23.85, 124.5 16.21, 136.15 1 M110.74 29.88 C117.9 23.71, 125.43 14.1, 138 0.38 M117.89 30.67 C127.64 18.5, 137.7 6.11, 143.47 -1 M116.82 29.96 C128.13 18.65, 138.44 5.97, 143.47 -0.41 M121.64 30.78 C130.79 21.29, 141.67 9.58, 149.3 1.95 M121.04 31.38 C132.17 18.65, 142.85 6.31, 148.29 0.31 M126.44 29.73 C136.87 19.05, 146.09 9.97, 152.42 1.47 M127.76 29.67 C134.49 21.84, 141.66 14.48, 154.26 -0.13 M132.69 29.91 C136.53 24.23, 142.58 15.35, 155.88 3.11 M132.01 31.29 C138.97 21.63, 145.87 15.45, 156.42 2.29 M136.29 31.32 C143.74 23.34, 146.5 18.88, 157.19 7.06 M137.3 29.12 C144.46 22.43, 152.73 13.43, 156.75 9.52 M142.35 30.68 C146.98 25.84, 148.77 20.28, 157.32 14.89 M142.84 29.97 C147.07 25.61, 151.75 20.68, 156.65 14.62 M149.2 28.99 C149.86 28.25, 152.04 25.73, 157.36 21.49 M149.09 30.04 C151.76 26.75, 153.25 24.67, 157.24 20.76" stroke="#fab00555" stroke-width="0.5" fill="none"></path><path d="M1.13 0.65 C51.33 -1.89, 102.68 -1.11, 154.27 -0.51 M-0.94 -0.88 C37.6 0.92, 74.64 1, 154.45 -0.87 M154.31 -0.95 C152.14 6.11, 153.31 15.18, 154.05 30.67 M153.68 0.6 C153.92 6.41, 154.84 14.06, 153.93 30.02 M154.64 29.38 C105.6 28.82, 60.2 31.86, -1.16 31.42 M153.72 29.17 C105.96 30.81, 58.28 30.33, 0.95 29.77 M1.69 28.18 C-0.02 18.6, -0.26 6.84, -0.21 0.18 M0.88 29.72 C-0.15 21.21, -0.46 12.58, -0.34 0.07" stroke="#d9480f" stroke-width="1" fill="none"></path></g><g transform="translate(52.5 240) rotate(0 35 10)"><text x="35" y="14" font-family="Virgil, Segoe UI Emoji" font-size="16px" fill="#d9480f" text-anchor="middle" style="white-space: pre;" direction="ltr">li s2, 65</text></g><g stroke-linecap="round" transform="translate(11.5 274) rotate(0 77 15)"><path d="M0 0 C0 0, 0 0, 0 0 M0 0 C0 0, 0 0, 0 0 M-0.75 7.16 C1.47 4.8, 2.5 4.49, 5.72 -0.05 M0.07 6.37 C1.2 4.95, 1.91 4.36, 4.91 0.04 M1.69 12.34 C4.81 8.47, 7.15 2.9, 10.81 -1.44 M-0.04 12.29 C2.24 8.01, 5.88 5.26, 11.07 0.28 M-1.84 19.44 C4.24 11.4, 8.65 5.78, 14.09 2.26 M-0.81 18.58 C2.34 13.96, 7.24 10.87, 15.44 0.55 M-1.26 22.78 C7.03 14.32, 13.66 5.81, 23.12 -0.15 M0.1 24.93 C7.85 14.49, 15.24 6.43, 22.22 0.35 M0.02 29.57 C10.54 20.68, 19.05 6.91, 27.72 1.97 M0.54 30.77 C10.89 18.7, 19.54 8.32, 26.88 0.93 M3.92 29.49 C12.43 24.98, 17.19 18.37, 33.17 1.28 M5.63 30.32 C12.66 22.91, 19.31 13.27, 31.25 -0.17 M12.07 32.01 C16.88 22.32, 21.73 16.69, 37.95 -0.9 M11.18 30.33 C16.97 22.48, 23.37 16.23, 36.82 0.57 M17.85 31.18 C24.2 20.22, 34.73 8.4, 42.01 0.39 M17.2 29.39 C22.91 21.44, 30.04 13.75, 42.58 0.05 M22.82 30.72 C30.65 20.44, 38.79 10.37, 48.52 0.78 M21.91 29.57 C30.79 19.99, 40.8 8.75, 48.19 0.1 M25.03 31.01 C35.07 24.33, 39.49 13.48, 52.13 1.55 M27.5 29.8 C35.39 21.2, 44.3 10.85, 53.78 -1.01 M32.74 32.09 C36.59 22.59, 43.23 17, 56.68 0.65 M31.32 29.49 C38.02 23.98, 45.57 14.63, 57.18 0.89 M36.69 28.63 C46.73 19.91, 52.08 11.69, 63.51 -0.34 M37.71 29.93 C44.43 22.81, 49.37 17.01, 63.67 -0.6 M43.84 28.99 C52.99 19.09, 61.93 8.48, 69.17 -1.16 M43.21 29.84 C48.93 23.35, 55 16.32, 69.24 1.05 M49.6 30.16 C53.68 21.15, 60.19 17.07, 73.66 0.09 M48.29 30.88 C55.11 22.6, 61.74 16, 74.32 -1.22 M51.61 28.81 C65.05 17.37, 73.67 4.26, 78.22 1.98 M52.64 31.11 C62.75 18.4, 72.85 7.52, 79.05 -0.53 M57.97 28.23 C68.83 21.1, 75.74 10.67, 85.55 -1.27 M58.92 30.53 C69.28 19.76, 78.12 8.3, 85.03 -0.62 M65.03 29.42 C73.03 19.72, 82.11 6.77, 89.58 -0.79 M63.95 30.55 C71.65 21.28, 81.28 9.56, 90.56 -0.25 M69.57 29.99 C78.53 20.79, 87.59 11.86, 95.69 -2.05 M68.54 29.51 C74.69 22.4, 80.63 17.08, 96.38 0.19 M74.6 31.22 C85.09 20.32, 92.8 8.62, 102.5 -1.84 M74.69 30.16 C82.96 21.4, 90.07 12.7, 100.95 0.27 M81.62 29.06 C90.92 18.66, 98.92 7.62, 106.07 -1.35 M79.35 29.18 C88.56 19.7, 97.81 10.19, 106.18 -1.04 M84.32 29.09 C92.71 19.38, 104.67 10.69, 109.71 0.95 M85.68 30.68 C93.18 21.44, 100.91 12.26, 110.68 0.16 M88.22 30.32 C96.14 24.37, 103.71 16.45, 115.52 0.96 M90.13 30.42 C97.03 22.18, 104.84 14.74, 116.85 0.94 M95.68 28.41 C107.31 18.46, 115.85 7.44, 121.46 0.24 M94.98 29.6 C103.43 21.46, 110.8 12.7, 121.43 -0.72 M98.92 30.91 C109.97 19.67, 119.34 9.05, 126.35 1.25 M100.88 30.6 C108.44 20.68, 116.79 11.8, 126.01 -0.13 M107.66 29.05 C116.79 19.67, 121.74 10.21, 133.49 -0.87 M105.92 29.18 C114.44 22.34, 120.34 13.03, 132.14 0.26 M110.8 28.71 C114.69 22.7, 122.75 18.99, 136.39 0.67 M110.9 30.08 C121.06 19.75, 130.18 7.92, 136.57 0.49 M116.76 29.41 C124.41 19.93, 133.65 11.31, 143.04 -0.72 M117.06 30.41 C124.41 20.2, 133.58 11.25, 143 0.46 M123.12 31.36 C131.09 21.5, 138.9 7.74, 149.63 2.08 M121.36 31.24 C129.24 21.48, 136.28 14.99, 147.35 -0.45 M128.97 30.37 C133.34 24.19, 139.56 15.4, 152.85 0.81 M128.21 31.04 C135.73 19.05, 145.44 9.01, 153.46 0.01 M132.6 28.98 C138.54 21.56, 146.47 11.4, 157.61 1.15 M132.72 31.2 C141.23 21.42, 148.17 12.72, 156.45 2.82 M139.78 31.31 C143.38 23.79, 146.92 21.64, 155.3 7.41 M138.44 29.55 C141.34 26.46, 146.56 21.12, 156.34 8.83 M141.5 30.2 C144.26 26.05, 149.81 23.9, 156.75 13.3 M142.66 29.83 C145.61 26.07, 148.87 22.27, 156.61 14.08 M149.65 30.07 C149.84 26.73, 152.99 26.3, 157.1 21.69 M148.38 29.52 C152.01 26.96, 154.61 22.51, 156.77 20.68" stroke="#fab00555" stroke-width="0.5" fill="none"></path><path d="M0.02 -1.12 C45.14 -0.55, 89.35 0.75, 152.64 -1.35 M0.02 0.31 C56.5 0.61, 111.04 0.15, 154.84 0.01 M153.88 -0.29 C155.54 7.12, 155.34 15.94, 152.15 31.41 M153.96 -0.9 C153.66 10.19, 154.5 20.4, 153.64 29.61 M155.21 30.85 C121.1 29.19, 90.31 28.55, 1.86 29.24 M153.44 30.03 C99.29 30.45, 43.94 29.84, 0.68 29.56 M1.46 28.94 C-0.89 21.65, -0.92 13.8, -1.2 -1.31 M0.22 30.92 C-0.36 21.28, -0.85 11.67, 0.14 0.46" stroke="#d9480f" stroke-width="1" fill="none"></path></g><g transform="translate(45 279) rotate(0 43.5 10)"><text x="43.5" y="14" font-family="Virgil, Segoe UI Emoji" font-size="16px" fill="#d9480f" text-anchor="middle" style="white-space: pre;" direction="ltr">sb s2,0(s1)</text></g><g stroke-linecap="round" transform="translate(11.5 311.5) rotate(0 77 15)"><path d="M0 0 C0 0, 0 0, 0 0 M0 0 C0 0, 0 0, 0 0 M0.25 5.74 C1.73 5.55, 1.73 2.99, 5.51 1.05 M0.02 6.26 C1.16 4.46, 3.02 2.62, 4.94 0.71 M0.03 11.02 C4.43 10.05, 6.67 7.26, 10.91 -0.7 M-0.33 11.48 C2.56 9.34, 5.77 5.86, 10.83 -0.76 M0.5 19.58 C6.11 12.77, 12.88 6.46, 14.24 1.39 M0.13 18.22 C4.02 12.31, 9.89 7.35, 14.84 -0.14 M0.63 24.98 C6.18 20.16, 10.38 14.47, 21.85 0.52 M0.55 24.7 C7.02 17.26, 12.69 9.46, 21.57 0.46 M-0.24 29.41 C8.62 17.42, 18.12 8.22, 27.73 1.87 M0.87 30.72 C7.06 21.75, 15.12 14.01, 26.11 1.09 M3.96 28.92 C14.63 20.34, 23.52 11.97, 30.32 -0.56 M5.88 29.59 C11.67 22.45, 17.3 15.11, 31.44 0.89 M12.03 30.3 C19.23 19.16, 28.48 8.12, 38.26 -1.11 M10.57 29.63 C16.37 21.97, 24.17 15.19, 37.74 -0.57 M15.49 31.95 C24.61 20.76, 33.77 10.13, 42.65 0.53 M15.62 29.51 C21.16 22.56, 29 15.3, 42.17 0.21 M23.06 28.95 C25.4 23.96, 34.37 16.81, 46.82 -1.66 M21.43 29.87 C29.04 21.01, 36.66 13.71, 48.06 0.13 M24.96 32 C36.5 18.69, 44.63 6.11, 54.57 -1.07 M27.84 30.74 C33.62 21.29, 41.31 14.16, 52.71 -0.96 M30.59 30.5 C38.11 21.6, 46.39 11.32, 59.91 0.6 M31.4 31.08 C39.82 20.14, 49.58 10.85, 58.62 1.18 M36.85 31.46 C44.91 20.17, 52.21 13.44, 63.33 0.27 M37.1 30.27 C44.81 22.8, 50.53 15.77, 63.24 0.75 M41.86 30.58 C50.72 20.27, 61.08 9.42, 69.52 0.54 M41.66 29.62 C53.08 17.94, 61.51 6.96, 68.24 -0.67 M49.17 31.2 C54.88 21.56, 60.88 16.08, 75.66 0.67 M47.22 29.86 C54.96 20.55, 62.71 13.19, 75.22 -0.54 M53.61 31.32 C62.36 20.65, 72.03 9.6, 81.14 -0.44 M52.65 30.63 C61.23 20.81, 69.73 9.97, 78.99 0.08 M57.41 30.6 C66.1 18.73, 74.43 9.86, 83.81 -1.22 M59.27 29.99 C69.9 17.35, 80.21 6.61, 85.33 0.05 M64.08 29.36 C73.3 21.29, 77.25 12.47, 89.75 1.54 M64.08 29.95 C72.93 19.91, 81.05 10.27, 90.19 -0.34 M70.56 31.56 C81.6 18.97, 89.99 4.23, 97.52 -0.28 M69.56 29.92 C77.8 20.32, 85.18 10.35, 95.5 0.13 M73.02 31.83 C79.14 25.19, 84.09 17.31, 99.87 0.86 M74.87 30.23 C79.6 22.78, 86.51 16.44, 100.4 -0.91 M79.11 30.45 C88.28 20.06, 98.65 9.44, 108.03 -0.87 M79.65 29.64 C84.79 22.85, 90.21 16.65, 106.95 0.08 M85.67 28.36 C92.62 22.79, 96.35 15.11, 109.47 -1.6 M85.23 30.83 C93.41 19.69, 102.32 9.45, 111.43 0.09 M90.39 30.91 C97.6 23.37, 104.55 13.5, 115.44 -0.1 M89.72 30.64 C97.16 21.4, 106.02 12.56, 115.44 -0.23 M96.78 31.09 C104.58 20.96, 113.96 11.54, 122.05 1.54 M96.58 29.86 C102.96 22.83, 108.13 16.09, 122.36 -0.82 M99.22 28.82 C110.9 21.98, 119.76 10.4, 127.28 1.14 M101.13 30.93 C109.49 20.03, 119.83 10.58, 125.98 -0.43 M106.57 30.64 C113.72 21.59, 121.48 11.56, 130.6 0.17 M105.63 30.21 C110.87 24.13, 117.3 18.49, 133.51 -0.41 M111.92 28.8 C119.43 21.72, 131 11.18, 138.66 -1.24 M110.55 29.5 C119.26 19.86, 128.99 9.96, 136.86 0.84 M116.8 28.16 C129.22 16.88, 135.72 6.63, 141.61 -1.33 M116.31 29.49 C127.11 18.81, 135.3 7.87, 142.42 -0.68 M120.99 29.26 C129.2 22.59, 135.11 17.28, 146.81 -1.63 M122.54 31.34 C129.87 19.52, 138.73 9.21, 148.27 0.97 M126.72 31.27 C132.39 22.08, 139.92 15.64, 155.08 -0.07 M127.82 30.08 C136.79 21.01, 144.91 10.2, 153.94 -0.88 M132.43 31.05 C137.37 25.51, 144.04 17.8, 156.5 2.38 M132.93 30.2 C141.1 21.71, 146.78 13.37, 157.68 2.33 M137.05 30.1 C142.72 22.54, 152.91 14.9, 156.62 10.38 M138.6 29.09 C144.09 22.48, 152.75 14.09, 156.23 9.54 M141.71 29.58 C144.72 25.3, 148.2 22.94, 157.42 12.97 M142.77 30.57 C146.15 25.52, 151.38 22.63, 157.23 15.34 M149.55 29.58 C150.28 29.06, 151.53 26.59, 157.77 20.3 M148.53 30.23 C150.99 27, 153.75 24.46, 156.21 20.85" stroke="#fab00555" stroke-width="0.5" fill="none"></path><path d="M-1.29 -1.62 C50.19 1.76, 101.84 3.36, 155.35 -0.68 M-0.51 -0.97 C53.86 -1.71, 109.22 -1.48, 154.94 -0.59 M152.41 1.75 C155.78 10.27, 156.24 18.71, 154.88 31.45 M153.12 -0.24 C154.29 7.59, 153.83 14.45, 153.06 29.19 M154.79 30.6 C108.4 30.6, 60.23 31.84, -0.78 28.92 M154.97 29.12 C119.89 29.82, 85.1 28.96, -0.87 29.52 M0.45 30.93 C0.57 19.2, -1.61 6.63, -0.43 -1.36 M-0.04 30.53 C-0.44 23.4, 0.06 16.1, 0.01 -0.9" stroke="#d9480f" stroke-width="1" fill="none"></path></g><g transform="translate(75 316.5) rotate(0 13.5 10)"><text x="13.5" y="14" font-family="Virgil, Segoe UI Emoji" font-size="16px" fill="#d9480f" text-anchor="middle" style="white-space: pre;" direction="ltr">ret</text></g><g stroke-linecap="round" transform="translate(514.5 88) rotate(0 57 15)"><path d="M0 0 C0 0, 0 0, 0 0 M0 0 C0 0, 0 0, 0 0 M0.26 5.86 C1.86 4.28, 3.36 2.42, 5.15 -0.17 M0.01 6.2 C0.95 5.07, 2.09 3.74, 5.17 0.72 M1.28 12.21 C2.06 7.77, 4.89 7.24, 10.03 0.23 M0.23 12.79 C3.13 9.06, 5.85 6.76, 10.55 -0.82 M-1.68 16.94 C7.57 10.32, 12.01 2.03, 14.44 2.19 M-0.64 19.24 C5.45 10.98, 11.65 4.59, 15.27 -0.33 M-0.56 22.4 C8.65 17.11, 13.95 8.53, 21.77 -1.07 M0.39 24.7 C8.75 16.16, 15.64 6.93, 21.25 -0.41 M1.25 29.63 C9.24 19.93, 18.33 6.98, 25.8 -0.58 M0.17 30.76 C7.87 21.49, 17.5 9.76, 26.78 -0.04 M5.79 30.2 C14.75 20.99, 23.81 12.07, 31.91 -1.84 M4.76 29.72 C10.9 22.61, 16.85 17.28, 32.6 0.4 M10.82 31.43 C21.31 20.53, 29.02 8.83, 38.72 -1.64 M10.91 30.37 C19.18 21.61, 26.29 12.9, 37.17 0.48 M17.84 29.26 C27.14 18.86, 35.14 7.83, 42.29 -1.14 M15.57 29.39 C24.77 19.91, 34.03 10.4, 42.4 -0.83 M20.54 29.3 C28.93 19.59, 40.89 10.9, 45.93 1.16 M21.9 30.89 C29.4 21.65, 37.13 12.47, 46.9 0.37 M25.1 29.77 C33.02 23.83, 40.58 15.9, 52.4 0.41 M27 29.88 C33.91 21.63, 41.71 14.2, 53.73 0.39 M31.89 28.61 C43.53 18.67, 52.07 7.65, 57.68 0.44 M31.2 29.81 C39.65 21.67, 47.02 12.91, 57.65 -0.51 M35.79 30.36 C46.84 19.12, 56.21 8.51, 63.22 0.71 M37.76 30.05 C45.32 20.13, 53.67 11.25, 62.88 -0.68 M43.87 29.26 C53.01 19.88, 57.96 10.42, 69.71 -0.66 M42.14 29.39 C50.66 22.55, 56.56 13.24, 68.36 0.47 M47.68 28.16 C51.56 22.16, 59.63 18.45, 73.26 0.12 M47.77 29.53 C57.94 19.2, 67.05 7.37, 73.45 -0.06 M52.97 29.62 C60.63 20.13, 69.87 11.52, 79.26 -0.51 M53.28 30.62 C60.63 20.4, 69.8 11.46, 79.22 0.67 M59.99 30.81 C67.96 20.95, 75.77 7.19, 86.51 1.54 M58.24 30.69 C66.12 20.93, 73.16 14.44, 84.23 -1 M65.19 30.58 C69.56 24.4, 75.78 15.61, 89.07 1.02 M64.43 31.24 C71.95 19.25, 81.66 9.22, 89.68 0.22 M69.48 28.43 C76.05 20.28, 84.63 9.38, 96.45 -1.66 M69.59 30.65 C78.73 20.17, 86.27 10.78, 95.29 0 M76 31.52 C81.34 21.99, 86.57 17.89, 99.39 -1.44 M74.66 29.76 C79.2 24.91, 86 17.76, 100.43 -0.02 M78.37 29.66 C83.52 22.69, 91.6 17.63, 106.09 -1.59 M79.53 29.29 C85.36 22.16, 91.61 14.92, 105.96 -0.81 M86.41 30.32 C89.79 21.23, 98.18 16.88, 111.96 1.26 M84.3 29.41 C95.55 19.37, 104.97 6.12, 111.41 -0.41 M89.77 30.38 C100.76 20.12, 109.13 8.36, 114.59 1.64 M90.34 29.97 C97.68 20.81, 104.73 11.99, 115.48 1.07 M94.91 31.37 C102.03 22.35, 108.99 13.73, 115.46 8.28 M94.89 30.2 C101.77 23.75, 107 18.51, 115.24 6.95 M102.21 30.73 C105.47 26.73, 111.54 21.45, 116.08 13.98 M101.53 30.55 C103.58 27.54, 106.18 24.15, 115.8 12.44 M105.74 29.72 C109.08 26.36, 110.64 25.12, 116.73 18.99 M106.98 30.65 C109.48 27.38, 111.7 23.16, 115.15 19.99 M110.84 30.82 C112.88 28.94, 113.32 27.82, 115.04 25.67 M111.46 30.32 C112.4 28.94, 113.81 27.56, 115.01 25.97" stroke="#15aabf55" stroke-width="0.5" fill="none"></path><path d="M1.57 1.13 C39.35 0.56, 81.23 -0.47, 113.49 0.52 M0.92 -0.66 C30.9 0.6, 62.42 1.3, 114.06 0.18 M115.55 0.31 C114.83 10.94, 113.91 21.64, 115.02 30.56 M114.65 -0.84 C114.59 11.39, 115.1 21.93, 114.68 29.88 M112.12 31 C87.37 30.81, 57.2 27.41, -1.02 31.72 M114.59 29.79 C76.88 30.04, 40.29 29.49, 0.63 29.16 M0.85 31.71 C-1.64 22.3, -1.34 16.75, -1.46 0.46 M-0.58 29.12 C-0.45 23.47, 0.51 14.17, -0.96 0.7" stroke="#0b7285" stroke-width="1" fill="none"></path></g><g transform="translate(533 93) rotate(0 38.5 10)"><text x="38.5" y="14" font-family="Virgil, Segoe UI Emoji" font-size="16px" fill="#0b7285" text-anchor="middle" style="white-space: pre;" direction="ltr">100004b7</text></g><g stroke-linecap="round" transform="translate(636.5 88.5) rotate(0 57 15)"><path d="M0 0 C0 0, 0 0, 0 0 M0 0 C0 0, 0 0, 0 0 M-0.01 5.66 C1.57 4.75, 1.9 3.02, 4.26 -0.29 M-0.19 6.65 C1.33 4.21, 3.11 2.16, 5.05 0.39 M0.42 12.32 C3.2 9.51, 5.87 4.94, 9.96 -0.42 M-0.12 12.11 C2.68 8.37, 6.58 4.96, 9.96 -0.52 M0.97 19.36 C5.34 13.13, 11.32 7.62, 15.75 1.89 M0.78 18.13 C4.5 14.11, 7.12 10.3, 16.06 -0.48 M-1.18 22.37 C8.76 17.56, 15.82 8.04, 21.64 0.74 M0.73 24.48 C7.22 15.67, 15.73 8.32, 20.34 -0.84 M0.27 30.99 C7.42 21.94, 15.18 11.91, 24.3 0.52 M-0.67 30.55 C4.57 24.48, 11 18.84, 27.2 -0.07 M6.28 28.39 C13.78 21.31, 25.36 10.77, 33.01 -1.65 M4.91 29.09 C13.62 19.45, 23.34 9.55, 31.22 0.43 M10.5 28.5 C22.92 17.22, 29.42 6.97, 35.31 -0.98 M10.01 29.84 C20.81 19.16, 29 8.22, 36.12 -0.34 M15.35 28.85 C23.56 22.18, 29.47 16.87, 41.16 -2.04 M16.9 30.93 C24.23 19.11, 33.09 8.8, 42.63 0.56 M20.41 31.61 C26.09 22.43, 33.62 15.98, 48.78 0.28 M21.52 30.42 C30.49 21.36, 38.61 10.55, 47.63 -0.54 M26.78 30.64 C32.23 24.54, 39.39 16.27, 52.83 -0.29 M27.28 29.79 C36.07 20.61, 42.35 11.58, 54.01 -0.35 M30.75 30.45 C39.2 19.61, 52.25 8.68, 58.19 1.67 M32.3 29.43 C40.69 19.4, 52.32 7.59, 57.81 0.83 M36.07 29.17 C41.65 21.78, 47.83 16.32, 64.24 -1.78 M37.13 30.16 C43.76 21.21, 52.29 14.53, 64.05 0.59 M43.74 29.64 C47.98 25.43, 53.04 17.89, 70.55 -0.92 M42.03 30.74 C49.98 21.04, 58.35 12.44, 67.95 0 M48.2 30.31 C53.28 24.19, 59.62 15.47, 73.16 -1.37 M48.74 29.3 C57.18 20.04, 65.25 11.89, 74.69 -1 M55.14 28.33 C57.33 22.81, 63.15 18.75, 78.34 -1.11 M53.67 30.96 C60.48 21.23, 68.92 12.99, 78.65 -0.02 M57.68 30.45 C70.69 17.96, 79.75 6.32, 86.82 0.57 M59.69 29.2 C65.35 23.53, 70.23 17.01, 85.14 -0.76 M62.18 32.14 C70.12 24.75, 75.25 18.85, 91.55 1.99 M63.4 29.47 C71.86 20.82, 79.24 12.88, 89.7 0.51 M68.48 28.47 C78.89 17.32, 91.4 5.84, 93.96 -1.83 M68.81 30.61 C75.23 22.84, 82.61 15.67, 95.81 0.43 M75.61 29.2 C82.41 21.6, 86.49 15.33, 101.68 -0.24 M74.66 30.39 C81.23 21.94, 89.98 12.75, 100.17 0.09 M78.1 29.75 C87.71 19.84, 99.15 8.48, 104.82 0.07 M80.14 29.01 C89.32 20.05, 96.78 10.33, 106.42 0.46 M83.68 30.16 C94.16 21.74, 103.93 9.61, 109.72 -1.92 M84.14 30.59 C95.13 20.04, 103.18 8.29, 110.39 -0.04 M88.89 30.92 C99.02 22.59, 105.39 10.75, 113.84 2.91 M90.35 31.42 C96.32 24.45, 101.92 16.64, 116.58 1.44 M96.12 32.14 C101.97 22.73, 107.28 16.91, 115.59 8.87 M95.79 29.7 C99.17 25.9, 104.07 21.93, 115.35 7.67 M102.64 28.87 C104.16 25.11, 106.43 23.7, 114.39 13.37 M101.33 31.31 C103.35 25.82, 107.98 22.77, 116.61 13.8 M107.61 30.59 C109.68 26.85, 113.58 21.84, 114.4 19.88 M106.65 30.09 C108.79 27.9, 110.66 24.4, 114.8 19.13 M111.71 30.11 C112.11 29.16, 113.62 28.14, 114.78 25.91 M111.57 30.71 C112.53 28.8, 113.89 27.7, 115.01 25.94" stroke="#15aabf55" stroke-width="0.5" fill="none"></path><path d="M-1.39 0.69 C35.02 -1.59, 70.92 -0.98, 112.77 -0.95 M0.47 0.08 C46.03 0.13, 91.19 1.38, 114.29 0.32 M114.29 -0.91 C116.08 8.52, 112.32 17.37, 113.73 31.46 M114.29 -0.32 C114.83 9.44, 114.28 19.7, 114.16 29.58 M115.13 31.68 C71.1 31.76, 24.36 28.89, 1.85 30.03 M114.13 30.04 C78.27 29.63, 41.46 29.17, -0.17 30.44 M-1.39 31.59 C-1.11 24.86, -2 17.03, -0.79 0.81 M0.46 29.99 C-0.88 22.51, -0.03 16.21, -0.26 -0.96" stroke="#0b7285" stroke-width="1" fill="none"></path></g><g transform="translate(656 93.5) rotate(0 37.5 10)"><text x="37.5" y="14" font-family="Virgil, Segoe UI Emoji" font-size="16px" fill="#0b7285" text-anchor="middle" style="white-space: pre;" direction="ltr">04100913</text></g><g stroke-linecap="round" transform="translate(274 89.5) rotate(0 57 15)"><path d="M0 0 C0 0, 0 0, 0 0 M0 0 C0 0, 0 0, 0 0 M-1 6.6 C1.69 4.97, 4.11 2.01, 5.33 -0.01 M-0.46 6.69 C1.41 5.12, 2.69 2.97, 5.13 0.53 M-0.97 10.94 C3.11 8.52, 4.11 7.28, 12.02 -0.96 M0.92 11.4 C2.38 8.72, 5.34 4.95, 11.1 -0.1 M1.31 17.51 C3.49 12.18, 7.59 6.87, 14.05 -0.89 M0.51 17.81 C4.82 13.78, 7.64 7.97, 15.99 0.82 M-1.24 22.74 C5.62 14.26, 14.34 9.17, 19.97 -1.79 M-0.54 23.66 C6.78 16.33, 14.1 8.91, 21.47 -0.62 M1.26 31.51 C7.07 21.78, 13.23 13.95, 25.21 -1.15 M-0.7 31.47 C7.14 22.37, 14.86 13.08, 26.3 -0.33 M7.55 29.75 C11.98 20.99, 23.26 11.37, 33.15 1.61 M4.66 30.17 C14.17 21.47, 20.99 13.4, 32.66 0.64 M8.88 31.34 C20.55 21.18, 26.47 12.86, 35.2 1.9 M9.98 29.62 C18.44 21.06, 27.07 11.38, 36.52 0.54 M15.02 28.93 C28.52 19.75, 37.32 8.16, 41.05 -1.01 M15.97 30.95 C21.94 23.1, 30.17 14.44, 42.4 -0.53 M20.8 29.06 C29.59 21.08, 33.85 13.83, 46.41 0.99 M20.67 31.14 C26.61 23.53, 32.62 16.01, 47.64 -0.14 M28.3 29.07 C35.6 22.9, 42.8 10.84, 51.29 -2.15 M26.13 29.48 C35.72 19.69, 45.45 7.38, 53.08 -1.05 M30.66 30.17 C41.25 20.56, 48.72 8.67, 59.71 -1.63 M32.74 30.1 C40.04 21.21, 48.12 13.28, 57.4 -0.67 M38.27 30.39 C41.5 24.76, 48.63 16.34, 62 -0.82 M37.89 30.45 C46.76 20.29, 56.2 10.38, 63.8 -0.61 M42.59 29.65 C49.32 23.34, 57.4 13.66, 70.49 1.77 M42.31 29.82 C50.01 22.77, 54.55 15.11, 68.3 -0.11 M46.32 30.66 C53.32 25.27, 59.32 18.95, 73.82 1.47 M48.75 29.81 C56.82 19.66, 68.03 7.46, 74.45 0.36 M51.22 32 C60.4 23.06, 67.48 12.67, 80.64 0.45 M52.26 30.86 C63.27 19.45, 72.22 8.09, 79.59 -0.28 M60.32 29.1 C63.83 22.99, 69.73 19.39, 85.89 0.72 M58.94 30.74 C65.33 23.19, 69.8 15.62, 85.63 0.67 M65.69 31.22 C69.07 22.57, 73.99 16.57, 90.53 1.15 M64.2 31.05 C70.8 21.35, 77.88 14.08, 89.27 0.28 M70.66 30.46 C76.29 20.91, 83.18 16.54, 95.83 -1.58 M69.47 29.7 C78.25 19.41, 87.91 9.09, 94.73 0.4 M73.62 30.79 C81.45 25.18, 86.74 16.43, 99.05 0.1 M74.51 29.44 C81.71 21.63, 89.49 12.09, 100.07 0.24 M78.22 28.98 C89.44 20.2, 100.45 9.19, 107.77 1.56 M80.09 30.36 C89.52 18.72, 97.75 8.4, 105.87 -1.16 M85.16 31.7 C92.92 18.79, 101.49 7.63, 111.59 -0.96 M84.3 30.36 C92.41 22.15, 99.8 12.2, 111.5 -0.43 M89.74 29.17 C99.35 20.61, 106.88 8.8, 115.05 0.13 M90.63 30.42 C98.48 21.08, 107.71 10.06, 116.59 2.1 M96.93 28.45 C102.07 25.57, 106.89 15.76, 113.45 8.78 M95.46 29.36 C100.3 24.87, 104.27 18.64, 115.24 6.98 M100.39 30.74 C103.86 24.01, 110.67 23.06, 114.91 13.2 M101.65 30.57 C106.3 23.37, 112.46 15.8, 116.66 13.02 M107.54 29.37 C108.95 27.46, 114.6 21.67, 114.21 19.19 M106.51 29.53 C109.1 27.31, 110.5 24.84, 115.09 19.8 M110.88 30.11 C112.26 29.59, 112.66 28.33, 115.32 26.11 M111.05 30.65 C112.2 29.3, 113.55 28.12, 115.15 26.24" stroke="#15aabf55" stroke-width="0.5" fill="none"></path><path d="M-1.08 -1.62 C38.78 -1.67, 80.39 1.08, 112.44 -0.91 M0.8 -0.41 C29.3 0.16, 58.17 0.24, 114.39 0.48 M113.2 -0.83 C113.26 6.45, 114.35 14.71, 113.51 28.36 M114.04 0.43 C113.96 5.76, 113.63 11.97, 114.04 30.25 M112.47 29.97 C80.85 30.71, 45.53 28.88, 0.48 29.49 M114.16 30.27 C82.38 30.97, 49.63 31.31, -0.57 29.12 M1.29 30.38 C-1.4 20.36, 0.62 5.99, 0.84 1.68 M0.76 30.78 C0.92 23.6, 0.41 17.3, 0.49 -0.76" stroke="#0b7285" stroke-width="1" fill="none"></path></g><g transform="translate(289.5 94.5) rotate(0 41.5 10)"><text x="41.5" y="14" font-family="Virgil, Segoe UI Emoji" font-size="16px" fill="#0b7285" text-anchor="middle" style="white-space: pre;" direction="ltr">00000013</text></g><g stroke-linecap="round" transform="translate(393 88.5) rotate(0 57 15)"><path d="M0 0 C0 0, 0 0, 0 0 M0 0 C0 0, 0 0, 0 0 M-0.24 6.57 C0.8 4.22, 2.96 2.91, 5.49 0.77 M-0.56 6.19 C1.22 4.34, 3.22 2.52, 4.71 0.76 M0.04 12.13 C1.82 8.98, 6.16 5.37, 12.15 -0.3 M-0.01 12.55 C3.14 9.18, 4.33 6.62, 9.84 0.03 M1.35 19.98 C7.27 11.93, 12.55 2.87, 13.86 1.22 M0.51 17.6 C6.77 11.54, 11.3 4.09, 14.96 -0.5 M-1.31 23.37 C6.35 19.54, 10.4 11.87, 20.01 -1.19 M1.07 23.35 C7.98 13.96, 17.35 4.52, 20.95 0.83 M-1.07 30.25 C4.97 22.8, 10.68 17.43, 25.78 -1.06 M-0.15 29.93 C9.94 19.19, 18.95 9.3, 25.65 1.02 M4.51 30.34 C11.09 23.04, 19.13 14.75, 33.29 -1.05 M4.89 29.15 C13.76 19.95, 25.08 7.52, 31.11 -0.64 M9.41 30.3 C15.07 24.32, 24.2 17.27, 35.64 0.05 M10.5 31.23 C17.8 21.07, 26.37 12, 37.72 -0.02 M17.12 28.57 C23.59 17.82, 36.02 7.88, 43.26 0.27 M15.79 29.16 C21.91 23.38, 27.5 16.95, 42.87 0.33 M23.17 30.45 C28.52 20.57, 36.82 9.58, 47.57 -0.47 M21.69 31.27 C28.34 22.43, 33.57 14.8, 47.29 -0.3 M25.39 29.08 C36.92 16.33, 46.63 7.73, 51.3 0.54 M27.65 29.72 C34.89 22.22, 42.01 12.5, 53.73 -0.31 M31.6 30.45 C38.28 23.86, 42.97 18.08, 56.2 1.88 M31.93 31 C39.21 22.72, 45.45 13.45, 57.24 0.75 M37.95 30.37 C44.69 19, 53.69 9.99, 65.3 -1.02 M38.34 30.4 C45.65 20.57, 51.94 12.75, 63.92 0.62 M40.59 31.52 C53.71 18.35, 59.28 10, 70.67 1.1 M42.47 30.59 C49.94 22.63, 55.58 15.22, 69.18 0.93 M49.94 28.42 C55.05 21.38, 61.7 17.19, 75.64 0.34 M48.48 30.03 C56.99 19.65, 67.02 9.58, 74.46 -0.42 M54.5 28.43 C61.47 20.91, 67.31 13.18, 78.6 0.67 M53.3 29.5 C61.92 19.97, 71.93 8.68, 79.49 -0.68 M59 28.74 C65.81 23.53, 73.5 16.15, 83.21 -1.14 M59.43 30.65 C67.6 20.98, 75.65 11.45, 85.07 0.24 M64.23 29.4 C71.06 21.4, 82.5 10.05, 90.14 1.58 M63.16 30.42 C69.64 23.36, 77.04 15.58, 89.29 0.24 M69.25 30.31 C75.41 23.14, 85.31 15.09, 95.37 -1.71 M69.33 29.59 C77.06 21.15, 85.64 10.11, 96.27 -0.45 M75.16 32.19 C81.91 23.28, 87.14 18.52, 101.91 -1.67 M73.56 29.28 C84.08 18.91, 93.06 9.22, 100.44 -0.76 M79.33 29.62 C86.4 20.94, 95.42 10.98, 106.03 -0.13 M81.04 29.42 C87.01 22.95, 93.67 13.8, 107.29 -0.3 M83.17 32.03 C91.69 24.01, 99.52 14.12, 113.05 -1.08 M84.74 29.29 C90.82 22.15, 97.72 14.78, 111.58 -0.85 M89.71 29.42 C100.5 17.71, 111.02 6.91, 114.24 -0.16 M89.52 30.71 C98.72 20.43, 106.31 10.44, 114.82 1.65 M94.65 29.66 C102.82 24.25, 107.11 17.45, 114.62 8.37 M95.68 30.87 C102.68 22.35, 109.87 14, 115.5 7.58 M101.34 31.7 C104.8 26.34, 109.82 18.47, 115.03 11.51 M100.47 31.01 C105.57 26.63, 109.61 19.86, 115.73 13.13 M106.42 30.97 C110.01 25.36, 111.16 23.26, 116.82 18.94 M106.2 29.85 C108.72 26.55, 111.72 23.82, 115.12 19.05 M111.42 30.41 C111.74 29.67, 112.9 27.81, 114.95 26.22 M111.01 30.77 C112.8 28.82, 114.26 27.62, 115.48 26.06" stroke="#15aabf55" stroke-width="0.5" fill="none"></path><path d="M0.8 0.97 C40.67 -1.17, 85.3 0.59, 112.9 -0.2 M-0.78 -0.15 C41 0.71, 83.23 1.31, 113.89 -0.01 M114.23 -1.92 C112.94 9.85, 112.43 18.29, 112.17 30.51 M113.64 0.43 C113.77 9.11, 114.55 18.14, 113.5 30.74 M112.45 30.7 C71.62 29.37, 26.04 28.64, -1.38 28.62 M114.53 30.87 C76.39 29.01, 39.87 28.26, 0.98 29.19 M-1.24 31.19 C-0.14 23.32, -1.22 15.84, 1.44 -0.93 M-0.59 29.22 C-0.44 22.23, -0.3 14.55, 0.64 -0.63" stroke="#0b7285" stroke-width="1" fill="none"></path></g><g transform="translate(414.5 93.5) rotate(0 35.5 10)"><text x="35.5" y="14" font-family="Virgil, Segoe UI Emoji" font-size="16px" fill="#0b7285" text-anchor="middle" style="white-space: pre;" direction="ltr">ffdff06f</text></g><g stroke-opacity="0.8" fill-opacity="0.8" transform="translate(765 96.5) rotate(0 14 10)"><text x="14" y="14" font-family="Virgil, Segoe UI Emoji" font-size="16px" fill="#0b7285" text-anchor="middle" style="white-space: pre;" direction="ltr">......</text></g><g stroke-opacity="0.8" fill-opacity="0.8" transform="translate(230 96) rotate(0 14 10)"><text x="14" y="14" font-family="Virgil, Segoe UI Emoji" font-size="16px" fill="#0b7285" text-anchor="middle" style="white-space: pre;" direction="ltr">......</text></g><g stroke-linecap="round"><g stroke-opacity="0.8" fill-opacity="0.8" transform="translate(187.5 146.5) rotate(0 54.08950651381633 -8.102088875342815)"><path d="M0.53 0.18 C6 0.03, 19.5 0.63, 33.48 0.08 C47.45 -0.48, 71.83 -0.55, 84.39 -3.15 C96.94 -5.76, 104.55 -13.43, 108.83 -15.55 M-0.65 -0.77 C4.57 -0.84, 18.19 1.66, 32.33 1.38 C46.48 1.11, 71.49 0.72, 84.22 -2.44 C96.95 -5.61, 104.61 -15.48, 108.72 -17.61" stroke="#0b7285" stroke-width="1" fill="none"></path></g><g stroke-opacity="0.8" fill-opacity="0.8" transform="translate(187.5 146.5) rotate(0 54.08950651381633 -8.102088875342815)"><path d="M100.91 -5.42 C102.91 -8.1, 104.89 -14.89, 109.9 -16.93 M101.16 -5.67 C103.59 -9.74, 106.5 -13.8, 108.13 -17.99" stroke="#0b7285" stroke-width="1" fill="none"></path></g><g stroke-opacity="0.8" fill-opacity="0.8" transform="translate(187.5 146.5) rotate(0 54.08950651381633 -8.102088875342815)"><path d="M94.65 -13.55 C98.96 -13.34, 103.17 -17.23, 109.9 -16.93 M94.91 -13.8 C99.6 -15, 104.69 -16.21, 108.13 -17.99" stroke="#0b7285" stroke-width="1" fill="none"></path></g></g><g stroke-linecap="round"><g stroke-opacity="0.8" fill-opacity="0.8" transform="translate(184.5 177.25) rotate(0 114.10259659148755 -21.88752705624222)"><path d="M-1.23 2.27 C17.6 2.65, 78.07 6.21, 111.74 3.28 C145.4 0.34, 181.2 -6.76, 200.76 -15.34 C220.31 -23.92, 224.3 -43.21, 229.08 -48.2 M3.29 1.04 C22.04 0.48, 77.95 1.18, 110.58 -1.04 C143.2 -3.26, 179.23 -4.75, 199.04 -12.29 C218.85 -19.82, 224.96 -41.06, 229.44 -46.25" stroke="#0b7285" stroke-width="1" fill="none"></path></g><g stroke-opacity="0.8" fill-opacity="0.8" transform="translate(184.5 177.25) rotate(0 114.10259659148755 -21.88752705624222)"><path d="M228.84 -22.28 C228.25 -30.24, 227.25 -36.49, 227.72 -46.36 M225.96 -23.75 C228.64 -34.31, 228.84 -41.77, 229.77 -45.93" stroke="#0b7285" stroke-width="1" fill="none"></path></g><g stroke-opacity="0.8" fill-opacity="0.8" transform="translate(184.5 177.25) rotate(0 114.10259659148755 -21.88752705624222)"><path d="M216.15 -29.7 C218.86 -35.65, 221.11 -40, 227.72 -46.36 M213.27 -31.17 C220.61 -39.3, 225.39 -44.08, 229.77 -45.93" stroke="#0b7285" stroke-width="1" fill="none"></path></g></g><g stroke-linecap="round"><g stroke-opacity="0.8" fill-opacity="0.8" transform="translate(181.75 209) rotate(0 174.82144497252995 -37.35710180799708)"><path d="M-1.14 1.99 C17.06 2.23, 63.15 6.4, 112.03 3.36 C160.91 0.32, 252.48 -2.48, 292.13 -16.24 C331.78 -30, 340.05 -68.66, 349.95 -79.18 M3.43 0.6 C21.22 -0.17, 63.12 2.68, 111.03 -0.91 C158.94 -4.51, 250.93 -8.34, 290.89 -20.96 C330.85 -33.59, 341.07 -67.06, 350.78 -76.67" stroke="#0b7285" stroke-width="1" fill="none"></path></g><g stroke-opacity="0.8" fill-opacity="0.8" transform="translate(181.75 209) rotate(0 174.82144497252995 -37.35710180799708)"><path d="M345.94 -44.42 C347.71 -57.7, 350.96 -70.15, 350.53 -73.74 M344.71 -48.87 C343.99 -57.4, 346.62 -66.1, 352.5 -74.86" stroke="#0b7285" stroke-width="1" fill="none"></path></g><g stroke-opacity="0.8" fill-opacity="0.8" transform="translate(181.75 209) rotate(0 174.82144497252995 -37.35710180799708)"><path d="M329.1 -56.15 C337.77 -64.61, 347.75 -72.36, 350.53 -73.74 M327.87 -60.59 C331.94 -65.45, 339.41 -70.79, 352.5 -74.86" stroke="#0b7285" stroke-width="1" fill="none"></path></g></g><g stroke-linecap="round"><g stroke-opacity="0.8" fill-opacity="0.8" transform="translate(184.75 254) rotate(0 231.7965229485185 -58.333786302535145)"><path d="M2.36 -0.64 C39.95 -1.02, 154.48 5.03, 223.16 -0.73 C291.85 -6.5, 374.45 -15.22, 414.48 -35.25 C454.52 -55.27, 454.7 -106.99, 463.39 -120.89 M0.2 -3.45 C38.83 -3.56, 159.39 8.63, 228.16 2.5 C296.93 -3.64, 373.72 -20.03, 412.83 -40.24 C451.94 -60.45, 454.33 -105.97, 462.83 -118.77" stroke="#0b7285" stroke-width="1" fill="none"></path></g><g stroke-opacity="0.8" fill-opacity="0.8" transform="translate(184.75 254) rotate(0 231.7965229485185 -58.333786302535145)"><path d="M461.47 -92.46 C461.1 -94.84, 463.64 -104.73, 461.56 -117.11 M463.04 -89.16 C461.32 -99.85, 462.2 -108.21, 464.24 -117.72" stroke="#0b7285" stroke-width="1" fill="none"></path></g><g stroke-opacity="0.8" fill-opacity="0.8" transform="translate(184.75 254) rotate(0 231.7965229485185 -58.333786302535145)"><path d="M442.3 -99.77 C446.14 -100.89, 452.82 -109.21, 461.56 -117.11 M443.86 -96.47 C448.76 -104.86, 456.31 -110.68, 464.24 -117.72" stroke="#0b7285" stroke-width="1" fill="none"></path></g></g><g transform="translate(29 10) rotate(0 57 10)"><text x="57" y="14" font-family="Virgil, Segoe UI Emoji" font-size="16px" fill="#343a40" text-anchor="middle" style="white-space: pre;" direction="ltr">Assembly Code</text></g><g transform="translate(274 47) rotate(0 47.5 10)"><text x="47.5" y="14" font-family="Virgil, Segoe UI Emoji" font-size="16px" fill="#343a40" text-anchor="middle" style="white-space: pre;" direction="ltr">Binary Code</text></g><g stroke-opacity="0.2" fill-opacity="0.2" transform="translate(545.5 292) rotate(0 64.5 12.5)"><text x="64.5" y="18" font-family="Virgil, Segoe UI Emoji" font-size="20px" fill="#e67700" text-anchor="middle" style="white-space: pre;" direction="ltr">@hemashushu</text></g></svg>