<svg version="1.1" xmlns="http://www.w3.org/2000/svg" viewBox="0 0 787.75 532.25" width="1575.5" height="1064.5">
  <!-- svg-source:excalidraw -->
  
  <defs>
    <style>
      @font-face {
        font-family: "Virgil";
        src: url("https://excalidraw.com/Virgil.woff2");
      }
      @font-face {
        font-family: "Cascadia";
        src: url("https://excalidraw.com/Cascadia.woff2");
      }
    </style>
  </defs>
  <rect x="0" y="0" width="787.75" height="532.25" fill="#ffffff"></rect><g stroke-opacity="0.8" fill-opacity="0.8" stroke-linecap="round" transform="translate(91 389.25) rotate(0 110.25 61.25)"><path d="M0 0 C0 0, 0 0, 0 0 M0 0 C0 0, 0 0, 0 0 M0.39 6.65 C0.73 4.54, 1.97 4.2, 5.23 0.91 M-0.53 6.07 C1.97 4.34, 3.45 2.35, 5.35 0.3 M-1.14 10.5 C3.92 8.37, 6.71 1.27, 11.34 -0.16 M-0.09 12.73 C1.94 9.45, 4.79 7.25, 10.36 -0.29 M-1.86 19.09 C5.89 13.37, 12.56 4.48, 16.2 2.15 M-0.19 19.39 C5.2 12.78, 8.59 6.76, 15.5 0.12 M-0.77 24.36 C6.4 17.1, 15.33 6.2, 22.29 -0.65 M0.75 24.38 C5.42 17.09, 12.54 9.9, 20.59 0.58 M-1.51 31.59 C7.73 24.54, 14.93 14.61, 26.37 1.96 M0.9 29.7 C9.11 19.03, 20.89 6.73, 26.37 0.61 M-1.35 37.66 C9.4 25.83, 18.3 12.33, 30.06 1.65 M-0.94 36.26 C9.73 25.54, 17.66 16.81, 31.26 -0.71 M0.34 44.07 C7.88 35.44, 13.85 22.72, 38.54 -1.55 M-0.7 43.23 C9.46 31.89, 17.34 22.67, 37.6 1.14 M-0.09 48.43 C14.24 30.63, 30.77 13.34, 43.64 -2.12 M0.49 48.21 C10.77 36.11, 22.84 22.34, 41.55 -1.04 M-0.12 54.32 C12.52 38, 28.83 23.25, 46.42 2.15 M-0.41 54.85 C16.02 37.11, 29.59 19.72, 47.38 -0.17 M-0.56 62.56 C12.29 45.77, 27.85 25.55, 52.16 -0.61 M-0.1 60.8 C17.07 41.65, 33.59 23.64, 53.35 -0.08 M0.93 69.08 C21.54 46.57, 40.08 23.86, 57 -1.21 M0.31 67.33 C20.46 43.38, 41.35 19.55, 58.03 0.46 M-0.38 72.41 C23.89 44.09, 50.33 15.89, 62.98 -0.21 M0.91 73.48 C16.93 53.51, 36.48 32.17, 64.16 0.62 M-0.42 79.07 C22.64 49.92, 48.69 20.63, 68.58 -0.68 M-0.41 79.28 C23.58 50.33, 48.4 22.49, 68.97 -0.57 M2.09 83.55 C22.03 57.28, 47.25 31.84, 75.78 0.89 M0.25 84.33 C20.35 62.58, 38.38 41.12, 74.06 0.66 M-1.8 89.48 C27.37 61.13, 53.35 33.05, 80.69 1.9 M0.17 90.76 C28.21 57.98, 57.85 25.58, 79.72 0.77 M1.13 97.54 C33.85 63.09, 66.12 24.42, 84.51 -1.29 M0.12 97.85 C33.01 61.43, 64.8 25.11, 84.78 -0.22 M2.12 102.95 C32.31 67.58, 64.96 29.21, 88.18 1.92 M1.08 103.2 C31.06 68.1, 62.74 32.53, 90.93 -0.82 M0.27 110.88 C21.17 81.56, 47.38 56.02, 95.39 1.5 M-0.22 108.9 C32.11 75.14, 62.55 39.04, 96.62 -1.15 M0.94 114.37 C32.42 79.19, 65.09 38.93, 99.17 1.99 M-0.06 115.15 C25.17 89.08, 48.28 61.89, 101.35 0.98 M-1.66 121.55 C23.38 92.25, 48.92 64.1, 104.93 -0.28 M0.62 122.24 C26.79 90.04, 55.85 58, 105.53 -1.09 M1.17 125.8 C36.63 87.66, 69.02 47.52, 113.06 1.95 M2.63 124.32 C39.58 82.88, 74.68 41.96, 110.83 -0.87 M9.99 122.95 C32.4 93.28, 60.44 63.43, 117.27 0.82 M7.7 125.47 C42.13 85.71, 74.99 46.25, 115.38 0.86 M12.23 124.51 C42.17 88.87, 71.12 54.93, 122.53 0.82 M14.25 124.51 C48.62 84.27, 83.7 44.57, 121.35 0.24 M18.03 126.79 C40.62 98.29, 66.27 72.97, 128.8 0.2 M19.04 124.92 C48.7 90.85, 78.27 55.51, 127.62 -0.5 M24.03 123.85 C47.87 95.82, 75.42 69.42, 131.54 -1.12 M23.72 125.51 C47.72 96.21, 70.06 70.61, 131.97 -0.43 M31.18 122.97 C57.93 89.25, 87.53 54.34, 138.21 -0.28 M28.42 124.55 C59.82 89.1, 90.69 54.8, 138.37 1.02 M32.62 126.06 C65.04 90.7, 94.42 55.05, 141.35 -0.4 M34.43 124.96 C59.53 97.84, 85.08 68.64, 143.88 -0.01 M38.06 125.6 C83.68 76.5, 126.27 28.4, 147.14 -1.27 M40.33 124.94 C79.78 79.07, 121.5 31.17, 147.98 1.02 M46.35 125.85 C80.15 86.11, 118.76 42.37, 152.47 -0.3 M45.39 124.88 C78.93 87.77, 110.3 49.25, 153.39 -0.97 M50.56 126 C80.46 88.08, 112.89 56.44, 157.5 0.79 M50.37 125.29 C81.23 88.66, 113.25 51.81, 159.44 0.21 M54.52 125.41 C77.42 100.71, 101.95 72.38, 162.71 -0.93 M54.9 125.68 C96.76 78.22, 139.02 30.66, 164.89 -0.13 M61.87 126.73 C98.24 80.42, 139.74 34.86, 169.49 -0.33 M60.28 124.47 C96.1 83.97, 130.51 43.84, 169.32 -0.55 M64.68 125.15 C106.38 79.21, 144.28 32.55, 173.17 -1.12 M66.85 125.91 C100.2 84.43, 136.07 42.34, 175.91 0.32 M72.45 123.54 C111.92 76.28, 149.9 30.97, 179.59 1.39 M70.86 123.97 C98.01 95.28, 124.87 64.35, 180.82 0.76 M76.71 125.68 C114.17 83.67, 149.9 40.13, 186.2 -0.54 M77.75 125.26 C100.23 98.37, 123.86 69.2, 186.05 -0.18 M84.05 123.41 C119.53 82.79, 152.82 40.94, 190.57 -1.86 M83.06 124.93 C118.41 83.6, 152.47 42.85, 190.75 0.27 M88.73 125.85 C117.72 91.66, 150.24 52.29, 195.47 -1.59 M87.72 125.57 C114.5 94.5, 142.37 61.84, 196.06 0.47 M93.69 126.55 C115.43 97.71, 141.1 69.45, 201.46 -1.62 M92.93 125.13 C118.24 96.01, 142.59 67.64, 200.51 -0.72 M99.16 124.71 C129.23 87.71, 157.34 53.37, 207.9 0.5 M97.48 125.81 C123.05 98.65, 146.49 70.09, 206.79 -0.01 M103.68 124.37 C134.63 87.83, 167.17 50.69, 213.58 0.74 M104.62 123.99 C129.43 96.39, 153.91 66.6, 211.13 -0.79 M108.7 123.56 C131.55 101.14, 152.25 73.14, 217.71 -0.24 M109.37 125.1 C135.88 94.26, 163.73 61.52, 218.17 -1.23 M115.61 125.51 C147.47 84.92, 182.09 47.81, 223.88 0.87 M113.39 123.56 C136.93 99.64, 159.28 72.58, 221.59 1.39 M118.32 123.88 C143.33 94.88, 167.12 66.9, 221.83 8.96 M118.32 125.69 C147.89 91.11, 176.92 56.97, 221.71 6.35 M124.34 125.84 C158.89 83.29, 195.25 42.99, 222.41 15.16 M124.62 123.56 C151.66 94.04, 179.79 61.67, 221.28 13.84 M131.29 125.39 C150.52 104.64, 168.85 81.21, 221.66 19.54 M130.9 123.97 C160.53 88.47, 193.76 50.43, 221.22 18.39 M135.37 127.18 C159.14 100.06, 180.78 72.13, 220.49 24.1 M134.13 125.07 C164.86 91.47, 194.93 56.6, 221.21 25.58 M139.16 124.02 C158.36 105.96, 175.31 85.82, 221.19 32.64 M140.26 125.49 C168.05 93.07, 192.9 63.53, 221.89 30.63 M145.46 124.31 C169.24 97.25, 188.91 72.98, 219.91 35.98 M145.84 124.56 C172.43 93.58, 199.27 62.48, 222.18 37.35 M151.73 125.93 C177.18 94.31, 203.46 65.23, 223.11 43.9 M151.19 123.92 C178.39 93.45, 204.07 64.42, 221.47 44.77 M156.64 123.51 C176.4 102.58, 195.37 79.6, 223.4 50.54 M156.78 125.42 C172.01 108.4, 185.9 90.04, 222.26 50.29 M163.12 125.5 C181.36 101.15, 203.26 80.05, 221.36 57.91 M161.05 124.07 C178.94 104.55, 197.02 83.45, 221.77 55.88 M164.93 125.5 C187.33 102.46, 207.13 77.88, 219.96 61.75 M166.76 125.91 C187 102.25, 204.87 78.75, 221.14 61.67 M173.71 123.31 C190.78 105.59, 206.16 83.83, 223.16 66.76 M172.84 124.91 C191.08 102.19, 211.56 80.86, 221.74 67.93 M177.59 124.23 C187.7 113.28, 197.05 104.41, 222.24 72.54 M176.72 124.92 C190.5 109.57, 202.87 95.34, 220.43 74.65 M184.17 124.17 C197.73 107.12, 209.57 92.13, 221.71 81 M182.17 124.54 C196.66 108.07, 213.2 90.74, 221.1 79.77 M187.18 124.89 C197.71 113.76, 207.31 100.74, 223.12 85.82 M187.67 125.02 C194.89 117.79, 202.55 108.46, 221.35 86.28 M193.44 123.12 C204.72 113.72, 214.2 103.61, 221.47 92.38 M194.23 125.18 C201.82 114.46, 210.97 105.44, 222.67 92.9 M197.53 125.84 C207.6 117.11, 214.99 108.37, 221.79 98.95 M197.75 125.36 C206.14 116.46, 214.17 106.51, 221.76 99 M204.76 123.4 C209.04 119.23, 217.63 108.3, 219.53 104.64 M204.86 124.24 C210.28 118.46, 216.19 111.09, 220.73 105.21 M209.76 124.73 C212.57 121.29, 217.68 115.49, 220.46 110.78 M209.23 124.81 C213.85 121.82, 216.3 116.05, 221.76 110.64 M215.31 125.54 C216.99 121.64, 220.31 120.5, 221.88 116.77 M215.23 124.91 C217.76 121.63, 219.9 118.84, 221.1 117.02" stroke="#15aabf" stroke-width="0.5" fill="none"></path><path d="M-1.62 -1.39 C48.22 -0.74, 97.41 -0.67, 220.89 -0.46 M-0.57 -0.49 C78.85 -0.6, 155.83 -0.26, 220.66 -0.11 M219.34 -1.29 C220.64 46.42, 218.69 92.66, 218.56 122.1 M219.74 0.95 C219.87 31.81, 220.25 61.02, 220.4 123.4 M221.01 121.64 C169.67 122.8, 116.94 123.5, 1.49 123.78 M220.74 122.07 C139.83 122.52, 59.28 122.88, -0.58 122.61 M-1.06 124.19 C-2.56 72.82, -1 24.33, -0.94 -1.74 M0.67 122.83 C0.19 93.43, 0.66 65.81, 0.2 0.61" stroke="#0b7285" stroke-width="1" fill="none"></path></g><g stroke-linecap="round" transform="translate(136.13352039690676 433.875) rotate(0 65 17.5)"><path d="M7.32 -3.74 L123.24 -1.85 L129.29 7.76 L131.76 31.02 L122.24 37.46 L125.06 32.43 L1.22 31.45 L2.76 32.09 L-2.44 8.21 L-0.19 0.26 L8.59 3.51" stroke="none" stroke-width="0" fill="#fff"></path><path d="M8.75 0 M8.75 0 C50.77 0.59, 87.79 5.71, 121.25 0 M8.75 0 C45.2 -3.61, 83.12 -3.94, 121.25 0 M121.25 0 C129.51 -1.09, 126.61 6.53, 130 8.75 M121.25 0 C125.58 0.84, 129.59 3.03, 130 8.75 M130 8.75 C126.32 13.94, 130.43 20.79, 130 26.25 M130 8.75 C130.03 15.85, 128.92 21.06, 130 26.25 M130 26.25 C133.18 35.31, 123.68 31.5, 121.25 35 M130 26.25 C131.3 34.39, 128.36 34.84, 121.25 35 M121.25 35 C84.39 34.31, 46.45 32.34, 8.75 35 M121.25 35 C82.69 33.77, 40.69 33.22, 8.75 35 M8.75 35 C-0.48 33.82, 2.86 33.08, 0 26.25 M8.75 35 C5.26 34.03, -0.28 34.2, 0 26.25 M0 26.25 C1.94 22.17, 0.82 19.1, 0 8.75 M0 26.25 C-1.43 20.11, -0.06 16.39, 0 8.75 M0 8.75 C-3.92 3.29, 5.7 3.94, 8.75 0 M0 8.75 C1.72 5.85, 6.33 -0.82, 8.75 0" stroke="#fff" stroke-width="2" fill="none"></path></g><g transform="translate(136.75852039690676 10) rotate(0 71.5 18)"><text x="0" y="25" font-family="Virgil, Segoe UI Emoji" font-size="28px" fill="#1864ab" text-anchor="start" style="white-space: pre;" direction="ltr">object file</text></g><g stroke-opacity="0.3" fill-opacity="0.3" transform="translate(543.5 484.75) rotate(0 64.5 12.5)"><text x="64.5" y="18" font-family="Virgil, Segoe UI Emoji" font-size="20px" fill="#d9480f" text-anchor="middle" style="white-space: pre;" direction="ltr">@hemashushu</text></g><g transform="translate(175 438.25) rotate(0 21 10)"><text x="21" y="14" font-family="Virgil, Segoe UI Emoji" font-size="16px" fill="#0b7285" text-anchor="middle" style="white-space: pre;" direction="ltr">.text</text></g><g stroke-opacity="0.8" fill-opacity="0.8" stroke-linecap="round" transform="translate(91.25 294) rotate(0 110.25 43)"><path d="M0 0 C0 0, 0 0, 0 0 M0 0 C0 0, 0 0, 0 0 M-0.98 6.79 C1.56 4.62, 4.33 1.26, 4.99 0.17 M-0.14 6.57 C1.31 4.92, 2.34 3.33, 4.99 0.51 M-0.78 12.46 C1.21 9.2, 3.53 5.99, 12.17 -1.48 M0.89 11.98 C2.96 8.83, 6.53 5.31, 10.67 0.48 M1.31 16.76 C4.68 11.05, 10.91 4.51, 14.24 -0.83 M-0.63 17.91 C2.8 14, 8.33 9.5, 15.9 0.96 M-0.89 23.32 C4.24 19.37, 9.97 15.98, 19.4 -1.13 M0.6 23.79 C5.94 18.11, 10.69 10.41, 20.98 -0.3 M1.67 31.92 C5.36 25.59, 9.75 15.73, 27.11 1.84 M-0.91 30.33 C6.43 21.78, 13.63 14.23, 26.02 -0.37 M1.16 37.02 C14.07 20.97, 26.76 6.08, 32.69 1.02 M-0.77 36.1 C11.07 23.48, 22.01 11.87, 32.03 -0.98 M-0.23 44.01 C14.91 26.24, 26.88 10.89, 37.57 -0.42 M-0.53 42.43 C13.08 27.32, 26.73 12.55, 36.6 1.21 M-0.96 47.23 C16.6 28.61, 33.11 10.23, 43.76 -1.31 M-0.77 49.19 C8.45 39.28, 16.44 28.24, 43.05 -0.78 M1.56 54.5 C14.23 37.74, 29.41 18.41, 47.79 -0.65 M-0.59 54.18 C18.63 33.68, 34.73 13.34, 48.06 -0.71 M0.92 61.02 C16.77 43.26, 32.98 25.87, 55.15 -1.78 M0.04 60.69 C19.26 38.07, 39.2 15.35, 52.89 -0.45 M-0.46 65.85 C18 50.07, 34.23 27.97, 58.19 1.4 M-1.2 66.89 C19.63 45.86, 38.7 23.59, 58.96 -0.45 M1.82 74.02 C22.56 50.39, 43.82 26.45, 62.62 0.25 M-0.09 73.61 C15.24 54.9, 31.32 37.49, 63.05 -1.12 M1.41 80.58 C27.79 49, 53.26 16.98, 69.39 1.24 M0.13 79.24 C21.1 55.15, 44.16 29.91, 68.97 0.78 M0.98 85.13 C30.04 53.47, 57.3 19.56, 73.16 1.7 M0.22 84.05 C19.54 64.88, 37.23 43.49, 74.68 0.68 M2.76 88.7 C24.01 64.68, 44.09 41.55, 80.22 -0.31 M2.21 87.75 C31.34 54.82, 61.63 21.15, 79.95 -0.12 M7.75 89.48 C34.8 56.45, 63.57 23.78, 86.96 -2.23 M8.35 87.16 C34.3 57.49, 61.72 27.04, 85.54 0.05 M11.66 86.75 C40.27 56.39, 69.86 26.27, 89.75 0.84 M13.74 88.78 C31.43 67.45, 50.05 46, 90.86 0.88 M18.57 88.57 C47.63 55.47, 77.2 21.04, 95.45 -0.07 M19.73 88.33 C37.9 65.92, 58.71 42.9, 95.07 0.67 M22.27 86.65 C52.07 55.07, 83.09 18.71, 99.26 2.05 M23.96 88.4 C49.33 59.17, 75.15 29.43, 100.81 -0.1 M30.05 86.91 C53.8 59.58, 78.24 33.9, 107.26 -2.05 M29.87 88.75 C49.93 63.6, 71.72 37.81, 105.31 -0.16 M33.87 89.52 C60.44 59.29, 88.16 25.74, 110.25 -0.02 M34.61 89.21 C52.28 69.01, 70.82 47.61, 112.06 0.16 M39.63 87.02 C67.2 58.45, 90.73 27.35, 117.59 -1.38 M40.02 89.47 C59.16 66.99, 77.72 43.94, 115.31 0.24 M44.93 88.79 C66.42 60.32, 91.24 35.89, 122.42 0.55 M45.09 88.44 C75.19 55.25, 103.91 21.62, 121.01 -0.98 M49 86.97 C79.29 53.93, 108.46 20.99, 128.84 0.75 M49.63 87.88 C79.76 55.3, 107.54 22.05, 126.73 -0.12 M55.15 88.16 C81.78 57.78, 111.28 23.72, 131.72 0.99 M55.42 88.93 C83.34 56.35, 111.05 24.13, 133.19 0.92 M60.71 87.33 C78.73 70.21, 96.11 48.71, 136.64 1.71 M59.9 87.77 C79.8 67.58, 97.45 48.07, 136.89 -0.36 M67.46 87.59 C92.04 62.36, 112.05 35.18, 144.3 -0.22 M67.28 88.13 C88.08 64.26, 107.49 40.29, 142.28 0.43 M71.55 89.99 C88.38 68.86, 105.09 50.72, 146.5 0.37 M72.21 88.99 C96.51 59.64, 122.51 30.55, 148.41 1.26 M77.98 89.36 C106.41 54.69, 133.79 24.57, 154.53 -1.29 M76.96 89.08 C98.82 62.8, 120.7 36.21, 153.1 -0.79 M82.51 88.1 C112.64 56.8, 139.55 21.27, 159.15 -0.08 M81.05 88.54 C113.3 54.09, 142.86 18.99, 159.56 1.1 M86.09 88 C111.55 62.65, 133.88 39.35, 163 0.82 M88.43 87.45 C115.14 59.03, 139.51 28.87, 164.6 -0.95 M92.81 88.07 C111.34 65.34, 134.63 40.48, 168.55 1.78 M93.08 87.5 C109.63 68.19, 128.74 46.29, 169.25 1.12 M96.35 88.33 C114.74 69.56, 131.12 52.85, 174.53 0.46 M98.26 88.52 C117.34 68.89, 134.27 46.9, 174.89 -1.16 M101.89 87.64 C129.99 54.71, 158.45 24.09, 179.87 -0.3 M104.09 88.09 C125.86 62.86, 149.67 35.51, 180 -0.12 M108.56 87.47 C140.08 52.99, 170.88 17.61, 184.14 1.25 M108.71 88.15 C131.77 60.45, 155.94 34.04, 186.21 -0.43 M115.39 89.79 C132.61 68.86, 150.47 44.37, 191.49 1.68 M113.98 88.6 C139.73 57.23, 165.14 27.32, 191.01 -0.44 M119.73 88.79 C146.41 59.01, 169.93 31.03, 195.08 -1.91 M118.63 87.85 C149.85 54.18, 178.67 20.5, 195.93 -0.65 M123.2 88.79 C155.09 53.59, 185.38 18.14, 201.02 0.01 M123.85 88.46 C147.17 61.1, 170.56 34.9, 201.11 0.95 M130.1 87.97 C161.48 52.7, 189.13 19.83, 208.82 -0.85 M130.54 87.71 C149.72 64.87, 167.84 42.8, 207.57 0.4 M133.39 88.21 C152.97 66.18, 174.97 44.2, 211.29 1.27 M134.89 89.21 C155.95 63.7, 177.16 39.56, 211.76 0.44 M141.11 86.94 C170.22 53.97, 202.52 16.29, 219.04 -0.09 M141.59 87.45 C166.67 57.41, 192.21 27.68, 217.8 0.05 M146.29 86.89 C170.14 62.25, 193.86 32.95, 223.69 1.07 M145.45 87.47 C171.66 60.82, 196.13 30.98, 221.41 -0.19 M152.78 88.7 C169.14 67.44, 187.98 48.1, 223.08 8.66 M149.92 88.13 C168.96 69.62, 185.16 49.05, 220.85 7.28 M156.42 88.94 C173.25 68.61, 186.23 53.13, 219.63 11.85 M156.03 88 C172.77 70.08, 188.81 51, 221.97 12.98 M160.3 88.24 C179.53 68.48, 197.89 43, 223.69 18.4 M162.29 88.18 C176.2 73.56, 189.66 56.92, 221.31 19.61 M166.53 89.76 C187.23 64.54, 208.58 43.95, 220.75 26.22 M166.24 88.66 C178.74 72.91, 193.44 57.92, 221.98 26.35 M172.14 87.11 C181.05 74.38, 193.21 63.52, 223.15 29.91 M171.1 88.89 C187.19 69.89, 202.93 51.85, 221.17 31.18 M177.58 90.04 C194.85 70.32, 211.38 52.24, 222.1 36.61 M177.87 87.41 C188.53 76.15, 198.68 64.23, 220.8 37.51 M182.61 88.38 C189.48 80, 197.01 70.19, 223.37 44.53 M182.07 88.41 C197.26 72.39, 212.08 55.46, 221.02 44.5 M186.76 89.74 C197.57 80.29, 202.74 72.63, 222.59 51.01 M187.83 87.33 C199.58 74.2, 210.03 61.97, 222.12 49.91 M193.26 87.41 C202.54 79.77, 208.42 71.82, 222.43 54.63 M192.57 89.49 C202.04 79.65, 208.66 71.29, 221.52 55.94 M197.47 90.11 C203.5 81.18, 208.64 75.34, 222.37 63.69 M199.16 87.61 C208.37 78.21, 217.66 68.06, 222.24 62.59 M202.85 89.84 C209.38 84.61, 212.43 79.7, 220.67 70.1 M204.58 88.5 C209.83 83.16, 214.47 76.11, 222.54 67.24 M209.37 87.71 C210.68 83.94, 213.7 81.16, 220.26 73.99 M210.02 88.5 C211.94 85.29, 214.7 82.02, 220.55 74.03 M213.91 89.08 C216.45 86.94, 219.96 83.62, 221.53 80.85 M214.13 88.44 C216.37 86.45, 218.6 83.52, 222.3 79.79" stroke="#228be6" stroke-width="0.5" fill="none"></path><path d="M1.57 -1.57 C69.48 0.04, 141.4 0.44, 221.37 -1.66 M-0.12 0.78 C50.28 -0.46, 99.7 0.25, 219.65 0.26 M222.41 -1.67 C220.86 30.18, 221.96 57.08, 219.35 86.7 M219.75 0.97 C220.2 33.9, 220.87 67.95, 220.13 86.87 M221.7 87.6 C133.74 87.22, 50.79 86.44, -0.32 84.39 M219.91 86.03 C157.22 86.54, 94.32 86.56, 0.28 85.59 M-1.54 84.51 C-0.46 61.24, -1.71 33.01, 1.26 1.18 M0.88 86.97 C0.05 58.46, -0.87 30.98, -0.22 0.2" stroke="#1864ab" stroke-width="1" fill="none"></path></g><g stroke-linecap="round" transform="translate(137.88352039690676 318.625) rotate(0 65 17.5)"><path d="M9.63 -0.24 L128.7 -3.07 L127.12 4.75 L130.41 30.84 L127.09 30.63 L118.34 37.29 L4.19 33.89 L4.16 30.98 L-3.74 6.58 L1.74 -1.73 L9.96 1.12" stroke="none" stroke-width="0" fill="#fff"></path><path d="M8.75 0 M8.75 0 C37.41 -1.16, 76.69 1.04, 121.25 0 M8.75 0 C48.15 0.01, 82.82 -2.27, 121.25 0 M121.25 0 C130.97 -2.54, 129.01 3.02, 130 8.75 M121.25 0 C125.53 -1.68, 134 6.97, 130 8.75 M130 8.75 C133.59 12.1, 128.99 23.15, 130 26.25 M130 8.75 C129.68 11.6, 129.97 15.11, 130 26.25 M130 26.25 C130.13 30.61, 129.42 33.81, 121.25 35 M130 26.25 C132.76 33.55, 124.92 34.87, 121.25 35 M121.25 35 C77.46 33.43, 41.24 30.92, 8.75 35 M121.25 35 C98.35 36.97, 72.82 38.09, 8.75 35 M8.75 35 C6.78 36.32, -0.91 29.74, 0 26.25 M8.75 35 C1.06 33.98, 0.92 28.35, 0 26.25 M0 26.25 C-3.02 20.3, 2.6 18.04, 0 8.75 M0 26.25 C-1.09 20.12, -0.86 13.19, 0 8.75 M0 8.75 C0.89 3.67, 6.44 0.87, 8.75 0 M0 8.75 C-1.5 5.52, 6.15 3.38, 8.75 0" stroke="#fff" stroke-width="2" fill="none"></path></g><g transform="translate(166.75 323) rotate(0 31 10)"><text x="31" y="14" font-family="Virgil, Segoe UI Emoji" font-size="16px" fill="#1864ab" text-anchor="middle" style="white-space: pre;" direction="ltr">.rodata</text></g><g stroke-opacity="0.8" fill-opacity="0.8" stroke-linecap="round" transform="translate(91.25 164) rotate(0 110.25 61.25)"><path d="M0 0 C0 0, 0 0, 0 0 M0 0 C0 0, 0 0, 0 0 M0.26 6.84 C1.58 4.45, 2.98 2.55, 4.6 0.95 M-0.32 6.21 C0.66 5.1, 1.66 4.14, 5.29 0.55 M0.63 11.35 C2.45 7.73, 4.13 6.95, 11.78 -0.03 M0.34 11.77 C3.18 8.32, 8.19 3.76, 10.91 0.73 M-1.39 16.78 C4.77 11.92, 11.66 5.17, 13.83 1.12 M0.81 18.38 C3.16 15.63, 7.06 11.52, 15.99 -0.12 M0.67 24.14 C5.54 17.33, 12.3 8.06, 22.91 0.32 M1.23 24.48 C7.78 14.74, 16.9 5.16, 22.11 -0.8 M-1 29.51 C8.98 18.61, 18.19 7.88, 27.66 -0.74 M-0.28 29.54 C9.74 19.35, 19.1 8.19, 26.48 -0.24 M1.48 37.96 C9.38 22.58, 21.74 8.91, 31.51 0.06 M0.45 37.44 C9.35 24.49, 21.48 11.83, 32.17 -0.67 M0.99 41.56 C12.86 29.02, 22.35 13.49, 37.02 1.14 M0.68 42.27 C11.3 29.49, 20.15 17.98, 36.85 1.25 M-1.36 47.39 C14.47 32.27, 31.04 12.32, 42.23 -1.04 M0.67 49.14 C9.69 36.49, 20.47 24.63, 42.96 -0.04 M-0.44 56.09 C12.57 39.88, 29.27 20.7, 48.64 -0.08 M1.2 54.55 C19.55 31.98, 36.8 10.49, 48.36 -0.32 M0.84 61.72 C14.49 42.17, 32.48 22.75, 53.66 -1.92 M0.19 60.99 C18.75 39.1, 38.17 16.16, 52.46 -0.11 M-0.71 66.28 C22.22 45.37, 42.01 17.17, 58.48 -0.95 M0.26 67.25 C11.96 53.06, 25.11 38.97, 58.92 0.02 M-1.33 71.78 C15.74 54.85, 34.18 36, 64.61 1.76 M0.6 73.27 C11.94 58.26, 24.31 44.2, 63.76 -1 M-1.08 78.33 C17.67 59.69, 38.02 37.02, 69.71 -1.73 M-0.04 80.04 C18.17 58.28, 37.58 36.39, 68.07 -0.15 M1.92 84.67 C27.69 53.35, 54.88 23.2, 76.11 -0.38 M1.13 84.86 C30.51 51.44, 58.87 17.99, 74.1 -0.72 M1.44 90 C25.24 60.81, 48.77 33.36, 78.71 -0.41 M0.58 91 C17.92 71.37, 35.1 50.71, 79.99 0.32 M0.94 98.53 C20.65 74.17, 40.63 52.97, 85.41 0.55 M-1.01 97 C22.44 70.58, 44.37 44.24, 85.86 -0.15 M-1.26 101.55 C27.89 70.61, 51.93 43.01, 89.08 1.29 M0.18 102.54 C30.39 70.72, 59.4 37.1, 90.52 -0.76 M-0.72 109.52 C31.34 75.69, 61.63 39.64, 95.98 -1.25 M-0.98 109.28 C30.36 76.59, 58.72 43.71, 95.56 -0.07 M0.89 114.56 C34.29 79.82, 66.85 39.6, 101.67 -0.06 M0.96 115.19 C35.81 73.59, 72.57 32.12, 100.11 0.01 M-0.27 122.34 C40.29 77.81, 78.84 33.52, 107.49 -0.33 M0.7 121.17 C24.91 95.78, 47.74 69.32, 106.87 -0.17 M4.84 122.83 C26.64 97.18, 47.27 74.73, 112.5 0.41 M2.91 123.58 C32.96 86.18, 65.69 50.81, 110.87 0.62 M8.84 124.16 C46.88 80.73, 86.01 36.1, 117.21 -1.18 M7.71 124.93 C45.36 83.77, 80.73 40.68, 116.92 0.76 M12.36 126.44 C47.58 86.29, 78.62 46.89, 122.84 1.83 M12.76 125.42 C37.51 94.33, 63.05 67.67, 121.55 0.7 M17.24 123.54 C56.79 80.36, 96.41 38.08, 128.55 0.71 M19.23 125.53 C41.69 99.41, 63.32 74.22, 125.97 0.75 M23.67 124.62 C49.71 95.15, 78.47 59.98, 133.18 -0.39 M24.62 125.37 C51.83 92.96, 79.74 61.12, 132.54 0.46 M29.42 126.28 C62.2 87.95, 92.34 52.64, 137.22 1.4 M28.72 125.52 C66.52 82.11, 105.26 38.01, 138.45 0.21 M35.05 126.54 C60.8 94.25, 86.63 64.67, 141.22 -0.55 M34.56 124.9 C55.36 100.3, 78.75 75.29, 142.87 -0.25 M41.7 125.45 C73.47 83.9, 109.69 47.23, 147.76 -0.52 M40.88 124.05 C79.14 80.92, 116.45 37.69, 148.59 -0.11 M45.03 126.9 C78.27 83.44, 115.37 44.22, 151.86 -0.67 M45.84 124.83 C75.78 88.02, 108.02 52.3, 153.2 -0.99 M49.64 126.41 C87.32 84.32, 120.81 43.64, 158.95 -1.18 M50.09 124.88 C87.09 79.69, 125.2 36.37, 158.75 0.69 M55.01 124.96 C90.23 84.09, 126.78 44.23, 163.27 -0.49 M56.51 125.35 C82.38 93.85, 109.14 62.26, 164.85 0.29 M61.98 124.79 C85.09 99.71, 105.13 71.29, 169.81 -1.43 M61.32 125.38 C99.49 81.01, 135.91 37.7, 170.42 0.57 M66.62 123.24 C99.26 85.17, 131.19 47.8, 176.78 0.54 M65.76 125.76 C90.79 98.67, 116.3 69.44, 174.77 0.25 M70.72 124.51 C109.59 77.01, 148.27 35.02, 181.53 -0.83 M71.23 125.51 C107.28 84.97, 142 46.21, 179.27 -0.36 M75.69 125.55 C117.99 81.01, 154.06 38.89, 186.97 1.23 M76.94 125.47 C107.28 89.32, 138.14 53.77, 186.54 -0.83 M81.05 123.78 C101.49 101.73, 123.92 76.04, 191.55 0.32 M83.08 124.87 C112.66 89.16, 144.31 54.83, 190.07 1.09 M86.29 126.98 C125.44 78.9, 165.43 34.48, 195.65 0.68 M86.5 124.97 C119.61 87.68, 149.72 50.35, 195.4 -0.07 M93.39 125.06 C119.39 90.94, 149.32 59.37, 199.54 -0.98 M93.81 123.64 C117.58 97.19, 142.66 69.89, 201.76 0.23 M96.69 123.89 C138.97 77.36, 180.52 29.18, 205.82 0.3 M97.07 124.91 C123.98 96.9, 148.07 68.2, 207.23 -0.98 M105.38 125.11 C132.39 87.42, 164.15 52.59, 213.36 -0.44 M102.96 123.63 C146.45 74.92, 189.1 27.94, 212.4 -0.51 M109.4 123.94 C152.34 73.33, 193.2 24.09, 215.72 -2.27 M108.41 125.02 C137.62 90.14, 167.78 56.39, 217.52 -0.46 M113.89 124.99 C151.2 81.97, 188.44 43.5, 222.44 0.23 M113.75 125.26 C155.72 75.4, 199.77 27.15, 221.53 0.15 M121.12 124.07 C147.96 90.27, 177.14 56.48, 222.23 8.48 M118.4 125.13 C154.92 82.83, 190.31 43.61, 221.89 7.74 M124.97 124 C155.37 92.64, 181.43 60.19, 223.27 13.19 M124 124.54 C154.02 91.84, 181.88 57.8, 220.68 13.17 M128.8 124.47 C150.22 101.94, 173.45 75.63, 222.65 17.75 M130.09 124.2 C162.41 88.2, 195.12 51.8, 222.74 19.93 M135.28 126.52 C162.07 90.17, 192.19 57.3, 223.51 23.75 M134.55 124.87 C163.19 91.43, 193.93 56.67, 222.48 25.47 M139.59 126.65 C170.76 94.07, 198.17 60.5, 220.8 31.53 M140.64 125.28 C165.34 96.6, 189.7 68.71, 222.45 30.51 M144.64 124.91 C166 99.96, 183.06 78.59, 223.26 38.05 M144.84 124.97 C161.78 106.42, 179 86.16, 220.91 36.67 M152.86 123.39 C169.88 105.11, 183.74 85.81, 223.14 45.37 M150.39 124.56 C167.36 105.47, 185.99 85.31, 220.43 43.77 M158.12 126.1 C180.9 96.42, 207.29 66.59, 221.48 50.77 M155.96 124.45 C179.49 97.86, 204.4 70.71, 222.74 49.72 M162.19 124.74 C179.8 106.66, 195 85.42, 223.3 54.82 M161.78 124.31 C179.9 101.69, 200.86 79.98, 220.72 55.35 M166.67 126.54 C181.26 107.65, 195.03 89.83, 221.37 59.89 M166.32 125.76 C184.58 106.28, 200.66 86.37, 221.87 62.71 M173.41 124.04 C185.25 106.23, 200.07 92.69, 220.17 70 M172.41 123.92 C187.59 108.1, 202.13 91.23, 221.01 67.75 M176.47 126.95 C192.94 106.5, 205.14 91.21, 219.66 73.39 M177.96 125.99 C191.12 110.16, 205.72 93.3, 221.71 74.58 M182.54 123.9 C192.3 114.22, 199.32 102.88, 222.51 78.54 M184.04 124.88 C191.18 114.1, 199.68 104.79, 222.3 80.35 M186.9 126.34 C195.27 115.27, 202.17 109.61, 223.3 88.3 M187.58 125.8 C198.54 113.38, 209.99 99.37, 220.76 87.11 M193.83 126.24 C205.13 111.22, 216.16 99.27, 222.31 92.36 M193.52 123.81 C203.85 111.38, 216.48 99.56, 221.24 93.12 M200.57 124.01 C206.93 115, 213.3 106.78, 223.46 97.17 M199.49 124.49 C203.85 118.59, 210.15 112.32, 221.7 98.46 M205.74 126.23 C210.73 117.34, 215.68 109.18, 220.11 106.41 M203.9 125.43 C210.98 116.61, 217.03 109.7, 220.43 104.39 M209.3 125.5 C213.55 120.72, 216.45 118.44, 220.3 111.07 M208.69 124.94 C214.99 118.53, 219.7 114.48, 221.03 111.13 M215.97 125.47 C216.59 123.3, 217.48 119.8, 221.59 117.36 M215.15 125.08 C217.1 121.62, 220.26 119, 221.83 116.96" stroke="#40c057" stroke-width="0.5" fill="none"></path><path d="M-0.44 0.54 C46.85 -3.07, 95.66 -2.67, 219.49 -1.18 M0.77 -0.26 C70.11 1.88, 139.15 2.01, 219.92 0.84 M221.34 1.91 C221.83 24.36, 219.44 52.16, 219.27 123.78 M221.46 0.86 C219.71 41.63, 221.42 83.93, 220.54 121.52 M221.59 124.21 C137.4 120.7, 56.06 121.91, -0.13 123.11 M221.31 121.93 C143.9 123.97, 65.97 124.17, -0.38 122.24 M-1.89 123.23 C0.84 84.35, -0.21 48.77, 1.57 -1.58 M0.21 121.55 C-0.11 88.49, -0.68 52.33, 0.44 -0.85" stroke="#2b8a3e" stroke-width="1" fill="none"></path></g><g stroke-linecap="round" transform="translate(136.88352039690676 208.625) rotate(0 65 17.5)"><path d="M10.48 3.1 L124.05 1.78 L126.87 1.26 L128.84 27.33 L122.74 31.73 L121.87 34.08 L2.27 37.99 L-0.67 32.7 L2.82 9.04 L5.64 -0.47 L12.61 -3.71" stroke="none" stroke-width="0" fill="#fff"></path><path d="M8.75 0 M8.75 0 C50.83 0.73, 83.2 -4.03, 121.25 0 M8.75 0 C51.12 -1.17, 90.09 0.47, 121.25 0 M121.25 0 C130.52 -3.83, 129.27 5.91, 130 8.75 M121.25 0 C128.48 0.18, 125.48 6.25, 130 8.75 M130 8.75 C133.34 12.67, 127.54 20.14, 130 26.25 M130 8.75 C130.83 13.57, 131.65 20.98, 130 26.25 M130 26.25 C127.38 33.47, 125.41 31.62, 121.25 35 M130 26.25 C129.18 30.05, 125.69 35.04, 121.25 35 M121.25 35 C81.98 36.08, 37.21 33.97, 8.75 35 M121.25 35 C87.33 34.27, 52.79 33.64, 8.75 35 M8.75 35 C-0.87 37.12, 2.57 31.96, 0 26.25 M8.75 35 C-1.04 37, -3.91 29.74, 0 26.25 M0 26.25 C0.76 20.66, -2.87 13.9, 0 8.75 M0 26.25 C-0.9 20.57, -1.42 12.81, 0 8.75 M0 8.75 C-0.3 2.92, 4.74 0.12, 8.75 0 M0 8.75 C2.68 3.37, 7.11 1.6, 8.75 0" stroke="#fff" stroke-width="2" fill="none"></path></g><g transform="translate(173.25 213) rotate(0 23 10)"><text x="23" y="14" font-family="Virgil, Segoe UI Emoji" font-size="16px" fill="#2b8a3e" text-anchor="middle" style="white-space: pre;" direction="ltr">.data</text></g><g stroke-opacity="0.8" fill-opacity="0.8" stroke-linecap="round" transform="translate(92.25 70.25) rotate(0 110.25 43)"><path d="M0 0 C0 0, 0 0, 0 0 M0 0 C0 0, 0 0, 0 0 M0.35 7.09 C1.52 3.46, 2.74 1.41, 4.93 0.74 M-0.55 6.59 C1.22 4.66, 2.16 3.55, 4.71 0.76 M0.4 10.78 C3.36 7.86, 9.06 3.75, 10.29 -1.56 M-0.22 12.67 C3.39 8.41, 7.8 3.57, 9.83 -0.18 M-0.49 20.27 C3.35 14.11, 8.79 4.06, 15.84 1.47 M-0.4 18.77 C3.18 12.92, 7.78 8.77, 16.02 1.18 M-0.08 22.14 C9.4 16.37, 17.06 4.4, 20.43 -0.25 M0.17 23.85 C4.52 18.89, 7.95 14.99, 20.88 -0.91 M-0.11 29.9 C10.71 20.86, 17.38 10.19, 25.64 1.04 M-0.77 31.22 C7.77 22.2, 16.06 12.2, 26.32 0.22 M0.76 36.47 C7.54 27.59, 17.6 17.18, 33.24 0.51 M0.15 37.65 C12.77 23.25, 25.36 8.14, 32.06 0.27 M0.79 41.37 C8.22 33.75, 13.54 25.98, 37.63 1.62 M-0.49 41.69 C10.99 31.39, 19.03 18.75, 36.69 0.93 M-0.93 48.14 C13.93 33.5, 25.53 19.92, 42.91 -0.72 M-0.27 48.87 C14.73 32.89, 28.33 14.51, 42.58 -0.28 M-0.14 56.26 C11.86 42.93, 17.94 32.48, 47.47 1.02 M1.2 54.29 C11.6 42.21, 24.34 28.71, 47.21 0.93 M1.23 62.35 C15.89 42.12, 32.28 21.26, 53 -1.77 M-0.32 61.56 C15.15 42.75, 30.95 24.5, 53.99 -0.51 M-0.62 68.12 C15.9 51.91, 27.39 35.52, 57.1 -0.73 M0.47 67.48 C19.79 44.96, 40.26 22.75, 57.61 -0.06 M0.56 73.76 C21.33 50.63, 42.78 26.45, 62.34 0.74 M1.03 73.14 C25.55 42.73, 50.9 14.01, 62.92 0.26 M-1.13 77.45 C25.34 50.7, 51.18 20.78, 68.77 0.62 M0.59 80.14 C17.59 57.48, 36.46 35.29, 68.21 0.84 M-1.33 85.23 C27.24 54.68, 56.16 21.16, 75.05 1.44 M-0.61 84.18 C16.61 66, 34.44 46.43, 74.11 0.36 M3.78 87.22 C30.21 57.22, 57.97 23.15, 78.98 -0.47 M3.59 88.01 C31.98 54.8, 61.39 22.16, 78.92 0.67 M7.31 88.8 C35.86 58.26, 59.64 26.98, 86.54 0.13 M7.89 88.32 C25.21 67.51, 43.7 44.6, 85.44 -1.25 M14.16 89.85 C31.44 64.85, 55.59 41.52, 88.51 -1.32 M13.88 87.71 C29.19 70.58, 44.38 51.07, 90.3 -0.43 M17.4 87.82 C37.09 67.97, 51.22 51.16, 97.49 -0.12 M19.13 87.46 C44.56 56.36, 71.18 26.66, 94.85 0.03 M22.18 88.05 C40.35 67.31, 61.62 45.9, 100.45 -1.02 M24.88 88.59 C50.43 59.86, 74.12 30.12, 100.48 -0.14 M28.12 89.6 C56.35 53.09, 86.91 20.42, 107.85 0.93 M29.28 89.37 C56.46 56.72, 83.21 25.99, 105.44 -0.53 M35.18 88.72 C50.68 70.41, 65.7 51.98, 110.15 1.56 M34.97 87.58 C56.95 62.32, 80.22 35.43, 112.22 0.96 M39.5 88.36 C63.65 60.56, 88.15 28.86, 118.23 -0.47 M39.74 89.65 C61.05 65.25, 79.86 42.79, 115.73 0.69 M45.78 89.97 C67.98 59.35, 96.27 28.82, 123.24 1.75 M44.66 89.26 C69.47 59.58, 95.19 31.94, 121.9 0.47 M51.89 86.83 C78.62 53.93, 112.67 18.89, 126.45 -1.14 M49.51 88.33 C67.48 68.8, 84.89 49.3, 127.33 -0.27 M53.88 87.12 C83.04 56.25, 108.36 26.13, 133.64 -0.88 M55.55 88.85 C85.63 53.8, 114.91 17.48, 132.47 -0.88 M62.59 87.2 C91.46 52.29, 121.3 17.81, 137.66 -0.39 M60.89 87.84 C90.76 54.22, 122.54 19.05, 137.98 0.49 M64.67 86.71 C85.15 67.54, 102.49 43.94, 141.54 -0.56 M67.35 89.21 C93.64 57.28, 121.85 25.49, 142.54 -0.24 M71.17 89.86 C98.93 55.22, 128.82 23.46, 148.97 -1.09 M71.78 88.71 C90.37 68.41, 107.6 49.46, 147.21 0.8 M78.6 88.52 C104.53 53.93, 134.83 21.63, 155.43 0.71 M76.9 87.82 C93.82 70.01, 107.7 52.12, 153.29 0.39 M81.48 87.45 C102.91 61.48, 123.33 37.75, 158.73 1.11 M82.68 88.65 C112.45 53.84, 143.24 19.8, 158.63 0.1 M89.42 87.51 C117.92 52.74, 146.34 17.5, 166.07 -0.85 M87.13 87.83 C105.01 69.83, 121.44 49.58, 163.52 -0.82 M91.66 86.8 C113.34 65.69, 136.16 40.82, 168.6 -0.2 M91.7 89.47 C114.87 62.29, 136.12 35.68, 168.99 0.49 M98.16 87.89 C114.66 66.64, 133.27 48.3, 176.49 -0.81 M98.09 89.02 C116.12 68.2, 135.16 45.68, 174.66 -0.61 M104.13 86.98 C121.15 71.34, 136.45 52.18, 181.5 -0.24 M103.59 88.17 C128.36 59.38, 154.1 30.54, 179.11 -0.31 M107.12 89.08 C137.3 59.41, 159.5 28.21, 184.02 -0.52 M109.93 88.8 C135.07 58.45, 162.71 26.27, 185.72 0.47 M115.58 89.25 C141.94 55.45, 172.55 21.63, 191.66 -0.98 M114.66 87.85 C130.56 68.9, 147.85 48.05, 190.96 0.08 M117.9 87.72 C143.57 57.55, 166.64 29.19, 198.27 -1.09 M119.92 87.24 C137.38 67.05, 154.6 46.35, 196.33 -1.03 M122.99 87.13 C156.66 53.43, 184.26 19.16, 202.56 -1.21 M123.86 88.77 C148.6 61.95, 171.09 34.46, 200.6 -0.34 M129.36 87.67 C146.7 68.33, 166.2 44.31, 207.12 -1.45 M129.43 88.03 C146.25 71.01, 162.49 52.31, 207.73 -0.39 M133.63 88.32 C150.57 68.06, 170.26 46.88, 212.99 1.54 M135.74 89.32 C152.54 70.28, 168.35 50.74, 211.19 -0.89 M139.65 85.99 C164.62 62.38, 185.76 32.74, 218.73 -0.27 M140.94 87.52 C168.57 56.84, 196.11 24.38, 217.78 0.23 M147.03 88.76 C175.46 52.98, 205.69 17.9, 222.34 1.69 M145.48 89.05 C163.7 68.97, 182.93 48.65, 221.36 1.45 M151.55 87.75 C167.25 70.52, 181.24 55.91, 221 5.51 M150.39 88.45 C168.16 68.91, 185.99 47.2, 221.37 6.37 M157.01 86.61 C170.36 70.88, 186.9 54.47, 220.11 13.44 M155.84 87.62 C178.11 64.29, 198.18 39.51, 221.65 12.96 M161.08 88.94 C183.98 60.45, 207.94 35.66, 223.27 20.63 M160.79 87.92 C173.42 74.3, 186.93 59.2, 221.2 20.14 M165.69 88.23 C190.05 64.04, 210.72 38.35, 222.08 26.07 M166.2 87.85 C182.07 70.3, 196.17 54.96, 221.73 25.37 M171.59 87.05 C191.2 69.17, 207.84 49, 222.5 30.51 M171.31 88.96 C181.05 77.27, 191.93 64.16, 222.88 30.29 M177.44 90.22 C190.02 73.98, 203.65 57.94, 223.48 35.67 M177.55 88.71 C194.24 68.69, 212.6 48.63, 222.54 38.65 M182.35 88.03 C195.33 72.3, 213.03 56.03, 223.31 42.11 M182.85 88.46 C197.9 71.5, 213.78 52.78, 222.05 43.97 M188.94 89.39 C197.3 74.94, 208.73 65.25, 221.51 48.77 M187.5 88.29 C201.35 73.36, 213.57 58.89, 221.8 49.67 M193.91 89.05 C202.4 74.75, 214.1 66.34, 222.6 54.32 M192.46 88.98 C204.64 75.07, 214.74 63.7, 221.9 56.24 M199.12 88.77 C207.23 76.44, 216.29 68.16, 220.61 61.14 M199.25 88.83 C206.58 80.41, 213.17 71.88, 222.34 61.91 M202.12 88.5 C207.34 85.76, 211.26 80.85, 223.56 68.51 M204.26 87.69 C211.24 80.11, 216.71 73.38, 222.3 67.54 M211.07 87.65 C212.33 85.91, 214.54 84.1, 221.85 76.33 M208.72 87.76 C213.18 83.8, 219.02 77.94, 220.53 75.2 M215.42 88.21 C216.71 87.3, 219.19 84.86, 220.99 79.82 M214.54 89 C217.38 85.64, 219.78 82.33, 221.56 79.92" stroke="#fab005" stroke-width="0.5" fill="none"></path><path d="M1.11 1.69 C68.91 -0.86, 141.12 0.54, 219.4 0.04 M-0.39 0.61 C83.7 -0.74, 168.96 -0.66, 219.77 0.49 M219.21 -1.33 C221.07 19.86, 221.27 44.52, 219.88 87.55 M221.06 -0.06 C219.47 29.82, 220.18 60.86, 220.42 86.82 M218.95 86.9 C149.47 84.93, 83.04 86.09, 1.23 86.09 M219.78 86.04 C156.95 86.01, 93.16 87.13, 0.36 85.41 M0.5 87.99 C1.41 55.21, -0.31 26.66, 1.18 0.8 M0.36 85.41 C-0.11 65.16, 1.03 43.8, 0.9 0.04" stroke="#e67700" stroke-width="1" fill="none"></path></g><g stroke-linecap="round" transform="translate(138.88352039690676 94.875) rotate(0 65 17.5)"><path d="M10.41 -1.24 L127.64 4.46 L126.4 1.57 L130.97 29.95 L122.53 34.54 L124.54 35.51 L4.72 32.66 L3.35 27.25 L-3.85 10.3 L-1.31 -1.18 L11.01 -1.89" stroke="none" stroke-width="0" fill="#fff"></path><path d="M8.75 0 M8.75 0 C46.6 1.56, 86.02 1.96, 121.25 0 M8.75 0 C49.31 -3.42, 88.45 -0.62, 121.25 0 M121.25 0 C126.82 -1.22, 129.28 4.53, 130 8.75 M121.25 0 C131.02 -0.38, 133.76 3.62, 130 8.75 M130 8.75 C131.81 10.13, 127.9 20.82, 130 26.25 M130 8.75 C130.06 14.54, 130.64 18.04, 130 26.25 M130 26.25 C130.2 33.3, 125.16 36.33, 121.25 35 M130 26.25 C133.69 34.01, 123.95 37.32, 121.25 35 M121.25 35 C92.06 38.29, 53.62 34.86, 8.75 35 M121.25 35 C81.13 35.82, 44.51 36.63, 8.75 35 M8.75 35 C0.58 34.42, 0.84 36.05, 0 26.25 M8.75 35 C2.5 39.16, 0.2 34.82, 0 26.25 M0 26.25 C-2.04 23.36, -2.34 17.43, 0 8.75 M0 26.25 C1.07 20.9, -1.58 15.23, 0 8.75 M0 8.75 C-0.64 6.52, -0.51 3.19, 8.75 0 M0 8.75 C-4.52 2.92, 5.56 2.78, 8.75 0" stroke="#fff" stroke-width="2" fill="none"></path></g><g transform="translate(182.75 99.25) rotate(0 16 10)"><text x="16" y="14" font-family="Virgil, Segoe UI Emoji" font-size="16px" fill="#e67700" text-anchor="middle" style="white-space: pre;" direction="ltr">.bss</text></g><g stroke-opacity="0.8" fill-opacity="0.8" transform="translate(10 502.25) rotate(0 33 10)"><text x="33" y="14" font-family="Virgil, Segoe UI Emoji" font-size="16px" fill="#0b7285" text-anchor="middle" style="white-space: pre;" direction="ltr">0x0000</text></g><g stroke-opacity="0.8" fill-opacity="0.8" transform="translate(17 375.75) rotate(0 29.5 10)"><text x="29.5" y="14" font-family="Virgil, Segoe UI Emoji" font-size="16px" fill="#0b7285" text-anchor="middle" style="white-space: pre;" direction="ltr">0x1000</text></g><g stroke-opacity="0.8" fill-opacity="0.8" transform="translate(18 282.25) rotate(0 29 10)"><text x="29" y="14" font-family="Virgil, Segoe UI Emoji" font-size="16px" fill="#0b7285" text-anchor="middle" style="white-space: pre;" direction="ltr">0x1500</text></g><g stroke-opacity="0.8" fill-opacity="0.8" transform="translate(10 153.75) rotate(0 33 10)"><text x="33" y="14" font-family="Virgil, Segoe UI Emoji" font-size="16px" fill="#0b7285" text-anchor="middle" style="white-space: pre;" direction="ltr">0x2000</text></g><g stroke-opacity="0.8" fill-opacity="0.8" transform="translate(10 61.25) rotate(0 33 10)"><text x="33" y="14" font-family="Virgil, Segoe UI Emoji" font-size="16px" fill="#0b7285" text-anchor="middle" style="white-space: pre;" direction="ltr">0x2400</text></g><g stroke-opacity="0.8" fill-opacity="0.8" stroke-linecap="round" transform="translate(511.75 112.5) rotate(0 94 158)"><path d="M0 0 C0 0, 0 0, 0 0 M0 0 C0 0, 0 0, 0 0 M0.2 6.42 C2.32 3.88, 3.31 1.74, 4.63 0.43 M-0.19 6.62 C1.63 4.65, 2.86 3.2, 5.07 0.25 M0.47 12.76 C1.92 7.4, 5.52 5.02, 11.77 -1.01 M-0.32 12.58 C3.36 6.69, 8.3 2.92, 10.25 0.34 M-0.79 16.77 C2.97 13.66, 6.64 8.21, 15.13 -0.92 M-0.42 17.62 C4.8 12.38, 9.89 6.37, 14.77 -0.42 M-1.02 23.94 C6.74 15.87, 13.67 8.88, 19.9 0.86 M0.52 23.46 C8.2 16.32, 14.42 8.07, 21.4 -0.66 M1.49 31.88 C5.32 22.88, 13.94 12.9, 24.78 -0.51 M-0.59 31.39 C8.86 20.48, 16.96 11.14, 26.23 1.08 M0.29 37.33 C9.02 23.95, 21.38 12.01, 31.07 -0.36 M-0.06 36.62 C8.14 28.41, 14.19 19.04, 31.1 0.61 M0.71 41.77 C10.81 29.62, 23.77 11.96, 37.55 -1.55 M1.09 41.54 C12.1 28.65, 23.69 15.18, 37.87 0.1 M1.69 46.92 C13.67 34.37, 23.54 20.69, 43.49 -1.34 M0.75 49.91 C12.03 35.86, 22.48 21.9, 42.24 -1.02 M2.18 52.62 C16.37 38.22, 27.09 21.41, 47.25 -0.12 M0.91 54.47 C15.96 36.23, 32.61 18.47, 48.11 -0.17 M-0.28 60.03 C12.15 47.72, 21.47 34.71, 53.35 -0.31 M0.01 60.92 C17.14 42.46, 33.1 24.05, 53.4 -0.69 M0.82 65.58 C13.26 54.72, 21.19 38.16, 58.98 0.92 M0.12 67.5 C13.09 53.19, 25.07 39.13, 58.44 0.07 M-1.17 72.4 C13.44 55.84, 26.82 42.8, 65.13 0.74 M0.55 73.17 C19.33 49.54, 40.64 25.76, 63.77 -0.38 M1.78 79.77 C27.06 51.5, 51.19 20.61, 67.1 1.94 M0.52 78.8 C14.06 62.11, 28.86 45.98, 68.51 0.27 M0.76 87.03 C26.36 57.59, 50.26 26.04, 73.6 -1.98 M-0.7 85.78 C28.6 51.74, 57.4 18.24, 74.16 0.03 M-1.46 90.79 C30.88 55.54, 61.3 21.28, 81.27 0.49 M-0.42 90.96 C28.17 58.76, 56.66 26.47, 79.03 0.53 M-2.1 96.86 C29.6 63.67, 56.05 32.63, 85.79 -0.03 M-0.35 97.29 C30.05 60.58, 62.53 24.32, 85.98 -0.15 M1.53 101.69 C28 72.64, 52.14 41.25, 88.41 1.39 M0.02 102.96 C19.99 80.54, 39.61 57.8, 90.86 0.56 M1.85 111.81 C25.69 77.95, 54.01 47.93, 95.03 1.23 M-0.93 109.61 C33.38 72.85, 65.77 35.54, 96.26 0.5 M-0.56 113.76 C40.05 69.99, 77.74 24.2, 98.75 -1.36 M0.19 115.91 C33.98 75.46, 68.42 36.75, 99.94 0.76 M1.56 121.27 C36.9 83.52, 72.17 39.16, 106.92 0.68 M0.17 121.56 C39.78 75.53, 80.05 29.7, 106.62 0.54 M0.59 129.24 C31.97 92.93, 62.12 59.09, 111.76 1.48 M0.36 128.83 C25.49 95.95, 53.85 64.55, 110.34 -0.88 M-0.12 133.1 C45.62 84.48, 89.96 32.03, 116.7 0.17 M0.32 134.83 C45.34 81.03, 91.99 27.33, 115.64 -0.56 M1.56 142.35 C41.33 92.09, 85.63 44.2, 122.24 0.35 M0.41 140.59 C46.45 86.82, 92.68 31.67, 121.22 0.31 M-1.02 144.38 C31.86 112.5, 61.42 76.32, 125.83 -0.5 M0 145.76 C37.47 103.1, 75.26 59.6, 126.5 -0.46 M1.11 153.63 C41.46 104.84, 81.85 58.26, 134.06 0.82 M0.75 151.59 C30.18 117.05, 58.54 84.03, 131.94 0.54 M1.4 159.99 C53.6 97.81, 104.44 38.22, 136.28 -0.89 M-0.77 159.06 C31.45 121.18, 64.86 83.14, 137.95 -0.33 M1.26 165.5 C40.89 119.01, 81.23 73.5, 143.09 -1.67 M0.38 165.11 C45.72 112.04, 91.51 58.68, 142.75 -0.91 M-0.16 172.18 C37.32 129.06, 77.43 85.53, 146.55 1.98 M0.67 170.08 C49.18 114.04, 98.42 57.88, 148.19 0.63 M0.26 176.4 C50.4 119.44, 98.87 62.89, 153.47 -1.74 M0.48 176.55 C44.83 125.26, 88.07 74.22, 154.09 -0.06 M0.8 182.69 C57.55 114.15, 114.32 49.96, 157.58 -0.44 M0.07 183.26 C60.07 117.33, 117.41 49.8, 158.78 0.16 M1.13 187.66 C41.82 141.64, 84.43 91.73, 164.98 -0.15 M-0.45 189.26 C36.29 150.3, 71.03 109.68, 163.98 0.61 M0.25 196.45 C65.67 124.22, 128.01 49.52, 170.34 0.52 M-0.03 194.31 C48.96 136.52, 99.12 79.88, 169.92 0.33 M-0.85 201.61 C47.85 147.46, 94.8 94.45, 175.3 -1.37 M0.18 201.77 C37.98 155.79, 77.32 112.89, 175.47 0.2 M-1.24 207.85 C39.09 164.86, 75.71 119.59, 181.22 -1.36 M-0.43 206.96 C56.91 141.22, 112.99 74.09, 179.9 -0.06 M-0.68 211.84 C56.82 150, 110.88 83.41, 184.9 0.79 M-0.48 213.43 C63.11 141.61, 126.08 68.4, 186 -0.03 M-1.33 219.67 C68.54 139.41, 137.05 61.75, 188.98 2.17 M-0.16 219.7 C42.62 171.16, 85.16 121.47, 189.43 1.84 M0.87 224.01 C48.46 168.77, 95.9 117.24, 188.54 6.9 M0.5 225.35 C42.43 179.41, 83.14 132.03, 189.79 6.8 M-1.05 231.58 C70.91 150.68, 139.7 72.13, 190.4 13.14 M-0.77 231.68 C46.23 177.82, 92.66 123.69, 189.15 13.41 M-1.08 236.14 C73.68 153.84, 147.9 66.84, 189.58 20.18 M-0.35 237.14 C41.23 190.72, 82.3 144.74, 189.49 19 M-0.68 243.44 C66.47 170.16, 130.13 93.3, 190.44 26.32 M-0.37 243.25 C74.36 160.05, 147.46 74.93, 190.32 26.35 M0.2 250.29 C61.69 177.29, 127.92 102.32, 190.04 33.43 M-0.63 250.05 C55.56 184.64, 113.03 119.48, 189.99 32.35 M1.03 256.77 C49.09 199.9, 96.18 143.8, 189.62 36.66 M0.63 255.25 C60.78 184.97, 122.22 115.63, 190.17 38.47 M0.05 261.86 C56.1 196.19, 113.18 129.6, 189.42 45.6 M-0.81 261.68 C70.38 179.89, 139.46 98.71, 189.05 43.89 M1.79 268.03 C45.21 214.08, 90.98 161.92, 188.67 51.31 M-0.34 267.48 C54.49 206.55, 107.6 145.15, 189.41 49.97 M1.1 274.7 C77.02 187.76, 151.84 100.94, 189.22 57.34 M0.16 274.24 C61.18 205.46, 122.3 134.71, 190.05 55.65 M-0.36 279.82 C52.28 216.53, 105.6 155.71, 189.4 61.78 M-0.41 280.23 C66.05 202.47, 134.96 123.35, 189.31 61.91 M-0.7 287.57 C70.31 206.18, 140.22 125.16, 191.05 69.46 M0.66 286.29 C69.44 206.99, 139.16 126.06, 190.35 67.89 M0.04 293.43 C64.09 219.02, 128.28 144.41, 189.77 75.53 M0.07 292.03 C40.42 246.2, 81.75 197.6, 189.06 73.92 M-0.14 299.38 C47.92 241.95, 95.98 186.35, 188.48 79.17 M-0.43 298.75 C67.96 223.83, 133.67 147.32, 190.39 80.6 M1.43 305.78 C44.17 258.16, 83.84 212.2, 190.48 85.93 M0.39 304.88 C72.68 221.18, 145.77 137.89, 190.06 86.52 M0.01 311.48 C60.51 241.9, 120.72 173.65, 188.9 94.38 M-0.72 311.89 C37.14 267.18, 74.58 224.17, 189.3 93.48 M0.03 316.23 C56.23 251.75, 111.78 188.08, 190.11 97.75 M0.44 316.75 C64.31 242.71, 128.94 168.9, 190.37 98.83 M5.07 316.31 C63.31 251.21, 122.3 184.11, 190.63 105.12 M6.04 316.29 C59.16 257.64, 111.1 198.42, 189.75 105.24 M9.89 317.51 C47.06 275.72, 83.3 231.64, 188.92 111.48 M11.12 316.27 C56.52 267.63, 100.49 216.55, 189.18 110.03 M15.91 315.5 C57.44 271.03, 97.18 224.36, 189.4 116.57 M16.61 316.21 C62.89 262.08, 108.71 207.71, 190.29 117.3 M21.54 316.79 C80.15 251.81, 138.96 183.27, 189.9 122.3 M21.01 316.77 C56.96 274.79, 92.51 234.42, 190.2 124.06 M28.08 317.13 C86.83 248.18, 143.52 183.12, 188.63 129.76 M27.05 316.81 C67.7 270.83, 107.97 226.08, 190.14 128.51 M31.07 317.86 C93.77 249.39, 152.75 180.14, 190.44 134.16 M31.25 316.04 C67.32 275.98, 104.03 234.18, 189.36 134.85 M36.92 316.05 C98.23 247.97, 158.65 180.48, 188.24 140.11 M37.81 316.41 C68.81 279.18, 101.76 242.83, 189.34 141.46 M41.03 318.31 C89.15 263.43, 134.08 212.05, 189.11 147.38 M43.13 316.42 C77.4 277.04, 110.9 238.34, 189.05 147.51 M47.87 317.13 C96.68 259.89, 147.08 206.49, 188.59 152.99 M48.15 315.85 C102.75 254.86, 157.88 192.72, 189.15 154.33 M51.9 318.31 C82.74 280.31, 114.64 245.35, 190.61 159.83 M52.87 316.72 C83.04 278.37, 114.94 242.5, 190.58 160.03 M58.24 317.14 C87.25 279.01, 117.17 245.67, 187.72 166.01 M58.67 316.2 C96.16 273.94, 134.9 229.73, 190.52 166.9 M63.53 315.35 C110.01 265.25, 157.68 209.84, 188.86 173.85 M64.59 316.09 C89.09 286.47, 115.75 257.01, 189.92 171.88 M69.28 315.99 C116.13 264.7, 164.03 209.49, 190.68 178.21 M68.82 316.01 C103.99 278.98, 136.9 241.24, 190.26 178.97 M73.26 317.75 C100.01 285.41, 127.36 255.4, 188.82 183.72 M75.31 317.26 C120.64 265.34, 167.02 212.27, 189.6 184.2 M80.36 316.32 C118.59 269.7, 159.87 223.93, 190.33 188.7 M79.54 315.71 C123.98 268.18, 166.12 218.19, 188.91 190.31 M85.22 315.6 C114.7 282.58, 145.11 248.79, 190.31 198.36 M84.87 315.69 C124.88 270.51, 166.39 224.36, 189.34 195.72 M91.22 316.87 C111.12 292.08, 134.4 268.9, 188.26 204.72 M90.39 316.92 C121.55 281.49, 151.98 247.69, 188.5 203.08 M97.06 318.01 C116.25 291.44, 138.9 264.41, 187.95 208.09 M95.26 316.43 C119.58 288.97, 143.04 260.68, 189.01 208.53 M99.85 314.62 C138.87 276.41, 171.44 236.24, 191.29 216.47 M100.56 315.42 C120.09 292.94, 138.44 271.4, 190.15 215.79 M105.66 315.3 C140.24 279.52, 171.49 243.38, 188.67 219.48 M105.6 317.22 C124.82 294.16, 145.82 272.03, 189.07 219.85 M112.56 314.75 C135.39 290.69, 157.6 262.5, 189.59 227.61 M111.83 316.13 C137.13 289.71, 162.56 260.25, 189.09 226.87 M117.21 317.02 C136.69 294.08, 157.2 271.34, 189.01 234.07 M117.1 317.4 C133.42 299.82, 148.66 282.4, 188.95 233.81 M121.25 317.42 C141.16 294.89, 163.72 272.77, 189.24 238.28 M122.93 316.84 C143.95 292.31, 165.23 268.5, 190.35 238.62 M129.17 317.94 C151.21 287.64, 176.39 260.79, 187.76 247.33 M128.09 316.97 C142.88 299.98, 157.69 282.19, 188.67 245.39 M132.1 316.74 C147.38 296.53, 165.89 279.8, 189.61 251.85 M133.2 316.23 C151.62 295.03, 172.46 271.65, 189.05 250.99 M140.29 316.03 C154.52 296.22, 171.4 277.37, 188.01 259.25 M139 315.58 C151.53 301.78, 164.6 285.72, 189.86 258 M143.59 315.31 C162.11 298.07, 178.46 275.78, 188.7 265.63 M143.59 317.41 C153.94 303.86, 165.36 293.25, 188.77 263.34 M148.59 314.49 C157.35 305.41, 164.88 297.83, 189.82 269.25 M149.37 315.49 C161.58 300.67, 175.56 285.46, 189.45 269.43 M155.13 315.18 C161.51 308.34, 169.27 301.04, 187.75 277.93 M154.33 315.84 C164.05 305.71, 172.73 296.11, 189.15 276.38 M161.38 315.75 C170.8 301.35, 181.38 289.54, 191.5 282.99 M158.88 316.63 C166.21 307.98, 172.49 301.1, 189.94 281.6 M164.41 316.64 C174.61 306.8, 182.66 292.88, 189.31 286.49 M165.24 317.13 C173.64 306.26, 181.9 294.65, 189 287.74 M169.25 315.44 C173.59 310.94, 179.13 304.12, 191.01 295.1 M170.27 315.56 C175.14 311.9, 179.79 305.97, 189.83 294.33 M173.43 316.18 C180.18 311.92, 182.81 308.25, 189.89 299.57 M174.78 316.05 C180.99 310.85, 186.1 305.78, 189.88 299.94 M180.35 316.36 C183.51 314.35, 184.46 312.24, 190.15 307.56 M180.59 316.4 C183.69 312.25, 186.27 308.82, 189.25 307.02 M186.04 316.58 C186.79 315.52, 187.25 314.37, 189.65 311.64 M185.62 316.87 C187.33 315.38, 188.52 313.53, 190.01 312.09" stroke="#15aabf" stroke-width="0.5" fill="none"></path><path d="M0.97 -1.12 C68.56 -0.72, 142.07 -0.32, 186.83 0.11 M0.28 -0.06 C71.29 0.91, 143.02 0.01, 187.84 -0.2 M189.37 -0.59 C185.01 68.81, 186.28 135.58, 186.87 317.31 M188 -0.54 C189.71 78.04, 188.59 156.55, 187.55 316.55 M189.25 314.69 C142.01 314.78, 97.32 313.69, 0.74 317.39 M187.28 315.57 C116.03 316.72, 46.03 315.6, -0.17 315.54 M0.11 315.19 C-2.01 195.42, -1.74 75.52, 0.04 -0.03 M0.54 315.93 C-2.12 213.08, -0.91 109.3, -0.02 -0.48" stroke="#0b7285" stroke-width="1" fill="none"></path></g><g stroke-linecap="round" transform="translate(546.5 387.125) rotate(0 65 10.75)"><path d="M5.02 3.78 L126.57 -2.23 L126.55 5.14 L133.68 19.04 L126.32 20.37 L127.75 22.66 L3.58 22.61 L1.11 20.91 L0.27 19.38 L-3.01 2.39 L4.57 -3.45" stroke="none" stroke-width="0" fill="#fff"></path><path d="M5.37 0 M5.37 0 C28.79 -5.11, 59.09 -1.52, 124.63 0 M5.37 0 C44.28 -1.25, 83.47 -2.22, 124.63 0 M124.63 0 C125.13 3.58, 127.09 -0.97, 130 5.37 M124.63 0 C124.61 -2.93, 133.57 -0.74, 130 5.37 M130 5.37 C128.49 8.25, 129.56 12.53, 130 16.12 M130 5.37 C130.93 7.81, 130.09 9.55, 130 16.12 M130 16.12 C128.26 17.1, 130.99 24.18, 124.63 21.5 M130 16.12 C128.06 18.93, 126.11 25.12, 124.63 21.5 M124.63 21.5 C83.17 17.78, 43.82 18.57, 5.37 21.5 M124.63 21.5 C98.6 22.85, 70.38 23, 5.37 21.5 M5.37 21.5 C1.39 18.33, 0.87 23.36, 0 16.12 M5.37 21.5 C-1.8 21.39, -3.13 19.43, 0 16.12 M0 16.12 C1.78 10.41, 1.26 7.13, 0 5.37 M0 16.12 C0.72 12.31, 0.49 7.66, 0 5.37 M0 5.37 C-3.83 1.98, 2.98 3.06, 5.37 0 M0 5.37 C-2.72 -2.76, 3.32 4.36, 5.37 0" stroke="#fff" stroke-width="2" fill="none"></path></g><g transform="translate(608.75 388.5) rotate(0 30 10)"><text x="30" y="14" font-family="Virgil, Segoe UI Emoji" font-size="16px" fill="#0b7285" text-anchor="middle" style="white-space: pre;" direction="ltr">_start</text></g><g stroke-opacity="0.8" fill-opacity="0.8" transform="translate(710.75 390) rotate(0 33 10)"><text x="33" y="14" font-family="Virgil, Segoe UI Emoji" font-size="16px" fill="#0b7285" text-anchor="middle" style="white-space: pre;" direction="ltr">0x0000</text></g><g stroke-opacity="0.8" fill-opacity="0.8" transform="translate(710.75 322.5) rotate(0 33.5 10)"><text x="33.5" y="14" font-family="Virgil, Segoe UI Emoji" font-size="16px" fill="#0b7285" text-anchor="middle" style="white-space: pre;" direction="ltr">0x0008</text></g><g stroke-linecap="round" transform="translate(546.5 320.5) rotate(0 65 10.75)"><path d="M5.54 -2.88 L127.45 1.43 L128.82 0.4 L133.08 14.84 L130.54 24.06 L125.69 18.76 L6.62 23.55 L4.32 21.79 L-0.3 16.71 L-1.11 4.85 L2.65 3.73" stroke="none" stroke-width="0" fill="#fff"></path><path d="M5.37 0 M5.37 0 C31.57 -2.67, 56.35 -0.44, 124.63 0 M5.37 0 C46.84 1.94, 88.41 2.18, 124.63 0 M124.63 0 C126.08 2.85, 133.63 4.2, 130 5.37 M124.63 0 C130.57 -4.03, 131.41 1.62, 130 5.37 M130 5.37 C131.58 7.91, 128.84 12.77, 130 16.12 M130 5.37 C130.06 8.06, 130.25 10.8, 130 16.12 M130 16.12 C133.83 19.64, 130.78 22.16, 124.63 21.5 M130 16.12 C133.99 16, 131.41 20.96, 124.63 21.5 M124.63 21.5 C91.93 15.35, 54.62 22.62, 5.37 21.5 M124.63 21.5 C77.94 20.08, 29.67 21.05, 5.37 21.5 M5.37 21.5 C5.23 23.39, -1.42 21.77, 0 16.12 M5.37 21.5 C2.87 22.06, 0.98 16.28, 0 16.12 M0 16.12 C-1.2 13.58, -0.83 9.88, 0 5.37 M0 16.12 C0.4 13.12, -0.74 10.97, 0 5.37 M0 5.37 C-0.08 1.94, 3.04 -1.14, 5.37 0 M0 5.37 C-1.1 -0.43, 5.91 -1.89, 5.37 0" stroke="#fff" stroke-width="2" fill="none"></path></g><g transform="translate(615.8664796030932 321.875) rotate(0 22.5 10)"><text x="22.5" y="14" font-family="Virgil, Segoe UI Emoji" font-size="16px" fill="#0b7285" text-anchor="middle" style="white-space: pre;" direction="ltr">_loop</text></g><g stroke-linecap="round" transform="translate(546 253) rotate(0 65 10.75)"><path d="M3.45 3.58 L122.98 3.13 L128.06 -0.18 L130.08 15.54 L130.28 22.58 L127.36 24.21 L3.07 25.03 L-2.17 23.52 L1.96 12.91 L-0.76 6.35 L8.6 -3.62" stroke="none" stroke-width="0" fill="#fff"></path><path d="M5.37 0 M5.37 0 C48.27 -2.54, 97.62 3.35, 124.63 0 M5.37 0 C40.35 -0.81, 72.32 -2.51, 124.63 0 M124.63 0 C129.01 -2.85, 127.29 -0.74, 130 5.37 M124.63 0 C129.94 0.38, 127.21 3.19, 130 5.37 M130 5.37 C128.66 9.12, 128.44 10.52, 130 16.12 M130 5.37 C130.48 9.09, 129.95 12.4, 130 16.12 M130 16.12 C133.12 19.51, 124.57 22.42, 124.63 21.5 M130 16.12 C130.94 17.65, 129.36 25.05, 124.63 21.5 M124.63 21.5 C93.73 17.4, 59.07 17.56, 5.37 21.5 M124.63 21.5 C95.87 20.27, 64.96 23.05, 5.37 21.5 M5.37 21.5 C3.48 17.72, 3.99 20.99, 0 16.12 M5.37 21.5 C-0.92 22.59, 4.15 15.64, 0 16.12 M0 16.12 C1.5 13.99, 0.87 12.18, 0 5.37 M0 16.12 C0.08 13.22, -0.45 8.8, 0 5.37 M0 5.37 C-1.23 0.99, -2.05 -0.56, 5.37 0 M0 5.37 C-1.14 4.3, 2.84 0.38, 5.37 0" stroke="#fff" stroke-width="2" fill="none"></path></g><g transform="translate(601.8664796030932 254.375) rotate(0 37 10)"><text x="37" y="14" font-family="Virgil, Segoe UI Emoji" font-size="16px" fill="#0b7285" text-anchor="middle" style="white-space: pre;" direction="ltr">_print_a</text></g><g stroke-linecap="round" transform="translate(546.5 352.5) rotate(0 65 10.75)"><path d="M8.41 -2.93 L122.99 2.73 L126.31 -0.16 L130.2 17.97 L130.11 23.33 L120.67 23.38 L5.32 21.15 L-0.05 23.79 L-3.95 19.46 L-3.63 2.5 L8.52 -3.12" stroke="none" stroke-width="0" fill="#fff"></path><path d="M5.37 0 M5.37 0 C49.33 -2.72, 97.01 -1.09, 124.63 0 M5.37 0 C41.75 -1.09, 75.44 1.49, 124.63 0 M124.63 0 C131.2 -2.73, 126.07 2, 130 5.37 M124.63 0 C132.61 2.87, 132.7 1.53, 130 5.37 M130 5.37 C129.98 8.64, 131.31 10.26, 130 16.12 M130 5.37 C129.93 7.76, 130.54 10.36, 130 16.12 M130 16.12 C128.78 20.23, 127.06 19.6, 124.63 21.5 M130 16.12 C130.87 22.44, 128.4 23.44, 124.63 21.5 M124.63 21.5 C75.16 19.61, 34 21.15, 5.37 21.5 M124.63 21.5 C83.42 20.76, 40.3 20.34, 5.37 21.5 M5.37 21.5 C-1.78 21.94, -1.3 15.76, 0 16.12 M5.37 21.5 C4.45 24.67, 3.09 19.12, 0 16.12 M0 16.12 C0.26 15.4, -0.19 8.54, 0 5.37 M0 16.12 C-1.21 12.03, -0.4 9.35, 0 5.37 M0 5.37 C0.17 4.05, 0.58 -1.87, 5.37 0 M0 5.37 C-4.59 5.47, 5.39 -3.64, 5.37 0" stroke="#fff" stroke-width="2" fill="none"></path></g><g stroke-linecap="round" transform="translate(546.5 289.5) rotate(0 65 10.75)"><path d="M2.64 -3.93 L124.83 3.83 L132.16 5.37 L129.77 14.16 L130.94 20.94 L124.36 22.56 L7.58 20.54 L-1.69 17.92 L-2.58 16.33 L0.24 5.47 L6 -1.22" stroke="none" stroke-width="0" fill="#fff"></path><path d="M5.37 0 M5.37 0 C43.44 3.51, 80.18 2.82, 124.63 0 M5.37 0 C49.99 1.73, 98.77 2.5, 124.63 0 M124.63 0 C130.52 -1.84, 126.38 4.72, 130 5.37 M124.63 0 C131.48 2.36, 132.29 -2.31, 130 5.37 M130 5.37 C131.17 10.2, 131.38 11.79, 130 16.12 M130 5.37 C130.37 9.19, 130.15 9.94, 130 16.12 M130 16.12 C130.02 23.12, 130.13 17.67, 124.63 21.5 M130 16.12 C126.3 18.8, 126.86 21.69, 124.63 21.5 M124.63 21.5 C78.12 23.58, 42.73 17.22, 5.37 21.5 M124.63 21.5 C92.9 22.84, 59.74 21.73, 5.37 21.5 M5.37 21.5 C2.2 21.39, 3.6 19.98, 0 16.12 M5.37 21.5 C0.78 23.33, 1.18 22.44, 0 16.12 M0 16.12 C-0.21 14.13, -2.11 11.2, 0 5.37 M0 16.12 C-0.76 13.51, 0.44 10.8, 0 5.37 M0 5.37 C-0.27 4.92, 5.56 3.84, 5.37 0 M0 5.37 C-1.21 2.11, 2.97 -2.36, 5.37 0" stroke="#fff" stroke-width="2" fill="none"></path></g><g stroke-linecap="round" transform="translate(544 219) rotate(0 65 10.75)"><path d="M2.34 -2.24 L122.04 0.2 L129.56 5.47 L130.62 14.91 L129.17 19.01 L122.73 22.25 L7.75 21.67 L3.03 23.66 L0.59 13.14 L-2.9 2.91 L7.22 1.43" stroke="none" stroke-width="0" fill="#fff"></path><path d="M5.37 0 M5.37 0 C50.98 5, 92.78 4.15, 124.63 0 M5.37 0 C28.54 1.93, 57.04 2.12, 124.63 0 M124.63 0 C127.7 -1.64, 133 -2.16, 130 5.37 M124.63 0 C129.12 4.41, 129.94 -2.52, 130 5.37 M130 5.37 C128.13 6.87, 129.76 11.2, 130 16.12 M130 5.37 C129.62 7.57, 130.98 12.76, 130 16.12 M130 16.12 C126.84 18.61, 126.1 24.17, 124.63 21.5 M130 16.12 C131.78 19.13, 128.46 18.38, 124.63 21.5 M124.63 21.5 C87.9 22.77, 52.23 24.68, 5.37 21.5 M124.63 21.5 C80.31 22.33, 40.32 20.56, 5.37 21.5 M5.37 21.5 C5.6 19.59, -1.06 21.12, 0 16.12 M5.37 21.5 C-1.72 21.93, 1.65 20.14, 0 16.12 M0 16.12 C1.89 12.41, -0.02 10.37, 0 5.37 M0 16.12 C0.66 12.46, 0.09 9.88, 0 5.37 M0 5.37 C0.49 5.7, -1.48 -1.04, 5.37 0 M0 5.37 C-3.83 -1.38, -1.66 2.01, 5.37 0" stroke="#fff" stroke-width="2" fill="none"></path></g><g stroke-opacity="0.8" fill-opacity="0.8" transform="translate(710.75 357.75) rotate(0 32.5 10)"><text x="32.5" y="14" font-family="Virgil, Segoe UI Emoji" font-size="16px" fill="#0b7285" text-anchor="middle" style="white-space: pre;" direction="ltr">0x0004</text></g><g stroke-opacity="0.8" fill-opacity="0.8" transform="translate(710.75 292.25) rotate(0 31.5 10)"><text x="31.5" y="14" font-family="Virgil, Segoe UI Emoji" font-size="16px" fill="#0b7285" text-anchor="middle" style="white-space: pre;" direction="ltr">0x000c</text></g><g stroke-opacity="0.8" fill-opacity="0.8" transform="translate(710.75 254.25) rotate(0 29.5 10)"><text x="29.5" y="14" font-family="Virgil, Segoe UI Emoji" font-size="16px" fill="#0b7285" text-anchor="middle" style="white-space: pre;" direction="ltr">0x0010</text></g><g stroke-opacity="0.8" fill-opacity="0.8" transform="translate(710.75 219.75) rotate(0 29.5 10)"><text x="29.5" y="14" font-family="Virgil, Segoe UI Emoji" font-size="16px" fill="#0b7285" text-anchor="middle" style="white-space: pre;" direction="ltr">0x0014</text></g><g stroke-opacity="0.8" fill-opacity="0.8" transform="translate(710.75 182.75) rotate(0 14 10)"><text x="14" y="14" font-family="Virgil, Segoe UI Emoji" font-size="16px" fill="#0b7285" text-anchor="middle" style="white-space: pre;" direction="ltr">......</text></g><g stroke-linecap="round" transform="translate(546.5 181.5) rotate(0 65 10.75)"><path d="M3.73 -2.38 L126.8 -0.82 L129.74 4.25 L127.75 13.8 L126.04 22.18 L123.14 17.98 L8.28 18.61 L0.74 23.09 L0.82 13.18 L-2.83 2.83 L4.23 -2.15" stroke="none" stroke-width="0" fill="#fff"></path><path d="M5.37 0 M5.37 0 C44.64 -1.13, 79.17 -0.1, 124.63 0 M5.37 0 C42.82 1.63, 83.73 1.89, 124.63 0 M124.63 0 C132.03 3.66, 127.96 0.01, 130 5.37 M124.63 0 C127.41 -1.26, 134.54 2.23, 130 5.37 M130 5.37 C130.4 10.34, 130.29 11.64, 130 16.12 M130 5.37 C128.86 8.92, 130.82 12.91, 130 16.12 M130 16.12 C130.61 21.59, 128.82 20.18, 124.63 21.5 M130 16.12 C131.7 19.28, 125.76 20.89, 124.63 21.5 M124.63 21.5 C95.05 24.19, 65.26 19.46, 5.37 21.5 M124.63 21.5 C93.03 21.48, 62.66 20.21, 5.37 21.5 M5.37 21.5 C0.03 23.02, 0.08 22.43, 0 16.12 M5.37 21.5 C-0.34 26.04, 4.07 15.32, 0 16.12 M0 16.12 C-1.34 12.25, 0.19 6.36, 0 5.37 M0 16.12 C0.19 12.27, 0.72 7.2, 0 5.37 M0 5.37 C2.95 -0.41, 2.15 -2.99, 5.37 0 M0 5.37 C-0.4 1.06, 4.4 0.25, 5.37 0" stroke="#fff" stroke-width="2" fill="none"></path></g><g stroke-linecap="round"><g stroke-opacity="0.8" fill-opacity="0.8" transform="translate(318 387.75) rotate(0 90.52198574282227 -136.08620822526515)"><path d="M0.14 -1.19 C30.36 -46.75, 151.83 -228.01, 182.29 -272.97 M-1.24 0.79 C28.76 -44.68, 150.86 -226.36, 181.49 -271.94" stroke="#0b7285" stroke-width="1" fill="none"></path></g></g><g stroke-linecap="round"><g stroke-opacity="0.8" fill-opacity="0.8" transform="translate(319.5 509.25) rotate(0 91.61887462638316 -39.88775115422902)"><path d="M0.2 0.13 C30.69 -13.08, 151.84 -66.36, 182.31 -79.9 M-1.16 -0.85 C29.73 -13.8, 153.87 -65.06, 184.4 -78.32" stroke="#0b7285" stroke-width="1" fill="none"></path></g></g><g transform="translate(567.5 67.25) rotate(0 36 18)"><text x="0" y="25" font-family="Virgil, Segoe UI Emoji" font-size="28px" fill="#0b7285" text-anchor="start" style="white-space: pre;" direction="ltr">.text</text></g></svg>