<svg version="1.1" xmlns="http://www.w3.org/2000/svg" viewBox="0 0 1328.1200980392155 614" width="2656.240196078431" height="1228">
  <!-- svg-source:excalidraw -->
  
  <defs>
    <style>
      @font-face {
        font-family: "Virgil";
        src: url("https://excalidraw.com/Virgil.woff2");
      }
      @font-face {
        font-family: "Cascadia";
        src: url("https://excalidraw.com/Cascadia.woff2");
      }
    </style>
  </defs>
  <rect x="0" y="0" width="1328.1200980392155" height="614" fill="#ffffff"></rect><g stroke-linecap="round" transform="translate(98.5 312) rotate(0 94.5 119)"><path d="M6.36 18.78 C6.36 18.78, 6.36 18.78, 6.36 18.78 M6.36 18.78 C6.36 18.78, 6.36 18.78, 6.36 18.78 M2.16 29.71 C7.22 24.68, 10.54 20.44, 17.91 11.59 M2.16 29.71 C4.75 25.14, 8.44 21.24, 17.91 11.59 M4.53 33.09 C9.3 23.28, 17.55 18.25, 31.43 2.14 M4.53 33.09 C14.04 20.23, 25.63 8.14, 31.43 2.14 M3.61 40.24 C15 29.57, 25.58 16.67, 37.07 1.75 M3.61 40.24 C12.34 29.38, 20.65 19.44, 37.07 1.75 M1.38 48.9 C18.37 31.46, 34.56 12.63, 43.37 0.6 M1.38 48.9 C15.56 32.27, 30.8 16.08, 43.37 0.6 M1.78 54.54 C15.91 36.57, 29.5 19.02, 48.36 0.96 M1.78 54.54 C15.97 35.68, 33.09 18.58, 48.36 0.96 M1.51 60.94 C13.9 47.85, 23.62 36.11, 53.34 1.32 M1.51 60.94 C20.75 38.81, 40.66 17.34, 53.34 1.32 M1.91 66.58 C22.1 43.1, 41.33 18.98, 58.99 0.92 M1.91 66.58 C23.56 41.74, 44 17.96, 58.99 0.92 M1.65 72.98 C16.13 57.28, 27.46 40.78, 63.97 1.28 M1.65 72.98 C18.49 54.43, 36.31 34.93, 63.97 1.28 M1.39 79.38 C20.71 57.69, 40.93 30.34, 69.62 0.89 M1.39 79.38 C19.81 58.86, 38.23 36.94, 69.62 0.89 M1.78 85.02 C17.47 66.44, 34.98 47.27, 74.6 1.25 M1.78 85.02 C31.1 52.49, 59.68 20.74, 74.6 1.25 M1.52 91.42 C20.9 68.2, 41.9 45.52, 80.25 0.86 M1.52 91.42 C25.98 64.29, 49.37 37.47, 80.25 0.86 M1.91 97.06 C21.74 73.85, 41.31 47.69, 85.23 1.22 M1.91 97.06 C30.56 63.97, 59.86 29.8, 85.23 1.22 M1.65 103.46 C28.09 77.15, 51.23 45.22, 90.22 1.58 M1.65 103.46 C30.96 70.21, 61.03 35.62, 90.22 1.58 M1.39 109.86 C24.39 84.95, 46.83 56.62, 95.86 1.18 M1.39 109.86 C32.71 73.68, 64.7 38.29, 95.86 1.18 M1.78 115.5 C32.83 84.13, 59.09 52.04, 100.85 1.54 M1.78 115.5 C36.2 78.22, 69.24 39.95, 100.85 1.54 M1.52 121.9 C37.38 82.93, 71.84 44.17, 106.49 1.15 M1.52 121.9 C23.91 97.53, 44.54 71.78, 106.49 1.15 M1.92 127.54 C24.27 102.44, 47.87 76.55, 111.48 1.51 M1.92 127.54 C36.93 86.74, 71.95 47.68, 111.48 1.51 M1.66 133.94 C44.6 85.83, 86.24 37.78, 117.12 1.11 M1.66 133.94 C45.23 84.51, 89.93 34.35, 117.12 1.11 M1.4 140.34 C38.23 97.61, 76.08 54.04, 122.11 1.47 M1.4 140.34 C26.59 111.93, 51.2 83.29, 122.11 1.47 M1.79 145.98 C26.6 116.2, 55.91 86.87, 127.1 1.83 M1.79 145.98 C47.31 96.78, 90.24 47.08, 127.1 1.83 M1.53 152.38 C48.15 97.95, 97.47 41.81, 132.74 1.44 M1.53 152.38 C42.67 106.33, 83.35 57.98, 132.74 1.44 M1.92 158.02 C31.48 124.52, 62.9 86.84, 137.73 1.8 M1.92 158.02 C50.97 100.13, 100.45 42.69, 137.73 1.8 M1.66 164.42 C36.08 121.67, 75.9 79.46, 143.37 1.4 M1.66 164.42 C44.36 115.13, 89.45 64.1, 143.37 1.4 M1.4 170.82 C56.6 106.5, 113.09 41.4, 148.36 1.76 M1.4 170.82 C53.29 111.24, 104.74 51.5, 148.36 1.76 M1.79 176.46 C60.03 110.83, 114.51 46.95, 154 1.37 M1.79 176.46 C41.6 131.73, 82.28 85.31, 154 1.37 M1.53 182.86 C59.82 119.56, 114.04 55.38, 157.68 3.24 M1.53 182.86 C32.73 145.43, 64.7 107.99, 157.68 3.24 M1.93 188.5 C35.91 149.54, 69.98 109.97, 162.01 4.35 M1.93 188.5 C58.1 125, 114.45 60.41, 162.01 4.35 M2.98 193.39 C40.72 147.44, 82.43 101.75, 166.34 5.47 M2.98 193.39 C46.89 142.38, 93.18 89.41, 166.34 5.47 M3.37 199.03 C61.65 127.98, 124.39 58.25, 170.67 6.58 M3.37 199.03 C67.84 125.6, 132.88 50.96, 170.67 6.58 M1.8 206.94 C41.35 160.26, 81.24 115.94, 173.69 9.21 M1.8 206.94 C54.44 148.25, 105.49 90.88, 173.69 9.21 M3.51 211.07 C65.78 139.37, 129.29 67.69, 176.71 11.83 M3.51 211.07 C50.74 155.19, 98.97 100.51, 176.71 11.83 M4.56 215.96 C57.87 152.31, 113.7 89.37, 179.72 14.46 M4.56 215.96 C49.44 166.94, 91.93 117.07, 179.72 14.46 M6.92 219.34 C42.54 177.96, 76.18 137.07, 182.09 17.83 M6.92 219.34 C72.87 145.46, 137.18 70.12, 182.09 17.83 M9.28 222.72 C46.78 179.26, 86.37 133, 184.45 21.21 M9.28 222.72 C63.13 161.86, 115.35 101.44, 184.45 21.21 M11.65 226.1 C53.34 177.09, 94.16 129.91, 186.81 24.59 M11.65 226.1 C68.24 159.51, 124.84 94.28, 186.81 24.59 M14.66 228.72 C59.4 176.4, 107.58 123.98, 187.86 29.48 M14.66 228.72 C59.26 175.03, 106.17 121.73, 187.86 29.48 M17.68 231.35 C66.47 177.72, 114.65 123.76, 189.57 33.61 M17.68 231.35 C53.03 191.62, 87.9 150.36, 189.57 33.61 M21.36 233.22 C66.53 178.24, 113.08 124.76, 190.62 38.5 M21.36 233.22 C81.5 163.72, 140.83 93.74, 190.62 38.5 M25.03 235.09 C72.58 181.85, 120.15 124.17, 191.02 44.15 M25.03 235.09 C59.37 193.86, 93.46 154.74, 191.02 44.15 M29.36 236.2 C75.06 184.06, 121.17 132.92, 191.41 49.79 M29.36 236.2 C64.06 196.95, 98.16 156.4, 191.41 49.79 M33.04 238.07 C82.31 182.14, 127.41 127.53, 191.8 55.43 M33.04 238.07 C86.99 177.97, 140.27 118.18, 191.8 55.43 M38.03 238.43 C72 202.82, 104.2 164.57, 191.54 61.83 M38.03 238.43 C80.86 189.03, 123.95 139.36, 191.54 61.83 M43.01 238.79 C85.35 190.02, 128.76 141.16, 191.28 68.23 M43.01 238.79 C87.01 186.18, 133.38 133.56, 191.28 68.23 M48.66 238.4 C81.66 198.6, 117.33 157.1, 191.68 73.87 M48.66 238.4 C82.11 197.3, 117.13 156.47, 191.68 73.87 M53.64 238.76 C95.86 191.43, 138.68 143.87, 191.41 80.27 M53.64 238.76 C90.82 196.46, 127.72 152.63, 191.41 80.27 M58.63 239.12 C87.26 205.9, 118.02 171.75, 191.81 85.91 M58.63 239.12 C107.84 182.79, 157.4 126.15, 191.81 85.91 M64.27 238.72 C109.07 189.49, 148.08 140.1, 191.55 92.31 M64.27 238.72 C99.28 197.56, 135.35 156.57, 191.55 92.31 M69.26 239.08 C94.84 210.71, 116.81 178.3, 191.29 98.71 M69.26 239.08 C116.2 184.08, 162.94 130.49, 191.29 98.71 M74.9 238.69 C106.5 206.66, 134.29 171.96, 191.68 104.35 M74.9 238.69 C98.99 208.42, 124.7 178.92, 191.68 104.35 M79.89 239.05 C123.71 190.97, 164.21 141.38, 191.42 110.75 M79.89 239.05 C124.39 189.56, 168.14 139.66, 191.42 110.75 M85.53 238.65 C113.24 209.9, 139.98 178.24, 191.81 116.39 M85.53 238.65 C114.76 204.84, 144.39 169.43, 191.81 116.39 M90.52 239.01 C121.25 203.25, 152.67 165.1, 191.55 122.79 M90.52 239.01 C123.65 199.34, 158.5 159.43, 191.55 122.79 M95.51 239.37 C118.74 215.04, 139.14 189.77, 191.29 129.19 M95.51 239.37 C120.48 210.72, 144.95 182.03, 191.29 129.19 M101.15 238.98 C129.18 205.27, 155.65 175.66, 191.69 134.83 M101.15 238.98 C134.57 199.86, 167.31 160.88, 191.69 134.83 M106.14 239.34 C140.26 200.99, 174.46 162.17, 191.42 141.23 M106.14 239.34 C130 209.93, 155.41 182.8, 191.42 141.23 M111.78 238.95 C133.71 217.7, 152.56 191.27, 191.82 146.87 M111.78 238.95 C135.6 212.27, 159.08 185.32, 191.82 146.87 M116.77 239.31 C133.8 220.72, 155.19 199.09, 191.56 153.27 M116.77 239.31 C140.87 211.08, 164.99 184.95, 191.56 153.27 M122.41 238.91 C148.48 209.63, 172.76 180.25, 191.3 159.67 M122.41 238.91 C138.85 218.03, 157.31 199.91, 191.3 159.67 M127.4 239.27 C140.07 223.4, 155.34 203.84, 191.69 165.31 M127.4 239.27 C140.38 223.78, 153.16 208.59, 191.69 165.31 M132.38 239.63 C146.12 223.54, 158.95 208.3, 191.43 171.71 M132.38 239.63 C147.65 220.65, 166.1 200.62, 191.43 171.71 M138.03 239.24 C152.44 226.19, 162.54 210, 191.17 178.1 M138.03 239.24 C150.67 224.79, 161.87 209.18, 191.17 178.1 M143.01 239.6 C162.75 216.81, 181.3 195.25, 191.56 183.75 M143.01 239.6 C161.43 218.11, 181.21 194.9, 191.56 183.75 M149.31 238.45 C165.1 221.22, 181.28 204.4, 191.3 190.15 M149.31 238.45 C164.82 219.36, 181.63 200.55, 191.3 190.15 M154.96 238.05 C167.55 224.93, 180.38 206.6, 190.38 197.3 M154.96 238.05 C163.69 227.53, 173.3 216.42, 190.38 197.3 M159.94 238.41 C166.42 227.39, 176.81 220.24, 187.5 206.71 M159.94 238.41 C168.34 228.36, 176.12 219.46, 187.5 206.71 M168.21 235 C174.42 226.44, 180.48 222.23, 183.3 217.64 M168.21 235 C172.69 230.56, 177.37 224.76, 183.3 217.64" stroke="#82c91e" stroke-width="0.5" fill="none"></path><path d="M47.25 0 M47.25 0 C75.85 -2.28, 105.25 -0.48, 141.75 0 M47.25 0 C75.24 -1.48, 101.77 -1.2, 141.75 0 M141.75 0 C173.75 -1.14, 187.91 16.05, 189 47.25 M141.75 0 C171.52 2.11, 190.08 13.47, 189 47.25 M189 47.25 C188.64 79.75, 189.61 115.35, 189 190.75 M189 47.25 C188.13 85.46, 188.81 122.33, 189 190.75 M189 190.75 C190.65 223.45, 173.63 238.38, 141.75 238 M189 190.75 C191.05 222.4, 173.28 240.25, 141.75 238 M141.75 238 C108.73 236.61, 78.95 236.6, 47.25 238 M141.75 238 C107.92 238.63, 73.5 236.99, 47.25 238 M47.25 238 C17.64 239.06, 0.76 221.71, 0 190.75 M47.25 238 C13.49 240.06, 0.65 221.54, 0 190.75 M0 190.75 C1.17 140.01, 2.85 91.43, 0 47.25 M0 190.75 C1.52 141.93, 1.98 95.92, 0 47.25 M0 47.25 C1.5 14.57, 17.06 -1.37, 47.25 0 M0 47.25 C1.81 17.57, 15.74 1.87, 47.25 0" stroke="#5c940d" stroke-width="1" fill="none"></path></g><g stroke-linecap="round" transform="translate(121 467.5) rotate(0 71.5 15)"><path d="M-0.81 1.97 L142.54 0.88 L141.59 29.27 L-1.39 31.74" stroke="none" stroke-width="0" fill="#ffffff"></path><path d="M1.99 0.37 C53.51 -1.81, 106.81 0.66, 141.38 -0.15 M0.49 0.48 C39.49 0.54, 80.74 1.26, 142.11 -0.62 M141.41 1.39 C144.4 6.91, 143.96 17.46, 141.39 30.16 M143.56 -0.99 C143.52 6.64, 144.07 12.85, 143.19 29.01 M141.05 30.25 C104.73 30.12, 67.6 30.34, 1.95 31.42 M143.48 29.57 C102.25 29.46, 61.15 30.14, -0.16 29.5 M1.88 29.49 C0.96 19.12, 0.37 5.4, -0.7 -1.91 M-0.19 29.15 C-0.75 20.87, -0.21 12.35, 0.59 0.03" stroke="#5c940d" stroke-width="1" fill="none"></path></g><g transform="translate(131 472.5) rotate(0 61.5 10)"><text x="61.5" y="14" font-family="Virgil, Segoe UI Emoji" font-size="16px" fill="#5c940d" text-anchor="middle" style="white-space: pre;" direction="ltr">jal ra, 0x4000</text></g><g stroke-linecap="round" transform="translate(101 63) rotate(0 94.5 119)"><path d="M6.36 18.78 C6.36 18.78, 6.36 18.78, 6.36 18.78 M6.36 18.78 C6.36 18.78, 6.36 18.78, 6.36 18.78 M2.16 29.71 C5.76 24.57, 10.27 19.68, 17.91 11.59 M2.16 29.71 C6.96 24.27, 11.75 20.2, 17.91 11.59 M4.53 33.09 C14.78 22.49, 23.77 8.8, 31.43 2.14 M4.53 33.09 C15.7 20.31, 24.43 9.72, 31.43 2.14 M3.61 40.24 C14.64 29.21, 20.73 17.21, 37.07 1.75 M3.61 40.24 C14.49 27.17, 25.94 14.28, 37.07 1.75 M1.38 48.9 C14.78 33.78, 30.6 13.94, 43.37 0.6 M1.38 48.9 C16.94 30.14, 34.19 11.33, 43.37 0.6 M1.78 54.54 C15.7 35.88, 30.43 18.96, 48.36 0.96 M1.78 54.54 C14.08 40.74, 25.71 25.83, 48.36 0.96 M1.51 60.94 C16.63 43.93, 28.47 27.42, 53.34 1.32 M1.51 60.94 C14.9 44.51, 29.82 29.62, 53.34 1.32 M1.91 66.58 C15.34 52.85, 28.2 37.49, 58.99 0.92 M1.91 66.58 C14.56 50.54, 27.95 36.82, 58.99 0.92 M1.65 72.98 C16.78 56.38, 28.14 43.12, 63.97 1.28 M1.65 72.98 C20.41 51.56, 40.83 29.05, 63.97 1.28 M1.39 79.38 C26.98 51.35, 51.7 21.58, 69.62 0.89 M1.39 79.38 C19.97 58.55, 37.79 36.79, 69.62 0.89 M1.78 85.02 C22.19 63.03, 38.97 42.73, 74.6 1.25 M1.78 85.02 C30.68 52.33, 57.74 19.21, 74.6 1.25 M1.52 91.42 C20.65 67.55, 41.81 46.52, 80.25 0.86 M1.52 91.42 C32.91 55.48, 64.37 20.73, 80.25 0.86 M1.91 97.06 C23.69 74.28, 43.14 47.97, 85.23 1.22 M1.91 97.06 C31.15 64.61, 59.6 31.85, 85.23 1.22 M1.65 103.46 C21.04 82.03, 38.72 63.57, 90.22 1.58 M1.65 103.46 C30.31 73.89, 57.71 41.37, 90.22 1.58 M1.39 109.86 C26.93 78.43, 56.69 44.72, 95.86 1.18 M1.39 109.86 C37 70.24, 71.96 31.24, 95.86 1.18 M1.78 115.5 C23.76 88.35, 50.89 58.03, 100.85 1.54 M1.78 115.5 C25.41 87.18, 49.24 60.61, 100.85 1.54 M1.52 121.9 C27.24 88.08, 56.93 58.74, 106.49 1.15 M1.52 121.9 C24.07 94.39, 46.89 67.46, 106.49 1.15 M1.92 127.54 C24.43 102.18, 47.25 75.84, 111.48 1.51 M1.92 127.54 C35.06 89.28, 66.43 51.2, 111.48 1.51 M1.66 133.94 C36.62 94.85, 67.43 57.54, 117.12 1.11 M1.66 133.94 C34.02 100.02, 62.83 64.61, 117.12 1.11 M1.4 140.34 C28.47 108.71, 57.78 76.77, 122.11 1.47 M1.4 140.34 C47.47 87.8, 92.92 36.15, 122.11 1.47 M1.79 145.98 C31.11 115.33, 59.16 82.12, 127.1 1.83 M1.79 145.98 C46.14 92.77, 91.18 41.06, 127.1 1.83 M1.53 152.38 C33.66 112.23, 69.81 73.34, 132.74 1.44 M1.53 152.38 C32.31 118.93, 60.27 86.17, 132.74 1.44 M1.92 158.02 C34.27 123.52, 66.18 86.71, 137.73 1.8 M1.92 158.02 C33.56 123.37, 63.37 88.59, 137.73 1.8 M1.66 164.42 C48.14 109.27, 100.11 53.72, 143.37 1.4 M1.66 164.42 C51.02 110.22, 97.83 54.49, 143.37 1.4 M1.4 170.82 C29.02 137.2, 60.5 102.95, 148.36 1.76 M1.4 170.82 C36.05 127.82, 72.6 86.88, 148.36 1.76 M1.79 176.46 C56.49 113.68, 111.76 53.62, 154 1.37 M1.79 176.46 C50.1 121.23, 98.84 64.97, 154 1.37 M1.53 182.86 C48.21 133.12, 90.23 83.3, 157.68 3.24 M1.53 182.86 C42.83 135.77, 82.96 88.36, 157.68 3.24 M1.93 188.5 C42.02 141.33, 85.47 93.92, 162.01 4.35 M1.93 188.5 C52.66 131.86, 103.18 73.83, 162.01 4.35 M2.98 193.39 C66.83 120.41, 129.38 47.54, 166.34 5.47 M2.98 193.39 C39.98 150, 76.52 107.45, 166.34 5.47 M3.37 199.03 C41.49 152, 82.06 107.16, 170.67 6.58 M3.37 199.03 C59.13 135.58, 114.07 70.76, 170.67 6.58 M1.8 206.94 C49.57 151.12, 99.26 97.61, 173.69 9.21 M1.8 206.94 C52.51 148.83, 103.55 90.79, 173.69 9.21 M3.51 211.07 C67.73 137.2, 130.88 66.83, 176.71 11.83 M3.51 211.07 C64.89 138.78, 127.96 65.84, 176.71 11.83 M4.56 215.96 C55.71 155.26, 109.97 93.11, 179.72 14.46 M4.56 215.96 C65.92 147.72, 126.12 76.83, 179.72 14.46 M6.92 219.34 C68.74 148.66, 127.77 79.47, 182.09 17.83 M6.92 219.34 C53.8 168.79, 98.26 117.14, 182.09 17.83 M9.28 222.72 C49.16 178.02, 89.37 131.29, 184.45 21.21 M9.28 222.72 C59.05 166.55, 106.88 110.2, 184.45 21.21 M11.65 226.1 C81.28 148.62, 149.32 72.66, 186.81 24.59 M11.65 226.1 C51.88 181.15, 92.31 134.18, 186.81 24.59 M14.66 228.72 C50.36 187.86, 87.14 145.31, 187.86 29.48 M14.66 228.72 C69.14 165.29, 122.58 103.57, 187.86 29.48 M17.68 231.35 C66.73 175.53, 116.37 118.81, 189.57 33.61 M17.68 231.35 C81.42 155.96, 144.36 82.43, 189.57 33.61 M21.36 233.22 C60.1 187.1, 99.04 143.53, 190.62 38.5 M21.36 233.22 C68.89 181.2, 114.73 127.73, 190.62 38.5 M25.03 235.09 C85.43 167.5, 144.41 96.66, 191.02 44.15 M25.03 235.09 C80.82 171.35, 135.96 106.99, 191.02 44.15 M29.36 236.2 C71.42 185.36, 115.61 133.86, 191.41 49.79 M29.36 236.2 C78.27 177.92, 129.14 121.05, 191.41 49.79 M33.04 238.07 C86.74 177.62, 140.37 113, 191.8 55.43 M33.04 238.07 C70.25 195.98, 108.28 151.66, 191.8 55.43 M38.03 238.43 C87.95 179.18, 139.59 120.81, 191.54 61.83 M38.03 238.43 C96.91 170.13, 157.8 101.45, 191.54 61.83 M43.01 238.79 C79.19 193.74, 117.95 150.78, 191.28 68.23 M43.01 238.79 C96.95 177.33, 150.34 114.94, 191.28 68.23 M48.66 238.4 C105.9 174.88, 159.43 110.2, 191.68 73.87 M48.66 238.4 C77.65 206.46, 106.47 172.71, 191.68 73.87 M53.64 238.76 C98.95 184.93, 149.05 128.87, 191.41 80.27 M53.64 238.76 C92.89 194.11, 130.72 150.28, 191.41 80.27 M58.63 239.12 C97.49 197.67, 134.15 151.48, 191.81 85.91 M58.63 239.12 C90.44 204.91, 122.05 167.34, 191.81 85.91 M64.27 238.72 C113.38 184.21, 159.94 131.38, 191.55 92.31 M64.27 238.72 C99.89 196.92, 135.78 156.08, 191.55 92.31 M69.26 239.08 C117.14 182.56, 166.12 129.14, 191.29 98.71 M69.26 239.08 C108.32 193.29, 146.87 149.85, 191.29 98.71 M74.9 238.69 C106.17 205.32, 136.05 167.77, 191.68 104.35 M74.9 238.69 C120.82 187.1, 167.46 134.67, 191.68 104.35 M79.89 239.05 C120.84 188.58, 165.24 141.35, 191.42 110.75 M79.89 239.05 C110.98 203.32, 141.73 169.44, 191.42 110.75 M85.53 238.65 C119.37 201.03, 153.72 161.14, 191.81 116.39 M85.53 238.65 C120.46 197.61, 157 156.2, 191.81 116.39 M90.52 239.01 C112.98 212.47, 137.03 183.87, 191.55 122.79 M90.52 239.01 C116.96 209.16, 144.19 177.65, 191.55 122.79 M95.51 239.37 C131.69 201.08, 166.01 158.68, 191.29 129.19 M95.51 239.37 C129.21 200.88, 163.76 159.6, 191.29 129.19 M101.15 238.98 C121.04 213.18, 142.46 191.22, 191.69 134.83 M101.15 238.98 C124.8 212.58, 148.54 184.45, 191.69 134.83 M106.14 239.34 C126.05 218.4, 144.69 192.61, 191.42 141.23 M106.14 239.34 C126.93 214.84, 147.77 191.04, 191.42 141.23 M111.78 238.95 C142.31 206.56, 170.87 168.82, 191.82 146.87 M111.78 238.95 C138.96 207.11, 167.14 175.8, 191.82 146.87 M116.77 239.31 C139.3 216.12, 159.19 189.43, 191.56 153.27 M116.77 239.31 C135.06 218.31, 153.87 195.72, 191.56 153.27 M122.41 238.91 C148.76 210.79, 174.39 180.13, 191.3 159.67 M122.41 238.91 C137.11 222.23, 152.67 205.09, 191.3 159.67 M127.4 239.27 C154.68 210.46, 178.41 178.8, 191.69 165.31 M127.4 239.27 C151.78 210.39, 177.37 181.32, 191.69 165.31 M132.38 239.63 C145.94 225.25, 159.27 207.85, 191.43 171.71 M132.38 239.63 C151.35 220.19, 169.09 199.26, 191.43 171.71 M138.03 239.24 C151.82 218.97, 170.51 201.84, 191.17 178.1 M138.03 239.24 C156.94 215.85, 177.58 193.74, 191.17 178.1 M143.01 239.6 C155.34 224.46, 170.27 209.84, 191.56 183.75 M143.01 239.6 C154.54 227.07, 166.13 212.66, 191.56 183.75 M149.31 238.45 C157.27 230.23, 166.55 217.39, 191.3 190.15 M149.31 238.45 C159.87 227.06, 170.25 215.08, 191.3 190.15 M154.96 238.05 C167.04 225.07, 176.65 214.55, 190.38 197.3 M154.96 238.05 C167.13 223.19, 180.65 207.91, 190.38 197.3 M159.94 238.41 C168.12 227.22, 178.77 217.67, 187.5 206.71 M159.94 238.41 C168.29 227.75, 177.39 216.26, 187.5 206.71 M168.21 235 C172.52 229.22, 177.28 226.62, 183.3 217.64 M168.21 235 C172.28 229.48, 177.42 224.58, 183.3 217.64" stroke="#be4bdb" stroke-width="0.5" fill="none"></path><path d="M47.25 0 M47.25 0 C80.09 0.59, 114.84 -0.61, 141.75 0 M47.25 0 C79.86 -1.26, 111.45 -0.42, 141.75 0 M141.75 0 C172.7 0.18, 188.92 17.03, 189 47.25 M141.75 0 C174.68 1.79, 187.51 15.17, 189 47.25 M189 47.25 C188.18 87.21, 189.33 129.11, 189 190.75 M189 47.25 C188.05 102.33, 189.17 157.62, 189 190.75 M189 190.75 C190.2 221.76, 171.91 237.31, 141.75 238 M189 190.75 C190.06 220.13, 175.03 238.8, 141.75 238 M141.75 238 C108.86 235.75, 75.85 236.89, 47.25 238 M141.75 238 C111.24 238.22, 81.06 238.16, 47.25 238 M47.25 238 C14.61 237.88, 1.69 220.83, 0 190.75 M47.25 238 C17.4 238.17, 0.19 222.52, 0 190.75 M0 190.75 C-0.43 153.37, 1.13 115.91, 0 47.25 M0 190.75 C-0.01 152.92, -0.19 112.98, 0 47.25 M0 47.25 C-0.52 15.74, 16.11 0.17, 47.25 0 M0 47.25 C0.6 18.02, 14.25 -1.34, 47.25 0" stroke="#862e9c" stroke-width="1" fill="none"></path></g><g transform="translate(10 265.5) rotate(0 33 10)"><text x="0" y="14" font-family="Virgil, Segoe UI Emoji" font-size="16px" fill="#000000" text-anchor="start" style="white-space: pre;" direction="ltr">0x2000</text></g><g transform="translate(10 84) rotate(0 32.5 10)"><text x="0" y="14" font-family="Virgil, Segoe UI Emoji" font-size="16px" fill="#000000" text-anchor="start" style="white-space: pre;" direction="ltr">0x4000</text></g><g transform="translate(10 519.5) rotate(0 29.5 10)"><text x="0" y="14" font-family="Virgil, Segoe UI Emoji" font-size="16px" fill="#000000" text-anchor="start" style="white-space: pre;" direction="ltr">0x1000</text></g><g stroke-linecap="round"><g transform="translate(275.5 483) rotate(0 27.34547823333969 -192.6045464592638)"><path d="M-1.04 0.95 C7.11 -7.14, 40.9 8.1, 49.27 -47.48 C57.64 -103.06, 56.18 -276.43, 49.17 -332.52 C42.17 -388.61, 14.18 -375.32, 7.24 -384 M0.62 0.4 C8.53 -7.54, 39.57 5.99, 48.07 -49.33 C56.56 -104.65, 58.37 -275.38, 51.59 -331.52 C44.8 -387.66, 14.93 -377.39, 7.35 -386.16" stroke="#5c940d" stroke-width="1" fill="none"></path></g><g transform="translate(275.5 483) rotate(0 27.34547823333969 -192.6045464592638)"><path d="M38.87 -385.11 C28.15 -386.71, 16.29 -386.23, 8.62 -386.07 M37.6 -383.86 C28.77 -385.1, 19.4 -386.22, 7.45 -386.03" stroke="#5c940d" stroke-width="1" fill="none"></path></g><g transform="translate(275.5 483) rotate(0 27.34547823333969 -192.6045464592638)"><path d="M30.68 -366.3 C22.52 -374.11, 13.39 -379.91, 8.62 -386.07 M29.4 -365.05 C23.19 -372.13, 16.39 -379.14, 7.45 -386.03" stroke="#5c940d" stroke-width="1" fill="none"></path></g></g><g transform="translate(140.5 561) rotate(0 51.5 18)"><text x="0" y="25" font-family="Virgil, Segoe UI Emoji" font-size="28px" fill="#5c940d" text-anchor="start" style="white-space: pre;" direction="ltr">app.out</text></g><g transform="translate(149.5 10) rotate(0 45 18)"><text x="0" y="25" font-family="Virgil, Segoe UI Emoji" font-size="28px" fill="#862e9c" text-anchor="start" style="white-space: pre;" direction="ltr">libv1.so</text></g><g stroke-linecap="round" transform="translate(561.75 313) rotate(0 94.5 119)"><path d="M6.36 18.78 C6.36 18.78, 6.36 18.78, 6.36 18.78 M6.36 18.78 C6.36 18.78, 6.36 18.78, 6.36 18.78 M2.16 29.71 C6.65 26.42, 8.42 21.64, 17.91 11.59 M2.16 29.71 C7.72 22.45, 15.24 15.6, 17.91 11.59 M4.53 33.09 C11.24 26.68, 14.85 18.9, 31.43 2.14 M4.53 33.09 C12.43 23.19, 21.86 14.15, 31.43 2.14 M3.61 40.24 C17.38 26.08, 30.22 9.56, 37.07 1.75 M3.61 40.24 C15.19 28.34, 25.49 15.58, 37.07 1.75 M1.38 48.9 C11.81 37.23, 21.62 28.56, 43.37 0.6 M1.38 48.9 C18.14 29.78, 33.72 10.68, 43.37 0.6 M1.78 54.54 C15.77 39.5, 26.43 25.64, 48.36 0.96 M1.78 54.54 C13.92 40.86, 25.3 26.75, 48.36 0.96 M1.51 60.94 C20.77 38.08, 44 12.57, 53.34 1.32 M1.51 60.94 C17.09 44.36, 30.84 25.55, 53.34 1.32 M1.91 66.58 C15.23 50.13, 32.55 30.51, 58.99 0.92 M1.91 66.58 C20.69 45.33, 39.29 22.47, 58.99 0.92 M1.65 72.98 C24.03 44.02, 49.12 19.95, 63.97 1.28 M1.65 72.98 C15.29 58.29, 28.91 42.43, 63.97 1.28 M1.39 79.38 C20.73 56.33, 37.25 36.49, 69.62 0.89 M1.39 79.38 C21.95 56.4, 40.68 35.86, 69.62 0.89 M1.78 85.02 C17.2 69.74, 33.65 50.1, 74.6 1.25 M1.78 85.02 C22.27 60.38, 43.22 36.32, 74.6 1.25 M1.52 91.42 C30.87 58.86, 61.87 21.72, 80.25 0.86 M1.52 91.42 C26.48 64.22, 50.31 36.69, 80.25 0.86 M1.91 97.06 C32.28 61.78, 63.22 23.77, 85.23 1.22 M1.91 97.06 C23.14 72.71, 45.83 48.19, 85.23 1.22 M1.65 103.46 C20.63 80.21, 37.63 62.47, 90.22 1.58 M1.65 103.46 C35.46 65.06, 68.93 27.14, 90.22 1.58 M1.39 109.86 C35.16 75.08, 65.34 37.76, 95.86 1.18 M1.39 109.86 C38.84 68.92, 74.14 27.37, 95.86 1.18 M1.78 115.5 C38.63 75.15, 70.5 33.61, 100.85 1.54 M1.78 115.5 C34.67 78.66, 65.23 41.66, 100.85 1.54 M1.52 121.9 C40.73 78.25, 79.04 30.06, 106.49 1.15 M1.52 121.9 C38.5 79.18, 74.67 38.41, 106.49 1.15 M1.92 127.54 C39.62 85.77, 78.74 41.35, 111.48 1.51 M1.92 127.54 C39.86 83.82, 75.95 40.76, 111.48 1.51 M1.66 133.94 C46.29 85.46, 89.36 38.32, 117.12 1.11 M1.66 133.94 C42.19 90.77, 79.06 45.74, 117.12 1.11 M1.4 140.34 C36.34 97.8, 72.9 57.28, 122.11 1.47 M1.4 140.34 C36.27 98.76, 73.64 56.76, 122.11 1.47 M1.79 145.98 C28.22 111.77, 58.51 78.82, 127.1 1.83 M1.79 145.98 C45.3 93.74, 92.59 40.56, 127.1 1.83 M1.53 152.38 C37.24 113.55, 69.19 76.7, 132.74 1.44 M1.53 152.38 C33.15 117.98, 63.97 82.76, 132.74 1.44 M1.92 158.02 C34.53 121.65, 63.54 83.63, 137.73 1.8 M1.92 158.02 C51.7 101.21, 102.38 43.23, 137.73 1.8 M1.66 164.42 C38.7 122.49, 78.91 78.21, 143.37 1.4 M1.66 164.42 C34.72 124.46, 70.54 83.69, 143.37 1.4 M1.4 170.82 C47.61 118.95, 96.3 63.51, 148.36 1.76 M1.4 170.82 C44.73 121.44, 87.96 72.45, 148.36 1.76 M1.79 176.46 C45.28 127.43, 88.48 77.6, 154 1.37 M1.79 176.46 C63.44 106.19, 124.38 36.43, 154 1.37 M1.53 182.86 C63.52 113.6, 120.72 46.07, 157.68 3.24 M1.53 182.86 C32.59 145.07, 65.95 108.7, 157.68 3.24 M1.93 188.5 C41.55 139.95, 84.93 92.95, 162.01 4.35 M1.93 188.5 C40.39 146.34, 77.41 103.54, 162.01 4.35 M2.98 193.39 C64.07 124.92, 121.26 57.37, 166.34 5.47 M2.98 193.39 C68.18 120.44, 129.95 48.87, 166.34 5.47 M3.37 199.03 C45 148.22, 90.06 97.52, 170.67 6.58 M3.37 199.03 C44.87 150.92, 88.09 102.99, 170.67 6.58 M1.8 206.94 C67.35 130.65, 132.79 53.39, 173.69 9.21 M1.8 206.94 C40.93 163.33, 80.96 117.71, 173.69 9.21 M3.51 211.07 C66.09 140.06, 128.84 67.03, 176.71 11.83 M3.51 211.07 C42.85 168.13, 81.14 124.32, 176.71 11.83 M4.56 215.96 C38.93 174.56, 74.46 131.72, 179.72 14.46 M4.56 215.96 C68.05 145.04, 130.55 73.23, 179.72 14.46 M6.92 219.34 C71.82 146.2, 135 75.31, 182.09 17.83 M6.92 219.34 C56 164.67, 105.43 107.93, 182.09 17.83 M9.28 222.72 C68.53 151.38, 132.11 84.37, 184.45 21.21 M9.28 222.72 C59.34 163.37, 112.29 104.1, 184.45 21.21 M11.65 226.1 C50.32 179.71, 91.09 135.92, 186.81 24.59 M11.65 226.1 C53.55 177.5, 95.58 129.89, 186.81 24.59 M14.66 228.72 C85.41 150.49, 151 71.42, 187.86 29.48 M14.66 228.72 C49.63 188.46, 85.77 148.07, 187.86 29.48 M17.68 231.35 C65.33 176.12, 109.96 125.32, 189.57 33.61 M17.68 231.35 C60.72 181.85, 105.1 130.65, 189.57 33.61 M21.36 233.22 C71.76 175.9, 121.38 119.75, 190.62 38.5 M21.36 233.22 C80.66 163.83, 139.58 97.5, 190.62 38.5 M25.03 235.09 C89.78 160.02, 154.43 84.86, 191.02 44.15 M25.03 235.09 C87.96 162.78, 151.62 89.85, 191.02 44.15 M29.36 236.2 C63.78 193.58, 100.97 153.87, 191.41 49.79 M29.36 236.2 C61.92 197.74, 93.99 159.38, 191.41 49.79 M33.04 238.07 C66.81 198.25, 100.18 162.73, 191.8 55.43 M33.04 238.07 C67.14 198.85, 101.84 157.21, 191.8 55.43 M38.03 238.43 C93.74 175.63, 146.34 112.19, 191.54 61.83 M38.03 238.43 C97.35 172.68, 155.72 104.44, 191.54 61.83 M43.01 238.79 C93.05 180.53, 143.17 122.04, 191.28 68.23 M43.01 238.79 C78.27 197.73, 113.91 156.68, 191.28 68.23 M48.66 238.4 C91.93 187.61, 134.55 140.5, 191.68 73.87 M48.66 238.4 C90.7 188.32, 133.98 138.74, 191.68 73.87 M53.64 238.76 C95.7 185.56, 140.7 137.03, 191.41 80.27 M53.64 238.76 C93.7 191.68, 132.16 147.03, 191.41 80.27 M58.63 239.12 C89.86 200.95, 118.41 168.7, 191.81 85.91 M58.63 239.12 C96.99 194.32, 136.33 149.16, 191.81 85.91 M64.27 238.72 C99.31 198.82, 137.46 157.1, 191.55 92.31 M64.27 238.72 C98.6 200.48, 130.64 161.98, 191.55 92.31 M69.26 239.08 C113.54 189.09, 158.78 135.36, 191.29 98.71 M69.26 239.08 C107.82 194.76, 146.09 150.45, 191.29 98.71 M74.9 238.69 C107.81 201.37, 141.05 162.66, 191.68 104.35 M74.9 238.69 C104.53 205.2, 133.39 171.97, 191.68 104.35 M79.89 239.05 C114.7 202.2, 148.45 162.67, 191.42 110.75 M79.89 239.05 C107.23 208.33, 134.57 177.62, 191.42 110.75 M85.53 238.65 C122.48 196.79, 160.77 154.23, 191.81 116.39 M85.53 238.65 C125.11 192.64, 165.56 145.36, 191.81 116.39 M90.52 239.01 C117.19 205.45, 147.61 172.14, 191.55 122.79 M90.52 239.01 C126.45 199.24, 162.59 157.88, 191.55 122.79 M95.51 239.37 C122.1 209.07, 146.11 178.15, 191.29 129.19 M95.51 239.37 C130.65 199.07, 165.2 158.96, 191.29 129.19 M101.15 238.98 C127.65 205.26, 156.5 174.06, 191.69 134.83 M101.15 238.98 C124.28 210.98, 146.29 185, 191.69 134.83 M106.14 239.34 C140.69 199.59, 172.7 162.01, 191.42 141.23 M106.14 239.34 C138.58 201.6, 171.05 163, 191.42 141.23 M111.78 238.95 C130.03 215.87, 150.14 194.72, 191.82 146.87 M111.78 238.95 C142.19 205.01, 173.99 168.91, 191.82 146.87 M116.77 239.31 C134.18 222.35, 148.85 203.51, 191.56 153.27 M116.77 239.31 C144.88 205.93, 175.07 173.39, 191.56 153.27 M122.41 238.91 C142 216.69, 160.87 193.42, 191.3 159.67 M122.41 238.91 C140.04 217.56, 156.59 198.06, 191.3 159.67 M127.4 239.27 C138.91 226.59, 151.08 210.84, 191.69 165.31 M127.4 239.27 C150.56 211.44, 174.44 184.47, 191.69 165.31 M132.38 239.63 C153.39 215.04, 173.6 193.24, 191.43 171.71 M132.38 239.63 C146.72 222, 161.77 205.97, 191.43 171.71 M138.03 239.24 C156.51 216.28, 175.16 195.99, 191.17 178.1 M138.03 239.24 C156.79 218.43, 173.6 198.83, 191.17 178.1 M143.01 239.6 C156.01 226.57, 166.22 214.29, 191.56 183.75 M143.01 239.6 C153.43 227.46, 163.62 215.8, 191.56 183.75 M149.31 238.45 C161.74 225.15, 170.89 214.23, 191.3 190.15 M149.31 238.45 C160.12 224.96, 172.17 210.32, 191.3 190.15 M154.96 238.05 C165.2 229.23, 173.73 217.73, 190.38 197.3 M154.96 238.05 C164.32 227.48, 174.19 216.04, 190.38 197.3 M159.94 238.41 C167 232.44, 173.4 220.82, 187.5 206.71 M159.94 238.41 C166.31 230.38, 174.32 221.38, 187.5 206.71 M168.21 235 C170.24 233.11, 173.26 228.36, 183.3 217.64 M168.21 235 C174.49 228.27, 179.53 222.09, 183.3 217.64" stroke="#82c91e" stroke-width="0.5" fill="none"></path><path d="M47.25 0 M47.25 0 C69.03 1.73, 90.52 0.44, 141.75 0 M47.25 0 C80.18 0.64, 115.95 0.7, 141.75 0 M141.75 0 C172.71 1.12, 190.68 16.24, 189 47.25 M141.75 0 C171.04 0.08, 189.91 14.48, 189 47.25 M189 47.25 C190 78, 186.94 106.39, 189 190.75 M189 47.25 C188.18 101.83, 189 156.27, 189 190.75 M189 190.75 C190.53 224.15, 172.94 237.74, 141.75 238 M189 190.75 C189.46 221.1, 172.68 239.76, 141.75 238 M141.75 238 C116.15 237.77, 89.37 238.39, 47.25 238 M141.75 238 C120.35 237.19, 99.97 239.05, 47.25 238 M47.25 238 C15.53 236.78, -1.11 222.82, 0 190.75 M47.25 238 C16.05 237.81, 1.81 220, 0 190.75 M0 190.75 C-0.5 149.31, 2.1 107.87, 0 47.25 M0 190.75 C-0.37 148.16, -1.92 105.49, 0 47.25 M0 47.25 C0.29 14.48, 15.8 -0.03, 47.25 0 M0 47.25 C-0.97 16.35, 17.27 0.35, 47.25 0" stroke="#5c940d" stroke-width="1" fill="none"></path></g><g stroke-linecap="round" transform="translate(584.25 468.5) rotate(0 71.5 15)"><path d="M0.85 -1.61 L143.82 1.22 L141.79 29.87 L1.6 28.78" stroke="none" stroke-width="0" fill="#ffffff"></path><path d="M-1.51 -0.04 C39.34 -2.27, 79.72 -1.79, 141.79 -1.99 M0.75 0.14 C29.61 -0.23, 60.15 0.06, 143.65 -0.87 M142.19 -1.45 C142.74 11.99, 143.15 19.56, 142.16 30.39 M142.48 0.06 C143.35 9.72, 142.81 20.07, 143.98 29.83 M143.5 30.77 C86.84 28.46, 31 29.29, 0.04 31.06 M142.29 30.95 C86.91 31.89, 31.64 31.98, 0.78 30.93 M0.19 28.69 C-0.23 20.42, 0.07 10.7, 1.37 -0.74 M0.04 29.08 C0.17 21.68, -0.44 13.35, 0.94 -0.77" stroke="#5c940d" stroke-width="1" fill="none"></path></g><g transform="translate(594.25 473.5) rotate(0 61.5 10)"><text x="61.5" y="14" font-family="Virgil, Segoe UI Emoji" font-size="16px" fill="#5c940d" text-anchor="middle" style="white-space: pre;" direction="ltr">jal ra, 0x4000</text></g><g stroke-linecap="round" transform="translate(564.25 64) rotate(0 94.5 119)"><path d="M6.36 18.78 C6.36 18.78, 6.36 18.78, 6.36 18.78 M6.36 18.78 C6.36 18.78, 6.36 18.78, 6.36 18.78 M2.16 29.71 C8.13 22.58, 12.58 20.76, 17.91 11.59 M2.16 29.71 C5.42 26.52, 9.06 21.02, 17.91 11.59 M4.53 33.09 C11.6 23.8, 17.3 17.12, 31.43 2.14 M4.53 33.09 C13.06 23.84, 22.43 13.51, 31.43 2.14 M3.61 40.24 C13.84 29.73, 21.68 19.63, 37.07 1.75 M3.61 40.24 C14.94 27.77, 25.39 15.3, 37.07 1.75 M1.38 48.9 C17.41 31, 36.41 12.34, 43.37 0.6 M1.38 48.9 C13.85 33.6, 26.36 19.44, 43.37 0.6 M1.78 54.54 C15.9 36.85, 31.16 19.95, 48.36 0.96 M1.78 54.54 C16.1 37.76, 29.92 22.86, 48.36 0.96 M1.51 60.94 C13.65 49.28, 23.17 34.63, 53.34 1.32 M1.51 60.94 C22.17 37.23, 40.54 14.92, 53.34 1.32 M1.91 66.58 C25.5 41.79, 45.89 16.43, 58.99 0.92 M1.91 66.58 C21.3 44.52, 39.14 23.58, 58.99 0.92 M1.65 72.98 C24.4 45.85, 52.08 14.61, 63.97 1.28 M1.65 72.98 C21.35 51.52, 39.83 29.54, 63.97 1.28 M1.39 79.38 C21.2 53.11, 44.18 30.27, 69.62 0.89 M1.39 79.38 C17.44 59.68, 35.96 38.92, 69.62 0.89 M1.78 85.02 C28.7 58.24, 51.18 28.27, 74.6 1.25 M1.78 85.02 C27.38 55.02, 53.51 26.77, 74.6 1.25 M1.52 91.42 C34.75 56.49, 63.29 21.51, 80.25 0.86 M1.52 91.42 C26.54 63.29, 51.15 36.37, 80.25 0.86 M1.91 97.06 C30.94 63.79, 57.14 32.94, 85.23 1.22 M1.91 97.06 C26.41 70.5, 50.71 41.59, 85.23 1.22 M1.65 103.46 C31.62 65.81, 67.12 31.14, 90.22 1.58 M1.65 103.46 C25.96 75.8, 50.63 48.93, 90.22 1.58 M1.39 109.86 C25.78 83.04, 47.57 58.68, 95.86 1.18 M1.39 109.86 C21.64 86.59, 41.21 65.72, 95.86 1.18 M1.78 115.5 C29.19 81.51, 55.44 51.59, 100.85 1.54 M1.78 115.5 C32.79 78.43, 63.6 44.18, 100.85 1.54 M1.52 121.9 C43.61 74.75, 81.09 30.16, 106.49 1.15 M1.52 121.9 C28.55 89.28, 57.67 56.14, 106.49 1.15 M1.92 127.54 C26.07 102.6, 47.58 75.08, 111.48 1.51 M1.92 127.54 C35.43 86.79, 69.64 48.78, 111.48 1.51 M1.66 133.94 C30.97 101.96, 61.56 67.57, 117.12 1.11 M1.66 133.94 C26.52 104.87, 49.46 77.88, 117.12 1.11 M1.4 140.34 C41.58 93.07, 83.95 43.77, 122.11 1.47 M1.4 140.34 C44.69 91.92, 87.57 41, 122.11 1.47 M1.79 145.98 C50.45 89.88, 100.4 32.81, 127.1 1.83 M1.79 145.98 C50.9 91.56, 99.16 34.07, 127.1 1.83 M1.53 152.38 C39.44 107.72, 79.22 63.07, 132.74 1.44 M1.53 152.38 C34.53 115.71, 66.56 78.1, 132.74 1.44 M1.92 158.02 C50.29 100.18, 97.16 47.17, 137.73 1.8 M1.92 158.02 C51.76 102.29, 100.3 45.18, 137.73 1.8 M1.66 164.42 C54.07 108.5, 104 48.24, 143.37 1.4 M1.66 164.42 C54.1 105.13, 105.88 43.7, 143.37 1.4 M1.4 170.82 C49.76 119.48, 94.36 66.19, 148.36 1.76 M1.4 170.82 C47.33 118.76, 93.45 67.23, 148.36 1.76 M1.79 176.46 C45.93 126.62, 89.13 78.48, 154 1.37 M1.79 176.46 C40.21 131.69, 79.17 86.69, 154 1.37 M1.53 182.86 C36.1 140.25, 72.33 99.61, 157.68 3.24 M1.53 182.86 C61.24 114.57, 122.4 44.14, 157.68 3.24 M1.93 188.5 C54.57 128.7, 108.69 65.54, 162.01 4.35 M1.93 188.5 C36.74 149.07, 70.9 110.62, 162.01 4.35 M2.98 193.39 C56.47 130.08, 110.77 72.29, 166.34 5.47 M2.98 193.39 C36.33 152.86, 71.06 114.43, 166.34 5.47 M3.37 199.03 C65.43 128.07, 127.76 54.99, 170.67 6.58 M3.37 199.03 C48.4 149.09, 93.68 97.27, 170.67 6.58 M1.8 206.94 C70.39 127.21, 138.07 47.51, 173.69 9.21 M1.8 206.94 C61.82 140.73, 119.63 74.22, 173.69 9.21 M3.51 211.07 C74.5 131.32, 143.28 51.68, 176.71 11.83 M3.51 211.07 C49.59 159.03, 94.69 105.82, 176.71 11.83 M4.56 215.96 C59.17 152.42, 112.39 91.78, 179.72 14.46 M4.56 215.96 C41.09 175.69, 76.53 135.98, 179.72 14.46 M6.92 219.34 C42.15 178.38, 79.52 135.93, 182.09 17.83 M6.92 219.34 C66.15 153.65, 123.12 87.82, 182.09 17.83 M9.28 222.72 C59.15 166.3, 113.34 105.75, 184.45 21.21 M9.28 222.72 C77.79 146.25, 146.22 67.91, 184.45 21.21 M11.65 226.1 C67.9 161.49, 126.81 94.29, 186.81 24.59 M11.65 226.1 C48.68 183.39, 86.84 140.24, 186.81 24.59 M14.66 228.72 C55.43 179.48, 95.53 132.22, 187.86 29.48 M14.66 228.72 C72.61 163.59, 130.29 97.01, 187.86 29.48 M17.68 231.35 C66.85 170.9, 120.54 111.07, 189.57 33.61 M17.68 231.35 C86.91 153.42, 154.27 74.98, 189.57 33.61 M21.36 233.22 C53.5 195.43, 87.01 155.75, 190.62 38.5 M21.36 233.22 C58.59 188.32, 99.07 143.32, 190.62 38.5 M25.03 235.09 C88.11 161.82, 151.26 89.09, 191.02 44.15 M25.03 235.09 C78.94 174.54, 132.1 113.41, 191.02 44.15 M29.36 236.2 C79.55 177.88, 132.77 117.23, 191.41 49.79 M29.36 236.2 C86.09 169.2, 142.98 103.29, 191.41 49.79 M33.04 238.07 C71.54 191.96, 114.41 143.97, 191.8 55.43 M33.04 238.07 C92.2 170.85, 148.9 104.52, 191.8 55.43 M38.03 238.43 C81.68 186.22, 124.88 138.66, 191.54 61.83 M38.03 238.43 C86.62 184.11, 132.56 130.61, 191.54 61.83 M43.01 238.79 C88.17 186.21, 133.07 134.68, 191.28 68.23 M43.01 238.79 C90.03 184.69, 137.11 130.81, 191.28 68.23 M48.66 238.4 C85.49 194.14, 125.94 151.59, 191.68 73.87 M48.66 238.4 C99.15 179.92, 150.18 121.18, 191.68 73.87 M53.64 238.76 C98.53 184.62, 148.18 131.26, 191.41 80.27 M53.64 238.76 C87.7 196.39, 124.33 155.09, 191.41 80.27 M58.63 239.12 C107.33 178.05, 162.13 118.71, 191.81 85.91 M58.63 239.12 C105.05 186.41, 151 133.53, 191.81 85.91 M64.27 238.72 C104.02 196.63, 141.83 152.02, 191.55 92.31 M64.27 238.72 C101.83 193.99, 139.24 151.99, 191.55 92.31 M69.26 239.08 C102.35 202.85, 131.63 168.8, 191.29 98.71 M69.26 239.08 C112.9 188.58, 156.55 138.47, 191.29 98.71 M74.9 238.69 C111.21 197.99, 146.11 153.7, 191.68 104.35 M74.9 238.69 C100.15 209.06, 125.82 179.08, 191.68 104.35 M79.89 239.05 C108.11 209.03, 133.49 179.51, 191.42 110.75 M79.89 239.05 C106.09 209.61, 132.35 180.2, 191.42 110.75 M85.53 238.65 C113.03 208.88, 139.71 180.4, 191.81 116.39 M85.53 238.65 C112.72 207.81, 138.72 176.83, 191.81 116.39 M90.52 239.01 C125.03 199.71, 159.68 161.61, 191.55 122.79 M90.52 239.01 C120.42 206.59, 148.68 172.77, 191.55 122.79 M95.51 239.37 C131.33 196.43, 166.66 155.43, 191.29 129.19 M95.51 239.37 C125.85 204.03, 156.34 169.18, 191.29 129.19 M101.15 238.98 C135.61 197.97, 172.71 156.3, 191.69 134.83 M101.15 238.98 C133.08 199.52, 167.14 163.09, 191.69 134.83 M106.14 239.34 C132.14 207.17, 160.29 178.93, 191.42 141.23 M106.14 239.34 C134.68 206.09, 162.46 173.57, 191.42 141.23 M111.78 238.95 C131.28 215.31, 152.79 194.37, 191.82 146.87 M111.78 238.95 C128.99 221.62, 143.99 201.19, 191.82 146.87 M116.77 239.31 C137.14 216.85, 155.67 196.63, 191.56 153.27 M116.77 239.31 C142.07 211.3, 168.13 181.1, 191.56 153.27 M122.41 238.91 C147.88 209.21, 172.37 182, 191.3 159.67 M122.41 238.91 C139.69 216.55, 158.91 195.1, 191.3 159.67 M127.4 239.27 C151.13 213.04, 171.73 191.5, 191.69 165.31 M127.4 239.27 C151.49 210.99, 176.54 183.55, 191.69 165.31 M132.38 239.63 C154.74 213.39, 179.8 184.36, 191.43 171.71 M132.38 239.63 C148.91 219.94, 167.13 198.94, 191.43 171.71 M138.03 239.24 C152.68 220.58, 169.94 202.97, 191.17 178.1 M138.03 239.24 C148.01 226.57, 159.26 212.66, 191.17 178.1 M143.01 239.6 C154.73 226.06, 167.26 209.87, 191.56 183.75 M143.01 239.6 C162 217.7, 181.39 195.06, 191.56 183.75 M149.31 238.45 C158.21 226.37, 169.43 216.97, 191.3 190.15 M149.31 238.45 C165.64 219.63, 180.78 201.51, 191.3 190.15 M154.96 238.05 C164.46 229.63, 171.23 217.08, 190.38 197.3 M154.96 238.05 C165.54 226.6, 175.24 213.73, 190.38 197.3 M159.94 238.41 C172.27 226.24, 178.93 214.53, 187.5 206.71 M159.94 238.41 C170.56 226.74, 180.19 214.75, 187.5 206.71 M168.21 235 C174.42 228.6, 177.79 226.97, 183.3 217.64 M168.21 235 C173.11 228.86, 178.55 223.51, 183.3 217.64" stroke="#be4bdb" stroke-width="0.5" fill="none"></path><path d="M47.25 0 M47.25 0 C81.19 -0.65, 112.81 1.28, 141.75 0 M47.25 0 C69.78 1.82, 92.07 0.64, 141.75 0 M141.75 0 C174.37 1.68, 189.49 13.83, 189 47.25 M141.75 0 C173.33 0.91, 187.73 13.72, 189 47.25 M189 47.25 C188.49 82.96, 186.51 123.15, 189 190.75 M189 47.25 C188.47 84.68, 188.87 121.62, 189 190.75 M189 190.75 C190.9 221.94, 172.99 238.4, 141.75 238 M189 190.75 C187.85 221.68, 175.01 237.58, 141.75 238 M141.75 238 C119.05 239.36, 97.17 236.85, 47.25 238 M141.75 238 C109.51 236.75, 80.11 237.16, 47.25 238 M47.25 238 C14.53 236.89, 0.57 222.51, 0 190.75 M47.25 238 C15.56 239.81, -2.25 222.14, 0 190.75 M0 190.75 C1.34 158.35, 2.24 123.54, 0 47.25 M0 190.75 C-0.04 135.71, -0.55 82.42, 0 47.25 M0 47.25 C-1.27 15.8, 15.72 -0.84, 47.25 0 M0 47.25 C0.6 17.27, 16.1 0.26, 47.25 0" stroke="#862e9c" stroke-width="1" fill="none"></path></g><g transform="translate(440.25 266.5) rotate(0 57 18)"><text x="0" y="25" font-family="Virgil, Segoe UI Emoji" font-size="28px" fill="#d9480f" text-anchor="start" style="white-space: pre;" direction="ltr">0x3000</text></g><g transform="translate(474.25 87.5) rotate(0 32.5 10)"><text x="0" y="14" font-family="Virgil, Segoe UI Emoji" font-size="16px" fill="#000000" text-anchor="start" style="white-space: pre;" direction="ltr">0x5000</text></g><g transform="translate(474.25 523) rotate(0 29.5 10)"><text x="0" y="14" font-family="Virgil, Segoe UI Emoji" font-size="16px" fill="#000000" text-anchor="start" style="white-space: pre;" direction="ltr">0x1000</text></g><g stroke-linecap="round"><g transform="translate(738.75 484) rotate(0 27.05195217012988 -144.03766046431625)"><path d="M-1.2 -1.08 C7.41 -8.93, 42.6 -4.4, 50.79 -47.85 C58.99 -91.29, 54.76 -221.57, 47.99 -261.76 C41.22 -301.95, 16.39 -284.5, 10.18 -288.98 M0.38 0.97 C8.99 -6.6, 42.51 -2.67, 50.4 -46.23 C58.28 -89.78, 54.41 -220.07, 47.7 -260.36 C40.99 -300.64, 16.54 -283.29, 10.14 -287.91" stroke="#d9480f" stroke-width="1" fill="none"></path></g><g transform="translate(738.75 484) rotate(0 27.05195217012988 -144.03766046431625)"><path d="M29.91 -293.08 C26.99 -291.96, 22.07 -292.81, 10.05 -287.9 M32.26 -293.92 C23.94 -293.17, 17.04 -290.79, 10.8 -287.97" stroke="#d9480f" stroke-width="1" fill="none"></path></g><g transform="translate(738.75 484) rotate(0 27.05195217012988 -144.03766046431625)"><path d="M29.3 -277.6 C26.61 -280.01, 21.84 -284.4, 10.05 -287.9 M31.65 -278.44 C23.43 -282.71, 16.72 -285.34, 10.8 -287.97" stroke="#d9480f" stroke-width="1" fill="none"></path></g></g><g transform="translate(603.75 562) rotate(0 51.5 18)"><text x="0" y="25" font-family="Virgil, Segoe UI Emoji" font-size="28px" fill="#5c940d" text-anchor="start" style="white-space: pre;" direction="ltr">app.out</text></g><g transform="translate(612.75 11) rotate(0 45 18)"><text x="0" y="25" font-family="Virgil, Segoe UI Emoji" font-size="28px" fill="#862e9c" text-anchor="start" style="white-space: pre;" direction="ltr">libv1.so</text></g><g transform="translate(474.25 183.5) rotate(0 32.5 10)"><text x="0" y="14" font-family="Virgil, Segoe UI Emoji" font-size="16px" fill="#000000" text-anchor="start" style="white-space: pre;" direction="ltr">0x4000</text></g><g stroke-linecap="round" transform="translate(802.5 291.5) rotate(0 18.49509803921569 19.25)"><path d="M17.83 -0.43 C21.66 -0.94, 27.74 0.68, 30.9 3.53 C34.05 6.38, 36.19 12.6, 36.77 16.67 C37.34 20.73, 36.37 24.39, 34.36 27.93 C32.36 31.47, 28.42 36.47, 24.73 37.9 C21.05 39.33, 15.84 38.04, 12.24 36.5 C8.64 34.96, 5.11 32.2, 3.13 28.66 C1.16 25.12, -0.12 19.19, 0.41 15.26 C0.95 11.34, 3.04 7.47, 6.36 5.11 C9.68 2.76, 17.61 1.72, 20.34 1.12 C23.08 0.53, 22.52 1.37, 22.75 1.55 M11.24 2.39 C14.47 0.94, 20.24 0.74, 23.95 1.94 C27.66 3.13, 31.23 6.21, 33.49 9.58 C35.74 12.95, 38.03 17.94, 37.46 22.17 C36.9 26.41, 33.43 32.34, 30.09 34.97 C26.74 37.61, 21.55 38.07, 17.38 37.97 C13.2 37.87, 7.67 36.86, 5.04 34.36 C2.42 31.86, 2.1 26.99, 1.62 22.99 C1.13 18.98, 0.15 13.92, 2.14 10.33 C4.13 6.75, 12.09 2.95, 13.57 1.48 C15.04 0.01, 11 1.42, 10.99 1.52" stroke="#d9480f" stroke-width="1" fill="none"></path></g><g stroke-linecap="round" transform="translate(812.6957238568491 304.09164535379375) rotate(0 1.9394714407502534 2.088661551577161)"><path d="M3.88 2.09 C3.88 2.21, 3.87 2.33, 3.85 2.45 C3.83 2.57, 3.8 2.69, 3.76 2.8 C3.72 2.92, 3.68 3.03, 3.62 3.13 C3.56 3.24, 3.5 3.34, 3.43 3.43 C3.35 3.52, 3.27 3.61, 3.19 3.69 C3.1 3.77, 3.01 3.84, 2.91 3.9 C2.81 3.96, 2.71 4.01, 2.6 4.05 C2.5 4.09, 2.39 4.12, 2.28 4.15 C2.17 4.17, 2.05 4.18, 1.94 4.18 C1.83 4.18, 1.71 4.17, 1.6 4.15 C1.49 4.12, 1.38 4.09, 1.28 4.05 C1.17 4.01, 1.07 3.96, 0.97 3.9 C0.87 3.84, 0.78 3.77, 0.69 3.69 C0.61 3.61, 0.53 3.52, 0.45 3.43 C0.38 3.34, 0.32 3.24, 0.26 3.13 C0.2 3.03, 0.16 2.92, 0.12 2.8 C0.08 2.69, 0.05 2.57, 0.03 2.45 C0.01 2.33, 0 2.21, 0 2.09 C0 1.97, 0.01 1.85, 0.03 1.73 C0.05 1.61, 0.08 1.49, 0.12 1.37 C0.16 1.26, 0.2 1.15, 0.26 1.04 C0.32 0.94, 0.38 0.84, 0.45 0.75 C0.53 0.65, 0.61 0.57, 0.69 0.49 C0.78 0.41, 0.87 0.34, 0.97 0.28 C1.07 0.22, 1.17 0.17, 1.28 0.13 C1.38 0.08, 1.49 0.05, 1.6 0.03 C1.71 0.01, 1.83 0, 1.94 0 C2.05 0, 2.17 0.01, 2.28 0.03 C2.39 0.05, 2.5 0.08, 2.6 0.13 C2.71 0.17, 2.81 0.22, 2.91 0.28 C3.01 0.34, 3.1 0.41, 3.19 0.49 C3.27 0.57, 3.35 0.65, 3.43 0.75 C3.5 0.84, 3.56 0.94, 3.62 1.04 C3.68 1.15, 3.72 1.26, 3.76 1.37 C3.8 1.49, 3.83 1.61, 3.85 1.73 C3.87 1.85, 3.87 2.03, 3.88 2.09 C3.88 2.15, 3.88 2.03, 3.88 2.09" stroke="#d9480f" stroke-width="1" fill="none"></path></g><g stroke-linecap="round" transform="translate(824.3503836317136 304.1811594202899) rotate(0 1.9394714407502534 2.088661551577161)"><path d="M3.88 2.09 C3.88 2.21, 3.87 2.33, 3.85 2.45 C3.83 2.57, 3.8 2.69, 3.76 2.8 C3.72 2.92, 3.68 3.03, 3.62 3.13 C3.56 3.24, 3.5 3.34, 3.43 3.43 C3.35 3.52, 3.27 3.61, 3.19 3.69 C3.1 3.77, 3.01 3.84, 2.91 3.9 C2.81 3.96, 2.71 4.01, 2.6 4.05 C2.5 4.09, 2.39 4.12, 2.28 4.15 C2.17 4.17, 2.05 4.18, 1.94 4.18 C1.83 4.18, 1.71 4.17, 1.6 4.15 C1.49 4.12, 1.38 4.09, 1.28 4.05 C1.17 4.01, 1.07 3.96, 0.97 3.9 C0.87 3.84, 0.78 3.77, 0.69 3.69 C0.61 3.61, 0.53 3.52, 0.45 3.43 C0.38 3.34, 0.32 3.24, 0.26 3.13 C0.2 3.03, 0.16 2.92, 0.12 2.8 C0.08 2.69, 0.05 2.57, 0.03 2.45 C0.01 2.33, 0 2.21, 0 2.09 C0 1.97, 0.01 1.85, 0.03 1.73 C0.05 1.61, 0.08 1.49, 0.12 1.37 C0.16 1.26, 0.2 1.15, 0.26 1.04 C0.32 0.94, 0.38 0.84, 0.45 0.75 C0.53 0.65, 0.61 0.57, 0.69 0.49 C0.78 0.41, 0.87 0.34, 0.97 0.28 C1.07 0.22, 1.17 0.17, 1.28 0.13 C1.38 0.08, 1.49 0.05, 1.6 0.03 C1.71 0.01, 1.83 0, 1.94 0 C2.05 0, 2.17 0.01, 2.28 0.03 C2.39 0.05, 2.5 0.08, 2.6 0.13 C2.71 0.17, 2.81 0.22, 2.91 0.28 C3.01 0.34, 3.1 0.41, 3.19 0.49 C3.27 0.57, 3.35 0.65, 3.43 0.75 C3.5 0.84, 3.56 0.94, 3.62 1.04 C3.68 1.15, 3.72 1.26, 3.76 1.37 C3.8 1.49, 3.83 1.61, 3.85 1.73 C3.87 1.85, 3.87 2.03, 3.88 2.09 C3.88 2.15, 3.88 2.03, 3.88 2.09" stroke="#d9480f" stroke-width="1" fill="none"></path></g><g stroke-linecap="round"><g transform="translate(830.2207590031333 320.4935531989562) rotate(0 -8.145334094485065 -2.6729156852240976)" fill-rule="evenodd"><path d="M0 0 L-6.25 -1.07 L-16.27 -0.17 L-13.11 -3.05 L-8.17 -5.38 L-3.58 -3.01 L0 0" stroke="none" stroke-width="0" fill="#ffffff" fill-rule="evenodd"></path><path d="M0 0 C-1.04 -0.18, -4.55 -0.89, -6.25 -1.07 C-7.94 -1.25, -8.51 -1.21, -10.18 -1.06 C-11.85 -0.91, -16.61 0.55, -16.27 -0.17 C-15.94 -0.89, -10.88 -5.4, -8.17 -5.38 C-5.45 -5.35, -1.36 -0.9, 0 0 M0 0 C-1.04 -0.18, -4.55 -0.89, -6.25 -1.07 C-7.94 -1.25, -8.51 -1.21, -10.18 -1.06 C-11.85 -0.91, -16.61 0.55, -16.27 -0.17 C-15.94 -0.89, -10.88 -5.4, -8.17 -5.38 C-5.45 -5.35, -1.36 -0.9, 0 0" stroke="#d9480f" stroke-width="1" fill="none"></path></g></g><g stroke-linecap="round" transform="translate(1040.879901960784 367) rotate(0 94.5 93.25)"><path d="M11.75 11.54 C11.75 11.54, 11.75 11.54, 11.75 11.54 M11.75 11.54 C11.75 11.54, 11.75 11.54, 11.75 11.54 M9.52 20.21 C11.65 16.08, 15.7 14.06, 20.02 8.13 M9.52 20.21 C13.61 16.17, 16.47 11.3, 20.02 8.13 M4.02 32.64 C10.23 26.45, 13.78 21.43, 30.91 1.7 M4.02 32.64 C12.24 24.53, 19.17 15.28, 30.91 1.7 M3.1 39.79 C16.01 25.42, 29.45 10.08, 36.56 1.3 M3.1 39.79 C9.62 31.14, 16.76 22.2, 36.56 1.3 M1.52 47.7 C17.78 30.81, 32.26 11.3, 42.86 0.15 M1.52 47.7 C12.87 36.46, 21.96 24.57, 42.86 0.15 M1.26 54.1 C20.94 33.6, 40.04 10.48, 47.84 0.51 M1.26 54.1 C13.35 41.93, 24.23 28.14, 47.84 0.51 M1.66 59.74 C14.12 44.16, 28.67 30.11, 52.83 0.87 M1.66 59.74 C14.43 44, 27.11 28.82, 52.83 0.87 M1.4 66.14 C16.15 48.62, 28.15 32.61, 57.82 1.23 M1.4 66.14 C16.16 50.15, 30.36 35.31, 57.82 1.23 M1.13 72.54 C19.54 52.43, 40.91 30.06, 63.46 0.84 M1.13 72.54 C14.26 55.19, 30.51 38.44, 63.46 0.84 M1.53 78.18 C27.41 48.41, 52.55 20.38, 68.45 1.2 M1.53 78.18 C14.14 61.02, 28.58 44.22, 68.45 1.2 M1.27 84.58 C27.62 53.76, 56.67 22.46, 74.09 0.8 M1.27 84.58 C26.66 56.35, 51.27 25.75, 74.09 0.8 M1.66 90.22 C19.6 69.65, 34.23 50.4, 79.08 1.16 M1.66 90.22 C21.91 69.06, 40.47 46.04, 79.08 1.16 M1.4 96.62 C29.75 62.67, 62.11 27.27, 84.72 0.77 M1.4 96.62 C31.17 62.44, 61.96 27.77, 84.72 0.77 M1.8 102.26 C28.17 68.19, 58.86 37, 89.71 1.13 M1.8 102.26 C26.86 74.64, 50.56 47.45, 89.71 1.13 M1.53 108.66 C37.34 66.27, 73.39 28.21, 94.69 1.49 M1.53 108.66 C27.83 77.88, 53.34 49.3, 94.69 1.49 M1.27 115.06 C28.69 85.1, 54.25 52.68, 100.34 1.1 M1.27 115.06 C29.9 82.11, 58.51 48.43, 100.34 1.1 M1.67 120.7 C35.36 80.42, 69.29 43.38, 105.32 1.46 M1.67 120.7 C28.31 89.48, 53.47 61.24, 105.32 1.46 M1.41 127.1 C39.48 80.25, 81.93 36.78, 110.97 1.06 M1.41 127.1 C40.49 84.79, 78.19 40.09, 110.97 1.06 M1.8 132.74 C45.83 80.47, 90.27 29.95, 115.95 1.42 M1.8 132.74 C36.44 93.48, 70.91 53.18, 115.95 1.42 M1.54 139.14 C42.04 95.94, 80.72 49.48, 121.6 1.03 M1.54 139.14 C45.9 88.08, 90.46 37.84, 121.6 1.03 M0.62 146.29 C34.01 105.59, 72.64 63.18, 126.58 1.39 M0.62 146.29 C26.25 116.29, 52.08 85.52, 126.58 1.39 M1.67 151.18 C50.91 99.77, 96.54 45.95, 131.57 1.75 M1.67 151.18 C40.52 104.39, 79.7 60.03, 131.57 1.75 M2.72 156.07 C35.25 121.63, 64.33 84.4, 137.21 1.35 M2.72 156.07 C30.18 123.77, 57.62 92.51, 137.21 1.35 M3.77 160.96 C48.04 108.75, 97.11 54.76, 142.2 1.71 M3.77 160.96 C30.47 129.28, 57.74 96.59, 142.2 1.71 M5.48 165.09 C60 103.18, 112.13 41.59, 147.84 1.32 M5.48 165.09 C46.91 114.98, 88.53 67.34, 147.84 1.32 M7.84 168.47 C40.68 135.6, 71.9 99.12, 153.49 0.92 M7.84 168.47 C54.71 114.88, 102 61.6, 153.49 0.92 M9.55 172.6 C64.98 109.47, 119.86 49.38, 157.82 2.04 M9.55 172.6 C55.04 118.59, 101.49 64.42, 157.82 2.04 M12.57 175.23 C67.99 112.84, 121.92 50.9, 162.15 3.15 M12.57 175.23 C45.88 135.78, 80.08 97.4, 162.15 3.15 M15.59 177.85 C45.82 142.42, 77.63 104.32, 166.48 4.27 M15.59 177.85 C59.58 129.74, 100.66 80.36, 166.48 4.27 M18.61 180.48 C62.42 126.74, 108.02 74.45, 169.5 6.89 M18.61 180.48 C64.7 129.88, 108.19 78.73, 169.5 6.89 M22.28 182.34 C77.12 120.77, 134.3 56.2, 173.17 8.76 M22.28 182.34 C61.12 138.44, 99.92 94.28, 173.17 8.76 M26.61 183.46 C77.66 126.1, 128.49 65.81, 176.85 10.63 M26.61 183.46 C59.14 147.63, 91.42 109.95, 176.85 10.63 M30.94 184.57 C72.21 140.57, 113.91 91.82, 179.21 14.01 M30.94 184.57 C71.19 138.86, 109.78 92.83, 179.21 14.01 M35.93 184.93 C78.94 134.31, 123.24 86.69, 182.23 16.63 M35.93 184.93 C72.93 141.67, 113.12 96.44, 182.23 16.63 M40.26 186.05 C75.47 146.45, 108.42 107.01, 183.94 20.77 M40.26 186.05 C95.6 121.2, 151.81 56.04, 183.94 20.77 M43.28 188.67 C76.46 150.22, 110.83 111.45, 186.3 24.15 M43.28 188.67 C79.84 146.22, 116.19 104.75, 186.3 24.15 M48.92 188.28 C96.48 135.3, 144.69 78.82, 188.01 28.28 M48.92 188.28 C87.22 144.56, 125.42 101.34, 188.01 28.28 M53.91 188.64 C96.15 136.24, 140.85 88.29, 189.06 33.17 M53.91 188.64 C105.86 128.68, 158.13 67.11, 189.06 33.17 M59.55 188.24 C98.17 143.49, 140.38 93.38, 190.11 38.06 M59.55 188.24 C88.56 156.93, 115.4 124.93, 190.11 38.06 M64.54 188.6 C107.71 138.51, 150.57 88.44, 191.16 42.95 M64.54 188.6 C113.38 133.97, 159.98 79.66, 191.16 42.95 M70.18 188.21 C98.26 154.27, 132.11 119.45, 190.9 49.34 M70.18 188.21 C102.64 153.83, 133.74 116.59, 190.9 49.34 M75.17 188.57 C121.89 135.19, 167.71 80.74, 191.29 54.99 M75.17 188.57 C112.59 143.06, 153.05 96.86, 191.29 54.99 M80.81 188.18 C116.17 146.42, 157.09 101.64, 191.03 61.38 M80.81 188.18 C117.59 146.54, 152.71 104.14, 191.03 61.38 M85.8 188.54 C108.51 161.23, 131.13 138.78, 191.43 67.03 M85.8 188.54 C117.52 150.35, 150.09 112.13, 191.43 67.03 M91.44 188.14 C123.36 150.95, 156.98 116.05, 191.16 73.43 M91.44 188.14 C120.47 154.78, 149.27 122.02, 191.16 73.43 M96.43 188.5 C114.92 166.41, 135.39 144.5, 190.9 79.82 M96.43 188.5 C126.24 152.84, 156.88 118.88, 190.9 79.82 M102.07 188.11 C136.66 148.48, 174.18 105.16, 191.3 85.47 M102.07 188.11 C125.22 158.86, 150.08 130.22, 191.3 85.47 M107.06 188.47 C126.22 165.62, 148.49 139.37, 191.04 91.86 M107.06 188.47 C135.54 157.07, 161.7 125.65, 191.04 91.86 M112.05 188.83 C140.23 156.21, 166.9 125.99, 191.43 97.51 M112.05 188.83 C141.22 155.12, 171.21 122.04, 191.43 97.51 M117.69 188.43 C141.36 161.47, 161.79 136.87, 191.17 103.9 M117.69 188.43 C137.03 165.12, 158.47 141.37, 191.17 103.9 M122.68 188.79 C137.56 174.72, 150.39 157.13, 190.91 110.3 M122.68 188.79 C144.17 165.17, 165.64 139.71, 190.91 110.3 M128.32 188.4 C150.21 164.1, 174.99 136.25, 191.3 115.95 M128.32 188.4 C143.4 173.11, 157.58 156.2, 191.3 115.95 M133.31 188.76 C155.9 162, 175.53 139.64, 191.04 122.34 M133.31 188.76 C145.31 175.37, 159.2 159.93, 191.04 122.34 M138.95 188.36 C157.81 170.58, 174.14 149.08, 191.43 127.99 M138.95 188.36 C152.5 174.34, 164.99 159.44, 191.43 127.99 M143.94 188.72 C160.48 169.41, 176.01 148.45, 191.17 134.38 M143.94 188.72 C156.32 175.48, 166.12 163.19, 191.17 134.38 M149.58 188.33 C164 173.16, 175.96 156.3, 190.91 140.78 M149.58 188.33 C163.16 171.76, 175.14 157.57, 190.91 140.78 M156.54 186.42 C168.28 171.6, 181.68 157.93, 190.65 147.18 M156.54 186.42 C166 174.44, 176.15 163.26, 190.65 147.18 M163.49 184.52 C173.17 172.77, 183.58 163.06, 189.08 155.09 M163.49 184.52 C169.43 177.71, 174.67 170.34, 189.08 155.09 M174.38 178.09 C179.64 171.94, 180.99 170.83, 185.54 165.26 M174.38 178.09 C178.01 173.65, 182.92 168.78, 185.54 165.26" stroke="#82c91e" stroke-width="0.5" fill="none"></path><path d="M46.63 0 M46.63 0 C80.91 -1.23, 116.48 -1.69, 142.38 0 M46.63 0 C72.18 -0.44, 96.67 0.89, 142.38 0 M142.38 0 C174.34 -1.95, 187.68 13.88, 189 46.63 M142.38 0 C173.16 -1.24, 190.08 16.79, 189 46.63 M189 46.63 C186.78 73.86, 186.97 101.16, 189 139.88 M189 46.63 C188.06 72.94, 188.53 99.68, 189 139.88 M189 139.88 C190.88 172.95, 173.73 188.25, 142.38 186.5 M189 139.88 C189.67 170.94, 173.86 186.9, 142.38 186.5 M142.38 186.5 C110.02 185.4, 81.4 186.43, 46.63 186.5 M142.38 186.5 C123.32 186.48, 103.26 186.41, 46.63 186.5 M46.63 186.5 C14.5 185.51, -1.62 171.73, 0 139.88 M46.63 186.5 C17.68 184.28, 0.48 172.21, 0 139.88 M0 139.88 C0.19 109.97, -1.65 78.41, 0 46.63 M0 139.88 C0.42 111.86, 0.87 82.81, 0 46.63 M0 46.63 C-1.79 17.31, 15.58 -0.06, 46.63 0 M0 46.63 C-1.78 17.44, 16.46 2.07, 46.63 0" stroke="#5c940d" stroke-width="1" fill="none"></path></g><g stroke-linecap="round" transform="translate(1062.879901960784 471) rotate(0 71.5 15)"><path d="M-1.16 -1.28 L143.01 -0.55 L144.87 29.23 L1.99 29.27" stroke="none" stroke-width="0" fill="#ffffff"></path><path d="M1.46 0.86 C28.51 1.85, 62.08 0.47, 144.01 1.22 M-0.61 0.64 C30.24 0.55, 61.1 -0.34, 142.54 0.23 M142.18 0.85 C144.01 8.57, 142.85 18.31, 142.63 29.48 M143.57 -0.28 C142.33 10.61, 143.68 20.71, 143.3 29.63 M143.45 30.11 C90.82 29.46, 34.22 29.52, 1.48 28.32 M143.8 29.48 C101.5 29.07, 60.89 28.47, -0.19 29.52 M0.91 28.84 C1.31 24.09, 0.52 15.29, 1.24 1.05 M0.09 29.06 C0.77 18.88, 0.16 6.59, -0.3 0.13" stroke="#5c940d" stroke-width="1" fill="none"></path></g><g transform="translate(1072.879901960784 476) rotate(0 61.5 10)"><text x="61.5" y="14" font-family="Virgil, Segoe UI Emoji" font-size="16px" fill="#5c940d" text-anchor="middle" style="white-space: pre;" direction="ltr">jal ra, 0x4000</text></g><g stroke-linecap="round" transform="translate(1042.879901960784 66.5) rotate(0 94.5 145.25)"><path d="M9.27 14.69 C9.27 14.69, 9.27 14.69, 9.27 14.69 M9.27 14.69 C9.27 14.69, 9.27 14.69, 9.27 14.69 M6.39 24.1 C9.4 20.15, 14.66 16.46, 17.54 11.27 M6.39 24.1 C10.9 18.65, 14.53 13.74, 17.54 11.27 M0.88 36.54 C9.41 25.56, 19.1 16.33, 31.06 1.82 M0.88 36.54 C8.22 28.5, 14.47 20.83, 31.06 1.82 M1.27 42.18 C12.59 30.48, 22.95 14.43, 36.7 1.43 M1.27 42.18 C10.13 30.91, 18.75 21.95, 36.7 1.43 M1.01 48.58 C12.6 35.64, 21.55 23.6, 43 0.28 M1.01 48.58 C12.8 35.03, 23.9 23.92, 43 0.28 M0.75 54.98 C16.45 39.34, 29.55 19.29, 47.99 0.64 M0.75 54.98 C16.47 37.91, 30.51 20.76, 47.99 0.64 M1.14 60.62 C17.75 41.72, 35.84 22.81, 52.97 1 M1.14 60.62 C21.54 36.07, 42.48 12.57, 52.97 1 M0.88 67.02 C21.31 40.56, 43.2 17.12, 58.62 0.6 M0.88 67.02 C13.24 53.29, 26.68 38.7, 58.62 0.6 M0.62 73.42 C16.51 58.87, 30.08 39.62, 63.6 0.96 M0.62 73.42 C23.01 48.26, 46.04 21.44, 63.6 0.96 M1.02 79.06 C18.51 58.14, 37.68 36.58, 69.25 0.57 M1.02 79.06 C26.76 48.4, 52.9 19.5, 69.25 0.57 M0.75 85.46 C26.56 57.8, 51.88 28.93, 74.23 0.93 M0.75 85.46 C28.14 54.54, 53.06 24.17, 74.23 0.93 M0.49 91.85 C18.66 67.89, 38.03 46.08, 79.88 0.53 M0.49 91.85 C23.44 66.23, 44.4 42.11, 79.88 0.53 M0.89 97.5 C28.37 68.28, 54.32 36.39, 84.86 0.89 M0.89 97.5 C28.47 67.03, 55.53 36.2, 84.86 0.89 M0.63 103.9 C27.64 72.42, 57.67 37.51, 89.85 1.25 M0.63 103.9 C19.78 81.55, 39.36 59.71, 89.85 1.25 M1.02 109.54 C21.82 84.27, 47.07 55.03, 95.49 0.86 M1.02 109.54 C26.37 78.71, 54 47.51, 95.49 0.86 M0.76 115.94 C37.95 73.58, 72.67 31.91, 100.48 1.22 M0.76 115.94 C40.28 70.57, 79.12 26.15, 100.48 1.22 M0.5 122.33 C29.8 87, 62.36 51.42, 106.12 0.83 M0.5 122.33 C23.33 93.4, 49.33 66.05, 106.12 0.83 M0.89 127.98 C42.7 81.12, 87.72 32.61, 111.11 1.19 M0.89 127.98 C33.65 91.87, 63.84 57.39, 111.11 1.19 M0.63 134.37 C26.77 102.5, 54.63 72.05, 116.75 0.79 M0.63 134.37 C27.49 103.79, 53.42 73.22, 116.75 0.79 M0.37 140.77 C33.23 105.02, 62.79 68.45, 121.74 1.15 M0.37 140.77 C47.89 86.3, 96.13 31.21, 121.74 1.15 M0.76 146.42 C50.33 92.5, 98.03 34.19, 126.73 1.51 M0.76 146.42 C38.85 102.58, 76.14 60.57, 126.73 1.51 M0.5 152.81 C34.07 116.28, 65.32 80.75, 132.37 1.12 M0.5 152.81 C43.72 101.43, 89.2 50.45, 132.37 1.12 M0.24 159.21 C33.49 120.63, 64 81.89, 137.36 1.48 M0.24 159.21 C46.04 106.1, 92.75 54.66, 137.36 1.48 M0.64 164.85 C59.22 101.44, 115.86 32.91, 143 1.08 M0.64 164.85 C52.66 105.02, 103.63 47.12, 143 1.08 M0.37 171.25 C30.11 134.94, 60.39 101.34, 147.99 1.44 M0.37 171.25 C55.47 104.8, 113.2 37.71, 147.99 1.44 M0.77 176.9 C35.18 141.01, 65.85 104.09, 153.63 1.05 M0.77 176.9 C34.43 139.07, 68.47 100.39, 153.63 1.05 M0.51 183.29 C48.68 128.25, 99.58 71.43, 157.31 2.92 M0.51 183.29 C61.41 112.56, 122.22 42.91, 157.31 2.92 M0.25 189.69 C60.38 120.92, 120.78 51.49, 161.64 4.03 M0.25 189.69 C45.88 137.26, 92.51 83.22, 161.64 4.03 M0.64 195.33 C45.88 144.03, 88.67 92.85, 165.97 5.15 M0.64 195.33 C39.95 149, 78.13 104.8, 165.97 5.15 M0.38 201.73 C58.04 133.99, 116.98 68.04, 169.64 7.02 M0.38 201.73 C42.84 152.19, 84.69 104.91, 169.64 7.02 M0.12 208.13 C41.48 164.54, 79.77 116.9, 173.32 8.89 M0.12 208.13 C49.56 152.12, 98.67 96.06, 173.32 8.89 M0.51 213.77 C48.61 159.24, 94.24 102.24, 176.34 11.51 M0.51 213.77 C37.96 172.52, 73.61 130.36, 176.34 11.51 M0.25 220.17 C43.27 174.99, 81.53 127.73, 179.35 14.13 M0.25 220.17 C46.03 165.79, 91.9 112.91, 179.35 14.13 M0.65 225.81 C41.04 179.2, 84.23 131.69, 181.72 17.51 M0.65 225.81 C73.88 144.98, 145.02 61.41, 181.72 17.51 M0.38 232.21 C57.19 165.95, 113.94 104.25, 184.08 20.89 M0.38 232.21 C67.11 155.67, 133.39 79.06, 184.08 20.89 M0.12 238.61 C66.86 163.17, 133 86.15, 186.44 24.27 M0.12 238.61 C45.88 185.54, 92.74 133.06, 186.44 24.27 M0.52 244.25 C45.65 194.9, 87.49 145.11, 187.49 29.16 M0.52 244.25 C67.08 167.91, 133.66 91.94, 187.49 29.16 M0.91 249.89 C64.9 174.56, 133.09 100.09, 189.2 33.29 M0.91 249.89 C62.26 178.79, 122.68 107.5, 189.2 33.29 M1.96 254.78 C72.6 176.33, 139.23 94.81, 190.25 38.18 M1.96 254.78 C51.78 197.62, 100.44 142.13, 190.25 38.18 M3.01 259.67 C73.81 178.24, 144.23 98.76, 190.65 43.82 M3.01 259.67 C41.38 214.28, 80.22 169.3, 190.65 43.82 M4.06 264.56 C78.19 183.59, 150.96 98.2, 191.04 49.47 M4.06 264.56 C57.96 203.86, 109.12 144.03, 191.04 49.47 M5.77 268.69 C68.7 195.66, 131.03 123.41, 191.43 55.11 M5.77 268.69 C75.07 189.06, 144.56 107.64, 191.43 55.11 M8.13 272.07 C78.33 195.91, 145.57 117.12, 191.17 61.51 M8.13 272.07 C58.42 212.94, 108.29 154.53, 191.17 61.51 M10.5 275.45 C48.02 230.13, 90.02 184.02, 191.57 67.15 M10.5 275.45 C73.29 201.67, 136.82 127.85, 191.57 67.15 M12.2 279.59 C68.07 216.73, 125.33 151.94, 191.31 73.55 M12.2 279.59 C62.89 221.59, 113.65 162.99, 191.31 73.55 M15.88 281.45 C76.06 212.73, 136.83 143.08, 191.05 79.95 M15.88 281.45 C78.21 209.05, 142.11 137.12, 191.05 79.95 M18.9 284.08 C88.44 206.53, 155.3 125.54, 191.44 85.59 M18.9 284.08 C85.18 206.64, 152.55 128.22, 191.44 85.59 M23.23 285.19 C74.06 227.73, 122.98 169.63, 191.18 91.99 M23.23 285.19 C64.2 237.67, 104.56 192.53, 191.18 91.99 M26.9 287.06 C82.23 222.17, 139.33 158.32, 190.92 98.39 M26.9 287.06 C71.63 235.83, 117.25 183.37, 190.92 98.39 M31.23 288.18 C68.63 242.69, 107.81 198.78, 191.31 104.03 M31.23 288.18 C87.74 224.17, 144.03 157.48, 191.31 104.03 M35.56 289.29 C76.85 243.36, 114.76 198.57, 191.05 110.43 M35.56 289.29 C77.87 242.47, 118.04 196.23, 191.05 110.43 M38.58 291.92 C95.72 230.37, 149.21 164.36, 191.44 116.07 M38.58 291.92 C83.35 241.73, 126.22 192.11, 191.44 116.07 M43.57 292.28 C95.02 230.69, 149.51 170.8, 191.18 122.47 M43.57 292.28 C82.45 250.82, 118.92 207.66, 191.18 122.47 M49.21 291.88 C83.18 255.05, 113.3 217.07, 190.92 128.87 M49.21 291.88 C96.41 238.6, 142.24 186.68, 190.92 128.87 M54.2 292.24 C91.13 248.84, 126.33 207.41, 191.32 134.51 M54.2 292.24 C82.94 257.06, 112.74 223.98, 191.32 134.51 M59.84 291.85 C92.47 252.9, 124.11 215.4, 191.05 140.91 M59.84 291.85 C108.39 232.49, 159.8 175.86, 191.05 140.91 M64.83 292.21 C106.79 243.98, 149.99 195.66, 191.45 146.55 M64.83 292.21 C98.47 251.95, 133.98 212.19, 191.45 146.55 M70.47 291.81 C97.87 261.4, 126.28 228.84, 191.19 152.95 M70.47 291.81 C106.56 249.69, 141.98 209.15, 191.19 152.95 M75.46 292.17 C106.82 250.84, 144.71 214.04, 190.93 159.34 M75.46 292.17 C103.77 260.1, 132.29 226.72, 190.93 159.34 M80.45 292.53 C120.08 244.76, 160.47 198.54, 191.32 164.99 M80.45 292.53 C114.88 252.09, 151.04 212.01, 191.32 164.99 M86.09 292.14 C107.9 267.46, 130.37 245.15, 191.06 171.39 M86.09 292.14 C117.42 256.97, 148.63 221, 191.06 171.39 M91.08 292.5 C118.79 258.88, 148.21 226.7, 191.45 177.03 M91.08 292.5 C130.37 247.13, 169.06 201.5, 191.45 177.03 M96.72 292.1 C128.36 256.01, 154.47 223.33, 191.19 183.43 M96.72 292.1 C122.33 265.1, 144.64 236.95, 191.19 183.43 M101.71 292.46 C120.16 271.2, 143.17 246.04, 190.93 189.82 M101.71 292.46 C129.52 259.43, 158.39 227.02, 190.93 189.82 M107.35 292.07 C122.42 270.3, 140.58 252.75, 191.33 195.47 M107.35 292.07 C135.81 261.93, 161.76 230.23, 191.33 195.47 M112.34 292.43 C142.58 256.39, 170.55 223.23, 191.06 201.87 M112.34 292.43 C144.48 257.12, 175.15 221.77, 191.06 201.87 M117.32 292.79 C134.45 271.78, 152.96 250.99, 190.8 208.26 M117.32 292.79 C144.67 262.46, 171.5 230.53, 190.8 208.26 M122.97 292.4 C137.94 273.96, 154.15 253.72, 191.2 213.91 M122.97 292.4 C144.69 266.54, 167.06 240.82, 191.2 213.91 M127.95 292.76 C145.81 271.61, 167.14 250.1, 190.94 220.3 M127.95 292.76 C142.6 273.76, 159.08 258.18, 190.94 220.3 M133.6 292.36 C144.77 279.64, 159.3 262.57, 191.33 225.95 M133.6 292.36 C154.5 269.42, 174.35 244.7, 191.33 225.95 M138.58 292.72 C154.19 273.27, 169.27 255.37, 191.07 232.34 M138.58 292.72 C150.36 278.79, 163.72 263.85, 191.07 232.34 M144.23 292.33 C163.04 272.17, 183.55 248.21, 190.81 238.74 M144.23 292.33 C158.28 273.98, 174.62 257.33, 190.81 238.74 M149.87 291.93 C159.15 280.93, 165.41 273.38, 191.2 244.39 M149.87 291.93 C159.21 281.75, 169.47 269.7, 191.2 244.39 M158.14 288.52 C164.8 280.63, 170.66 273.3, 190.94 250.78 M158.14 288.52 C165.03 280.89, 172.24 271.36, 190.94 250.78 M165.09 286.61 C172.62 281.97, 176.06 275.06, 188.06 260.2 M165.09 286.61 C173.23 277.55, 182.14 268.01, 188.06 260.2" stroke="#15aabf" stroke-width="0.5" fill="none"></path><path d="M47.25 0 M47.25 0 C82.96 0.78, 118.12 -1.67, 141.75 0 M47.25 0 C66.72 -0.71, 84.99 -0.09, 141.75 0 M141.75 0 C173.5 0.18, 190.47 14.18, 189 47.25 M141.75 0 C173.26 0.73, 187.53 16.15, 189 47.25 M189 47.25 C186.52 124.42, 187.51 200.87, 189 243.25 M189 47.25 C186.86 95.36, 186.86 144.89, 189 243.25 M189 243.25 C188.19 274, 172.92 291.06, 141.75 290.5 M189 243.25 C189.22 276.04, 174.36 288.9, 141.75 290.5 M141.75 290.5 C112.8 290.61, 83.96 291.68, 47.25 290.5 M141.75 290.5 C105.41 290.25, 68.1 290.14, 47.25 290.5 M47.25 290.5 C16.92 290.58, -1.7 273.78, 0 243.25 M47.25 290.5 C13.51 290.29, -2.07 273.63, 0 243.25 M0 243.25 C-1.03 176.68, 1.17 106.27, 0 47.25 M0 243.25 C-0.84 202.31, -1.51 163.41, 0 47.25 M0 47.25 C1.15 15.65, 14.94 -0.09, 47.25 0 M0 47.25 C-1.88 16.41, 15.95 -2.06, 47.25 0" stroke="#0b7285" stroke-width="1" fill="none"></path></g><g transform="translate(952.8799019607843 525.5) rotate(0 29.5 10)"><text x="0" y="14" font-family="Virgil, Segoe UI Emoji" font-size="16px" fill="#000000" text-anchor="start" style="white-space: pre;" direction="ltr">0x1000</text></g><g stroke-linecap="round"><g transform="translate(1217.379901960784 486.5) rotate(0 27.682761177618204 -146.1084028948865)"><path d="M0.73 -1.04 C8.85 -9.16, 41.13 -4.75, 48.73 -48.1 C56.34 -91.45, 52.86 -220.67, 46.36 -261.15 C39.86 -301.62, 15.76 -285.81, 9.74 -290.95 M-0.34 1.02 C8.14 -6.95, 42.71 -2.6, 50.91 -46.62 C59.11 -90.64, 55.71 -221.98, 48.87 -263.08 C42.02 -304.19, 16.52 -288.43, 9.86 -293.24" stroke="#d9480f" stroke-width="1" fill="none"></path></g><g transform="translate(1217.379901960784 486.5) rotate(0 27.682761177618204 -146.1084028948865)"><path d="M31.01 -301.1 C25.7 -298.63, 20.26 -295.97, 10.71 -292.83 M33.13 -298.76 C27.61 -298.2, 21.54 -295.82, 9.07 -293.41" stroke="#d9480f" stroke-width="1" fill="none"></path></g><g transform="translate(1217.379901960784 486.5) rotate(0 27.682761177618204 -146.1084028948865)"><path d="M29.62 -284.95 C24.65 -287.36, 19.63 -289.57, 10.71 -292.83 M31.74 -282.6 C26.65 -286.14, 20.93 -287.86, 9.07 -293.41" stroke="#d9480f" stroke-width="1" fill="none"></path></g></g><g transform="translate(1082.379901960784 564.5) rotate(0 51.5 18)"><text x="0" y="25" font-family="Virgil, Segoe UI Emoji" font-size="28px" fill="#5c940d" text-anchor="start" style="white-space: pre;" direction="ltr">app.out</text></g><g transform="translate(1091.379901960784 13.5) rotate(0 51.5 18)"><text x="0" y="25" font-family="Virgil, Segoe UI Emoji" font-size="28px" fill="#0b7285" text-anchor="start" style="white-space: pre;" direction="ltr">libv2.so</text></g><g stroke-linecap="round" transform="translate(1281.129901960784 294) rotate(0 18.49509803921569 19.25)"><path d="M21.97 0.67 C25.73 1.45, 30.89 4.97, 33.51 8.12 C36.12 11.28, 37.82 15.53, 37.67 19.61 C37.52 23.69, 35.52 29.52, 32.6 32.61 C29.69 35.7, 24.35 37.7, 20.19 38.16 C16.03 38.61, 10.89 37.45, 7.62 35.34 C4.36 33.23, 1.66 29.47, 0.62 25.48 C-0.43 21.49, -0.29 15.33, 1.36 11.4 C3 7.48, 6.64 3.55, 10.47 1.93 C14.29 0.32, 21.41 1.5, 24.32 1.7 C27.23 1.91, 27.86 3, 27.91 3.16 M25.56 1.4 C29.28 2.44, 34.11 5.88, 35.75 9.39 C37.38 12.9, 36.13 18.52, 35.36 22.45 C34.6 26.39, 34.07 30.57, 31.16 33.02 C28.25 35.47, 22.24 36.82, 17.9 37.13 C13.57 37.45, 8.23 37.44, 5.15 34.9 C2.07 32.36, -0.2 26.03, -0.57 21.89 C-0.94 17.75, 0.85 13.58, 2.93 10.06 C5.01 6.53, 8.31 2.29, 11.9 0.73 C15.5 -0.82, 22.47 0.41, 24.5 0.75 C26.53 1.09, 23.94 2.55, 24.06 2.8" stroke="#d9480f" stroke-width="1" fill="none"></path></g><g stroke-linecap="round" transform="translate(1291.3256258176334 306.59164535379375) rotate(0 1.9394714407502534 2.088661551577161)"><path d="M3.88 2.09 C3.88 2.21, 3.87 2.33, 3.85 2.45 C3.83 2.57, 3.8 2.69, 3.76 2.8 C3.72 2.92, 3.68 3.03, 3.62 3.13 C3.56 3.24, 3.5 3.34, 3.43 3.43 C3.35 3.52, 3.27 3.61, 3.19 3.69 C3.1 3.77, 3.01 3.84, 2.91 3.9 C2.81 3.96, 2.71 4.01, 2.6 4.05 C2.5 4.09, 2.39 4.12, 2.28 4.15 C2.17 4.17, 2.05 4.18, 1.94 4.18 C1.83 4.18, 1.71 4.17, 1.6 4.15 C1.49 4.12, 1.38 4.09, 1.28 4.05 C1.17 4.01, 1.07 3.96, 0.97 3.9 C0.87 3.84, 0.78 3.77, 0.69 3.69 C0.61 3.61, 0.53 3.52, 0.45 3.43 C0.38 3.34, 0.32 3.24, 0.26 3.13 C0.2 3.03, 0.16 2.92, 0.12 2.8 C0.08 2.69, 0.05 2.57, 0.03 2.45 C0.01 2.33, 0 2.21, 0 2.09 C0 1.97, 0.01 1.85, 0.03 1.73 C0.05 1.61, 0.08 1.49, 0.12 1.37 C0.16 1.26, 0.2 1.15, 0.26 1.04 C0.32 0.94, 0.38 0.84, 0.45 0.75 C0.53 0.65, 0.61 0.57, 0.69 0.49 C0.78 0.41, 0.87 0.34, 0.97 0.28 C1.07 0.22, 1.17 0.17, 1.28 0.13 C1.38 0.08, 1.49 0.05, 1.6 0.03 C1.71 0.01, 1.83 0, 1.94 0 C2.05 0, 2.17 0.01, 2.28 0.03 C2.39 0.05, 2.5 0.08, 2.6 0.13 C2.71 0.17, 2.81 0.22, 2.91 0.28 C3.01 0.34, 3.1 0.41, 3.19 0.49 C3.27 0.57, 3.35 0.65, 3.43 0.75 C3.5 0.84, 3.56 0.94, 3.62 1.04 C3.68 1.15, 3.72 1.26, 3.76 1.37 C3.8 1.49, 3.83 1.61, 3.85 1.73 C3.87 1.85, 3.87 2.03, 3.88 2.09 C3.88 2.15, 3.88 2.03, 3.88 2.09" stroke="#d9480f" stroke-width="1" fill="none"></path></g><g stroke-linecap="round" transform="translate(1302.9802855924981 306.6811594202899) rotate(0 1.9394714407502534 2.088661551577161)"><path d="M3.88 2.09 C3.88 2.21, 3.87 2.33, 3.85 2.45 C3.83 2.57, 3.8 2.69, 3.76 2.8 C3.72 2.92, 3.68 3.03, 3.62 3.13 C3.56 3.24, 3.5 3.34, 3.43 3.43 C3.35 3.52, 3.27 3.61, 3.19 3.69 C3.1 3.77, 3.01 3.84, 2.91 3.9 C2.81 3.96, 2.71 4.01, 2.6 4.05 C2.5 4.09, 2.39 4.12, 2.28 4.15 C2.17 4.17, 2.05 4.18, 1.94 4.18 C1.83 4.18, 1.71 4.17, 1.6 4.15 C1.49 4.12, 1.38 4.09, 1.28 4.05 C1.17 4.01, 1.07 3.96, 0.97 3.9 C0.87 3.84, 0.78 3.77, 0.69 3.69 C0.61 3.61, 0.53 3.52, 0.45 3.43 C0.38 3.34, 0.32 3.24, 0.26 3.13 C0.2 3.03, 0.16 2.92, 0.12 2.8 C0.08 2.69, 0.05 2.57, 0.03 2.45 C0.01 2.33, 0 2.21, 0 2.09 C0 1.97, 0.01 1.85, 0.03 1.73 C0.05 1.61, 0.08 1.49, 0.12 1.37 C0.16 1.26, 0.2 1.15, 0.26 1.04 C0.32 0.94, 0.38 0.84, 0.45 0.75 C0.53 0.65, 0.61 0.57, 0.69 0.49 C0.78 0.41, 0.87 0.34, 0.97 0.28 C1.07 0.22, 1.17 0.17, 1.28 0.13 C1.38 0.08, 1.49 0.05, 1.6 0.03 C1.71 0.01, 1.83 0, 1.94 0 C2.05 0, 2.17 0.01, 2.28 0.03 C2.39 0.05, 2.5 0.08, 2.6 0.13 C2.71 0.17, 2.81 0.22, 2.91 0.28 C3.01 0.34, 3.1 0.41, 3.19 0.49 C3.27 0.57, 3.35 0.65, 3.43 0.75 C3.5 0.84, 3.56 0.94, 3.62 1.04 C3.68 1.15, 3.72 1.26, 3.76 1.37 C3.8 1.49, 3.83 1.61, 3.85 1.73 C3.87 1.85, 3.87 2.03, 3.88 2.09 C3.88 2.15, 3.88 2.03, 3.88 2.09" stroke="#d9480f" stroke-width="1" fill="none"></path></g><g stroke-linecap="round"><g transform="translate(1308.8506609639176 322.9935531989562) rotate(0 -8.145334094485065 -2.6729156852240976)" fill-rule="evenodd"><path d="M0 0 L-6.25 -1.07 L-16.27 -0.17 L-13.11 -3.05 L-8.17 -5.38 L-3.58 -3.01 L0 0" stroke="none" stroke-width="0" fill="#ffffff" fill-rule="evenodd"></path><path d="M0 0 C-1.04 -0.18, -4.55 -0.89, -6.25 -1.07 C-7.94 -1.25, -8.51 -1.21, -10.18 -1.06 C-11.85 -0.91, -16.61 0.55, -16.27 -0.17 C-15.94 -0.89, -10.88 -5.4, -8.17 -5.38 C-5.45 -5.35, -1.36 -0.9, 0 0 M0 0 C-1.04 -0.18, -4.55 -0.89, -6.25 -1.07 C-7.94 -1.25, -8.51 -1.21, -10.18 -1.06 C-11.85 -0.91, -16.61 0.55, -16.27 -0.17 C-15.94 -0.89, -10.88 -5.4, -8.17 -5.38 C-5.45 -5.35, -1.36 -0.9, 0 0" stroke="#d9480f" stroke-width="1" fill="none"></path></g></g><g transform="translate(952.8799019607843 312.25) rotate(0 33 10)"><text x="0" y="14" font-family="Virgil, Segoe UI Emoji" font-size="16px" fill="#000000" text-anchor="start" style="white-space: pre;" direction="ltr">0x2000</text></g><g transform="translate(955.8799019607843 184.75) rotate(0 32.5 10)"><text x="0" y="14" font-family="Virgil, Segoe UI Emoji" font-size="16px" fill="#000000" text-anchor="start" style="white-space: pre;" direction="ltr">0x4000</text></g><g transform="translate(917.3799019607843 85) rotate(0 56.5 18)"><text x="0" y="25" font-family="Virgil, Segoe UI Emoji" font-size="28px" fill="#d9480f" text-anchor="start" style="white-space: pre;" direction="ltr">0x6000</text></g><g stroke-opacity="0.3" fill-opacity="0.3" transform="translate(347.5 579) rotate(0 64.5 12.5)"><text x="0" y="18" font-family="Virgil, Segoe UI Emoji" font-size="20px" fill="#d9480f" text-anchor="start" style="white-space: pre;" direction="ltr">@hemashushu</text></g><g stroke-linecap="round" transform="translate(1051.629901960784 172.5) rotate(0 85.25 38.5)"><path d="M17.51 -1.69 L151.08 -1.22 L160.96 0.78 L168.65 7.93 L169.27 13.81 L170.97 58.51 L170.59 67.55 L162.16 75.14 L152.06 75.43 L18.91 75.02 L10.46 75.27 L5.57 72.14 L-0.79 63.41 L-0.25 13.42 L5.77 6.19 L11.72 1.79 L18.51 1.49" stroke="none" stroke-width="0" fill="#ffffff"></path><path d="M19.25 0 M19.25 0 C61.43 1.07, 102.57 -1.99, 151.25 0 M19.25 0 C53.68 0.2, 87.56 1.9, 151.25 0 M151.25 0 C163.04 -0.36, 170.81 7.5, 170.5 19.25 M151.25 0 C163.06 -0.43, 169.4 5.55, 170.5 19.25 M170.5 19.25 C169.63 29.27, 172.74 37.4, 170.5 57.75 M170.5 19.25 C171.65 32.37, 170.21 46.35, 170.5 57.75 M170.5 57.75 C168.61 71.89, 165.29 77.09, 151.25 77 M170.5 57.75 C170.59 69.89, 164.39 75.67, 151.25 77 M151.25 77 C121.94 75.87, 90.9 75.91, 19.25 77 M151.25 77 C111.76 75.61, 73.53 75.6, 19.25 77 M19.25 77 C7.04 76, -1.95 70.33, 0 57.75 M19.25 77 C5.2 74.98, -1.26 71.18, 0 57.75 M0 57.75 C-0.15 45.73, -1.32 35.67, 0 19.25 M0 57.75 C-0.97 44.47, 0.23 29.01, 0 19.25 M0 19.25 C-0.83 8.4, 5.3 1.66, 19.25 0 M0 19.25 C-0.93 5.32, 6.34 -0.69, 19.25 0" stroke="#0b7285" stroke-width="1" fill="none"></path></g><g transform="translate(1063 185.5) rotate(0 72 30)"><text x="0" y="14" font-family="Virgil, Segoe UI Emoji" font-size="16px" fill="#0b7285" text-anchor="start" style="white-space: pre;" direction="ltr">sub:</text><text x="0" y="34" font-family="Virgil, Segoe UI Emoji" font-size="16px" fill="#0b7285" text-anchor="start" style="white-space: pre;" direction="ltr">    addi sp,sp,-32</text><text x="0" y="54" font-family="Virgil, Segoe UI Emoji" font-size="16px" fill="#0b7285" text-anchor="start" style="white-space: pre;" direction="ltr">    ......</text></g><g stroke-linecap="round" transform="translate(111.5 83) rotate(0 84 36)"><path d="M18.71 -1.43 L148.6 0.59 L156.4 1.6 L163.69 4.39 L168.88 14.51 L165 62.74 L159.23 69.25 L150.49 70.31 L16.82 72.26 L9.79 71.03 L5.66 68.42 L-1.29 59.74 L-0.76 12.48 L4.37 3.14 L9.36 -0.2 L19.42 -1.06" stroke="none" stroke-width="0" fill="#ffffff"></path><path d="M18 0 M18 0 C58.88 -2.56, 100.14 -2.23, 150 0 M18 0 C46.74 -0.16, 77.42 0.53, 150 0 M150 0 C161.59 -1.43, 169.46 6.41, 168 18 M150 0 C163.55 0.45, 167.11 7.25, 168 18 M168 18 C167.94 31.35, 167.32 43.67, 168 54 M168 18 C167.18 27.23, 168.17 36.77, 168 54 M168 54 C166.97 67.5, 161.79 71.8, 150 72 M168 54 C167.99 65.85, 164.24 73.01, 150 72 M150 72 C107.22 71.25, 63.83 73.01, 18 72 M150 72 C107.76 71.37, 66.23 72.53, 18 72 M18 72 C7.46 70.4, -0.41 65.19, 0 54 M18 72 C7.35 73.13, -0.2 65.7, 0 54 M0 54 C0.42 48.46, -1.7 39.92, 0 18 M0 54 C0.1 46.66, 0.26 38.09, 0 18 M0 18 C0.82 7.45, 5.27 -1.14, 18 0 M0 18 C-1.26 6.22, 5.3 0.45, 18 0" stroke="#5f3dc4" stroke-width="1" fill="none"></path></g><g transform="translate(116.5 89) rotate(0 72 30)"><text x="0" y="14" font-family="Virgil, Segoe UI Emoji" font-size="16px" fill="#5f3dc4" text-anchor="start" style="white-space: pre;" direction="ltr">add:</text><text x="0" y="34" font-family="Virgil, Segoe UI Emoji" font-size="16px" fill="#5f3dc4" text-anchor="start" style="white-space: pre;" direction="ltr">    addi sp,sp,-32</text><text x="0" y="54" font-family="Virgil, Segoe UI Emoji" font-size="16px" fill="#5f3dc4" text-anchor="start" style="white-space: pre;" direction="ltr">    ......</text></g><g stroke-linecap="round" transform="translate(573 87.5) rotate(0 85 36)"><path d="M19.79 -0.82 L153.26 -0.1 L157.9 -0.02 L165.01 4.86 L170.55 13.23 L167.37 61.04 L161.05 71.36 L151.91 70.65 L16.76 72.44 L11.69 70.39 L3.55 68.22 L-0.25 57.01 L0.54 15.46 L6.25 4.35 L8.98 2.74 L16.72 -1.58" stroke="none" stroke-width="0" fill="#ffffff"></path><path d="M18 0 M18 0 C61.92 1.34, 105.05 0.16, 152 0 M18 0 C62.37 0.81, 107.16 0.13, 152 0 M152 0 C163.01 -1.76, 168.26 6.54, 170 18 M152 0 C163.34 0.23, 169.9 8.18, 170 18 M170 18 C170.17 30.73, 169.63 45.67, 170 54 M170 18 C169.57 28.21, 170.67 38.51, 170 54 M170 54 C168.44 67.53, 164.52 71.53, 152 72 M170 54 C170.38 66.36, 165.95 72.7, 152 72 M152 72 C113.82 72.36, 78.13 72.82, 18 72 M152 72 C112.49 70.99, 73.97 72.45, 18 72 M18 72 C5.56 72.29, -1.7 64.53, 0 54 M18 72 C6.17 73.81, 1.75 64.87, 0 54 M0 54 C-0.03 47.59, -1.53 39.23, 0 18 M0 54 C0.82 46.33, 0.72 39.2, 0 18 M0 18 C1.06 5.49, 7.73 -0.21, 18 0 M0 18 C-1.73 4.23, 6.65 0.88, 18 0" stroke="#5f3dc4" stroke-width="1" fill="none"></path></g><g transform="translate(578 93.5) rotate(0 72 30)"><text x="0" y="14" font-family="Virgil, Segoe UI Emoji" font-size="16px" fill="#5f3dc4" text-anchor="start" style="white-space: pre;" direction="ltr">add:</text><text x="0" y="34" font-family="Virgil, Segoe UI Emoji" font-size="16px" fill="#5f3dc4" text-anchor="start" style="white-space: pre;" direction="ltr">    addi sp,sp,-32</text><text x="0" y="54" font-family="Virgil, Segoe UI Emoji" font-size="16px" fill="#5f3dc4" text-anchor="start" style="white-space: pre;" direction="ltr">    ......</text></g><g stroke-linecap="round" transform="translate(1054.5 87.5) rotate(0 84 36)"><path d="M17.15 -0.43 L151.83 -1.99 L156.93 0.48 L163.01 4.24 L166.61 13.48 L166.48 61.36 L161.4 69.83 L150.22 71.93 L17.6 73.43 L10.75 71.95 L4.99 68.85 L-0.51 56.52 L1.61 12.68 L4.06 4.8 L10.65 0.33 L18.39 -0.87" stroke="none" stroke-width="0" fill="#ffffff"></path><path d="M18 0 M18 0 C48.66 -0.72, 79.28 -2.87, 150 0 M18 0 C58.05 -0.13, 98.84 -0.43, 150 0 M150 0 C163.49 0.75, 166.54 7.68, 168 18 M150 0 C162.07 1.71, 166.74 7.7, 168 18 M168 18 C169.84 31.3, 168.73 47.66, 168 54 M168 18 C169.02 31.21, 167.86 45.6, 168 54 M168 54 C168.58 67.94, 161.26 70.59, 150 72 M168 54 C166.22 65.23, 164.16 72.11, 150 72 M150 72 C112.72 70.41, 76.81 70.85, 18 72 M150 72 C114.97 70.95, 80.83 72.05, 18 72 M18 72 C7.28 70.32, 0.08 65.92, 0 54 M18 72 C5.78 73.84, -0.89 66.85, 0 54 M0 54 C1.38 48.24, 0.16 38.95, 0 18 M0 54 C-0.42 43.6, -1.13 33.21, 0 18 M0 18 C-1.77 6.7, 6.02 -0.2, 18 0 M0 18 C-0.48 4.53, 7.05 1.23, 18 0" stroke="#0b7285" stroke-width="1" fill="none"></path></g><g transform="translate(1059.5 93.5) rotate(0 72 30)"><text x="0" y="14" font-family="Virgil, Segoe UI Emoji" font-size="16px" fill="#0b7285" text-anchor="start" style="white-space: pre;" direction="ltr">add:</text><text x="0" y="34" font-family="Virgil, Segoe UI Emoji" font-size="16px" fill="#0b7285" text-anchor="start" style="white-space: pre;" direction="ltr">    addi sp,sp,-32</text><text x="0" y="54" font-family="Virgil, Segoe UI Emoji" font-size="16px" fill="#0b7285" text-anchor="start" style="white-space: pre;" direction="ltr">    ......</text></g><g transform="translate(10 172) rotate(0 33 10)"><text x="0" y="14" font-family="Virgil, Segoe UI Emoji" font-size="16px" fill="#000000" text-anchor="start" style="white-space: pre;" direction="ltr">0x3000</text></g><g stroke-linecap="round" transform="translate(573.25 173.5) rotate(0 85.25 38.5)"><path d="M18.21 0.85 L153.17 -1.11 L161.09 -0.75 L166.33 8.15 L170.81 14.53 L171.11 58.93 L167.63 64.82 L162.83 74.23 L149.96 75.36 L18.56 75.46 L9.03 75.58 L4.19 70.65 L-0.07 61.23 L0.1 14.53 L2.97 5.92 L12.48 -0.32 L18.53 -1.46" stroke="none" stroke-width="0" fill="#ffffff"></path><path d="M19.25 0 M19.25 0 C68.57 0.12, 117.1 -1.51, 151.25 0 M19.25 0 C61.34 0.25, 105.01 0.85, 151.25 0 M151.25 0 C165.91 -1.25, 170.71 6.35, 170.5 19.25 M151.25 0 C164.67 0.46, 171.16 6.36, 170.5 19.25 M170.5 19.25 C172.68 29.12, 172 43.43, 170.5 57.75 M170.5 19.25 C170.43 27.94, 170.59 39.08, 170.5 57.75 M170.5 57.75 C171.73 70.89, 163.8 76.99, 151.25 77 M170.5 57.75 C170.99 72.87, 165.11 78.68, 151.25 77 M151.25 77 C119.97 78.99, 86.25 77.53, 19.25 77 M151.25 77 C105.81 76.12, 60.83 76.8, 19.25 77 M19.25 77 C7.84 76.73, -0.33 71.32, 0 57.75 M19.25 77 C7.5 78.11, -0.88 69.56, 0 57.75 M0 57.75 C1.87 43.77, 0.95 30.98, 0 19.25 M0 57.75 C1.02 46.34, -0.32 33.23, 0 19.25 M0 19.25 C-1.09 8.22, 6.93 -0.17, 19.25 0 M0 19.25 C1.52 6.3, 4.87 -1.77, 19.25 0" stroke="#5f3dc4" stroke-width="1" fill="none"></path></g><g transform="translate(584.6200980392159 186.5) rotate(0 72 30)"><text x="0" y="14" font-family="Virgil, Segoe UI Emoji" font-size="16px" fill="#5f3dc4" text-anchor="start" style="white-space: pre;" direction="ltr">another_function:</text><text x="0" y="34" font-family="Virgil, Segoe UI Emoji" font-size="16px" fill="#5f3dc4" text-anchor="start" style="white-space: pre;" direction="ltr">    addi sp,sp,-32</text><text x="0" y="54" font-family="Virgil, Segoe UI Emoji" font-size="16px" fill="#5f3dc4" text-anchor="start" style="white-space: pre;" direction="ltr">    ......</text></g><g stroke-linecap="round" transform="translate(111.25 169.5) rotate(0 85.24999999999994 38.5)"><path d="M20.89 0.24 L150.88 0.35 L158.22 0.33 L167.04 8.86 L170.71 14.96 L171.29 56.5 L171.13 67.18 L161.38 75.77 L153.19 77.32 L17.57 77.77 L10.27 76.14 L5.8 72.42 L-1.61 62.84 L-0.71 16.53 L5.6 4.7 L9.9 0.96 L18.87 -1.51" stroke="none" stroke-width="0" fill="#ffffff"></path><path d="M19.25 0 M19.25 0 C59.53 -2.01, 99.65 -1.48, 151.25 0 M19.25 0 C66.53 -2.18, 112.11 -0.7, 151.25 0 M151.25 0 C162.1 0.91, 171.86 5.81, 170.5 19.25 M151.25 0 C162.89 -2.24, 170.68 5.16, 170.5 19.25 M170.5 19.25 C170.9 31.63, 170.66 43.72, 170.5 57.75 M170.5 19.25 C169.79 32.61, 170.73 45.48, 170.5 57.75 M170.5 57.75 C168.76 71.59, 164.55 76.26, 151.25 77 M170.5 57.75 C171.23 68.63, 166.2 79.17, 151.25 77 M151.25 77 C122.94 75.48, 97.9 74.98, 19.25 77 M151.25 77 C120.55 78.38, 90.56 78.16, 19.25 77 M19.25 77 C7.81 76.53, -0.66 70.65, 0 57.75 M19.25 77 C5.22 76.04, 1.42 71.91, 0 57.75 M0 57.75 C-1.7 46.36, -0.27 32.93, 0 19.25 M0 57.75 C0.37 45.14, 0.94 30.87, 0 19.25 M0 19.25 C-0.28 6.6, 4.95 -1, 19.25 0 M0 19.25 C-1.4 6.72, 8.2 1.9, 19.25 0" stroke="#5f3dc4" stroke-width="1" fill="none"></path></g><g transform="translate(122.62009803921592 182.5) rotate(0 72 30)"><text x="0" y="14" font-family="Virgil, Segoe UI Emoji" font-size="16px" fill="#5f3dc4" text-anchor="start" style="white-space: pre;" direction="ltr">another_function:</text><text x="0" y="34" font-family="Virgil, Segoe UI Emoji" font-size="16px" fill="#5f3dc4" text-anchor="start" style="white-space: pre;" direction="ltr">    addi sp,sp,-32</text><text x="0" y="54" font-family="Virgil, Segoe UI Emoji" font-size="16px" fill="#5f3dc4" text-anchor="start" style="white-space: pre;" direction="ltr">    ......</text></g><g stroke-linecap="round" transform="translate(339.5 288) rotate(0 19.45588235294116 20.25)"><path d="M24.42 1.09 C28.51 1.83, 33.03 5.55, 35.48 8.99 C37.92 12.42, 39.4 17.4, 39.08 21.7 C38.77 26, 36.54 31.6, 33.59 34.81 C30.63 38.03, 25.41 40.52, 21.36 40.99 C17.3 41.45, 12.7 40.11, 9.24 37.59 C5.78 35.07, 1.79 30.29, 0.62 25.86 C-0.55 21.44, 0.48 15.07, 2.23 11.06 C3.98 7.06, 7.18 3.6, 11.1 1.83 C15.02 0.05, 23.01 0.4, 25.77 0.4 C28.52 0.41, 27.65 1.58, 27.64 1.88 M12.85 2.24 C16.3 0.63, 22.35 0.21, 26.3 1.79 C30.24 3.38, 34.43 8.09, 36.51 11.75 C38.59 15.41, 39.55 19.64, 38.78 23.76 C38.01 27.89, 35.32 33.77, 31.87 36.49 C28.42 39.22, 22.41 40.39, 18.07 40.09 C13.72 39.79, 8.71 37.75, 5.81 34.68 C2.91 31.62, 0.98 25.88, 0.66 21.71 C0.35 17.53, 1.68 12.96, 3.91 9.63 C6.14 6.3, 12.1 2.91, 14.06 1.71 C16.01 0.51, 15.33 2.12, 15.65 2.44" stroke="#5c940d" stroke-width="1" fill="none"></path></g><g stroke-linecap="round" transform="translate(350.46384561729826 301.24575680074395) rotate(0 2.0402232039060664 2.1971634503603923)"><path d="M4.08 2.2 C4.08 2.32, 4.07 2.45, 4.05 2.58 C4.03 2.7, 4 2.83, 3.96 2.95 C3.92 3.07, 3.87 3.19, 3.81 3.3 C3.75 3.41, 3.68 3.51, 3.6 3.61 C3.53 3.71, 3.44 3.8, 3.35 3.88 C3.26 3.96, 3.16 4.04, 3.06 4.1 C2.96 4.16, 2.85 4.22, 2.74 4.26 C2.63 4.31, 2.51 4.34, 2.39 4.36 C2.28 4.38, 2.16 4.39, 2.04 4.39 C1.92 4.39, 1.8 4.38, 1.69 4.36 C1.57 4.34, 1.45 4.31, 1.34 4.26 C1.23 4.22, 1.12 4.16, 1.02 4.1 C0.92 4.04, 0.82 3.96, 0.73 3.88 C0.64 3.8, 0.55 3.71, 0.48 3.61 C0.4 3.51, 0.33 3.41, 0.27 3.3 C0.21 3.19, 0.16 3.07, 0.12 2.95 C0.08 2.83, 0.05 2.7, 0.03 2.58 C0.01 2.45, 0 2.32, 0 2.2 C0 2.07, 0.01 1.94, 0.03 1.82 C0.05 1.69, 0.08 1.57, 0.12 1.45 C0.16 1.33, 0.21 1.21, 0.27 1.1 C0.33 0.99, 0.4 0.88, 0.48 0.78 C0.55 0.69, 0.64 0.6, 0.73 0.51 C0.82 0.43, 0.92 0.36, 1.02 0.29 C1.12 0.23, 1.23 0.18, 1.34 0.13 C1.45 0.09, 1.57 0.06, 1.69 0.03 C1.8 0.01, 1.92 0, 2.04 0 C2.16 0, 2.28 0.01, 2.39 0.03 C2.51 0.06, 2.63 0.09, 2.74 0.13 C2.85 0.18, 2.96 0.23, 3.06 0.29 C3.16 0.36, 3.26 0.43, 3.35 0.51 C3.44 0.6, 3.53 0.69, 3.6 0.78 C3.68 0.88, 3.75 0.99, 3.81 1.1 C3.87 1.21, 3.92 1.33, 3.96 1.45 C4 1.57, 4.03 1.69, 4.05 1.82 C4.07 1.94, 4.08 2.13, 4.08 2.2 C4.09 2.26, 4.09 2.13, 4.08 2.2" stroke="#5c940d" stroke-width="1" fill="none"></path></g><g stroke-linecap="round" transform="translate(362.4854684956987 301.33992094861657) rotate(0 2.0402232039060664 2.1971634503603923)"><path d="M4.08 2.2 C4.08 2.32, 4.07 2.45, 4.05 2.58 C4.03 2.7, 4 2.83, 3.96 2.95 C3.92 3.07, 3.87 3.19, 3.81 3.3 C3.75 3.41, 3.68 3.51, 3.6 3.61 C3.53 3.71, 3.44 3.8, 3.35 3.88 C3.26 3.96, 3.16 4.04, 3.06 4.1 C2.96 4.16, 2.85 4.22, 2.74 4.26 C2.63 4.31, 2.51 4.34, 2.39 4.36 C2.28 4.38, 2.16 4.39, 2.04 4.39 C1.92 4.39, 1.8 4.38, 1.69 4.36 C1.57 4.34, 1.45 4.31, 1.34 4.26 C1.23 4.22, 1.12 4.16, 1.02 4.1 C0.92 4.04, 0.82 3.96, 0.73 3.88 C0.64 3.8, 0.55 3.71, 0.48 3.61 C0.4 3.51, 0.33 3.41, 0.27 3.3 C0.21 3.19, 0.16 3.07, 0.12 2.95 C0.08 2.83, 0.05 2.7, 0.03 2.58 C0.01 2.45, 0 2.32, 0 2.2 C0 2.07, 0.01 1.94, 0.03 1.82 C0.05 1.69, 0.08 1.57, 0.12 1.45 C0.16 1.33, 0.21 1.21, 0.27 1.1 C0.33 0.99, 0.4 0.88, 0.48 0.78 C0.55 0.69, 0.64 0.6, 0.73 0.51 C0.82 0.43, 0.92 0.36, 1.02 0.29 C1.12 0.23, 1.23 0.18, 1.34 0.13 C1.45 0.09, 1.57 0.06, 1.69 0.03 C1.8 0.01, 1.92 0, 2.04 0 C2.16 0, 2.28 0.01, 2.39 0.03 C2.51 0.06, 2.63 0.09, 2.74 0.13 C2.85 0.18, 2.96 0.23, 3.06 0.29 C3.16 0.36, 3.26 0.43, 3.35 0.51 C3.44 0.6, 3.53 0.69, 3.6 0.78 C3.68 0.88, 3.75 0.99, 3.81 1.1 C3.87 1.21, 3.92 1.33, 3.96 1.45 C4 1.57, 4.03 1.69, 4.05 1.82 C4.07 1.94, 4.08 2.13, 4.08 2.2 C4.09 2.26, 4.09 2.13, 4.08 2.2" stroke="#5c940d" stroke-width="1" fill="none"></path></g><g stroke-linecap="round"><g transform="translate(370.07812198620695 313.68749608289573) rotate(0 -9.931224618676765 3.467548038183139)" fill-rule="evenodd"><path d="M0 0 L-7.62 1.39 L-19.84 0.22 L-15.99 3.96 L-9.96 6.98 L-4.36 3.91 L0 0" stroke="none" stroke-width="0" fill="#ffffff" fill-rule="evenodd"></path><path d="M0 0 C-1.27 0.23, -5.55 1.16, -7.62 1.39 C-9.69 1.62, -10.37 1.57, -12.41 1.38 C-14.45 1.18, -20.25 -0.72, -19.84 0.22 C-19.43 1.15, -13.26 7.01, -9.96 6.98 C-6.65 6.94, -1.66 1.16, 0 0 M0 0 C-1.27 0.23, -5.55 1.16, -7.62 1.39 C-9.69 1.62, -10.37 1.57, -12.41 1.38 C-14.45 1.18, -20.25 -0.72, -19.84 0.22 C-19.43 1.15, -13.26 7.01, -9.96 6.98 C-6.65 6.94, -1.66 1.16, 0 0" stroke="#5c940d" stroke-width="1" fill="none"></path></g></g><g transform="translate(955.5 247) rotate(0 33 10)"><text x="0" y="14" font-family="Virgil, Segoe UI Emoji" font-size="16px" fill="#000000" text-anchor="start" style="white-space: pre;" direction="ltr">0x3000</text></g><g stroke-linecap="round" transform="translate(1052.75 259.5) rotate(0 85.25 38.5)"><path d="M17.8 0.46 L149.74 -1.6 L160.47 2.47 L169.33 5.61 L169.33 16.41 L170.14 58.03 L169.37 65.45 L164.71 75.18 L152.74 78.82 L20.36 77.98 L9.41 76.98 L6.21 72.97 L2.2 61.68 L-1.13 16.41 L4.15 3.56 L9.75 1.39 L17.38 -0.47" stroke="none" stroke-width="0" fill="#ffffff"></path><path d="M19.25 0 M19.25 0 C64.67 -1.04, 113.54 2.2, 151.25 0 M19.25 0 C69.66 0.16, 121.22 -0.28, 151.25 0 M151.25 0 C164.72 -0.04, 172.24 7.3, 170.5 19.25 M151.25 0 C163.84 1.09, 171.8 7.77, 170.5 19.25 M170.5 19.25 C169.51 36.27, 171.43 49.88, 170.5 57.75 M170.5 19.25 C169.75 32.83, 170.48 46.26, 170.5 57.75 M170.5 57.75 C169.81 72.15, 163.61 78.24, 151.25 77 M170.5 57.75 C170.4 68.37, 165.44 77.88, 151.25 77 M151.25 77 C121.17 78.16, 95.89 77.12, 19.25 77 M151.25 77 C109.05 75.64, 69.36 76.09, 19.25 77 M19.25 77 C6.08 76.79, 0.55 71.7, 0 57.75 M19.25 77 C7.41 78.06, -1.73 72.63, 0 57.75 M0 57.75 C1.14 44.74, -1.26 32.69, 0 19.25 M0 57.75 C0.1 44.47, 0.31 32.01, 0 19.25 M0 19.25 C0.93 7.75, 7.54 1.89, 19.25 0 M0 19.25 C1.15 6, 6.9 -0.96, 19.25 0" stroke="#0b7285" stroke-width="1" fill="none"></path></g><g transform="translate(1064.620098039216 272.5) rotate(0 72 30)"><text x="0" y="14" font-family="Virgil, Segoe UI Emoji" font-size="16px" fill="#0b7285" text-anchor="start" style="white-space: pre;" direction="ltr">another_function:</text><text x="0" y="34" font-family="Virgil, Segoe UI Emoji" font-size="16px" fill="#0b7285" text-anchor="start" style="white-space: pre;" direction="ltr">    addi sp,sp,-32</text><text x="0" y="54" font-family="Virgil, Segoe UI Emoji" font-size="16px" fill="#0b7285" text-anchor="start" style="white-space: pre;" direction="ltr">    ......</text></g></svg>