<svg version="1.1" xmlns="http://www.w3.org/2000/svg" viewBox="0 0 998 267.9665320972887" width="1996" height="535.9330641945774">
  <!-- svg-source:excalidraw -->
  
  <defs>
    <style>
      @font-face {
        font-family: "Virgil";
        src: url("https://excalidraw.com/Virgil.woff2");
      }
      @font-face {
        font-family: "Cascadia";
        src: url("https://excalidraw.com/Cascadia.woff2");
      }
    </style>
  </defs>
  <rect x="0" y="0" width="998" height="267.9665320972887" fill="#ffffff"></rect><g stroke-linecap="round" transform="translate(207 111.75) rotate(0 88 40.75)"><path d="M20.38 0 M20.38 0 C65.44 0, 110.5 0, 155.63 0 M20.38 0 C50.31 0, 80.24 0, 155.63 0 M155.63 0 C169.21 0, 176 6.79, 176 20.38 M155.63 0 C169.21 0, 176 6.79, 176 20.38 M176 20.38 C176 34.7, 176 49.02, 176 61.13 M176 20.38 C176 29.94, 176 39.5, 176 61.13 M176 61.13 C176 74.71, 169.21 81.5, 155.63 81.5 M176 61.13 C176 74.71, 169.21 81.5, 155.63 81.5 M155.63 81.5 C118.92 81.5, 82.21 81.5, 20.38 81.5 M155.63 81.5 C120.4 81.5, 85.18 81.5, 20.38 81.5 M20.38 81.5 C6.79 81.5, 0 74.71, 0 61.13 M20.38 81.5 C6.79 81.5, 0 74.71, 0 61.13 M0 61.13 C0 52.64, 0 44.16, 0 20.38 M0 61.13 C0 52.4, 0 43.67, 0 20.38 M0 20.38 C0 6.79, 6.79 0, 20.38 0 M0 20.38 C0 6.79, 6.79 0, 20.38 0" stroke="#862e9c" stroke-width="2" fill="none"></path></g><g transform="translate(250 128.25) rotate(0 44 25)"><text x="0" y="18" font-family="Virgil, Segoe UI Emoji" font-size="20px" fill="#862e9c" text-anchor="start" style="white-space: pre;" direction="ltr">XiaoXuan</text><text x="0" y="43" font-family="Virgil, Segoe UI Emoji" font-size="20px" fill="#862e9c" text-anchor="start" style="white-space: pre;" direction="ltr">Assembly</text></g><g stroke-linecap="round" transform="translate(10 135) rotate(0 72.25 19.82585751978891)"><path d="M9.91 0 M9.91 0 C56.39 -2.48, 98.28 2.28, 134.59 0 M9.91 0 C52.19 -0.66, 92.02 -0.16, 134.59 0 M134.59 0 C141.15 2.9, 143.61 5.95, 144.5 9.91 M134.59 0 C143.94 -2.54, 144.73 -0.7, 144.5 9.91 M144.5 9.91 C144 13.12, 144.44 19.47, 144.5 29.74 M144.5 9.91 C145.85 15.73, 146 19.33, 144.5 29.74 M144.5 29.74 C147.81 39.89, 138.25 40.97, 134.59 39.65 M144.5 29.74 C144.24 34.74, 139.35 35.9, 134.59 39.65 M134.59 39.65 C108.13 35.55, 73.01 35.33, 9.91 39.65 M134.59 39.65 C97.93 41.05, 62.45 41.85, 9.91 39.65 M9.91 39.65 C5.97 41.31, -1.36 39.42, 0 29.74 M9.91 39.65 C4.96 43.85, 2.73 31.79, 0 29.74 M0 29.74 C-2.77 24.42, -1.64 22.84, 0 9.91 M0 29.74 C-0.53 20.88, -1.12 13.87, 0 9.91 M0 9.91 C-3.43 4.49, 5.87 -0.13, 9.91 0 M0 9.91 C1.01 3.64, 2.23 -3.98, 9.91 0" stroke="#1864ab" stroke-width="2" fill="none"></path></g><g transform="translate(36.688654353562015 146.43799472295515) rotate(0 46.8957783641161 9.531662269129285)"><text x="0" y="13.063324538258573" font-family="Virgil, Segoe UI Emoji" font-size="15.25065963060686px" fill="#1864ab" text-anchor="start" style="white-space: pre;" direction="ltr">XiaoXuan IR</text></g><g stroke-linecap="round" transform="translate(517 10) rotate(0 88 40.75)"><path d="M20.38 0 M20.38 0 C53.73 1.08, 94.72 3.55, 155.63 0 M20.38 0 C66.04 -3.32, 106.04 -3.54, 155.63 0 M155.63 0 C171.42 2.01, 173.56 6.25, 176 20.38 M155.63 0 C166.48 -2.21, 175.82 10.83, 176 20.38 M176 20.38 C176.16 34.02, 171.83 54.11, 176 61.13 M176 20.38 C176.69 31.95, 178.17 44.82, 176 61.13 M176 61.13 C178.43 73.62, 165.81 85.11, 155.63 81.5 M176 61.13 C174.5 75.55, 168.8 81.61, 155.63 81.5 M155.63 81.5 C114.18 81.99, 81.43 84.28, 20.38 81.5 M155.63 81.5 C107.83 80.9, 58.53 79.74, 20.38 81.5 M20.38 81.5 C9.97 84.73, -3.4 71.21, 0 61.13 M20.38 81.5 C8.09 83.8, 1.27 74.55, 0 61.13 M0 61.13 C-0.44 46.41, -1.36 31.03, 0 20.38 M0 61.13 C1.87 45.25, -0.17 30.22, 0 20.38 M0 20.38 C-3.39 5.61, 9.65 1, 20.38 0 M0 20.38 C2.34 5.82, 6.52 2.12, 20.38 0" stroke="#0b7285" stroke-width="2" fill="none"></path></g><g transform="translate(560 26.5) rotate(0 47.5 25)"><text x="0" y="18" font-family="Virgil, Segoe UI Emoji" font-size="20px" fill="#0b7285" text-anchor="start" style="white-space: pre;" direction="ltr">XiaoXuan</text><text x="0" y="43" font-family="Virgil, Segoe UI Emoji" font-size="20px" fill="#0b7285" text-anchor="start" style="white-space: pre;" direction="ltr">Assembler</text></g><g stroke-linecap="round" transform="translate(845.5 91.25) rotate(0 71.25 34.25)"><path d="M70.1 1.09 C81.14 0.65, 96.79 0.27, 107.01 3.03 C117.24 5.79, 125.24 12.47, 131.45 17.66 C137.65 22.84, 144.31 28.75, 144.27 34.15 C144.23 39.56, 137.41 44.77, 131.2 50.07 C125 55.38, 116.82 62.63, 107.03 65.99 C97.24 69.34, 84.33 70.35, 72.45 70.18 C60.58 70.02, 46.54 68.26, 35.79 64.98 C25.03 61.69, 14 55.7, 7.93 50.48 C1.87 45.26, -0.61 39.59, -0.59 33.67 C-0.58 27.75, 1.63 19.84, 8.04 14.96 C14.45 10.09, 25.05 6.84, 37.86 4.4 C50.67 1.96, 75.25 0.84, 84.9 0.33 C94.55 -0.19, 96.19 0.75, 95.76 1.32 M95.89 3.44 C106.29 4.34, 115.94 7.83, 123.99 12.02 C132.04 16.22, 141.91 22.72, 144.21 28.6 C146.51 34.47, 142.51 41.52, 137.79 47.27 C133.07 53.02, 124.61 59.35, 115.9 63.1 C107.18 66.84, 96.97 69.28, 85.52 69.74 C74.06 70.2, 58.32 67.82, 47.17 65.85 C36.02 63.88, 26.25 61.97, 18.64 57.93 C11.03 53.89, 3.76 47.72, 1.51 41.62 C-0.74 35.51, 0.95 26.85, 5.13 21.3 C9.32 15.75, 17.61 12.19, 26.63 8.29 C35.66 4.4, 48.19 -1.33, 59.28 -2.06 C70.36 -2.8, 87.22 3.12, 93.12 3.88 C99.02 4.64, 95.12 2.4, 94.67 2.49" stroke="#1864ab" stroke-width="2" fill="none"></path></g><g transform="translate(857.75 113) rotate(0 59 12.5)"><text x="59" y="18" font-family="Virgil, Segoe UI Emoji" font-size="20px" fill="#1864ab" text-anchor="middle" style="white-space: pre;" direction="ltr">Object Files</text></g><g stroke-linecap="round" transform="translate(453 198.34823564593302) rotate(0 63.517543859649095 29.41295354864434)"><path d="M14.71 0 M14.71 0 C40.99 1.08, 69.64 0.83, 112.33 0 M14.71 0 C48.42 -0.96, 81.59 -0.7, 112.33 0 M112.33 0 C122.33 3.31, 123.54 7.38, 127.04 14.71 M112.33 0 C122.65 -4.04, 123.25 9.05, 127.04 14.71 M127.04 14.71 C128.97 24.37, 124.8 33.3, 127.04 44.12 M127.04 14.71 C127.85 26.22, 128.19 33.26, 127.04 44.12 M127.04 44.12 C127.72 56.23, 124.56 59.6, 112.33 58.83 M127.04 44.12 C124.62 54.96, 118.78 62.22, 112.33 58.83 M112.33 58.83 C83.38 62, 56.29 62.12, 14.71 58.83 M112.33 58.83 C91.39 58.15, 71.12 57.77, 14.71 58.83 M14.71 58.83 C3.34 54.96, 0.04 55.47, 0 44.12 M14.71 58.83 C3.09 59.86, -1.2 54.37, 0 44.12 M0 44.12 C0.23 32.37, -2.65 25.16, 0 14.71 M0 44.12 C1.17 35.22, -0.23 30.64, 0 14.71 M0 14.71 C-1.82 7.6, 2.14 -3.69, 14.71 0 M0 14.71 C0.45 0.67, 3.28 3.05, 14.71 0" stroke="#0b7285" stroke-width="2" fill="none"></path></g><g transform="translate(484.0369816586922 210.25777511961724) rotate(0 39.33756977671453 18.04475677830942)"><text x="0" y="13.04475677830941" font-family="Virgil, Segoe UI Emoji" font-size="14.435805422647528px" fill="#0b7285" text-anchor="start" style="white-space: pre;" direction="ltr">Traditional</text><text x="0" y="31.08951355661882" font-family="Virgil, Segoe UI Emoji" font-size="14.435805422647528px" fill="#0b7285" text-anchor="start" style="white-space: pre;" direction="ltr">Assembly</text></g><g stroke-linecap="round" transform="translate(646.4649122807018 199.140625) rotate(0 63.517543859649095 29.41295354864434)"><path d="M14.71 0 M14.71 0 C43.46 2.66, 70.32 1.12, 112.33 0 M14.71 0 C38.44 0.66, 65.5 1.45, 112.33 0 M112.33 0 C123.21 -0.87, 128.48 1.26, 127.04 14.71 M112.33 0 C123.15 1.43, 124.62 7.88, 127.04 14.71 M127.04 14.71 C126.64 30.18, 125.48 33.95, 127.04 44.12 M127.04 14.71 C128.06 26.23, 129.4 35.46, 127.04 44.12 M127.04 44.12 C125.19 53.82, 123.01 57.58, 112.33 58.83 M127.04 44.12 C124.41 57.67, 120.09 61.67, 112.33 58.83 M112.33 58.83 C86.31 59.6, 60.8 57.72, 14.71 58.83 M112.33 58.83 C90.68 59.41, 73.69 58.88, 14.71 58.83 M14.71 58.83 C8.3 62.01, -2.43 51.94, 0 44.12 M14.71 58.83 C6.13 57.37, -3.88 56.84, 0 44.12 M0 44.12 C1.91 40.72, 1.96 28.58, 0 14.71 M0 44.12 C-0.12 37.16, -0.14 25.64, 0 14.71 M0 14.71 C-2.58 7.01, 7.91 1.19, 14.71 0 M0 14.71 C0.81 8.65, 5.52 1.77, 14.71 0" stroke="#0b7285" stroke-width="2" fill="none"></path></g><g transform="translate(674.9460725677832 219.37791566985646) rotate(0 37.311004784688976 9.327751196172244)"><text x="0" y="12.655502392344498" font-family="Virgil, Segoe UI Emoji" font-size="14.435805422647528px" fill="#0b7285" text-anchor="start" style="white-space: pre;" direction="ltr">GCC/LLVM</text></g><g stroke-linecap="round"><g transform="translate(392.5 105.25) rotate(0 53.72686764519659 -26.02189871411771)"><path d="M-0.05 -2.19 C18.13 -11.08, 92.24 -46.44, 110.98 -54.84 M-3.52 2.8 C14.16 -5.65, 89.81 -43.54, 109 -52.21" stroke="#c92a2a" stroke-width="1" fill="none"></path></g><g transform="translate(392.5 105.25) rotate(0 53.72686764519659 -26.02189871411771)"><path d="M84.89 -30.09 C93.31 -35.95, 104.23 -43.53, 106.54 -55.48 M86.78 -32.28 C94.58 -37.02, 102.66 -41.78, 107.49 -50.89" stroke="#c92a2a" stroke-width="1" fill="none"></path></g><g transform="translate(392.5 105.25) rotate(0 53.72686764519659 -26.02189871411771)"><path d="M76.02 -48.59 C87.5 -47.66, 101.68 -48.45, 106.54 -55.48 M77.9 -50.78 C88.05 -49.75, 98.81 -48.91, 107.49 -50.89" stroke="#c92a2a" stroke-width="1" fill="none"></path></g></g><g stroke-linecap="round"><g transform="translate(706.25 50.69534819946469) rotate(0 62.54906949444978 30.184611074774786)"><path d="M-1.74 -2.11 C19.85 8.15, 105 48.38, 126.83 58.96 M2.52 2.91 C23.94 13.88, 103.43 53.46, 124.45 62.48" stroke="#c92a2a" stroke-width="1" fill="none"></path></g><g transform="translate(706.25 50.69534819946469) rotate(0 62.54906949444978 30.184611074774786)"><path d="M91.55 59.43 C100.35 63.79, 109.94 58.26, 127.1 60.39 M93.17 59.62 C103.09 60.36, 109.43 59.99, 124.03 63.4" stroke="#c92a2a" stroke-width="1" fill="none"></path></g><g transform="translate(706.25 50.69534819946469) rotate(0 62.54906949444978 30.184611074774786)"><path d="M100.25 40.85 C106.92 48.91, 114.72 47.19, 127.1 60.39 M101.87 41.03 C109.51 46.01, 113.86 49.86, 124.03 63.4" stroke="#c92a2a" stroke-width="1" fill="none"></path></g></g><g stroke-linecap="round"><g transform="translate(383.75 199.25) rotate(0 27.99662172354755 15.297217365130791)"><path d="M0.24 0.22 C9.56 5.27, 45.64 24.98, 54.93 30.2 M-1.09 -0.72 C8.67 4.48, 47.7 26.28, 57.09 31.31" stroke="#c92a2a" stroke-width="1" fill="none"></path></g><g transform="translate(383.75 199.25) rotate(0 27.99662172354755 15.297217365130791)"><path d="M27.8 24.97 C32.55 27.65, 41.22 29.49, 55.75 29.66 M27.89 27.59 C37.63 28.21, 46.65 30.28, 56.17 30.49" stroke="#c92a2a" stroke-width="1" fill="none"></path></g><g transform="translate(383.75 199.25) rotate(0 27.99662172354755 15.297217365130791)"><path d="M37.67 6.98 C40.25 13.6, 46.77 19.35, 55.75 29.66 M37.76 9.6 C43.99 16.25, 49.66 24.42, 56.17 30.49" stroke="#c92a2a" stroke-width="1" fill="none"></path></g></g><g stroke-linecap="round"><g transform="translate(588.25 225.75) rotate(0 26.662611917853383 -0.8813277133942563)"><path d="M0.9 -0.23 C9.95 -0.4, 44.98 -1.42, 53.42 -1.54 M-0.09 -1.39 C8.96 -1.37, 43.95 -0.65, 52.95 -0.36" stroke="#c92a2a" stroke-width="1" fill="none"></path></g><g transform="translate(588.25 225.75) rotate(0 26.662611917853383 -0.8813277133942563)"><path d="M27.69 9.52 C32.6 4.27, 39.23 4.41, 53.31 -2.14 M28.47 7.33 C33.04 6.33, 38.71 3.29, 53.4 0.49" stroke="#c92a2a" stroke-width="1" fill="none"></path></g><g transform="translate(588.25 225.75) rotate(0 26.662611917853383 -0.8813277133942563)"><path d="M28.14 -8.43 C32.87 -9.61, 39.4 -5.38, 53.31 -2.14 M28.92 -10.62 C33.38 -7.44, 38.95 -6.29, 53.4 0.49" stroke="#c92a2a" stroke-width="1" fill="none"></path></g></g><g stroke-linecap="round"><g transform="translate(781.25 226.17323826823542) rotate(0 29.165008468870155 -38.92380208831439)"><path d="M0.52 0.49 C10.11 -12.57, 47.13 -65.17, 56.7 -78.33 M-0.66 -0.3 C9.38 -13.24, 49.31 -64.41, 58.99 -77.32" stroke="#c92a2a" stroke-width="1" fill="none"></path></g><g transform="translate(781.25 226.17323826823542) rotate(0 29.165008468870155 -38.92380208831439)"><path d="M50.78 -50.04 C50.43 -54.63, 52.28 -63.48, 59.9 -75.62 M50.2 -49.62 C52.1 -57.5, 55.36 -66.71, 58.38 -77.98" stroke="#c92a2a" stroke-width="1" fill="none"></path></g><g transform="translate(781.25 226.17323826823542) rotate(0 29.165008468870155 -38.92380208831439)"><path d="M34.5 -62.53 C37.94 -64.28, 43.58 -70.22, 59.9 -75.62 M33.92 -62.12 C40.97 -65.88, 49.42 -71.1, 58.38 -77.98" stroke="#c92a2a" stroke-width="1" fill="none"></path></g></g><g stroke-linecap="round"><g transform="translate(163.75 153.92323826823542) rotate(0 14.668117491602857 -0.4803739343289095)"><path d="M0.77 -0.31 C5.59 -0.52, 24.72 -0.77, 29.62 -0.41 M-0.28 -1.51 C4.28 -1.69, 23.5 0.3, 28.47 0.56" stroke="#c92a2a" stroke-width="1" fill="none"></path></g><g transform="translate(163.75 153.92323826823542) rotate(0 14.668117491602857 -0.4803739343289095)"><path d="M13.62 4.08 C17.85 3.25, 25.84 2.08, 27.58 -0.82 M13.95 3.83 C16.48 3.1, 19.83 2.31, 28.58 0.81" stroke="#c92a2a" stroke-width="1" fill="none"></path></g><g transform="translate(163.75 153.92323826823542) rotate(0 14.668117491602857 -0.4803739343289095)"><path d="M14.44 -6.15 C18.44 -3.3, 26.14 -0.79, 27.58 -0.82 M14.77 -6.4 C17.07 -4.89, 20.24 -3.45, 28.58 0.81" stroke="#c92a2a" stroke-width="1" fill="none"></path></g></g></svg>