<svg version="1.1" xmlns="http://www.w3.org/2000/svg" viewBox="0 0 758.4803709111112 417.25" width="1516.9607418222224" height="834.5">
  <!-- svg-source:excalidraw -->
  
  <defs>
    <style>
      @font-face {
        font-family: "Virgil";
        src: url("https://excalidraw.com/Virgil.woff2");
      }
      @font-face {
        font-family: "Cascadia";
        src: url("https://excalidraw.com/Cascadia.woff2");
      }
    </style>
  </defs>
  <rect x="0" y="0" width="758.4803709111112" height="417.25" fill="#ffffff"></rect><g stroke-linecap="round" transform="translate(550.6335203969068 32.125) rotate(0 76.25 26.75)"><path d="M13.38 0 M13.38 0 C42.08 4.78, 69.28 0.52, 139.13 0 M13.38 0 C58.3 -2.95, 103.69 -0.34, 139.13 0 M139.13 0 C145.59 -0.54, 155.22 0.74, 152.5 13.38 M139.13 0 C143.91 -4.4, 154.59 7.67, 152.5 13.38 M152.5 13.38 C150.07 27.1, 150.39 34.86, 152.5 40.13 M152.5 13.38 C151.58 24.51, 153.67 33.66, 152.5 40.13 M152.5 40.13 C151.91 51.43, 146.42 54.58, 139.13 53.5 M152.5 40.13 C150.47 49.34, 147.67 54.6, 139.13 53.5 M139.13 53.5 C111.01 58.87, 82.78 55.6, 13.38 53.5 M139.13 53.5 C111.99 51.58, 84 53.96, 13.38 53.5 M13.38 53.5 C2.83 54.65, 2.58 49.07, 0 40.13 M13.38 53.5 C7.01 51.51, 2.57 53.1, 0 40.13 M0 40.13 C1.91 31.28, -3.15 20.06, 0 13.38 M0 40.13 C-0.63 32.68, 0.31 22.48, 0 13.38 M0 13.38 C1.13 4.26, 5.55 2, 13.38 0 M0 13.38 C3.94 6.36, -0.05 -1.98, 13.38 0" stroke="#e67700" stroke-width="2" fill="none"></path></g><g transform="translate(574.6335203969068 46.125) rotate(0 54 12.5)"><text x="0" y="18" font-family="Virgil, Segoe UI Emoji" font-size="20px" fill="#e67700" text-anchor="start" style="white-space: pre;" direction="ltr">Compilation</text></g><g stroke-linecap="round" transform="translate(259.13352039690676 170.875) rotate(0 88 20.75)"><path d="M10.37 0 M10.37 0 C49.01 1.27, 95.29 3.73, 165.63 0 M10.37 0 C62.51 -3.62, 108.99 -3.84, 165.63 0 M165.63 0 C174.76 2.01, 173.56 2.92, 176 10.37 M165.63 0 C169.81 -2.21, 175.82 7.49, 176 10.37 M176 10.37 C176.42 16.67, 172.09 29.41, 176 31.12 M176 10.37 C176.36 15.47, 177.84 21.86, 176 31.12 M176 31.12 C178.43 36.95, 169.15 45.11, 165.63 41.5 M176 31.12 C174.5 38.88, 172.13 41.61, 165.63 41.5 M165.63 41.5 C118.64 42, 80.36 44.3, 10.37 41.5 M165.63 41.5 C110.72 40.66, 54.33 39.5, 10.37 41.5 M10.37 41.5 C6.64 44.73, -3.4 34.54, 0 31.12 M10.37 41.5 C4.76 43.8, 1.27 37.89, 0 31.12 M0 31.12 C-0.14 22.99, -1.06 14.2, 0 10.37 M0 31.12 C1.64 22.36, -0.4 14.43, 0 10.37 M0 10.37 C-3.39 2.27, 6.31 1, 10.37 0 M0 10.37 C2.34 2.49, 3.18 2.12, 10.37 0" stroke="#1864ab" stroke-width="2" fill="none"></path></g><g transform="translate(304.63352039690676 178.375) rotate(0 30.5 12.5)"><text x="0" y="18" font-family="Virgil, Segoe UI Emoji" font-size="20px" fill="#1864ab" text-anchor="start" style="white-space: pre;" direction="ltr">Linking</text></g><g stroke-linecap="round"><g transform="translate(713.812059392556 57.97125567725675) rotate(0 15.572928490700917 63.904656937429095)"><path d="M-0.05 -2.19 C5.41 8.94, 33.98 43.8, 34.66 65.27 C35.33 86.75, 9.06 116.78, 3.99 126.66 M-3.52 2.8 C1.44 14.37, 31.56 46.7, 32.68 67.9 C33.8 89.1, 7.66 120.28, 3.2 130" stroke="#e67700" stroke-width="1" fill="none"></path></g><g transform="translate(713.812059392556 57.97125567725675) rotate(0 15.572928490700917 63.904656937429095)"><path d="M6.3 101.33 C4.2 114.1, 5.14 125.15, 0.74 126.73 M8.18 99.14 C6.79 109.28, 6.62 119.9, 1.69 131.32" stroke="#e67700" stroke-width="1" fill="none"></path></g><g transform="translate(713.812059392556 57.97125567725675) rotate(0 15.572928490700917 63.904656937429095)"><path d="M23.71 112.2 C15.34 120.97, 9.89 128.04, 0.74 126.73 M25.59 110.01 C19.13 116.52, 13.69 123.85, 1.69 131.32" stroke="#e67700" stroke-width="1" fill="none"></path></g></g><g stroke-linecap="round"><g transform="translate(443.7056062864773 55.13786976406482) rotate(0 46.725289543779354 2.038926808361012)"><path d="M-0.37 1.53 C15.89 2.16, 80.98 1.17, 97.46 1.62 M-4.01 -0.1 C11.82 1.03, 78 2.89, 94.8 4.18" stroke="#d9480f" stroke-width="1" fill="none"></path></g><g transform="translate(443.7056062864773 55.13786976406482) rotate(0 46.725289543779354 2.038926808361012)"><path d="M68.33 11.93 C71.96 10.85, 84.15 5.41, 97 6.9 M65.65 12.3 C75.83 10.94, 84.44 8.64, 93.82 5.29" stroke="#d9480f" stroke-width="1" fill="none"></path></g><g transform="translate(443.7056062864773 55.13786976406482) rotate(0 46.725289543779354 2.038926808361012)"><path d="M69.35 -8.57 C72.36 -3.57, 84.25 -2.95, 97 6.9 M66.67 -8.19 C76.73 -3, 85.02 1.24, 93.82 5.29" stroke="#d9480f" stroke-width="1" fill="none"></path></g></g><g stroke-linecap="round" transform="translate(256.75852039690676 35.25) rotate(0 88 26.75)"><path d="M13.38 0 M13.38 0 C47.34 -2.52, 85.52 3.49, 162.63 0 M13.38 0 C63.5 -0.1, 118.01 0.67, 162.63 0 M162.63 0 C169.88 -0.24, 172.87 7.6, 176 13.38 M162.63 0 C172.05 -0.9, 173.5 1.66, 176 13.38 M176 13.38 C174.98 21.18, 175.59 33.77, 176 40.13 M176 13.38 C174.04 21.79, 174.7 26.89, 176 40.13 M176 40.13 C177.78 48.99, 173.22 49.82, 162.63 53.5 M176 40.13 C171.86 45.46, 171.66 54.6, 162.63 53.5 M162.63 53.5 C128 48.54, 90.35 48.3, 13.38 53.5 M162.63 53.5 C114.87 55.98, 64.1 55.94, 13.38 53.5 M13.38 53.5 C0.52 54.62, 3.76 51.02, 0 40.13 M13.38 53.5 C6.22 52.84, -2.12 50.52, 0 40.13 M0 40.13 C4.09 27.55, 1.01 24.34, 0 13.38 M0 40.13 C-1.55 32.78, -0.39 30.77, 0 13.38 M0 13.38 C-1.39 2.12, 1.82 3.79, 13.38 0 M0 13.38 C0.75 6.86, 1.17 4.15, 13.38 0" stroke="#d9480f" stroke-width="2" fill="none"></path></g><g transform="translate(280.75852039690676 49.25) rotate(0 65.5 12.5)"><text x="0" y="18" font-family="Virgil, Segoe UI Emoji" font-size="20px" fill="#d9480f" text-anchor="start" style="white-space: pre;" direction="ltr">Preprocessing</text></g><g stroke-linecap="round" transform="translate(548.2585203969068 167.75) rotate(0 77.37951807228916 21.5)"><path d="M10.75 0 M10.75 0 C54.9 -1.55, 103.37 -1.57, 144.01 0 M10.75 0 C52.13 -1.43, 91.84 -1.01, 144.01 0 M144.01 0 C147.28 2.33, 152.3 5.59, 154.76 10.75 M144.01 0 C154.54 -0.95, 156.26 -0.27, 154.76 10.75 M154.76 10.75 C155.81 16.97, 158.88 19.31, 154.76 32.25 M154.76 10.75 C155.75 14.51, 154.09 20.48, 154.76 32.25 M154.76 32.25 C156.07 38.16, 147.28 43.01, 144.01 43 M154.76 32.25 C156.1 40.85, 152.35 43.73, 144.01 43 M144.01 43 C93.48 43.66, 40.82 41.68, 10.75 43 M144.01 43 C89.96 41.4, 38.66 44.03, 10.75 43 M10.75 43 C6.97 43.31, -1.7 42.6, 0 32.25 M10.75 43 C1.24 47.53, 1.3 36.45, 0 32.25 M0 32.25 C0.52 26.07, 3.95 20.04, 0 10.75 M0 32.25 C-2.17 24.43, 0.69 15.73, 0 10.75 M0 10.75 C-0.53 7.25, 1.91 2.95, 10.75 0 M0 10.75 C-1.37 2.73, 4.37 1.53, 10.75 0" stroke="#5c940d" stroke-width="2" fill="none"></path></g><g transform="translate(594.662134854738 175.06927710843377) rotate(0 42.5 12.5)"><text x="0" y="18" font-family="Virgil, Segoe UI Emoji" font-size="19.518072289156628px" fill="#5c940d" text-anchor="start" style="white-space: pre;" direction="ltr">Assemble</text></g><g transform="translate(39.75852039690676 42) rotate(0 35 18)"><text x="0" y="25" font-family="Virgil, Segoe UI Emoji" font-size="28px" fill="#a61e4d" text-anchor="start" style="white-space: pre;" direction="ltr">app.c</text></g><g stroke-linecap="round"><g transform="translate(163.69211496524906 59.06128526878126) rotate(0 43.796367521002736 0.22308379179990823)"><path d="M1.34 2.57 C16.12 2.54, 74.4 -1.95, 88.96 -2.12 M-1.37 1.49 C12.99 1.93, 71.99 1.11, 86.67 0.34" stroke="#a61e4d" stroke-width="1" fill="none"></path></g><g transform="translate(163.69211496524906 59.06128526878126) rotate(0 43.796367521002736 0.22308379179990823)"><path d="M62.46 11.28 C64.57 7.18, 78.53 3.14, 83.86 0.71 M60.15 11.82 C68.96 7.44, 76.4 3.25, 87.29 1.05" stroke="#a61e4d" stroke-width="1" fill="none"></path></g><g transform="translate(163.69211496524906 59.06128526878126) rotate(0 43.796367521002736 0.22308379179990823)"><path d="M61.85 -9.23 C63.86 -6.94, 78.01 -4.58, 83.86 0.71 M59.55 -8.69 C68.3 -6.47, 75.93 -4.05, 87.29 1.05" stroke="#a61e4d" stroke-width="1" fill="none"></path></g></g><g transform="translate(455.25852039690676 10) rotate(0 22.5 12.5)"><text x="0" y="18" font-family="Virgil, Segoe UI Emoji" font-size="20px" fill="#d9480f" text-anchor="start" style="white-space: pre;" direction="ltr">app.i</text></g><g transform="translate(655.7585203969068 110) rotate(0 25.5 12.5)"><text x="0" y="18" font-family="Virgil, Segoe UI Emoji" font-size="20px" fill="#e67700" text-anchor="start" style="white-space: pre;" direction="ltr">app.s</text></g><g transform="translate(459.75852039690676 147.5) rotate(0 26 12.5)"><text x="0" y="18" font-family="Virgil, Segoe UI Emoji" font-size="20px" fill="#5c940d" text-anchor="start" style="white-space: pre;" direction="ltr">app.o</text></g><g stroke-linecap="round"><g transform="translate(248.89348972206017 196.58751604948634) rotate(0 -42.558965617983176 1.5400701919724895)"><path d="M0.77 -1.51 C-12.95 -1.2, -69.5 4.17, -83.58 4.59 M-2.26 3.84 C-16.25 4.53, -72 0.54, -85.89 0.4" stroke="#1864ab" stroke-width="1" fill="none"></path></g><g transform="translate(248.89348972206017 196.58751604948634) rotate(0 -42.558965617983176 1.5400701919724895)"><path d="M-59.44 -8.82 C-62.24 -6.5, -74.64 -1.2, -82.4 3.09 M-59.11 -8.41 C-69.57 -5.4, -81.61 -1.48, -84.62 2.14" stroke="#1864ab" stroke-width="1" fill="none"></path></g><g transform="translate(248.89348972206017 196.58751604948634) rotate(0 -42.558965617983176 1.5400701919724895)"><path d="M-60.33 11.68 C-63.3 8.77, -75.47 8.85, -82.4 3.09 M-60 12.09 C-69.77 6.94, -81.46 2.7, -84.62 2.14" stroke="#1864ab" stroke-width="1" fill="none"></path></g></g><g transform="translate(28.25852039690676 180.5) rotate(0 51.5 18)"><text x="0" y="25" font-family="Virgil, Segoe UI Emoji" font-size="28px" fill="#1864ab" text-anchor="start" style="white-space: pre;" direction="ltr">app.out</text></g><g transform="translate(459.78261678244894 334.31927710843377) rotate(0 24.5 12.5)"><text x="0" y="18" font-family="Virgil, Segoe UI Emoji" font-size="19.518072289156628px" fill="#0b7285" text-anchor="start" style="white-space: pre;" direction="ltr">libX.o</text></g><g stroke-linecap="round"><g transform="translate(507.4867467178277 264.3482700208001) rotate(0 -26.235579018874375 -24.544498308620575)"><path d="M-1.92 -2.34 C-3.28 -9.1, 1.04 -33.39, -7.42 -40.77 C-15.89 -48.15, -45.54 -45.35, -52.71 -46.62 M2.23 2.56 C0.57 -3.68, 0.67 -28.06, -8.81 -37.09 C-18.3 -46.12, -48.04 -50.12, -54.7 -51.65" stroke="#0b7285" stroke-width="1" fill="none"></path></g><g transform="translate(507.4867467178277 264.3482700208001) rotate(0 -26.235579018874375 -24.544498308620575)"><path d="M-36.38 -52.93 C-39.99 -54.8, -45.85 -50.36, -55.89 -48.46 M-31.98 -56.08 C-37.56 -53.73, -46.86 -53.77, -56.17 -50.78" stroke="#0b7285" stroke-width="1" fill="none"></path></g><g transform="translate(507.4867467178277 264.3482700208001) rotate(0 -26.235579018874375 -24.544498308620575)"><path d="M-39.19 -38.18 C-41.86 -44.82, -46.8 -45.2, -55.89 -48.46 M-34.8 -41.33 C-39.33 -43.07, -47.86 -47.19, -56.17 -50.78" stroke="#0b7285" stroke-width="1" fill="none"></path></g></g><g stroke-opacity="0.3" fill-opacity="0.3" transform="translate(10 328.75) rotate(0 64.5 12.5)"><text x="64.5" y="18" font-family="Virgil, Segoe UI Emoji" font-size="20px" fill="#d9480f" text-anchor="middle" style="white-space: pre;" direction="ltr">@hemashushu</text></g><g transform="translate(457.5240963855422 294.56927710843377) rotate(0 46.5 12.5)"><text x="0" y="18" font-family="Virgil, Segoe UI Emoji" font-size="19.518072289156628px" fill="#0b7285" text-anchor="start" style="white-space: pre;" direction="ltr">startup.o</text></g><g stroke-linecap="round"><g transform="translate(535.5 191.25) rotate(0 -44.22875197330495 0.12242401476237319)"><path d="M0.03 -0.93 C-14.58 -1.08, -72.93 -0.5, -87.35 -0.46 M-1.42 1.2 C-16.23 1.12, -74.22 0.77, -88.48 0.57" stroke="#5c940d" stroke-width="1" fill="none"></path></g><g transform="translate(535.5 191.25) rotate(0 -44.22875197330495 0.12242401476237319)"><path d="M-61.75 -10.01 C-70.86 -5.38, -80.33 -4.97, -88.11 1.02 M-60.02 -9.34 C-69.66 -5.11, -80.47 -3.31, -88.91 0.67" stroke="#5c940d" stroke-width="1" fill="none"></path></g><g transform="translate(535.5 191.25) rotate(0 -44.22875197330495 0.12242401476237319)"><path d="M-61.94 10.51 C-71.07 8.53, -80.48 2.34, -88.11 1.02 M-60.21 11.18 C-69.72 8.27, -80.47 2.94, -88.91 0.67" stroke="#5c940d" stroke-width="1" fill="none"></path></g></g><g transform="translate(459.5 364.2499999999999) rotate(0 17 12.5)"><text x="0" y="18" font-family="Virgil, Segoe UI Emoji" font-size="19.518072289156628px" fill="#0b7285" text-anchor="start" style="white-space: pre;" direction="ltr">......</text></g><g stroke-opacity="0.2" fill-opacity="0.2" stroke-linecap="round" transform="translate(417 277.75) rotate(0 85 64.75)"><path d="M34.1 -1.89 L138.19 1.63 L151.7 1.53 L162.16 8.84 L166.9 18.81 L168.34 31.82 L169.63 104.3 L169.37 111.3 L162.71 122.69 L150.68 127.77 L137.76 128.59 L33.59 129.23 L19.41 128.5 L9.76 122.79 L3.01 110.95 L-1.05 106.61 L0.92 22.97 L2.65 19.69 L6.37 8.48 L16.46 4.01 L33.67 0.64" stroke="none" stroke-width="0" fill="#15aabf"></path><path d="M32.37 0 M32.37 0 C66.98 1.36, 98.78 2.16, 137.62 0 M137.62 0 C160.94 -0.62, 171.12 11.74, 170 32.37 M170 32.37 C169.46 46.63, 169.22 61.83, 170 97.12 M170 97.12 C171.97 119.91, 157.92 128.7, 137.62 129.5 M137.62 129.5 C107.3 128.6, 78.52 128.75, 32.37 129.5 M32.37 129.5 C10.68 130.83, 1.04 120.02, 0 97.12 M0 97.12 C1.35 76.95, 0.58 60.26, 0 32.37 M0 32.37 C-1.73 10.12, 9 -0.41, 32.37 0" stroke="#0b7285" stroke-width="1.5" fill="none" stroke-dasharray="8 9"></path></g><g transform="translate(27 21.75) rotate(0 47.5 10)"><text x="47.5" y="14" font-family="Virgil, Segoe UI Emoji" font-size="16px" fill="#495057" text-anchor="middle" style="white-space: pre;" direction="ltr">source code</text></g><g transform="translate(15 161.25) rotate(0 62 10)"><text x="62" y="14" font-family="Virgil, Segoe UI Emoji" font-size="16px" fill="#495057" text-anchor="middle" style="white-space: pre;" direction="ltr">ELF executable</text></g></svg>