<svg version="1.1" xmlns="http://www.w3.org/2000/svg" viewBox="0 0 774.4718505142044 306.5" width="1548.943701028409" height="613">
  <!-- svg-source:excalidraw -->
  
  <defs>
    <style>
      @font-face {
        font-family: "Virgil";
        src: url("https://excalidraw.com/Virgil.woff2");
      }
      @font-face {
        font-family: "Cascadia";
        src: url("https://excalidraw.com/Cascadia.woff2");
      }
    </style>
  </defs>
  <rect x="0" y="0" width="774.4718505142044" height="306.5" fill="#ffffff"></rect><g stroke-linecap="round" transform="translate(566.625 35.625) rotate(0 76.25 26.75)"><path d="M13.38 0 M13.38 0 C42.08 4.78, 69.28 0.52, 139.13 0 M13.38 0 C58.3 -2.95, 103.69 -0.34, 139.13 0 M139.13 0 C145.59 -0.54, 155.22 0.74, 152.5 13.38 M139.13 0 C143.91 -4.4, 154.59 7.67, 152.5 13.38 M152.5 13.38 C150.07 27.1, 150.39 34.86, 152.5 40.13 M152.5 13.38 C151.58 24.51, 153.67 33.66, 152.5 40.13 M152.5 40.13 C151.91 51.43, 146.42 54.58, 139.13 53.5 M152.5 40.13 C150.47 49.34, 147.67 54.6, 139.13 53.5 M139.13 53.5 C111.01 58.87, 82.78 55.6, 13.38 53.5 M139.13 53.5 C111.99 51.58, 84 53.96, 13.38 53.5 M13.38 53.5 C2.83 54.65, 2.58 49.07, 0 40.13 M13.38 53.5 C7.01 51.51, 2.57 53.1, 0 40.13 M0 40.13 C1.91 31.28, -3.15 20.06, 0 13.38 M0 40.13 C-0.63 32.68, 0.31 22.48, 0 13.38 M0 13.38 C1.13 4.26, 5.55 2, 13.38 0 M0 13.38 C3.94 6.36, -0.05 -1.98, 13.38 0" stroke="#e67700" stroke-width="2" fill="none"></path></g><g transform="translate(590.625 49.625) rotate(0 54 12.5)"><text x="0" y="18" font-family="Virgil, Segoe UI Emoji" font-size="20px" fill="#e67700" text-anchor="start" style="white-space: pre;" direction="ltr">Compilation</text></g><g stroke-linecap="round" transform="translate(275.125 174.375) rotate(0 88 20.75)"><path d="M10.37 0 M10.37 0 C49.01 1.27, 95.29 3.73, 165.63 0 M10.37 0 C62.51 -3.62, 108.99 -3.84, 165.63 0 M165.63 0 C174.76 2.01, 173.56 2.92, 176 10.37 M165.63 0 C169.81 -2.21, 175.82 7.49, 176 10.37 M176 10.37 C176.42 16.67, 172.09 29.41, 176 31.12 M176 10.37 C176.36 15.47, 177.84 21.86, 176 31.12 M176 31.12 C178.43 36.95, 169.15 45.11, 165.63 41.5 M176 31.12 C174.5 38.88, 172.13 41.61, 165.63 41.5 M165.63 41.5 C118.64 42, 80.36 44.3, 10.37 41.5 M165.63 41.5 C110.72 40.66, 54.33 39.5, 10.37 41.5 M10.37 41.5 C6.64 44.73, -3.4 34.54, 0 31.12 M10.37 41.5 C4.76 43.8, 1.27 37.89, 0 31.12 M0 31.12 C-0.14 22.99, -1.06 14.2, 0 10.37 M0 31.12 C1.64 22.36, -0.4 14.43, 0 10.37 M0 10.37 C-3.39 2.27, 6.31 1, 10.37 0 M0 10.37 C2.34 2.49, 3.18 2.12, 10.37 0" stroke="#1864ab" stroke-width="2" fill="none"></path></g><g transform="translate(320.625 181.875) rotate(0 30.5 12.5)"><text x="0" y="18" font-family="Virgil, Segoe UI Emoji" font-size="20px" fill="#1864ab" text-anchor="start" style="white-space: pre;" direction="ltr">Linking</text></g><g stroke-linecap="round" transform="translate(10.125 163.125) rotate(0 82 34.5)"><path d="M80.93 1.09 C92.76 0.63, 109.14 -0.01, 120.33 2.38 C131.52 4.77, 140.57 10.78, 148.06 15.42 C155.55 20.07, 163.76 25.24, 165.25 30.25 C166.73 35.25, 161.76 40.08, 156.97 45.45 C152.18 50.82, 145.57 58.39, 136.53 62.44 C127.5 66.49, 115.12 68.63, 102.76 69.74 C90.41 70.86, 75.22 70.84, 62.4 69.13 C49.57 67.42, 35.46 63.31, 25.81 59.48 C16.16 55.65, 9 51.39, 4.51 46.17 C0.02 40.95, -3.13 33.4, -1.11 28.15 C0.91 22.89, 8.78 18.7, 16.64 14.62 C24.5 10.54, 32.73 6.23, 46.06 3.66 C59.39 1.1, 86.53 -0.51, 96.61 -0.77 C106.69 -1.03, 106.92 1.13, 106.53 2.12 M144.31 12.82 C153.18 16.3, 162.69 22.84, 165.31 28.34 C167.93 33.85, 164.38 40.34, 160.04 45.83 C155.69 51.33, 147.78 57.44, 139.25 61.31 C130.73 65.19, 120.75 68, 108.9 69.08 C97.06 70.17, 80.68 68.78, 68.2 67.83 C55.72 66.89, 44.05 66.34, 34.03 63.41 C24.02 60.49, 13.58 55.6, 8.11 50.27 C2.63 44.94, 0.37 36.95, 1.16 31.44 C1.95 25.93, 6.46 22.01, 12.85 17.21 C19.24 12.41, 29.34 5.17, 39.5 2.64 C49.67 0.11, 61.33 2.02, 73.85 2.03 C86.36 2.04, 102.97 1.04, 114.59 2.69 C126.21 4.35, 139 9.89, 143.54 11.99 C148.09 14.09, 142.22 15.1, 141.83 15.31" stroke="#862e9c" stroke-width="2" fill="none"></path></g><g transform="translate(51.625 185.125) rotate(0 40.5 12.5)"><text x="40.5" y="18" font-family="Virgil, Segoe UI Emoji" font-size="20px" fill="#862e9c" text-anchor="middle" style="white-space: pre;" direction="ltr">ELF File</text></g><g stroke-linecap="round"><g transform="translate(729.8035389956492 61.47125567725675) rotate(0 15.572928490700917 63.904656937429095)"><path d="M-0.05 -2.19 C5.41 8.94, 33.98 43.8, 34.66 65.27 C35.33 86.75, 9.06 116.78, 3.99 126.66 M-3.52 2.8 C1.44 14.37, 31.56 46.7, 32.68 67.9 C33.8 89.1, 7.66 120.28, 3.2 130" stroke="#e67700" stroke-width="1" fill="none"></path></g><g transform="translate(729.8035389956492 61.47125567725675) rotate(0 15.572928490700917 63.904656937429095)"><path d="M6.3 101.33 C4.2 114.1, 5.14 125.15, 0.74 126.73 M8.18 99.14 C6.79 109.28, 6.62 119.9, 1.69 131.32" stroke="#e67700" stroke-width="1" fill="none"></path></g><g transform="translate(729.8035389956492 61.47125567725675) rotate(0 15.572928490700917 63.904656937429095)"><path d="M23.71 112.2 C15.34 120.97, 9.89 128.04, 0.74 126.73 M25.59 110.01 C19.13 116.52, 13.69 123.85, 1.69 131.32" stroke="#e67700" stroke-width="1" fill="none"></path></g></g><g stroke-linecap="round"><g transform="translate(459.69708588957053 58.63786976406482) rotate(0 46.725289543779354 2.038926808361012)"><path d="M-0.37 1.53 C15.89 2.16, 80.98 1.17, 97.46 1.62 M-4.01 -0.1 C11.82 1.03, 78 2.89, 94.8 4.18" stroke="#d9480f" stroke-width="1" fill="none"></path></g><g transform="translate(459.69708588957053 58.63786976406482) rotate(0 46.725289543779354 2.038926808361012)"><path d="M68.33 11.93 C71.96 10.85, 84.15 5.41, 97 6.9 M65.65 12.3 C75.83 10.94, 84.44 8.64, 93.82 5.29" stroke="#d9480f" stroke-width="1" fill="none"></path></g><g transform="translate(459.69708588957053 58.63786976406482) rotate(0 46.725289543779354 2.038926808361012)"><path d="M69.35 -8.57 C72.36 -3.57, 84.25 -2.95, 97 6.9 M66.67 -8.19 C76.73 -3, 85.02 1.24, 93.82 5.29" stroke="#d9480f" stroke-width="1" fill="none"></path></g></g><g stroke-linecap="round" transform="translate(272.75 38.75) rotate(0 88 26.75)"><path d="M13.38 0 M13.38 0 C47.34 -2.52, 85.52 3.49, 162.63 0 M13.38 0 C63.5 -0.1, 118.01 0.67, 162.63 0 M162.63 0 C169.88 -0.24, 172.87 7.6, 176 13.38 M162.63 0 C172.05 -0.9, 173.5 1.66, 176 13.38 M176 13.38 C174.98 21.18, 175.59 33.77, 176 40.13 M176 13.38 C174.04 21.79, 174.7 26.89, 176 40.13 M176 40.13 C177.78 48.99, 173.22 49.82, 162.63 53.5 M176 40.13 C171.86 45.46, 171.66 54.6, 162.63 53.5 M162.63 53.5 C128 48.54, 90.35 48.3, 13.38 53.5 M162.63 53.5 C114.87 55.98, 64.1 55.94, 13.38 53.5 M13.38 53.5 C0.52 54.62, 3.76 51.02, 0 40.13 M13.38 53.5 C6.22 52.84, -2.12 50.52, 0 40.13 M0 40.13 C4.09 27.55, 1.01 24.34, 0 13.38 M0 40.13 C-1.55 32.78, -0.39 30.77, 0 13.38 M0 13.38 C-1.39 2.12, 1.82 3.79, 13.38 0 M0 13.38 C0.75 6.86, 1.17 4.15, 13.38 0" stroke="#d9480f" stroke-width="2" fill="none"></path></g><g transform="translate(296.75 52.75) rotate(0 65.5 12.5)"><text x="0" y="18" font-family="Virgil, Segoe UI Emoji" font-size="20px" fill="#d9480f" text-anchor="start" style="white-space: pre;" direction="ltr">Preprocessing</text></g><g stroke-linecap="round" transform="translate(564.25 171.25) rotate(0 77.37951807228916 21.5)"><path d="M10.75 0 M10.75 0 C54.9 -1.55, 103.37 -1.57, 144.01 0 M10.75 0 C52.13 -1.43, 91.84 -1.01, 144.01 0 M144.01 0 C147.28 2.33, 152.3 5.59, 154.76 10.75 M144.01 0 C154.54 -0.95, 156.26 -0.27, 154.76 10.75 M154.76 10.75 C155.81 16.97, 158.88 19.31, 154.76 32.25 M154.76 10.75 C155.75 14.51, 154.09 20.48, 154.76 32.25 M154.76 32.25 C156.07 38.16, 147.28 43.01, 144.01 43 M154.76 32.25 C156.1 40.85, 152.35 43.73, 144.01 43 M144.01 43 C93.48 43.66, 40.82 41.68, 10.75 43 M144.01 43 C89.96 41.4, 38.66 44.03, 10.75 43 M10.75 43 C6.97 43.31, -1.7 42.6, 0 32.25 M10.75 43 C1.24 47.53, 1.3 36.45, 0 32.25 M0 32.25 C0.52 26.07, 3.95 20.04, 0 10.75 M0 32.25 C-2.17 24.43, 0.69 15.73, 0 10.75 M0 10.75 C-0.53 7.25, 1.91 2.95, 10.75 0 M0 10.75 C-1.37 2.73, 4.37 1.53, 10.75 0" stroke="#5c940d" stroke-width="2" fill="none"></path></g><g transform="translate(610.6536144578313 178.56927710843377) rotate(0 42.5 12.5)"><text x="0" y="18" font-family="Virgil, Segoe UI Emoji" font-size="19.518072289156628px" fill="#5c940d" text-anchor="start" style="white-space: pre;" direction="ltr">Assemble</text></g><g stroke-linecap="round" transform="translate(10 31.75) rotate(0 82.5 34)"><path d="M119.24 5.32 C130.15 7.46, 141.29 12.54, 148.89 16.37 C156.49 20.19, 163.14 23.44, 164.86 28.27 C166.58 33.09, 163.91 40.1, 159.21 45.29 C154.51 50.48, 146.08 55.5, 136.68 59.43 C127.28 63.35, 115.07 67.38, 102.81 68.86 C90.56 70.33, 75.32 69.93, 63.15 68.27 C50.98 66.62, 39.71 62.6, 29.81 58.94 C19.92 55.27, 8.52 51.24, 3.79 46.28 C-0.93 41.32, -0.19 34.08, 1.49 29.17 C3.16 24.26, 7.01 20.75, 13.86 16.81 C20.71 12.87, 31.37 8.39, 42.57 5.53 C53.77 2.67, 66.56 -0.55, 81.05 -0.37 C95.55 -0.18, 119.96 4.85, 129.51 6.63 C139.07 8.41, 139.07 10.04, 138.36 10.3 M17.6 14.85 C22.82 10.17, 31.06 5.7, 42.26 2.85 C53.46 0.01, 72.14 -2.64, 84.81 -2.21 C97.48 -1.77, 107.23 2.35, 118.27 5.49 C129.31 8.62, 143.2 12.28, 151.05 16.62 C158.9 20.97, 164.34 27.09, 165.38 31.55 C166.42 36.02, 161.55 39.09, 157.29 43.42 C153.03 47.74, 148.84 53.29, 139.8 57.49 C130.76 61.69, 115.75 66.79, 103.06 68.62 C90.37 70.45, 75.98 70.16, 63.66 68.47 C51.35 66.78, 39.03 62.49, 29.18 58.48 C19.33 54.48, 9.63 49.08, 4.57 44.43 C-0.5 39.79, -2.8 35.74, -1.23 30.61 C0.33 25.48, 11.51 15.85, 13.96 13.65 C16.42 11.45, 11.95 16.76, 13.5 17.41" stroke="#a61e4d" stroke-width="2" fill="none"></path></g><g transform="translate(31.5 53.25) rotate(0 61 12.5)"><text x="61" y="18" font-family="Virgil, Segoe UI Emoji" font-size="20px" fill="#a61e4d" text-anchor="middle" style="white-space: pre;" direction="ltr">Source Code</text></g><g transform="translate(187.75 10) rotate(0 30 12.5)"><text x="0" y="18" font-family="Virgil, Segoe UI Emoji" font-size="20px" fill="#1864ab" text-anchor="start" style="white-space: pre;" direction="ltr">hello.c</text></g><g stroke-linecap="round"><g transform="translate(179.7083634054659 62.561294720582566) rotate(0 43.78398310244094 0.22307906589925608)"><path d="M1.34 2.57 C16.11 2.54, 74.38 -1.95, 88.94 -2.12 M-1.37 1.49 C12.98 1.93, 71.97 1.11, 86.64 0.34" stroke="#a61e4d" stroke-width="1" fill="none"></path></g><g transform="translate(179.7083634054659 62.561294720582566) rotate(0 43.78398310244094 0.22307906589925608)"><path d="M62.43 11.28 C64.54 7.18, 78.5 3.14, 83.84 0.71 M60.13 11.82 C68.93 7.44, 76.37 3.25, 87.27 1.05" stroke="#a61e4d" stroke-width="1" fill="none"></path></g><g transform="translate(179.7083634054659 62.561294720582566) rotate(0 43.78398310244094 0.22307906589925608)"><path d="M61.83 -9.23 C63.84 -6.94, 77.98 -4.58, 83.84 0.71 M59.52 -8.69 C68.27 -6.47, 75.91 -4.05, 87.27 1.05" stroke="#a61e4d" stroke-width="1" fill="none"></path></g></g><g transform="translate(470.25 12) rotate(0 27 12.5)"><text x="0" y="18" font-family="Virgil, Segoe UI Emoji" font-size="20px" fill="#1864ab" text-anchor="start" style="white-space: pre;" direction="ltr">hello.i</text></g><g transform="translate(671.75 113.5) rotate(0 30.5 12.5)"><text x="0" y="18" font-family="Virgil, Segoe UI Emoji" font-size="20px" fill="#1864ab" text-anchor="start" style="white-space: pre;" direction="ltr">hello.s</text></g><g stroke-linecap="round"><g transform="translate(552.6349693251533 189.20811807575444) rotate(0 -47.088040040968224 0.12056057092834749)"><path d="M0.8 -0.14 C-15.48 0.37, -79.14 3.13, -94.98 2.98 M-2.21 -2.69 C-17.82 -2.99, -73.77 -1.83, -89.5 -1.28" stroke="#5c940d" stroke-width="1" fill="none"></path></g><g transform="translate(552.6349693251533 189.20811807575444) rotate(0 -47.088040040968224 0.12056057092834749)"><path d="M-61.8 -14.73 C-70.69 -9.17, -87.5 -1.16, -88.96 -1.6 M-61.88 -12.12 C-71.66 -10.14, -80.51 -6.08, -90.26 0.47" stroke="#5c940d" stroke-width="1" fill="none"></path></g><g transform="translate(552.6349693251533 189.20811807575444) rotate(0 -47.088040040968224 0.12056057092834749)"><path d="M-61.26 5.79 C-70.34 3.22, -87.37 3.09, -88.96 -1.6 M-61.33 8.39 C-71.3 4.05, -80.31 1.8, -90.26 0.47" stroke="#5c940d" stroke-width="1" fill="none"></path></g></g><g transform="translate(475.75 151) rotate(0 30.5 12.5)"><text x="0" y="18" font-family="Virgil, Segoe UI Emoji" font-size="20px" fill="#1864ab" text-anchor="start" style="white-space: pre;" direction="ltr">hello.o</text></g><g stroke-linecap="round"><g transform="translate(264.8849693251534 200.08751604948634) rotate(0 -42.558965617983176 1.5400701919724895)"><path d="M0.77 -1.51 C-12.95 -1.2, -69.5 4.17, -83.58 4.59 M-2.26 3.84 C-16.25 4.53, -72 0.54, -85.89 0.4" stroke="#1864ab" stroke-width="1" fill="none"></path></g><g transform="translate(264.8849693251534 200.08751604948634) rotate(0 -42.558965617983176 1.5400701919724895)"><path d="M-59.44 -8.82 C-62.24 -6.5, -74.64 -1.2, -82.4 3.09 M-59.11 -8.41 C-69.57 -5.4, -81.61 -1.48, -84.62 2.14" stroke="#1864ab" stroke-width="1" fill="none"></path></g><g transform="translate(264.8849693251534 200.08751604948634) rotate(0 -42.558965617983176 1.5400701919724895)"><path d="M-60.33 11.68 C-63.3 8.77, -75.47 8.85, -82.4 3.09 M-60 12.09 C-69.77 6.94, -81.46 2.7, -84.62 2.14" stroke="#1864ab" stroke-width="1" fill="none"></path></g></g><g transform="translate(187.25 156.5) rotate(0 42 12.5)"><text x="0" y="18" font-family="Virgil, Segoe UI Emoji" font-size="20px" fill="#1864ab" text-anchor="start" style="white-space: pre;" direction="ltr">hello.out</text></g><g stroke-linecap="round" transform="translate(458.8704819277109 253.5) rotate(0 56.87951807228916 21.5)"><path d="M10.75 0 M10.75 0 C31.77 0.56, 54.76 0.62, 103.01 0 M10.75 0 C33.51 -2.83, 52.46 -0.21, 103.01 0 M103.01 0 C110.37 3.75, 117.3 3.66, 113.76 10.75 M103.01 0 C108.97 -1.27, 116.79 8.15, 113.76 10.75 M113.76 10.75 C114.16 17.8, 114.75 27.16, 113.76 32.25 M113.76 10.75 C112.11 16.59, 112.89 24.07, 113.76 32.25 M113.76 32.25 C110.6 38.48, 109.36 45.56, 103.01 43 M113.76 32.25 C117.54 40.57, 110.32 45.62, 103.01 43 M103.01 43 C79.48 46.42, 56.9 44.68, 10.75 43 M103.01 43 C68.05 42.39, 31.19 44.34, 10.75 43 M10.75 43 C3.02 44.37, -0.34 38.45, 0 32.25 M10.75 43 C7.34 47.37, 3.14 35.9, 0 32.25 M0 32.25 C-0.67 28.93, 2.45 15.63, 0 10.75 M0 32.25 C1.5 26.5, 0.95 22.15, 0 10.75 M0 10.75 C-3.18 1.53, 3.71 -1.67, 10.75 0 M0 10.75 C-1.61 7.55, 0.1 1.37, 10.75 0" stroke="#2b8a3e" stroke-width="2" fill="none"></path></g><g transform="translate(492.2740963855422 263.81927710843377) rotate(0 25.5 12.5)"><text x="0" y="18" font-family="Virgil, Segoe UI Emoji" font-size="19.518072289156628px" fill="#2b8a3e" text-anchor="start" style="white-space: pre;" direction="ltr">libX.a</text></g><g stroke-linecap="round"><g transform="translate(515.9318787383575 243.20811807575444) rotate(0 -24.414848899010337 -17.724422336097746)"><path d="M-1.92 -2.34 C-2.03 -7.66, 8.25 -27.02, 0.12 -32.12 C-8 -37.23, -42.58 -32.55, -50.66 -32.98 M2.23 2.56 C1.83 -2.24, 7.88 -21.69, -1.27 -28.45 C-10.41 -35.21, -45.08 -37.32, -52.65 -38.01" stroke="#5c940d" stroke-width="1" fill="none"></path></g><g transform="translate(515.9318787383575 243.20811807575444) rotate(0 -24.414848899010337 -17.724422336097746)"><path d="M-32.39 -42.15 C-36.64 -43.11, -43.13 -37.74, -53.84 -34.82 M-27.99 -45.3 C-34.16 -42.15, -44 -41.39, -54.13 -37.14" stroke="#5c940d" stroke-width="1" fill="none"></path></g><g transform="translate(515.9318787383575 243.20811807575444) rotate(0 -24.414848899010337 -17.724422336097746)"><path d="M-33.82 -25.48 C-37.57 -31.86, -43.6 -31.93, -53.84 -34.82 M-29.42 -28.63 C-34.9 -30.09, -44.34 -33.95, -54.13 -37.14" stroke="#5c940d" stroke-width="1" fill="none"></path></g></g></svg>