<svg version="1.1" xmlns="http://www.w3.org/2000/svg" viewBox="0 0 662.125 531.75" width="1324.25" height="1063.5">
  <!-- svg-source:excalidraw -->
  
  <defs>
    <style>
      @font-face {
        font-family: "Virgil";
        src: url("https://excalidraw.com/Virgil.woff2");
      }
      @font-face {
        font-family: "Cascadia";
        src: url("https://excalidraw.com/Cascadia.woff2");
      }
    </style>
  </defs>
  <rect x="0" y="0" width="662.125" height="531.75" fill="#ffffff"></rect><g stroke-opacity="0.3" fill-opacity="0.3" transform="translate(23.837301587301454 476.19444444444446) rotate(0 64.5 12.5)"><text x="0" y="18" font-family="Virgil, Segoe UI Emoji" font-size="20px" fill="#d9480f" text-anchor="start" style="white-space: pre;" direction="ltr">@hemashushu</text></g><g stroke-linecap="round" transform="translate(332.375 152.75) rotate(0 94.5 64.75)"><path d="M7.96 8.25 C7.96 8.25, 7.96 8.25, 7.96 8.25 M7.96 8.25 C7.96 8.25, 7.96 8.25, 7.96 8.25 M3.76 19.17 C6.35 13.24, 13.72 8.05, 18.2 2.57 M3.76 19.17 C7.57 13.67, 12.08 9.72, 18.2 2.57 M2.85 26.32 C9.47 19.35, 14.25 10.32, 24.5 1.42 M2.85 26.32 C7.29 20.71, 12.49 15.39, 24.5 1.42 M2.58 32.72 C11.94 19.54, 25.83 6.76, 30.8 0.27 M2.58 32.72 C14.12 20.27, 24.17 8.95, 30.8 0.27 M2.32 39.12 C13.43 29.53, 24.07 17.37, 34.47 2.14 M2.32 39.12 C14.33 27.18, 24.47 13.28, 34.47 2.14 M2.72 44.76 C11.27 35.99, 20.44 25.15, 40.11 1.74 M2.72 44.76 C12.66 34.31, 19.54 24.91, 40.11 1.74 M2.46 51.16 C14.33 37.96, 25.61 21.54, 45.1 2.1 M2.46 51.16 C12.84 37.41, 25.31 23.62, 45.1 2.1 M2.85 56.8 C14.26 42.05, 28.98 27.83, 50.74 1.71 M2.85 56.8 C12.34 45.06, 22.82 33.23, 50.74 1.71 M2.59 63.2 C22.72 40.86, 44.58 15.84, 55.73 2.07 M2.59 63.2 C18.89 44.15, 36.25 23.75, 55.73 2.07 M2.33 69.6 C18.97 48.89, 36.69 28.85, 61.37 1.68 M2.33 69.6 C24.57 44.78, 45.38 20.6, 61.37 1.68 M2.72 75.24 C23.89 52.75, 43.44 28.85, 66.36 2.04 M2.72 75.24 C29.12 44.91, 52.73 16.25, 66.36 2.04 M2.46 81.64 C20.17 61.66, 34.74 42.78, 72 1.64 M2.46 81.64 C26.35 55.59, 47.49 28.53, 72 1.64 M2.86 87.28 C30.17 59.28, 52.51 27.11, 76.99 2 M2.86 87.28 C27.31 58.19, 52.7 30.66, 76.99 2 M2.59 93.68 C35.07 59.18, 67.04 19.64, 82.63 1.61 M2.59 93.68 C22.56 71.26, 41.09 48.25, 82.63 1.61 M2.33 100.08 C28.06 73.68, 49.9 43.17, 87.62 1.97 M2.33 100.08 C27.71 69.72, 55.09 37.86, 87.62 1.97 M2.07 106.48 C36.15 67.1, 74.43 25.61, 92.61 2.33 M2.07 106.48 C22.07 83.63, 43.58 59.37, 92.61 2.33 M3.78 110.61 C28.47 80.53, 55.4 47.74, 98.25 1.93 M3.78 110.61 C26.94 83.03, 51.39 55, 98.25 1.93 M5.48 114.74 C29.79 86.48, 51.97 58.87, 103.24 2.29 M5.48 114.74 C36.53 79.2, 66.73 44.9, 103.24 2.29 M7.19 118.88 C39.11 82.68, 67.81 46.36, 108.88 1.9 M7.19 118.88 C32.19 91.88, 56.65 62.49, 108.88 1.9 M9.55 122.26 C38.88 84.27, 72.06 48.53, 113.87 2.26 M9.55 122.26 C41.2 87.56, 71.26 51.35, 113.87 2.26 M12.57 124.88 C36.05 100.33, 59.17 70.08, 119.51 1.86 M12.57 124.88 C41.73 92.7, 70.86 58.24, 119.51 1.86 M16.25 126.75 C43.92 92.07, 73.19 57.42, 124.5 2.22 M16.25 126.75 C51.56 88.45, 85.32 47.43, 124.5 2.22 M19.92 128.62 C47.99 93.64, 79.82 58.57, 130.14 1.83 M19.92 128.62 C54.01 89.19, 89.66 48.89, 130.14 1.83 M24.25 129.73 C50.81 98.31, 78.62 68.49, 135.13 2.19 M24.25 129.73 C53.3 97.93, 80.28 64.96, 135.13 2.19 M29.24 130.09 C58.68 94.91, 88.14 61.71, 140.77 1.79 M29.24 130.09 C55.66 97.89, 83.81 66.04, 140.77 1.79 M34.23 130.45 C61.41 99.19, 87.19 69.56, 145.76 2.15 M34.23 130.45 C68.21 89.63, 104.64 48.72, 145.76 2.15 M39.22 130.82 C77.14 88.61, 114.64 40.88, 151.4 1.76 M39.22 130.82 C78.56 87.35, 118.1 42.71, 151.4 1.76 M44.2 131.18 C70.29 100.67, 94.46 70.73, 157.7 0.61 M44.2 131.18 C75.39 94.61, 108.93 55.6, 157.7 0.61 M49.85 130.78 C74.3 102.1, 101.92 73.64, 162.03 1.73 M49.85 130.78 C92.03 81.88, 133.58 34.56, 162.03 1.73 M54.83 131.14 C94.16 82.94, 133.8 38.36, 167.02 2.09 M54.83 131.14 C86.07 97.67, 113.66 64.97, 167.02 2.09 M60.48 130.75 C100.77 82.58, 145 35.89, 172.01 2.45 M60.48 130.75 C88.57 96.5, 118.5 63.51, 172.01 2.45 M65.46 131.11 C104.6 87.19, 140.84 47.69, 175.02 5.07 M65.46 131.11 C98.14 93.93, 129.71 55.5, 175.02 5.07 M71.11 130.71 C95.24 103.84, 121.66 73.12, 178.7 6.94 M71.11 130.71 C103.19 95.61, 135.31 57.52, 178.7 6.94 M76.09 131.07 C117.47 84.04, 157.74 35.79, 182.37 8.81 M76.09 131.07 C117.9 82.54, 159.15 36.2, 182.37 8.81 M81.74 130.68 C114.85 89.78, 153.11 48.52, 184.08 12.94 M81.74 130.68 C112.21 96.67, 142.16 60.67, 184.08 12.94 M86.72 131.04 C122.95 90.59, 159.16 47.52, 186.44 16.32 M86.72 131.04 C115.78 99.58, 142.79 66.45, 186.44 16.32 M92.37 130.64 C121.09 101.58, 147.86 68.61, 188.81 19.7 M92.37 130.64 C113.41 106.15, 133.48 82.72, 188.81 19.7 M97.35 131 C133.92 90.32, 166 52.67, 189.2 25.34 M97.35 131 C122.78 103.45, 145.18 75.95, 189.2 25.34 M103 130.61 C131.35 100.26, 156.37 70.03, 190.25 30.23 M103 130.61 C135.19 94.77, 167.22 58.09, 190.25 30.23 M107.98 130.97 C138.29 93.67, 172.62 61.36, 191.96 34.37 M107.98 130.97 C139.06 97.2, 167.86 61.73, 191.96 34.37 M113.63 130.57 C134.88 105, 158.46 80.37, 191.7 40.76 M113.63 130.57 C143.49 94.94, 174.1 60.83, 191.7 40.76 M118.61 130.93 C135.23 111.03, 150.55 94.05, 191.44 47.16 M118.61 130.93 C143.12 104.74, 166.73 76.97, 191.44 47.16 M124.26 130.54 C140.9 113.38, 152.82 96.55, 191.83 52.8 M124.26 130.54 C143.5 109.08, 163.31 86.5, 191.83 52.8 M129.24 130.9 C151.56 106.49, 177.62 75.91, 191.57 59.2 M129.24 130.9 C146.86 110.61, 164.28 89.28, 191.57 59.2 M134.89 130.5 C151.68 113.4, 164.62 95.04, 191.31 65.6 M134.89 130.5 C156.56 105.25, 179.13 78.16, 191.31 65.6 M139.87 130.86 C148 119.51, 159.53 104.57, 191.7 71.24 M139.87 130.86 C156.06 111.6, 171.65 93.2, 191.7 71.24 M145.52 130.47 C163.22 111.52, 178.74 91.49, 191.44 77.64 M145.52 130.47 C162.9 110.03, 182.33 88.54, 191.44 77.64 M150.5 130.83 C159.61 119.51, 169.86 107.07, 191.18 84.04 M150.5 130.83 C158.34 120.98, 166.81 110.61, 191.18 84.04 M156.8 129.68 C169.78 116.26, 179.58 102.17, 191.57 89.68 M156.8 129.68 C167.18 116.39, 178.92 104.13, 191.57 89.68 M163.1 128.53 C168.38 121.84, 176.25 112.55, 191.31 96.08 M163.1 128.53 C171.08 117.83, 180.31 108.75, 191.31 96.08 M168.74 128.14 C175.46 121.96, 178.42 114.78, 189.08 104.74 M168.74 128.14 C175.92 121.22, 180.9 112.95, 189.08 104.74 M173.08 129.25 C177.08 126.11, 179.31 123.23, 188.16 111.89 M173.08 129.25 C178.27 124.01, 182.2 118.77, 188.16 111.89" stroke="#be4bdb" stroke-width="0.5" fill="none"></path><path d="M32.38 0 M32.38 0 C74.4 -2.18, 113.29 -0.09, 156.63 0 M32.38 0 C71.23 0.84, 110.74 0.84, 156.63 0 M156.63 0 C179.55 -1.91, 188.12 10.84, 189 32.38 M156.63 0 C176.4 -0.1, 188.56 8.99, 189 32.38 M189 32.38 C190.88 46.54, 190.55 58.66, 189 97.13 M189 32.38 C189.54 46.95, 188.13 61.08, 189 97.13 M189 97.13 C187.26 119.69, 179.23 131.43, 156.63 129.5 M189 97.13 C190.94 118.26, 178.22 130.37, 156.63 129.5 M156.63 129.5 C129.64 130.29, 103.64 127.93, 32.38 129.5 M156.63 129.5 C113.06 129.03, 70.18 128.47, 32.38 129.5 M32.38 129.5 C10.81 131.47, -0.92 120.2, 0 97.13 M32.38 129.5 C11.44 128.99, -0.73 120.02, 0 97.13 M0 97.13 C0.61 78.05, -1.88 59.6, 0 32.38 M0 97.13 C0.41 83.27, 0.48 69.64, 0 32.38 M0 32.38 C1.22 9.04, 10.42 -1.42, 32.38 0 M0 32.38 C-1.91 11.97, 9.84 1.17, 32.38 0" stroke="#862e9c" stroke-width="1" fill="none"></path></g><g transform="translate(343.875 292.25) rotate(0 75 18)"><text x="0" y="25" font-family="Virgil, Segoe UI Emoji" font-size="28px" fill="#862e9c" text-anchor="start" style="white-space: pre;" direction="ltr">APP - .got</text></g><g stroke-linecap="round" transform="translate(326.125 364.7500000000001) rotate(0 94.5 51.5)"><path d="M6.2 6.71 C6.2 6.71, 6.2 6.71, 6.2 6.71 M6.2 6.71 C6.2 6.71, 6.2 6.71, 6.2 6.71 M3.31 16.13 C8.76 10.61, 12.53 3.95, 15.12 2.54 M3.31 16.13 C6.09 13, 9.78 9.23, 15.12 2.54 M3.05 22.53 C7.18 14.95, 12.59 9.32, 21.42 1.4 M3.05 22.53 C8.82 16.11, 14.49 9.6, 21.42 1.4 M3.45 28.17 C14.08 16.98, 22.96 6.47, 27.06 1 M3.45 28.17 C12.14 18.97, 20.91 7.85, 27.06 1 M3.18 34.57 C13.54 25.4, 21.15 14.41, 32.05 1.36 M3.18 34.57 C8.83 26.92, 14.9 18.76, 32.05 1.36 M3.58 40.21 C13.18 29.26, 20.49 18.96, 37.69 0.97 M3.58 40.21 C15.52 25.76, 29.72 8.67, 37.69 0.97 M3.32 46.61 C16.34 28.45, 32.28 14.52, 42.68 1.33 M3.32 46.61 C15.23 32.72, 26.16 21.21, 42.68 1.33 M3.06 53.01 C13.62 42.36, 21.55 31.49, 48.32 0.93 M3.06 53.01 C19.47 34.31, 36.29 15.45, 48.32 0.93 M3.45 58.65 C20.21 40.04, 37.2 21.1, 53.31 1.29 M3.45 58.65 C15.97 43.73, 28.73 29.37, 53.31 1.29 M3.19 65.05 C22.14 42.57, 45.62 17.3, 58.95 0.9 M3.19 65.05 C15.86 50.23, 30.37 33.95, 58.95 0.9 M3.58 70.69 C22.16 49.24, 44.43 23.9, 63.94 1.26 M3.58 70.69 C26.24 43.08, 50.75 16.73, 63.94 1.26 M3.32 77.09 C26.24 49.76, 53.15 18.59, 69.58 0.86 M3.32 77.09 C26.51 48.05, 52.14 21.01, 69.58 0.86 M1.75 85 C18.21 61.79, 39.12 41.28, 74.57 1.22 M1.75 85 C29.83 54.29, 57.67 21.47, 74.57 1.22 M3.46 89.13 C26.18 61.53, 47.09 35.46, 80.21 0.83 M3.46 89.13 C33.25 53.32, 64.54 17.3, 80.21 0.83 M4.51 94.02 C35.57 54.66, 68.41 20.57, 85.2 1.19 M4.51 94.02 C34.78 58.93, 65.14 26.01, 85.2 1.19 M7.52 96.64 C35.16 67.82, 57.28 36.34, 90.84 0.79 M7.52 96.64 C37.12 63.14, 64.24 32.39, 90.84 0.79 M10.54 99.27 C40.98 62.61, 72.64 28.23, 95.83 1.15 M10.54 99.27 C35.85 70.31, 61.17 40.67, 95.83 1.15 M14.87 100.38 C45.51 63.25, 77.66 27.58, 101.47 0.76 M14.87 100.38 C43.85 67.44, 72.47 34.41, 101.47 0.76 M19.21 101.5 C46.94 67.02, 75.83 33.09, 106.46 1.12 M19.21 101.5 C40.03 76.39, 61.44 53.28, 106.46 1.12 M23.54 102.61 C58.45 63.51, 89.89 26.62, 112.1 0.72 M23.54 102.61 C47.81 73.14, 73.03 43.56, 112.1 0.72 M27.21 104.48 C48.46 77.2, 70.3 52.87, 117.09 1.09 M27.21 104.48 C46.09 81.9, 65.78 60.65, 117.09 1.09 M32.85 104.09 C66.82 63.57, 103.96 23.46, 122.08 1.45 M32.85 104.09 C52.09 79.82, 71.71 57.69, 122.08 1.45 M37.84 104.45 C72.42 65.48, 106 26.06, 127.72 1.05 M37.84 104.45 C72.55 65.34, 104.94 26.44, 127.72 1.05 M43.48 104.05 C64.94 80.37, 86.2 54.49, 132.71 1.41 M43.48 104.05 C72.32 69.01, 102.12 35.43, 132.71 1.41 M48.47 104.41 C83.13 65.57, 114.31 28.96, 138.35 1.02 M48.47 104.41 C68.22 82.19, 88.16 59.84, 138.35 1.02 M54.11 104.02 C80.27 74.19, 105.69 46.3, 143.34 1.38 M54.11 104.02 C85.33 69.2, 116.18 33.31, 143.34 1.38 M59.1 104.38 C80.32 75.88, 105.19 50.74, 148.98 0.98 M59.1 104.38 C78.71 82.65, 95.7 61.88, 148.98 0.98 M64.09 104.74 C86.97 75.99, 112.73 50.32, 153.97 1.34 M64.09 104.74 C93.16 70.96, 119.73 38.64, 153.97 1.34 M69.73 104.34 C102.94 69.1, 135.81 30.01, 159.61 0.95 M69.73 104.34 C98.68 71.41, 127.81 39.26, 159.61 0.95 M74.72 104.7 C97.71 78.04, 123.37 47.32, 164.6 1.31 M74.72 104.7 C96.29 78.87, 121.39 51.28, 164.6 1.31 M80.36 104.31 C99.35 85.36, 116.66 64.41, 168.93 2.42 M80.36 104.31 C107.33 74.68, 133.9 43.13, 168.93 2.42 M85.35 104.67 C114.67 73.15, 143.18 39.25, 173.26 3.54 M85.35 104.67 C114.2 69.47, 143.7 34.16, 173.26 3.54 M90.99 104.27 C115.53 75.47, 137.98 51.11, 177.59 4.65 M90.99 104.27 C109.57 81.89, 128.83 61.38, 177.59 4.65 M95.98 104.63 C115.74 80.54, 140.99 53.94, 181.92 5.77 M95.98 104.63 C117.33 81.05, 140.58 55.49, 181.92 5.77 M101.62 104.24 C134.2 68.77, 164.12 33.3, 184.29 9.15 M101.62 104.24 C125.67 75.17, 150.1 47.55, 184.29 9.15 M106.61 104.6 C138.68 67.12, 167.99 33.45, 187.3 11.77 M106.61 104.6 C124.83 81.81, 145.33 57.72, 187.3 11.77 M112.25 104.2 C136.41 76.13, 156.42 49.26, 189.01 15.9 M112.25 104.2 C134.65 77.9, 158.82 51.51, 189.01 15.9 M117.24 104.56 C133.65 84.9, 150.63 64.52, 190.06 20.79 M117.24 104.56 C137.37 79.93, 160.23 53.19, 190.06 20.79 M122.88 104.17 C148.02 75.12, 176.91 41.43, 189.8 27.19 M122.88 104.17 C146.17 77.81, 169.22 50.7, 189.8 27.19 M127.87 104.53 C148.13 86.38, 165.19 62.3, 190.19 32.83 M127.87 104.53 C149.12 78.25, 170.71 53.94, 190.19 32.83 M133.51 104.14 C153.41 83.19, 175.05 58.35, 189.93 39.23 M133.51 104.14 C148.94 86.82, 164.01 69.82, 189.93 39.23 M138.5 104.5 C155.72 85.42, 175.16 61.86, 190.33 44.87 M138.5 104.5 C152.8 88.02, 165.26 71.77, 190.33 44.87 M144.14 104.1 C151.65 93.15, 163 83.68, 190.07 51.27 M144.14 104.1 C158.05 89.06, 171.42 73.43, 190.07 51.27 M149.13 104.46 C159.81 92.49, 166.42 85.66, 190.46 56.91 M149.13 104.46 C159.78 91.19, 171.85 77.58, 190.46 56.91 M154.77 104.07 C167.02 88.54, 184.36 72.05, 190.2 63.31 M154.77 104.07 C166.35 89.66, 177.97 77.24, 190.2 63.31 M159.76 104.43 C171.43 88.64, 185.05 77.24, 190.59 68.96 M159.76 104.43 C169.2 93.08, 181.13 81.26, 190.59 68.96 M164.75 104.79 C171.71 96.01, 179.66 90.63, 190.33 75.35 M164.75 104.79 C172.8 96.27, 179.54 88.02, 190.33 75.35 M171.05 103.64 C174.34 98.45, 178.18 94.5, 192.04 79.49 M171.05 103.64 C178.27 94.47, 186.49 87.4, 192.04 79.49 M176.69 103.24 C178.6 100.42, 182.39 97.64, 185.22 93.43 M176.69 103.24 C180.24 99.54, 182.96 95.73, 185.22 93.43" stroke="#82c91e" stroke-width="0.5" fill="none"></path><path d="M25.75 0 M25.75 0 C66.19 -1.27, 107.09 -1.95, 163.25 0 M25.75 0 C77.66 0.99, 129.49 0.65, 163.25 0 M163.25 0 C179.84 1, 189.27 6.89, 189 25.75 M163.25 0 C179.95 0.45, 190.54 10.79, 189 25.75 M189 25.75 C189.31 43.53, 187.78 64.35, 189 77.25 M189 25.75 C189.55 43.24, 188.63 59.83, 189 77.25 M189 77.25 C190.3 93.92, 180.65 102.31, 163.25 103 M189 77.25 C189.64 95.2, 181.13 104.46, 163.25 103 M163.25 103 C134.77 104.03, 104.12 101.64, 25.75 103 M163.25 103 C123.17 102, 81.31 102.98, 25.75 103 M25.75 103 C7.01 102.91, -0.38 92.85, 0 77.25 M25.75 103 C6.56 104.52, -1.4 96.08, 0 77.25 M0 77.25 C-1.97 60.5, 0.69 45.25, 0 25.75 M0 77.25 C-0.45 59.28, 0.93 41.29, 0 25.75 M0 25.75 C1.69 8.19, 8.6 0.76, 25.75 0 M0 25.75 C-2.07 10.65, 7.01 -1.05, 25.75 0" stroke="#5c940d" stroke-width="1" fill="none"></path></g><g stroke-linecap="round" transform="translate(341.125 405.25) rotate(0 80 15)"><path d="M5.7 1.83 L157.41 0.9 L158.49 2.67 L159.26 26.72 L160.02 26.49 L150.61 30.4 L6.15 31.21 L-1.4 25.28 L0.87 7.13 L1.9 -0.1 L6.89 -1.42" stroke="none" stroke-width="0" fill="#ffffff"></path><path d="M7.5 0 M7.5 0 C43.18 0.04, 79 -0.53, 152.5 0 M7.5 0 C53.9 0.67, 101.95 0.57, 152.5 0 M152.5 0 C156.8 0.85, 159.24 4.11, 160 7.5 M152.5 0 C155.69 1.74, 158.13 1.78, 160 7.5 M160 7.5 C158.9 14.24, 160.94 18.79, 160 22.5 M160 7.5 C160.06 12.12, 160.59 17.43, 160 22.5 M160 22.5 C161.98 28.44, 158.53 29.81, 152.5 30 M160 22.5 C158.16 29.06, 159.33 28.9, 152.5 30 M152.5 30 C109.93 28.33, 69.5 29.09, 7.5 30 M152.5 30 C112.87 30.79, 71.52 28.8, 7.5 30 M7.5 30 C4.31 29.76, -1.71 28.96, 0 22.5 M7.5 30 C1.54 31.43, -2.12 26.31, 0 22.5 M0 22.5 C-1.21 17.69, 0.15 12.89, 0 7.5 M0 22.5 C-0.6 18.37, 0 14.59, 0 7.5 M0 7.5 C-1.79 3.91, 3.61 -0.41, 7.5 0 M0 7.5 C0.26 2.97, 2.22 2.14, 7.5 0" stroke="#5c940d" stroke-width="1" fill="none"></path></g><g transform="translate(400.625 410.25) rotate(0 20.5 10)"><text x="20.5" y="14" font-family="Virgil, Segoe UI Emoji" font-size="16px" fill="#5c940d" text-anchor="middle" style="white-space: pre;" direction="ltr">0x0c</text></g><g transform="translate(530.125 408.25) rotate(0 61 12.5)"><text x="0" y="18" font-family="Virgil, Segoe UI Emoji" font-size="20px" fill="#000000" text-anchor="start" style="white-space: pre;" direction="ltr">0xf7fd7008</text></g><g transform="translate(334.125 485.75) rotate(0 85.5 18)"><text x="0" y="25" font-family="Virgil, Segoe UI Emoji" font-size="28px" fill="#5c940d" text-anchor="start" style="white-space: pre;" direction="ltr">LIB - .data</text></g><g transform="translate(187.875 213.25) rotate(0 66.5 12.5)"><text x="0" y="18" font-family="Virgil, Segoe UI Emoji" font-size="20px" fill="#000000" text-anchor="start" style="white-space: pre;" direction="ltr">0xaaaac038</text></g><g stroke-linecap="round" transform="translate(340.625 202.75) rotate(0 85.24999999999994 14.5)"><path d="M5.7 -0.28 L167.36 2.35 L168.41 2.18 L170.45 26.85 L170.37 25.32 L162.75 29.87 L3.71 28.58 L-1.52 24.31 L-1.42 6.17 L0.71 2.84 L7.26 0.79" stroke="none" stroke-width="0" fill="#ffffff"></path><path d="M7.25 0 M7.25 0 C53.77 -1.43, 101.55 -0.56, 163.25 0 M7.25 0 C52.7 0.16, 98.1 -0.24, 163.25 0 M163.25 0 C169.6 -1.63, 169.88 3.95, 170.5 7.25 M163.25 0 C166.86 1.77, 168.93 4.08, 170.5 7.25 M170.5 7.25 C171.82 12.69, 170.35 17.88, 170.5 21.75 M170.5 7.25 C170.97 12.84, 170.56 17.11, 170.5 21.75 M170.5 21.75 C171.86 28.17, 167.12 28.78, 163.25 29 M170.5 21.75 C168.77 24.36, 167.29 28.69, 163.25 29 M163.25 29 C109.24 28.39, 59.54 30.68, 7.25 29 M163.25 29 C114.87 29.56, 67.45 29.99, 7.25 29 M7.25 29 C3.66 27.16, -1.04 26.01, 0 21.75 M7.25 29 C4.62 28.76, -1.63 25.45, 0 21.75 M0 21.75 C1.03 15.96, -0.84 12.44, 0 7.25 M0 21.75 C0.45 17.63, -0.21 12.78, 0 7.25 M0 7.25 C0.41 2.17, 4.27 -0.93, 7.25 0 M0 7.25 C0.72 1.23, 4.53 -0.05, 7.25 0" stroke="#5f3dc4" stroke-width="1" fill="none"></path></g><g transform="translate(351.9950980392159 209.25) rotate(0 49 10)"><text x="0" y="14" font-family="Virgil, Segoe UI Emoji" font-size="16px" fill="#5f3dc4" text-anchor="start" style="white-space: pre;" direction="ltr">0xf7fd7008</text></g><g stroke-linecap="round" transform="translate(342.625 166.75) rotate(0 83.99999999999994 13.25)"><path d="M7.56 1.89 L159.74 -1.89 L164.68 2.35 L169.26 1.85 L167.5 20.75 L165.98 24.87 L159.4 25.89 L5.21 25.42 L0.55 25.87 L0.01 20.66 L0.57 3.94 L2.18 0.15 L5.6 -1.75" stroke="none" stroke-width="0" fill="#ffffff"></path><path d="M6.63 0 M6.63 0 C51.19 1.12, 96.39 1.87, 161.37 0 M6.63 0 C40.53 2.03, 74.52 2.03, 161.37 0 M161.37 0 C164.43 1.44, 169.36 2.19, 168 6.63 M161.37 0 C166 2.09, 168.16 1.98, 168 6.63 M168 6.63 C169.39 11.18, 168.76 14.36, 168 19.88 M168 6.63 C167.77 9.46, 167.59 11.81, 168 19.88 M168 19.88 C167.31 24.02, 166.56 27, 161.37 26.5 M168 19.88 C167.53 22.85, 165.46 28.58, 161.37 26.5 M161.37 26.5 C101.29 24.72, 35.88 26.42, 6.63 26.5 M161.37 26.5 C120.9 24.79, 82.42 24.97, 6.63 26.5 M6.63 26.5 C0.79 25.51, 0.39 22.33, 0 19.88 M6.63 26.5 C1.6 27.91, -1.84 22.73, 0 19.88 M0 19.88 C-1.2 16.87, 0.72 11.73, 0 6.63 M0 19.88 C0.59 15.44, 0.18 11.28, 0 6.63 M0 6.63 C1.84 2.16, 3.05 0.43, 6.63 0 M0 6.63 C1.03 1.06, 1.03 0.79, 6.63 0" stroke="#5f3dc4" stroke-width="1" fill="none"></path></g><g transform="translate(351.9950980392159 166.25) rotate(0 14 10)"><text x="0" y="14" font-family="Virgil, Segoe UI Emoji" font-size="16px" fill="#5f3dc4" text-anchor="start" style="white-space: pre;" direction="ltr">......</text></g><g stroke-linecap="round" transform="translate(341.125 243.25) rotate(0 84.24999999999994 13.25)"><path d="M4.99 -1.89 L162.28 1.93 L166.45 -1.46 L167.59 4.6 L168.13 19.9 L164.87 24.23 L160.46 25.42 L5.52 27.53 L1.67 25.63 L0.16 20.09 L0.94 2.22 L0.63 -0.1 L6.48 -0.23" stroke="none" stroke-width="0" fill="#ffffff"></path><path d="M6.63 0 M6.63 0 C49.75 0.94, 92.83 0.85, 161.87 0 M6.63 0 C40.04 -0.42, 73.83 -0.47, 161.87 0 M161.87 0 C167.65 -0.02, 168.69 4.02, 168.5 6.63 M161.87 0 C166.45 -0.23, 168.43 3.59, 168.5 6.63 M168.5 6.63 C169.31 11.63, 167.57 17.79, 168.5 19.88 M168.5 6.63 C167.94 11.01, 168.21 16.59, 168.5 19.88 M168.5 19.88 C169.26 24.79, 165.88 25.25, 161.87 26.5 M168.5 19.88 C168.17 26.37, 168.59 26.72, 161.87 26.5 M161.87 26.5 C129.02 27.77, 98.75 27.56, 6.63 26.5 M161.87 26.5 C130.55 25.95, 96.59 25.56, 6.63 26.5 M6.63 26.5 C2.6 24.54, -0.52 25.52, 0 19.88 M6.63 26.5 C0.37 24.93, -0.06 24.57, 0 19.88 M0 19.88 C0.86 15.09, 0.27 11.12, 0 6.63 M0 19.88 C0.08 15.72, 0.49 12.23, 0 6.63 M0 6.63 C0.84 2.64, 3.1 -1, 6.63 0 M0 6.63 C-1.18 3, 1.64 -0.92, 6.63 0" stroke="#5f3dc4" stroke-width="1" fill="none"></path></g><g transform="translate(352.9950980392159 243.75) rotate(0 14 10)"><text x="0" y="14" font-family="Virgil, Segoe UI Emoji" font-size="16px" fill="#5f3dc4" text-anchor="start" style="white-space: pre;" direction="ltr">......</text></g><g stroke-linecap="round" transform="translate(12.837301587301454 129.5) rotate(0 84 30)"><path d="M15.07 0.93 L157.77 2.08 L166.11 3.13 L166.86 10.77 L165.18 49.77 L163.72 58.83 L153.81 61.46 L6.51 59.77 L4.56 56.56 L0.13 48.84 L0.09 12.52 L4.94 4.4 L7 2.01 L14.04 1.66" stroke="none" stroke-width="0" fill="#ffffff"></path><path d="M15 0 M15 0 C57.61 -1.19, 103.66 -2.02, 153 0 M15 0 C66.1 1.08, 115.18 1.34, 153 0 M153 0 C164.38 1.61, 169.51 4.3, 168 15 M153 0 C161.01 -0.94, 167.97 5, 168 15 M168 15 C169.28 20.38, 166.63 29.9, 168 45 M168 15 C167.6 20.74, 167.96 27.98, 168 45 M168 45 C168.64 53.05, 164.4 60.14, 153 60 M168 45 C165.85 57.22, 163.72 61.51, 153 60 M153 60 C118.17 61.67, 85.92 62.48, 15 60 M153 60 C104.63 60.85, 56.5 60.2, 15 60 M15 60 C6.9 61.97, 1.04 53.49, 0 45 M15 60 C6.13 61.85, 1.45 55.13, 0 45 M0 45 C1.01 37.21, 0.69 31.85, 0 15 M0 45 C-0.54 32.56, -1.2 21.02, 0 15 M0 15 C-0.27 3.56, 6.17 1.01, 15 0 M0 15 C0.56 4.52, 4.07 1.98, 15 0" stroke="#1864ab" stroke-width="1" fill="none"></path></g><g transform="translate(30.837301587301454 149.5) rotate(0 66 10)"><text x="66" y="14" font-family="Virgil, Segoe UI Emoji" font-size="16px" fill="#1864ab" text-anchor="middle" style="white-space: pre;" direction="ltr">int i = e_number</text></g><g stroke-linecap="round"><g transform="translate(185.94093979733316 166.9662513127618) rotate(0 41.03857676262356 19.39988734413876)"><path d="M-0.7 -0.65 C7.94 -0.04, 36.85 -2.28, 50.76 4.41 C64.67 11.09, 77.33 33.91, 82.78 39.45 M1.14 1.62 C9.75 1.81, 36.64 -3.43, 50.1 2.57 C63.56 8.56, 76.27 31.63, 81.91 37.58" stroke="#1864ab" stroke-width="1" fill="none"></path></g><g transform="translate(185.94093979733316 166.9662513127618) rotate(0 41.03857676262356 19.39988734413876)"><path d="M60.82 25.49 C67.12 27.13, 71.94 31.01, 80.39 36.19 M61.14 23.67 C67.07 28.11, 72.01 31.73, 81.12 37.7" stroke="#1864ab" stroke-width="1" fill="none"></path></g><g transform="translate(185.94093979733316 166.9662513127618) rotate(0 41.03857676262356 19.39988734413876)"><path d="M73.86 15.68 C77.45 19.32, 79.52 25.27, 80.39 36.19 M74.18 13.86 C76.86 20.71, 78.63 26.72, 81.12 37.7" stroke="#1864ab" stroke-width="1" fill="none"></path></g></g><g transform="translate(195 138) rotate(0 17.5 10)"><text x="0" y="14" font-family="Virgil, Segoe UI Emoji" font-size="16px" fill="#1864ab" text-anchor="start" style="white-space: pre;" direction="ltr">load</text></g><g stroke-linecap="round" transform="translate(303.5 10) rotate(0 125.25 23.75)"><path d="M11.88 0 M11.88 0 C86.15 1.45, 162.57 0.29, 238.63 0 M11.88 0 C66.65 3.6, 118.96 1.28, 238.63 0 M238.63 0 C245.03 2.73, 246.71 6.08, 250.5 11.88 M238.63 0 C245.59 -3.73, 247.14 7.74, 250.5 11.88 M250.5 11.88 C247.31 20.75, 251.3 26.02, 250.5 35.63 M250.5 11.88 C251.71 20.8, 251.82 25.95, 250.5 35.63 M250.5 35.63 C246.67 42.26, 243.11 48.91, 238.63 47.5 M250.5 35.63 C246.74 40.21, 245.22 43.86, 238.63 47.5 M238.63 47.5 C169.29 44.27, 103.39 45.57, 11.88 47.5 M238.63 47.5 C147.34 46.84, 57.6 44.44, 11.88 47.5 M11.88 47.5 C6.09 49.65, 1.35 40.78, 0 35.63 M11.88 47.5 C6.31 46.97, -2.72 43.23, 0 35.63 M0 35.63 C0.22 29.32, 2.9 18.06, 0 11.88 M0 35.63 C-1.33 31.09, -1.23 20.83, 0 11.88 M0 11.88 C-2.04 0.62, 2.19 -0.93, 11.88 0 M0 11.88 C-1.05 0.63, 8.49 2.69, 11.88 0" stroke="#1864ab" stroke-width="1" fill="none"></path></g><g transform="translate(397.75 21.25) rotate(0 31 12.5)"><text x="31" y="18" font-family="Virgil, Segoe UI Emoji" font-size="20px" fill="#1864ab" text-anchor="middle" style="white-space: pre;" direction="ltr">LD.SO</text></g><g stroke-linecap="round"><g transform="translate(428.03857522522276 63) rotate(0 1.4045233986976768 37.05210407137872)"><path d="M-1.16 -1.37 C-0.14 11.29, 3.47 60.4, 3.97 73.31 M3.4 4.06 C4.25 17.19, 1.05 62.95, 1.74 75.48" stroke="#1864ab" stroke-width="1" fill="none"></path></g><g transform="translate(428.03857522522276 63) rotate(0 1.4045233986976768 37.05210407137872)"><path d="M-10.15 47.19 C-10.36 50.55, -4.18 58.78, 3.95 76.84 M-6.61 45.55 C-4.88 58.71, -1.34 67.21, 2.29 77.43" stroke="#1864ab" stroke-width="1" fill="none"></path></g><g transform="translate(428.03857522522276 63) rotate(0 1.4045233986976768 37.05210407137872)"><path d="M10.37 47.43 C5.59 50.56, 7.2 58.74, 3.95 76.84 M13.91 45.79 C8.36 58.87, 4.62 67.29, 2.29 77.43" stroke="#1864ab" stroke-width="1" fill="none"></path></g></g><g transform="translate(442.5 89) rotate(0 52.5 20)"><text x="52.5" y="14" font-family="Virgil, Segoe UI Emoji" font-size="16px" fill="#1864ab" text-anchor="middle" style="white-space: pre;" direction="ltr">fill relocation</text><text x="52.5" y="34" font-family="Virgil, Segoe UI Emoji" font-size="16px" fill="#1864ab" text-anchor="middle" style="white-space: pre;" direction="ltr">entries</text></g><g stroke-linecap="round"><g transform="translate(518 217.5) rotate(0 35.70447935634036 89.38332707837225)"><path d="M1.03 -1.07 C6.93 -0.77, 26.56 -5.94, 38.23 4.17 C49.91 14.29, 66.78 38.21, 71.09 59.63 C75.39 81.04, 73.45 112.42, 64.06 132.67 C54.67 152.91, 23.19 172.98, 14.74 181.09 M-1.86 -4.12 C3.52 -2.29, 24.82 -4.45, 36.59 6.75 C48.37 17.95, 64.16 42.89, 68.79 63.08 C73.41 83.27, 72.61 107.93, 64.35 127.89 C56.09 147.86, 27.4 174.21, 19.23 182.88" stroke="#862e9c" stroke-width="1" fill="none"></path></g><g transform="translate(518 217.5) rotate(0 35.70447935634036 89.38332707837225)"><path d="M30.22 157.19 C24.44 165.31, 23.09 176.72, 22.55 181.09 M31.82 157.52 C26.6 166.84, 22.45 173.77, 19.25 181.37" stroke="#862e9c" stroke-width="1" fill="none"></path></g><g transform="translate(518 217.5) rotate(0 35.70447935634036 89.38332707837225)"><path d="M44.82 171.62 C32.95 174.08, 25.77 179.72, 22.55 181.09 M46.41 171.95 C36.25 176.31, 26.9 178.09, 19.25 181.37" stroke="#862e9c" stroke-width="1" fill="none"></path></g></g><g transform="translate(615.5 285) rotate(0 17.5 10)"><text x="0" y="14" font-family="Virgil, Segoe UI Emoji" font-size="16px" fill="#862e9c" text-anchor="start" style="white-space: pre;" direction="ltr">load</text></g><g stroke-linecap="round"><g transform="translate(334 422.5) rotate(0 -73.52484475255014 -15.306399513334043)"><path d="M1.55 -1.63 C-10.55 -7.16, -48.15 -26.57, -72.77 -31.25 C-97.39 -35.93, -134.13 -29.27, -146.16 -29.72 M-1.05 3.66 C-13.55 -1.59, -50.69 -21.44, -75.29 -27.76 C-99.88 -34.08, -137.09 -33.46, -148.6 -34.28" stroke="#5c940d" stroke-width="1" fill="none"></path></g><g transform="translate(334 422.5) rotate(0 -73.52484475255014 -15.306399513334043)"><path d="M-122.39 -44.28 C-128.69 -42.16, -134.18 -37.73, -152.08 -32.89 M-119.85 -43.02 C-127.45 -39.09, -138.7 -39.5, -149.23 -36.13" stroke="#5c940d" stroke-width="1" fill="none"></path></g><g transform="translate(334 422.5) rotate(0 -73.52484475255014 -15.306399513334043)"><path d="M-123.11 -23.77 C-129.49 -27.69, -134.76 -29.29, -152.08 -32.89 M-120.58 -22.52 C-127.84 -25.06, -138.86 -31.94, -149.23 -36.13" stroke="#5c940d" stroke-width="1" fill="none"></path></g></g><g stroke-linecap="round" transform="translate(10 359) rotate(0 84 30)"><path d="M16.06 -0.79 L159.45 -0.61 L165.55 1.77 L167.3 12.84 L168.15 53.52 L163.2 58.91 L152.54 61.08 L10.42 58.66 L3.33 54.87 L1.88 46.93 L0.19 10.52 L4.92 1.76 L7.63 0.86 L14.53 -1.91" stroke="none" stroke-width="0" fill="#ffffff"></path><path d="M15 0 M15 0 C55.72 -1.46, 92.9 0.6, 153 0 M15 0 C46.47 -0.56, 78.28 -0.51, 153 0 M153 0 C162.83 1.23, 166.66 4.57, 168 15 M153 0 C163.13 -1.07, 165.93 4.93, 168 15 M168 15 C169.2 22.76, 169.75 30.84, 168 45 M168 15 C169.01 23.24, 168.7 30.16, 168 45 M168 45 C168.66 56.47, 164.04 58.52, 153 60 M168 45 C165.93 53.14, 163.01 61.01, 153 60 M153 60 C122.33 60.99, 88.77 58.56, 15 60 M153 60 C111.91 62.38, 72.46 61.54, 15 60 M15 60 C3.89 58.86, 0.03 53.58, 0 45 M15 60 C4.49 61.33, 0.67 53.37, 0 45 M0 45 C-0.49 37.73, 1.07 29.98, 0 15 M0 45 C-0.87 34.97, -0.49 23.29, 0 15 M0 15 C-1.15 6.84, 6.61 0.51, 15 0 M0 15 C-1.21 4.19, 3.4 -1.14, 15 0" stroke="#5c940d" stroke-width="1" fill="none"></path></g><g transform="translate(54 379) rotate(0 40 10)"><text x="40" y="14" font-family="Virgil, Segoe UI Emoji" font-size="16px" fill="#5c940d" text-anchor="middle" style="white-space: pre;" direction="ltr">i == 0x0c</text></g></svg>