<svg version="1.1" xmlns="http://www.w3.org/2000/svg" viewBox="0 0 1015.5 430.44444444444446" width="2031" height="860.8888888888889">
  <!-- svg-source:excalidraw -->
  
  <defs>
    <style>
      @font-face {
        font-family: "Virgil";
        src: url("https://excalidraw.com/Virgil.woff2");
      }
      @font-face {
        font-family: "Cascadia";
        src: url("https://excalidraw.com/Cascadia.woff2");
      }
    </style>
  </defs>
  <rect x="0" y="0" width="1015.5" height="430.44444444444446" fill="#ffffff"></rect><g stroke-opacity="0.3" fill-opacity="0.3" transform="translate(215.35615079365073 395.44444444444446) rotate(0 64.5 12.5)"><text x="0" y="18" font-family="Virgil, Segoe UI Emoji" font-size="20px" fill="#d9480f" text-anchor="start" style="white-space: pre;" direction="ltr">@hemashushu</text></g><g stroke-linecap="round" transform="translate(710.8938492063493 60) rotate(0 94.5 64.75)"><path d="M7.96 8.25 C7.96 8.25, 7.96 8.25, 7.96 8.25 M7.96 8.25 C7.96 8.25, 7.96 8.25, 7.96 8.25 M3.76 19.17 C6.35 13.24, 13.72 8.05, 18.2 2.57 M3.76 19.17 C7.57 13.67, 12.08 9.72, 18.2 2.57 M2.85 26.32 C9.47 19.35, 14.25 10.32, 24.5 1.42 M2.85 26.32 C7.29 20.71, 12.49 15.39, 24.5 1.42 M2.58 32.72 C11.94 19.54, 25.83 6.76, 30.8 0.27 M2.58 32.72 C14.12 20.27, 24.17 8.95, 30.8 0.27 M2.32 39.12 C13.43 29.53, 24.07 17.37, 34.47 2.14 M2.32 39.12 C14.33 27.18, 24.47 13.28, 34.47 2.14 M2.72 44.76 C11.27 35.99, 20.44 25.15, 40.11 1.74 M2.72 44.76 C12.66 34.31, 19.54 24.91, 40.11 1.74 M2.46 51.16 C14.33 37.96, 25.61 21.54, 45.1 2.1 M2.46 51.16 C12.84 37.41, 25.31 23.62, 45.1 2.1 M2.85 56.8 C14.26 42.05, 28.98 27.83, 50.74 1.71 M2.85 56.8 C12.34 45.06, 22.82 33.23, 50.74 1.71 M2.59 63.2 C22.72 40.86, 44.58 15.84, 55.73 2.07 M2.59 63.2 C18.89 44.15, 36.25 23.75, 55.73 2.07 M2.33 69.6 C18.97 48.89, 36.69 28.85, 61.37 1.68 M2.33 69.6 C24.57 44.78, 45.38 20.6, 61.37 1.68 M2.72 75.24 C23.89 52.75, 43.44 28.85, 66.36 2.04 M2.72 75.24 C29.12 44.91, 52.73 16.25, 66.36 2.04 M2.46 81.64 C20.17 61.66, 34.74 42.78, 72 1.64 M2.46 81.64 C26.35 55.59, 47.49 28.53, 72 1.64 M2.86 87.28 C30.17 59.28, 52.51 27.11, 76.99 2 M2.86 87.28 C27.31 58.19, 52.7 30.66, 76.99 2 M2.59 93.68 C35.07 59.18, 67.04 19.64, 82.63 1.61 M2.59 93.68 C22.56 71.26, 41.09 48.25, 82.63 1.61 M2.33 100.08 C28.06 73.68, 49.9 43.17, 87.62 1.97 M2.33 100.08 C27.71 69.72, 55.09 37.86, 87.62 1.97 M2.07 106.48 C36.15 67.1, 74.43 25.61, 92.61 2.33 M2.07 106.48 C22.07 83.63, 43.58 59.37, 92.61 2.33 M3.78 110.61 C28.47 80.53, 55.4 47.74, 98.25 1.93 M3.78 110.61 C26.94 83.03, 51.39 55, 98.25 1.93 M5.48 114.74 C29.79 86.48, 51.97 58.87, 103.24 2.29 M5.48 114.74 C36.53 79.2, 66.73 44.9, 103.24 2.29 M7.19 118.88 C39.11 82.68, 67.81 46.36, 108.88 1.9 M7.19 118.88 C32.19 91.88, 56.65 62.49, 108.88 1.9 M9.55 122.26 C38.88 84.27, 72.06 48.53, 113.87 2.26 M9.55 122.26 C41.2 87.56, 71.26 51.35, 113.87 2.26 M12.57 124.88 C36.05 100.33, 59.17 70.08, 119.51 1.86 M12.57 124.88 C41.73 92.7, 70.86 58.24, 119.51 1.86 M16.25 126.75 C43.92 92.07, 73.19 57.42, 124.5 2.22 M16.25 126.75 C51.56 88.45, 85.32 47.43, 124.5 2.22 M19.92 128.62 C47.99 93.64, 79.82 58.57, 130.14 1.83 M19.92 128.62 C54.01 89.19, 89.66 48.89, 130.14 1.83 M24.25 129.73 C50.81 98.31, 78.62 68.49, 135.13 2.19 M24.25 129.73 C53.3 97.93, 80.28 64.96, 135.13 2.19 M29.24 130.09 C58.68 94.91, 88.14 61.71, 140.77 1.79 M29.24 130.09 C55.66 97.89, 83.81 66.04, 140.77 1.79 M34.23 130.45 C61.41 99.19, 87.19 69.56, 145.76 2.15 M34.23 130.45 C68.21 89.63, 104.64 48.72, 145.76 2.15 M39.22 130.82 C77.14 88.61, 114.64 40.88, 151.4 1.76 M39.22 130.82 C78.56 87.35, 118.1 42.71, 151.4 1.76 M44.2 131.18 C70.29 100.67, 94.46 70.73, 157.7 0.61 M44.2 131.18 C75.39 94.61, 108.93 55.6, 157.7 0.61 M49.85 130.78 C74.3 102.1, 101.92 73.64, 162.03 1.73 M49.85 130.78 C92.03 81.88, 133.58 34.56, 162.03 1.73 M54.83 131.14 C94.16 82.94, 133.8 38.36, 167.02 2.09 M54.83 131.14 C86.07 97.67, 113.66 64.97, 167.02 2.09 M60.48 130.75 C100.77 82.58, 145 35.89, 172.01 2.45 M60.48 130.75 C88.57 96.5, 118.5 63.51, 172.01 2.45 M65.46 131.11 C104.6 87.19, 140.84 47.69, 175.02 5.07 M65.46 131.11 C98.14 93.93, 129.71 55.5, 175.02 5.07 M71.11 130.71 C95.24 103.84, 121.66 73.12, 178.7 6.94 M71.11 130.71 C103.19 95.61, 135.31 57.52, 178.7 6.94 M76.09 131.07 C117.47 84.04, 157.74 35.79, 182.37 8.81 M76.09 131.07 C117.9 82.54, 159.15 36.2, 182.37 8.81 M81.74 130.68 C114.85 89.78, 153.11 48.52, 184.08 12.94 M81.74 130.68 C112.21 96.67, 142.16 60.67, 184.08 12.94 M86.72 131.04 C122.95 90.59, 159.16 47.52, 186.44 16.32 M86.72 131.04 C115.78 99.58, 142.79 66.45, 186.44 16.32 M92.37 130.64 C121.09 101.58, 147.86 68.61, 188.81 19.7 M92.37 130.64 C113.41 106.15, 133.48 82.72, 188.81 19.7 M97.35 131 C133.92 90.32, 166 52.67, 189.2 25.34 M97.35 131 C122.78 103.45, 145.18 75.95, 189.2 25.34 M103 130.61 C131.35 100.26, 156.37 70.03, 190.25 30.23 M103 130.61 C135.19 94.77, 167.22 58.09, 190.25 30.23 M107.98 130.97 C138.29 93.67, 172.62 61.36, 191.96 34.37 M107.98 130.97 C139.06 97.2, 167.86 61.73, 191.96 34.37 M113.63 130.57 C134.88 105, 158.46 80.37, 191.7 40.76 M113.63 130.57 C143.49 94.94, 174.1 60.83, 191.7 40.76 M118.61 130.93 C135.23 111.03, 150.55 94.05, 191.44 47.16 M118.61 130.93 C143.12 104.74, 166.73 76.97, 191.44 47.16 M124.26 130.54 C140.9 113.38, 152.82 96.55, 191.83 52.8 M124.26 130.54 C143.5 109.08, 163.31 86.5, 191.83 52.8 M129.24 130.9 C151.56 106.49, 177.62 75.91, 191.57 59.2 M129.24 130.9 C146.86 110.61, 164.28 89.28, 191.57 59.2 M134.89 130.5 C151.68 113.4, 164.62 95.04, 191.31 65.6 M134.89 130.5 C156.56 105.25, 179.13 78.16, 191.31 65.6 M139.87 130.86 C148 119.51, 159.53 104.57, 191.7 71.24 M139.87 130.86 C156.06 111.6, 171.65 93.2, 191.7 71.24 M145.52 130.47 C163.22 111.52, 178.74 91.49, 191.44 77.64 M145.52 130.47 C162.9 110.03, 182.33 88.54, 191.44 77.64 M150.5 130.83 C159.61 119.51, 169.86 107.07, 191.18 84.04 M150.5 130.83 C158.34 120.98, 166.81 110.61, 191.18 84.04 M156.8 129.68 C169.78 116.26, 179.58 102.17, 191.57 89.68 M156.8 129.68 C167.18 116.39, 178.92 104.13, 191.57 89.68 M163.1 128.53 C168.38 121.84, 176.25 112.55, 191.31 96.08 M163.1 128.53 C171.08 117.83, 180.31 108.75, 191.31 96.08 M168.74 128.14 C175.46 121.96, 178.42 114.78, 189.08 104.74 M168.74 128.14 C175.92 121.22, 180.9 112.95, 189.08 104.74 M173.08 129.25 C177.08 126.11, 179.31 123.23, 188.16 111.89 M173.08 129.25 C178.27 124.01, 182.2 118.77, 188.16 111.89" stroke="#be4bdb" stroke-width="0.5" fill="none"></path><path d="M32.38 0 M32.38 0 C74.4 -2.18, 113.29 -0.09, 156.63 0 M32.38 0 C71.23 0.84, 110.74 0.84, 156.63 0 M156.63 0 C179.55 -1.91, 188.12 10.84, 189 32.38 M156.63 0 C176.4 -0.1, 188.56 8.99, 189 32.38 M189 32.38 C190.88 46.54, 190.55 58.66, 189 97.13 M189 32.38 C189.54 46.95, 188.13 61.08, 189 97.13 M189 97.13 C187.26 119.69, 179.23 131.43, 156.63 129.5 M189 97.13 C190.94 118.26, 178.22 130.37, 156.63 129.5 M156.63 129.5 C129.64 130.29, 103.64 127.93, 32.38 129.5 M156.63 129.5 C113.06 129.03, 70.18 128.47, 32.38 129.5 M32.38 129.5 C10.81 131.47, -0.92 120.2, 0 97.13 M32.38 129.5 C11.44 128.99, -0.73 120.02, 0 97.13 M0 97.13 C0.61 78.05, -1.88 59.6, 0 32.38 M0 97.13 C0.41 83.27, 0.48 69.64, 0 32.38 M0 32.38 C1.22 9.04, 10.42 -1.42, 32.38 0 M0 32.38 C-1.91 11.97, 9.84 1.17, 32.38 0" stroke="#862e9c" stroke-width="1" fill="none"></path></g><g transform="translate(771.3938492063493 10) rotate(0 27.5 18)"><text x="0" y="25" font-family="Virgil, Segoe UI Emoji" font-size="28px" fill="#862e9c" text-anchor="start" style="white-space: pre;" direction="ltr">.got</text></g><g stroke-linecap="round" transform="translate(716.1438492063493 239.5) rotate(0 94.5 17.5)"><path d="M8.75 0 M8.75 0 C73.27 -1.15, 133.49 -3.12, 180.25 0 M8.75 0 C57.02 -2.57, 107.13 -0.66, 180.25 0 M180.25 0 C187.76 -1.87, 188.5 3.79, 189 8.75 M180.25 0 C185.66 0.03, 186.73 2.21, 189 8.75 M189 8.75 C189.8 12.77, 189.6 16.91, 189 26.25 M189 8.75 C188.6 13.42, 188.98 19.52, 189 26.25 M189 26.25 C188.65 31.38, 186.94 34.24, 180.25 35 M189 26.25 C190.85 30.27, 187.82 33.13, 180.25 35 M180.25 35 C135.68 32.73, 89.47 35.45, 8.75 35 M180.25 35 C129.04 36.46, 77.67 37.16, 8.75 35 M8.75 35 C4.67 36.98, 0.94 33.11, 0 26.25 M8.75 35 C2.69 33.16, 1.56 33.91, 0 26.25 M0 26.25 C-1.68 21.23, -0.22 18.1, 0 8.75 M0 26.25 C-0.09 21.36, 0.91 14.97, 0 8.75 M0 8.75 C-1.99 4.73, 2.68 -1.71, 8.75 0 M0 8.75 C1.67 1.96, 4.34 -2.12, 8.75 0" stroke="#5c940d" stroke-width="1" fill="none"></path></g><g transform="translate(590.8938492063493 105.5) rotate(0 58.5 20)"><text x="0" y="14" font-family="Virgil, Segoe UI Emoji" font-size="16px" fill="#000000" text-anchor="start" style="white-space: pre;" direction="ltr">0xaac020</text><text x="0" y="34" font-family="Virgil, Segoe UI Emoji" font-size="16px" fill="#000000" text-anchor="start" style="white-space: pre;" direction="ltr">e_add@got.plt</text></g><g stroke-linecap="round" transform="translate(719.1438492063493 110) rotate(0 85.24999999999994 14.5)"><path d="M5.7 -0.28 L167.36 2.35 L168.41 2.18 L170.45 26.85 L170.37 25.32 L162.75 29.87 L3.71 28.58 L-1.52 24.31 L-1.42 6.17 L0.71 2.84 L7.26 0.79" stroke="none" stroke-width="0" fill="#ffffff"></path><path d="M7.25 0 M7.25 0 C53.77 -1.43, 101.55 -0.56, 163.25 0 M7.25 0 C52.7 0.16, 98.1 -0.24, 163.25 0 M163.25 0 C169.6 -1.63, 169.88 3.95, 170.5 7.25 M163.25 0 C166.86 1.77, 168.93 4.08, 170.5 7.25 M170.5 7.25 C171.82 12.69, 170.35 17.88, 170.5 21.75 M170.5 7.25 C170.97 12.84, 170.56 17.11, 170.5 21.75 M170.5 21.75 C171.86 28.17, 167.12 28.78, 163.25 29 M170.5 21.75 C168.77 24.36, 167.29 28.69, 163.25 29 M163.25 29 C109.24 28.39, 59.54 30.68, 7.25 29 M163.25 29 C114.87 29.56, 67.45 29.99, 7.25 29 M7.25 29 C3.66 27.16, -1.04 26.01, 0 21.75 M7.25 29 C4.62 28.76, -1.63 25.45, 0 21.75 M0 21.75 C1.03 15.96, -0.84 12.44, 0 7.25 M0 21.75 C0.45 17.63, -0.21 12.78, 0 7.25 M0 7.25 C0.41 2.17, 4.27 -0.93, 7.25 0 M0 7.25 C0.72 1.23, 4.53 -0.05, 7.25 0" stroke="#5f3dc4" stroke-width="1" fill="none"></path></g><g transform="translate(730.5139472455652 116.5) rotate(0 52 10)"><text x="0" y="14" font-family="Virgil, Segoe UI Emoji" font-size="16px" fill="#5f3dc4" text-anchor="start" style="white-space: pre;" direction="ltr">0xaaaaa5c0</text></g><g stroke-linecap="round" transform="translate(721.1438492063493 74) rotate(0 83.99999999999994 13.25)"><path d="M7.56 1.89 L159.74 -1.89 L164.68 2.35 L169.26 1.85 L167.5 20.75 L165.98 24.87 L159.4 25.89 L5.21 25.42 L0.55 25.87 L0.01 20.66 L0.57 3.94 L2.18 0.15 L5.6 -1.75" stroke="none" stroke-width="0" fill="#ffffff"></path><path d="M6.63 0 M6.63 0 C51.19 1.12, 96.39 1.87, 161.37 0 M6.63 0 C40.53 2.03, 74.52 2.03, 161.37 0 M161.37 0 C164.43 1.44, 169.36 2.19, 168 6.63 M161.37 0 C166 2.09, 168.16 1.98, 168 6.63 M168 6.63 C169.39 11.18, 168.76 14.36, 168 19.88 M168 6.63 C167.77 9.46, 167.59 11.81, 168 19.88 M168 19.88 C167.31 24.02, 166.56 27, 161.37 26.5 M168 19.88 C167.53 22.85, 165.46 28.58, 161.37 26.5 M161.37 26.5 C101.29 24.72, 35.88 26.42, 6.63 26.5 M161.37 26.5 C120.9 24.79, 82.42 24.97, 6.63 26.5 M6.63 26.5 C0.79 25.51, 0.39 22.33, 0 19.88 M6.63 26.5 C1.6 27.91, -1.84 22.73, 0 19.88 M0 19.88 C-1.2 16.87, 0.72 11.73, 0 6.63 M0 19.88 C0.59 15.44, 0.18 11.28, 0 6.63 M0 6.63 C1.84 2.16, 3.05 0.43, 6.63 0 M0 6.63 C1.03 1.06, 1.03 0.79, 6.63 0" stroke="#5f3dc4" stroke-width="1" fill="none"></path></g><g transform="translate(730.5139472455652 73.5) rotate(0 14 10)"><text x="0" y="14" font-family="Virgil, Segoe UI Emoji" font-size="16px" fill="#5f3dc4" text-anchor="start" style="white-space: pre;" direction="ltr">......</text></g><g stroke-linecap="round" transform="translate(719.6438492063493 150.5) rotate(0 84.24999999999994 13.25)"><path d="M4.99 -1.89 L162.28 1.93 L166.45 -1.46 L167.59 4.6 L168.13 19.9 L164.87 24.23 L160.46 25.42 L5.52 27.53 L1.67 25.63 L0.16 20.09 L0.94 2.22 L0.63 -0.1 L6.48 -0.23" stroke="none" stroke-width="0" fill="#ffffff"></path><path d="M6.63 0 M6.63 0 C49.75 0.94, 92.83 0.85, 161.87 0 M6.63 0 C40.04 -0.42, 73.83 -0.47, 161.87 0 M161.87 0 C167.65 -0.02, 168.69 4.02, 168.5 6.63 M161.87 0 C166.45 -0.23, 168.43 3.59, 168.5 6.63 M168.5 6.63 C169.31 11.63, 167.57 17.79, 168.5 19.88 M168.5 6.63 C167.94 11.01, 168.21 16.59, 168.5 19.88 M168.5 19.88 C169.26 24.79, 165.88 25.25, 161.87 26.5 M168.5 19.88 C168.17 26.37, 168.59 26.72, 161.87 26.5 M161.87 26.5 C129.02 27.77, 98.75 27.56, 6.63 26.5 M161.87 26.5 C130.55 25.95, 96.59 25.56, 6.63 26.5 M6.63 26.5 C2.6 24.54, -0.52 25.52, 0 19.88 M6.63 26.5 C0.37 24.93, -0.06 24.57, 0 19.88 M0 19.88 C0.86 15.09, 0.27 11.12, 0 6.63 M0 19.88 C0.08 15.72, 0.49 12.23, 0 6.63 M0 6.63 C0.84 2.64, 3.1 -1, 6.63 0 M0 6.63 C-1.18 3, 1.64 -0.92, 6.63 0" stroke="#5f3dc4" stroke-width="1" fill="none"></path></g><g transform="translate(731.5139472455652 151) rotate(0 14 10)"><text x="0" y="14" font-family="Virgil, Segoe UI Emoji" font-size="16px" fill="#5f3dc4" text-anchor="start" style="white-space: pre;" direction="ltr">......</text></g><g stroke-linecap="round" transform="translate(14.856150793650727 146.75) rotate(0 84 17.5)"><path d="M8.82 0.93 L161.28 1.69 L169.32 4.3 L166.55 29.37 L161.19 32.66 L160.83 35.94 L5.73 35.92 L-1.38 30.79 L0.81 9.06 L2.08 2.51 L8.61 1.04" stroke="none" stroke-width="0" fill="#ffffff"></path><path d="M8.75 0 M8.75 0 C63.97 0.12, 118.7 1.48, 159.25 0 M8.75 0 C61.01 1.34, 112.99 1.8, 159.25 0 M159.25 0 C166.9 -1.9, 169.4 2.44, 168 8.75 M159.25 0 C163.64 0.07, 169.59 4.77, 168 8.75 M168 8.75 C167.22 15.3, 167.94 20.46, 168 26.25 M168 8.75 C167.39 12.55, 168.69 16.56, 168 26.25 M168 26.25 C167.74 31.76, 164.36 34.36, 159.25 35 M168 26.25 C167.99 34.05, 165.82 32.76, 159.25 35 M159.25 35 C105.51 34.22, 49.23 32.45, 8.75 35 M159.25 35 C100.26 34.03, 41.26 34.5, 8.75 35 M8.75 35 C3.78 36.42, -0.87 31.83, 0 26.25 M8.75 35 C1.46 33.21, 2.18 34.35, 0 26.25 M0 26.25 C1.54 21.2, 0.23 12.46, 0 8.75 M0 26.25 C-0.55 21.5, -0.07 17, 0 8.75 M0 8.75 C1.77 2.56, 2.37 -1.28, 8.75 0 M0 8.75 C-2.15 2.04, 2.61 -1.65, 8.75 0" stroke="#1864ab" stroke-width="1" fill="none"></path></g><g transform="translate(44.35615079365073 151.75) rotate(0 54.5 12.5)"><text x="54.5" y="18" font-family="Virgil, Segoe UI Emoji" font-size="20px" fill="#1864ab" text-anchor="middle" style="white-space: pre;" direction="ltr">call e_add</text></g><g transform="translate(531.5188492063493 395.75) rotate(0 36 10)"><text x="0" y="14" font-family="Virgil, Segoe UI Emoji" font-size="16px" fill="#d9480f" text-anchor="start" style="white-space: pre;" direction="ltr">got addr</text></g><g transform="translate(204 116.5) rotate(0 17 10)"><text x="0" y="14" font-family="Virgil, Segoe UI Emoji" font-size="16px" fill="#1864ab" text-anchor="start" style="white-space: pre;" direction="ltr">jump</text></g><g stroke-linecap="round" transform="translate(319.5 62.25) rotate(0 94.5 64.75)"><path d="M7.96 8.25 C7.96 8.25, 7.96 8.25, 7.96 8.25 M7.96 8.25 C7.96 8.25, 7.96 8.25, 7.96 8.25 M3.76 19.17 C8.77 12.24, 13.98 6.79, 18.2 2.57 M3.76 19.17 C9.54 13.63, 13.98 7.95, 18.2 2.57 M2.85 26.32 C11.74 20.26, 16.12 10.5, 24.5 1.42 M2.85 26.32 C7.98 20.96, 10.58 16.16, 24.5 1.42 M2.58 32.72 C9.65 25.71, 14.99 16.44, 30.8 0.27 M2.58 32.72 C12.1 22.01, 20.14 13.9, 30.8 0.27 M2.32 39.12 C11.35 30.42, 19.16 21.59, 34.47 2.14 M2.32 39.12 C14.99 24.9, 26.77 9.86, 34.47 2.14 M2.72 44.76 C17.71 28.79, 33.17 13.69, 40.11 1.74 M2.72 44.76 C17.86 28.06, 31.01 11.21, 40.11 1.74 M2.46 51.16 C14.09 37.09, 27.07 25.73, 45.1 2.1 M2.46 51.16 C16.69 34.67, 32.88 17.82, 45.1 2.1 M2.85 56.8 C15.62 42.92, 25.8 31.26, 50.74 1.71 M2.85 56.8 C19.88 37.06, 36.25 17.8, 50.74 1.71 M2.59 63.2 C15.55 46.81, 28.76 32.28, 55.73 2.07 M2.59 63.2 C14.7 48.98, 26.16 37.33, 55.73 2.07 M2.33 69.6 C17.33 52.1, 31.71 33.28, 61.37 1.68 M2.33 69.6 C25.87 42.89, 49.56 14.65, 61.37 1.68 M2.72 75.24 C23.82 51.26, 43.56 27.99, 66.36 2.04 M2.72 75.24 C22.41 52.94, 41.93 31.22, 66.36 2.04 M2.46 81.64 C21.08 61.23, 38.73 39.9, 72 1.64 M2.46 81.64 C16.19 64.36, 30.41 48.62, 72 1.64 M2.86 87.28 C26.78 60.21, 50.29 32.78, 76.99 2 M2.86 87.28 C27.53 58.25, 52.14 31.51, 76.99 2 M2.59 93.68 C34.73 57.61, 64.27 26.42, 82.63 1.61 M2.59 93.68 C30.29 61.58, 56.11 30.58, 82.63 1.61 M2.33 100.08 C28.48 72.61, 53.43 39.95, 87.62 1.97 M2.33 100.08 C31.13 66.5, 60.6 34.63, 87.62 1.97 M2.07 106.48 C37.1 68.3, 71.16 26.16, 92.61 2.33 M2.07 106.48 C24.92 81.84, 46 55.53, 92.61 2.33 M3.78 110.61 C28.06 83.46, 53.02 55.76, 98.25 1.93 M3.78 110.61 C22.8 88.54, 41.72 65.08, 98.25 1.93 M5.48 114.74 C41.79 71.87, 80.76 24.32, 103.24 2.29 M5.48 114.74 C29.26 88.6, 51.3 61.55, 103.24 2.29 M7.19 118.88 C29.66 94.01, 51.07 70.72, 108.88 1.9 M7.19 118.88 C44.66 76.71, 80.85 34.13, 108.88 1.9 M9.55 122.26 C43.54 85.91, 72.1 47.25, 113.87 2.26 M9.55 122.26 C39.48 85.27, 71.57 48.53, 113.87 2.26 M12.57 124.88 C40.46 95.59, 67.42 61.34, 119.51 1.86 M12.57 124.88 C36.7 99.85, 57.67 73.82, 119.51 1.86 M16.25 126.75 C57.68 78.98, 99.52 31.99, 124.5 2.22 M16.25 126.75 C51.77 86.46, 87.97 44.34, 124.5 2.22 M19.92 128.62 C60.21 81.74, 99.8 34.91, 130.14 1.83 M19.92 128.62 C56.43 84.85, 95.19 42.69, 130.14 1.83 M24.25 129.73 C54.85 96.24, 81.9 64.73, 135.13 2.19 M24.25 129.73 C54.08 96.82, 81.86 63.31, 135.13 2.19 M29.24 130.09 C49.66 105.13, 75.02 75.43, 140.77 1.79 M29.24 130.09 C64.13 87.42, 100.81 46.49, 140.77 1.79 M34.23 130.45 C70.3 86.79, 111.38 46.47, 145.76 2.15 M34.23 130.45 C70.91 88.17, 108.95 44.5, 145.76 2.15 M39.22 130.82 C67.9 96.26, 101.4 59.01, 151.4 1.76 M39.22 130.82 C75.99 92.01, 109.2 51.06, 151.4 1.76 M44.2 131.18 C65.3 102.47, 89.98 78.7, 157.7 0.61 M44.2 131.18 C74.72 97.95, 103.27 64.76, 157.7 0.61 M49.85 130.78 C91.53 82.51, 133.85 33.72, 162.03 1.73 M49.85 130.78 C73.96 104.65, 97.18 77.14, 162.03 1.73 M54.83 131.14 C76.3 107.01, 100.93 80.1, 167.02 2.09 M54.83 131.14 C77.55 104.42, 100.54 78, 167.02 2.09 M60.48 130.75 C104.1 85.49, 143.83 35.06, 172.01 2.45 M60.48 130.75 C96.81 90.55, 131.77 48.83, 172.01 2.45 M65.46 131.11 C93.91 96.88, 125.02 61.71, 175.02 5.07 M65.46 131.11 C92.64 100.19, 120.82 67.03, 175.02 5.07 M71.11 130.71 C112.57 85.23, 153.81 36.96, 178.7 6.94 M71.11 130.71 C108.06 88.39, 145.08 46.04, 178.7 6.94 M76.09 131.07 C105.08 95.28, 138.08 59.1, 182.37 8.81 M76.09 131.07 C114.2 88.51, 149.58 47.14, 182.37 8.81 M81.74 130.68 C106.02 102.18, 128.91 78.25, 184.08 12.94 M81.74 130.68 C113.35 93.04, 144.65 56.87, 184.08 12.94 M86.72 131.04 C118.08 95.11, 153.23 54.84, 186.44 16.32 M86.72 131.04 C117.14 96.99, 147.04 63.82, 186.44 16.32 M92.37 130.64 C127.9 87.52, 167.37 47.41, 188.81 19.7 M92.37 130.64 C119.86 101.65, 145.55 70.19, 188.81 19.7 M97.35 131 C117.82 108.21, 140.98 80.93, 189.2 25.34 M97.35 131 C116.98 108.91, 137.26 84.22, 189.2 25.34 M103 130.61 C136.57 89.26, 171.76 50.83, 190.25 30.23 M103 130.61 C122.76 106.41, 144.28 82.96, 190.25 30.23 M107.98 130.97 C125.27 111.84, 142.09 91.11, 191.96 34.37 M107.98 130.97 C131.3 104.22, 155.05 78.82, 191.96 34.37 M113.63 130.57 C134.45 103.23, 160.31 79.08, 191.7 40.76 M113.63 130.57 C144.31 95.47, 174.5 59.81, 191.7 40.76 M118.61 130.93 C137.75 111.03, 154.5 89.87, 191.44 47.16 M118.61 130.93 C141.47 102.85, 166.45 75.47, 191.44 47.16 M124.26 130.54 C147.46 103.5, 173.47 75.75, 191.83 52.8 M124.26 130.54 C145.88 105.13, 168.65 79.55, 191.83 52.8 M129.24 130.9 C148.69 108.33, 166.42 89.05, 191.57 59.2 M129.24 130.9 C149.49 108, 167.45 86.07, 191.57 59.2 M134.89 130.5 C155.17 107.33, 177.69 81.49, 191.31 65.6 M134.89 130.5 C154.85 107.32, 174.96 83.4, 191.31 65.6 M139.87 130.86 C156.49 113.64, 168.43 98.52, 191.7 71.24 M139.87 130.86 C151.49 117.21, 162.88 103.3, 191.7 71.24 M145.52 130.47 C161.76 112.66, 176.76 93.53, 191.44 77.64 M145.52 130.47 C156.28 117.91, 167.25 105.09, 191.44 77.64 M150.5 130.83 C162.12 117.24, 173.84 102.84, 191.18 84.04 M150.5 130.83 C165.29 113.35, 181.2 95.64, 191.18 84.04 M156.8 129.68 C162.54 121.48, 172.57 111.2, 191.57 89.68 M156.8 129.68 C165.43 119.15, 173.8 109.76, 191.57 89.68 M163.1 128.53 C168.48 119.67, 176.88 115.44, 191.31 96.08 M163.1 128.53 C172.49 118.99, 181.31 107.65, 191.31 96.08 M168.74 128.14 C175.21 119.34, 182.16 110.42, 189.08 104.74 M168.74 128.14 C175.45 120.24, 179.99 113.88, 189.08 104.74 M173.08 129.25 C177.19 124.33, 181.2 120.12, 188.16 111.89 M173.08 129.25 C178.63 122.82, 183.29 118.06, 188.16 111.89" stroke="#15aabf" stroke-width="0.5" fill="none"></path><path d="M32.38 0 M32.38 0 C59.47 0.53, 86.35 0.71, 156.63 0 M32.38 0 C58.83 -0.86, 86.49 -1.13, 156.63 0 M156.63 0 C178.54 0.77, 188.02 12.76, 189 32.38 M156.63 0 C176.95 -1.92, 188.1 10.48, 189 32.38 M189 32.38 C187.54 55.73, 189.14 76.5, 189 97.13 M189 32.38 C188.63 53.4, 189.03 75.28, 189 97.13 M189 97.13 C189.01 120.57, 176.94 131.45, 156.63 129.5 M189 97.13 C188.05 116.73, 178.13 131.45, 156.63 129.5 M156.63 129.5 C108.48 127.45, 61.23 127.49, 32.38 129.5 M156.63 129.5 C126.75 130.65, 95.36 130.59, 32.38 129.5 M32.38 129.5 C10.53 128.88, -0.85 117.35, 0 97.13 M32.38 129.5 C8.99 128.41, -0.39 116.73, 0 97.13 M0 97.13 C1.39 81.75, 1.24 62.17, 0 32.38 M0 97.13 C0.87 72.32, 0.5 49.13, 0 32.38 M0 32.38 C0.56 10.61, 8.82 -0.34, 32.38 0 M0 32.38 C0.59 8.49, 12.75 1.37, 32.38 0" stroke="#0b7285" stroke-width="1" fill="none"></path></g><g transform="translate(380 12.25) rotate(0 23.5 18)"><text x="0" y="25" font-family="Virgil, Segoe UI Emoji" font-size="28px" fill="#0b7285" text-anchor="start" style="white-space: pre;" direction="ltr">.plt</text></g><g stroke-linecap="round" transform="translate(327.75 112.25) rotate(0 85.24999999999994 14.5)"><path d="M9.2 0.23 L166.51 -0.04 L169.11 2.3 L170.27 24.15 L166.95 28.17 L161.61 27.44 L5.32 28.41 L0.85 24.69 L-0.89 7 L1.48 3.2 L7.68 -0.9" stroke="none" stroke-width="0" fill="#ffffff"></path><path d="M7.25 0 M7.25 0 C63.52 1.12, 115.92 -0.55, 163.25 0 M7.25 0 C68.8 -0.4, 130.27 0.13, 163.25 0 M163.25 0 C169.69 -0.89, 168.59 1.96, 170.5 7.25 M163.25 0 C166.72 -0.69, 172.09 2.63, 170.5 7.25 M170.5 7.25 C170.5 11.41, 169.33 18.37, 170.5 21.75 M170.5 7.25 C170.2 10.23, 170.04 13.38, 170.5 21.75 M170.5 21.75 C171.11 26.89, 169.39 30.88, 163.25 29 M170.5 21.75 C171.54 26.39, 168.49 29.72, 163.25 29 M163.25 29 C125.66 30, 91.9 30.69, 7.25 29 M163.25 29 C105.4 29.8, 46.98 30.34, 7.25 29 M7.25 29 C0.98 28.83, -0.49 28.04, 0 21.75 M7.25 29 C1.98 29.29, -0.73 28.29, 0 21.75 M0 21.75 C-1.37 15.34, 0.46 11.63, 0 7.25 M0 21.75 C-0.05 16.59, -0.04 10.54, 0 7.25 M0 7.25 C1.63 3.49, 1.98 -1.22, 7.25 0 M0 7.25 C-0.07 1.13, 1.06 -0.76, 7.25 0" stroke="#0b7285" stroke-width="1" fill="none"></path></g><g transform="translate(339.1200980392159 118.75) rotate(0 43.5 10)"><text x="0" y="14" font-family="Virgil, Segoe UI Emoji" font-size="16px" fill="#0b7285" text-anchor="start" style="white-space: pre;" direction="ltr">e_add@plt</text></g><g stroke-linecap="round" transform="translate(329.75 76.25) rotate(0 83.99999999999993 13.25)"><path d="M6.72 -0.49 L160.44 -1.78 L164.5 -0.36 L165.85 4.71 L166.36 18.31 L167.59 24.71 L161.77 26.26 L5.74 26.25 L1.33 26.23 L0.43 18.98 L1.38 4.77 L0.84 3.61 L7.11 0.04" stroke="none" stroke-width="0" fill="#ffffff"></path><path d="M6.63 0 M6.63 0 C43.16 -1.26, 79.22 -1.22, 161.37 0 M6.63 0 C44.99 0.46, 84.68 0.39, 161.37 0 M161.37 0 C167.17 0.19, 168.99 0.95, 168 6.63 M161.37 0 C165.25 0.14, 166.56 0.49, 168 6.63 M168 6.63 C168.98 10.94, 167.98 15.51, 168 19.88 M168 6.63 C168.47 11.73, 168.34 15.55, 168 19.88 M168 19.88 C168.35 24.92, 164.39 26.18, 161.37 26.5 M168 19.88 C169.89 22.28, 165.47 26.88, 161.37 26.5 M161.37 26.5 C113.6 29.2, 60.89 29.41, 6.63 26.5 M161.37 26.5 C116.11 27.09, 71.15 26.49, 6.63 26.5 M6.63 26.5 C1.57 27.99, 1.51 25.32, 0 19.88 M6.63 26.5 C2.59 24.45, -1.54 25.14, 0 19.88 M0 19.88 C-0.41 14.97, 0.43 10.29, 0 6.63 M0 19.88 C-0.25 16.08, -0.13 12.71, 0 6.63 M0 6.63 C-1.18 1.55, 1.2 -1.65, 6.63 0 M0 6.63 C-1.08 1.29, 0.62 -0.98, 6.63 0" stroke="#0b7285" stroke-width="1" fill="none"></path></g><g transform="translate(339.1200980392159 75.75) rotate(0 14 10)"><text x="0" y="14" font-family="Virgil, Segoe UI Emoji" font-size="16px" fill="#0b7285" text-anchor="start" style="white-space: pre;" direction="ltr">......</text></g><g stroke-linecap="round" transform="translate(328.25 152.75) rotate(0 84.24999999999994 13.25)"><path d="M5.69 -1.78 L162.1 -0.78 L163.04 1.4 L166.44 2.16 L169.74 19.74 L167.24 24.61 L160.99 26.25 L6.3 27.89 L2.09 23.95 L0.96 20.92 L-0.4 5.68 L2.14 1.7 L5.44 1.88" stroke="none" stroke-width="0" fill="#ffffff"></path><path d="M6.63 0 M6.63 0 C65.82 0.09, 128.03 1.46, 161.87 0 M6.63 0 C45.72 0.06, 86.69 0.45, 161.87 0 M161.87 0 C167.28 -1.26, 168.03 2.33, 168.5 6.63 M161.87 0 C164.85 -1.71, 170.06 -0.05, 168.5 6.63 M168.5 6.63 C168.72 9.84, 169.12 15.19, 168.5 19.88 M168.5 6.63 C168.88 10.75, 168.7 15.19, 168.5 19.88 M168.5 19.88 C167.09 23.97, 167.93 24.75, 161.87 26.5 M168.5 19.88 C168.18 24.67, 166.76 28.23, 161.87 26.5 M161.87 26.5 C100.49 29.11, 41.47 26.11, 6.63 26.5 M161.87 26.5 C116.46 27.75, 71.11 28.37, 6.63 26.5 M6.63 26.5 C3.72 27.53, 0.33 22.51, 0 19.88 M6.63 26.5 C0.67 27.35, 1.23 26.03, 0 19.88 M0 19.88 C0.56 16.38, -0.55 14.4, 0 6.63 M0 19.88 C0.01 14.82, -0.36 10.29, 0 6.63 M0 6.63 C-1.01 0.56, 1.27 -0.8, 6.63 0 M0 6.63 C-1.59 1.23, 1.44 -1.94, 6.63 0" stroke="#0b7285" stroke-width="1" fill="none"></path></g><g transform="translate(340.1200980392159 153.25) rotate(0 14 10)"><text x="0" y="14" font-family="Virgil, Segoe UI Emoji" font-size="16px" fill="#0b7285" text-anchor="start" style="white-space: pre;" direction="ltr">......</text></g><g stroke-linecap="round"><g transform="translate(197.55567761245936 164.10615079365073) rotate(0 55.074489091766026 -21.175968264599135)"><path d="M0.44 -1.12 C7.15 -2.14, 28.39 -2.59, 38.41 -8.19 C48.42 -13.79, 48.12 -29.18, 60.53 -34.69 C72.95 -40.2, 103.97 -40.37, 112.91 -41.24 M-2.76 -4.19 C3.72 -4.59, 25.92 -0.27, 36.03 -4.86 C46.14 -9.44, 45.19 -25.94, 57.92 -31.72 C70.65 -37.5, 102.22 -38.28, 112.38 -39.51" stroke="#1864ab" stroke-width="1" fill="none"></path></g><g transform="translate(197.55567761245936 164.10615079365073) rotate(0 55.074489091766026 -21.175968264599135)"><path d="M86.63 -28.77 C93.28 -33.2, 99.35 -36.6, 110.06 -40.61 M89.82 -29.3 C95.5 -33.11, 102.94 -35.39, 113.15 -41.19" stroke="#1864ab" stroke-width="1" fill="none"></path></g><g transform="translate(197.55567761245936 164.10615079365073) rotate(0 55.074489091766026 -21.175968264599135)"><path d="M85.14 -46.9 C91.87 -47.08, 98.3 -46.23, 110.06 -40.61 M88.33 -47.43 C94.32 -45.98, 102.19 -43.02, 113.15 -41.19" stroke="#1864ab" stroke-width="1" fill="none"></path></g></g><g stroke-linecap="round"><g transform="translate(513.5 125.12372580449266) rotate(0 31.532918492704624 0.547843221131842)"><path d="M-0.58 -1.18 C9.93 -1.12, 52.77 0.5, 63.64 1.04 M1.32 0.82 C11.59 0.97, 52.02 2.4, 62.51 2.26" stroke="#0b7285" stroke-width="1" fill="none"></path></g><g transform="translate(513.5 125.12372580449266) rotate(0 31.532918492704624 0.547843221131842)"><path d="M32.21 11.53 C43.01 9.96, 54.67 3.88, 62.33 0.37 M33.6 11.84 C44.89 9.27, 55.45 5.64, 61.6 2.32" stroke="#0b7285" stroke-width="1" fill="none"></path></g><g transform="translate(513.5 125.12372580449266) rotate(0 31.532918492704624 0.547843221131842)"><path d="M32.5 -8.99 C43.31 -3.39, 54.88 -2.31, 62.33 0.37 M33.89 -8.68 C45.08 -3.86, 55.53 -0.1, 61.6 2.32" stroke="#0b7285" stroke-width="1" fill="none"></path></g></g><g transform="translate(530 94) rotate(0 17.5 10)"><text x="17.5" y="14" font-family="Virgil, Segoe UI Emoji" font-size="16px" fill="#0b7285" text-anchor="middle" style="white-space: pre;" direction="ltr">load</text></g><g transform="translate(793.6438492063493 244.5) rotate(0 17 12.5)"><text x="17" y="18" font-family="Virgil, Segoe UI Emoji" font-size="20px" fill="#5c940d" text-anchor="middle" style="white-space: pre;" direction="ltr">.plt</text></g><g stroke-linecap="round"><g transform="translate(917.3150916192562 127.41984107757605) rotate(0 16.656958731901 61.31480076565845)"><path d="M-1.03 0.83 C3.74 5.26, 23.46 10.82, 28.92 26.44 C34.38 42.05, 36.39 78.64, 31.76 94.53 C27.12 110.42, 6.14 117.26, 1.09 121.78 M0.64 0.23 C5.26 4.8, 23.23 11.64, 28.26 27.55 C33.29 43.46, 35.36 79.86, 30.81 95.67 C26.26 111.48, 5.53 118.1, 0.98 122.4" stroke="#5c940d" stroke-width="1" fill="none"></path></g><g transform="translate(917.3150916192562 127.41984107757605) rotate(0 16.656958731901 61.31480076565845)"><path d="M15.13 107.18 C8.18 110.9, 4.76 115.65, -0.54 121.9 M13.84 107.06 C10.7 110.09, 7.84 113.64, 1.23 122.7" stroke="#5c940d" stroke-width="1" fill="none"></path></g><g transform="translate(917.3150916192562 127.41984107757605) rotate(0 16.656958731901 61.31480076565845)"><path d="M22.52 119.16 C13.15 118.87, 7.3 119.68, -0.54 121.9 M21.23 119.04 C16.4 119.59, 11.98 120.61, 1.23 122.7" stroke="#5c940d" stroke-width="1" fill="none"></path></g></g><g transform="translate(963.5 178) rotate(0 21 12.5)"><text x="21" y="18" font-family="Virgil, Segoe UI Emoji" font-size="20px" fill="#5c940d" text-anchor="middle" style="white-space: pre;" direction="ltr">jump</text></g><g stroke-linecap="round" transform="translate(717.5 293.25) rotate(0 94.5 58.5)"><path d="M29.25 0 M29.25 0 C68.28 0.39, 108.83 -2.17, 159.75 0 M29.25 0 C79.42 -0.53, 129.63 -0.46, 159.75 0 M159.75 0 C178.34 -1.38, 189.63 8.41, 189 29.25 M159.75 0 C179 0.24, 190.22 10.93, 189 29.25 M189 29.25 C189.19 43.94, 187.75 57.11, 189 87.75 M189 29.25 C187.48 43.29, 188.31 57.76, 189 87.75 M189 87.75 C189.88 105.74, 179.59 115.06, 159.75 117 M189 87.75 C187.9 105.35, 180.07 115.4, 159.75 117 M159.75 117 C114.15 114.65, 70.4 117.16, 29.25 117 M159.75 117 C120.45 116.76, 79.31 117.63, 29.25 117 M29.25 117 C7.91 116.15, 1.69 108.56, 0 87.75 M29.25 117 C8.2 117.45, 2.16 108.71, 0 87.75 M0 87.75 C0.16 64.41, 0.44 42.84, 0 29.25 M0 87.75 C-0.85 68.19, -0.28 47.98, 0 29.25 M0 29.25 C-0.92 11.36, 7.91 -0.75, 29.25 0 M0 29.25 C-2.19 10.19, 8.18 -0.43, 29.25 0" stroke="#5c940d" stroke-width="1" fill="none"></path></g><g transform="translate(781 339.25) rotate(0 31 12.5)"><text x="31" y="18" font-family="Virgil, Segoe UI Emoji" font-size="20px" fill="#5c940d" text-anchor="middle" style="white-space: pre;" direction="ltr">LD.SO</text></g><g stroke-linecap="round"><g transform="translate(920.2815507567083 273.70319688979896) rotate(0 12.099452123933816 16.682921711745507)"><path d="M0.98 -0.08 C4.64 -0.13, 17.36 -4.58, 21.16 -0.66 C24.96 3.25, 27.68 17.51, 23.78 23.42 C19.87 29.32, 2.07 32.78, -2.26 34.76 M0.03 -1.16 C4.13 -1.04, 19.46 -3.26, 23.37 0.55 C27.28 4.35, 27.67 15.82, 23.48 21.67 C19.29 27.51, 2.71 33.29, -1.77 35.64" stroke="#5c940d" stroke-width="1" fill="none"></path></g><g transform="translate(920.2815507567083 273.70319688979896) rotate(0 12.099452123933816 16.682921711745507)"><path d="M8.47 24.54 C5.38 29.15, 5.06 30.99, -2.28 36.27 M9 26.17 C6.05 28.53, 2.75 32.46, -2.27 35.07" stroke="#5c940d" stroke-width="1" fill="none"></path></g><g transform="translate(920.2815507567083 273.70319688979896) rotate(0 12.099452123933816 16.682921711745507)"><path d="M12.46 33.51 C8.46 36.06, 7.21 35.8, -2.28 36.27 M12.98 35.14 C8.72 34.75, 4.19 35.92, -2.27 35.07" stroke="#5c940d" stroke-width="1" fill="none"></path></g></g><g stroke-linecap="round" transform="translate(10 198) rotate(0 89.5 60.5)"><path d="M30.25 0 M30.25 0 C74.47 0.44, 123.59 -0.57, 148.75 0 M30.25 0 C60.67 -0.88, 90.08 0.66, 148.75 0 M148.75 0 C168.17 -0.22, 178.27 9.29, 179 30.25 M148.75 0 C170.29 -2.06, 177.01 10.74, 179 30.25 M179 30.25 C177.61 48.25, 179.36 69.21, 179 90.75 M179 30.25 C179.41 46.6, 179.41 63.58, 179 90.75 M179 90.75 C177.32 111.1, 170.22 119.5, 148.75 121 M179 90.75 C180.04 111.64, 169.03 119.76, 148.75 121 M148.75 121 C120.86 121.15, 91.2 119.3, 30.25 121 M148.75 121 C102.67 120.33, 54.64 121.76, 30.25 121 M30.25 121 C11.4 120.84, -1.51 110.16, 0 90.75 M30.25 121 C8.61 119.12, -1.3 110.93, 0 90.75 M0 90.75 C-1.79 68.86, -0.62 45.44, 0 30.25 M0 90.75 C-0.52 66.76, -0.43 42.74, 0 30.25 M0 30.25 C-1.7 9.17, 11.05 1.47, 30.25 0 M0 30.25 C-2 9.85, 11.27 1.4, 30.25 0" stroke="#1864ab" stroke-width="1" fill="none"></path></g><g transform="translate(66.5 246) rotate(0 33 12.5)"><text x="33" y="18" font-family="Virgil, Segoe UI Emoji" font-size="20px" fill="#1864ab" text-anchor="middle" style="white-space: pre;" direction="ltr">e_add</text></g><g transform="translate(341 310.5) rotate(0 83.5 18)"><text x="83.5" y="25" font-family="Virgil, Segoe UI Emoji" font-size="28px" fill="#d9480f" text-anchor="middle" style="white-space: pre;" direction="ltr">0xf7fd544a</text></g><g stroke-linecap="round"><g transform="translate(423.66363991903603 293.5) rotate(0 131.33623232407265 -67.9908834539354)"><path d="M0.16 0.52 C4.87 -6.98, -3.8 -29.81, 28.67 -45.51 C61.14 -61.2, 155.89 -78.47, 194.97 -93.63 C234.06 -108.8, 252.07 -129.71, 263.2 -136.5 M-1.22 -0.26 C3.8 -8.03, -1.87 -31.71, 30.77 -47.11 C63.41 -62.5, 155.76 -77.82, 194.62 -92.62 C233.47 -107.42, 252.4 -128.52, 263.9 -135.92" stroke="#e67700" stroke-width="1" fill="none"></path></g><g transform="translate(423.66363991903603 293.5) rotate(0 131.33623232407265 -67.9908834539354)"><path d="M248.74 -112.49 C255 -117.75, 257.72 -126.09, 262.23 -136.93 M247.52 -111.14 C254.39 -120.58, 261.35 -131.28, 262.97 -136.45" stroke="#e67700" stroke-width="1" fill="none"></path></g><g transform="translate(423.66363991903603 293.5) rotate(0 131.33623232407265 -67.9908834539354)"><path d="M236.18 -128.73 C246.56 -128.57, 253.48 -131.49, 262.23 -136.93 M234.96 -127.37 C246.84 -130.27, 258.78 -134.54, 262.97 -136.45" stroke="#e67700" stroke-width="1" fill="none"></path></g></g><g stroke-linecap="round"><g transform="translate(694.75 362.66881571245494) rotate(0 -132.08539355466607 6.476214537387307)"><path d="M0.64 -0.99 C-9.32 2.63, -26.56 18.18, -59.67 22.12 C-92.78 26.05, -163.89 28.66, -198.02 22.6 C-232.15 16.54, -253.63 -7.9, -264.44 -14.25 M-0.48 1.1 C-10.58 4.84, -27.43 19.52, -60.44 23.28 C-93.46 27.03, -164.51 29.66, -198.57 23.63 C-232.63 17.59, -253.89 -6.4, -264.81 -12.93" stroke="#d9480f" stroke-width="1" fill="none"></path></g><g transform="translate(694.75 362.66881571245494) rotate(0 -132.08539355466607 6.476214537387307)"><path d="M-237.81 -3.5 C-246.2 -5.94, -254.77 -11.34, -264.12 -12.26 M-236.59 -4.66 C-243.16 -5.06, -249.55 -8.3, -265.25 -13.75" stroke="#d9480f" stroke-width="1" fill="none"></path></g><g transform="translate(694.75 362.66881571245494) rotate(0 -132.08539355466607 6.476214537387307)"><path d="M-250.22 12.84 C-254.84 5.3, -259.58 -5.14, -264.12 -12.26 M-249.01 11.68 C-252.85 7.42, -256.4 0.44, -265.25 -13.75" stroke="#d9480f" stroke-width="1" fill="none"></path></g></g><g transform="translate(515.5 240) rotate(0 47.5 10)"><text x="0" y="14" font-family="Virgil, Segoe UI Emoji" font-size="16px" fill="#e67700" text-anchor="start" style="white-space: pre;" direction="ltr">update .got</text></g><g stroke-linecap="round"><g transform="translate(330.5 319.5) rotate(0 -62.88029275103857 -51.685335875134854)"><path d="M0.47 0.98 C-9.56 -1.84, -44.48 -0.49, -59.69 -16.56 C-74.89 -32.64, -79.68 -81.02, -90.77 -95.47 C-101.86 -109.92, -120.32 -102.11, -126.23 -103.24 M-0.74 0.45 C-10.45 -2.19, -42.27 0.85, -57.46 -14.93 C-72.65 -30.71, -80.49 -79.62, -91.88 -94.22 C-103.27 -108.82, -119.83 -101.28, -125.78 -102.54" stroke="#d9480f" stroke-width="1" fill="none"></path></g><g transform="translate(330.5 319.5) rotate(0 -62.88029275103857 -51.685335875134854)"><path d="M-107.14 -111.26 C-114.21 -108.26, -120.57 -104.15, -126.95 -102 M-107.88 -109.77 C-114.56 -107.97, -118.9 -105.5, -126.22 -102.69" stroke="#d9480f" stroke-width="1" fill="none"></path></g><g transform="translate(330.5 319.5) rotate(0 -62.88029275103857 -51.685335875134854)"><path d="M-106.47 -98.55 C-113.81 -99.9, -120.4 -100.14, -126.95 -102 M-107.21 -97.07 C-114.05 -99.31, -118.61 -100.91, -126.22 -102.69" stroke="#d9480f" stroke-width="1" fill="none"></path></g></g><g transform="translate(272.5 222) rotate(0 17 10)"><text x="0" y="14" font-family="Virgil, Segoe UI Emoji" font-size="16px" fill="#d9480f" text-anchor="start" style="white-space: pre;" direction="ltr">jump</text></g><g stroke-linecap="round"><g transform="translate(101.50000000000003 49) rotate(0 -1.326289634626292 44.51051969801003)"><path d="M-2.03 -0.79 C-2.52 14.23, -2.9 77.66, -2.86 92.7 M2.06 -3.68 C1.25 11.64, -3.92 72.28, -4.71 88.09" stroke="#1864ab" stroke-width="1" fill="none"></path></g><g transform="translate(101.50000000000003 49) rotate(0 -1.326289634626292 44.51051969801003)"><path d="M-14.12 60.28 C-8.89 70.61, -11.04 75.16, -6.05 89.76 M-11.23 57.83 C-8.95 68.39, -7.3 83.06, -2.85 86.35" stroke="#1864ab" stroke-width="1" fill="none"></path></g><g transform="translate(101.50000000000003 49) rotate(0 -1.326289634626292 44.51051969801003)"><path d="M6.35 61.7 C5.36 71.31, -3 75.42, -6.05 89.76 M9.24 59.25 C3.82 68.88, -2.27 83.01, -2.85 86.35" stroke="#1864ab" stroke-width="1" fill="none"></path></g></g><g stroke-linecap="round"><g transform="translate(96.38957233361813 332.75229357798173) rotate(0 -2.2005131432749323 29.953029651993177)"><path d="M-0.29 0.09 C-0.94 10.11, -1.35 49.32, -2.25 59.72 M-3.89 -2.34 C-4.83 8.02, -2.39 50.86, -3.06 62.24" stroke="#1864ab" stroke-width="1" fill="none"></path></g><g transform="translate(96.38957233361813 332.75229357798173) rotate(0 -2.2005131432749323 29.953029651993177)"><path d="M-13.3 37.86 C-12.68 43.11, -5.03 55.41, -0.56 58.63 M-11.87 32.32 C-12.87 43.02, -9.7 49.94, -4.98 62.19" stroke="#1864ab" stroke-width="1" fill="none"></path></g><g transform="translate(96.38957233361813 332.75229357798173) rotate(0 -2.2005131432749323 29.953029651993177)"><path d="M7.22 37.78 C0.46 43.02, 0.73 55.35, -0.56 58.63 M8.65 32.25 C2.37 43.14, 0.25 50.07, -4.98 62.19" stroke="#1864ab" stroke-width="1" fill="none"></path></g></g><g transform="translate(963 272.5) rotate(0 21 12.5)"><text x="21" y="18" font-family="Virgil, Segoe UI Emoji" font-size="20px" fill="#5c940d" text-anchor="middle" style="white-space: pre;" direction="ltr">jump</text></g></svg>