<svg version="1.1" xmlns="http://www.w3.org/2000/svg" viewBox="0 0 1025 266.9665320972887" width="2050" height="533.9330641945774">
  <!-- svg-source:excalidraw -->
  
  <defs>
    <style>
      @font-face {
        font-family: "Virgil";
        src: url("https://excalidraw.com/Virgil.woff2");
      }
      @font-face {
        font-family: "Cascadia";
        src: url("https://excalidraw.com/Cascadia.woff2");
      }
    </style>
  </defs>
  <rect x="0" y="0" width="1025" height="266.9665320972887" fill="#ffffff"></rect><g stroke-linecap="round" transform="translate(215 110.75) rotate(0 88 40.75)"><path d="M20.38 0 M20.38 0 C49.79 -0.05, 83.61 2.7, 155.63 0 M20.38 0 C58.55 -0.16, 92.66 3.73, 155.63 0 M155.63 0 C166.02 -2.05, 172.18 3.48, 176 20.38 M155.63 0 C166.32 -3.95, 173.17 3.03, 176 20.38 M176 20.38 C172.66 33.66, 175.16 46.6, 176 61.13 M176 20.38 C175.92 34.09, 175.2 45.78, 176 61.13 M176 61.13 C176.39 75.88, 172.02 84.66, 155.63 81.5 M176 61.13 C176.72 74.68, 171.83 79.5, 155.63 81.5 M155.63 81.5 C106.03 79.15, 62.83 78.19, 20.38 81.5 M155.63 81.5 C123.27 85.42, 94.13 82.57, 20.38 81.5 M20.38 81.5 C9.73 85.22, 3.07 75.56, 0 61.13 M20.38 81.5 C4.81 84.56, 2.15 77.05, 0 61.13 M0 61.13 C0.89 48.96, 1.83 35.19, 0 20.38 M0 61.13 C0.79 45.19, -2.14 26.87, 0 20.38 M0 20.38 C-2.37 9.92, 6 -3.66, 20.38 0 M0 20.38 C-0.59 9.65, 9.02 3.98, 20.38 0" stroke="#c92a2a" stroke-width="2" fill="none"></path></g><g transform="translate(258 127.25) rotate(0 44 25)"><text x="0" y="18" font-family="Virgil, Segoe UI Emoji" font-size="20px" fill="#c92a2a" text-anchor="start" style="white-space: pre;" direction="ltr">XiaoXuan</text><text x="0" y="43" font-family="Virgil, Segoe UI Emoji" font-size="20px" fill="#c92a2a" text-anchor="start" style="white-space: pre;" direction="ltr">Assembly</text></g><g stroke-linecap="round" transform="translate(10 122.5) rotate(0 76.25 25.57585751978891)"><path d="M12.79 0 M12.79 0 C60.03 -2.49, 102.69 2.28, 139.71 0 M12.79 0 C55.81 -0.68, 96.4 -0.19, 139.71 0 M139.71 0 C148.19 2.9, 151.61 6.91, 152.5 12.79 M139.71 0 C150.98 -2.54, 152.73 0.26, 152.5 12.79 M152.5 12.79 C151.94 17.84, 152.39 26.05, 152.5 38.36 M152.5 12.79 C153.95 20.11, 154.1 25.19, 152.5 38.36 M152.5 38.36 C155.81 50.43, 145.29 52.47, 139.71 51.15 M152.5 38.36 C152.24 45.28, 146.39 47.4, 139.71 51.15 M139.71 51.15 C112.72 47.03, 77.07 46.81, 12.79 51.15 M139.71 51.15 C102.4 52.56, 66.27 53.36, 12.79 51.15 M12.79 51.15 C6.93 52.81, -1.36 49.97, 0 38.36 M12.79 51.15 C5.92 55.35, 2.73 42.33, 0 38.36 M0 38.36 C-2.71 31.6, -1.56 28.61, 0 12.79 M0 38.36 C-0.48 27.39, -1.07 18.28, 0 12.79 M0 12.79 C-3.43 5.45, 6.83 -0.13, 12.79 0 M0 12.79 C1.01 4.6, 3.19 -3.98, 12.79 0" stroke="#1864ab" stroke-width="2" fill="none"></path></g><g transform="translate(24.688654353562015 135.96965699208445) rotate(0 61.5 12.5)"><text x="0" y="18" font-family="Virgil, Segoe UI Emoji" font-size="20px" fill="#1864ab" text-anchor="start" style="white-space: pre;" direction="ltr">XiaoXuan IR</text></g><g stroke-linecap="round" transform="translate(449.5 10) rotate(0 67.75 40.75)"><path d="M20.38 0 M20.38 0 C43.02 0.71, 73.31 3.17, 115.13 0 M20.38 0 C52.94 -2.71, 79.84 -2.93, 115.13 0 M115.13 0 C130.92 2.01, 133.06 6.25, 135.5 20.38 M115.13 0 C125.98 -2.21, 135.32 10.83, 135.5 20.38 M135.5 20.38 C135.66 34.02, 131.33 54.11, 135.5 61.13 M135.5 20.38 C136.19 31.95, 137.67 44.82, 135.5 61.13 M135.5 61.13 C137.93 73.62, 125.31 85.11, 115.13 81.5 M135.5 61.13 C134 75.55, 128.3 81.61, 115.13 81.5 M115.13 81.5 C84.89 81.96, 63.36 84.25, 20.38 81.5 M115.13 81.5 C81.71 81.38, 46.8 80.23, 20.38 81.5 M20.38 81.5 C9.97 84.73, -3.4 71.21, 0 61.13 M20.38 81.5 C8.09 83.8, 1.27 74.55, 0 61.13 M0 61.13 C-0.44 46.41, -1.36 31.03, 0 20.38 M0 61.13 C1.87 45.25, -0.17 30.22, 0 20.38 M0 20.38 C-3.39 5.61, 9.65 1, 20.38 0 M0 20.38 C2.34 5.82, 6.52 2.12, 20.38 0" stroke="#5c940d" stroke-width="2" fill="none"></path></g><g transform="translate(471 26.5) rotate(0 47.5 25)"><text x="0" y="18" font-family="Virgil, Segoe UI Emoji" font-size="20px" fill="#5c940d" text-anchor="start" style="white-space: pre;" direction="ltr">XiaoXuan</text><text x="0" y="43" font-family="Virgil, Segoe UI Emoji" font-size="20px" fill="#5c940d" text-anchor="start" style="white-space: pre;" direction="ltr">Assembler</text></g><g stroke-linecap="round" transform="translate(853 98.25) rotate(0 81 41.5)"><path d="M79.92 1.09 C91.61 0.54, 107.81 0.31, 118.86 3.21 C129.91 6.11, 138.83 12.95, 146.23 18.49 C153.63 24.03, 161.79 30.37, 163.25 36.46 C164.72 42.54, 159.77 48.61, 155.04 54.98 C150.31 61.36, 143.79 69.96, 134.87 74.72 C125.96 79.48, 113.74 82.19, 101.53 83.55 C89.33 84.92, 74.32 84.9, 61.65 82.92 C48.97 80.94, 35.01 76.23, 25.48 71.68 C15.95 67.13, 8.88 61.84, 4.45 55.6 C0.01 49.36, -3.12 40.58, -1.12 34.25 C0.88 27.91, 8.68 22.57, 16.46 17.6 C24.23 12.63, 32.35 7.49, 45.52 4.44 C58.69 1.39, 85.5 -0.37, 95.45 -0.68 C105.4 -0.99, 105.63 1.47, 105.23 2.58 M142.53 15.41 C151.3 19.62, 160.74 27.4, 163.33 33.97 C165.92 40.53, 162.38 48.27, 158.08 54.8 C153.78 61.34, 145.95 68.52, 137.53 73.18 C129.12 77.83, 119.29 81.3, 107.59 82.73 C95.89 84.16, 79.69 82.86, 67.36 81.74 C55.04 80.62, 43.53 79.58, 33.64 76 C23.75 72.41, 13.42 66.56, 8.01 60.25 C2.6 53.94, 0.37 44.73, 1.16 38.13 C1.94 31.54, 6.4 26.43, 12.71 20.69 C19.03 14.95, 29 6.82, 39.03 3.71 C49.07 0.6, 60.56 2.13, 72.92 2.05 C85.28 1.98, 101.72 1.18, 113.19 3.26 C124.67 5.35, 137.29 12.13, 141.77 14.58 C146.25 17.03, 140.45 17.71, 140.07 17.99" stroke="#862e9c" stroke-width="2" fill="none"></path></g><g transform="translate(879.5 114.75) rotate(0 54.5 25)"><text x="54.5" y="18" font-family="Virgil, Segoe UI Emoji" font-size="20px" fill="#862e9c" text-anchor="middle" style="white-space: pre;" direction="ltr">Executable</text><text x="54.5" y="43" font-family="Virgil, Segoe UI Emoji" font-size="20px" fill="#862e9c" text-anchor="middle" style="white-space: pre;" direction="ltr">File</text></g><g stroke-linecap="round" transform="translate(461 197.34823564593302) rotate(0 63.517543859649095 29.41295354864434)"><path d="M14.71 0 M14.71 0 C40.99 1.08, 69.64 0.83, 112.33 0 M14.71 0 C48.42 -0.96, 81.59 -0.7, 112.33 0 M112.33 0 C122.33 3.31, 123.54 7.38, 127.04 14.71 M112.33 0 C122.65 -4.04, 123.25 9.05, 127.04 14.71 M127.04 14.71 C128.97 24.37, 124.8 33.3, 127.04 44.12 M127.04 14.71 C127.85 26.22, 128.19 33.26, 127.04 44.12 M127.04 44.12 C127.72 56.23, 124.56 59.6, 112.33 58.83 M127.04 44.12 C124.62 54.96, 118.78 62.22, 112.33 58.83 M112.33 58.83 C83.38 62, 56.29 62.12, 14.71 58.83 M112.33 58.83 C91.39 58.15, 71.12 57.77, 14.71 58.83 M14.71 58.83 C3.34 54.96, 0.04 55.47, 0 44.12 M14.71 58.83 C3.09 59.86, -1.2 54.37, 0 44.12 M0 44.12 C0.23 32.37, -2.65 25.16, 0 14.71 M0 44.12 C1.17 35.22, -0.23 30.64, 0 14.71 M0 14.71 C-1.82 7.6, 2.14 -3.69, 14.71 0 M0 14.71 C0.45 0.67, 3.28 3.05, 14.71 0" stroke="#0b7285" stroke-width="2" fill="none"></path></g><g transform="translate(485.5369816586922 208.80253189792666) rotate(0 44 20)"><text x="0" y="14" font-family="Virgil, Segoe UI Emoji" font-size="16px" fill="#0b7285" text-anchor="start" style="white-space: pre;" direction="ltr">Traditional</text><text x="0" y="34" font-family="Virgil, Segoe UI Emoji" font-size="16px" fill="#0b7285" text-anchor="start" style="white-space: pre;" direction="ltr">Assembly</text></g><g stroke-linecap="round" transform="translate(654.4649122807018 198.140625) rotate(0 63.517543859649095 29.41295354864434)"><path d="M14.71 0 M14.71 0 C43.46 2.66, 70.32 1.12, 112.33 0 M14.71 0 C38.44 0.66, 65.5 1.45, 112.33 0 M112.33 0 C123.21 -0.87, 128.48 1.26, 127.04 14.71 M112.33 0 C123.15 1.43, 124.62 7.88, 127.04 14.71 M127.04 14.71 C126.64 30.18, 125.48 33.95, 127.04 44.12 M127.04 14.71 C128.06 26.23, 129.4 35.46, 127.04 44.12 M127.04 44.12 C125.19 53.82, 123.01 57.58, 112.33 58.83 M127.04 44.12 C124.41 57.67, 120.09 61.67, 112.33 58.83 M112.33 58.83 C86.31 59.6, 60.8 57.72, 14.71 58.83 M112.33 58.83 C90.68 59.41, 73.69 58.88, 14.71 58.83 M14.71 58.83 C8.3 62.01, -2.43 51.94, 0 44.12 M14.71 58.83 C6.13 57.37, -3.88 56.84, 0 44.12 M0 44.12 C1.91 40.72, 1.96 28.58, 0 14.71 M0 44.12 C-0.12 37.16, -0.14 25.64, 0 14.71 M0 14.71 C-2.58 7.01, 7.91 1.19, 14.71 0 M0 14.71 C0.81 8.65, 5.52 1.77, 14.71 0" stroke="#0b7285" stroke-width="2" fill="none"></path></g><g transform="translate(682.9460725677832 217.7056668660287) rotate(0 41.5 10)"><text x="0" y="14" font-family="Virgil, Segoe UI Emoji" font-size="16px" fill="#0b7285" text-anchor="start" style="white-space: pre;" direction="ltr">GCC/LLVM</text></g><g stroke-linecap="round"><g transform="translate(373.2493173813309 101.25) rotate(0 32.22524094801628 -21.677947073875522)"><path d="M0.77 0.29 C11.76 -6.88, 54.07 -35.02, 64.74 -42.08 M-0.29 -0.61 C10.64 -8.17, 53.06 -36.44, 63.78 -43.64" stroke="#5c940d" stroke-width="1" fill="none"></path></g><g transform="translate(373.2493173813309 101.25) rotate(0 32.22524094801628 -21.677947073875522)"><path d="M46.53 -19.46 C51.21 -24.34, 54.85 -28.66, 62.57 -44.32 M46.76 -19.67 C52.34 -26.64, 58 -35.18, 63.61 -43.57" stroke="#5c940d" stroke-width="1" fill="none"></path></g><g transform="translate(373.2493173813309 101.25) rotate(0 32.22524094801628 -21.677947073875522)"><path d="M35.12 -36.51 C42.22 -38.04, 48.16 -38.94, 62.57 -44.32 M35.35 -36.73 C44.57 -38.14, 54.02 -41.01, 63.61 -43.57" stroke="#5c940d" stroke-width="1" fill="none"></path></g></g><g stroke-linecap="round"><g transform="translate(795.1021897810219 51.346715873413146) rotate(0 28.328904593476864 27.030088879623584)"><path d="M0.99 -1.19 C10.57 8.05, 47.44 45.97, 56.6 55.25 M0.06 0.8 C9.63 9.72, 46.91 44.37, 56.13 53.53" stroke="#5c940d" stroke-width="1" fill="none"></path></g><g transform="translate(795.1021897810219 51.346715873413146) rotate(0 28.328904593476864 27.030088879623584)"><path d="M26.69 42.97 C36.18 44.45, 41.14 48.5, 56.21 55.38 M28.99 40.58 C38.6 46.25, 46.54 49.72, 57.13 53.49" stroke="#5c940d" stroke-width="1" fill="none"></path></g><g transform="translate(795.1021897810219 51.346715873413146) rotate(0 28.328904593476864 27.030088879623584)"><path d="M40.87 28.14 C47.11 33.12, 48.84 40.54, 56.21 55.38 M43.17 25.75 C48 36.28, 51.24 44.66, 57.13 53.49" stroke="#5c940d" stroke-width="1" fill="none"></path></g></g><g stroke-linecap="round"><g transform="translate(391.75 198.25) rotate(0 27.99662172354755 15.297217365130791)"><path d="M0.24 0.22 C9.56 5.27, 45.64 24.98, 54.93 30.2 M-1.09 -0.72 C8.67 4.48, 47.7 26.28, 57.09 31.31" stroke="#0b7285" stroke-width="1" fill="none"></path></g><g transform="translate(391.75 198.25) rotate(0 27.99662172354755 15.297217365130791)"><path d="M27.8 24.97 C32.55 27.65, 41.22 29.49, 55.75 29.66 M27.89 27.59 C37.63 28.21, 46.65 30.28, 56.17 30.49" stroke="#0b7285" stroke-width="1" fill="none"></path></g><g transform="translate(391.75 198.25) rotate(0 27.99662172354755 15.297217365130791)"><path d="M37.67 6.98 C40.25 13.6, 46.77 19.35, 55.75 29.66 M37.76 9.6 C43.99 16.25, 49.66 24.42, 56.17 30.49" stroke="#0b7285" stroke-width="1" fill="none"></path></g></g><g stroke-linecap="round"><g transform="translate(596.25 224.75) rotate(0 26.625316285933422 -0.807611260414518)"><path d="M-0.44 -0.42 C8.21 -0.28, 42.83 0.23, 51.5 0.13 M1.52 -1.68 C10.58 -1.8, 44.94 -1.8, 53.69 -1.49" stroke="#0b7285" stroke-width="1" fill="none"></path></g><g transform="translate(596.25 224.75) rotate(0 26.625316285933422 -0.807611260414518)"><path d="M28.2 5.46 C37.13 3.49, 41.77 4.31, 51.72 0.02 M29.78 7.16 C38.82 4.3, 46.32 0.52, 54.02 -2.36" stroke="#0b7285" stroke-width="1" fill="none"></path></g><g transform="translate(596.25 224.75) rotate(0 26.625316285933422 -0.807611260414518)"><path d="M28.47 -12.5 C37.22 -9.71, 41.8 -4.14, 51.72 0.02 M30.05 -10.8 C39.04 -7.12, 46.44 -4.37, 54.02 -2.36" stroke="#0b7285" stroke-width="1" fill="none"></path></g></g><g stroke-linecap="round"><g transform="translate(793.919708029197 224.70082825786199) rotate(0 28.444707844260165 -27.579007195460633)"><path d="M0.97 -0.87 C10.52 -9.84, 47.72 -45.84, 56.87 -54.85 M0.02 1.29 C9.43 -7.91, 46.14 -46.77, 55.82 -56.45" stroke="#0b7285" stroke-width="1" fill="none"></path></g><g transform="translate(793.919708029197 224.70082825786199) rotate(0 28.444707844260165 -27.579007195460633)"><path d="M42.12 -29.37 C48.7 -38.41, 51.81 -42.42, 56.3 -56.47 M43.88 -29.67 C47.98 -39.5, 52.2 -49.54, 56.52 -56.69" stroke="#0b7285" stroke-width="1" fill="none"></path></g><g transform="translate(793.919708029197 224.70082825786199) rotate(0 28.444707844260165 -27.579007195460633)"><path d="M27.39 -43.66 C37.76 -49.03, 44.78 -49.24, 56.3 -56.47 M29.14 -43.96 C38.97 -48.37, 48.92 -52.86, 56.52 -56.69" stroke="#0b7285" stroke-width="1" fill="none"></path></g></g><g stroke-linecap="round"><g transform="translate(174.43273389672618 149.2904587273958) rotate(0 11.951750543239768 -0.1562040683778747)"><path d="M0.77 -0.31 C4.68 -0.41, 20.19 -0.24, 24.18 0.23 M-0.28 -1.51 C3.38 -1.58, 18.98 0.83, 23.04 1.2" stroke="#1864ab" stroke-width="1" fill="none"></path></g><g transform="translate(174.43273389672618 149.2904587273958) rotate(0 11.951750543239768 -0.1562040683778747)"><path d="M10.73 3.56 C14.25 3.06, 20.85 2.3, 22.31 0.07 M11 3.35 C13.1 2.87, 15.87 2.34, 23.12 1.4" stroke="#1864ab" stroke-width="1" fill="none"></path></g><g transform="translate(174.43273389672618 149.2904587273958) rotate(0 11.951750543239768 -0.1562040683778747)"><path d="M11.77 -4.79 C14.97 -2.28, 21.2 -0.04, 22.31 0.07 M12.04 -5 C13.88 -3.66, 16.42 -2.37, 23.12 1.4" stroke="#1864ab" stroke-width="1" fill="none"></path></g></g><g stroke-linecap="round" transform="translate(655 10.733266048644339) rotate(0 64.75 40.75)"><path d="M20.38 0 M20.38 0 C48.63 -0.02, 81.81 3.92, 109.12 0 M20.38 0 C48.53 -0.25, 76.81 -0.38, 109.12 0 M109.12 0 C120.46 -3.58, 129.18 4.27, 129.5 20.38 M109.12 0 C118.88 4.08, 126.39 8.28, 129.5 20.38 M129.5 20.38 C133.43 37.37, 133.49 48.94, 129.5 61.13 M129.5 20.38 C131.38 35.63, 129.95 48.8, 129.5 61.13 M129.5 61.13 C127.45 71.36, 120.35 83.11, 109.12 81.5 M129.5 61.13 C125.16 76.63, 119.83 80.5, 109.12 81.5 M109.12 81.5 C93.81 79.43, 71.76 80.24, 20.38 81.5 M109.12 81.5 C75.66 82.3, 41.72 82.22, 20.38 81.5 M20.38 81.5 C7.96 81.14, -3.78 76.75, 0 61.13 M20.38 81.5 C10.7 81.32, 0.57 70.37, 0 61.13 M0 61.13 C-1.02 50.55, 0.49 44.32, 0 20.38 M0 61.13 C-1.1 50.94, 2 43.56, 0 20.38 M0 20.38 C0.49 4.96, 10.09 -3.37, 20.38 0 M0 20.38 C-0.99 5.35, 5.11 2.11, 20.38 0" stroke="#5c940d" stroke-width="2" fill="none"></path></g><g transform="translate(677 26.73326604864434) rotate(0 44 25)"><text x="0" y="18" font-family="Virgil, Segoe UI Emoji" font-size="20px" fill="#5c940d" text-anchor="start" style="white-space: pre;" direction="ltr">XiaoXuan</text><text x="0" y="43" font-family="Virgil, Segoe UI Emoji" font-size="20px" fill="#5c940d" text-anchor="start" style="white-space: pre;" direction="ltr">Linker</text></g><g stroke-linecap="round"><g transform="translate(595.2499999999998 51.39695016776494) rotate(0 26.832186393430447 -1.207728051489795)"><path d="M1.19 -0.39 C9.82 -0.77, 42.39 -1.88, 50.91 -2.03 M0.35 -1.64 C9.46 -1.95, 44.72 -1.36, 53.31 -1.12" stroke="#5c940d" stroke-width="1" fill="none"></path></g><g transform="translate(595.2499999999998 51.39695016776494) rotate(0 26.832186393430447 -1.207728051489795)"><path d="M28.29 6.2 C32.47 6.35, 39.3 3.25, 52.06 -2.48 M28.01 6.29 C34.56 5.8, 39.19 2.89, 53.17 -0.52" stroke="#5c940d" stroke-width="1" fill="none"></path></g><g transform="translate(595.2499999999998 51.39695016776494) rotate(0 26.832186393430447 -1.207728051489795)"><path d="M28.65 -11.41 C32.79 -7.25, 39.54 -6.34, 52.06 -2.48 M28.38 -11.32 C34.9 -8.07, 39.45 -7.25, 53.17 -0.52" stroke="#5c940d" stroke-width="1" fill="none"></path></g></g></svg>